<?xml version="1.0" encoding="utf-8"?>
<!-- Generator: Adobe Illustrator 23.0.1, SVG Export Plug-In . SVG Version: 6.00 Build 0)  -->
<svg version="1.1" id="Layer_1" xmlns="http://www.w3.org/2000/svg" xmlns:xlink="http://www.w3.org/1999/xlink" x="0px" y="0px"
	 viewBox="0 0 131.42 131.42" style="enable-background:new 0 0 131.42 131.42;" xml:space="preserve">
<style type="text/css">
	.st0{fill:#E9E8E8;}
	.st1{fill:#BFBFBF;}
</style>
<g>
	<g>
		<g>
			<path class="st0" d="M108.25,49.42h-0.82v12.09H86.52v0.9c0,0.84,0.68,1.52,1.52,1.52h20.21c0.84,0,1.52-0.68,1.52-1.52V50.95
				C109.77,50.11,109.09,49.42,108.25,49.42z"/>
		</g>
		<path class="st0" d="M108.96,69.79h-1.53v21.52H71.35v1.76c0,0.45,0.37,0.82,0.82,0.82h36.79c0.45,0,0.82-0.37,0.82-0.82V70.61
			C109.78,70.16,109.41,69.79,108.96,69.79z"/>
		<g>
			<path class="st0" d="M62.74,41.15h-1.11v50.16h-36.3v1.3c0,0.74,0.6,1.34,1.34,1.34h36.07c0.74,0,1.34-0.6,1.34-1.34V42.49
				C64.08,41.75,63.48,41.15,62.74,41.15z"/>
		</g>
	</g>
	<g>
		<path class="st1" d="M61.35,37.47H22.6c-0.53,0-0.95,0.43-0.95,0.95v52.79c0,0.53,0.43,0.95,0.95,0.95h38.75
			c0.53,0,0.95-0.43,0.95-0.95V38.42C62.3,37.9,61.87,37.47,61.35,37.47z M60.39,39.38v50.89H23.55V39.38H60.39z"/>
		<path class="st1" d="M82.83,61.22c0,0.53,0.43,0.95,0.95,0.95h23.25c0.53,0,0.95-0.43,0.95-0.95V46.69c0-0.53-0.43-0.95-0.95-0.95
			H93.13v-7.28c0-0.53-0.43-0.95-0.95-0.95H68.92c-0.53,0-0.95,0.43-0.95,0.95v14.52c0,0.53,0.43,0.95,0.95,0.95h13.91V61.22z
			 M69.88,39.41h21.35v6.33h-7.44c-0.53,0-0.95,0.43-0.95,0.95v5.33H69.88V39.41z M84.74,53.93v-0.95v-0.95v-4.38h6.49h0.95h0.95
			h12.95v12.62H84.74V53.93z"/>
		<path class="st1" d="M107.35,67.78c-0.04-0.01-0.08-0.02-0.12-0.02c-0.06-0.01-0.11-0.03-0.16-0.03H70.28c0,0-0.01,0-0.01,0h-0.02
			c-0.41,0-0.78,0.27-0.91,0.66c-0.05,0.16-0.05,0.33-0.02,0.49v22.27c0,0.53,0.43,0.95,0.95,0.95h36.79c0.53,0,0.95-0.43,0.95-0.95
			V68.67C108.02,68.25,107.74,67.9,107.35,67.78z M106.12,88.91L95.61,78.19l10.51-7.66V88.91z M72.22,90.18l10.79-11.02l5.07,3.69
			c0.1,0.07,0.21,0.12,0.32,0.14c0.08,0.02,0.16,0.04,0.24,0.04c0.08,0,0.16-0.02,0.24-0.04c0.11-0.03,0.22-0.07,0.32-0.14
			l5.07-3.69l10.79,11.02H72.22z M103.92,69.77L88.64,80.91L73.37,69.77l-0.19-0.14h30.94L103.92,69.77z M71.23,70.57l10.45,7.62
			L71.23,88.85V70.57z"/>
		<path class="st1" d="M51.04,45.77h5.15c0.25,0,0.46-0.21,0.46-0.46v-1.1c0-0.25-0.21-0.46-0.46-0.46h-5.15
			c-0.25,0-0.46,0.21-0.46,0.46v1.1C50.58,45.56,50.78,45.77,51.04,45.77z"/>
		<path class="st1" d="M51.04,49.93h5.15c0.25,0,0.46-0.21,0.46-0.46v-1.1c0-0.25-0.21-0.46-0.46-0.46h-5.15
			c-0.25,0-0.46,0.21-0.46,0.46v1.1C50.58,49.73,50.78,49.93,51.04,49.93z"/>
		<path class="st1" d="M31.03,62.31h17.81c0.25,0,0.46-0.21,0.46-0.46v-1.1c0-0.25-0.21-0.46-0.46-0.46H31.03
			c-0.25,0-0.46,0.21-0.46,0.46v1.1C30.57,62.11,30.78,62.31,31.03,62.31z"/>
		<path class="st1" d="M31.03,67.63h17.81c0.25,0,0.46-0.21,0.46-0.46v-1.1c0-0.25-0.21-0.46-0.46-0.46H31.03
			c-0.25,0-0.46,0.21-0.46,0.46v1.1C30.57,67.42,30.78,67.63,31.03,67.63z"/>
		<path class="st1" d="M31.03,72.95h12.5c0.25,0,0.46-0.21,0.46-0.46v-1.1c0-0.25-0.21-0.46-0.46-0.46h-12.5
			c-0.25,0-0.46,0.21-0.46,0.46v1.1C30.57,72.74,30.78,72.95,31.03,72.95z"/>
		<path class="st1" d="M97.34,50.86h-4.2h-0.95h-0.95h-2.84c-0.25,0-0.46,0.21-0.46,0.46v0.71v0.39c0,0.25,0.21,0.46,0.46,0.46h3.79
			h0.95h4.2c0.25,0,0.46-0.21,0.46-0.46v-1.1C97.8,51.06,97.59,50.86,97.34,50.86z"/>
		<path class="st1" d="M93.54,55.03h-5.15c-0.25,0-0.46,0.21-0.46,0.46v1.1c0,0.25,0.21,0.46,0.46,0.46h5.15
			c0.25,0,0.46-0.21,0.46-0.46v-1.1C94,55.23,93.79,55.03,93.54,55.03z"/>
	</g>
</g>
</svg>
