<?xml version="1.0" encoding="utf-8"?>
<!-- Generator: Adobe Illustrator 23.0.1, SVG Export Plug-In . SVG Version: 6.00 Build 0)  -->
<svg version="1.1" id="Layer_1" xmlns="http://www.w3.org/2000/svg" xmlns:xlink="http://www.w3.org/1999/xlink" x="0px"
	y="0px" viewBox="0 0 131.42 131.42" style="enable-background:new 0 0 131.42 131.42;" xml:space="preserve">
	<style type="text/css">
		.st0 {
			fill: #E9E8E8;
		}

		.st1 {
			fill: #BFBFBF;
		}
	</style>
	<g>
		<g>
			<path class="st0" d="M77.79,103.56h3.94c0-4.89-0.21-10.56-1.76-15.48c-0.03-0.1-0.06-0.2-0.09-0.29c-1.14,0.82-2,1.95-2.64,3.28
			c-0.15-0.7-0.33-1.39-0.55-2.06c-0.03-0.1-0.07-0.2-0.1-0.31C77.02,93.66,77.59,98.6,77.79,103.56z" />
			<path class="st0" d="M53.21,91.15c-0.02,0.08-0.04,0.17-0.06,0.25c-0.63-1.41-1.47-2.61-2.62-3.49
			c-1.56,4.88-1.77,10.63-1.77,15.65h4.26C53.03,99.42,53.07,95.29,53.21,91.15z" />
			<path class="st0" d="M76.91,36.38c0.44-0.43,0.2-1.17-0.41-1.26l-3.96-0.58c-0.16,0.22-0.33,0.44-0.5,0.68
			c-1.04,1.44-0.92,2.89-0.92,4.68c0,1.3-1.23,2.84-2.66,2.66c-0.99-0.12-1.75-0.27-2.54-0.92c-0.22-0.18-0.86-0.91-1.11-1.33
			c-0.24,0.06-0.58,0.12-0.77,0.2c-0.44,0.19-0.87,0.46-1.29,0.7c-0.05,0.03-0.1,0.06-0.15,0.09l-0.77,4.48
			c-0.1,0.6,0.53,1.06,1.07,0.78l4.6-2.42c0.21-0.11,0.47-0.11,0.69,0l4.6,2.42c0.54,0.28,1.17-0.18,1.07-0.78l-0.88-5.12
			c-0.04-0.24,0.04-0.48,0.21-0.65L76.91,36.38z" />
			<path class="st0"
				d="M95.06,43.11c0.28-0.27,0.13-0.75-0.26-0.8l-3.29-0.48c0,0,0,0-0.01,0c-1.74,0.21-0.26,3.78-1.21,4.38
			c-0.96,0.61-2.97-2.32-4.42-0.72c0.08,0.1,0.12,0.23,0.1,0.36l-0.56,3.28c-0.07,0.39,0.34,0.68,0.68,0.5l2.94-1.55
			c0.14-0.07,0.3-0.07,0.44,0l2.94,1.55c0.35,0.18,0.75-0.11,0.68-0.5l-0.56-3.28c-0.03-0.15,0.02-0.31,0.14-0.42L95.06,43.11z" />
			<path class="st0" d="M52.23,43.11c0.28-0.27,0.13-0.75-0.26-0.8l-3.29-0.48c-0.08-0.01-0.16-0.05-0.22-0.1
			c-0.11,0.04-0.21,0.09-0.33,0.12c-1.08,0.28,0.16,3.48-0.62,4.27c-0.31,0.31-2.68-1.79-2.99-1.5c-0.44,0.41-0.9,0.81-1.37,1.17
			c0,0.02,0.01,0.04,0,0.06l-0.56,3.28c-0.07,0.39,0.34,0.68,0.68,0.5l2.94-1.55c0.14-0.07,0.3-0.07,0.44,0l2.94,1.55
			c0.35,0.18,0.75-0.11,0.68-0.5l-0.56-3.28c-0.03-0.15,0.02-0.31,0.14-0.42L52.23,43.11z" />
		</g>
		<g>
			<path class="st1"
				d="M38.52,76.17c0,4.37,3.55,7.92,7.92,7.92s7.92-3.55,7.92-7.92s-3.55-7.92-7.92-7.92S38.52,71.8,38.52,76.17z
			 M46.44,81.66c-3.02,0-5.48-2.46-5.48-5.48c0-3.02,2.46-5.48,5.48-5.48s5.48,2.46,5.48,5.48C51.93,79.2,49.47,81.66,46.44,81.66z" />
			<path class="st1" d="M83.83,68.25c-4.37,0-7.92,3.55-7.92,7.92s3.55,7.92,7.92,7.92s7.92-3.55,7.92-7.92S88.2,68.25,83.83,68.25z
			 M83.83,81.66c-3.02,0-5.48-2.46-5.48-5.48c0-3.02,2.46-5.48,5.48-5.48c3.02,0,5.48,2.46,5.48,5.48
			C89.32,79.2,86.86,81.66,83.83,81.66z" />
			<path class="st1" d="M83.83,85.11c-2.14,0-3.97,0.58-5.44,1.71c-0.47,0.36-0.9,0.8-1.31,1.27c-2.05-6.26-6.03-9.45-11.85-9.45
			c-5.78,0-9.75,3.1-11.8,9.2c-0.04,0.13-0.08,0.28-0.12,0.42c-0.39-0.48-0.8-0.93-1.26-1.29c-1.51-1.24-3.39-1.86-5.61-1.86
			c-4.37,0-7.36,2.33-8.89,6.93c-1.17,3.48-1.33,7.78-1.33,11.53c0,0.67,0.55,1.22,1.22,1.22h15.41h2.6h19.37h2.8h15.22
			c0.67,0,1.22-0.55,1.22-1.22c0-3.27-0.13-7.47-1.17-10.93C91.41,87.64,88.35,85.11,83.83,85.11z M79.87,88.76
			c1.06-0.81,2.35-1.21,3.96-1.21c3.41,0,5.55,1.84,6.73,5.79c0.37,1.23,0.59,2.58,0.75,3.96H78.67c-0.14-2.01-0.37-4.07-0.77-6.03
			C78.43,90.2,79.08,89.35,79.87,88.76z M55.74,88.63c1.73-5.15,4.74-7.54,9.49-7.54c4.82,0,7.98,2.67,9.66,8.15H55.56
			C55.62,89.03,55.68,88.82,55.74,88.63z M54.97,91.63c0.02-0.11,0.05-0.22,0.07-0.33c0.01-0.04,0.02-0.09,0.03-0.13h20.21h0.12
			c0.01,0.06,0.03,0.11,0.04,0.16c0.15,0.68,0.27,1.39,0.37,2.1h-1.27H55.71h-1.04C54.76,92.83,54.85,92.22,54.97,91.63z
			 M54.22,102.34h-0.15c0.01-0.87,0.02-1.77,0.05-2.68c0.05-1.42,0.15-2.86,0.3-4.29h1.7h18.01h1.91c0.07,0.64,0.12,1.28,0.17,1.92
			c0.02,0.22,0.03,0.44,0.04,0.65c0.03,0.43,0.05,0.86,0.06,1.28c0.04,1.08,0.07,2.13,0.08,3.12h-0.35h-2.44H56.66H54.22z
			 M46.44,87.55c0.99,0,1.85,0.17,2.62,0.48l-2.62,3.55l-2.64-3.55C44.59,87.72,45.46,87.55,46.44,87.55z M39.86,92.81
			c0.56-1.67,1.32-2.91,2.29-3.77l3.52,4.74c0.18,0.25,0.47,0.39,0.78,0.39c0,0,0,0,0,0c0.31,0,0.6-0.15,0.78-0.39l3.49-4.73
			c0.7,0.62,1.3,1.47,1.79,2.52c-0.68,3.54-0.84,7.35-0.86,10.77H38.66C38.7,99.11,38.92,95.6,39.86,92.81z M78.84,102.34
			c-0.01-0.99-0.03-2.03-0.07-3.12h12.72c0.07,1.07,0.12,2.12,0.13,3.12H78.84z" />
			<path class="st1" d="M74.6,56.43l-1.93,2.14c-1.89-1.92-4.52-3.12-7.43-3.12c-5.76,0-10.44,4.68-10.44,10.44
			c0,5.76,4.68,10.44,10.44,10.44c5.76,0,10.44-4.68,10.44-10.44c0-0.57-0.06-1.13-0.15-1.68l3.45-3.82c0.09-0.1,0.16-0.21,0.2-0.34
			l1.73-4.81c0.14-0.39,0.03-0.82-0.27-1.1c-0.31-0.28-0.75-0.34-1.12-0.16l-4.61,2.2C74.79,56.26,74.69,56.34,74.6,56.43z
			 M57.24,65.9c0-4.41,3.59-8,8-8c2.28,0,4.33,0.96,5.79,2.49c0.48,0.5,0.89,1.06,1.23,1.67c0.33,0.6,0.58,1.25,0.74,1.93
			c0.15,0.61,0.24,1.25,0.24,1.91c0,0.31-0.02,0.62-0.06,0.92c-0.46,3.98-3.84,7.08-7.94,7.08C60.83,73.89,57.24,70.31,57.24,65.9z
			 M78.16,56.9l-0.82,2.29l-2.46,2.72c-0.25-0.61-0.56-1.19-0.92-1.73l2.01-2.23L78.16,56.9z" />
			<path class="st1" d="M59.28,37.39l-1.1,6.42c-0.07,0.4,0.1,0.81,0.43,1.05c0.19,0.14,0.41,0.21,0.63,0.21
			c0.17,0,0.34-0.04,0.5-0.12l5.76-3.03l5.76,3.03c0.36,0.19,0.8,0.16,1.13-0.08c0.33-0.24,0.5-0.65,0.43-1.05l-1.1-6.42l4.66-4.54
			c0.29-0.29,0.4-0.71,0.27-1.1c-0.13-0.39-0.46-0.67-0.87-0.73l-6.44-0.94l-2.88-5.84c-0.18-0.37-0.55-0.6-0.96-0.6
			c-0.41,0-0.78,0.23-0.96,0.6l-2.88,5.84l-6.44,0.94c-0.41,0.06-0.74,0.34-0.87,0.73c-0.13,0.39-0.02,0.82,0.27,1.1L59.28,37.39z
			 M63.34,31.53l2.17-4.39l2.17,4.39c0.16,0.32,0.46,0.54,0.81,0.59l4.85,0.7l-3.51,3.42c-0.25,0.25-0.37,0.6-0.31,0.95l0.83,4.83
			L66,39.74c-0.31-0.16-0.69-0.16-1,0l-4.33,2.28l0.83-4.83c0.06-0.35-0.06-0.7-0.31-0.95l-3.51-3.42l4.85-0.7
			C62.88,32.07,63.18,31.85,63.34,31.53z" />
			<path class="st1"
				d="M82.76,42.58l-0.69,4.02c-0.05,0.32,0.08,0.64,0.34,0.84c0.15,0.11,0.33,0.16,0.5,0.16
			c0.14,0,0.27-0.03,0.4-0.1l3.61-1.9l3.61,1.9c0.29,0.15,0.64,0.13,0.9-0.07c0.26-0.19,0.39-0.51,0.34-0.84l-0.69-4.02L94,39.73
			c0.23-0.23,0.32-0.57,0.22-0.88c-0.1-0.31-0.37-0.53-0.69-0.58l-4.04-0.59l-1.81-3.66c-0.29-0.58-1.25-0.58-1.53,0l-1.8,3.66
			l-4.04,0.59c-0.32,0.05-0.59,0.27-0.69,0.58c-0.1,0.31-0.02,0.65,0.22,0.88L82.76,42.58z M85.68,38.85l1.24-2.51l1.24,2.51
			c0.12,0.25,0.37,0.43,0.64,0.47l2.77,0.4l-2,1.95c-0.2,0.2-0.29,0.48-0.25,0.76l0.47,2.76l-2.48-1.3c-0.12-0.07-0.26-0.1-0.4-0.1
			s-0.27,0.03-0.4,0.1l-2.47,1.3l0.47-2.76c0.05-0.28-0.04-0.56-0.25-0.76l-2-1.95l2.77-0.4C85.32,39.28,85.56,39.1,85.68,38.85z" />
			<path class="st1" d="M39.93,42.58l-0.69,4.02c-0.05,0.32,0.08,0.64,0.34,0.84c0.26,0.19,0.61,0.22,0.9,0.07l3.61-1.9l3.61,1.9
			c0.13,0.07,0.26,0.1,0.4,0.1c0.18,0,0.35-0.06,0.5-0.16c0.26-0.19,0.39-0.51,0.34-0.84l-0.69-4.02l2.92-2.85
			c0.23-0.23,0.32-0.57,0.22-0.88c-0.1-0.31-0.37-0.53-0.69-0.58l-4.04-0.59l-1.8-3.66c-0.14-0.29-0.44-0.48-0.77-0.48
			s-0.62,0.18-0.77,0.48l-1.81,3.66l-4.04,0.59c-0.32,0.05-0.59,0.27-0.69,0.58c-0.1,0.31-0.02,0.65,0.22,0.88L39.93,42.58z
			 M42.85,38.85l1.24-2.51l1.24,2.51c0.12,0.25,0.36,0.43,0.64,0.47l2.77,0.4l-2,1.95c-0.2,0.2-0.29,0.48-0.25,0.76l0.47,2.76
			l-2.47-1.3c-0.25-0.13-0.55-0.13-0.8,0l-2.48,1.3l0.47-2.76c0.05-0.28-0.04-0.56-0.25-0.76l-2-1.95l2.77-0.4
			C42.49,39.28,42.73,39.1,42.85,38.85z" />
		</g>
	</g>
</svg>