<?xml version="1.0" encoding="utf-8"?>
<!-- Generator: Adobe Illustrator 24.3.0, SVG Export Plug-In . SVG Version: 6.00 Build 0)  -->
<svg version="1.1" id="Layer_1" xmlns="http://www.w3.org/2000/svg" xmlns:xlink="http://www.w3.org/1999/xlink" x="0px" y="0px"
	 viewBox="0 0 100 100" style="enable-background:new 0 0 100 100;" xml:space="preserve">
<style type="text/css">
	.st0{fill:#60F5B5;}
	.st1{fill:#FFFFFF;}
	.st2{fill:#195287;}
	.st3{fill:#0C293F;}
	.st4{fill:#18AA77;}
</style>
<g>
	<g>
		<polygon class="st0" points="65.9,15.9 23.6,15.9 23.6,84.1 77.3,84.1 77.3,27.3 		"/>
	</g>
	<g>
		<g>
			<path class="st0" d="M62.3,61.1c5.8-0.1,11.5-0.4,17.3-0.7c2.7-0.2,5-2.5,5-5.1c0-3.2,0-6.4,0-9.6c0-2.6-2.2-4.7-5-4.6
				c-6.5,0.2-13,0.3-19.4,0.4c-3.2,0-5.5,2.9-4.9,6c0.7,3.3,1.4,6.6,2.2,9.9C58,59.6,60,61.2,62.3,61.1z"/>
			<path class="st1" d="M64,61.4c-1.5-1.1-2.9-2.2-4.4-3.3c5.3-6.6,10.5-13.3,15.8-19.8c1.5,1.1,2.9,2.2,4.4,3.2
				C74.5,48.1,69.2,54.8,64,61.4z"/>
			<path class="st1" d="M69.8,63.1c-0.9-0.6-1.8-1.3-2.6-1.9c5.3-6.7,10.5-13.3,15.8-19.9c0.9,0.6,1.8,1.3,2.6,1.9
				C80.3,49.8,75.1,56.4,69.8,63.1z"/>
			<path class="st0" d="M37.9,60.3c-5.8-0.1-11.5-0.4-17.3-0.7c-2.7-0.2-5-2.4-5-5.1c0-3.2,0-6.4,0-9.7c0-2.6,2.2-4.7,5-4.6
				c6.5,0.2,13,0.3,19.4,0.4c3.2,0,5.5,2.9,4.9,6c-0.7,3.3-1.4,6.6-2.2,9.9C42.3,58.8,40.2,60.3,37.9,60.3z"/>
			<path class="st1" d="M21.5,60.8c-1.5-1.2-2.9-2.4-4.4-3.6c5.3-6,10.5-12.3,15.8-18.7c1.5,1.2,2.9,2.3,4.4,3.5
				C32,48.4,26.8,54.7,21.5,60.8z"/>
			<path class="st1" d="M27.4,63c-0.9-0.7-1.8-1.4-2.6-2.2c5.3-6.2,10.5-12.5,15.8-19c0.9,0.7,1.8,1.4,2.6,2.1
				C37.9,50.4,32.6,56.8,27.4,63z"/>
			<path class="st2" d="M69.1,36.4c-10.9,0.1-11.8,3.2-19.1,3.2c-7.3,0-8.3-3.1-19.1-3.2c-7.1-0.1-14.8,0.8-21.1,1.7
				c0,1.5,0,3.1,0,4.6c1.1,0.9,3.4,1.6,3.4,4.7c0,12.2,5.3,14.5,15.4,15c13.6,0.6,15.4-2.6,17.7-13.2c0.5-2.4,1.7-3.8,3.8-3.8
				c2,0,3.3,1.4,3.8,3.8c2.3,10.6,4.1,13.8,17.7,13.2c10.1-0.5,15.4-2.8,15.4-15c0-3.1,2.3-3.8,3.4-4.7c0-1.5,0-3.1,0-4.6
				C83.9,37.2,76.3,36.3,69.1,36.4z M43,48.4c-1.9,8.7-2.3,11.4-14.4,10.9c-9.5-0.5-12.1-2.5-12.1-11.7c0-4.9,0-8.2,14.4-7.9
				c6.5,0.1,10.4,1.6,11.8,3.6C43.4,44.3,43.5,46,43,48.4z M71.5,59.2C59.4,59.8,58.9,57.1,57,48.4c-0.5-2.4-0.4-4.1,0.3-5.1
				c1.4-2,5.3-3.4,11.8-3.6c14.4-0.3,14.4,3,14.4,7.9C83.6,56.7,81,58.8,71.5,59.2z"/>
			<path class="st3" d="M69.1,38.4c-10.9,0.2-11.8,3.2-19.1,3.2c-7.3,0-8.3-3.1-19.1-3.2c-7.1-0.1-14.8,0.7-21.1,1.7
				c0,1.5,0,3.1,0,4.6c1.1,0.9,3.4,1.6,3.4,4.7c0,12.2,5.3,14.5,15.4,15.1c13.6,0.6,15.4-2.6,17.7-13.2c0.5-2.4,1.7-3.8,3.8-3.8
				c2,0,3.3,1.4,3.8,3.8c2.3,10.6,4.1,13.8,17.7,13.2c10.1-0.6,15.4-2.9,15.4-15.1c0-3.1,2.3-3.8,3.4-4.7c0-1.5,0-3.1,0-4.6
				C83.9,39.2,76.3,38.3,69.1,38.4z M43,50.4c-1.9,8.7-2.3,11.4-14.4,10.9c-9.5-0.5-12.1-2.6-12.1-11.7c0-4.9,0-8.2,14.4-7.9
				c6.5,0.1,10.4,1.6,11.8,3.6C43.4,46.3,43.5,48.1,43,50.4z M71.5,61.3C59.4,61.8,58.9,59.2,57,50.4c-0.5-2.4-0.4-4.1,0.3-5.1
				c1.4-2,5.3-3.4,11.8-3.6c14.4-0.3,14.4,3,14.4,7.9C83.6,58.7,81,60.8,71.5,61.3z"/>
		</g>
	</g>
	<polygon class="st4" points="65.9,15.9 77.3,27.3 65.9,27.3 	"/>
</g>
</svg>
