<?xml version="1.0" encoding="utf-8"?>
<!-- Generator: Adobe Illustrator 23.0.1, SVG Export Plug-In . SVG Version: 6.00 Build 0)  -->
<svg version="1.1" id="Layer_1" xmlns="http://www.w3.org/2000/svg" xmlns:xlink="http://www.w3.org/1999/xlink" x="0px" y="0px"
	 viewBox="0 0 131.42 131.42" style="enable-background:new 0 0 131.42 131.42;" xml:space="preserve">
<style type="text/css">
	.st0{fill:#E0DFDF;}
	.st1{fill:#BFBFBF;}
</style>
<g>
	<g>
		<g>
			<path class="st0" d="M78.06,79.31l10.03-16.24c-5.97-0.11-10.62,1.31-10.62,1.31c-3.92,1.25-5.27,2.35-3.92,7.51
				c0.23,0.88,0.92,3.13,2.38,5.21C76.62,78.07,77.32,78.78,78.06,79.31z"/>
			<path class="st0" d="M94.05,63.81L83.38,81.09c0.7,0.09,1.44,0.13,2.19,0.13l10.12-16.38C95.23,64.4,94.69,64.05,94.05,63.81z"/>
			<path class="st0" d="M87.9,81.06c0.87-0.12,1.72-0.31,2.52-0.6c3.95-1.43,5.5-3.53,6.19-7.63l0.36-3.92
				c0.08-0.82,0-1.56-0.2-2.22L87.9,81.06z"/>
		</g>
		<g>
			<path class="st0" d="M54.21,64.37c0,0-0.08-0.02-0.2-0.06L43.67,81.05c0.7,0.1,1.4,0.16,2.1,0.18l10.05-16.27
				C55.34,64.76,54.81,64.57,54.21,64.37z"/>
			<path class="st0" d="M38.59,79.14l9.8-15.86c-2.71-0.29-6.13-0.38-9.68,0.23c-2.68,0.46-4.28,2.42-4,5.4l0.36,3.92
				C35.58,75.84,36.55,77.76,38.59,79.14z"/>
			<path class="st0" d="M57.44,65.87l-9.42,15.26c0.65-0.07,1.27-0.16,1.85-0.29c2.32-0.5,4.15-1.27,5.88-3.74
				c1.46-2.09,2.15-4.33,2.38-5.21C58.99,68.58,58.75,66.95,57.44,65.87z"/>
		</g>
	</g>
	<g>
		<path class="st1" d="M104.86,59.55c-0.72-0.11-1.41-0.21-2.11-0.3L83.18,46.03c-1.06-0.71-2.28-0.96-3.36-0.69
			c-0.93,0.24-1.7,0.84-2.14,1.7l-2.37,4.42c-0.01,0.02-0.06,0.12-0.07,0.14c-0.4,0.86-1.48,3.13,0.83,4.52
			c1.19,0.72,2.19,0.58,2.82,0.34c1.88-0.73,2.76-3.24,2.92-3.74c0.01-0.02,0.01-0.03,0.02-0.05c0.07,0.05,0.15,0.12,0.24,0.19
			l6.04,5.3c-5.82,0.02-9.45,0.68-11.17,1.1c-0.02,0-0.03,0.01-0.05,0.02C66.68,61.54,63.56,60.9,59.6,60.1
			c-0.74-0.15-1.5-0.3-2.33-0.44c-0.26-0.04-0.57-0.1-0.91-0.16c-2.38-0.44-6.66-1.21-13.14-1.26l6.1-5.36
			c0.1-0.08,0.19-0.15,0.26-0.21c0.01,0.02,0.01,0.03,0.02,0.05c0.16,0.49,1.04,3.01,2.92,3.74c0.63,0.24,1.62,0.38,2.82-0.34
			c2.31-1.39,1.24-3.66,0.84-4.52l-2.44-4.55c-0.45-0.86-1.21-1.47-2.15-1.71c-1.08-0.27-2.31-0.02-3.36,0.69L28.65,59.25
			c-0.69,0.09-1.38,0.19-2.1,0.3c-0.48,0.07-0.84,0.49-0.84,0.98V64c0,0.52,0.42,0.95,0.94,0.99c0.25,0.02,2.44,0.28,2.63,4.25
			c0.6,12.41,6.1,15.24,11.41,16.38c4.79,1.03,10.36,0.62,14.19-1.05c3.95-1.72,6.45-4.89,8.36-10.62c0.36-1.07,0.58-2.03,0.77-2.87
			c0.53-2.28,0.72-2.59,1.56-2.59c0.93,0,1.1,0.26,1.7,2.52c0.22,0.81,0.48,1.83,0.9,2.96c2.14,5.88,4.56,8.94,8.35,10.59
			c2.43,1.06,5.56,1.61,8.75,1.61c1.84,0,3.69-0.18,5.44-0.56c7.33-1.57,11.06-6.94,11.41-16.4c0.14-3.7,2.47-4.21,2.73-4.25
			c0.49-0.07,0.85-0.49,0.85-0.98v-3.48C105.7,60.03,105.35,59.62,104.86,59.55z M103.72,63.26c-1.49,0.59-3.44,2.28-3.57,5.9
			c-0.41,11.22-5.82,13.67-9.85,14.53c-4.41,0.95-9.51,0.58-12.98-0.93c-3.28-1.43-5.32-4.08-7.28-9.46
			c-0.38-1.05-0.63-1.97-0.84-2.79c-0.57-2.15-1.06-4-3.61-4c-2.54,0-3,2.01-3.49,4.13c-0.18,0.8-0.39,1.7-0.72,2.69
			c-1.71,5.14-3.89,7.96-7.27,9.43c-3.48,1.51-8.57,1.88-12.98,0.93c-3.23-0.69-9.24-1.98-9.85-14.54
			c-0.19-3.84-2.08-5.45-3.57-5.95v-1.82c0.3-0.04,0.57-0.08,0.86-0.12c0.35-0.05,0.7-0.1,1.04-0.14c0.35-0.05,0.7-0.1,1.04-0.14
			c2.6-0.32,4.98-0.52,7.18-0.64c0.54-0.03,1.06-0.05,1.58-0.07c0.53-0.02,1.05-0.04,1.55-0.05c7.6-0.15,12.47,0.74,15.05,1.21
			c0.35,0.06,0.66,0.12,0.93,0.17c0.81,0.14,1.55,0.29,2.27,0.43c4.03,0.82,7.51,1.52,18.16-0.84c0.03-0.01,0.06-0.02,0.1-0.03
			c1.89-0.46,6.05-1.18,12.92-1.01c0.51,0.01,1.02,0.03,1.56,0.05c0.52,0.02,1.04,0.05,1.59,0.08c2.18,0.13,4.59,0.35,7.24,0.68
			c0.34,0.04,0.7,0.09,1.04,0.14c0.34,0.05,0.69,0.09,1.04,0.14c0.29,0.04,0.57,0.07,0.86,0.12V63.26z M51.11,47.26
			c0.39,0.1,0.69,0.34,0.88,0.71l2.35,4.37l0.04,0.09c0.58,1.23,0.57,1.6-0.06,1.98c-0.55,0.33-0.88,0.26-1.08,0.19
			c-0.91-0.35-1.59-1.98-1.76-2.52c-0.01-0.03-0.02-0.07-0.04-0.1c-0.2-0.48-0.55-1.29-1.33-1.48c-0.81-0.19-1.47,0.36-2.07,0.86
			l-7.85,6.89c-2.2,0.06-4.61,0.21-7.25,0.47l16.4-11.07C49.93,47.27,50.58,47.12,51.11,47.26z M79.97,51.99
			c-0.01,0.03-0.03,0.07-0.04,0.1c-0.17,0.54-0.84,2.17-1.76,2.52c-0.2,0.08-0.54,0.14-1.08-0.19c-0.63-0.38-0.65-0.75-0.06-1.98
			l2.4-4.48c0.19-0.36,0.49-0.6,0.88-0.7c0.54-0.14,1.18,0.01,1.77,0.41l16.37,11.05c-2.68-0.28-5.11-0.44-7.28-0.51l-7.81-6.85
			c-0.5-0.42-1.06-0.89-1.72-0.89c-0.11,0-0.22,0.01-0.33,0.04C80.51,50.7,80.17,51.51,79.97,51.99z"/>
		<path class="st1" d="M96.24,63.99l-0.11-0.1c-0.78-0.67-1.79-1.14-2.99-1.35c-0.02,0-0.04-0.01-0.06-0.01
			c-8.23-1.41-15.59,0.8-15.91,0.9c-4.38,1.4-6.08,2.98-4.58,8.7c0.24,0.92,0.97,3.31,2.53,5.53c1.87,2.67,3.94,3.59,6.48,4.14
			c1.29,0.28,2.63,0.42,3.95,0.42c1.87,0,3.68-0.28,5.21-0.83c4.15-1.5,6.06-3.85,6.83-8.47L97.96,69c0.08-0.84,0.02-1.61-0.15-2.32
			C97.55,65.6,97.02,64.69,96.24,63.99z M95.99,68.82l-0.35,3.84c-0.65,3.87-2.05,5.6-5.55,6.87c-2.67,0.96-5.92,0.81-8.06,0.34
			c-2.2-0.48-3.77-1.18-5.28-3.34c-1.37-1.96-2.02-4.08-2.23-4.9c-1.22-4.64-0.18-5.21,3.25-6.31c0.07-0.02,7.27-2.18,15.04-0.83
			C95.05,64.88,96.21,66.46,95.99,68.82z"/>
		<path class="st1" d="M54.5,63.43c-0.31-0.1-7.71-2.32-15.96-0.89c-0.11,0.02-0.2,0.06-0.31,0.08c-2.18,0.48-3.68,1.82-4.26,3.74
			c-0.24,0.8-0.34,1.68-0.25,2.65l0.37,3.99c0.77,4.54,2.68,6.9,6.83,8.4c1.53,0.55,3.34,0.83,5.21,0.83c1.31,0,2.65-0.14,3.95-0.42
			c2.54-0.55,4.61-1.47,6.48-4.14c1.55-2.22,2.29-4.61,2.53-5.53C60.58,66.42,58.88,64.83,54.5,63.43z M57.17,71.63
			c-0.21,0.82-0.86,2.94-2.23,4.9c-1.51,2.16-3.08,2.86-5.28,3.34c-2.15,0.47-5.39,0.62-8.06-0.34c-3.5-1.26-4.9-3-5.54-6.79
			l-0.36-3.92c-0.22-2.36,0.94-3.94,3.19-4.33c1.85-0.32,3.66-0.44,5.36-0.44c5.43,0,9.62,1.26,9.67,1.27
			C57.35,66.42,58.39,66.99,57.17,71.63z"/>
	</g>
</g>
</svg>
