<?xml version="1.0" encoding="utf-8"?>
<!-- Generator: Adobe Illustrator 23.0.1, SVG Export Plug-In . SVG Version: 6.00 Build 0)  -->
<svg version="1.1" id="Layer_1" xmlns="http://www.w3.org/2000/svg" xmlns:xlink="http://www.w3.org/1999/xlink" x="0px" y="0px"
	 viewBox="0 0 131.42 131.42" style="enable-background:new 0 0 131.42 131.42;" xml:space="preserve">
<style type="text/css">
	.st0{fill:#E9E8E8;}
	.st1{fill:#BFBFBF;}
</style>
<g>
	<path class="st0" d="M103.73,65.37c-0.49,0.82-1.01,1.63-1.56,2.41c-5.26-6.89-13.72-12.18-23.4-14.83
		c-4.45-1.22-9.15-1.88-13.94-1.88c-4.83,0-9.6,0.68-14.09,1.92c-9.1,2.52-17.08,7.37-22.35,13.68c-0.25-0.37-0.48-0.75-0.71-1.13
		c5.16-8.7,13.89-15.41,23.98-18.72c4.49-1.47,9.26-2.28,14.09-2.28c4.78,0,9.49,0.78,13.94,2.23
		C89.77,50.04,98.53,56.71,103.73,65.37z"/>
	<g>
		<path class="st1" d="M104.59,64.85C99.35,56.12,90.39,49.18,80,45.81c-9.32-3.04-19.26-3.03-28.65,0.05
			c-1.42,0.47-2.81,1-4.17,1.6l-9.59-10.4l-1.31,1.21l9.19,9.97c-0.01,0.01-0.03,0.01-0.04,0.02l0.71,0.77l0.72,0.78
			c0.01-0.01,0.03-0.01,0.04-0.02l1.93,2.09c-0.01,0.01-0.02,0.02-0.03,0.03l1.42,1.54c0.01-0.01,0.02-0.02,0.03-0.03l8.38,9.09
			c-0.01,0.01-0.01,0.03-0.02,0.04l1.57,1.7c0-0.02,0.01-0.03,0.01-0.05l6.3,6.83c-0.02,0-0.03,0.01-0.05,0.01l1.57,1.71
			c0.01,0,0.03-0.01,0.04-0.02l8.39,9.1c-0.01,0.01-0.02,0.01-0.04,0.02l1.42,1.54c0.01-0.01,0.02-0.02,0.03-0.03l0.17,0.18
			c-0.01,0-0.03,0.01-0.04,0.01l0.76,0.82l0.76,0.82c0.01,0,0.03-0.01,0.04-0.01l8.44,9.16l1.31-1.21l-7.91-8.58
			c9.81-3.55,18.22-10.3,23.21-18.69C104.78,65.56,104.78,65.17,104.59,64.85z M48.63,49.03c1.1-0.46,2.22-0.88,3.35-1.25
			c0.74-0.24,1.49-0.46,2.24-0.67c-1.54,0.97-2.95,2.12-4.2,3.43L48.63,49.03z M60.96,62.4c1.01-1.56,2.76-2.6,4.75-2.6
			c3.11,0,5.65,2.53,5.65,5.65c0,2.16-1.21,4.03-2.99,4.98L60.96,62.4z M69.75,71.94c2.17-1.35,3.61-3.75,3.61-6.49
			c0-4.22-3.44-7.66-7.66-7.66c-2.52,0-4.74,1.22-6.14,3.1l-8.14-8.83c3.58-3.82,8.65-6.22,14.28-6.22
			c10.81,0,19.61,8.79,19.61,19.61c0,6.2-2.9,11.73-7.42,15.33L69.75,71.94z M87.37,65.45c0-7.77-4.12-14.57-10.28-18.39
			c0.77,0.2,1.53,0.42,2.29,0.67c9.73,3.16,18.14,9.57,23.17,17.64c-4.93,7.98-13.13,14.35-22.65,17.59l-0.61-0.66
			C84.21,78.32,87.37,72.25,87.37,65.45z"/>
		<path class="st1" d="M76.28,84.34l-0.23-0.25l-1.2-1.31c-2.73,1.45-5.84,2.27-9.14,2.27c-10.81,0-19.61-8.79-19.61-19.61
			c0-3.87,1.14-7.46,3.08-10.51l-1.45-1.57c-2.33,3.45-3.69,7.61-3.69,12.08c0,7.76,4.11,14.55,10.26,18.38
			c-0.76-0.2-1.52-0.42-2.27-0.66c-9.72-3.14-18.13-9.55-23.16-17.63c3.8-6.16,9.54-11.36,16.34-14.9l-0.71-0.77l-0.7-0.76
			c-7.1,3.81-13.08,9.36-16.97,15.92c-0.19,0.32-0.19,0.71,0,1.03c5.24,8.73,14.21,15.67,24.58,19.03
			c4.64,1.51,9.44,2.28,14.25,2.28c4.01,0,8.02-0.54,11.93-1.6l-0.77-0.84L76.28,84.34z"/>
		<path class="st1" d="M65.91,73.1l-2.18-2.36c-1.68-0.63-2.98-2.02-3.47-3.76l-2.18-2.36c-0.03,0.27-0.05,0.55-0.05,0.84
			c0,4.22,3.44,7.66,7.66,7.66C65.78,73.11,65.84,73.1,65.91,73.1z"/>
	</g>
</g>
</svg>
