<?xml version="1.0" encoding="utf-8"?>
<!-- Generator: Adobe Illustrator 24.3.0, SVG Export Plug-In . SVG Version: 6.00 Build 0)  -->
<svg version="1.1" id="Layer_1" xmlns="http://www.w3.org/2000/svg" xmlns:xlink="http://www.w3.org/1999/xlink" x="0px" y="0px"
	 viewBox="0 0 100 100" style="enable-background:new 0 0 100 100;" xml:space="preserve">
<style type="text/css">
	.st0{fill:#60F5B5;}
	.st1{fill:#0C293F;}
	.st2{fill:#195287;}
	.st3{fill:#F7BC9D;}
	.st4{fill:#18DA8E;}
	.st5{fill:#18AA77;}
	.st6{fill:#F7CFB8;}
	.st7{fill:#B8FADE;}
	.st8{fill:#FFFFFF;}
</style>
<g>
	<g>
		<g>
			<g>
				<g>
					<path class="st0" d="M48.8,13.6c-15.9,0-29.5,10-34.9,24c1.5,3.5,5.2,7.9,14.9,4.8C42.4,38.1,50,37.1,50,37.1l-0.4,6.1
						c-13.2-0.5-11.8,14.1-31,24.4c-0.9,0.5-1.7,0.9-2.5,1.3c6.3,11.6,18.6,19.4,32.7,19.4c20.6,0,37.3-16.7,37.3-37.3
						S69.4,13.6,48.8,13.6z"/>
					<g>
						<path class="st1" d="M57.5,76.4L54,85.1c0,0,0.3,1.1,0.7,2.8c4.5-0.8,8.7-2.4,12.6-4.5l-1.8-13L57.5,76.4z"/>
					</g>
					<g>
						<path class="st2" d="M43.2,79.3c0,0-0.6,3.3-1.6,8.3c2.3,0.4,4.7,0.7,7.1,0.7c3,0,5.6-0.2,8.4-0.8c0.7-2.6,1.7-5.9,1.8-8.3
							L43.2,79.3z"/>
					</g>
					<path class="st3" d="M73.9,63c0,0,2.8,2.7,1.5,5.4c-1.8,4-7.9,4.7-9-0.5c-1.1-5.2,3.2-9.6,3.2-9.6L73.9,63z"/>
					<path class="st4" d="M79.6,48.2C77.4,41,68.6,37.6,64.2,37l0.1,3l4.3,8.7c3.8,1,3.7,3,3.6,4.1c-0.4,3.7-4.2,8.1-4.2,8.1
						c4.7,1.5,4.5,5,4.5,5S82.2,57.2,79.6,48.2z"/>
					<path class="st5" d="M63,36.7c0,0-14.1-2.2-24.8,4.6c0,0-2.5,1.7,0.9,7.9s7.4,18.6,4.2,30.2c0,0,14.1,4.4,23.3-1.8
						C66.5,77.5,76.6,37.5,63,36.7z"/>
					<path class="st6" d="M46.8,64.3c0,0,4.3,3.4,1,8.4c-2.6,4-8,2.8-9,0.2c-1-2.6,0.6-5,0.6-5L46.8,64.3z"/>
					<path class="st4" d="M38.4,41.1c0,0-4.6,1.3-9.8,8.4c-5,6.9-6.2,17.1,5.5,18.9c7.1,1.1,9.1,2.9,9.1,2.9s2.4-2.1,3.6-7
						c0,0-2.6-2.4-8.8-3.7c-5.2-1.1-2.3-4-0.5-5.3c3.8-2.8,11.2-5.6,8.4-11.6C44,39.3,38.4,41.1,38.4,41.1z"/>
					<path class="st7" d="M58.2,39.4c0,0-1.9,0-2,0.7c-0.3,1.2,0.3,1.9,1.8,2.6c1.5,0.6,2.9,1.1,3.9,1.8
						C61.9,44.6,62.6,40,58.2,39.4z"/>
					<path class="st7" d="M57.3,39.5c0,0,3-1,1.1-2.7l1.8-1.2c0,0,2,3.3-1.2,4.7L57.3,39.5z"/>
					<path class="st8" d="M57.7,42c0,0,0.4-1.8-0.2-2.1c-1.1-0.5-2-0.2-2.9,1.1c-1,1.3-1.7,2.6-2.7,3.4C51.8,44.3,56.1,46.1,57.7,42
						z"/>
					<path class="st8" d="M56.6,39.6c0,0-3.6,0.2-7.6-2.3c-4-2.5-14.9,4.2-22.2,5.9l0.6,2.4l11.1-4.4c0,0,5.7-3,11.4-1.1
						c5.8,2,7.3,1.2,7.3,1.2L56.6,39.6z"/>
					<g>
						<path class="st1" d="M63.4,16.6c0,0,2.2,7.7-4,11.2l0.6-10.9L63.4,16.6z"/>
						<path class="st6" d="M62.3,25.9c0.7,6.9-0.8,12.2-7.7,12.9c-6.5,0.6-11.1-5.7-11.7-13.3c-0.6-6.9,3.7-12.4,9.9-12.2
							C58.9,13.4,61.5,18.5,62.3,25.9z"/>
						<path class="st1" d="M46,34.6c0,0-6.2-3.2-6.3-10.9s4.4-12,7.8-13.4c0,0,0.4,1.8,0.6,2.6c0,0,4.2-3.7,11.3-4.5
							c0,0,0.8,1.7,1.1,3.9c0,0,2.3-0.4,4.5,0.4c0,0-0.6,6.6-3.3,9c0,0-2.2-2-10.7,1.1c0,0-3.4,0.9-3.8,2.6c0,0,1.7,1.2,0.4,1.1
							C47.6,26.4,45.6,28.1,46,34.6z"/>
						<path class="st1" d="M51,22.7c0,0-1.8,2.8-2.1,7c0,0-3.1-0.7-3.8-2.7C45.1,27,45.9,22.6,51,22.7z"/>
						<path class="st8" d="M58,33.7c0,0-3.4,0-5.7-1.6c0,0-0.2,2.6,2.1,3.3C57.3,36.1,58,33.7,58,33.7z"/>
					</g>
				</g>
			</g>
		</g>
	</g>
</g>
</svg>
