<?xml version="1.0" encoding="utf-8"?>
<!-- Generator: Adobe Illustrator 24.3.0, SVG Export Plug-In . SVG Version: 6.00 Build 0)  -->
<svg version="1.1" id="Layer_1" xmlns="http://www.w3.org/2000/svg" xmlns:xlink="http://www.w3.org/1999/xlink" x="0px" y="0px"
	 viewBox="0 0 100 100" style="enable-background:new 0 0 100 100;" xml:space="preserve">
<style type="text/css">
	.st0{fill:#0C293F;}
	.st1{fill:#60F5B5;}
	.st2{fill:#FFFFFF;}
	.st3{fill:#18DA8E;}
</style>
<g>
	<g>
		<rect x="14.6" y="17.2" class="st0" width="46.4" height="65.6"/>
		<rect x="66.5" y="31.6" class="st0" width="18.8" height="12.2"/>
		<rect x="53.9" y="25.7" class="st1" width="18.8" height="12.2"/>
		<polygon class="st1" points="21.7,20.4 22.6,23.2 25.6,23.2 23.2,25 24.1,27.8 21.7,26 19.3,27.8 20.2,25 17.8,23.2 20.8,23.2 		
			"/>
		<rect x="27.3" y="23.2" class="st2" width="12.6" height="1.2"/>
		<rect x="27.3" y="25.7" class="st2" width="12.6" height="1.2"/>
		<polygon class="st0" points="57.9,27.1 58.4,28.8 60.2,28.8 58.8,29.8 59.3,31.4 57.9,30.4 56.5,31.4 57.1,29.8 55.7,28.8 
			57.4,28.8 		"/>
		<rect x="61.4" y="28.8" class="st0" width="8.9" height="0.8"/>
		<rect x="61.4" y="30.6" class="st0" width="8.9" height="0.8"/>
	</g>
	<g>
		<rect x="36.7" y="49" class="st1" width="48.6" height="24.3"/>
		<polygon class="st3" points="36.7,49 61.3,65.2 85.4,49 		"/>
	</g>
</g>
</svg>
