<?xml version="1.0" encoding="utf-8"?>
<!-- Generator: Adobe Illustrator 23.0.1, SVG Export Plug-In . SVG Version: 6.00 Build 0)  -->
<svg version="1.1" id="Layer_1" xmlns="http://www.w3.org/2000/svg" xmlns:xlink="http://www.w3.org/1999/xlink" x="0px" y="0px"
	 viewBox="0 0 131.42 131.42" style="enable-background:new 0 0 131.42 131.42;" xml:space="preserve">
<style type="text/css">
	.st0{fill:#E9E8E8;}
	.st1{fill:#BFBFBF;}
</style>
<g>
	<g>
		<path class="st0" d="M104.49,44.44h-1.18v43.44H29.03v1.67c0,0.92,0.74,1.66,1.66,1.66h73.8c0.92,0,1.66-0.74,1.66-1.66V46.1
			C106.15,45.18,105.41,44.44,104.49,44.44z"/>
	</g>
	<g>
		<path class="st1" d="M103.24,40.21H26.12c-0.47,0-0.86,0.38-0.86,0.86v46.77c0,0.47,0.38,0.86,0.86,0.86h77.12
			c0.47,0,0.86-0.38,0.86-0.86V41.07C104.1,40.59,103.71,40.21,103.24,40.21z M102.38,46.23H26.98v-4.3h75.41V46.23z M26.98,47.94
			h75.41v39.04H26.98V47.94z"/>
		<path class="st1" d="M35.57,44.93h9.42c0.23,0,0.42-0.19,0.42-0.42v-0.87c0-0.23-0.19-0.42-0.42-0.42h-9.42
			c-0.23,0-0.42,0.19-0.42,0.42v0.87C35.15,44.74,35.34,44.93,35.57,44.93z"/>
		<path class="st1" d="M89.43,44.93H93c0.23,0,0.42-0.19,0.42-0.42v-0.87c0-0.23-0.19-0.42-0.42-0.42h-3.57
			c-0.23,0-0.42,0.19-0.42,0.42v0.87C89.01,44.74,89.2,44.93,89.43,44.93z"/>
		<path class="st1" d="M84.3,44.93h2.42c0.23,0,0.42-0.19,0.42-0.42v-0.87c0-0.23-0.19-0.42-0.42-0.42H84.3
			c-0.23,0-0.42,0.19-0.42,0.42v0.87C83.88,44.74,84.06,44.93,84.3,44.93z"/>
		<path class="st1" d="M75.73,44.93h5.85c0.23,0,0.42-0.19,0.42-0.42v-0.87c0-0.23-0.19-0.42-0.42-0.42h-5.85
			c-0.23,0-0.42,0.19-0.42,0.42v0.87C75.31,44.74,75.5,44.93,75.73,44.93z"/>
		<path class="st1" d="M63.88,52.81H35.94c-0.47,0-0.86,0.38-0.86,0.86V81.6c0,0.47,0.38,0.86,0.86,0.86h27.93
			c0.47,0,0.86-0.38,0.86-0.86V53.67C64.74,53.2,64.35,52.81,63.88,52.81z M63.02,80.75H36.8V54.53h26.22V80.75z"/>
		<path class="st1" d="M93,53.1H72.15c-0.23,0-0.42,0.19-0.42,0.42v0.87c0,0.23,0.19,0.42,0.42,0.42H93c0.23,0,0.42-0.19,0.42-0.42
			v-0.87C93.42,53.29,93.23,53.1,93,53.1z"/>
		<path class="st1" d="M72.15,59.09H85c0.23,0,0.42-0.19,0.42-0.42V57.8c0-0.23-0.19-0.42-0.42-0.42H72.15
			c-0.23,0-0.42,0.19-0.42,0.42v0.87C71.73,58.9,71.92,59.09,72.15,59.09z"/>
		<path class="st1" d="M93,75.61H72.15c-0.23,0-0.42,0.19-0.42,0.42v0.87c0,0.23,0.19,0.42,0.42,0.42H93c0.23,0,0.42-0.19,0.42-0.42
			v-0.87C93.42,75.8,93.23,75.61,93,75.61z"/>
		<path class="st1" d="M85,79.89H72.15c-0.23,0-0.42,0.19-0.42,0.42v0.87c0,0.23,0.19,0.42,0.42,0.42H85c0.23,0,0.42-0.19,0.42-0.42
			v-0.87C85.42,80.08,85.23,79.89,85,79.89z"/>
		<path class="st1" d="M93,66.49H72.15c-0.23,0-0.42,0.19-0.42,0.42v0.87c0,0.23,0.19,0.42,0.42,0.42H93c0.23,0,0.42-0.19,0.42-0.42
			v-0.87C93.42,66.68,93.23,66.49,93,66.49z"/>
		<path class="st1" d="M72.15,72.49h16.28c0.23,0,0.42-0.19,0.42-0.42v-0.87c0-0.23-0.19-0.42-0.42-0.42H72.15
			c-0.23,0-0.42,0.19-0.42,0.42v0.87C71.73,72.3,71.92,72.49,72.15,72.49z"/>
		<path class="st1" d="M45.49,69.77l-0.75,4.37c-0.05,0.32,0.08,0.65,0.34,0.84c0.26,0.19,0.61,0.22,0.9,0.06l3.92-2.06l3.92,2.06
			c0.13,0.07,0.26,0.1,0.4,0.1c0.18,0,0.35-0.06,0.5-0.16c0.26-0.19,0.4-0.52,0.34-0.84l-0.75-4.37l3.17-3.09
			c0.23-0.23,0.32-0.57,0.22-0.88c-0.1-0.31-0.37-0.54-0.69-0.58l-4.39-0.64l-1.96-3.97c-0.29-0.58-1.25-0.58-1.54,0l-1.96,3.97
			l-4.39,0.64c-0.32,0.05-0.59,0.27-0.69,0.58c-0.1,0.31-0.02,0.65,0.22,0.88L45.49,69.77z M48.52,65.74l1.39-2.82l1.39,2.82
			c0.13,0.25,0.37,0.43,0.65,0.47l3.11,0.45l-2.25,2.2c-0.2,0.2-0.29,0.48-0.25,0.76l0.53,3.1l-2.78-1.46
			c-0.12-0.07-0.26-0.1-0.4-0.1c-0.14,0-0.27,0.03-0.4,0.1l-2.78,1.46l0.53-3.1c0.05-0.28-0.04-0.56-0.25-0.76l-2.25-2.2l3.11-0.45
			C48.15,66.17,48.39,66,48.52,65.74z"/>
	</g>
</g>
</svg>
