<?xml version="1.0" encoding="utf-8"?>
<!-- Generator: Adobe Illustrator 23.0.1, SVG Export Plug-In . SVG Version: 6.00 Build 0)  -->
<svg version="1.1" id="Layer_1" xmlns="http://www.w3.org/2000/svg" xmlns:xlink="http://www.w3.org/1999/xlink" x="0px" y="0px"
	 viewBox="0 0 131.42 131.42" style="enable-background:new 0 0 131.42 131.42;" xml:space="preserve">
<style type="text/css">
	.st0{fill:#E9E8E8;}
	.st1{fill:#BFBFBF;}
</style>
<g>
	<g>
		<path class="st0" d="M81.79,56.45V46c0-1.32-1.07-2.39-2.39-2.39h-0.86v12.85H81.79z"/>
		<path class="st0" d="M50.73,72.4H29.94v1.03c0,1.32,1.07,2.39,2.39,2.39h18.39V72.4z"/>
		<path class="st0" d="M103.2,59.71h-0.57v29.16H53.74v0.66c0,1.32,1.07,2.39,2.39,2.39h47.06c1.32,0,2.39-1.07,2.39-2.39V62.11
			C105.59,60.79,104.52,59.71,103.2,59.71z"/>
	</g>
	<g>
		<path class="st1" d="M45.69,48.55H35.12c-0.52,0-0.95,0.43-0.95,0.95v13.55c0,0.52,0.43,0.95,0.95,0.95h10.57
			c0.52,0,0.95-0.43,0.95-0.95V49.5C46.64,48.97,46.21,48.55,45.69,48.55z M44.74,62.1h-8.67V50.45h8.67V62.1z"/>
		<path class="st1" d="M102.43,55.6H79.57V40.44c0-0.52-0.43-0.95-0.95-0.95H26.77c-0.52,0-0.95,0.43-0.95,0.95v32.21
			c0,0.52,0.43,0.95,0.95,0.95h22.86v15.16c0,0.52,0.43,0.95,0.95,0.95h51.85c0.52,0,0.95-0.43,0.95-0.95V56.55
			C103.38,56.02,102.95,55.6,102.43,55.6z M101.48,87.81H51.53V73.6v-0.95V71.7v-7.99v-2.81V57.5h26.15h0.95h0.95h21.91V87.81z
			 M27.72,41.39h49.95V55.6h-27.1c-0.52,0-0.95,0.43-0.95,0.95V71.7H27.72V41.39z"/>
		<path class="st1" d="M78.62,63.07l-0.95-1.92l-0.04-0.09c-0.32-0.65-1.38-0.65-1.7,0l-2.98,6.04l-6.67,0.97
			c-0.36,0.05-0.65,0.3-0.77,0.65c-0.11,0.34-0.02,0.72,0.24,0.97l2.07,2.01l0.97,0.95l0.97,0.95l0.81,0.79l-1.14,6.64
			c-0.06,0.36,0.09,0.72,0.38,0.93c0.16,0.12,0.36,0.18,0.56,0.18c0.15,0,0.3-0.04,0.44-0.11l5.96-3.14l5.96,3.14
			c0.32,0.17,0.71,0.14,1-0.07c0.29-0.21,0.44-0.57,0.38-0.93l-1.14-6.64l4.82-4.7c0.26-0.25,0.35-0.63,0.24-0.97
			c-0.11-0.34-0.41-0.59-0.77-0.65l-6.67-0.97l-1.04-2.11L78.62,63.07z M81.3,73.38c-0.22,0.22-0.33,0.53-0.27,0.84l0.9,5.24
			l-4.7-2.47c-0.14-0.07-0.29-0.11-0.44-0.11s-0.3,0.04-0.44,0.11l-4.7,2.47l0.9-5.24c0.04-0.22-0.03-0.43-0.14-0.62
			c-0.04-0.08-0.07-0.16-0.14-0.22l-0.75-0.73l-0.97-0.95l-2.08-2.03l5.26-0.76c0.31-0.05,0.58-0.24,0.71-0.52l2.35-4.76l0.9,1.81
			l0.95,1.92l0.51,1.03c0.09,0.19,0.26,0.32,0.44,0.41c0.09,0.04,0.17,0.1,0.27,0.11l5.26,0.76L81.3,73.38z"/>
		<path class="st1" d="M50.89,50.86h16.69c0.23,0,0.42-0.19,0.42-0.42v-0.88c0-0.23-0.19-0.42-0.42-0.42H50.89
			c-0.23,0-0.42,0.19-0.42,0.42v0.88C50.47,50.67,50.66,50.86,50.89,50.86z"/>
	</g>
</g>
</svg>
