<?xml version="1.0" encoding="utf-8"?>
<!-- Generator: Adobe Illustrator 24.3.0, SVG Export Plug-In . SVG Version: 6.00 Build 0)  -->
<svg version="1.1" id="Layer_1" xmlns="http://www.w3.org/2000/svg" xmlns:xlink="http://www.w3.org/1999/xlink" x="0px" y="0px"
	 viewBox="0 0 180 185" style="enable-background:new 0 0 180 185;" xml:space="preserve">
<style type="text/css">
	.st0{fill:#60F5B5;}
	.st1{fill:#0C293F;}
	.st2{fill:#195287;}
	.st3{fill:#FFFFFF;}
	.st4{fill:#18DA8E;}
</style>
<g>
	<ellipse class="st0" cx="90" cy="106.6" rx="85.6" ry="72.7"/>
	<g>
		<g>
			<g>
				<path class="st1" d="M131.2,143.7l-68.3-11.5c-2.9-0.5-4.9-2.9-4.9-5.8V60.8c0-4.1,4.4-7,8.4-6.3l67.7,11.2
					c2.9,0.5,4.9,2.9,4.9,5.8V137C139,141.1,135.2,144.3,131.2,143.7z"/>
				<path class="st1" d="M121.7,154.1c1.2-0.5,14.9-12.2,14.9-12.2l-5.6-4.5l-20.6-5.9L121.7,154.1z"/>
				<polygon class="st1" points="62.7,58.8 61.1,55.5 44.2,66.8 56.3,76.9 70.5,59 				"/>
				<path class="st2" d="M115.8,156.2l-69.2-11.7c-2.9-0.5-4.9-2.9-4.9-5.9V72.2c0-4.1,3.8-7.4,7.8-6.7l69.2,11.7
					c2.9,0.5,4.9,2.9,4.9,5.9v66.4C123.6,153.6,119.8,156.8,115.8,156.2z"/>
			</g>
			<path class="st2" d="M113.7,47.4c-3.5,0.2-6.2-0.8-6.2-4.2v-6.8c0-8.4-7.1-16.6-15.6-17.9c-3.7-0.6-7,0.3-9.4,2.3
				c-2.3,2-3.5,4.9-3.5,8.4v29.4c0,3.5-2.8,4.7-6.2,4.9c-3.5,0.2-6.2-0.6-6.2-4.1V29.9c0-7.3,2.9-13.8,8.2-18.4
				C80,6.8,87.3,4.9,94.6,6C108.8,8.2,120,21.2,120,35.5v6.8C120,45.8,117.2,47.1,113.7,47.4z"/>
			
				<ellipse transform="matrix(0.9969 -7.814497e-02 7.814497e-02 0.9969 -5.0268 8.9799)" class="st2" cx="112.2" cy="68.7" rx="7" ry="2.9"/>
		</g>
		<g>
			<path class="st3" d="M8.2,132.7c0.6-11.7,9.2-21.5,21-22.1c14.3-0.6,27.5,12.2,26.6,28.7c-0.9,16.5-15.2,25.3-29.2,20.8
				C15.1,156.4,7.6,144.3,8.2,132.7z"/>
			<polygon class="st4" points="19.6,125.2 14.1,131.8 28.4,150.2 66,112.6 56.1,104.7 28.7,135.4 			"/>
		</g>
	</g>
</g>
</svg>
