<?xml version="1.0" encoding="utf-8"?>
<!-- Generator: Adobe Illustrator 23.0.1, SVG Export Plug-In . SVG Version: 6.00 Build 0)  -->
<svg version="1.1" id="Layer_1" xmlns="http://www.w3.org/2000/svg" xmlns:xlink="http://www.w3.org/1999/xlink" x="0px" y="0px"
	 viewBox="0 0 131.42 131.42" style="enable-background:new 0 0 131.42 131.42;" xml:space="preserve">
<style type="text/css">
	.st0{fill:#E9E8E8;}
	.st1{fill:#BFBFBF;}
</style>
<g>
	<g>
		<path class="st0" d="M88.55,43.71h-1.12v50.81H50.65v1.32c0,0.75,0.61,1.36,1.36,1.36h36.54c0.75,0,1.36-0.61,1.36-1.36V45.07
			C89.91,44.32,89.3,43.71,88.55,43.71z"/>
	</g>
	<path class="st1" d="M87.14,39.98H47.88c-0.53,0-0.97,0.43-0.97,0.97v53.49c0,0.53,0.43,0.97,0.97,0.97h39.26
		c0.53,0,0.97-0.43,0.97-0.97V40.95C88.11,40.41,87.67,39.98,87.14,39.98z M86.17,41.91v51.56H48.85V41.91H86.17z"/>
	<path class="st1" d="M48.51,87.7h-5.07V36.15h37.33v5.13h1.93v-6.1c0-0.53-0.43-0.97-0.97-0.97H42.48c-0.53,0-0.97,0.43-0.97,0.97
		v53.49c0,0.53,0.43,0.97,0.97,0.97h6.03V87.7z"/>
	<path class="st1" d="M76.7,48.39h5.22c0.26,0,0.47-0.21,0.47-0.47V46.8c0-0.26-0.21-0.47-0.47-0.47H76.7
		c-0.26,0-0.47,0.21-0.47,0.47v1.12C76.23,48.18,76.44,48.39,76.7,48.39z"/>
	<path class="st1" d="M76.7,52.61h5.22c0.26,0,0.47-0.21,0.47-0.47v-1.12c0-0.26-0.21-0.47-0.47-0.47H76.7
		c-0.26,0-0.47,0.21-0.47,0.47v1.12C76.23,52.4,76.44,52.61,76.7,52.61z"/>
	<path class="st1" d="M56.43,65.15h18.05c0.26,0,0.47-0.21,0.47-0.47v-1.12c0-0.26-0.21-0.47-0.47-0.47H56.43
		c-0.26,0-0.47,0.21-0.47,0.47v1.12C55.96,64.94,56.17,65.15,56.43,65.15z"/>
	<path class="st1" d="M56.43,70.54h18.05c0.26,0,0.47-0.21,0.47-0.47v-1.12c0-0.26-0.21-0.47-0.47-0.47H56.43
		c-0.26,0-0.47,0.21-0.47,0.47v1.12C55.96,70.33,56.17,70.54,56.43,70.54z"/>
	<path class="st1" d="M56.43,75.93h12.66c0.26,0,0.47-0.21,0.47-0.47v-1.12c0-0.26-0.21-0.47-0.47-0.47H56.43
		c-0.26,0-0.47,0.21-0.47,0.47v1.12C55.96,75.72,56.17,75.93,56.43,75.93z"/>
</g>
</svg>
