<?xml version="1.0" encoding="utf-8"?>
<!-- Generator: Adobe Illustrator 24.3.0, SVG Export Plug-In . SVG Version: 6.00 Build 0)  -->
<svg version="1.1" id="Layer_1" xmlns="http://www.w3.org/2000/svg" xmlns:xlink="http://www.w3.org/1999/xlink" x="0px" y="0px"
	 viewBox="0 0 100 100" style="enable-background:new 0 0 100 100;" xml:space="preserve">
<style type="text/css">
	.st0{fill:#60F5B5;}
	.st1{fill:#FFFFFF;}
	.st2{fill:#18DA8E;}
	.st3{fill:#0C293F;}
</style>
<g>
	<circle class="st0" cx="50" cy="50" r="37.3"/>
	<g>
		<ellipse class="st1" cx="50" cy="49.9" rx="28.8" ry="15.8"/>
		<path class="st2" d="M40.1,35.4c-4.6,3.1-7.6,8.4-7.6,14.4c0,6.1,3.2,11.5,7.9,14.6c3,0.8,6.2,1.3,9.5,1.3c3.3,0,6.4-0.4,9.4-1.2
			c4.8-3.1,8-8.5,8-14.6c0-6-3-11.3-7.6-14.4c-3.1-0.9-6.4-1.3-9.8-1.3C46.6,34.1,43.2,34.5,40.1,35.4z"/>
		<circle class="st3" cx="50" cy="49.8" r="9.8"/>
		
			<rect x="22.6" y="49.9" transform="matrix(0.7071 -0.7071 0.7071 0.7071 -22.1182 50.5292)" class="st0" width="54.8" height="4.2"/>
		
			<rect x="20.3" y="47.9" transform="matrix(0.7071 -0.7071 0.7071 0.7071 -21.1861 48.2785)" class="st3" width="54.8" height="3.7"/>
	</g>
</g>
</svg>
