<?xml version="1.0" encoding="utf-8"?>
<!-- Generator: Adobe Illustrator 23.0.1, SVG Export Plug-In . SVG Version: 6.00 Build 0)  -->
<svg version="1.1" id="Layer_1" xmlns="http://www.w3.org/2000/svg" xmlns:xlink="http://www.w3.org/1999/xlink" x="0px" y="0px"
	 viewBox="0 0 59.65 41.81" style="enable-background:new 0 0 59.65 41.81;" xml:space="preserve">
<style type="text/css">
	.st0{fill:#3A6FB5;}
	.st1{opacity:0.15;fill:#202121;enable-background:new    ;}
	.st2{fill:#FFFFFF;}
</style>
<g>
	<path class="st0" d="M57.36,36.77c0,1.8-1.46,3.25-3.25,3.25H5.63c-1.8,0-3.25-1.46-3.25-3.25V5.35c0-1.8,1.46-3.25,3.25-3.25
		h48.48c1.8,0,3.25,1.46,3.25,3.25V36.77L57.36,36.77z"/>
	<path class="st1" d="M4.69,36.77V5.35c0-1.8,1.46-3.25,3.25-3.25H5.63c-1.79,0-3.25,1.46-3.25,3.25v31.42
		c0,1.8,1.46,3.25,3.25,3.25h2.31C6.14,40.02,4.69,38.56,4.69,36.77z"/>
	<g>
		<polygon class="st2" points="10.39,17.27 12.03,17.27 11.21,15.18 		"/>
		<polygon class="st2" points="19.12,24.29 19.12,25.26 21.89,25.26 21.89,26.31 19.12,26.31 19.12,27.43 22.18,27.43 23.6,25.86 
			22.26,24.29 		"/>
		<polygon class="st2" points="40.7,15.18 39.81,17.27 41.53,17.27 		"/>
		<polygon class="st2" points="27.11,28.02 27.11,23.77 25.17,25.86 		"/>
		<path class="st2" d="M30.77,24.96c-0.07-0.45-0.37-0.67-0.82-0.67h-1.57v1.34h1.64C30.47,25.63,30.77,25.41,30.77,24.96z"/>
		<path class="st2" d="M36,25.48c0.15-0.07,0.22-0.3,0.22-0.52c0.07-0.3-0.07-0.45-0.22-0.52s-0.37-0.07-0.6-0.07h-1.49v1.19h1.49
			C35.63,25.56,35.85,25.56,36,25.48z"/>
		<path class="st2" d="M46.75,13.24v0.9l-0.45-0.9h-3.51v0.9l-0.45-0.9h-4.78c-0.82,0-1.49,0.15-2.09,0.45v-0.45h-3.36v0.07v0.37
			c-0.37-0.3-0.82-0.45-1.42-0.45H18.68l-0.82,1.87l-0.82-1.87h-2.69h-1.12v0.9l-0.37-0.9h-0.07H9.58l-1.49,3.51l-1.72,3.81
			l-0.03,0.07h0.03h3.81h0.05l0.03-0.07l0.45-1.12h0.97l0.45,1.19h4.33v-0.07v-0.82l0.37,0.9H19l0.37-0.9v0.82v0.07h1.72h8.59h0.07
			v-1.94h0.15c0.15,0,0.15,0,0.15,0.22v1.64h5.38v-0.45c0.45,0.22,1.12,0.45,2.02,0.45h2.24l0.42-1.18h1.05l0.45,1.19h4.33V19.8
			v-0.37l0.67,1.12h0.15h0.07h3.28v-7.32L46.75,13.24L46.75,13.24L46.75,13.24z M21.44,19.51h-0.75h-0.45v-0.45V15.4l-0.07,0.17l0,0
			l-1.74,3.94h-0.05h-0.4h-0.65l-1.79-4.11v4.11H13l-0.52-1.12H9.94l-0.52,1.12H8.11l2.21-5.23h1.87l2.09,5v-5h0.45h1.53l0.04,0.07
			l0,0l0.94,2.05l0.68,1.54l0.02-0.08l1.49-3.58h2.02L21.44,19.51L21.44,19.51L21.44,19.51z M26.59,15.4h-2.91v0.97h2.84v1.05h-2.84
			v1.05h2.91v1.12h-4.18v-5.3h4.18V15.4L26.59,15.4z M31.92,17.33L31.92,17.33c0.04,0.03,0.06,0.06,0.08,0.09
			c0.14,0.19,0.26,0.47,0.26,0.88c0,0.01,0,0.01,0,0.02v0.01c0,0,0,0,0,0.01c0,0.04,0,0.08,0,0.13v1.05h-1.12v-0.6
			c0-0.3,0-0.75-0.22-1.05c-0.07-0.07-0.14-0.12-0.22-0.15c-0.11-0.07-0.32-0.07-0.68-0.07h-1.34v1.87h-1.27v-5.23h2.84
			c0.67,0,1.12,0,1.49,0.22c0.37,0.22,0.59,0.58,0.6,1.16c-0.02,0.79-0.53,1.23-0.89,1.38C31.44,17.05,31.69,17.1,31.92,17.33z
			 M34.43,19.51h-1.27v-5.23h1.27V19.51z M48.99,19.51h-1.64l-2.39-3.96v3.29l-0.01-0.01v0.68h-1.26l0,0h-1.27l-0.45-1.12h-2.61
			l-0.45,1.19h-1.42c-0.6,0-1.34-0.15-1.79-0.6c-0.45-0.45-0.67-1.05-0.67-2.02c0-0.75,0.15-1.49,0.67-2.09
			c0.37-0.45,1.05-0.6,1.87-0.6h1.2v1.12h-1.2c-0.45,0-0.67,0.07-0.97,0.3c-0.22,0.22-0.37,0.67-0.37,1.19
			c0,0.6,0.07,0.97,0.37,1.27c0.22,0.22,0.52,0.3,0.9,0.3h0.52l1.72-4.11h0.75h1.12l2.09,5v-0.26v-1.69v-0.12v-2.91h1.87l2.17,3.66
			v-3.66h1.27L48.99,19.51L48.99,19.51L48.99,19.51L48.99,19.51z"/>
		<path class="st2" d="M30.85,16.46c0.02-0.02,0.04-0.05,0.06-0.08c0.07-0.11,0.15-0.3,0.1-0.56c0-0.02-0.01-0.05-0.01-0.07
			c0-0.01,0-0.01,0-0.02l0,0c-0.04-0.13-0.13-0.21-0.23-0.25c-0.15-0.07-0.37-0.07-0.6-0.07h-1.49v1.19h1.49c0.22,0,0.45,0,0.6-0.07
			c0.02-0.01,0.04-0.03,0.06-0.04l0,0C30.83,16.48,30.84,16.47,30.85,16.46z"/>
		<path class="st2" d="M53.4,26.98c0-0.52-0.15-1.05-0.37-1.42V22.2l0,0v-0.23c0,0-3.13,0-3.6,0s-1.03,0.45-1.03,0.45v-0.45h-3.43
			c-0.52,0-1.19,0.15-1.49,0.45v-0.45h-6.12v0.22v0.22c-0.46-0.36-1.29-0.44-1.66-0.44h-4.03v0.22v0.22
			c-0.38-0.36-1.27-0.44-1.72-0.44h-4.48l-1.05,1.12l-0.97-1.12h-0.31h-0.51h-5.9v0.22v0.59v6.73h6.57l1.08-1.08l0.94,1.08h0.07
			h3.79h0.17h0.07h0.07v-0.74V27.8h0.37c0.52,0,1.19,0,1.72-0.22v1.87v0.15h3.36v-0.15v-1.79h0.15c0.22,0,0.22,0,0.22,0.22v1.57
			v0.15h10.16c0.67,0,1.34-0.15,1.72-0.45v0.3v0.15h3.21c0.67,0,1.34-0.07,1.79-0.37c0.69-0.41,1.12-1.14,1.19-2.01
			c0-0.03,0.01-0.05,0.01-0.08l0,0C53.4,27.07,53.4,27.03,53.4,26.98z M29.88,26.53h-1.49v0.22v0.45v0.45v0.82h-2.45l-1.43-1.64
			v0.01l-0.07-0.08l-1.64,1.72h-4.78v-5.23h4.85l1.33,1.45l0.28,0.3l0.04-0.04l1.57-1.72h3.96c0.77,0,1.63,0.19,1.95,0.97
			c0.04,0.15,0.06,0.33,0.06,0.52C32.04,26.23,31,26.53,29.88,26.53z M37.34,26.46c0.15,0.22,0.22,0.52,0.22,0.97v1.05h-1.27v-0.67
			c0-0.3,0-0.82-0.22-1.05c-0.15-0.22-0.45-0.22-0.9-0.22h-1.34v1.94h-1.27v-5.3h2.84c0.6,0,1.12,0,1.49,0.22
			c0.37,0.22,0.67,0.6,0.67,1.2c0,0.82-0.52,1.27-0.9,1.42C37.05,26.16,37.27,26.31,37.34,26.46z M42.5,24.29h-2.91v0.97h2.84v1.05
			h-2.84v1.05h2.91v1.12h-4.19v-5.3h4.18v1.11H42.5z M45.63,28.47h-2.39v-1.12h2.39c0.22,0,0.37,0,0.52-0.15
			c0.07-0.07,0.15-0.22,0.15-0.37s-0.07-0.3-0.15-0.37c-0.07-0.07-0.22-0.15-0.45-0.15c-1.19-0.07-2.61,0-2.61-1.64
			c0-0.75,0.45-1.57,1.79-1.57h2.46v1.27h-2.31c-0.22,0-0.37,0-0.52,0.07c-0.15,0.07-0.15,0.22-0.15,0.37c0,0.22,0.15,0.3,0.3,0.37
			s0.3,0.07,0.45,0.07h0.67c0.67,0,1.12,0.15,1.42,0.45c0.22,0.22,0.37,0.6,0.37,1.12C47.57,27.95,46.9,28.47,45.63,28.47z
			 M52.05,27.95c-0.3,0.3-0.82,0.52-1.57,0.52h-2.39v-1.12h2.39c0.22,0,0.37,0,0.52-0.15c0.07-0.07,0.15-0.22,0.15-0.37
			s-0.07-0.3-0.15-0.37c-0.07-0.07-0.22-0.15-0.45-0.15c-1.19-0.07-2.61,0-2.61-1.64c0-0.71,0.41-1.35,1.41-1.54
			c0.12-0.02,0.25-0.03,0.38-0.03h2.46v1.27h-1.64h-0.6h-0.07c-0.22,0-0.37,0-0.52,0.07c-0.08,0.07-0.15,0.22-0.15,0.37
			c0,0.22,0.07,0.3,0.3,0.37c0.15,0.07,0.3,0.07,0.45,0.07h0.07h0.6c0.33,0,0.57,0.04,0.8,0.12c0.21,0.07,0.89,0.38,1.04,1.18
			c0.01,0.08,0.02,0.17,0.02,0.27C52.5,27.28,52.35,27.65,52.05,27.95z"/>
	</g>
</g>
</svg>
