<?xml version="1.0" encoding="utf-8"?>
<!-- Generator: Adobe Illustrator 23.0.1, SVG Export Plug-In . SVG Version: 6.00 Build 0)  -->
<svg version="1.1" id="Layer_1" xmlns="http://www.w3.org/2000/svg" xmlns:xlink="http://www.w3.org/1999/xlink" x="0px" y="0px"
	 viewBox="0 0 91.79 25.95" style="enable-background:new 0 0 91.79 25.95;" xml:space="preserve">
<style type="text/css">
	.st0{fill:#1599D6;}
	.st1{fill:#243E80;}
	.st2{fill:#242E64;}
</style>
<g>
	<path class="st0" d="M70.08,7.73h-4.74c-0.28,0-0.56,0.28-0.7,0.56l-1.95,12.26c0,0.28,0.14,0.42,0.42,0.42h2.51
		c0.28,0,0.42-0.14,0.42-0.42l0.56-3.48c0-0.28,0.28-0.56,0.7-0.56h1.53c3.2,0,5.01-1.53,5.43-4.6c0.28-1.25,0-2.37-0.56-3.06
		C72.87,8.14,71.61,7.73,70.08,7.73 M70.64,12.32c-0.28,1.67-1.53,1.67-2.79,1.67h-0.84l0.56-3.2c0-0.14,0.14-0.28,0.42-0.28h0.28
		c0.84,0,1.67,0,2.09,0.56C70.64,11.21,70.64,11.63,70.64,12.32"/>
	<g>
		<path class="st1" d="M35.96,7.73h-4.74c-0.28,0-0.56,0.28-0.7,0.56l-1.95,12.26c0,0.28,0.14,0.42,0.42,0.42h2.23
			c0.28,0,0.56-0.28,0.7-0.56l0.56-3.34c0-0.28,0.28-0.56,0.7-0.56h1.53c3.2,0,5.01-1.53,5.43-4.6c0.28-1.25,0-2.37-0.56-3.06
			C38.75,8.14,37.63,7.73,35.96,7.73 M36.52,12.32c-0.28,1.67-1.53,1.67-2.79,1.67h-0.7l0.56-3.2c0-0.14,0.14-0.28,0.42-0.28h0.28
			c0.84,0,1.67,0,2.09,0.56C36.52,11.21,36.66,11.63,36.52,12.32"/>
		<path class="st1" d="M50.31,12.18h-2.23c-0.14,0-0.42,0.14-0.42,0.28l-0.14,0.7l-0.14-0.28c-0.56-0.7-1.53-0.97-2.65-0.97
			c-2.51,0-4.74,1.95-5.15,4.6c-0.28,1.39,0.14,2.65,0.84,3.48c0.7,0.84,1.67,1.11,2.92,1.11c2.09,0,3.2-1.25,3.2-1.25l-0.14,0.7
			c0,0.28,0.14,0.42,0.42,0.42h2.09c0.28,0,0.56-0.28,0.7-0.56l1.25-7.8C50.72,12.46,50.44,12.18,50.31,12.18 M47.1,16.64
			c-0.28,1.25-1.25,2.23-2.65,2.23c-0.7,0-1.25-0.28-1.53-0.56c-0.28-0.42-0.42-0.97-0.42-1.67c0.14-1.25,1.25-2.23,2.51-2.23
			c0.7,0,1.11,0.28,1.53,0.56C46.96,15.39,47.1,16.08,47.1,16.64"/>
	</g>
	<path class="st0" d="M84.29,12.18h-2.23c-0.14,0-0.42,0.14-0.42,0.28l-0.14,0.7l-0.14-0.28c-0.56-0.7-1.53-0.97-2.65-0.97
		c-2.51,0-4.74,1.95-5.15,4.6c-0.28,1.39,0.14,2.65,0.84,3.48c0.7,0.84,1.67,1.11,2.92,1.11c2.09,0,3.2-1.25,3.2-1.25l-0.14,0.7
		c0,0.28,0.14,0.42,0.42,0.42h2.09c0.28,0,0.56-0.28,0.7-0.56l1.25-7.8C84.71,12.46,84.57,12.18,84.29,12.18 M81.09,16.64
		c-0.28,1.25-1.25,2.23-2.65,2.23c-0.7,0-1.25-0.28-1.53-0.56c-0.28-0.42-0.42-0.97-0.42-1.67c0.14-1.25,1.25-2.23,2.51-2.23
		c0.7,0,1.11,0.28,1.53,0.56C81.09,15.39,81.22,16.08,81.09,16.64"/>
	<path class="st1" d="M62.42,12.18h-2.37c-0.28,0-0.42,0.14-0.56,0.28l-3.06,4.74l-1.39-4.46c-0.14-0.28-0.28-0.42-0.7-0.42h-2.23
		c-0.28,0-0.42,0.28-0.42,0.56l2.51,7.38l-2.37,3.34c-0.14,0.28,0,0.7,0.28,0.7h2.23c0.28,0,0.42-0.14,0.56-0.28l7.66-11
		C62.98,12.6,62.7,12.18,62.42,12.18"/>
	<path class="st0" d="M86.94,8.14l-1.95,12.54c0,0.28,0.14,0.42,0.42,0.42h1.95c0.28,0,0.56-0.28,0.7-0.56l1.95-12.26
		c0-0.28-0.14-0.42-0.42-0.42h-2.23C87.21,7.73,87.07,7.87,86.94,8.14"/>
	<path class="st1" d="M18.27,3.55c-0.97-1.11-2.79-1.67-5.29-1.67H6.02c-0.42,0-0.84,0.42-0.97,0.84L2.26,20.97
		c0,0.42,0.28,0.7,0.56,0.7h4.32l1.11-6.82v0.28c0.14-0.42,0.56-0.84,0.97-0.84h2.09c4.04,0,7.1-1.67,8.08-6.27
		c0-0.14,0-0.28,0-0.42c-0.14,0-0.14,0,0,0C19.53,5.78,19.25,4.66,18.27,3.55"/>
	<path class="st0" d="M19.25,7.59L19.25,7.59c0,0.14,0,0.28,0,0.42c-0.97,4.74-4.04,6.27-8.08,6.27H9.08
		c-0.42,0-0.84,0.42-0.97,0.84l-1.39,8.5c0,0.28,0.14,0.56,0.56,0.56h3.62c0.42,0,0.84-0.28,0.84-0.7v-0.14l0.7-4.32v-0.28
		c0-0.42,0.42-0.7,0.84-0.7h0.56c3.48,0,6.27-1.39,6.96-5.57c0.28-1.67,0.14-3.2-0.7-4.18C19.94,8.01,19.66,7.73,19.25,7.59"/>
	<path class="st2" d="M18.27,7.17c-0.14,0-0.28-0.14-0.42-0.14s-0.28,0-0.42-0.14c-0.56-0.14-1.11-0.14-1.81-0.14h-5.43
		c-0.14,0-0.28,0-0.42,0.14c-0.28,0.14-0.42,0.42-0.42,0.7l-1.11,7.24v0.28c0.14-0.42,0.56-0.84,0.97-0.84h2.09
		c4.04,0,7.1-1.67,8.08-6.27c0-0.14,0-0.28,0.14-0.42c-0.28-0.14-0.42-0.28-0.7-0.28C18.41,7.17,18.41,7.17,18.27,7.17"/>
</g>
</svg>
