<?xml version="1.0" encoding="utf-8"?>
<!-- Generator: Adobe Illustrator 23.0.1, SVG Export Plug-In . SVG Version: 6.00 Build 0)  -->
<svg version="1.1" id="Layer_1" xmlns="http://www.w3.org/2000/svg" xmlns:xlink="http://www.w3.org/1999/xlink" x="0px" y="0px"
	 viewBox="0 0 58.32 46.21" style="enable-background:new 0 0 58.32 46.21;" xml:space="preserve">
<style type="text/css">
	.st0{fill:#E52528;}
	.st1{fill:#F59F20;}
	.st2{fill:#EF6224;}
	.st3{fill:#010101;}
</style>
<g>
	<g>
		<path class="st0" d="M22.91,18.6c0-5.17,2.38-9.78,6.11-12.81c-2.83-2.3-6.44-3.67-10.37-3.67C9.55,2.12,2.17,9.5,2.17,18.6
			s7.38,16.48,16.48,16.48c3.93,0,7.54-1.38,10.37-3.67C25.29,28.38,22.91,23.77,22.91,18.6z"/>
		<path class="st1" d="M39.39,2.12c-3.93,0-7.54,1.38-10.37,3.67c3.73,3.02,6.11,7.63,6.11,12.81c0,5.17-2.38,9.78-6.11,12.8
			c2.83,2.3,6.44,3.67,10.37,3.67c9.1,0,16.48-7.38,16.48-16.48C55.86,9.5,48.49,2.12,39.39,2.12z"/>
		<path class="st2" d="M35.13,18.6c0-5.17-2.38-9.78-6.11-12.81c-3.73,3.02-6.11,7.63-6.11,12.81c0,5.17,2.38,9.78,6.11,12.8
			C32.74,28.38,35.13,23.77,35.13,18.6z"/>
	</g>
	<g>
		<path class="st3" d="M9.33,44.36l-0.01-2.77l-1.36,2.28H7.48l-1.35-2.22v2.71h-1v-4.61h0.88l1.73,2.87l1.7-2.87h0.88l0.01,4.61
			H9.33z"/>
		<path class="st3" d="M14.46,43.37h-2.14l-0.41,0.99h-1.09l2.05-4.61h1.05l2.06,4.61h-1.12L14.46,43.37z M14.13,42.56L13.4,40.8
			l-0.73,1.76H14.13z"/>
		<path class="st3" d="M16.93,44.29c-0.34-0.1-0.61-0.23-0.82-0.39l0.36-0.8c0.2,0.14,0.43,0.26,0.71,0.35
			c0.27,0.09,0.54,0.13,0.82,0.13c0.3,0,0.53-0.04,0.67-0.13s0.22-0.21,0.22-0.36c0-0.11-0.04-0.2-0.13-0.27s-0.19-0.13-0.33-0.17
			c-0.13-0.04-0.31-0.09-0.54-0.14c-0.35-0.08-0.64-0.17-0.86-0.25c-0.23-0.08-0.42-0.22-0.58-0.4c-0.16-0.18-0.24-0.43-0.24-0.74
			c0-0.27,0.07-0.51,0.22-0.73c0.14-0.22,0.36-0.39,0.66-0.52c0.29-0.13,0.65-0.19,1.07-0.19c0.29,0,0.58,0.04,0.86,0.1
			c0.28,0.07,0.53,0.17,0.74,0.3l-0.33,0.81c-0.43-0.24-0.85-0.36-1.28-0.36c-0.3,0-0.52,0.05-0.66,0.14
			c-0.14,0.1-0.21,0.22-0.21,0.38c0,0.16,0.08,0.28,0.25,0.35c0.16,0.08,0.42,0.15,0.75,0.23c0.35,0.08,0.64,0.17,0.86,0.25
			s0.42,0.22,0.58,0.39c0.16,0.18,0.24,0.42,0.24,0.73c0,0.26-0.07,0.5-0.22,0.72s-0.37,0.39-0.66,0.52s-0.65,0.19-1.07,0.19
			C17.62,44.44,17.27,44.39,16.93,44.29z"/>
		<path class="st3" d="M21.56,40.62h-1.48v-0.87h4.02v0.87h-1.48v3.74h-1.07L21.56,40.62L21.56,40.62z"/>
		<path class="st3" d="M28.24,43.5v0.86h-3.57v-4.61h3.48v0.86h-2.42v1h2.14v0.83h-2.14v1.07h2.51V43.5z"/>
		<path class="st3" d="M32.03,44.36l-0.89-1.28h-0.05h-0.93v1.28h-1.07v-4.61h2c0.41,0,0.76,0.07,1.06,0.2
			c0.3,0.13,0.53,0.33,0.7,0.58c0.16,0.25,0.24,0.55,0.24,0.89s-0.08,0.64-0.25,0.89c-0.16,0.25-0.4,0.44-0.7,0.57l1.03,1.48H32.03z
			 M31.76,40.82c-0.17-0.14-0.41-0.21-0.73-0.21h-0.87v1.61h0.87c0.32,0,0.56-0.07,0.73-0.21c0.17-0.14,0.25-0.34,0.25-0.59
			C32.01,41.16,31.93,40.96,31.76,40.82z"/>
		<path class="st3" d="M34.87,44.13c-0.38-0.2-0.68-0.49-0.89-0.85c-0.22-0.36-0.33-0.77-0.33-1.23c0-0.46,0.11-0.87,0.33-1.23
			s0.51-0.65,0.89-0.85s0.81-0.31,1.28-0.31c0.4,0,0.76,0.07,1.08,0.21s0.59,0.34,0.81,0.61l-0.69,0.63
			c-0.31-0.36-0.7-0.54-1.16-0.54c-0.29,0-0.54,0.06-0.76,0.19c-0.22,0.12-0.4,0.3-0.52,0.52c-0.13,0.22-0.19,0.48-0.19,0.76
			s0.06,0.54,0.19,0.76c0.12,0.22,0.3,0.4,0.52,0.52c0.22,0.12,0.48,0.19,0.76,0.19c0.46,0,0.85-0.18,1.16-0.55l0.69,0.63
			c-0.22,0.27-0.49,0.47-0.82,0.61c-0.32,0.14-0.69,0.21-1.09,0.21C35.67,44.44,35.25,44.33,34.87,44.13z"/>
		<path class="st3" d="M41.7,43.37h-2.14l-0.41,0.99h-1.09l2.05-4.61h1.05l2.06,4.61H42.1L41.7,43.37z M41.37,42.56l-0.73-1.76
			l-0.73,1.76H41.37z"/>
		<path class="st3" d="M46.65,44.36l-0.89-1.28h-0.05h-0.93v1.28h-1.07v-4.61h2c0.41,0,0.76,0.07,1.06,0.2
			c0.3,0.13,0.53,0.33,0.7,0.58c0.16,0.25,0.24,0.55,0.24,0.89s-0.08,0.64-0.25,0.89c-0.16,0.25-0.4,0.44-0.7,0.57l1.03,1.48H46.65z
			 M46.38,40.82c-0.17-0.14-0.41-0.21-0.73-0.21h-0.87v1.61h0.87c0.32,0,0.56-0.07,0.73-0.21c0.17-0.14,0.25-0.34,0.25-0.59
			C46.63,41.16,46.55,40.96,46.38,40.82z"/>
		<path class="st3" d="M48.55,39.75h2.09c0.5,0,0.94,0.1,1.33,0.29c0.38,0.19,0.68,0.46,0.9,0.81c0.21,0.35,0.32,0.75,0.32,1.21
			s-0.11,0.86-0.32,1.21s-0.51,0.62-0.9,0.81c-0.38,0.19-0.83,0.29-1.33,0.29h-2.09V39.75z M50.6,43.48c0.46,0,0.83-0.13,1.1-0.39
			s0.41-0.6,0.41-1.04s-0.14-0.79-0.41-1.04s-0.64-0.39-1.1-0.39h-0.97v2.86H50.6z"/>
	</g>
</g>
</svg>
