<?xml version="1.0" encoding="utf-8"?>
<!-- Generator: Adobe Illustrator 23.0.1, SVG Export Plug-In . SVG Version: 6.00 Build 0)  -->
<svg version="1.1" id="Layer_1" xmlns="http://www.w3.org/2000/svg" xmlns:xlink="http://www.w3.org/1999/xlink" x="0px" y="0px"
	 viewBox="0 0 82.54 27.71" style="enable-background:new 0 0 82.54 27.71;" xml:space="preserve">
<style type="text/css">
	.st0{fill:#465DA8;}
	.st1{fill:#283A86;}
	.st2{fill:#FCBB17;}
	.st3{fill:#F89822;}
	.st4{fill:#EA7D25;}
	.st5{fill:#171744;}
</style>
<g>
	<polygon class="st0" points="31.02,24.17 34.84,2.68 40.81,2.68 37.11,24.17 	"/>
	<polygon class="st1" points="31.02,24.17 35.92,2.68 40.81,2.68 37.11,24.17 	"/>
	<path class="st0" d="M58.72,2.92c-1.19-0.48-3.1-0.96-5.49-0.96c-5.97,0-10.27,2.98-10.27,7.28c0,3.22,2.98,4.9,5.37,5.97
		s3.1,1.79,3.1,2.75c0,1.43-1.91,2.15-3.58,2.15c-2.39,0-3.7-0.36-5.73-1.19l-0.84-0.36l-0.84,4.9c1.43,0.6,4.06,1.19,6.81,1.19
		c6.33,0,10.51-2.98,10.51-7.52c0-2.51-1.55-4.42-5.13-5.97c-2.15-1.07-3.46-1.67-3.46-2.75c0-0.96,1.07-1.91,3.46-1.91
		c2.03,0,3.46,0.36,4.54,0.84l0.6,0.24L58.72,2.92L58.72,2.92z"/>
	<path class="st1" d="M58.72,2.92c-1.19-0.48-3.1-0.96-5.49-0.96c-5.97,0-9.19,2.98-9.19,7.28c0,3.22,1.91,4.9,4.3,5.97
		s3.1,1.79,3.1,2.75c0,1.43-1.91,2.15-3.58,2.15c-2.39,0-3.7-0.36-5.73-1.19l-0.84-0.36l-0.84,4.9c1.43,0.6,4.06,1.19,6.81,1.19
		c6.33,0,10.51-2.98,10.51-7.52c0-2.51-1.55-4.42-5.13-5.97c-2.15-1.07-3.46-1.67-3.46-2.75c0-0.96,1.07-1.91,3.46-1.91
		c2.03,0,3.46,0.36,4.54,0.84l0.6,0.24L58.72,2.92L58.72,2.92z"/>
	<path class="st0" d="M68.99,2.68c-1.43,0-2.51,0.12-3.1,1.55l-8.96,19.94h6.45l1.19-3.58h7.64l0.72,3.58h5.73L73.65,2.68H68.99z
		 M66.24,17.01c0.36-1.07,2.39-6.33,2.39-6.33s0.48-1.31,0.84-2.15l0.36,2.03c0,0,1.19,5.37,1.43,6.57h-5.01L66.24,17.01
		L66.24,17.01z"/>
	<path class="st1" d="M70.42,2.68c-1.43,0-2.51,0.12-3.1,1.55L56.93,24.17h6.45l1.19-3.58h7.64l0.72,3.58h5.73L73.65,2.68H70.42z
		 M66.24,17.01c0.48-1.19,2.39-6.33,2.39-6.33s0.48-1.31,0.84-2.15l0.36,2.03c0,0,1.19,5.37,1.43,6.57h-5.01L66.24,17.01
		L66.24,17.01z"/>
	<path class="st0" d="M20.04,17.72l-0.6-3.1c-1.07-3.58-4.54-7.52-8.36-9.43l5.37,19.1h6.45L32.57,2.8h-6.45L20.04,17.72z"/>
	<path class="st1" d="M20.04,17.72l-0.6-3.1c-1.07-3.58-4.54-7.52-8.36-9.43l5.37,19.1h6.45L32.57,2.8h-5.25L20.04,17.72z"/>
	<path class="st2" d="M3.44,2.68l1.07,0.24c7.64,1.79,12.89,6.33,14.92,11.7L17.29,4.47c-0.36-1.43-1.43-1.79-2.75-1.79H3.44z"/>
	<path class="st3" d="M3.44,2.68L3.44,2.68c7.64,1.79,13.97,6.45,16,11.82l-2.03-8.48c-0.36-1.43-1.55-2.27-2.87-2.27L3.44,2.68z"/>
	<path class="st4" d="M3.44,2.68L3.44,2.68c7.64,1.79,13.97,6.45,16,11.82l-1.43-4.66c-0.36-1.43-0.84-2.87-2.51-3.46L3.44,2.68z"/>
	<g>
		<path class="st5" d="M26.01,17.01l-4.06-4.06l-1.91,4.54l-0.48-2.98c-1.07-3.58-4.54-7.52-8.36-9.43l5.37,19.1h6.45L26.01,17.01z"
			/>
		<polygon class="st5" points="37.11,24.17 31.98,18.92 31.02,24.17 		"/>
		<path class="st5" d="M50.84,16.77L50.84,16.77c0.48,0.48,0.72,0.84,0.6,1.31c0,1.43-1.91,2.15-3.58,2.15
			c-2.39,0-3.7-0.36-5.73-1.19l-0.84-0.36l-0.84,4.9c1.43,0.6,4.06,1.19,6.81,1.19c3.82,0,6.92-1.07,8.72-2.98L50.84,16.77z"/>
		<path class="st5" d="M57.76,24.17h5.61l1.19-3.58h7.64l0.72,3.58h5.73l-2.03-8.72l-7.16-6.92l0.36,1.91c0,0,1.19,5.37,1.43,6.57
			h-5.01c0.48-1.19,2.39-6.33,2.39-6.33s0.48-1.31,0.84-2.15"/>
	</g>
</g>
</svg>
