<?xml version="1.0" encoding="utf-8"?>
<!-- Generator: Adobe Illustrator 24.2.1, SVG Export Plug-In . SVG Version: 6.00 Build 0)  -->
<svg version="1.1" id="Layer_1" xmlns="http://www.w3.org/2000/svg" xmlns:xlink="http://www.w3.org/1999/xlink" x="0px" y="0px"
	 viewBox="0 0 800 800" style="enable-background:new 0 0 800 800;" xml:space="preserve">
<style type="text/css">
	.st0{fill-rule:evenodd;clip-rule:evenodd;}
	.st1{fill:#D9B072;}
	.st2{fill:#FFFFFF;}
</style>
<rect x="-0.4" y="-0.5" class="st0" width="801.5" height="801.5"/>
<g>
	<g>
		<g>
			<g>
				<path class="st1" d="M310,266.5l3.7-2.2h0.4l1.1,1.5c0,0.4,0,0.4,0,0.7l-5.6,3.7c-0.4,0-0.4,0-0.7,0l-10.8-16.4
					c0-0.4,0-0.4,0-0.7l5.6-3.7c0.4,0,0.4,0,0.7,0l1.1,1.5c0,0.4,0,0.4,0,0.7l-3.7,2.2c-0.4,0-0.4,0.4,0,0.7l3,4.5
					c0,0.4,0.4,0.4,0.7,0l3-1.9c0.4,0,0.4,0,0.7,0l1.1,1.5c0,0.4,0,0.4,0,0.7l-3,1.9c-0.4,0-0.4,0.4,0,0.7l3.3,4.8
					C309.6,266.9,309.6,266.9,310,266.5z"/>
				<path class="st1" d="M318.2,243.8c-0.7,0.4-1.1,1.5-0.4,2.2c1.9,3.3,8.2,2.6,10.4,7.4c0.7,1.9,1.1,5.2-1.5,6.7
					c-2.2,1.1-4.5,0.4-6-2.2l-0.4-0.7v-0.4l1.5-0.7h0.4l0.4,0.4c0.7,1.1,1.9,1.5,2.6,1.1c0.7-0.4,1.1-1.5,0.4-3.3
					c-1.9-3.7-8.2-2.6-10.4-7.1c-1.1-2.2-0.4-4.8,1.5-6s4.5-0.4,5.6,1.9v0.4l-1.9,0.7h-0.4C319.7,243.8,318.9,243.5,318.2,243.8z"/>
				<path class="st1" d="M339.4,232.3l0.7,1.9v0.4l-2.2,0.7c0,0-0.4,0.4,0,0.4l6.3,16v0.4l-2.6,0.7h-0.4l-6.3-16c0,0-0.4-0.4-0.4,0
					l-2.2,0.7H332l-0.7-1.9v-0.4l7.4-3C339,231.9,339,231.9,339.4,232.3z"/>
				<path class="st1" d="M355.8,247.9c0,0-0.4,0-0.4-0.4l-0.4-1.5c0,0,0-0.4,0.4-0.4l7.1-1.9c0,0,0.4,0,0.4,0.4l0.4,1.5
					c0,0,0,0.4-0.4,0.4L355.8,247.9z"/>
				<path class="st1" d="M350.5,228.6c0-0.4,0-0.4,0.4-0.4l4.1-1.1c1.5-0.4,3,0.7,3.3,2.2l2.2,8.6c0.4,1.5-0.7,3-2.2,3.3l-4.1,1.1
					c-0.4,0-0.4,0-0.4-0.4L350.5,228.6z M356.1,239l1.1-0.4c0.7,0,1.1-0.7,0.7-1.5l-1.5-6.7c0-0.7-0.7-1.1-1.5-0.7l-1.1,0.4
					l-0.4,0.4l2.2,8.6C355.8,239,356.1,239.4,356.1,239z"/>
				<path class="st1" d="M441.3,245.7C441.3,246.1,441.3,246.1,441.3,245.7l-2.2-0.4l-0.4-0.4l4.1-16.7c0,0,0-0.4-0.4-0.4l-1.1-0.4
					l-0.4-0.4l0.4-1.9l0.4-0.4l3.3,0.7c0.4,0,0.4,0.4,0.4,0.4L441.3,245.7z"/>
				<path class="st1" d="M456.9,242.7c-1.9-0.7-3.3-2.2-2.2-4.8l1.5-4.8c1.1-2.6,3-3,4.8-2.6c1.9,0.7,3.3,2.2,2.2,4.8l-4.1,12.3
					c-0.7,1.9-3,3-4.8,2.2s-3-3-2.2-4.8l0.7-1.9c0,0,0.4-0.4,0.4,0l1.5,0.7c0,0,0.4,0.4,0,0.4l-0.7,1.9c-0.4,0.7,0.4,1.5,1.1,1.9
					c0.7,0.4,1.5,0,1.9-0.7l1.5-4.5C458.4,242.7,457.7,243.1,456.9,242.7z M461,234.9c0.4-0.7,0.4-1.5-0.7-1.9
					c-1.1-0.4-1.5,0.4-1.9,0.7l-1.5,4.5c-0.4,0.7-0.4,1.5,0.7,1.9c1.1,0.4,1.5-0.4,1.5-0.7L461,234.9z"/>
				<path class="st1" d="M475.1,246.8l1.1,0.4h0.4l3.7-8.2c0-0.4,0.4-0.4,0.4-0.4l1.5,0.7c0,0,0.4,0.4,0,0.4l-8.6,17.9
					c0,0-0.4,0.4-0.4,0l-1.9-0.7c0,0-0.4-0.4,0-0.4l3.3-7.1V249l-1.9-0.7c-1.5-0.7-1.9-2.6-1.5-3.7l3.7-7.8c0-0.4,0.4-0.4,0.4-0.4
					l1.5,0.7c0.4,0,0.4,0.4,0.4,0.4l-3.3,7.1C474.4,245.7,474.8,246.4,475.1,246.8z"/>
				<path class="st1" d="M485.9,258c0-0.4,0.4-0.4,0.7,0l1.5,0.7c0.4,0,0.4,0.4,0,0.7l-1.1,1.9c-0.4,0.7-0.4,1.1,0.4,1.9
					c0.7,0.7,1.5,0,1.9-0.4l2.6-4.1c0.4-0.7,0.7-1.1-0.4-1.9l-0.7-0.4c-0.4,0-0.4-0.4,0-0.7l1.1-1.5c0-0.4,0.4-0.4,0.7,0l0.7,0.4
					c1.1,0.7,1.5,0,1.9-0.4l1.1-2.2c0.4-0.7,0.4-1.1-0.4-1.9c-1.1-0.7-1.5,0-1.9,0.4c0,0.4-0.4,0.4-0.4,0l-1.5-0.7
					c-0.4,0-0.4-0.4,0-0.4c1.5-2.6,3.7-2.2,5.2-1.5c1.5,1.1,2.6,3,1.1,5.2l-1.5,2.2c-0.7,1.1-1.5,1.5-2.2,1.9c0,0.7,0,1.9-0.7,2.6
					l-2.6,4.5c-1.5,2.6-3.7,2.2-5.2,1.5c-2.2-1.5-2.2-3.7-1.1-5.2L485.9,258z"/>
			</g>
			<g>
				<path class="st1" d="M373.6,250.5c-24.2,4.5-46.9,14.5-66.9,29.8l1.9,2.2c19.7-15.2,42-24.9,66.2-29.4
					C374.4,252,374,251.3,373.6,250.5z"/>
				<path class="st1" d="M430.1,250.5c-0.4,0.7-0.7,1.9-1.1,2.6c22.3,4.1,43.1,12.6,61.7,26l1.5-2.6
					C473.3,263.2,452.5,254.3,430.1,250.5z"/>
			</g>
			<g>
				<path class="st1" d="M379.2,213c-33.8,4.1-66.2,16.7-93.4,37.2l1.5,2.2c27.1-20.5,58.4-33.1,91.9-36.8
					C379.2,214.5,379.2,213.3,379.2,213z"/>
				<path class="st1" d="M424.6,213c0,0.4,0,1.5-0.4,3c30.5,3.7,59.1,14.1,84.4,31.6l1.5-2.6C484.4,227.5,455.4,216.3,424.6,213z"/>
			</g>
			<path class="st1" d="M425.3,226.7L425.3,226.7c0,0-6.7-3.7-17.5,1.1c8.9-7.4,8.6-14.9,8.6-14.9l0,0c0-4.1-3.3-7.4-7.4-7.4
				c-3.3,0-6.3,2.2-7.1,5.6c-0.7-3-3.7-5.6-7.1-5.6c-4.1,0-7.4,3.3-7.4,7.4c0,0-0.4,7.4,8.6,14.9c-10.8-4.8-17.5-1.1-17.5-1.1l0,0
				c-3.7,1.9-5.2,6.3-3.3,10c1.5,3,4.8,4.5,8.2,4.1c-2.2,2.2-3,6-1.5,8.9c1.9,3.7,6.3,5.2,10,3.3c0,0,5.6-2.6,8.6-11.5L400,258h3.7
				l-0.4-16.4c3,8.9,8.6,11.5,8.6,11.5c3.7,1.9,8.2,0.4,10-3.3c1.5-3,0.7-6.7-1.5-8.9c3.3,0.7,6.7-0.7,8.2-4.1
				C430.5,233.1,429,228.6,425.3,226.7z"/>
			<g>
				<path class="st2" d="M348.3,369.2H361v-59.5c0-3-1.1-5.6-3.3-7.8s-4.8-3.3-7.8-3.3h-19.3c-3,0-5.6,1.1-7.8,3.3s-3.3,4.8-3.3,7.8
					v59.5H332v-29h16.4L348.3,369.2L348.3,369.2z M331.6,327.5v-12.6l-3.3-3.7h19.7v16.4H331.6z"/>
				<path class="st2" d="M408.9,365.8c2.2-2.2,3.3-4.8,3.3-7.8v-19.3c0-2.6-0.7-5.2-2.6-7.1c1.9-1.9,2.6-4.5,2.6-7.4v-14.5
					c0-3-1.1-5.6-3.3-7.8c-2.2-2.2-4.8-3.3-7.8-3.3h-30.5v70.7h30.5C404.1,369.2,406.7,368.1,408.9,365.8z M399.6,356.5h-16.4v-16.4
					h16.4V356.5z M399.6,327.5h-16.4v-13l-3-3.7H400v16.7H399.6z"/>
				<polygon class="st2" points="429,320.8 434.6,310 434.6,298.5 422,298.5 422,311.2 426,311.2 421.2,320.8 				"/>
				<path class="st2" d="M484.4,358v-19.3c0-3-1.1-5.6-3.3-7.8c-2.2-2.2-4.8-3.3-7.8-3.3h-17.9v-13.4l-3-3.3h19.3l0,0v9.7h12.6
					v-11.2c0-3-1.1-5.6-3.3-7.8c-2.2-2.2-4.8-3.3-7.8-3.3h-19.3c-3,0-5.6,1.1-7.8,3.3c-2.2,2.2-3.3,4.8-3.3,7.8v19.3
					c0,3,1.1,5.6,3.3,7.8c2.2,2.2,4.8,3.3,7.8,3.3h17.9v16.4h-16.4v-9.7h-12.6v11.2c0,3,1.1,5.6,3.3,7.8s4.8,3.3,7.8,3.3h19.3
					c3,0,5.6-1.1,7.8-3.3C483.3,363.6,484.4,361,484.4,358z"/>
				<path class="st2" d="M313.4,385.5H294c-3,0-5.6,1.1-7.8,3.3c-2.2,2.2-3.3,4.8-3.3,7.8V416c0,3,1.1,5.6,3.3,7.8
					c2.2,2.2,4.8,3.3,7.8,3.3h17.9v16.4h-16.4v-9.7h-12.6V445c0,3,1.1,5.6,3.3,7.8s4.8,3.3,7.8,3.3h19.3c3,0,5.6-1.1,7.8-3.3
					s3.3-4.8,3.3-7.8v-19.3c0-3-1.1-5.6-3.3-7.8s-4.8-3.3-7.8-3.3h-17.9v-13l-3-3.3h19.3l0,0v9.7h12.6v-11.2c0-3-1.1-5.6-3.3-7.8
					C318.9,386.7,316.3,385.5,313.4,385.5z"/>
				<path class="st2" d="M364.7,385.5h-19.3c-3,0-5.6,1.1-7.8,3.3c-2.2,2.2-3.3,4.8-3.3,7.8v59.5h12.6v-29h16.4v29h12.6v-59.5
					c0-3-1.1-5.6-3.3-7.8C370.3,386.7,367.7,385.5,364.7,385.5z M363.2,414.5h-16.4v-13l-3-3.3h19.3l0,0L363.2,414.5L363.2,414.5z"
					/>
				<polygon class="st2" points="398.2,385.5 385.5,385.5 385.5,456.2 427.2,456.2 427.2,443.6 398.2,443.6 				"/>
				<polygon class="st2" points="456.9,425.3 448.7,441.7 440.2,425.3 440.2,385.5 427.2,385.5 427.2,426.1 442.8,456.2 
					454.3,456.2 469.9,426.1 469.9,385.5 456.9,385.5 				"/>
				<polygon class="st2" points="487.8,398.2 507.5,398.2 507.1,398.2 520.9,398.2 520.9,385.5 479.2,385.5 479.2,456.2 
					520.9,456.2 520.9,443.6 491.9,443.6 491.9,427.2 511.2,427.2 511.2,414.5 491.9,414.5 491.9,402.6 				"/>
			</g>
		</g>
	</g>
	<g>
		<path class="st1" d="M331.2,497.9C331.2,498.2,331.2,498.2,331.2,497.9l4.1,0.4c0.4,0,0.4,0,0.4,0.4v1.5c0,0.4,0,0.4-0.4,0.4h-6
			c-0.4,0-0.4,0-0.4-0.4v-16.4c0-0.4,0-0.4,0.4-0.4h5.6c0.4,0,0.4,0,0.4,0.4v1.5c0,0.4,0,0.4-0.4,0.4h-3.7c-0.4,0-0.4,0-0.4,0.4v4.5
			c0,0.4,0,0.4,0.4,0.4h3c0.4,0,0.4,0,0.4,0.4v1.5c0,0.4,0,0.4-0.4,0.4h-3c-0.4,0-0.4,0-0.4,0.4v4.5H331.2z"/>
		<path class="st1" d="M340.9,500.1l2.2-8.9l-2.6-7.4v-0.4c0,0,0,0,0.4,0h1.5c0.4,0,0.4,0,0.4,0.4l1.5,5.6l1.5-5.6l0.4-0.4h1.9
			c0,0,0,0,0.4,0s0,0,0,0.4l-2.6,7.8l2.6,8.6v0.4c0,0,0,0-0.4,0h-1.5c-0.4,0-0.4,0-0.4-0.4l-1.5-6.3l-1.5,6.3c0,0,0,0.4-0.4,0.4
			h-1.5C341.2,500.5,340.9,500.5,340.9,500.1L340.9,500.1z"/>
		<path class="st1" d="M361,483.4L361,483.4l0.4,1.9c0,0,0,0.4-0.4,0.4h-2.2c0,0-0.4,0-0.4,0.4v14.5c0,0,0,0.4-0.4,0.4h-1.5
			c0,0-0.4,0-0.4-0.4V486c0,0,0-0.4-0.4-0.4h-2.2c0,0-0.4,0-0.4-0.4v-1.9c0,0,0-0.4,0.4-0.4h7.4V483.4z"/>
		<path class="st1" d="M369.5,497.9C369.5,498.2,369.5,498.2,369.5,497.9l4.1,0.4c0.4,0,0.4,0,0.4,0.4v1.5c0,0.4,0,0.4-0.4,0.4H368
			c-0.4,0-0.4,0-0.4-0.4v-16.4c0-0.4,0-0.4,0.4-0.4h5.6c0.4,0,0.4,0,0.4,0.4v1.5c0,0.4,0,0.4-0.4,0.4h-3.7c-0.4,0-0.4,0-0.4,0.4v4.5
			c0,0.4,0,0.4,0.4,0.4h3c0.4,0,0.4,0,0.4,0.4v1.5c0,0.4,0,0.4-0.4,0.4h-3c-0.4,0-0.4,0-0.4,0.4V497.9z"/>
		<path class="st1" d="M385.1,491.9l1.9,8.2c0,0,0,0.4-0.4,0.4h-1.5c0,0-0.4,0-0.4-0.4l-1.5-8.2c0,0,0,0-0.4,0h-0.4
			c0,0-0.4,0-0.4,0.4v8.2c0,0,0,0.4-0.4,0.4h-1.5c0,0-0.4,0-0.4-0.4v-17.1c0,0,0-0.4,0.4-0.4h3.7c0.7,0,1.1,0.4,1.9,0.7
			c0.4,0.4,0.7,1.1,0.7,1.9v3.7c0,0.7-0.4,1.5-1.1,1.9C385.1,491.5,385.1,491.5,385.1,491.9z M384,488.9v-2.2c0-0.4,0-0.4-0.4-0.7
			c-0.4-0.4-0.4-0.4-0.7-0.4h-1.1c0,0-0.4,0-0.4,0.4v3.7c0,0,0,0.4,0.4,0.4h1.1c0.4,0,0.4,0,0.7-0.4C384,489.3,384,488.9,384,488.9z
			"/>
		<path class="st1" d="M398.5,494.5v-11.2c0,0,0-0.4,0.4-0.4h1.5c0,0,0.4,0,0.4,0.4v16.7c0,0,0,0.4-0.4,0.4h-1.5c0,0-0.4,0-0.4-0.4
			s-0.4-1.9-1.1-4.5c-0.7-2.6-1.5-4.8-1.9-6.3v10.4c0,0,0,0.4-0.4,0.4h-1.5c0,0-0.4,0-0.4-0.4v-16.4c0,0,0-0.4,0.4-0.4h1.5h0.4
			L398.5,494.5z"/>
		<path class="st1" d="M406.7,500.1l2.2-16.7c0,0,0-0.4,0.4-0.4h2.6c0,0,0.4,0,0.4,0.4s0.7,6,2.2,16.7c0,0,0,0.4-0.4,0.4h-1.5
			c0,0-0.4,0-0.4-0.4s0-1.1-0.4-1.9c0,0,0,0-0.4,0h-2.2l0,0l-0.4,1.9c0,0,0,0.4-0.4,0.4L406.7,500.1
			C406.7,500.5,406.7,500.5,406.7,500.1z M409.3,496C409.3,496,409.7,496.4,409.3,496l1.9,0.4c0,0,0.4,0,0-0.4l-1.1-10.4L409.3,496z
			"/>
		<path class="st1" d="M422.7,498.2h3.7c0.4,0,0.4,0,0.4,0.4v1.5c0,0.4,0,0.4-0.4,0.4h-5.6c0,0,0,0-0.4,0c0,0,0,0,0-0.4v-16.7l0,0
			l0,0l0,0h1.9l0,0l0,0l0,0L422.7,498.2C422.3,498.2,422.3,498.2,422.7,498.2z"/>
		<path class="st1" d="M447.6,483.4v14.1c0,1.1-0.4,1.9-0.7,2.6c-0.7,0.4-1.5,0.7-2.2,0.7s-1.9-0.4-2.2-0.7
			c-0.7-0.4-0.7-1.5-0.7-2.6v-14.1c0,0,0-0.4,0.4-0.4h1.5c0,0,0.4,0,0.4,0.4v13.8c0,0.7,0.4,1.1,1.1,1.1c0.7,0,1.1-0.4,1.1-1.1
			v-13.8c0,0,0-0.4,0.4-0.4L447.6,483.4C447.2,483.4,447.6,483.4,447.6,483.4z"/>
		<path class="st1" d="M458.4,486.7c0-0.4,0-0.7-0.4-1.1c-0.4-0.4-0.4-0.4-0.7-0.4c-0.4,0-0.7,0-1.1,0.4c-0.4,0.4-0.4,0.7-0.4,1.1
			c0,0.7,0,1.1,0.4,1.9c0.4,0.7,0.7,1.1,1.1,1.9c0.4,0.4,1.1,1.1,1.5,1.9c0.4,0.7,0.7,1.1,1.1,1.9c0.4,0.7,0.4,1.5,0.4,2.2
			c0,1.1-0.4,1.9-1.1,3c-0.7,1.1-1.5,1.5-2.6,1.5c-1.1,0-1.9-0.4-2.6-1.1c-0.7-0.7-1.1-1.5-1.1-3V496c0,0,0-0.4,0.4-0.4h1.5
			c0,0,0.4,0,0.4,0.4v0.4c0,0.7,0,1.1,0.4,1.5c0.4,0.4,0.7,0.4,1.1,0.4c0.4,0,0.7-0.4,1.1-0.7c0.4-0.4,0.4-1.1,0.4-1.9
			c0-0.7,0-1.1-0.4-1.9c-0.4-0.7-0.7-1.1-1.1-1.9c-0.4-0.4-1.1-1.1-1.5-1.5c-0.4-0.4-0.7-1.1-1.1-1.9c-0.4-0.7-0.4-1.5-0.4-2.2
			c0-1.1,0.4-1.9,1.1-2.6c0.7-0.7,1.5-1.1,2.6-1.1c1.1,0,1.9,0.4,2.6,1.1c0.7,0.7,1.1,1.5,1.1,2.6c0,0,0,0.4-0.4,0.4H458.4
			L458.4,486.7z"/>
		<path class="st1" d="M468.8,497.9C468.8,498.2,469.2,498.2,468.8,497.9l4.1,0.4c0.4,0,0.4,0,0.4,0.4v1.5c0,0.4,0,0.4-0.4,0.4h-6
			c-0.4,0-0.4,0-0.4-0.4v-16.4c0-0.4,0-0.4,0.4-0.4h5.6c0.4,0,0.4,0,0.4,0.4v1.5c0,0.4,0,0.4-0.4,0.4h-3.7c-0.4,0-0.4,0-0.4,0.4v4.5
			c0,0.4,0,0.4,0.4,0.4h3c0.4,0,0.4,0,0.4,0.4v1.5c0,0.4,0,0.4-0.4,0.4h-3c-0.4,0-0.4,0-0.4,0.4v4.5H468.8z"/>
		<path class="st1" d="M378.8,510.1c0.7-0.4,1.5-0.7,2.2-0.7c0.7,0,1.9,0.4,2.2,0.7c0.7,0.4,0.7,1.5,0.7,2.6v11.2
			c0,1.1-0.4,1.9-0.7,2.6c-0.7,0.4-1.5,0.7-2.2,0.7c-0.7,0-1.9-0.4-2.2-0.7c-0.7-0.4-0.7-1.5-0.7-2.6v-11.2
			C378.1,511.6,378.1,510.5,378.8,510.1z M382.2,523.9v-11.2c0-0.7-0.4-1.1-1.1-1.1c-0.7,0-1.1,0.4-1.1,1.1v11.2
			c0,0.7,0.4,1.1,1.1,1.1C381.8,525,382.2,524.6,382.2,523.9z"/>
		<path class="st1" d="M396.3,520.9v-10.8c0,0,0-0.4,0.4-0.4h1.5c0,0,0.4,0,0.4,0.4v16.7c0,0,0,0.4-0.4,0.4h-1.9c0,0-0.4,0-0.4-0.4
			c0-0.4-0.4-1.9-1.1-4.5s-1.5-4.8-1.9-6.3v10.4c0,0,0,0.4-0.4,0.4h-1.5c0,0-0.4,0-0.4-0.4v-16.7c0,0,0-0.4,0.4-0.4h1.5h0.4
			L396.3,520.9z"/>
		<path class="st1" d="M407.5,524.6h3.7c0.4,0,0.4,0,0.4,0.4v1.5c0,0.4,0,0.4-0.4,0.4h-5.6c0,0,0,0-0.4,0c0,0,0,0,0-0.4v-16.7l0,0
			l0,0l0,0h1.9l0,0l0,0l0,0L407.5,524.6C407.1,524.6,407.5,524.6,407.5,524.6z"/>
		<path class="st1" d="M419.4,522.4l-2.6-12.3c0,0,0-0.4,0.4-0.4h1.5c0.4,0,0.4,0,0.4,0.4l1.5,8.9l1.5-8.9c0-0.4,0-0.4,0.4-0.4h1.5
			c0.4,0,0.4,0,0.4,0.4l-2.6,12.3v4.1c0,0.4,0,0.4-0.4,0.4h-1.5c-0.4,0-0.4,0-0.4-0.4L419.4,522.4L419.4,522.4z"/>
	</g>
	<g>
		<path class="st1" d="M237.9,409v-0.4h0.4h1.5c1.5,0,2.6-0.7,2.6-2.6c0-1.5-0.7-2.2-2.6-2.2l-24.5,0.4c-1.9,0-2.6,0.7-2.6,2.6
			c0,1.5,0.7,2.6,2.6,2.2h1.5c0.4,0,0.7,0.4,0.7,0.7v3.3c0,0.4-0.4,0.4-0.7,0.4h-2.6c-1.9,0-3.7-0.7-4.5-1.9c-1.1-1.5-1.5-3-1.5-4.8
			s0.4-3.7,1.5-5.2c1.1-1.5,3-2.2,5.6-2.2l24.9-0.4c2.6,0,4.1,0.7,5.6,1.9c1.1,1.5,1.9,3,1.9,4.8s-0.4,3.3-1.1,4.8
			c-1.5,1.5-2.6,2.2-4.5,2.2h-3c-0.4,0-0.4,0-0.4-0.4L237.9,409z"/>
		<path class="st1" d="M245.3,442.1l-24.9,5.2c-2.6,0.4-4.5,0.4-6-0.7c-1.5-1.1-2.2-2.6-2.6-4.5c-0.4-1.9,0-3.3,0.7-5.2
			c0.7-1.5,2.6-2.6,5.2-3l24.9-5.2c0.4,0,0.7,0,0.7,0.4l0.7,3.3c0,0.4,0,0.7-0.4,0.7l-24.9,5.2c-2.2,0.4-3,1.5-2.6,3
			c0.4,1.5,1.5,2.2,3.7,1.5l24.9-5.2c0.4,0,0.7,0,0.7,0.4l0.7,3.3C245.7,441.7,245.7,442.1,245.3,442.1z"/>
		<path class="st1" d="M255.3,469.6c0,0.4,0,0.7-0.4,0.7l-3,1.1c-0.4,0-0.7,0-0.7-0.4l-1.5-3.3c0-0.4-0.4-0.4-0.7-0.4l-24.9,10.4
			c-0.4,0-0.7,0-0.7-0.4l-1.1-3c0-0.4,0-0.7,0.4-0.7l24.9-10.4c0.4,0,0.4-0.4,0.4-0.7l-1.5-3.3c0-0.4,0-0.7,0.4-0.7l3-1.1
			c0.4,0,0.7,0,0.7,0.4L255.3,469.6z"/>
		<path class="st1" d="M262,493.8c0.4-0.4,0.7-0.7,1.1-1.5c0-0.7,0-1.1-0.4-1.5c-0.4-0.4-0.7-0.7-1.5-1.1c-0.7,0-1.1,0-1.9,0.4
			c-0.7,0.7-1.9,1.5-2.2,2.6c-0.7,1.1-1.1,2.2-1.5,3.7c-0.4,1.5-0.7,2.6-1.1,4.1c-0.4,1.5-1.1,2.6-1.9,4.1s-1.9,2.2-3.3,3
			c-1.5,1.1-3.7,1.5-5.6,1.5c-2.2,0-3.7-1.1-5.2-3c-1.1-1.9-1.5-3.3-1.1-5.2s1.5-3.3,3.7-4.5l1.1-0.7c0.4,0,0.4,0,0.7,0l1.9,3
			c0.4,0.4,0,0.4,0,0.7l-0.7,0.4c-0.7,0.7-1.5,1.1-1.5,1.9c-0.4,0.7,0,1.5,0.4,1.9c0.7,1.5,2.6,1.5,4.8,0c1.1-0.7,1.9-1.5,2.6-2.6
			s1.1-2.2,1.5-3.7c0.4-1.5,0.7-2.6,1.1-4.1c0.4-1.5,1.1-2.6,1.9-4.1c0.7-1.1,1.9-2.2,3-3c1.9-1.1,3.3-1.5,5.2-1.1s3.3,1.5,4.1,3
			c1.1,1.5,1.1,3.3,0.7,4.8c-0.4,1.9-1.5,3-3,4.1c-0.4,0.4-0.4,0-0.7,0l-2.2-2.2C261.7,494.5,261.7,494.1,262,493.8z"/>
		<path class="st1" d="M301.8,530.6c0.4-0.7,0.7-1.5,0.7-2.2s-0.4-1.5-1.1-1.9c-0.7-0.4-1.5-0.7-2.2-0.4c-0.7,0-1.5,0.7-2.2,1.5
			c-0.7,1.1-1.5,2.2-1.5,3.7c-0.4,1.5-0.4,3-0.4,4.8c0,1.5,0,3.3,0,4.8s0,3.3-0.7,5.2c-0.4,1.9-1.1,3.3-2.2,4.8
			c-1.5,1.9-3.3,3-5.6,3.7c-2.2,0.7-4.8,0.4-6.7-1.5c-1.9-1.5-2.6-3.3-3-5.2c-0.4-2.2,0.7-4.1,2.2-6.3l0.7-1.1
			c0.4-0.4,0.4-0.4,0.7,0l2.6,2.2c0.4,0.4,0.4,0.4,0,0.7l-0.7,0.7c-0.7,1.1-1.1,1.9-1.1,3c0,1.1,0.4,1.9,1.1,2.2
			c0.7,0.7,1.5,0.7,2.6,0.4c1.1-0.4,2.2-1.1,3-2.6c0.7-1.1,1.5-2.2,1.9-4.1c0.4-1.5,0.4-3,0.4-4.8c0-1.5-0.4-3.3-0.4-4.8
			s0-3.3,0.4-5.2c0.4-1.9,1.1-3.3,2.2-4.8c1.5-1.9,3.3-3,5.6-3c2.2-0.4,4.1,0.4,5.6,1.5c1.5,1.5,2.6,3,3,5.2
			c0.4,2.2-0.4,4.1-1.5,5.6c-0.4,0.4-0.4,0.4-0.7,0L301.8,530.6C301.8,531,301.8,531,301.8,530.6z"/>
		<path class="st1" d="M325.3,553.3c-0.4-0.4-0.4-0.4-0.4-0.7l0.7-1.1c0.7-1.5,0.4-2.6-1.1-3.3s-2.6-0.4-3.3,1.1l-8.9,17.1
			c-0.7,1.5-0.4,2.6,0.7,3.3c1.5,0.7,2.6,0.4,3.3-1.1l1.1-1.9c0.4-0.4,0.4-0.4,0.7-0.4l3,1.5c0.4,0,0.4,0.4,0.4,0.7l-1.5,2.6
			c-1.1,1.9-2.2,3-4.1,3c-1.9,0.4-3.3,0-4.8-0.7c-1.9-1.1-3-2.2-3.7-3.7c-0.7-1.5-0.4-3.7,0.7-6l8.9-16.7c1.1-2.2,2.6-3.3,4.5-3.7
			s3.3,0,5.2,0.7c1.5,0.7,3,1.9,3.7,3.3c0.7,1.5,0.7,3,0,4.5l-1.5,2.6c0,0.4-0.4,0.4-0.7,0.4L325.3,553.3z"/>
		<path class="st1" d="M353.5,588.6c0,0.4-0.4,0.4-0.7,0.4l-3.3-1.1c-0.4,0-0.4-0.4-0.4-0.7c0-1.5,0-2.2,0-2.6s0-1.1,0-2.6
			c0-1.5,0-3,0-4.5s0-3.3,0-5.2c0-0.4,0-0.4-0.4-0.4l-1.1-0.4c-0.4,0-0.7,0-0.7,0.4l-4.1,13.8c0,0.4-0.4,0.4-0.7,0.4l-3.3-1.1
			c-0.4,0-0.4-0.4-0.4-0.7l8.9-30.1c0-0.4,0.4-0.4,0.7-0.4l7.8,2.2c1.5,0.4,2.6,1.1,3,2.6c0.7,1.5,0.7,2.6,0.4,4.1l-1.9,6
			c-0.4,1.9-1.9,3-3.7,3.3c-0.4,0-0.4,0.4-0.4,0.7C353.9,578.9,353.5,584.1,353.5,588.6z M354.3,566.3l0.7-3c0-0.7,0-1.1,0-1.9
			c-0.4-0.7-0.7-1.1-1.1-1.1l-2.2-0.7c-0.4,0-0.7,0-0.7,0.4l-1.9,6.3c0,0.4,0,0.4,0.4,0.7l2.2,0.7c0.7,0,1.1,0,1.5,0
			C353.5,567.4,353.9,566.7,354.3,566.3z"/>
		<path class="st1" d="M375.1,592.7l7.8-30.9c0-0.4,0.4-0.7,0.7-0.4l5.2,0.4c0.4,0,0.4,0.4,0.4,0.7c0,0,0.4,5.2,1.1,15.6
			c0.7,10.4,1.1,15.6,1.1,16s-0.4,0.7-0.7,0.4l-3.7-0.4c-0.4,0-0.4-0.4-0.4-0.7c0-0.7,0-2.2-0.4-4.1c0-0.4,0-0.4-0.4-0.4l-4.8-0.4
			c0,0-0.4,0-0.4,0.4l-1.1,4.1c0,0.4-0.4,0.7-0.7,0.4l-3.3-0.4C375.1,593.4,375.1,593.1,375.1,592.7z M381.8,584.1
			c0,0.4,0,0.4,0.4,0.4l3.3,0.4c0.4,0,0.4,0,0.4-0.4l-0.4-17.5L381.8,584.1z"/>
		<path class="st1" d="M418.6,561.5c1.5,0,2.6,0.4,3.7,1.1c1.1,1.1,1.9,2.2,1.9,3.7l0.4,5.6c0,1.5-0.4,2.6-1.1,4.1
			c-1.1,1.1-2.2,1.9-3.7,1.9l-3.3,0.4c-0.4,0-0.7,0.4-0.4,0.7l1.5,14.9c0,0.4,0,0.7-0.4,0.7l-3.3,0.4c-0.4,0-0.7,0-0.7-0.4l-3-31.2
			c0-0.4,0-0.7,0.4-0.7L418.6,561.5z M420.5,571.1l-0.4-3.3c0-0.7-0.4-1.1-0.7-1.5c-0.4-0.4-1.1-0.7-1.5-0.7l-1.9,0.4
			c-0.4,0-0.7,0.4-0.4,0.7l0.7,6.7c0,0.4,0.4,0.4,0.7,0.4l1.9-0.4c0.7,0,1.1-0.4,1.5-0.7C420.5,572.2,420.5,571.9,420.5,571.1z"/>
		<path class="st1" d="M446.5,560.3c-0.4,0-0.7,0.4-0.4,1.1l1.5,4.8c0,0.4,0.4,0.7,1.1,0.4l4.1-1.1c0.4,0,0.7,0,1.1,0.4l0.7,2.6
			c0,0.4,0,0.7-0.4,1.1l-4.1,1.1c-0.4,0-0.7,0.4-0.4,1.1l3.3,11.2c0,0.4,0.4,0.7,1.1,0.4l5.6-1.5c0.4,0,0.7,0,0.7,0.4l0.7,2.6
			c0,0.4,0,0.7-0.4,1.1l-10,3c-0.4,0-0.7,0-1.1-0.7l-8.6-29.8c0-0.4,0-0.7,0.4-1.1l10-3c0.4,0,0.7,0,1.1,0.4l0.7,2.6
			c0,0.4,0,0.7-0.4,1.1L446.5,560.3z"/>
		<path class="st1" d="M475.9,550.3c-0.4-0.7-0.7-1.1-1.1-1.1c-0.4,0-1.1,0-1.5,0c-0.7,0.4-1.1,0.7-1.1,1.5c-0.4,0.7,0,1.1,0.4,2.2
			c0.4,1.1,1.1,1.9,2.2,2.6s2.2,1.5,3.3,1.9c1.1,0.4,2.6,1.1,3.7,1.5c1.5,0.7,2.6,1.5,3.7,2.2c1.1,1.1,2.2,2.2,3,3.3
			c0.7,1.9,1.1,3.7,0.7,6c-0.4,2.2-1.5,3.7-3.3,4.8c-1.9,0.7-3.3,1.1-5.2,0.4c-1.5-0.7-3-1.9-4.1-4.1l-0.4-1.1c0-0.4,0-0.4,0.4-0.7
			l3-1.5c0.4,0,0.7,0,0.7,0.4l0.4,0.7c0.4,1.1,1.1,1.5,1.9,1.9c0.7,0.4,1.5,0.4,1.9,0c1.5-0.7,1.5-2.2,0.4-4.8
			c-0.4-1.1-1.5-1.9-2.6-2.6c-1.1-0.7-2.2-1.5-3.3-1.9c-1.1-0.4-2.6-1.1-3.7-1.5c-1.1-0.4-2.6-1.1-3.7-2.2c-1.1-1.1-2.2-2.2-2.6-3.3
			c-0.7-1.9-1.1-3.7-0.4-5.2c0.7-1.9,1.5-3,3.3-3.7c1.5-0.7,3.3-0.7,4.8-0.4c1.9,0.7,3,1.5,3.7,3.3c0,0.4,0,0.4,0,0.7l-3,1.5
			C476.3,551,476.3,550.7,475.9,550.3z"/>
		<path class="st1" d="M531.7,542.5l-26-25.7c-0.4-0.4-0.4-0.7,0-1.1l6-6c1.1-1.1,2.2-1.5,3.7-1.5s2.6,0.7,3.7,1.9l4.8,4.8
			c1.5,1.5,1.9,3,1.5,4.8c1.9-0.4,3.3,0,4.8,1.5l8.2,7.8c1.1,1.1,1.5,2.2,1.5,3.7s-0.4,3-1.1,3.7l-6,6
			C532,542.9,532,542.9,531.7,542.5z M518.3,522.8c0.4,0.4,0.7,0.4,1.1,0l1.5-1.5c0.4-0.4,0.4-0.7,0.4-1.5c0-0.7-0.4-1.1-0.7-1.5
			l-3.7-3.7c-0.4-0.4-1.1-0.7-1.5-0.7c-0.7,0-1.1,0-1.5,0.4l-1.5,1.5c-0.4,0.4-0.4,0.7,0,1.1L518.3,522.8z M531.3,535.8
			c0.4,0.4,0.7,0.4,1.1,0l1.5-1.5c0.4-0.4,0.4-0.7,0.4-1.5s-0.4-1.1-0.7-1.5l-6.3-6.3c-0.4-0.4-1.1-0.7-1.5-0.7
			c-0.7,0-1.1,0-1.5,0.4l-1.5,1.5c-0.4,0.4-0.4,0.7,0,1.1L531.3,535.8z"/>
		<path class="st1" d="M537.3,486l21.2,14.1c2.2,1.5,3.3,3,3.3,4.8c0.4,1.9,0,3.3-1.1,4.8c-1.1,1.5-2.2,2.6-4.1,3
			c-1.9,0.4-3.7,0-5.6-1.5l-21.2-14.1c-0.4-0.4-0.4-0.4,0-0.7l1.9-2.6c0.4-0.4,0.4-0.4,0.7-0.4l21.2,14.1c1.9,1.1,3,1.1,4.1-0.4
			c0.7-1.1,0.4-2.6-1.5-3.7L535,489.3c-0.4-0.4-0.4-0.4,0-0.7l1.9-2.6C536.9,486,537.3,485.6,537.3,486z"/>
		<path class="st1" d="M580.8,468.5c0.4,0,0.4,0.4,0.4,0.7l-1.5,3.3c0,0.4-0.4,0.4-0.7,0.4c-1.5-0.4-2.2-0.4-2.6-0.4s-1.1,0-2.6-0.4
			c-1.5,0-3-0.4-4.5-0.7c-1.5-0.4-3.3-0.4-5.2-0.7c-0.4,0-0.4,0-0.7,0.4l-0.4,1.1c0,0.4,0,0.7,0.4,0.7l13.4,5.6
			c0.4,0,0.4,0.4,0.4,0.7l-1.1,3c0,0.4-0.4,0.4-0.7,0.4l-29-11.9c-0.4,0-0.4-0.4-0.4-0.7l3.3-7.8c0.4-1.5,1.5-2.2,3-3
			c1.5-0.4,3-0.4,4.1,0l6,2.6c1.9,0.7,2.6,1.9,3,4.1c0,0.4,0.4,0.4,0.7,0.4C570.7,467,575.9,467.7,580.8,468.5z M558.4,465.5l-3-1.1
			c-0.7-0.4-1.1-0.4-1.9,0c-0.7,0.4-1.1,0.7-1.1,1.1l-1.1,2.2c0,0.4,0,0.7,0.4,0.7l6.3,2.6c0.4,0,0.4,0,0.7-0.4l1.1-2.2
			c0.4-0.7,0.4-1.1,0-1.5C559.2,465.9,558.8,465.5,558.4,465.5z"/>
		<path class="st1" d="M580.8,432.8l-22.3-4.1c-0.4,0-0.4-0.4-0.4-0.7l0.7-3.3c0-0.4,0.4-0.4,0.7-0.4l30.9,5.6
			c0.4,0,0.4,0.4,0.4,0.7l-0.7,3c0,0.4-0.4,0.4-0.7,0.7c-0.4,0-3.3,0.4-8.9,1.1c-5.6,0.7-10,1.5-13,1.5l20.8,3.7
			c0.4,0,0.4,0.4,0.4,0.7l-0.7,3.3c0,0.4-0.4,0.4-0.7,0.4l-30.9-5.6c-0.4,0-0.4-0.4-0.4-0.7l0.7-3.3c0-0.4,0-0.4,0.4-0.4
			c0,0,1.5,0,3.7-0.4s5.6-0.7,9.3-1.1C573.7,433.5,577.4,433.1,580.8,432.8z"/>
		<path class="st1" d="M566.3,399.3c-0.7,0-1.1,0.4-1.5,0.7c-0.4,0.4-0.7,1.1-0.7,1.5c0,0.7,0.4,1.1,0.7,1.5
			c0.4,0.4,1.1,0.7,1.9,0.7c1.1,0,2.2-0.4,3.3-1.1c1.1-0.7,2.2-1.5,3.3-2.2c1.1-0.7,2.2-1.9,3-2.6c1.1-0.7,2.2-1.9,3.7-2.2
			c1.5-0.7,3-1.1,4.5-1.1c1.9,0,3.7,0.4,5.6,1.9c1.9,1.1,2.6,3,2.6,5.2c0,1.9-0.7,3.7-1.9,4.8c-1.1,1.1-3,1.9-5.6,1.9h-1.1
			c-0.4,0-0.4,0-0.4-0.4v-3.3c0-0.4,0-0.4,0.4-0.4h1.1c1.1,0,1.9-0.4,2.2-0.7c0.4-0.4,0.7-1.1,0.7-1.9c0-1.5-1.5-2.6-4.1-2.6
			c-1.1,0-2.2,0.4-3.3,1.1c-1.1,0.7-2.2,1.5-3.3,2.2c-1.1,1.1-1.9,1.9-3,3c-1.1,0.7-2.2,1.9-3.7,2.2c-1.5,0.7-3,1.1-4.5,1.1
			c-1.9,0-3.7-0.7-5.2-1.9c-1.5-1.1-1.9-3-2.2-4.8c0-1.9,0.7-3.3,1.9-4.8c1.1-1.5,2.6-1.9,4.5-1.9c0.4,0,0.4,0,0.4,0.4v3.3
			C566.6,398.9,566.6,399.3,566.3,399.3z"/>
	</g>
</g>
</svg>
