<?xml version="1.0" encoding="utf-8"?>
<!-- Generator: Adobe Illustrator 24.2.1, SVG Export Plug-In . SVG Version: 6.00 Build 0)  -->
<svg version="1.1" id="Layer_1" xmlns="http://www.w3.org/2000/svg" xmlns:xlink="http://www.w3.org/1999/xlink" x="0px" y="0px"
	 viewBox="0 0 800 800" style="enable-background:new 0 0 800 800;" xml:space="preserve">
<style type="text/css">
	.st0{fill-rule:evenodd;clip-rule:evenodd;}
	.st1{fill:url(#SVGID_1_);}
	.st2{fill:#FFFFFF;}
</style>
<rect x="-0.4" y="-0.5" class="st0" width="801.5" height="801.5"/>
<g>
	
		<linearGradient id="SVGID_1_" gradientUnits="userSpaceOnUse" x1="117.4066" y1="714.4582" x2="150.7234" y2="681.1415" gradientTransform="matrix(3.0094 0 0 -3.0094 -2.0094 2411.6257)">
		<stop  offset="0" style="stop-color:#997041"/>
		<stop  offset="0.1106" style="stop-color:#AB7D49"/>
		<stop  offset="0.3651" style="stop-color:#CD9859"/>
		<stop  offset="0.6054" style="stop-color:#E6AB64"/>
		<stop  offset="0.8237" style="stop-color:#F6B66B"/>
		<stop  offset="1" style="stop-color:#FBBA6D"/>
	</linearGradient>
	<path class="st1" d="M465.4,283.9c1-1,2.1-2.4,2.4-4.2c0.3-2.1,0-4.2-1-5.9c-1.4-2.4-4.2-3.8-7-3.8c-1.4,0-3.1,0.3-4.5,1.4
		c-3.8,2.4-4.9,7.3-2.4,11.2c1.4,2.4,4.2,3.8,7,3.8c0.3,0,1,0,1.4,0c7.7,17.8,7,37.8-0.7,54.6l-57-95.1c18.5,1,35.7,9.4,47.6,23.4
		c0.7-0.7,1.4-1.4,2.1-1.7s1-0.7,1.7-1c-13.6-16.1-33.2-25.5-54.9-25.5c-13.6,0-27.3,3.8-38.8,11.5c-7.3,4.9-13.6,10.8-18.9,17.5
		c-0.7-0.3-1.4-0.3-2.4-0.3c-1.4,0-3.1,0.3-4.5,1.4c-3.8,2.4-4.9,7.3-2.4,11.2c1.4,2.4,4.2,3.8,7,3.8c1.4,0,3.1-0.3,4.5-1.4
		c1.7-1,3.1-3.1,3.5-5.2s0-4.2-1-5.9c-0.3-0.3-0.3-0.7-0.7-0.7c4.5-6.3,10.5-11.9,17.5-16.4c9.8-6.3,21.3-10.1,32.9-10.5l-57,94.8
		c-7.3-16.1-8-34.3-2.4-50.4c-1.4-0.3-3.1-1-4.2-2.1c-7.3,20.3-5.6,43.7,7,63.3c11.9,18.2,30.8,29.7,52.1,32.2
		c0.7,3.5,4.2,6.3,8,6.3c4.5,0,8-3.5,8-8s-3.5-8-8-8c-3.5,0-6.3,2.1-7.7,5.2c-19.9-2.1-37.4-13.3-48.6-30.1c-0.3-0.7-1-1.4-1.4-2.4
		h115.1c-5.2,8.7-12.2,16.4-21.3,22c-7.3,4.9-15.7,8-24.1,9.4c0.3,1,0.3,2.4,0.3,3.5c0,0.3,0,0.7,0,1.4c9.4-1.7,18.2-5.2,26.2-10.5
		C468.9,353.5,479.4,315.4,465.4,283.9z M459.1,281.1c-0.7-0.3-1.4-0.7-1.7-1.4c-1-1.7-0.7-3.8,1-4.5c0.7-0.3,1-0.7,1.7-0.7
		c1,0,2.1,0.7,2.8,1.4c0.3,0.7,0.7,1.7,0.3,2.4v0.3c-0.3,0.7-0.7,1.4-1.4,1.7C460.9,281.5,459.8,281.5,459.1,281.1z M343.7,278.7
		c-0.3,1-0.7,1.7-1.4,2.1c-1.4,1-3.8,0.3-4.5-1c-1-1.7-0.7-3.8,1-4.5c0.3-0.3,0.7-0.3,1-0.3c0.3,0,0.3,0,0.7,0c1,0,2.1,0.7,2.8,1.4
		c0.3,0.3,0.3,0.7,0.3,1S343.7,278.3,343.7,278.7z M396.9,381.9c0-1,0.3-1.7,1-2.4c0.7-0.7,1.4-1,2.4-1c1.7,0,3.5,1.4,3.5,3.5
		c0,1.7-1.4,3.5-3.5,3.5c-1,0-1.7-0.3-2.4-1C396.9,383.6,396.9,382.6,396.9,381.9z M400,340.2l-9.1-40.6h18.2L400,340.2z M400,283.2
		l7.3,14h-14.7L400,283.2z M410.5,296.9l-8-15h16.1L410.5,296.9L410.5,296.9z M389.9,296.9L389.9,296.9l-8-15h16.1L389.9,296.9z
		 M388.1,299.7l8.4,37.4l-26.2-37.4H388.1z M411.9,299.7h17.8l-26.2,37.4L411.9,299.7z M413.7,296.9l7-13.6l8,13.6H413.7z
		 M400,249.3l16.8,28h-33.6L400,249.3z M379.4,283.6l7,13.6h-15L379.4,283.6z M344.4,342l23.1-38.1l26.6,38.1H344.4z M406.3,341.6
		l26.6-38.1l23.1,38.1L406.3,341.6L406.3,341.6z"/>
	<polygon class="st2" points="225.5,479.1 225.5,427 232.8,427 232.8,472.5 261.2,472.5 261.2,479.1 	"/>
	<path class="st2" d="M295.1,480.2c-15,0-26.2-11.5-26.2-26.9c0-15.4,11.2-26.9,26.2-26.9c10.1,0,15.7,3.8,20.3,8.4l0.7,0.7
		l-4.9,5.2l-0.7-0.7c-4.9-4.5-9.4-6.6-15.4-6.6c-10.8,0-18.9,8.7-18.9,19.9c0,11.5,8,20.3,18.9,20.3c7,0,11.2-2.8,15.7-7l0.7-0.3
		l4.9,4.9l-0.7,0.7C311.2,475.6,305.2,480.2,295.1,480.2z"/>
	<polygon class="st2" points="368.9,479.1 368.9,456.4 341.3,456.4 341.3,479.1 333.9,479.1 333.9,427 341.3,427 341.3,449.4 
		368.9,449.4 368.9,427 376.3,427 376.3,479.1 	"/>
	<polygon class="st2" points="399,479.1 399,427 437.1,427 437.1,433.6 406.3,433.6 406.3,449.4 434,449.4 434,456.4 406.3,456.4 
		406.3,472.5 437.5,472.5 437.5,479.1 	"/>
	<polygon class="st2" points="500.4,479.1 500.4,439.9 483.3,465.5 481.9,465.5 464.7,439.9 464.7,479.1 457.7,479.1 457.7,427 
		464.7,427 482.6,453.9 500.8,427 507.8,427 507.8,479.1 	"/>
	<rect x="531.5" y="427" class="st2" width="7.3" height="52.1"/>
	<path class="st2" d="M579.1,479.8c-8,0-15-2.8-21.3-8.4l-0.7-0.3l4.5-5.2l0.7,0.7c5.6,4.9,10.5,7,16.8,7s10.5-3.1,10.5-8
		c0-4.2-2.1-6.6-12.6-9.1c-10.8-2.4-17.5-5.6-17.5-15.4c0-8.4,7.3-14.7,17.5-14.7c7,0,12.9,2.1,18.2,6.3l0.7,0.3l-4.2,5.6l-0.7-0.3
		c-4.5-3.5-9.1-5.2-14-5.2c-5.9,0-10.1,3.1-10.1,7.3c0,5.2,4.2,7.3,13.3,9.1c15,3.1,17.1,9.8,17.1,15
		C597.3,473.9,590,479.8,579.1,479.8z"/>
	<polygon class="st2" points="627,479.1 627,434 609.9,434 609.9,427 651.2,427 651.2,434 634.4,434 634.4,479.1 	"/>
	<path class="st2" d="M149.6,479.5l30.1-51.4l30.1,51.4H149.6z M160.8,473.2h37.8L179.7,441L160.8,473.2z"/>
	<path class="st2" d="M257,534.7c-3.8,0-6.6-1.7-8.7-4.9l-0.3-0.3l3.1-2.8l0.3,0.7c1.7,2.4,3.1,3.5,5.6,3.5c2.8,0,4.5-2.1,4.5-5.6
		v-18.2h4.2v18.2C265.7,530.9,262.2,534.7,257,534.7z"/>
	<polygon class="st2" points="287.1,534.4 287.1,506.7 307.3,506.7 307.3,510.6 291.6,510.6 291.6,518.3 305.9,518.3 305.9,522.5 
		291.6,522.5 291.6,530.2 307.7,530.2 307.7,534.4 	"/>
	<polygon class="st2" points="350,534.4 343,514.4 336.4,534.4 332.9,534.4 323.1,506.7 327.6,506.7 334.6,527.4 341.6,506.7 
		344.8,506.7 351.8,527.4 358.8,506.7 363,506.7 353.2,534.4 	"/>
	<polygon class="st2" points="380.1,534.4 380.1,506.7 400.4,506.7 400.4,510.6 384.3,510.6 384.3,518.3 398.6,518.3 398.6,522.5 
		384.3,522.5 384.3,530.2 400.4,530.2 400.4,534.4 	"/>
	<polygon class="st2" points="419.6,534.4 419.6,506.7 423.8,506.7 423.8,530.2 438.5,530.2 438.5,534.4 	"/>
	<polygon class="st2" points="454.6,534.4 454.6,506.7 474.9,506.7 474.9,510.6 458.8,510.6 458.8,518.3 473.1,518.3 473.1,522.5 
		458.8,522.5 458.8,530.2 474.9,530.2 474.9,534.4 	"/>
	<path class="st2" d="M511.3,534.4l-7.7-10.1h-6.6v10.1h-4.2v-27.6h11.9c6.3,0,10.1,3.5,10.1,8.4c0,3.8-2.1,6.6-5.9,8l-0.7,0.3
		l8.4,10.8H511.3z M496.9,520h7.3c3.8,0,5.9-1.7,5.9-4.9c0-2.8-2.1-4.5-5.9-4.5h-7.3V520z"/>
	<path class="st2" d="M542.7,534.7c-4.2,0-7.7-1.4-11.2-4.2l-0.3-0.3l2.8-3.1l0.3,0.3c2.8,2.4,5.2,3.5,8.7,3.5
		c3.1,0,5.2-1.4,5.2-3.8c0-2.1-1-3.1-6.3-4.5c-5.6-1-9.4-3.1-9.4-8.4c0-4.5,3.8-7.7,9.4-7.7c3.8,0,6.6,1,9.8,3.5l0.3,0.3l-2.4,3.5
		l-0.3-0.3c-2.1-1.7-4.5-2.8-7.3-2.8s-4.9,1.4-4.9,3.5c0,2.1,1,3.1,6.6,4.5c6.3,1.4,9.1,3.8,9.1,8
		C552.2,531.2,548.3,534.7,542.7,534.7z"/>
</g>
</svg>
