<?xml version="1.0" encoding="utf-8"?>
<!-- Generator: Adobe Illustrator 24.2.1, SVG Export Plug-In . SVG Version: 6.00 Build 0)  -->
<svg version="1.1" id="Layer_1" xmlns="http://www.w3.org/2000/svg" xmlns:xlink="http://www.w3.org/1999/xlink" x="0px" y="0px"
	 viewBox="0 0 800 800" style="enable-background:new 0 0 800 800;" xml:space="preserve">
<style type="text/css">
	.st0{fill-rule:evenodd;clip-rule:evenodd;fill:#161836;}
	.st1{fill:#FFFFFF;}
	.st2{fill:#703BED;}
	.st3{fill-rule:evenodd;clip-rule:evenodd;fill:#703BED;}
</style>
<rect x="-0.4" y="-0.5" class="st0" width="801.5" height="801.5"/>
<g>
	<path class="st1" d="M343.7,347.9L349,325h0.1l5.3,22.9H343.7z M358.7,366.2h12.5L360,324.1h-21l-11.3,42.1h11.8l2.2-9.3h14.8
		L358.7,366.2z"/>
	<path class="st1" d="M387.5,341.9v-8.9h6.6c3.1,0,4.8,1.6,4.8,4.4c0,2.8-1.8,4.4-4.8,4.4H387.5z M408.3,357
		c-2.2-4.2-7.7-6.6-14.7-6.6v-0.1c11.1,0,17.7-5,17.7-13.6c0-7.9-6.5-12.6-17.7-12.6h-18v42.1h11.9v-15.8h5l7.3,15.8H413L408.3,357z
		"/>
	<polygon class="st1" points="448.9,324.1 414.1,324.1 414.1,333.1 425.5,333.1 425.5,366.2 437.4,366.2 437.4,333.1 448.9,333.1 	
		"/>
	<path class="st1" d="M482.4,357.5c-5.6,0-8.9-4.6-8.9-12.4c0-7.8,3.3-12.4,8.9-12.4c5.5,0,8.8,4.6,8.8,12.4
		C491.3,352.9,488,357.5,482.4,357.5z M482.4,366.8c13.3,0,21.1-8,21.1-21.6c0-13.6-7.9-21.6-21.1-21.6c-13.3,0-21.2,8-21.2,21.6
		C461.2,358.7,469.1,366.8,482.4,366.8z"/>
	<polygon class="st1" points="539.6,333.1 539.6,324.1 509.6,324.1 509.6,366.2 521.5,366.2 521.5,349.9 536.6,349.9 536.6,340.9 
		521.5,340.9 521.5,333.1 	"/>
	<path class="st2" d="M549.4,433.7c1.6,0,2.9,0.4,4,1.1c1,0.8,1.7,1.8,1.9,3.1l-3.5,0.9c-0.1-0.6-0.4-1.1-0.9-1.4s-1-0.4-1.6-0.4
		c-0.7,0-1.2,0.2-1.6,0.5c-0.4,0.3-0.6,0.7-0.6,1.2c0,0.8,0.5,1.4,1.6,1.6l2.6,0.7c1.6,0.4,2.7,1,3.4,1.9c0.7,0.8,1,1.9,1,3
		c0,0.8-0.1,1.5-0.4,2.1c-0.3,0.6-0.7,1.2-1.3,1.6c-0.5,0.5-1.2,0.8-2,1.1c-0.8,0.3-1.6,0.4-2.6,0.4c-0.9,0-1.7-0.1-2.4-0.3
		c-0.7-0.2-1.4-0.5-2-0.9c-0.6-0.4-1-0.9-1.4-1.4c-0.4-0.6-0.6-1.2-0.7-1.8l3.5-0.9c0.1,0.7,0.4,1.1,1,1.5c0.6,0.3,1.3,0.5,2.1,0.5
		c0.8,0,1.4-0.1,1.8-0.4c0.4-0.3,0.6-0.7,0.6-1.2c0-0.8-0.5-1.3-1.5-1.6l-2.7-0.6c-1.5-0.4-2.7-1-3.4-1.9c-0.7-0.9-1.1-1.9-1.1-3.1
		c0-0.8,0.1-1.5,0.4-2.1c0.3-0.6,0.7-1.2,1.2-1.6c0.5-0.5,1.2-0.8,1.9-1.1C547.7,433.8,548.5,433.7,549.4,433.7z"/>
	<path class="st2" d="M558.1,434h3.7v10.4c0,1,0.3,1.8,0.9,2.4c0.6,0.6,1.4,0.9,2.4,0.9c1,0,1.8-0.3,2.4-0.9c0.7-0.6,1-1.4,1-2.3
		V434h3.7v10.5c0,1-0.2,2-0.6,2.8s-0.9,1.5-1.5,2.1c-0.6,0.6-1.4,1-2.2,1.3c-0.9,0.3-1.8,0.5-2.7,0.5c-1,0-1.9-0.1-2.7-0.4
		c-0.9-0.3-1.6-0.8-2.3-1.3c-0.6-0.6-1.2-1.3-1.5-2.1c-0.4-0.8-0.5-1.7-0.5-2.7V434z"/>
	<polygon class="st2" points="592.7,434 592.7,450.8 589.1,450.8 589.1,442.2 585.7,450.8 582.2,450.8 579,442.3 579,450.8 
		575.5,450.8 575.5,434 579,434 584,446.6 589.1,434 	"/>
	<polygon class="st2" points="613.3,434 613.3,450.8 609.7,450.8 609.7,442.2 606.4,450.8 602.9,450.8 599.6,442.3 599.6,450.8 
		596.1,450.8 596.1,434 599.6,434 604.7,446.6 609.7,434 	"/>
	<rect x="616.8" y="434" class="st2" width="3.7" height="16.8"/>
	<polygon class="st2" points="635.4,437.5 630.9,437.5 630.9,450.8 627.2,450.8 627.2,437.5 622.6,437.5 622.6,434 635.4,434 	"/>
	<polygon class="st1" points="362.5,379.2 327.7,379.2 327.7,388.2 339.2,388.2 339.2,421.3 351.1,421.3 351.1,388.2 362.5,388.2 	
		"/>
	<polygon class="st1" points="379.6,412.3 379.6,404.3 398.2,404.3 398.2,395.3 379.6,395.3 379.6,388.2 400.2,388.2 400.2,379.2 
		367.7,379.2 367.7,421.3 400.8,421.3 400.8,412.3 	"/>
	<path class="st1" d="M419.3,403l5.3-22.9h0.1L430,403H419.3z M434.3,421.3h12.5l-11.2-42.1h-21l-11.3,42.1h11.8l2.2-9.3h14.8
		L434.3,421.3z"/>
	<path class="st1" d="M489.1,404.2h-11.3c-0.7,5.3-3.6,8.4-8.3,8.4c-5.5,0-8.8-4.6-8.8-12.4c0-7.8,3.3-12.4,8.8-12.4
		c4.5,0,7.6,3.2,8.3,8.5h11.3c-1.1-11.1-8.4-17.7-19.6-17.7c-13.3,0-21.1,8-21.1,21.6s7.9,21.6,21.1,21.6
		C480.7,421.9,488,415.3,489.1,404.2z"/>
	<polygon class="st1" points="520.2,379.2 520.2,395.5 506.6,395.5 506.6,379.2 494.7,379.2 494.7,421.3 506.6,421.3 506.6,404.5 
		520.2,404.5 520.2,421.3 532.1,421.3 532.1,379.2 	"/>
	<rect x="540.1" y="379.2" class="st1" width="11.9" height="42.1"/>
	<polygon class="st1" points="586.3,379.2 586.8,420.4 586.7,420.4 579.1,379.2 560.1,379.2 560.1,421.3 571.4,421.3 570.8,380.1 
		570.9,380.1 578.5,421.3 597.5,421.3 597.5,379.2 	"/>
	<path class="st1" d="M624.6,398.5v7.5h8.3c-0.7,4.2-3.6,6.7-8.1,6.7c-5.6,0-8.9-4.6-8.9-12.4c0-7.8,3.3-12.4,8.9-12.4
		c4.4,0,7.4,2.9,8,7.7h11.3c-0.9-10.6-8.1-17-19.3-17c-13.3,0-21.2,8-21.2,21.6s5.7,21.6,15.5,21.6c8.8,0,14.1-5.7,14.1-15.3h0.1
		v14.7h11.2v-22.8H624.6z"/>
	<polygon class="st1" points="382.1,434.3 359.3,434.3 355.5,475.5 355.4,475.5 352.2,434.3 329.5,434.3 327.7,476.4 339,476.4 
		340.4,435.2 340.6,435.2 344.8,476.4 365.3,476.4 370.3,435.2 370.5,435.2 371.9,476.4 383.8,476.4 	"/>
	<path class="st1" d="M415.6,461.5c0,3.9-2.4,6.2-6.5,6.2s-6.5-2.3-6.5-6.2v-27.3h-11.9V461c0,10,6.7,15.9,18,15.9
		c11.4,0,18.1-5.9,18.1-15.9v-26.8h-11.3V461.5z"/>
	<path class="st1" d="M451,477c11.7,0,18.6-5.5,18.6-14.6c0-10-9.1-11.3-16.2-12.3c-4.4-0.6-8.1-1.1-8.1-3.7c0-2.2,1.8-3.4,5-3.4
		c3.7,0,6,2.2,6.4,5.9h11.7c-1.1-9.5-7.6-15.1-17.4-15.1c-11.1,0-17.7,4.7-17.7,13.7c0,10.2,8.8,11.3,15.7,12.2
		c4.7,0.6,8.5,1.1,8.5,4.1c0,2.5-2.3,4-6.3,4c-4.1,0-6.9-2.4-7.5-6.5h-11.7C433.3,471.2,440.3,477,451,477z"/>
	<rect x="475.6" y="434.3" class="st1" width="11.9" height="42.1"/>
	<path class="st1" d="M534.3,459.3h-11.3c-0.7,5.3-3.6,8.4-8.3,8.4c-5.5,0-8.8-4.6-8.8-12.4c0-7.8,3.3-12.4,8.8-12.4
		c4.5,0,7.6,3.2,8.3,8.5h11.3c-1.1-11.1-8.4-17.7-19.6-17.7c-13.3,0-21.1,8-21.1,21.6s7.9,21.6,21.1,21.6
		C525.9,477,533.2,470.4,534.3,459.3z"/>
	<path class="st3" d="M252.2,477h57.5v-76.7h-57.5V477z M309.8,361.9h-76.7v81.9c-5.6-3.3-12.2-5.1-19.2-5.1
		c-21.2,0-38.4,17.2-38.4,38.4h-19.2V323.5h153.5V361.9z"/>
</g>
</svg>
