<?xml version="1.0" encoding="utf-8"?>
<!-- Generator: Adobe Illustrator 24.2.1, SVG Export Plug-In . SVG Version: 6.00 Build 0)  -->
<svg version="1.1" id="Layer_1" xmlns="http://www.w3.org/2000/svg" xmlns:xlink="http://www.w3.org/1999/xlink" x="0px" y="0px"
	 viewBox="0 0 800 800" style="enable-background:new 0 0 800 800;" xml:space="preserve">
<style type="text/css">
	.st0{fill-rule:evenodd;clip-rule:evenodd;fill:#FFFFFF;}
	.st1{fill:#DD4C45;}
	.st2{fill-rule:evenodd;clip-rule:evenodd;fill:#DD4C45;}
	.st3{fill:#162649;}
	.st4{fill-rule:evenodd;clip-rule:evenodd;fill:#162649;}
</style>
<rect x="-0.4" y="-0.5" class="st0" width="801.5" height="801.5"/>
<g>
	<path class="st1" d="M314.9,310.8c0.1,4.4-4.5,7.6-7.3,7.3c-2.7,0.4-7.5-2.9-7.3-7.3c-0.4-2.5,2.6-7.4,7.3-7.3
		C312.3,303.4,315.2,308.4,314.9,310.8z M327.3,328.4v-35.1h-12.4v5.2l-0.3,0.1c-1.9-3.9-7.2-6.6-10.3-6.3c-10.3,0-17,8.2-17,18.6
		s6.7,18.6,17,18.6c3,0.2,8.3-2.3,10.3-6.2l0.3,0.1v5.1H327.3z"/>
	<path class="st1" d="M352.1,329.5c11.5,0.1,17.9-7.4,17.6-15v-21.2h-12.4v20.3c0,1.8-1.4,5.2-5.2,5.2c-3.2,0-5.2-2.5-5.2-5.2v-20.3
		h-12.4v21.2c0,2.2,0.4,5,2.3,7.9C339.6,327.2,346.9,329.7,352.1,329.5z"/>
	<polygon class="st1" points="378.8,328.4 391.2,328.4 391.2,302.5 396,302.5 396,293.3 391.2,293.3 391.2,285.4 378.9,285.4 
		378.9,293.3 375.1,293.3 375.1,302.5 378.8,302.5 	"/>
	<path class="st1" d="M413.8,308.8c0-1.8,1.4-5.2,5.2-5.2c3.2,0,5.2,2.5,5.2,5.2v19.7h12.4v-22c0-9-4.7-14.1-13-14.1
		c-3.1-0.2-7.6,2.2-9.5,5.5l-0.3-0.1v-16.6h-12.4v47.3h12.4V308.8z"/>
	<path class="st1" d="M455.3,310.8c-0.3-2.9,2.8-8,7.8-7.9c5-0.1,8.1,5,7.8,7.9c0.3,2.9-2.8,8-7.8,7.9
		C458,318.8,455,313.7,455.3,310.8z M483.7,310.8c0.2-10.4-9.9-18.7-20.7-18.6c-10.8-0.2-20.9,8.2-20.7,18.6
		c-0.2,10.3,9.9,18.8,20.7,18.6C473.8,329.6,483.9,321.1,483.7,310.8z"/>
	<path class="st1" d="M512.8,305.1v-12.9h-1.6c-3-0.2-7.3,2.2-9,6.1l-0.3-0.1v-4.9h-12.4v35.1h12.4v-18.1c-0.1-3.2,3.4-5.5,5.2-5.2
		H512.8z"/>
	<path class="st2" d="M401.5,416h5.3v-5.3h-5.3V416z M393.3,416h5.3v-5.3h-5.3V416z M401.5,424.3h5.3v-5.3h-5.3V424.3z M393.3,424.3
		h5.3v-5.3h-5.3V424.3z M401.5,432.5h5.3v-5.3h-5.3V432.5z M401.5,440.7h5.3v-5.3h-5.3V440.7z M393.3,440.7h5.3v-5.3h-5.3V440.7z
		 M401.5,448.9h5.3v-5.3h-5.3V448.9z M393.3,448.9h5.3v-5.3h-5.3V448.9z M393.3,457.2h5.3v-5.3h-5.3V457.2z M397.4,478.4h-7v-70.6
		h19.4l-0.1,70.6h-6.9v-5.3h-5.3V478.4z"/>
	<polygon class="st3" points="250.7,400.3 219.4,400.3 219.4,388.1 248.8,388.1 248.8,372.1 219.4,372.1 219.4,359.9 250.7,359.9 
		250.7,342.1 197.1,342.1 197.1,418.1 250.7,418.1 	"/>
	<rect x="428.4" y="342.1" class="st3" width="22.3" height="75.9"/>
	<path class="st3" d="M483.6,392.6h7.3l12,25.5h24.9l-14.4-28.8c7.9-3.8,12.3-12.4,12.3-21.4c0-16.3-10.4-25.8-30.7-25.8h-33.7v75.9
		h22.3V392.6z M483.6,358.6h9.3c6,0,10.1,4.1,10.1,9.7c0,5.7-3.8,9.6-10.1,9.6h-9.2V358.6z"/>
	<polygon class="st3" points="588.3,400.3 557,400.3 557,388.1 586.3,388.1 586.3,372.1 557,372.1 557,359.9 588.3,359.9 
		588.3,342.1 534.7,342.1 534.7,418.1 588.3,418.1 	"/>
	<path class="st3" d="M196.8,491.4V474h9.7c6.7,0,10.7,3.2,10.7,8.6c0,5.7-3.9,8.8-10.8,8.8H196.8z M196.8,446.1h8.9
		c5.6,0,9,2.8,9,7.5c0,4.6-3.6,7.6-9.3,7.6h-8.6V446.1z M213,506.7c16.3,0,26.8-8.8,26.8-22.1c0-10.1-8.6-17.8-18.8-18.1v-0.4
		c8.8-1.1,15.4-7.7,15.4-16.4c0-11.8-9.1-18.9-24.6-18.9h-37.3v75.9H213z"/>
	<path class="st3" d="M269.5,430.8h-22.3v48.9c0,17.3,13.4,28.4,33.5,28.4s33.5-11.1,33.5-28.4v-48.9h-22.3v46.4
		c0,8-3.9,12.4-11.2,12.4s-11.2-4.4-11.2-12.4V430.8z"/>
	<polygon class="st3" points="347.1,506.7 324.7,506.7 324.8,380.3 310.1,418.1 298.1,418.1 283.5,380.6 283.5,418.1 261.1,418.1 
		261.1,342.1 286.9,342.1 303.9,387.3 304.3,387.3 321.3,342.1 347.1,342.1 	"/>
	<path class="st4" d="M379.9,358.9h6.4c7.3,0,11.7,3.7,11.7,10.9c0,7.3-4.4,11-11.8,11h-6.3V358.9z M379.9,489h29.8v17.7h-52.1
		V342.1h34.7c16.9,0,28.3,10.8,28.3,27.7c0,16.7-12.1,27.5-29.8,27.5h-10.8V489z"/>
	<path class="st3" d="M440.3,448.5h7c10.7,0,17,6.9,17,19.7c0,14-5.8,20.8-17,20.8h-7V448.5z M418,430.8v75.9h32.5
		c23,0,36.6-14.2,36.6-38.5c0-24.3-13.5-37.4-36.6-37.4H418z"/>
	<polygon class="st3" points="549.3,489 518.1,489 518.1,476.7 547.4,476.7 547.4,460.7 518.1,460.7 518.1,448.5 549.3,448.5 
		549.3,430.8 495.7,430.8 495.7,506.7 549.3,506.7 	"/>
	<path class="st3" d="M582.1,481.2h7.3l12,25.5h24.9l-14.4-28.8c7.9-3.8,12.3-12.4,12.3-21.4c0-16.3-10.4-25.8-30.7-25.8h-33.7v75.9
		h22.3V481.2z M582.1,447.2h9.3c6,0,10.1,4.1,10.1,9.7c0,5.7-3.8,9.6-10.1,9.6h-9.2V447.2z"/>
</g>
</svg>
