<?xml version="1.0" encoding="utf-8"?>
<!-- Generator: Adobe Illustrator 24.2.1, SVG Export Plug-In . SVG Version: 6.00 Build 0)  -->
<svg version="1.1" id="Layer_1" xmlns="http://www.w3.org/2000/svg" xmlns:xlink="http://www.w3.org/1999/xlink" x="0px" y="0px"
	 viewBox="0 0 800 800" style="enable-background:new 0 0 800 800;" xml:space="preserve">
<style type="text/css">
	.st0{fill-rule:evenodd;clip-rule:evenodd;fill:#AC747C;}
	.st1{fill:#FFFFFF;}
</style>
<rect x="-0.4" y="-0.5" class="st0" width="801.5" height="801.5"/>
<g>
	<path class="st1" d="M367.2,283.1c1.9,2.2,2.4,4.5,2.4,37.4c0,42.7-0.7,46.5-2.6,47.6c-2.3,1.4-3.5,1.3-3.5,2.4
		c0,0.6,0.3,0.9,1.2,0.9c0.7,0,4.6-0.6,7.3-0.6c3.2,0,7.2,0.6,8.2,0.6c0.9,0,1.2-0.3,1.2-0.9c0-1-2.9-1.3-4.5-2.6
		c-1.7-1.5-2.2-3.7-2.2-18.1c0-1.6,0.6-2,1.7-2c15.7,0,30.9,24.7,46.3,24.7c7.3,0,14.5-6.3,14.5-15c0-3.2-0.9-6-1.7-6
		c-0.3,0-0.6,0.1-0.6,0.7c0,8.5-4.6,14.1-12.2,14.1c-14.7,0-27.2-16-40.3-19v-0.3c2.6,0.3,5.3,0.3,7.9,0.3
		c21.6,0,40.4-12.4,40.4-34.7c0-21.1-15.5-34.5-37.8-34.5c-9.6,0-17.7,2-22,2c-2.4,0-5.8-0.4-6.5-0.4c-0.9,0-1.2,0.3-1.2,1
		C363.5,281.8,366.1,281.8,367.2,283.1z M374.6,320.4c0-31.9,0-34.1,2.2-36.7c2-2.4,7-3.6,16.4-3.6c4.9,0,9.6,0.8,14,2.5l1.2,21.2
		l0.8-20.3c9,4.4,15.6,13.4,15.6,29.1c0,23.7-18.3,32.9-36.1,32.9c-13.4,0-14.1-0.4-14.1-4.5V320.4z"/>
	<path class="st1" d="M455,282.6c6,2,6.3,3.7,6.3,42.9c0,39.5-0.2,41.3-6.3,43.3c-2,0.7-2.8,0.7-2.8,1.6c0,0.6,0.2,0.9,1.1,0.9
		c0.9,0,5.1-0.3,15.3-0.4l1.2,20.2l0.8-20.2c0.6,0,1.3,0,2,0c25.9,0,37.3,0.4,40.8,0.4c0.9,0,1.1-0.3,1.1-0.9c0-1-1.1-3.2-1.1-6.2
		c0-7,1.6-15.2,1.6-15.8c0-0.9-0.3-1.2-0.9-1.2c-0.8,0-1.5,0.6-1.6,1.7c-2.5,18.3-6,20-27.8,20c-12.1,0-14.6-0.9-16.2-3
		c-1.3-1.7-2.2-4-2.2-38l0,0.1c0-3.6,1.7-3.9,12.3-3.9c13.8,0,15.9,3,16.9,12.7c0.1,1,0.6,1.2,1.2,1.3c0.3,0.1,0.8-0.3,0.8-1
		c0-1.2-0.8-5.2-0.8-13.8c0-7.5,0.8-12.9,0.8-13.9c0-0.7-0.5-1-0.8-1c-0.6,0-1.2,0.3-1.4,1.2c-1.6,9.7-3,12.7-16.8,12.7
		c-10.4,0-12.3-0.3-12.3-3.7l0,0.1c0-28.4,0-31.6,1.6-33.6c1.6-2,4.9-2.7,16.5-2.7l1.3,21.7l0.9-21.7c17.4,0,20.5,1.6,24.1,16.7
		c0.2,1,0.8,1.6,1.6,1.6c0.6,0,0.9-0.3,0.9-1.2c0-0.6-1.6-6.9-1.6-12.4c0-3,1.1-5.2,1.1-6.2c0-0.6-0.2-0.9-1.1-0.9
		c-3.9,0-16.4,0.4-44.9,0.4c-5.5,0-11.8-0.4-13.4-0.4c-0.9,0-1.1,0.3-1.1,0.9C452.1,281.5,452.8,281.9,455,282.6z"/>
	<path class="st1" d="M523.3,371.6c1.2,0,5.3-0.9,9.2-0.9c4.7,0,11.1,0.9,12.4,0.9c0.9,0,1.3-0.3,1.3-1c0-0.7-0.6-1-2.1-1.3
		c-4.2-1.4-6.9-3.8-6.9-7.9c0-1.4,0.3-3.4,1.2-5.9c1.2-3.2,2.7-7.5,4.5-12.5c0.3-0.8,0.5-1.2,1.6-1.4c1.4-0.2,6.4-0.4,17.7-0.4
		c14.3,0,19.9,0,22.4,0.4c1.3,0.2,1.6,0.5,1.9,1.4c3.3,9.2,5.5,15.3,6.1,18.3l-0.1,0.4l0.2,2.8c-0.4,1.7-1.5,3.4-5,4.6
		c-1.8,0.5-2.5,0.7-2.5,1.5c0,0.7,0.6,0.9,1.4,0.9c0.8,0,3.6-0.3,6.4-0.5l1.8,31.3l1.3-31.4c0.5,0,1,0,1.4,0c3.7,0,8.8,0.7,10.5,0.7
		c0.7,0,1.3-0.3,1.3-1c0-0.9-1.2-1.3-3.8-2c-3.9-1.1-5.4-2.9-8.5-11.2c-7.2-19-18.8-50-27.4-72.6c-1-2.7-1-3.3-1-4
		c0-1,0.9-1.6,0.9-2.2c0-0.8-0.4-1.1-1.1-1.1c-1,0-3.1,2.8-11.4,2.8c-0.9,0-1.5,0.5-1.5,1.1c0,0.7,0.6,1,1.5,1.2
		c3.1,1.2,3.9,2.1,3.9,3.3c0,1-0.7,3-1.6,5.3c-6.3,17.4-14.3,39.8-23.4,62.2c-5,12.1-5.7,13.7-12.1,15.8c-1.5,0.4-2.1,0.6-2.1,1.4
		C521.8,371.4,522.4,371.6,523.3,371.6z M544.9,337.1c5.5-15,13.1-35.7,19-52.1c0.1-0.1,0.1-0.2,0.2-0.2c0.1,0,0.1,0.1,0.2,0.2
		c3.5,9,12.7,33,19.6,51.6c0.2,0.4,0.3,0.8,0.3,1.1c0,0.3-0.4,0.5-1,0.6c-3.1,0.3-10.7,0.7-20.7,0.7c-12,0-16-0.1-17.3-0.5
		c-0.5-0.1-0.6-0.3-0.6-0.5C544.7,337.7,544.8,337.5,544.9,337.1z"/>
	<path class="st1" d="M387.2,505.6c-0.3,0-0.6,0.1-0.6,0.7c0,8.4-4.6,14-12.1,14c-14.6,0-27-15.9-39.9-18.8v-0.3
		c2.6,0.3,5.3,0.3,7.8,0.3c21.4,0,40.1-12.2,40.1-34.4c0-20.9-15.4-34.2-37.5-34.2c-9.6,0-17.5,2-21.8,2c-2.4,0-5.7-0.4-6.4-0.4
		c-0.9,0-1.1,0.3-1.1,1c0,1,2.6,1,3.7,2.3c1.9,2.1,2.4,4.4,2.4,37.1c0,42.4-0.7,46.1-2.6,47.2c-2.3,1.4-3.4,1.3-3.4,2.4
		c0,0.6,0.3,0.9,1.1,0.9c0.7,0,4.6-0.6,7.3-0.6c3.1,0,7.1,0.6,8.1,0.6c0.9,0,1.1-0.3,1.1-0.9c0-1-2.9-1.3-4.4-2.6
		c-1.7-1.5-2.1-3.6-2.1-18c0-1.6,0.6-2,1.7-2c15.5,0,30.7,24.5,45.9,24.5c7.3,0,14.4-6.3,14.4-14.8
		C388.9,508.5,388.1,505.6,387.2,505.6z M326.6,495.4v-20.5c0-31.7,0-33.8,2.1-36.4c2-2.4,7-3.6,16.3-3.6c16,0,31.4,8.2,31.4,32.2
		c0,23.5-18.2,32.7-35.8,32.7C327.3,499.8,326.6,499.3,326.6,495.4z"/>
	<path class="st1" d="M478,522.5c-3.9-1.1-5.3-2.9-8.4-11.1c-7.1-18.9-18.7-49.5-27.1-71.9c-1-2.6-1-3.3-1-4c0-1,0.9-1.6,0.9-2.2
		c0-0.8-0.4-1.1-1.1-1.1c-1,0-3.1,2.8-11.3,2.8c-0.9,0-1.4,0.5-1.4,1.1c0,0.7,0.6,1,1.5,1.2c3.1,1.1,3.9,2.1,3.9,3.3
		c0,1-0.7,3-1.6,5.3c-6.2,17.3-14.1,39.5-23.2,61.7c-5,12-5.6,13.6-12,15.7c-1.5,0.4-2.1,0.6-2.1,1.4c0,0.7,0.6,1,1.4,1
		c1.1,0,5.2-0.9,9.1-0.9c4.6,0,11,0.9,12.3,0.9c0.9,0,1.3-0.3,1.3-1s-0.6-1-2.1-1.3c-4.2-1.4-6.9-3.8-6.9-7.8c0-1.4,0.3-3.3,1.2-5.9
		c1.1-3.2,2.7-7.4,4.5-12.4c0.3-0.8,0.5-1.2,1.6-1.4c1-0.2,3.9-0.3,9.5-0.4l1.3,21.5l0.9-21.5c1.7,0,3.7,0,5.9,0
		c14.1,0,19.7,0,22.2,0.4c1.2,0.2,1.6,0.5,1.9,1.4c4.1,11.2,6.3,17.9,6.3,19.7c0,2.3-0.6,4.6-5.1,6.2c-1.8,0.5-2.5,0.7-2.5,1.5
		c0,0.7,0.6,0.9,1.4,0.9c1.3,0,7.4-0.7,10.9-0.7c3.7,0,8.7,0.7,10.4,0.7c0.7,0,1.3-0.3,1.3-1C481.8,523.6,480.6,523.2,478,522.5z
		 M456,492.6c-3.1,0.3-10.6,0.7-20.5,0.7c-11.8,0-15.9-0.1-17.2-0.5c-0.5-0.1-0.6-0.3-0.6-0.5c0-0.3,0.1-0.5,0.2-0.9
		c5.5-14.9,13-35.4,18.9-51.6c0.1-0.1,0.1-0.2,0.2-0.2c0.1,0,0.1,0.1,0.2,0.2c3.5,8.9,12.6,32.7,19.5,51.2c0.2,0.4,0.3,0.8,0.3,1.1
		C457,492.3,456.6,492.5,456,492.6z"/>
	<path class="st1" d="M566.8,490.2c-1.2,0-5.3,0.6-9,0.6c-2.4,0-6.7-0.9-7.7-0.9c-0.7,0-1,0.3-1,0.8c0,0.8,0.4,0.9,2.1,1.4
		c3.8,1.3,4.3,2.3,4.3,8.8v4.7c0,12.5-12.4,19.4-28.4,19.4c-0.4,0-0.7,0-1.1,0l0.2-12.6c0.2-15.8,0.5-31.6,0.7-47.4l0.1-5.1
		c0.1-8.4,0.2-17.1,0.4-25.7c3.7,0,7.2,0.4,10.4,1.3l1.3,21.7l0.9-21c8.3,3.2,14.4,10.8,17.9,26.4c0.2,0.7,0.7,1.3,1.4,1.3
		c0.9,0,1.1-0.3,1.1-1c0-2.7-2.1-10-2.1-30.5c0-1-0.4-1.3-1.3-1.3c-1.1,0-1.5,0.6-1.6,2.8c-0.2,3.3-0.7,5.2-2.8,5.2
		c-3.5,0-9.5-6.9-25.1-7c0.1-2.4,0.1-4.9,0.2-7.3c0.1-2.6,0.3-4.2,1.2-5.2l0.2-0.2h16.6c-0.3-1.6-1.7-2.8-3.4-2.8h-13l-0.2-0.1
		c-1.6-1.1-2.4-2.8-2.3-5l0-0.2l-0.9-29.4c0-0.9-0.8-1.7-1.7-1.7h-1.6c0,0.5,0,1,0,1.6l0,0.4c-0.3,9.1-0.4,18.7-0.2,28.7
		c0,2.1-0.9,4.1-2.5,5.6l-0.2,0.2h-12.4c-1.7,0-3.1,1.2-3.4,2.8h15.9l0.2,0.2c1.3,1,1.8,2.7,2,5.5c0.1,2.6,0.3,5,0.4,7.3
		c-22.1,2.5-38.1,22.5-38.1,47.1c0,24.9,15.7,45.7,40.1,47.2c0.2,10.4,0.4,20.9,0.6,31.3c0,1.3,0.2,4.5,0.3,6.3l0.7-33.1l0.1-4.5
		c0.4,0,0.8,0,1.1,0c21.1,0,26.1-10.7,28.7-10.7c0.6,0,1,0.3,1.4,1.3l2.3,39.4l1-31c0-0.3,0.1-0.6,0.1-1v-1.1l0.2-7.1l-0.2-0.7v-4.5
		c0-14.7,0.4-16.7,1.4-17.8c1.1-1.2,5.7-1.2,5.7-2.7C567.8,490.5,567.5,490.2,566.8,490.2z M490.6,479.5c0-31,16.3-43.1,31.8-45
		c0.2,4.4,0.3,8.2,0.4,11.9c0.4,20.2,0.8,40.5,1.1,60.7c0.1,5.9,0.2,11.9,0.3,17.8C507.1,523.7,490.6,511,490.6,479.5z"/>
	<path class="st1" d="M595.4,523.3c-4.6-1.4-4.3-6.8-4.3-44.4c0-35.1-0.3-41.2,4.3-42.6c1.9-0.4,2.4-0.6,2.4-1.4
		c0-0.6-0.3-0.9-1-0.9c-1,0-6,0.9-8.1,0.9c-2.1,0-7.1-0.9-8.1-0.9c-0.7,0-1,0.3-1,0.9c0,0.9,0.6,1,2.4,1.4c4.6,1.4,4.3,7.6,4.3,42.6
		c0,37.5,0.3,42.9-4.3,44.4c-1.9,0.4-2.4,0.6-2.4,1.4c0,0.6,0.3,0.9,1,0.9c1,0,6-0.9,8.1-0.9c2.1,0,7.1,0.9,8.1,0.9
		c0.7,0,1-0.3,1-0.9C597.8,523.9,597.3,523.7,595.4,523.3z"/>
	<path class="st1" d="M656.5,523.3c-4.6-1.4-4.3-6.8-4.3-44.3c0-35.1-0.3-41.2,4.3-42.6c1.9-0.4,2.4-0.6,2.4-1.4
		c0-0.6-0.3-0.9-1-0.9c-1,0-6,0.9-8.1,0.9s-7.1-0.9-8.1-0.9c-0.7,0-1,0.3-1,0.9c0,0.9,0.6,1,2.4,1.4c4.4,1.4,4.3,7.2,4.3,39.7
		c-0.1,2.8-3.5,2.9-28.1,2.9c-24.7,0-28.1,0-28.1-3v8.4c0-2.9,3.4-2.9,28.1-2.9c5.3,0,9.7,0,13.2,0l1.2,20.9l0.9-20.9
		c10.9,0.1,12.8,0.7,12.8,2.8c0,32.7,0.1,37.6-4.3,39c-1.9,0.4-2.4,0.6-2.4,1.4c0,0.6,0.3,0.9,1,0.9c1,0,6-0.9,8.1-0.9
		c2.1,0,7.1,0.9,8.1,0.9c0.7,0,1-0.3,1-0.9C658.9,523.9,658.3,523.7,656.5,523.3z"/>
	<path class="st1" d="M277.3,408.8c0.1,0,0.2-0.1,0.2-0.2c0.1-0.6,0.3-0.8,0.5-0.8c0.6,0,1.9,1,4,1c2.5,0,4.4-1.5,4.4-3.8
		c0-1.9-1.2-3-3.4-3.6l-1.7-0.4c-1.9-0.5-2.9-1.2-2.9-2.6c0-1.5,1.1-2.5,2.9-2.5c2.4,0,3.4,2,4.1,3.9c0,0.1,0.1,0.2,0.2,0.2
		c0.1,0,0.2,0,0.2-0.1c0-0.1-0.2-1.8-0.3-2.2c-0.1-0.7-0.1-1.7-0.1-1.8c0-0.1-0.1-0.2-0.2-0.2c-0.1,0-0.2,0.1-0.2,0.4
		c0,0.3,0,0.6-0.3,0.6c-0.6,0-1.4-1.1-3.5-1.1c-2.1,0-3.9,1.3-3.9,3.4c0,1.8,1.1,2.9,3.3,3.4l1.6,0.4c2.1,0.5,2.9,1.4,2.9,2.8
		c0,1.6-1.1,2.8-3.1,2.8c-3,0-4-2.3-4.8-4.4c-0.1-0.2-0.1-0.2-0.2-0.2c-0.1,0-0.2,0.1-0.2,0.2c0,0.2,0.2,1.4,0.2,2.7
		c0,0.8-0.1,1.6-0.1,1.8C277.1,408.8,277.2,408.8,277.3,408.8z"/>
	<path class="st1" d="M310.9,395.9c-0.1,0-0.8,0.1-1.5,0.1c-0.7,0-1.5-0.1-1.7-0.1c-0.1,0-0.2,0-0.2,0.1c0,0.1,0.1,0.2,0.2,0.2
		c0.9,0.2,1.2,0.5,1.2,1.1c0,0.7-0.9,3.2-3,9.4c0,0.1,0,0.1-0.1,0.1c0,0,0,0,0-0.1c-2-5.6-3.3-9.2-3.3-9.8c0-0.3,0.2-0.5,0.7-0.6
		c0.3-0.1,0.4-0.1,0.4-0.3s-0.1-0.1-0.2-0.1c-0.2,0-0.8,0.1-1.9,0.1c-0.8,0-1.7-0.1-1.9-0.1c-0.1,0-0.2,0-0.2,0.1
		c0,0.1,0.1,0.1,0.3,0.3c0.7,0.4,0.9,0.8,1.3,1.8l0,0.1c-0.9,2.7-1.9,5.6-2.9,8.6c0,0,0,0,0,0c0,0,0,0,0,0c-1.9-5.1-3.3-9-3.3-9.7
		c0-0.4,0.3-0.6,0.8-0.8c0.3-0.1,0.4-0.1,0.4-0.3c0-0.1-0.1-0.1-0.2-0.1c-0.2,0-1.5,0.1-2.2,0.1c-0.8,0-2-0.1-2.2-0.1
		c-0.1,0-0.2,0-0.2,0.1c0,0.1,0.1,0.2,0.4,0.3c0.7,0.3,1.1,0.8,1.5,1.8c1.3,3.3,2.8,7.2,4.2,11c0,0.1,0.1,0.1,0.2,0.1
		c0.1,0,0.1-0.1,0.2-0.1c1.2-3.5,2.4-7,3.6-10.3l3.8,10.3c0,0.1,0.1,0.1,0.2,0.1c0.1,0,0.1,0,0.2-0.1l3.9-11
		c0.4-1.2,0.8-1.6,1.6-1.8c0.2,0,0.2-0.1,0.2-0.2C311.1,395.9,311,395.9,310.9,395.9z"/>
	<path class="st1" d="M325.2,404.5c-0.1,0-0.2,0.1-0.2,0.3c-0.4,3-1.3,3.5-4.1,3.5c-1.4,0-1.8-0.1-2-0.4c-0.2-0.3-0.4-0.8-0.4-5.2
		l0,0c0-0.5,0.2-0.5,1.5-0.5c1.9,0,2.2,0.5,2.4,1.8c0,0.1,0.1,0.2,0.2,0.2c0,0,0.1,0,0.1-0.1c0-0.2-0.1-0.7-0.1-2
		c0-1.1,0.1-1.9,0.1-2c0-0.1-0.1-0.1-0.1-0.1c-0.1,0-0.2,0-0.2,0.2c-0.3,1.3-0.6,1.8-2.4,1.8c-1.3,0-1.5-0.1-1.5-0.5l0,0
		c0-3.8,0.1-4.4,0.3-4.7c0.2-0.3,0.7-0.4,2.2-0.4c2.3,0,3.1,0.3,3.8,2.8c0,0.2,0.1,0.2,0.2,0.2c0.1,0,0.1,0,0.1-0.2
		c0-0.1-0.3-1.3-0.3-2.2c0-0.5,0.3-0.7,0.3-0.9c0-0.1,0-0.1-0.1-0.1c-0.6,0-3.4,0.1-6.8,0.1c-1.1,0-2.1-0.1-2.4-0.1
		c-0.1,0-0.1,0-0.1,0.1c0,0.1,0.1,0.2,0.4,0.3c0.8,0.3,0.8,0.6,0.8,6c0,5.4,0,5.7-0.8,6c-0.3,0.1-0.4,0.1-0.4,0.2
		c0,0.1,0,0.1,0.1,0.1c0.2,0,1-0.1,2.9-0.1c3.1,0,5.9,0.1,6.5,0.1c0.1,0,0.1,0,0.1-0.1c0-0.2-0.3-0.4-0.3-0.9c0-1.3,0.3-2.8,0.3-2.9
		C325.3,404.5,325.3,404.5,325.2,404.5z"/>
	<path class="st1" d="M331.5,395.9c-0.1,0-0.1,0-0.1,0.1c0,0.1,0.1,0.2,0.4,0.3c0.8,0.3,0.8,0.6,0.8,6c0,5.4,0,5.7-0.8,6
		c-0.3,0.1-0.4,0.1-0.4,0.2c0,0.1,0,0.1,0.1,0.1c0.2,0,1-0.1,2.9-0.1c3.1,0,5.9,0.1,6.5,0.1c0.1,0,0.1,0,0.1-0.1
		c0-0.2-0.3-0.4-0.3-0.9c0-1.3,0.3-2.8,0.3-2.9c0-0.1,0-0.2-0.1-0.2c-0.1,0-0.2,0.1-0.2,0.3c-0.4,3-1.3,3.5-4.1,3.5
		c-1.4,0-1.8-0.1-2-0.4c-0.2-0.3-0.4-0.8-0.4-5.2l0,0c0-0.5,0.2-0.5,1.5-0.5c1.9,0,2.2,0.5,2.4,1.8c0,0.1,0.1,0.2,0.2,0.2
		c0,0,0.1,0,0.1-0.1c0-0.2-0.1-0.7-0.1-2c0-1.1,0.1-1.9,0.1-2c0-0.1-0.1-0.1-0.1-0.1c-0.1,0-0.2,0-0.2,0.2c-0.3,1.3-0.6,1.8-2.4,1.8
		c-1.3,0-1.5-0.1-1.5-0.5l0,0c0-3.8,0.1-4.4,0.3-4.7c0.2-0.3,0.7-0.4,2.2-0.4c2.3,0,3.1,0.3,3.8,2.8c0,0.2,0.1,0.2,0.2,0.2
		c0.1,0,0.1,0,0.1-0.2c0-0.1-0.3-1.3-0.3-2.2c0-0.5,0.3-0.7,0.3-0.9c0-0.1,0-0.1-0.1-0.1c-0.6,0-3.4,0.1-6.8,0.1
		C332.8,396,331.8,395.9,331.5,395.9z"/>
	<path class="st1" d="M346.7,395.9c0,0.1,0.2,0.3,0.2,0.9c0,1.1-0.1,2.6-0.1,2.8c0,0.1,0.1,0.2,0.1,0.2c0.1,0,0.2-0.1,0.2-0.3
		c0.5-3,0.8-3.2,2.5-3.2c1,0,1.4,0.1,1.6,0.4c0.2,0.3,0.2,0.8,0.2,6.3l0,3.2c0,1.7-0.1,1.9-1.2,2.2c-0.2,0.1-0.3,0.1-0.3,0.2
		c0,0.1,0.1,0.1,0.1,0.1c0.2,0,1.4-0.1,2.2-0.1c0.7,0,2,0.1,2.2,0.1c0.1,0,0.1,0,0.1-0.1c0-0.1-0.1-0.1-0.3-0.2
		c-1.2-0.2-1.2-0.4-1.2-2.2l0-3.2c0-5.5,0-6,0.2-6.3c0.2-0.3,0.6-0.4,1.6-0.4c1.7,0,2.1,0.2,2.5,3.2c0,0.3,0.1,0.3,0.2,0.3
		c0.1,0,0.1-0.1,0.1-0.2c0-0.2-0.1-1.7-0.1-2.8c0-0.6,0.2-0.7,0.2-0.9c0-0.1-0.1-0.1-0.1-0.1c-0.2,0-0.8,0.2-5.5,0.2
		c-4.7,0-5.3-0.2-5.5-0.2C346.7,395.8,346.7,395.8,346.7,395.9z"/>
	<path class="st1" d="M390.1,395.9c-0.1,0-0.8,0.1-1.5,0.1c-0.7,0-1.5-0.1-1.7-0.1c-0.1,0-0.2,0-0.2,0.1c0,0.1,0.1,0.2,0.2,0.2
		c0.9,0.2,1.2,0.5,1.2,1.1c0,0.7-0.9,3.2-3,9.4c0,0.1,0,0.1-0.1,0.1c0,0,0,0,0-0.1c-2-5.6-3.3-9.2-3.3-9.8c0-0.3,0.2-0.5,0.7-0.6
		c0.3-0.1,0.4-0.1,0.4-0.3s-0.1-0.1-0.2-0.1c-0.2,0-0.8,0.1-1.9,0.1c-0.8,0-1.7-0.1-1.9-0.1c-0.1,0-0.2,0-0.2,0.1
		c0,0.1,0.1,0.1,0.3,0.3c0.7,0.4,0.9,0.8,1.3,1.8l0,0.1c-0.9,2.7-1.9,5.6-2.9,8.6c0,0,0,0,0,0c0,0,0,0,0,0c-1.9-5.1-3.3-9-3.3-9.7
		c0-0.4,0.3-0.6,0.8-0.8c0.3-0.1,0.4-0.1,0.4-0.3c0-0.1-0.1-0.1-0.2-0.1c-0.2,0-1.5,0.1-2.2,0.1c-0.8,0-2-0.1-2.2-0.1
		c-0.1,0-0.2,0-0.2,0.1c0,0.1,0.1,0.2,0.4,0.3c0.7,0.3,1.1,0.8,1.5,1.8c1.3,3.3,2.8,7.2,4.2,11c0,0.1,0.1,0.1,0.2,0.1
		c0.1,0,0.1-0.1,0.2-0.1c1.2-3.5,2.4-7,3.6-10.3l3.8,10.3c0,0.1,0.1,0.1,0.2,0.1c0.1,0,0.1,0,0.2-0.1l3.9-11
		c0.4-1.2,0.8-1.6,1.6-1.8c0.2,0,0.2-0.1,0.2-0.2C390.3,395.9,390.2,395.9,390.1,395.9z"/>
	<path class="st1" d="M395.9,408.3c-0.3,0.1-0.3,0.1-0.3,0.2c0,0.1,0,0.1,0.1,0.1c0.2,0,1-0.1,1.7-0.1c0.7,0,1.5,0.1,1.7,0.1
		c0.1,0,0.1,0,0.1-0.1c0-0.1-0.1-0.2-0.3-0.2c-0.7-0.2-0.6-0.9-0.6-6.1c0-5,0-5.7,0.6-5.9c0.3-0.1,0.3-0.1,0.3-0.2
		c0-0.1,0-0.1-0.1-0.1c-0.2,0-0.9,0.1-1.7,0.1c-0.7,0-1.5-0.1-1.7-0.1c-0.1,0-0.1,0.1-0.1,0.1c0,0.1,0.1,0.1,0.3,0.2
		c0.7,0.2,0.7,1,0.7,5.9C396.6,407.3,396.6,408.1,395.9,408.3z"/>
	<path class="st1" d="M416.4,395.8c-0.2,0-0.8,0.2-5.5,0.2s-5.3-0.2-5.5-0.2c-0.1,0-0.1,0-0.1,0.1c0,0.1,0.2,0.3,0.2,0.9
		c0,1.1-0.1,2.6-0.1,2.8c0,0.1,0.1,0.2,0.1,0.2c0.1,0,0.2-0.1,0.2-0.3c0.5-3,0.8-3.2,2.5-3.2c1,0,1.4,0.1,1.6,0.4
		c0.2,0.3,0.2,0.8,0.2,6.3l0,3.2c0,1.7-0.1,1.9-1.2,2.2c-0.2,0.1-0.3,0.1-0.3,0.2c0,0.1,0.1,0.1,0.1,0.1c0.2,0,1.4-0.1,2.2-0.1
		c0.7,0,2,0.1,2.2,0.1c0.1,0,0.1,0,0.1-0.1c0-0.1-0.1-0.1-0.3-0.2c-1.2-0.2-1.2-0.4-1.2-2.2l0-3.2c0-5.5,0-6,0.2-6.3
		c0.2-0.3,0.6-0.4,1.6-0.4c1.7,0,2.1,0.2,2.5,3.2c0,0.3,0.1,0.3,0.2,0.3c0.1,0,0.1-0.1,0.1-0.2c0-0.2-0.1-1.7-0.1-2.8
		c0-0.6,0.2-0.7,0.2-0.9C416.5,395.8,416.4,395.8,416.4,395.8z"/>
	<path class="st1" d="M422.7,408.3c-0.3,0.1-0.3,0.1-0.3,0.2c0,0.1,0,0.1,0.1,0.1c0.2,0,1.1-0.1,1.7-0.1c0.6,0,1.5,0.1,1.7,0.1
		c0.1,0,0.1,0,0.1-0.1c0-0.1-0.1-0.1-0.3-0.2c-0.7-0.2-0.6-1-0.6-6.2c0-5,0-5.7,0.6-5.9c0.3-0.1,0.3-0.1,0.3-0.2
		c0-0.1,0-0.1-0.1-0.1c-0.2,0-1.1,0.1-1.7,0.1c-0.6,0-1.5-0.1-1.7-0.1c-0.1,0-0.1,0-0.1,0.1c0,0.1,0.1,0.1,0.3,0.2
		c0.7,0.2,0.6,1,0.6,6C423.4,407.4,423.4,408.1,422.7,408.3z"/>
	<path class="st1" d="M434.2,396.2c0.3-0.1,0.3-0.1,0.3-0.2c0-0.1,0-0.1-0.1-0.1c-0.2,0-1.1,0.1-1.7,0.1c-0.6,0-1.5-0.1-1.7-0.1
		c-0.1,0-0.1,0-0.1,0.1c0,0.1,0.1,0.1,0.3,0.2c0.6,0.2,0.6,0.9,0.6,5.4c0,0.5-0.4,0.5-3.5,0.5c-3.1,0-3.5,0-3.5-0.5v1.4
		c0-0.5,0.4-0.5,3.5-0.5c3.1,0,3.5,0,3.5,0.5c0,4.5,0,5.1-0.6,5.3c-0.3,0.1-0.4,0.1-0.4,0.2c0,0.1,0,0.1,0.1,0.1
		c0.2,0,1.1-0.1,1.7-0.1c0.6,0,1.5,0.1,1.7,0.1c0.1,0,0.1,0,0.1-0.1c0-0.1-0.1-0.1-0.3-0.2c-0.7-0.2-0.6-0.9-0.6-6.1
		C433.6,397.2,433.6,396.4,434.2,396.2z"/>
	<path class="st1" d="M449.3,408.3c-0.3,0.1-0.3,0.1-0.3,0.2c0,0.1,0,0.1,0.1,0.1c0.2,0,1.1-0.1,1.7-0.1c0.6,0,1.5,0.1,1.7,0.1
		c0.1,0,0.1,0,0.1-0.1c0-0.1-0.1-0.1-0.3-0.2c-0.7-0.2-0.6-1-0.6-6.2c0-5,0-5.7,0.6-5.9c0.3-0.1,0.3-0.1,0.3-0.2
		c0-0.1,0-0.1-0.1-0.1c-0.2,0-1.1,0.1-1.7,0.1c-0.6,0-1.5-0.1-1.7-0.1c-0.1,0-0.1,0-0.1,0.1c0,0.1,0.1,0.1,0.3,0.2
		c0.7,0.2,0.6,1,0.6,6C450,407.4,450,408.1,449.3,408.3z"/>
	<path class="st1" d="M460.8,396.2c0.3-0.1,0.3-0.1,0.3-0.2c0-0.1,0-0.1-0.1-0.1c-0.2,0-1.1,0.1-1.7,0.1c-0.6,0-1.5-0.1-1.7-0.1
		c-0.1,0-0.1,0-0.1,0.1c0,0.1,0.1,0.1,0.3,0.2c0.6,0.2,0.6,0.9,0.6,5.4c0,0.5-0.4,0.5-3.5,0.5c-3.1,0-3.5,0-3.5-0.5v1.4
		c0-0.5,0.4-0.5,3.5-0.5c3.1,0,3.5,0,3.5,0.5c0,4.5,0,5.1-0.6,5.3c-0.3,0.1-0.4,0.1-0.4,0.2c0,0.1,0,0.1,0.1,0.1
		c0.2,0,1.1-0.1,1.7-0.1c0.6,0,1.5,0.1,1.7,0.1c0.1,0,0.1,0,0.1-0.1c0-0.1-0.1-0.1-0.3-0.2c-0.7-0.2-0.6-0.9-0.6-6.1
		C460.2,397.2,460.2,396.4,460.8,396.2z"/>
	<path class="st1" d="M477.2,404.5c-0.1,0-0.2,0.1-0.2,0.3c-0.4,3-1.3,3.5-4.1,3.5c-1.4,0-1.8-0.1-2-0.4c-0.2-0.3-0.4-0.8-0.4-5.2
		l0,0c0-0.5,0.2-0.5,1.5-0.5c1.9,0,2.2,0.5,2.4,1.8c0,0.1,0.1,0.2,0.2,0.2c0,0,0.1,0,0.1-0.1c0-0.2-0.1-0.7-0.1-2
		c0-1.1,0.1-1.9,0.1-2c0-0.1-0.1-0.1-0.1-0.1c-0.1,0-0.2,0-0.2,0.2c-0.3,1.3-0.6,1.8-2.4,1.8c-1.3,0-1.5-0.1-1.5-0.5l0,0
		c0-3.8,0.1-4.4,0.3-4.7c0.2-0.3,0.7-0.4,2.2-0.4c2.3,0,3.1,0.3,3.8,2.8c0,0.2,0.1,0.2,0.2,0.2c0.1,0,0.1,0,0.1-0.2
		c0-0.1-0.3-1.3-0.3-2.2c0-0.5,0.3-0.7,0.3-0.9c0-0.1,0-0.1-0.1-0.1c-0.6,0-3.4,0.1-6.8,0.1c-1.1,0-2.1-0.1-2.4-0.1
		c-0.1,0-0.1,0-0.1,0.1c0,0.1,0.1,0.2,0.4,0.3c0.8,0.3,0.8,0.6,0.8,6c0,5.4,0,5.7-0.8,6c-0.3,0.1-0.4,0.1-0.4,0.2
		c0,0.1,0,0.1,0.1,0.1c0.2,0,1-0.1,2.9-0.1c3.1,0,5.9,0.1,6.5,0.1c0.1,0,0.1,0,0.1-0.1c0-0.2-0.3-0.4-0.3-0.9c0-1.3,0.3-2.8,0.3-2.9
		C477.3,404.5,477.3,404.5,477.2,404.5z"/>
	<path class="st1" d="M485.8,408.5c0-0.1-0.1-0.1-0.3-0.2c-0.7-0.2-1-0.5-1-1.1c0-0.2,0-0.5,0.1-0.8c0.1-0.4,0.3-1,0.6-1.8
		c0-0.1,0.1-0.2,0.3-0.2c0.2,0,0.9,0,2.2,0c1.7,0,2.5,0,2.9,0.1c0.2,0,0.3,0.1,0.3,0.2c0.5,1.5,0.8,2.4,0.8,2.8
		c0,0.3-0.1,0.7-0.8,0.9c-0.2,0.1-0.3,0.1-0.3,0.2c0,0.1,0.1,0.1,0.2,0.1c0.2,0,1.3-0.1,2-0.1c0.8,0,1.8,0.1,2.1,0.1
		c0.1,0,0.2,0,0.2-0.1c0-0.1-0.2-0.2-0.5-0.3c-0.5-0.2-0.8-0.5-1.2-1.7c-1-2.7-2.7-7.2-3.7-9.9c-0.1-0.3-0.1-0.4-0.1-0.5
		c0-0.2,0.1-0.3,0.1-0.4c0-0.1-0.1-0.2-0.1-0.2c-0.1,0-1,0.4-2.5,0.5c-0.1,0-0.2,0.1-0.2,0.2c0,0.1,0.1,0.1,0.3,0.2
		c0.4,0.2,0.5,0.3,0.5,0.4c0,0.1-0.1,0.3-0.2,0.6c-0.7,2.1-2,5.6-3.2,8.6c-0.7,1.7-0.9,2-1.7,2.3c-0.2,0-0.3,0.1-0.3,0.2
		c0,0.1,0.1,0.1,0.2,0.1c0.1,0,0.8-0.1,1.3-0.1c0.7,0,1.6,0.1,1.8,0.1C485.8,408.6,485.8,408.6,485.8,408.5z M485.5,403.7
		c0.7-2,1.7-4.6,2.5-6.8c0-0.1,0-0.1,0.1-0.1c0,0,0,0,0.1,0.1c0.5,1.4,1.6,4.4,2.5,6.8c0,0.1,0,0.1,0,0.2c0,0.1-0.1,0.1-0.2,0.1
		c-0.4,0-1.4,0.1-2.7,0.1c-1.4,0-2,0-2.2-0.1c-0.1,0-0.1,0-0.1-0.1C485.5,403.9,485.5,403.8,485.5,403.7z"/>
	<path class="st1" d="M509.8,395.8c-0.2,0-0.8,0.2-5.5,0.2s-5.3-0.2-5.5-0.2c-0.1,0-0.1,0-0.1,0.1c0,0.1,0.2,0.3,0.2,0.9
		c0,1.1-0.1,2.6-0.1,2.8c0,0.1,0.1,0.2,0.1,0.2c0.1,0,0.2-0.1,0.2-0.3c0.5-3,0.8-3.2,2.5-3.2c1,0,1.4,0.1,1.6,0.4
		c0.2,0.3,0.2,0.8,0.2,6.3l0,3.2c0,1.7-0.1,1.9-1.2,2.2c-0.2,0.1-0.3,0.1-0.3,0.2c0,0.1,0.1,0.1,0.1,0.1c0.2,0,1.4-0.1,2.2-0.1
		c0.7,0,2,0.1,2.2,0.1c0.1,0,0.1,0,0.1-0.1c0-0.1-0.1-0.1-0.3-0.2c-1.2-0.2-1.2-0.4-1.2-2.2l0-3.2c0-5.5,0-6,0.2-6.3
		c0.2-0.3,0.6-0.4,1.6-0.4c1.7,0,2.1,0.2,2.5,3.2c0,0.3,0.1,0.3,0.2,0.3c0.1,0,0.1-0.1,0.1-0.2c0-0.2-0.1-1.7-0.1-2.8
		c0-0.6,0.2-0.7,0.2-0.9C509.9,395.8,509.8,395.8,509.8,395.8z"/>
	<path class="st1" d="M293.4,436.5c1.8-0.5,2.4-0.6,2.4-1.5c0-0.6-0.3-1-1-1c-0.1,0-0.3,0-0.4,0c-0.4,0.1-1.4,0.2-2.7,0.5
		c-6.7,1.1-10.7,1-12,1c-12.3-1.4-23.9-5.2-34.2-11c2.2-5.5,4.4-11,6.7-16.7c4.9-12.1,9.2-16.1,15.5-17.5c2.1-0.5,2.7-0.9,2.7-2.2
		c0-1-0.8-1.5-2.1-1.5c-1.1,0-7.2,1.3-12.6,1.3c-6.5,0-15.4-1.3-17.2-1.3c-1.3,0-1.9,0.4-1.9,1.5c0,1,0.9,1.1,3.1,2
		c5.5,2,9,5.6,9,11.5c0,2.1-0.4,4.9-1.7,8.6c-1.2,3.4-2.8,7.7-4.6,12.6c-25.8-15.9-43-44.5-43-77c0-36.1,21.2-67.3,51.7-81.8
		c0.3,8.7,0.3,20.9,0.3,38c0,59.4-0.5,62.7-9.1,65.4c-2.6,0.8-3.6,1.3-3.6,2.5c0,1,0.2,1.3,1.5,1.3c1,0,8.8-1,14.5-1
		c6,0,20.6,1.3,32.2,1.3c31.8,0,52.5-14.5,52.5-37.1c0-13-6.9-20.5-16.9-25.8c-9.6-5-22.1-6.9-34.2-6.9h0.9v-0.6
		c26.2-1.4,41.6-15,41.6-33.2c0-10.1-4.6-18.8-13-24.2c-8.5-5.2-20.5-7.3-35.1-7.3c-9.8,0-21.1,1.9-28.3,1.9c-5.2,0-13-1.5-14.4-1.5
		c-1.1,0-1.5,0.4-1.5,1.3c0,1.3,0.5,1.5,3.8,2.5c5.6,1.8,7.7,3.5,8.4,20.5c-34.5,12.7-59.2,45.9-59.2,84.9c0,35.1,20,65.5,49.3,80.5
		c-9,23.5-23.1,59.1-33.6,86c-0.1,0.2-0.2,0.3-0.3,0.3c-0.1,0-0.2-0.1-0.3-0.3c-7.7-21.4-39.9-104-39.9-112.7c0-5,2.5-7.1,7.8-8.6
		c5.4-1.5,6.5-1.7,6.5-2.9c0-1.3-1.3-1.5-2.1-1.5c-3,0-13,1.5-18.3,1.5c-6,0-16.1-1.5-18.6-1.5c-1,0-1.9,0.4-1.9,1.5
		c0,1.5,1.1,1.8,4.5,2.8c6.6,2,11.6,6.4,16.2,18.8c9.7,25.9,26.8,71.4,41.8,114.8c0.2,0.6,0.6,1.3,1.9,1.3c0.8,0,1.6-0.5,1.9-1.3
		c11.8-31.1,23.9-62.3,37.5-96.6c8.3,3.9,17.4,6.5,26.8,7.7l0.1,0c0,0,0.2,0,0.5,0c0.6,0.1,1.2,0.2,1.9,0.2c3.4,0.5,9.2,1.8,9.7,5.4
		c0.1,0.5,0.2,0.9,0.3,1.3c0.8,5.5,0.7,16.1,0.7,36.6c0,37.1,0.3,42.8-4.3,44.2c-1.8,0.5-2.4,0.8-2.4,1.6c0,0.6,0.3,0.9,1,0.9
		c1,0,5-0.9,8.1-0.9c3.1,0,7.1,0.9,8.1,0.9c0.7,0,1-0.3,1-0.9c0-0.9-0.6-1.1-2.4-1.6c-4.6-1.3-4.3-7.1-4.3-44.2
		C289.1,443.9,288.8,437.9,293.4,436.5z M258.6,260.7c8.5-3.1,17.6-5.1,27.1-5.5c-1.1-0.1-2.2-0.1-3.3-0.1c-8.2,0-16.2,1.1-23.8,3.2
		v-8.4c0-3.5,0.4-6.1,2.2-7.8c2.3-2.2,12.6-3.1,21.3-3.1c8.8,0,16.2,1,22.1,3l1.3,22.3l0.9-21.5c10.2,4.3,15.5,12.2,15.5,24.8
		c0,21.3-13.3,32-46.1,32c-16.2,0-17.2-0.6-17.2-6.4V260.7z M258.6,331.8v-18.5c0-8.7,2.1-10,17.9-10l1.2,20.9l0.9-20.9
		c29.9,0.1,51.5,6.6,51.5,31c0,25.2-18.4,34-44,34c-16,0-23.8-1.5-25.9-4C258.2,361.9,258.6,354.3,258.6,331.8z"/>
	<path class="st1" d="M485.1,333.6c-0.1,0.2-0.2,0.4-0.2,0.6c-0.3,1.8-0.3,3.6-0.2,5.4c0,0.4,0.1,0.7,0.2,1.1
		c0.1,0.4,0.3,0.4,0.5,0.1c0.2-0.2,0.3-0.5,0.3-0.8c0.3-2,0.1-3.9-0.3-5.9c0-0.2-0.2-0.3-0.2-0.5
		C485.2,333.6,485.2,333.6,485.1,333.6z"/>
	<path class="st1" d="M277.2,346.1c0.1,0.4,0.3,0.4,0.5,0.1c0.2-0.2,0.3-0.5,0.3-0.8c0.3-2,0.1-3.9-0.3-5.9c0-0.2-0.2-0.3-0.2-0.5
		c0,0-0.1,0-0.1,0c-0.1,0.2-0.2,0.4-0.2,0.6c-0.3,1.8-0.3,3.6-0.2,5.4C277,345.4,277.1,345.8,277.2,346.1z"/>
	<path class="st1" d="M427.9,524.1c0,0-0.1,0-0.1,0c-0.1,0.2-0.2,0.4-0.2,0.6c-0.3,1.8-0.3,3.6-0.2,5.4c0,0.4,0.1,0.7,0.2,1.1
		c0.1,0.4,0.3,0.4,0.5,0.1c0.2-0.2,0.3-0.5,0.3-0.8c0.3-2,0.1-3.9-0.3-5.9C428.1,524.4,428,524.2,427.9,524.1z"/>
	<path class="st1" d="M635.5,392.2c0.4,0.1,0.5,0.2,0.6,0.6c0.2,1.7,0.5,3.4,0.7,5.1c0.1,1,0.3,1.9,0.4,2.9c0.1-0.1,0.2-0.3,0.2-0.4
		c0.4-2.5,0.7-4.9,1.1-7.4c0.1-0.5,0.2-0.6,0.7-0.7c2.3-0.3,4.6-0.7,6.9-1c0.3,0,0.6-0.1,0.9-0.2c-2.6-0.5-5.2-0.9-7.8-1.3
		c-0.5-0.1-0.7-0.3-0.7-0.7c-0.3-2.5-0.7-4.9-1.1-7.4c0-0.1-0.1-0.3-0.1-0.4c0,0,0,0-0.1,0c0,0.2-0.1,0.3-0.1,0.5
		c-0.4,2.5-0.7,5-1.1,7.4c0,0.3-0.1,0.5-0.5,0.5c-1.7,0.2-3.4,0.5-5.1,0.7c-1,0.1-1.9,0.3-2.9,0.4c0.1,0.1,0.2,0.2,0.4,0.2
		C630.5,391.5,633,391.9,635.5,392.2z"/>
	<path class="st1" d="M368.7,249.8c0.2,0,0.4,0.1,0.4,0.4c0.1,1.1,0.3,2.2,0.5,3.3c0.1,0.6,0.2,1.3,0.3,1.9c0.1-0.1,0.1-0.2,0.1-0.3
		c0.2-1.6,0.5-3.3,0.7-4.9c0-0.3,0.1-0.4,0.5-0.5c1.5-0.2,3.1-0.4,4.6-0.7c0.2,0,0.4-0.1,0.6-0.1c-1.7-0.3-3.4-0.6-5.2-0.8
		c-0.3,0-0.4-0.2-0.5-0.5c-0.2-1.6-0.5-3.3-0.7-4.9c0-0.1,0-0.2-0.1-0.3c0,0,0,0,0,0c0,0.1,0,0.2-0.1,0.3c-0.2,1.6-0.5,3.3-0.7,4.9
		c0,0.2-0.1,0.3-0.3,0.4c-1.1,0.2-2.3,0.3-3.4,0.5c-0.6,0.1-1.3,0.2-1.9,0.3c0.1,0.1,0.2,0.1,0.2,0.1
		C365.4,249.4,367.1,249.6,368.7,249.8z"/>
	<path class="st1" d="M255.6,482.3c-0.3-2.5-0.7-4.9-1.1-7.4c0-0.1-0.1-0.3-0.1-0.4c0,0,0,0-0.1,0c0,0.2-0.1,0.3-0.1,0.5
		c-0.4,2.5-0.7,5-1.1,7.4c0,0.3-0.1,0.5-0.5,0.5c-1.7,0.2-3.4,0.5-5.1,0.7c-1,0.1-1.9,0.3-2.9,0.4c0.1,0.1,0.2,0.2,0.4,0.2
		c2.5,0.4,5,0.7,7.6,1.1c0.4,0.1,0.5,0.2,0.6,0.6c0.2,1.7,0.5,3.4,0.7,5.1c0.1,1,0.3,1.9,0.4,2.9c0.1-0.1,0.2-0.3,0.2-0.4
		c0.4-2.5,0.7-4.9,1.1-7.4c0.1-0.5,0.2-0.6,0.7-0.7c2.3-0.3,4.6-0.7,6.9-1c0.3,0,0.6-0.1,0.9-0.2c-2.6-0.5-5.2-0.9-7.8-1.3
		C255.9,482.9,255.7,482.7,255.6,482.3z"/>
	<path class="st1" d="M346.6,295.7c1.4,0,1.4-2.1,0-2.1C345.2,293.6,345.2,295.7,346.6,295.7z"/>
	<path class="st1" d="M201.6,431.5c-1.4,0-1.4,2.1,0,2.1C203,433.6,203,431.5,201.6,431.5z"/>
	<path class="st1" d="M399.6,445.9c1.4,0,1.4-2.1,0-2.1C398.3,443.8,398.3,445.9,399.6,445.9z"/>
	<path class="st1" d="M567.4,398.3c-1.4,0-1.4,2.1,0,2.1C568.7,400.4,568.7,398.3,567.4,398.3z"/>
	<path class="st1" d="M615.7,326c1.4,0,1.4-2.1,0-2.1C614.3,323.9,614.3,326,615.7,326z"/>
	<path class="st1" d="M528.5,312.3c1.4,0,1.4-2.1,0-2.1C527.1,310.2,527.1,312.3,528.5,312.3z"/>
	<path class="st1" d="M620.4,457.8c1.4,0,1.4-2.1,0-2.1C619.1,455.6,619.1,457.8,620.4,457.8z"/>
	<path class="st1" d="M422.8,257.3c1.4,0,1.4-2.1,0-2.1C421.5,255.2,421.5,257.3,422.8,257.3z"/>
	<path class="st1" d="M538.8,468.6c0,0-0.1,0-0.1,0c-0.1,0.2-0.2,0.4-0.2,0.6c-0.3,1.8-0.3,3.6-0.2,5.4c0,0.4,0.1,0.7,0.2,1.1
		c0.1,0.4,0.3,0.4,0.5,0.1c0.2-0.2,0.3-0.5,0.3-0.8c0.3-2,0.1-3.9-0.3-5.9C538.9,468.9,538.8,468.7,538.8,468.6z"/>
	<path class="st1" d="M469.3,434c-0.1,0.2-0.2,0.4-0.2,0.6c-0.3,1.8-0.3,3.6-0.2,5.4c0,0.4,0.1,0.7,0.2,1.1c0.1,0.4,0.3,0.4,0.5,0.1
		c0.2-0.2,0.3-0.5,0.3-0.8c0.3-2,0.1-3.9-0.3-5.9c0-0.2-0.2-0.3-0.2-0.5C469.3,434,469.3,434,469.3,434z"/>
</g>
</svg>
