<?xml version="1.0" encoding="utf-8"?>
<!-- Generator: Adobe Illustrator 24.2.1, SVG Export Plug-In . SVG Version: 6.00 Build 0)  -->
<svg version="1.1" id="Layer_1" xmlns="http://www.w3.org/2000/svg" xmlns:xlink="http://www.w3.org/1999/xlink" x="0px" y="0px"
	 viewBox="0 0 800 800" style="enable-background:new 0 0 800 800;" xml:space="preserve">
<style type="text/css">
	.st0{fill-rule:evenodd;clip-rule:evenodd;fill:#133256;}
	.st1{fill:#CEA66E;}
	.st2{fill:#F7F7F7;}
</style>
<rect x="-0.4" y="-0.5" class="st0" width="801.5" height="801.5"/>
<g>
	<g>
		<path class="st1" d="M385.9,276v70.3c0,0.4-0.4,0.4-0.4,0.4h-10.6c-0.4,0-0.4-0.4-0.4-0.4V276c0-0.4,0.4-0.4,0.4-0.4h10.6
			C385.5,275.6,385.9,275.6,385.9,276z"/>
		<path class="st1" d="M456.1,320.6c2.9,4.5,4.1,9.8,4.1,15.5c0,2.5-0.4,5.3-0.8,7.8c-0.8,2.9-1.6,5.3-3.3,7.8
			c-2.5,4.5-6.5,8.6-11,11c-4.5,2.9-10.2,4.1-15.5,4.1h-66.2c-9.4,0-18-6.1-21.2-15.1c-0.8-2.5-1.2-4.9-1.2-7.4
			c0-11.4,8.2-20.4,19.2-22.1c0.4,0,0.8,0,1.2,0h4.5c0.4,0,0.4,0.4,0.4,0.4v10.6c0,0.4-0.4,0.4-0.4,0.4H363
			c-5.7,0-10.6,4.5-10.6,10.2v0.4c0,5.7,5.3,10.6,11,10.6h66.2c6.9,0,13.1-3.7,16.3-9.4c1.6-2.9,2.5-6.1,2.5-9.4
			c0-10.6-8.6-19.2-19.2-19.2h-22.5v29.4c0,0.4-0.4,0.4-0.4,0.4h-10.6c-0.4,0-0.4-0.4-0.4-0.4V276c0-0.4,0.4-0.4,0.4-0.4h10.6
			c0.4,0,0.4,0.4,0.4,0.4v29.4h22.5c10.6,0,19.2-8.6,19.2-19.2c0-3.3-0.8-6.5-2.5-9.4c-3.3-5.7-9.8-9.4-16.3-9.4h-66.2
			c-5.7,0-11,4.5-11,10.6v0.4c0,5.7,4.9,10.2,10.6,10.2h2.9c0.4,0,0.4,0.4,0.4,0.4v10.6c0,0.4-0.4,0.4-0.4,0.4h-4.5
			c-0.4,0-0.8,0-1.2,0c-11-1.6-19.2-11-19.2-22.1c0-2.5,0.4-4.9,1.2-7.4c3.3-9,11.4-15.1,21.2-15.1h66.2c5.3,0,11,1.6,15.5,4.1
			c4.5,2.9,8.2,6.5,11,11c1.2,2.5,2.5,4.9,3.3,7.8c0.8,2.5,0.8,4.9,0.8,7.8c0,5.3-1.2,10.6-4.1,15.5c-1.6,2.9-3.7,5.3-6.1,7.8l-2,2
			l2,2C452.5,315.3,454.5,317.7,456.1,320.6z"/>
	</g>
	<g>
		<g>
			<polygon class="st1" points="331.1,544.9 331.1,529.7 335.2,529.7 335.2,541.6 340.5,541.6 340.5,544.9 			"/>
		</g>
		<g>
			<path class="st1" d="M396.5,529.7h-3.7l-6.1,15.1h4.1l0.8-2.5h6.1l0.8,2.5h4.1L396.5,529.7z M392.4,539.5l2-6.1l2,6.1H392.4z"/>
		</g>
		<g>
			<polygon class="st1" points="461.9,544.9 458.6,537.1 455.7,544.9 452.1,544.9 447.6,529.7 451.2,529.7 454.1,539.5 458.2,529.7 
				459.4,529.7 463.5,539.5 466,529.7 470,529.7 465.1,544.9 			"/>
		</g>
	</g>
	<g>
		<g>
			<path class="st2" d="M216.7,481.9c-1.6-2-3.7-3.7-6.1-4.9c-1.6-0.8-3.7-1.2-5.7-1.6c-0.4,0-0.8-0.8,0-1.2
				c1.2-0.4,2.5-0.8,3.7-1.6c2-1.2,3.7-2.9,4.9-5.3c1.2-2,1.6-4.5,1.6-7.4s-0.8-5.7-2-7.8c-1.6-2-4.1-3.7-7.4-4.5
				c-3.3-1.2-8.2-1.6-13.9-1.6h-25.7c-0.4,0-0.4,0.4-0.4,0.4v5.3c0,0.4,0,0.4,0.4,0.4l5.3,0.8c0.4,0,0.4,0.4,0.4,0.4v47.8
				c0,0.4,0,0.4-0.4,0.4l-6.5,1.6c-0.4,0-0.4,0.4-0.4,0.4v4.9c0,0.4,0.4,0.4,0.4,0.4h27c18,0,27-6.5,27-19.2
				C218.8,486.8,218,484.4,216.7,481.9z M200.8,500.3c-2,2-4.9,3.3-9.4,3.3c-3.3,0-5.3,0-6.1-0.4c-0.4,0-0.4-0.4-0.4-0.4v-22.9l0,0
				v-27c0-0.4,0-0.4,0.4-0.4s1.2,0,2-0.4c1.2,0,2.5,0,3.3,0c3.7,0,6.1,0.8,7.8,2.5c1.6,1.6,2.5,4.1,2.5,7.8c0,3.7-0.8,6.5-2,8.6
				c-1.6,2-3.7,2.9-6.9,2.9h-0.4c-0.4,0-0.4,0.4-0.4,0.4v5.3c0,0.4,0.4,0.4,0.4,0.4h1.2c2.9,0,4.9,0.4,6.5,1.2
				c1.6,0.8,2.9,2,3.7,3.7c0.8,1.6,1.2,4.1,1.2,6.5C203.7,495,202.9,498.3,200.8,500.3z"/>
			<path class="st2" d="M288.7,502.8c-0.8,0-1.6-0.8-2-2c-0.8-1.2-1.6-3.3-2.9-5.7c-1.2-2.5-2.5-4.9-3.3-6.5c-0.8-1.6-2-3.7-3.7-4.9
				c-1.2-1.2-2-2-3.3-2.9c-0.4-0.4-0.4-0.8,0-0.8c2-0.8,4.1-2,5.3-3.7c1.6-1.6,3.3-3.7,4.1-6.1s1.2-4.5,1.2-6.9
				c0-4.1-0.8-6.9-2.5-9.4c-1.6-2.5-4.1-4.1-7.8-5.3c-3.7-1.2-8.2-1.6-14.3-1.6h-26.1c-0.4,0-0.4,0.4-0.4,0.4v5.3
				c0,0.4,0,0.4,0.4,0.4l5.3,0.8c0.4,0,0.4,0.4,0.4,0.4V502c0,0.4,0,0.4-0.4,0.4l-5.3,0.8c-0.4,0-0.4,0.4-0.4,0.4v4.5
				c0,0.4,0.4,0.4,0.4,0.4h26.6c0.4,0,0.4-0.4,0.4-0.4v-4.5c0-0.4-0.4-0.4-0.4-0.4l-6.5-0.8c-0.4,0-0.4-0.4-0.4-0.4v-49.4
				c0-0.4,0-0.4,0.4-0.4c1.2-0.4,2.9-0.4,4.9-0.4c3.7,0,6.5,0.8,8.2,2.9c1.6,2,2.5,4.9,2.5,8.6c0,4.5-0.8,7.8-2.5,10.2
				c-1.6,2-4.1,3.3-6.9,3.3h-0.4c-0.4,0-0.4,0.4-0.4,0.4v4.5c0,0.4,0.4,0.4,0.4,0.4h1.2c0,0,0,0,0.4,0c0.8,0.4,2,1.6,2.9,2.9
				c0.8,1.6,1.6,3.3,2.5,5.3c0.8,2,1.6,4.5,2.9,7.4c1.2,3.7,2.5,6.5,3.3,8.6c0.8,1.6,1.6,2.9,2.5,2.9h15.5c0.4,0,0.4-0.4,0.4-0.4
				V504c0-0.4,0-0.4-0.4-0.4L288.7,502.8z"/>
			<path class="st2" d="M352,454.2c-4.5-5.3-11.4-8.2-21.2-8.2c-5.7,0-11,1.2-15.1,3.7c-4.1,2.5-7.8,6.1-10.2,11
				c-2.5,4.9-3.7,10.2-3.7,16.7s0.8,11.8,2.9,16.3s4.9,8.2,9,11c4.1,2.5,9.4,3.7,15.5,3.7c5.7,0,11-1.2,15.5-4.1
				c4.5-2.9,7.8-6.5,10.2-11.4c2.5-4.9,3.7-10.6,3.7-17.2C358.9,467.2,356.5,459.5,352,454.2z M341.8,491.3c-1.2,4.1-2.5,6.9-4.5,9
				c-2,2-4.5,2.9-6.9,2.9c-4.1,0-7.4-2-9.8-6.5c-2.5-4.1-3.3-10.6-3.3-19.2s1.2-15.1,3.3-19.2c2.5-4.1,5.7-6.5,9.8-6.5
				s7.4,2,9.8,6.1c2.5,4.1,3.3,10.2,3.3,18.8C343.4,482.8,343,487.7,341.8,491.3z"/>
			<path class="st2" d="M421.8,454.2c-4.5-5.3-11.4-8.2-21.2-8.2c-5.7,0-11,1.2-15.1,3.7c-4.5,2.5-7.8,6.1-10.2,11
				c-2.5,4.9-3.7,10.2-3.7,16.7s0.8,11.8,2.9,16.3s4.9,8.2,9,11c4.1,2.5,9.4,3.7,15.5,3.7c5.7,0,11-1.2,15.5-4.1
				c4.5-2.9,7.8-6.5,10.2-11.4c2.5-4.9,3.7-10.6,3.7-17.2C428.8,467.2,426.3,459.5,421.8,454.2z M412,491.3c-1.2,4.1-2.5,6.9-4.5,9
				c-2,2-4.5,2.9-6.9,2.9c-4.1,0-7.4-2-9.8-6.5c-2.5-4.1-3.3-10.6-3.3-19.2s1.2-15.1,3.3-19.2c2.5-4.1,5.7-6.5,9.8-6.5
				s7.4,2,9.8,6.1c2.5,4.1,3.3,10.2,3.3,18.8C413.3,482.8,412.8,487.7,412,491.3z"/>
			<path class="st2" d="M499.5,502.4L499.5,502.4c-0.8-0.4-1.6-1.2-2.9-3.3c-1.2-1.6-2.9-4.5-4.9-8.2c-2.9-5.3-5.7-9.4-7.8-12.7
				c-2-3.3-4.1-5.3-5.7-7.4c-0.4-0.4-0.4-0.4,0-0.8l14.7-16.7c0,0,0,0,0.4,0l6.5-1.2c0.4,0,0.4-0.4,0.4-0.4v-4.9
				c0-0.4-0.4-0.4-0.4-0.4h-22.5c-0.4,0-0.4,0.4-0.4,0.4v4.9c0,0.4,0,0.4,0.4,0.4l5.3,0.8c0.4,0,0.4,0.4,0.4,0.8l-19.2,24.5
				c-0.4,0.4-0.8,0-0.8-0.4v-24.1c0-0.4,0-0.4,0.4-0.4l5.3-0.8c0.4,0,0.4-0.4,0.4-0.4v-4.9c0-0.4-0.4-0.4-0.4-0.4h-25.3
				c-0.4,0-0.4,0.4-0.4,0.4v4.9c0,0.4,0,0.4,0.4,0.4l5.7,0.8c0.4,0,0.4,0.4,0.4,0.4V502c0,0.4,0,0.4-0.4,0.4l-5.7,0.8
				c-0.4,0-0.4,0.4-0.4,0.4v4.5c0,0.4,0.4,0.4,0.4,0.4H470c0.4,0,0.4-0.4,0.4-0.4v-4.5c0-0.4-0.4-0.4-0.4-0.4l-6.1-0.8
				c-0.4,0-0.4-0.4-0.4-0.4v-13.5v-0.4l6.1-7.4c0.4-0.4,0.8-0.4,0.8,0c1.2,1.6,2,3.3,3.3,5.3c1.2,2.5,2.9,5.3,4.9,9.4
				c2.5,4.5,4.1,8.2,5.3,10.2c1.2,2,2.5,3.3,3.3,3.3h15.9c0.4,0,0.4-0.4,0.4-0.4V504c0-0.4,0-0.4-0.4-0.4L499.5,502.4z"/>
			<path class="st2" d="M558.7,492.2l-4.9,10.2l-0.4,0.4h-17.6c-0.4,0-0.4-0.4-0.4-0.4v-49c0-0.4,0.4-0.4,0.4-0.4h15.5
				c0.4,0,0.4,0,0.4,0.4l2.5,7.8c0,0.4,0.4,0.4,0.4,0.4h5.7c0.4,0,0.4-0.4,0.4-0.4l-1.2-13.5c0-0.4-0.4-0.4-0.4-0.4h-44.5
				c-0.4,0-0.4,0.4-0.4,0.4v4.9c0,0.4,0,0.4,0.4,0.4l5.7,1.2c0.4,0,0.4,0.4,0.4,0.4v48.2c0,0.4,0,0.4-0.4,0.4L515,504
				c-0.4,0-0.4,0.4-0.4,0.4v4.5c0,0.4,0.4,0.4,0.4,0.4h47.8c0.4,0,0.4-0.4,0.4-0.4l2-14.7c0-0.4,0-0.4-0.4-0.8l-6.1-1.6
				C558.7,491.7,558.7,491.7,558.7,492.2z M546.8,467.2l-1.2,6.1c0,0.4-0.4,0.4-0.4,0.4h-3.7c-0.4,0-0.4,0.4-0.4,0.4v5.7
				c0,0.4,0.4,0.4,0.4,0.4h4.1c0.4,0,0.4,0,0.4,0.4l1.2,6.5c0,0.4,0.4,0.4,0.4,0.4h4.9c0.4,0,0.4-0.4,0.4-0.4v-20
				c0-0.4-0.4-0.4-0.4-0.4h-4.9C547.3,466.8,546.8,467.2,546.8,467.2z"/>
			<path class="st2" d="M634.3,502.8c-0.8,0-1.6-0.8-2-2c-0.8-1.2-1.6-3.3-2.9-5.7c-1.2-2.5-2.5-4.9-3.3-6.5c-0.8-1.6-2-3.7-3.7-4.9
				c-1.2-1.2-2-2-3.3-2.9c-0.4-0.4-0.4-0.8,0-0.8c2-0.8,4.1-2,5.3-3.7c1.6-1.6,3.3-3.7,4.1-6.1c0.8-2.5,1.2-4.5,1.2-6.9
				c0-4.1-0.8-6.9-2.5-9.4c-1.6-2.5-4.1-4.1-7.8-5.3s-8.2-1.6-14.3-1.6h-26.1c-0.4,0-0.4,0.4-0.4,0.4v5.3c0,0.4,0,0.4,0.4,0.4
				l5.3,0.8c0.4,0,0.4,0.4,0.4,0.4V502c0,0.4,0,0.4-0.4,0.4l-5.3,0.8c-0.4,0-0.4,0.4-0.4,0.4v4.5c0,0.4,0.4,0.4,0.4,0.4h26.6
				c0.4,0,0.4-0.4,0.4-0.4v-4.5c0-0.4-0.4-0.4-0.4-0.4l-6.5-0.8c-0.4,0-0.4-0.4-0.4-0.4v-49.4c0-0.4,0-0.4,0.4-0.4
				c1.2-0.4,2.9-0.4,4.9-0.4c3.7,0,6.5,0.8,8.2,2.9c1.6,2,2.5,4.9,2.5,8.6c0,4.5-0.8,7.8-2.5,10.2c-1.6,2-4.1,3.3-6.9,3.3h-0.4
				c-0.4,0-0.4,0.4-0.4,0.4v4.5c0,0.4,0.4,0.4,0.4,0.4h1.2c0,0,0,0,0.4,0c0.8,0.4,2,1.6,2.9,2.9c0.8,1.6,1.6,3.3,2.5,5.3
				c0.8,2,1.6,4.5,2.9,7.4c1.2,3.7,2.5,6.5,3.3,8.6c0.8,1.6,1.6,2.9,2.5,2.9h15.5c0.4,0,0.4-0.4,0.4-0.4V504c0-0.4,0-0.4-0.4-0.4
				L634.3,502.8z"/>
		</g>
		<g>
			<rect x="381.4" y="409.6" class="st2" width="38.8" height="3.7"/>
		</g>
	</g>
</g>
</svg>
