<?xml version="1.0" encoding="utf-8"?>
<!-- Generator: Adobe Illustrator 24.2.1, SVG Export Plug-In . SVG Version: 6.00 Build 0)  -->
<svg version="1.1" id="Layer_1" xmlns="http://www.w3.org/2000/svg" xmlns:xlink="http://www.w3.org/1999/xlink" x="0px" y="0px"
	 viewBox="0 0 800 800" style="enable-background:new 0 0 800 800;" xml:space="preserve">
<style type="text/css">
	.st0{fill-rule:evenodd;clip-rule:evenodd;fill:#E1E1E1;}
	.st1{fill:#666666;}
</style>
<rect x="-0.4" y="-0.5" class="st0" width="801.5" height="801.5"/>
<g>
	<path class="st1" d="M506.1,332.5c-4.1-3.7-11.1,0.4-15.7,1.2c-5.8,0.8-11.6,0.4-17.3-1.2c-3.3-1.2-12-5-13.2-8.7
		c-0.8-1.7,0-5.4,0-7c0-4.1-0.4-4.5,2.9-7c2.5-2.1,3.7-4.5,5.8-6.6c2.9-2.5,7.4-4.1,10.7-5.8c1.7-0.8,5.4-1.7,5.4-3.7
		c0-2.5-5-4.1-6.6-5.4c-2.1-1.2-6.6-2.9-7.4-4.5c-0.8-1.2-0.8-4.1-1.2-5.8c-2.1-5-5.4-9.1-10.3-11.1c-3.3-1.7-7-1.7-9.5-3.7
		c-3.7-3.3-6.2-7.8-9.9-11.6c-3.7-3.3-7.8-6.2-12.4-8.7c-18.2-9.5-40.5-9.1-58.6,0.8c-16.5,9.1-28.1,25.6-31,44.2
		c-1.2,8.3-0.8,17.3-0.8,26c0,13.6,0,26.8,0,40.5c0,6.2,0,12,0,18.2c0,2.9,0.8,7.8,0,10.7c-0.8,2.5-3.3,2.9-5.4,4.5
		c-4.5,2.5-14,5.8-15.7,11.1c-1.7,5,0.4,13.2,1.2,18.2c1.2,7,3.7,13.6,6.6,19.8c4.5,9.5,11.6,21.1,20.6,27.2
		c5.8,4.1,5.8-1.7,5.8-5.8c0-5.8,1.7-11.1,3.3-16.5c0.4-0.8,1.7-1.2,2.5-0.4c23.1,21.9,60.3,22.7,84.2,0.8c5.4-5,9.9-10.7,13.2-17.3
		c3.7-7,4.1-14,6.6-21.5c0.8-2.5,1.2-2.9,3.3-4.5c1.7-1.2,3.3-2.5,4.5-4.1c3.3-3.3,6.2-7,8.3-11.1c1.2-2.1,1.7-4.5,2.9-6.6
		c2.1-2.9,5.4-5.4,7.8-8.7c2.5-3.3,4.1-7.8,7-10.7c3.3-3.3,7-5.8,9.5-9.5C506.1,343.6,510.6,336.6,506.1,332.5z M355,412.5
		c-7.8,6.6-12.4,16.5-14,26.4c-3.7-5-6.6-10.3-8.3-16.5c-1.2-3.7-1.7-7.8-1.7-11.6c0-4.1-0.4-6.6,2.9-9.1
		c10.7-8.3,21.1-18.2,28.9-29.3c9.1-12.8,12.8-25.6,16.1-40.5c2.9-13.6,10.7-24.4,21.9-33c3.7-2.9,3.3-4.5,2.1-9.1
		c-1.2-4.1-1.7-8.3-1.7-12.4c0-4.5,0.8-8.7,2.1-12.8c0.4-0.8,4.1-8.7,3.7-9.1c-2.9-2.1-20.2,24.4-21.9,27.7
		c-4.5,7.8-7.8,16.5-10.3,25.6c-6.2,22.3-12.4,43.3-25.6,62.8c0-19.8,0-39.6,0-59.4c0-8.3-0.8-16.9,1.2-25.2
		c3.7-16.9,16.5-31,33-36.3c19-6.2,40,0.4,54.5,14c-35.9,15.3-33.9,59-36.7,91.7c-1.2,12.4-1.7,27.2-8.3,38.4
		C383.9,408,366.1,403,355,412.5z M460.2,355.6c-2.5,0-5-0.4-7.4-0.8c-2.1-0.4-5-2.1-7-1.7c-4.1,0.4,1.2,5.8,2.9,7.8
		c6.2,6.2,15.7,7.8,23.5,5c-5,5-11.6,8.3-18.6,9.5c-7.4,1.2-13.2-0.8-20.2-1.2c-3.3-0.4-2.9,0.4-1.2,3.3c1.7,2.5,4.1,5,6.6,6.6
		c5.4,3.3,12,4.5,18.2,3.7c-7.8,7-18.2,9.9-28.5,9.1c-2.1,0-8.3-2.9-9.9-2.1c-2.9,1.2,3.7,6.2,5,7.4c6.2,4.5,12,8.3,12.8,16.5
		c0.8,8.3-3.7,14.4-10.3,18.6c-15.7,10.7-36.3,11.6-52.8,2.1c-5.4-3.3-12.8-9.1-7.4-15.7c3.3-4.5,10.7-2.9,15.7-4.1
		c35.9-9.1,30.6-60.3,32.6-87.9c1.2-15.3,3.7-33.4,13.6-45.8c3.7-5,9.1-8.3,15.3-9.1c9.1-0.8,17.3,4.1,16.9,14
		c-0.4,4.5-2.5,8.7-5.8,11.1c-4.1,3.3-7.8,2.5-12.4,3.7c-8.3,2.5-2.9,12,0,16.5c10.3,15.7,26.8,26.4,46.2,25.2
		C480.1,352.3,470.2,355.6,460.2,355.6z"/>
	<path class="st1" d="M441.3,294.5c5.4,0.8,6.6-7.8,1.2-8.7C436.7,285,435.5,293.6,441.3,294.5z"/>
	<path class="st1" d="M384.3,369.6c8.3-2.9,10.3-13.6,8.7-21.1c-6.2,7-12.8,13.6-19,20.6C377.3,370.4,381,370.8,384.3,369.6z"/>
	<path class="st1" d="M242.3,533.9c-15.3,0-26.8-11.1-26.8-26.4s11.6-26.4,26.8-26.4c13.2,0,23.5,8.7,25.6,21.5h-14
		c-1.7-5.4-6.2-8.7-11.6-8.7c-7,0-12.4,5.8-12.4,13.6s5.4,13.6,12.4,13.6c5.8,0,9.9-3.7,11.6-9.1h14
		C266.2,524.8,255.9,533.9,242.3,533.9L242.3,533.9z"/>
	<path class="st1" d="M302.1,524.4h-17.8l-2.9,8.3h-14.9l19.8-50.4h13.6l20.2,50.4H305L302.1,524.4z M293,498l-5.4,15.7h11.1
		L293,498z"/>
	<path class="st1" d="M369,482.3v50.4h-11.1L338,505.4v27.2h-13.6v-50.4h12l19.4,26.4v-26.4H369z"/>
	<path class="st1" d="M416.1,494.7h-13.6v38h-14v-38h-13.6v-12.4h41.3L416.1,494.7L416.1,494.7z"/>
	<path class="st1" d="M440.4,517.4h-5v15.3h-14v-50.4h21.9c10.7,0,18.6,7.4,18.6,17.8c0,6.2-2.9,11.1-7.8,14l9.9,18.2h-15.3
		L440.4,517.4z M435.5,505.4h6.2c3.7,0,6.2-2.5,6.2-5.4c0-3.3-2.1-5.4-6.2-5.4h-6.2V505.4z"/>
	<path class="st1" d="M499.9,524.4h-17.8l-2.9,8.3h-14.9l19.8-50.4h13.6l20.2,50.4h-15.3L499.9,524.4z M490.8,498l-5.4,15.7h11.1
		L490.8,498z"/>
	<path class="st1" d="M522.2,482.3h14v50.4h-14L522.2,482.3L522.2,482.3z"/>
	<path class="st1" d="M585.3,500.5c0,10.7-7.8,18.2-18.6,18.2h-7.4v14h-14v-50.4h21.5C577.1,482.3,585.3,489.7,585.3,500.5z
		 M570.9,500.5c0-3.7-2.5-6.2-6.2-6.2h-5.8v12.4h5.8C568.4,506.7,570.9,504.2,570.9,500.5z"/>
	<g>
		<path class="st1" d="M276.9,549.6c0,4.5-3.3,7.8-7.8,7.8h-3.3v5.8H260v-21.5h9.1C273.6,541.8,276.9,545.1,276.9,549.6z
			 M271.2,549.6c0-1.7-0.8-2.5-2.5-2.5h-2.5v5.4h2.5C269.9,552.5,271.2,551.3,271.2,549.6z"/>
		<path class="st1" d="M334.3,557h-2.1v6.6h-5.8v-21.5h9.5c4.5,0,7.8,3.3,7.8,7.8c0,2.5-1.2,5-3.3,6.2l4.1,7.8H338L334.3,557z
			 M331.9,551.7h2.9c1.7,0,2.5-0.8,2.5-2.5c0-1.2-0.8-2.5-2.5-2.5h-2.9V551.7z"/>
		<path class="st1" d="M407.4,558.3v5h-14v-21.5H407v5h-7.8v3.3h6.2v5h-6.2v3.3H407.4z"/>
		<path class="st1" d="M455.7,556.6h6.2c0,1.7,1.2,2.5,2.5,2.5s2.5-0.8,2.5-1.7c0-1.2-1.7-1.7-3.7-2.1c-3.3-0.8-7-1.7-7-6.6
			c0-4.1,3.3-6.6,8.3-6.6c5.4,0,8.3,2.5,8.3,7h-5.8c0-1.2-0.8-2.1-2.1-2.1c-1.2,0-2.1,0.4-2.1,1.7s1.7,1.7,3.7,2.1
			c3.3,0.8,7.4,2.1,7.4,6.6c0,4.5-3.7,7-8.7,7C459.4,564.1,455.7,561.2,455.7,556.6z"/>
		<path class="st1" d="M521.8,556.6h6.2c0,1.7,1.2,2.5,2.5,2.5s2.5-0.8,2.5-1.7c0-1.2-1.7-1.7-3.7-2.1c-3.3-0.8-7-1.7-7-6.6
			c0-4.1,3.3-6.6,8.3-6.6c5.4,0,8.3,2.5,8.3,7h-5.8c0-1.2-0.8-2.1-2.1-2.1s-2.1,0.4-2.1,1.7s1.7,1.7,3.7,2.1
			c3.3,0.8,7.4,2.1,7.4,6.6c0,4.5-3.7,7-8.7,7C525.1,564.1,521.8,561.2,521.8,556.6z"/>
	</g>
</g>
</svg>
