<?xml version="1.0" encoding="utf-8"?>
<!-- Generator: Adobe Illustrator 24.2.1, SVG Export Plug-In . SVG Version: 6.00 Build 0)  -->
<svg version="1.1" id="Layer_1" xmlns="http://www.w3.org/2000/svg" xmlns:xlink="http://www.w3.org/1999/xlink" x="0px" y="0px"
	 viewBox="0 0 800 800" style="enable-background:new 0 0 800 800;" xml:space="preserve">
<style type="text/css">
	.st0{fill-rule:evenodd;clip-rule:evenodd;fill:#2E0F00;}
	.st1{fill:#D8AB77;}
</style>
<rect x="-0.4" y="-0.5" class="st0" width="801.5" height="801.5"/>
<g>
	<g>
		<path class="st1" d="M225.8,355.1l-9.8,1l1,9.5c0.3,4.2-1,6.2-4.9,6.5c-3.9,0.3-5.9-1.3-6.2-5.2l-3.6-31.7c-0.3-4.2,1-6.2,4.9-6.5
			s5.9,1.3,6.2,5.2l1,9.1l9.8-1l-1-9.5c-1-9.8-6.2-13.4-17-12.4c-10.4,1.3-14.7,5.9-13.7,15.7l3.6,31.7c1,9.8,6.2,13.4,16.6,12.4
			c10.8-1.3,14.7-6.2,13.7-15.7L225.8,355.1z"/>
		<polygon class="st1" points="267.9,373 265,347.3 276.1,346 279,372.1 288.5,370.8 281.9,312.7 272.8,314 275.4,337.8 
			264.3,339.1 261.7,315 252.2,316.3 258.4,374 		"/>
		<path class="st1" d="M316.5,354.4c1,9.8,6.2,13.4,16.6,12.4c10.8-1.3,14.7-6.2,13.7-15.7l-3.3-32c-1-9.8-6.2-13.4-17-12.4
			c-10.4,1.3-14.7,5.9-13.7,15.7L316.5,354.4z M327.6,315c3.9-0.3,5.9,1.3,6.2,5.2l3.6,31.7c0.3,4.2-1,6.2-4.9,6.5
			c-3.9,0.3-5.9-1.3-6.2-5.2l-3.6-31.7C322.4,317.6,324,315.6,327.6,315z"/>
		<path class="st1" d="M377.2,347.9c1,9.8,6.2,13.4,16.6,12.4c10.8-1.3,14.7-6.2,13.7-15.7l-1-9.5l-9.8,1l1,9.5
			c0.3,4.2-1,6.2-4.9,6.5s-5.9-1.3-6.2-5.2l-3.6-31.7c-0.3-4.2,1-6.2,4.9-6.5c3.9-0.3,5.9,1.3,6.2,5.2l1,9.1l9.8-1l-0.7-9.5
			c-1-9.8-6.2-13.4-17-12.4c-10.4,1.3-14.7,5.9-13.7,15.7L377.2,347.9z"/>
		<path class="st1" d="M437.3,341.1c1,9.8,6.2,13.4,16.6,12.4c10.8-1.3,14.7-6.2,13.7-15.7l-3.6-31.7c-1-9.8-6.2-13.4-17-12.4
			c-10.4,1.3-14.7,5.9-13.7,15.7L437.3,341.1z M448.4,301.9c3.9-0.3,5.9,1.3,6.2,5.2l3.6,31.7c0.3,4.2-1,6.2-4.9,6.5
			c-3.9,0.3-5.9-1.3-6.2-5.2l-3.6-31.7C442.8,304.2,444.4,302.2,448.4,301.9z"/>
		<polygon class="st1" points="212.4,413.2 218,463.1 227.4,462.1 221.9,412.2 232,410.9 231,403.1 201.3,406.3 202,414.2 		"/>
		<path class="st1" d="M269.5,398.8l-4.6,59.4l9.8-1l0.7-13.7l11.4-1.3l4.2,13.1l9.8-1l-18.9-56.8L269.5,398.8z M275.4,435.4
			l1.3-25.8l7.8,24.8L275.4,435.4z"/>
		<path class="st1" d="M323.4,409.6c0.3,3.6,1,6.2,2,7.5c1,1.6,3.6,3.3,6.2,4.6l10.1,3.9c3.9,1.3,5.2,2.9,5.5,6.2l0.3,3.9
			c0.3,4.2-1.3,6.2-5.2,6.5c-3.9,0.3-5.9-1.3-6.5-5.2l-1-8.8l-9.5,1l1,8.8c1,9.8,6.2,13.4,17,12.4c10.4-1.3,14.7-5.9,13.7-15.7
			l-0.7-4.9c-0.7-4.6-1-6.5-2.3-8.2s-4.2-3.3-7.2-4.6l-10.1-3.6c-2.9-1-3.6-2.3-3.9-5.5l-0.3-2.6c-0.3-4.2,1-6.2,4.9-6.5
			c3.9-0.3,5.9,1.3,6.2,5.2l0.7,6.9l9.5-1l-0.7-6.9c-1-9.8-6.2-13.4-16.6-12.4c-10.4,1.3-14.7,6.2-13.7,15.7L323.4,409.6z"/>
		<polygon class="st1" points="392.2,393.3 397.8,443.5 407.6,442.2 402,392.3 412.1,391 411.2,383.2 381.1,386.4 382.1,394.6 		"/>
		<polygon class="st1" points="473.8,435 472.8,426.9 459.1,428.5 457.2,410.6 470.9,408.9 469.9,401.1 456.2,402.4 454.6,386.4 
			468.3,384.8 467.3,377 443.8,379.6 450.3,437.7 		"/>
		<path class="st1" d="M517.9,430.2l-2.9-25.5l5.5-0.7c2.6-0.3,4.9,0.7,5.5,2.6c0.3,0.7,0.3,1.3,0.7,3.3l1.6,13.7
			c0.3,2.3,0.7,3.6,1.6,5.2l9.8-1c-1-2-1.3-2.6-1.6-5.2l-1.3-13.4c-0.7-6.2-2.6-8.5-7.8-9.1c2.3-1.3,3.9-2.3,4.9-3.9
			c1.3-2,1.3-4.2,0.7-10.4c-0.7-6.9-2-10.1-4.2-12.1c-2.3-2.3-5.2-2.9-10.4-2.3l-17.6,2l6.5,58.1L517.9,430.2z M518.2,379.2
			c4.6-0.3,5.5,1,6.2,7.2l0.3,3.3c0.7,4.9-0.7,6.9-4.9,7.2l-5.5,0.7l-2-17.3L518.2,379.2z"/>
		<polygon class="st1" points="578.5,423.3 588.7,422.3 586.1,399.5 593.9,362.9 583.4,364.2 579.9,387.1 569.4,365.5 559,366.8 
			576.3,400.5 		"/>
		<path class="st1" d="M627.2,440.6l-9.5-81.2c0-0.3-0.3-0.7-0.3-1l-9.1-9.8c-0.7-0.7-1.6-2-3.3-0.3c-3.9,3.6-8.8,5.9-14,6.5
			c-8.8,1-17.9-2.9-23.2-10.1c-0.3-0.7-1-0.7-1.6-0.7l0,0c-0.7,0-1.3,0.3-1.3,1c-2.9,6.2-8.5,14-19.9,15c-8.5,1-17.3-2-22.5-7.5
			c-0.3-0.3-1-0.7-1.6-0.7s-1,0.3-1.3,1c-3.6,7.5-10.8,9.5-16,10.1c-6.2,0.7-11.4-0.7-15.3-3.3c-4.2-6.9-4.2-14.4,0-22.5
			c3.3-6.2,8.2-10.4,8.2-10.8c0.3-0.3,0.7-0.7,0.7-1.3c0-0.3-0.3-1-0.7-1.3c0,0-12.1-8.8-13.7-11.4c-7.5-12.7,5.9-26.8,5.9-27.1
			c0.3-0.3,0.7-0.7,0.3-1.3c0-0.3-0.3-1-0.7-1.3l-7.5-6.5l0,0c-0.3-0.7-1-1-1.6-0.7l-303.8,33.9c-1,0-1.6,1-1.6,2l18.6,167.4
			c0,0.7,0.7,1.3,1.3,1.6l0.3,0.3l10.8,8.2c0.3,0.3,0.7,0.3,1,0.3c0,0,0,0,0.3,0l419.6-46.7h0.3c0,0,0,0,0.3,0
			C626.5,442.6,627.2,441.6,627.2,440.6z M623.6,437l-6.2-5.2c0,0,0,0-0.3,0l-8.8-78.3l6.2,6.9L623.6,437z M566.5,348.6
			c6.2,6.9,15.3,10.4,24.5,9.5c4.9-0.7,9.5-2.3,13.7-5.2l8.5,77.7l-56.8,6.2l-8.2-74.1C556,361,562.6,356.1,566.5,348.6z
			 M503.8,366.5c7.8-1,13.7-4.2,17.6-10.1c6.2,5.2,15,7.8,23.5,6.9l8.2,74.1l-56.8,6.2l-8.8-79.9
			C492.1,366.2,497.6,367.2,503.8,366.5z M307.1,383.8l56.8-6.2l8.8,79.6l-56.8,6.2L307.1,383.8z M312.3,463.8l-56.8,6.2l-8.8-79.6
			l56.8-6.2L312.3,463.8z M367.1,377l56.8-6.2l8.8,79.6l-56.8,6.2L367.1,377z M427.5,370.4l56.8-6.2l8.8,79.6l-56.8,6.2L427.5,370.4
			z M482,352.2c-1.3-2.6-2.3-5.9-2.6-9.5c-1-8.5,2-16.6,7.5-22.2l5.9,5.2C489.1,329,480,339.8,482,352.2z M477.1,305.5
			c-1.3-2.6-2.3-5.5-2.6-8.2c-0.7-6.2,1.3-13.1,5.2-17.3l5.5,4.6C482.3,287.9,476.4,296.4,477.1,305.5z M475.1,280.1
			c-3.3,4.9-4.9,11.7-4.2,17.9c1,7.5,6.5,16.3,13.1,20.2c-6.2,6.2-9.1,15.3-8.2,24.5c1,7.5,3.6,13.7,8.2,17.6l0,0l-56.8,6.2
			l-8.8-80.6L475.1,280.1z M414.7,286.6l8.8,80.6l-56.8,6.5l-8.8-80.6L414.7,286.6z M354.4,293.4l8.8,80.6l-56.8,6.2l-8.5-80.6
			L354.4,293.4z M294.3,300l8.8,80.6l-56.8,6.2l-8.8-80.6L294.3,300z M177.5,313l56.8-6.2l8.5,80.3l-56.8,6.2L177.5,313z
			 M186.7,396.9l56.8-6.2l8.8,79.6l-56.8,6.2L186.7,396.9z M205.9,485.9l-7.8-5.9l416.7-46l0,0l6.2,5.5L205.9,485.9z"/>
	</g>
	<g>
		<path class="st1" d="M231.4,502.9l3.6-0.3l2,19.3l5.5-0.7l0.3,2.9l-9.5,1L231.4,502.9z"/>
		<path class="st1" d="M246.4,501.3l9.1-1l0.3,2.9l-5.2,0.7l0.7,6.2l5.2-0.7l0.3,2.9l-5.2,0.7l0.7,6.9l5.2-0.7l0.3,2.9l-9.1,1
			L246.4,501.3z"/>
		<path class="st1" d="M265,499.3l4.9-0.7l7.2,21.9l-3.9,0.3l-1.6-5.2l-4.6,0.3l-0.3,5.2l-3.6,0.3L265,499.3z M270.8,513l-2.9-9.5
			l-0.7,9.8L270.8,513z"/>
		<path class="st1" d="M280.6,497.7l6.9-0.7c2-0.3,3.3,0,3.9,1c1,0.7,1.3,2,1.6,4.6c0.3,2.3,0.3,3.3-0.3,3.9c-0.3,0.7-1,1-2,1.6
			c2,0.3,2.9,1.3,2.9,3.6l0.7,5.2c0,1,0.3,1.3,0.7,2l-3.6,0.3c-0.3-0.7-0.3-1-0.7-2l-0.7-5.2c0-0.7,0-1-0.3-1.3c-0.3-0.7-1-1-2-1
			l-2.3,0.3l1,9.8l-3.6,0.3L280.6,497.7z M287.8,506.5c1.6-0.3,2-1,2-2.6v-1.3c-0.3-2.3-0.7-2.9-2.3-2.6l-2.3,0.3l0.7,6.5
			L287.8,506.5z"/>
		<path class="st1" d="M299.9,495.4l4.2-0.3l6.2,14l-1.6-14.7l3.3-0.3l2.3,22.2l-4.2,0.3l-6.5-14l1.6,14.7l-3.3,0.3L299.9,495.4z"/>
		<path class="st1" d="M333.2,500.3c1.6-0.3,2.9,1,3.3,2.6s-1,2.9-2.6,3.3s-2.9-1-3.3-2.6C330.6,501.9,331.5,500.6,333.2,500.3z"/>
		<path class="st1" d="M355.7,492.5l-3.9,0.3l-0.3-2.9l11.4-1.3l0.3,2.9l-3.9,0.3l2,19.3l-3.6,0.3L355.7,492.5z"/>
		<path class="st1" d="M371,487.9l4.9-0.7l7.2,21.9l-3.9,0.3l-1.6-5.2l-4.6,0.3l-0.3,5.2l-3.6,0.3L371,487.9z M376.9,501.6l-2.9-9.5
			l-0.7,9.8L376.9,501.6z"/>
		<path class="st1" d="M390.6,499.7l0.3,3.3c0.3,1.6,1,2.3,2.6,2c1.6-0.3,2.3-1,2-2.6l-0.3-1.6c0-1.3-0.7-2-2-2.3l-3.9-1.6
			c-1-0.3-2-1-2.3-1.6s-0.7-1.6-0.7-2.9v-1.3c-0.3-3.6,1.3-5.5,5.2-5.9c3.9-0.3,5.9,1,6.5,4.9l0.3,2.6l-3.6,0.3l-0.3-2.6
			c-0.3-1.6-1-2.3-2.3-2c-1.6,0.3-2,1-2,2.6v1c0,1.3,0.3,1.6,1.6,2.3l3.9,1.3c1,0.3,2.3,1.3,2.6,1.6c0.7,0.7,0.7,1.3,1,3.3l0.3,2
			c0.3,3.6-1.3,5.5-5.2,5.9c-3.9,0.3-6.2-1-6.5-4.9l-0.3-3.3L390.6,499.7z"/>
		<path class="st1" d="M406.9,487.3l-3.9,0.3l-0.3-2.9l11.4-1.3l0.3,2.9l-3.9,0.3l2,19.3l-3.6,0.3L406.9,487.3z"/>
		<path class="st1" d="M420,482.7l9.1-1l0.3,2.9l-5.2,0.7l0.7,6.2l5.2-0.7l0.3,2.9l-5.2,0.7l0.7,6.9l5.2-0.7l0.3,2.9l-9.1,1.6
			L420,482.7z"/>
		<path class="st1" d="M449.3,487.6c1.6-0.3,2.9,1,3.3,2.6c0.3,1.6-1,2.9-2.6,3.3c-1.6,0.3-2.9-1-3.3-2.6
			C446.7,489.2,447.7,487.9,449.3,487.6z"/>
		<path class="st1" d="M468.3,477.1l6.5-0.7c2-0.3,3.3,0,4.2,1c1,1,1.3,1.6,1.3,3.6l1.3,11.7c0.3,2,0,2.9-0.7,3.9c-1,1-2,1.6-3.9,2
			l-6.5,0.7L468.3,477.1z M476.4,496.1c1.3,0,2-1,2-2.9l-1.3-11.4c-0.3-1.6-1-2.3-2.3-2.3l-2,0.3l1.6,16.3H476.4z"/>
		<path class="st1" d="M487.5,475.2l3.6-0.3l2.3,22.2l-3.6,0.3L487.5,475.2z"/>
		<path class="st1" d="M503.5,487.3l0.3,3.3c0.3,1.6,1,2.3,2.6,2s2.3-1,2-2.6l-0.3-1.6c0-1.3-0.7-2-2-2.3l-3.9-1.6
			c-1-0.3-2-1-2.3-1.6c-0.3-0.7-0.7-1.6-0.7-2.9v-1.3c-0.3-3.6,1.3-5.5,5.2-5.9c3.9-0.3,5.9,1,6.5,4.9l0.3,2.6l-3.6,0.3l-0.3-2.6
			c-0.3-1.6-1-2.3-2.3-2c-1.6,0.3-2,1-2,2.6v1c0,1.3,0.3,1.6,1.6,2.3l3.9,1.3c1,0.3,2.3,1.3,2.6,1.6c0.7,0.7,0.7,1.3,1,3.3l0.3,2
			c0.3,3.6-1.3,5.5-5.2,5.9c-3.9,0.3-6.2-1-6.5-4.9l-0.3-3.3L503.5,487.3z"/>
		<path class="st1" d="M530.9,487.9c0.3,3.6-1.3,5.5-5.2,5.9c-3.9,0.3-5.9-1-6.5-4.9l-1.3-12.1c-0.3-3.6,1.3-5.5,5.2-5.9
			c3.9-0.3,6.2,1,6.5,4.9l0.3,3.3l-3.6,0.3l-0.3-3.6c-0.3-1.6-1-2.3-2.3-2c-1.6,0-2,1-2,2.6l1.3,12.1c0.3,1.6,1,2.3,2.3,2
			c1.6-0.3,2-1,2-2.6l-0.3-3.6l3.6-0.3L530.9,487.9z"/>
		<path class="st1" d="M544.3,491.8c-3.9,0.3-5.9-1-6.5-4.9l-1.3-12.1c-0.3-3.6,1.3-5.5,5.2-5.9c3.9-0.3,6.2,1,6.5,4.9l1.3,12.1
			C549.8,489.5,548.2,491.5,544.3,491.8z M544,488.6c1.6-0.3,2-1,2-2.6l-1.3-12.1c-0.3-1.6-1-2.3-2.3-2c-1.6,0-2,1-2,2.6l1.3,12.1
			C541.7,488.2,542.3,488.9,544,488.6z"/>
		<path class="st1" d="M557.3,467.3l4.9,15.3l1-16l3.6-0.3l-2,22.8l-4.2,0.3l-7.2-21.9L557.3,467.3z"/>
		<path class="st1" d="M573,465.7l9.1-1l0.3,2.9l-5.2,0.7l0.7,6.2l5.2-0.7l0.3,2.9l-5.2,0.7l0.7,6.9l5.2-0.7l0.3,2.9l-9.1,1
			L573,465.7z"/>
		<path class="st1" d="M589.3,464.1l6.9-0.7c2-0.3,3.3,0,3.9,1c1,0.7,1.3,2,1.6,4.6c0.3,2.3,0.3,3.3-0.3,3.9c-0.3,0.7-1,1-2,1.6
			c2,0.3,2.9,1.3,2.9,3.6l0.7,5.2c0,1,0.3,1.3,0.7,2l-3.6,0.3c-0.3-0.7-0.3-1-0.7-2l-0.7-5.2c0-0.7,0-1-0.3-1.3c-0.3-0.7-1-1-2-1
			l-2.3,0.3l1,9.8l-3.6,0.3L589.3,464.1z M596.2,472.9c1.6-0.3,2-1,2-2.6V469c-0.3-2.3-0.7-2.9-2.3-2.6l-2.3,0.3l0.7,6.5
			L596.2,472.9z"/>
	</g>
</g>
</svg>
