<?xml version="1.0" encoding="utf-8"?>
<!-- Generator: Adobe Illustrator 24.2.1, SVG Export Plug-In . SVG Version: 6.00 Build 0)  -->
<svg version="1.1" id="Layer_1" xmlns="http://www.w3.org/2000/svg" xmlns:xlink="http://www.w3.org/1999/xlink" x="0px" y="0px"
	 viewBox="0 0 800 800" style="enable-background:new 0 0 800 800;" xml:space="preserve">
<style type="text/css">
	.st0{fill-rule:evenodd;clip-rule:evenodd;fill:#674CC9;}
	.st1{fill:#FFFFFF;}
</style>
<rect x="-0.4" y="-0.5" class="st0" width="801.5" height="801.5"/>
<g>
	<rect x="303.3" y="367.3" class="st1" width="32.8" height="16.7"/>
	<rect x="368.9" y="367.3" class="st1" width="16.4" height="50.1"/>
	<polygon class="st1" points="418.2,417.4 385.3,417.4 385.3,434.1 418.2,434.1 418.2,450.8 434.6,450.8 434.6,367.3 418.2,367.3 	
		"/>
	<polygon class="st1" points="451,367.3 451,434.1 467.4,434.1 467.4,384 483.8,384 483.8,367.3 	"/>
	<rect x="500.2" y="367.3" class="st1" width="16.4" height="16.7"/>
	<polygon class="st1" points="598.7,367.3 565.9,367.3 565.9,384 582.3,384 582.3,400.7 598.7,400.7 615.1,400.7 615.1,384 
		598.7,384 	"/>
	<polygon class="st1" points="680.8,384 680.8,367.3 664.4,367.3 664.4,350.6 648,350.6 648,367.3 631.5,367.3 631.5,384 648,384 
		648,417.4 664.4,417.4 664.4,384 	"/>
	<rect x="286.8" y="384" class="st1" width="16.4" height="33.4"/>
	<rect x="483.8" y="384" class="st1" width="16.4" height="50.1"/>
	<rect x="516.6" y="384" class="st1" width="16.4" height="50.1"/>
	<rect x="549.5" y="384" class="st1" width="16.4" height="33.4"/>
	<polygon class="st1" points="336.1,417.4 303.3,417.4 303.3,434.1 352.5,434.1 352.5,384 336.1,384 	"/>
	<rect x="565.9" y="417.4" class="st1" width="32.8" height="16.7"/>
	<rect x="664.4" y="417.4" class="st1" width="16.4" height="16.7"/>
	<rect x="385.3" y="450.8" class="st1" width="32.8" height="16.7"/>
	<rect x="253.7" y="349.7" class="st1" width="16.5" height="84.1"/>
	<path class="st1" d="M120,450.5h117.5V333H120V450.5z M136.8,349.8h83.9v25.9h-16.8v-9.1h-50.3v50.3h50.3v-8.7h16.8v25.5h-83.9
		V349.8z"/>
</g>
</svg>
