<?xml version="1.0" encoding="utf-8"?>
<!-- Generator: Adobe Illustrator 24.2.1, SVG Export Plug-In . SVG Version: 6.00 Build 0)  -->
<svg version="1.1" id="Layer_1" xmlns="http://www.w3.org/2000/svg" xmlns:xlink="http://www.w3.org/1999/xlink" x="0px" y="0px"
	 viewBox="0 0 800 800" style="enable-background:new 0 0 800 800;" xml:space="preserve">
<style type="text/css">
	.st0{fill-rule:evenodd;clip-rule:evenodd;}
	.st1{fill:#D4A861;}
	.st2{fill:#FFFFFF;}
</style>
<rect x="-0.4" y="-0.5" class="st0" width="801.5" height="801.5"/>
<g id="_x33_">
	<g id="XMLID_64_">
		<path id="XMLID_65_" class="st1" d="M131.8,438.5c-1.8,0-3.6-0.7-5.1-1.5c-1.5-0.7-2.2-2.5-2.2-5.4v-46.4c0-2.2,0.7-4,2.2-5.1
			c1.5-1.1,3.3-1.8,5.1-1.8l0,0l0,0c1.8,0,3.3,0.7,5.1,1.8c1.5,1.1,2.2,2.9,2.2,4.7v7.3h-3.6v-7.3c0-0.7-0.4-1.5-1.1-2.2
			s-1.5-0.7-2.5-0.7c-1.1,0-1.8,0.4-2.2,0.7c-0.4,0.4-0.7,0.7-0.7,1.1c0,0.4,0,0.4,0,0.4v0.4v46.4c0,1.1,0.4,1.8,0.7,2.2
			c0.7,0.4,1.1,0.7,1.8,0.7h0.4c0,0,0,0,0.4,0c1.1,0,1.8-0.4,2.5-0.7c0.7-0.7,1.1-1.5,1.1-2.5v-6.9h4v6.9c0,1.8-0.7,3.3-2.2,4.7
			C135.8,437.7,134,438.5,131.8,438.5C132.2,438.5,132.2,438.5,131.8,438.5L131.8,438.5L131.8,438.5z"/>
		<path id="XMLID_70_" class="st1" d="M170.6,418.2C170.6,417.8,170.6,417.8,170.6,418.2c0-0.4,0-0.7,0-0.7c0-0.7-0.4-1.1-0.7-1.5
			c-0.4-0.4-1.1-0.7-1.8-0.7h-4.4v23.2c0,0-0.4,0-0.7,0c-0.4,0-1.1,0-1.8,0c-0.4,0-0.4,0-0.7,0c-0.4,0-0.4,0-0.7,0v-23.2h-3.3v-3.6
			h3.3V379h8.3c1.8,0,3.3,0.7,4.7,1.8c1.5,1.1,1.8,2.9,1.8,4.7v23.6c0,0.7,0,1.5-0.4,2.2s-0.7,1.5-1.1,1.8c0.4,0.4,0.7,1.1,1.1,1.8
			c0.4,0.7,0.4,1.8,0.4,2.9v13.4c0,0.7,0.4,1.5,0.7,1.8c0.4,0.4,0.7,0.7,1.5,0.7c0.4,0,0.7,0.4,1.1,0.4s0.7,0,0.7,0l0,0v4
			c0,0,0,0-0.4,0c0,0,0,0-0.4,0c-1.8,0-3.6-0.7-5.1-1.5c-1.5-0.7-2.5-2.5-2.5-5.4v-13.1H170.6z M170.2,383.4
			c-0.4-0.7-1.1-0.7-1.8-0.7h-4.7v28.6h4.4c0.7,0,1.5-0.4,2.2-0.7c0.7-0.4,0.7-1.1,0.7-1.8v-23.6C171,384.5,170.6,383.7,170.2,383.4
			z"/>
		<path id="XMLID_91_" class="st1" d="M206.5,414.9h-4.4l-2.9,23.2h-4l2.9-23.2h-2.9v-3.6h3.6l4-32.6h3.3l6.9,59.5h-3.6L206.5,414.9
			z M202.5,411.3h3.6l-1.5-15.6L202.5,411.3z"/>
		<path id="XMLID_94_" class="st1" d="M235.9,438.5h-4v-23.2h-3.3v-3.6h3.3V379h13.8v3.6h-9.8v28.6H246v3.6h-10.2V438.5z"/>
		<path id="XMLID_96_" class="st1" d="M272.5,438.5h-4v-55.8H263V379h14.9v3.6h-5.4V438.5z"/>
	</g>
	<g id="XMLID_35_">
		<g>
			<path id="XMLID_149_" class="st1" d="M477.3,385.5c0-0.7-0.4-1.5-1.1-2.2c-0.7-0.7-1.5-0.7-2.5-0.7h-0.4h-0.4
				c-0.7,0-1.5,0.4-2.2,0.7c-0.7,0.4-1.1,1.1-1.1,1.8v23.6c0,1.1,0.4,1.8,1.1,2.5c0.7,0.4,1.5,0.7,2.2,0.7h0.4c0,0,0,0,0.4,0h0.4
				h0.4c1.5,0,2.9,0.7,4.4,1.5c1.1,0.7,1.8,2.5,1.8,4.4v13.8c0,1.8-0.7,3.3-2.2,4.7c-1.5,1.1-3.3,1.8-5.4,2.2c-2.2,0-4-0.7-5.4-1.8
				c-1.5-1.5-2.2-2.9-2.2-4.4l0,0l0,0v-6.9h4v6.9c0,0.7,0.4,1.5,1.1,2.2c0.7,0.7,1.5,1.1,2.5,1.1c1.1,0,1.8-0.4,2.5-0.7
				c0.7-0.7,1.1-1.5,1.1-2.2v-14.5c0-0.7-0.4-1.5-0.7-1.8c-0.7-0.4-1.1-0.7-1.8-0.7l0,0l0,0c-0.4,0-0.7,0-1.5,0
				c-0.4,0-1.1,0-1.5-0.4c-1.1-0.4-2.5-1.1-3.3-1.8c-1.1-1.1-1.5-2.5-1.5-4.7v-23.6c0-1.8,0.7-3.3,1.8-4c1.1-0.7,2.2-1.8,3.6-2.2
				c0.4,0,0.7,0,1.1-0.4c0.4,0,0.7,0,1.1,0l0,0l0,0c2.2,0,4,0.7,5.1,1.8c1.5,1.1,2.2,2.9,2.2,4.7v6.9h-3.6v-6.5H477.3z"/>
			<path id="XMLID_147_" class="st1" d="M500.8,414.9h-3.6v-3.6h3.6v-32.6H515v3.6h-9.8v28.6h10.2v3.6h-10.2v19.6h10.2v3.6h-14.1
				v-22.8H500.8z"/>
			<path id="XMLID_144_" class="st1" d="M546.5,418.2C546.5,417.8,546.5,417.8,546.5,418.2c0-0.4,0-0.7,0-0.7c0-0.7-0.4-1.1-0.7-1.5
				c-0.4-0.4-1.1-0.7-1.8-0.7h-4.4v23.2c0,0-0.4,0-0.7,0c-0.7,0-1.1,0-1.8,0c-0.4,0-0.4,0-0.7,0c-0.4,0-0.4,0-0.7,0v-23.2h-3.3v-3.6
				h3.3V379h8.3c1.8,0,3.3,0.7,4.7,1.8c1.5,1.1,1.8,2.9,1.8,4.7v23.6c0,0.7,0,1.5-0.4,2.2c-0.4,0.7-0.7,1.5-1.1,1.8
				c0.4,0.4,0.7,1.1,1.1,1.8c0.4,0.7,0.4,1.8,0.4,2.9v13.4c0,0.7,0.4,1.5,0.7,1.8c0.4,0.4,0.7,0.7,1.5,0.7c0.4,0,0.7,0.4,1.1,0.4
				s0.7,0,0.7,0l0,0v4c0,0,0,0-0.4,0s0,0-0.4,0c-1.8,0-3.6-0.7-5.1-1.5c-1.5-0.7-2.5-2.5-2.5-5.4v-13.1H546.5z M545.8,383.4
				c-0.4-0.7-1.1-0.7-1.8-0.7h-4.7v28.6h4.4c0.7,0,1.5-0.4,2.2-0.7c0.7-0.4,0.7-1.1,0.7-1.8v-23.6
				C546.5,384.5,546.5,383.7,545.8,383.4z"/>
			<path id="XMLID_142_" class="st1" d="M577,438.5l-5.8-59.5h4l4,40.6l5.8-40.6h4l-8.3,59.5H577z"/>
			<path id="XMLID_140_" class="st1" d="M606,378.7h4v59.5h-4V378.7z"/>
			<path id="XMLID_138_" class="st1" d="M631.4,401.5v37h-4v-59.8h3.6l7.6,38.1v-38.1h4v59.5h-4L631.4,401.5z"/>
			<path id="XMLID_136_" class="st1" d="M666.5,438.5c-1.8,0-3.6-0.7-5.1-1.8c-1.5-1.1-2.2-2.9-2.2-4.7v-46.8c0-2.2,0.7-4,2.2-4.7
				c1.5-1.1,3.3-1.5,5.1-1.8l0,0l0,0c2.2,0,4,0.7,5.4,1.8c1.5,1.1,2.2,2.9,2.2,4.7v6.9h-4v-6.9c0,0,0,0,0-0.4c0,0,0,0,0-0.4
				c0-0.7-0.4-1.1-1.1-1.8c-0.7-0.4-1.5-0.7-2.2-0.7c-1.1,0-1.8,0.4-2.5,0.7c-0.7,0.4-1.1,1.1-1.1,2.2v46.4c0,1.1,0.4,1.8,1.1,2.2
				c0.7,0.7,1.5,0.7,2.2,0.7c1.1,0,2.2-0.4,2.9-0.7c0.7-0.7,1.1-1.5,1.1-2.2v-16.7h-3.6v-3.6c2.5,0,5.1,0,7.6,0v20.3
				c0,2.2-0.7,3.6-2.2,4.7C670.1,437.7,668.3,438.5,666.5,438.5L666.5,438.5z"/>
		</g>
	</g>
	<g id="XMLID_42587_">
		<g id="XMLID_42569_">
			<g id="XMLID_42574_">
				<path id="XMLID_42575_" class="st2" d="M343.2,353.6c-0.7,2.2-2.2,6.5-0.7,11.2c1.5,4.4,4.7,7.6,9.8,9.8
					c8,3.6,10.9,6.2,12.7,7.3c1.8,1.5,2.5,1.8,5.1,1.8c0.4,0,0.7,0,1.1,0c1.8,0,2.5-0.7,4-1.8c1.8-1.5,4.7-3.6,12.7-7.3
					c5.1-2.5,8.3-5.8,9.8-9.8c1.5-4.7,0.4-9.4-0.7-11.2c5.1-2.2,8.3-5.8,8.7-5.8c0.4-0.4,0.4-1.1,0-1.5c-0.4-0.4-1.1-0.4-1.5-0.4
					c-0.4,0-2.9,1.8-6.9,2.2c0.7-1.5,1.1-2.9,1.1-4.4l-0.7-4.4c1.8-1.1,2.5-2.9,2.5-5.1c0-3.3-1.8-5.4-4.7-5.8l-2.5-13.8
					c0-4.7-1.1-8.7-4-11.6c-5.4-5.4-14.5-5.4-18.9-5.4c-3.3,0-13.4,0-19.2,5.8c-2.5,2.9-4,6.5-4,11.2l-2.5,14.1
					c-2.5,0.4-4.7,2.9-4.7,5.8c0,2.2,1.1,4,2.5,5.1l-0.7,4.4v0.4c0,1.5,0.4,3.3,1.1,4.4c-4-0.4-6.5-2.2-6.9-2.2
					c-0.4-0.4-1.1-0.4-1.5,0.4c-0.4,0.4-0.4,1.1,0,1.5C334.5,347.8,337.7,351.1,343.2,353.6z M397.9,334.4c0,0.4,0,1.5-0.4,1.8
					l-0.7-5.1C397.5,331.9,397.9,333.3,397.9,334.4z M343.5,331.5l-0.7,5.1c-0.4-0.7-0.4-1.5-0.4-1.8
					C342.4,333.3,342.8,331.9,343.5,331.5z M395.7,364.2c-1.1,3.6-4,6.5-8.7,8.7c-8,3.6-11.2,6.2-13.1,7.6c-1.5,1.1-1.8,1.5-3.6,1.1
					c0,0,0,0-0.4,0c-1.8,0.4-2.2,0-3.6-1.1c-1.8-1.5-5.1-4-13.1-7.6c-4.7-2.2-7.6-5.1-8.7-8.7c-1.5-4,0-8.3,0.7-9.8
					c2.2,0.7,4.7,1.5,7.6,1.5c5.1,0,11.2-1.8,17.4-7.3c6.2,5.4,12.3,7.3,17.4,7.3c2.9,0,5.4-0.4,7.6-1.5
					C395.7,356.2,396.8,360.2,395.7,364.2z M393.9,352.6c-2.5,0.7-5.1,1.1-8,0.7c-2.9-0.4-5.8-1.1-9.1-2.9c-1.5-0.7-3.3-1.8-4.7-3.3
					c0.4,0,0.4-0.4,0.7-0.4c2.2-1.1,6.9-2.5,12.7,1.5c2.5,1.5,4.7,2.2,7.3,2.5c1.1,0,2.2,0.4,3.3,0.4
					C395.4,351.5,394.6,352.2,393.9,352.6z M387.4,304.7c2.2,2.5,3.6,5.8,3.3,10.2l0,0l0.7,4.4c-6.9-3.3-6.9-7.6-6.9-7.6v-1.1H370
					v4.4c-6.5-4-6.2-12-6.2-14.5c2.5-0.4,4.4-0.4,5.8-0.4C374.3,300,382.7,300,387.4,304.7z M349.3,314.5c0-4,1.1-7.3,3.3-9.4
					c2.5-2.5,6.2-3.6,9.4-4.4c0,1.5,0,3.6,0.4,6.2c-2.2,8.3-10.5,11.6-14.1,12.7L349.3,314.5L349.3,314.5z M343.9,344.2l4-22.1
					c2.5-0.7,11.6-3.6,15.6-12c1.5,2.9,3.6,5.8,7.6,7.6l1.5,0.7v-5.8h10.2c0.4,2.2,2.2,6.5,9.4,9.4l4,22.5c0,1.8-0.7,3.3-1.5,4.4
					c-2.5,0-5.4-0.7-8-2.5c-8-5.1-13.8-2.2-16.3-0.7l-3.3-15.6h6.2c0.7,4.4,4.4,7.6,8.7,7.6c4.7,0,8.7-4,8.7-8.7s-4-8.7-8.7-8.7
					c-4.4,0-8,3.3-8.7,7.6h-6.5c-0.7-4.4-4.4-7.6-8.7-7.6c-4.7,0-8.7,4-8.7,8.7s4,8.7,8.7,8.7c2.9,0,5.8-1.5,7.3-4l2.2,10.9
					c-0.4,0-0.7-0.4-1.1-0.4c-2.9-1.1-7.6-1.5-13.1,2.2c-2.9,1.8-5.4,2.5-8,2.5C344.6,347.5,343.9,345.7,343.9,344.2z M364.5,329
					c-0.4,3.3-2.9,5.8-6.5,5.8c-3.6,0-6.5-2.9-6.5-6.5s2.9-6.5,6.5-6.5c3.6,0,6.5,2.9,6.5,6.2C364.5,328.6,364.5,328.6,364.5,329
					L364.5,329z M375.4,328.6c0-3.6,2.9-6.5,6.5-6.5s6.5,2.9,6.5,6.5c0,3.6-2.9,6.5-6.5,6.5S375.4,332.3,375.4,328.6z M347.5,350.7
					c2.2-0.4,4.7-1.1,7.3-2.5c5.8-3.6,10.5-2.5,12.7-1.5c0.4,0,0.4,0.4,0.7,0.4c-1.5,1.5-3.3,2.5-4.7,3.3c-3.3,1.8-6.2,2.9-9.1,2.9
					c-2.9,0.4-5.8,0-8-0.7c-0.7-0.4-1.5-1.1-1.8-1.5C345.3,350.7,346.4,350.7,347.5,350.7z"/>
			</g>
			<g id="XMLID_42572_">
				<path id="XMLID_42573_" class="st2" d="M360.2,327.9c-2.5,2.2-4.7,0.4-5.1,0c-0.4-0.4-0.7-0.4-1.1,0c-0.4,0.4-0.4,0.7,0,1.1
					c0.7,0.7,1.8,1.5,3.6,1.5c1.1,0,2.2-0.4,3.6-1.5c0.4-0.4,0.4-0.7,0-1.1C360.9,327.9,360.6,327.5,360.2,327.9z"/>
			</g>
			<g id="XMLID_42570_">
				<path id="XMLID_42571_" class="st2" d="M381.9,330.1c1.1,0,1.8-0.7,1.8-1.5c0-0.7-0.7-1.5-1.8-1.5s-1.8,0.7-1.8,1.5
					C380.1,329.7,380.9,330.1,381.9,330.1z"/>
			</g>
		</g>
		<g id="XMLID_42565_">
			<path id="XMLID_42566_" class="st2" d="M342.1,494.7c-4.4,0-7.6-3.3-8.3-7.3l-2.5-18.9l0.7-0.4c4.4-2.9,6.5-8,6.9-15.2v-68.9
				l8.3-1.5v45h46v-45.3l8.3,1.5v68.9c0,7.3,2.5,12.3,6.9,15.2l0.7,0.4l-2.5,18.5c-0.7,4.4-4.4,7.6-8.7,7.6l0,0H370L342.1,494.7
				L342.1,494.7z M333.7,470l2.5,17.4c0.4,2.9,2.9,5.1,5.8,5.1l0,0H370h27.9c3.3,0,5.8-2.2,6.2-5.4l2.5-17
				c-4.7-3.6-7.3-9.1-7.3-16.7v-67.1l-3.6-0.7v44.6h-51.1v-44.6l-3.6,0.7v67.1C341,460.9,338.4,466.4,333.7,470z"/>
		</g>
		<g id="XMLID_42484_">
			<g id="XMLID_42523_">
				<g id="XMLID_42534_">
					<path id="XMLID_42535_" class="st2" d="M358.4,404.8L344.6,383l8.3-5.8l19.2,16.3L358.4,404.8z M347.9,383.4l11.2,17.8l9.4-8
						l-15.6-13.4L347.9,383.4z"/>
				</g>
				<g id="XMLID_42524_">
					<path id="XMLID_42527_" class="st2" d="M381.9,404.8l-13.8-11.6l19.2-16.3l8.3,5.8L381.9,404.8z M371.8,393.2l9.4,8l11.2-17.8
						l-5.1-3.6L371.8,393.2z"/>
				</g>
			</g>
			<circle id="XMLID_42515_" class="st2" cx="370" cy="401.1" r="1.8"/>
			<circle id="XMLID_42486_" class="st2" cx="370" cy="411.3" r="1.8"/>
			<circle id="XMLID_42485_" class="st2" cx="370" cy="421.8" r="1.8"/>
		</g>
		<g id="XMLID_42418_">
			<g id="XMLID_42479_">
				<g id="XMLID_42482_">
					<path id="XMLID_42483_" class="st2" d="M333.7,486.7l-20.3-23.2c-6.2-7.6-9.8-17.4-9.8-27.2v-21.8c0-2.9,0.7-17.8,17-24.7
						l18.5-5.4l0.7,2.2l-18.5,5.4c-14.9,6.2-15.6,19.6-15.6,22.5v21.8c0,9.4,3.3,18.5,9.4,25.4l6.5,7.3l-1.1,1.1l2.9,3.3l1.1-1.1
						l10.9,12.3L333.7,486.7z"/>
				</g>
				<g id="XMLID_42480_">
					<path id="XMLID_42481_" class="st2" d="M331.2,469.6l-7.3-47.9c1.1-2.2,2.5-0.4,2.5-0.4l7.3,47.9L331.2,469.6z"/>
				</g>
			</g>
			<g id="XMLID_42419_">
				<g id="XMLID_42469_">
					<path id="XMLID_42478_" class="st2" d="M406.6,486.7l-1.8-1.5l10.9-12.7l1.5,1.1l2.9-3.3l-1.5-1.1l6.2-7.3
						c5.8-7.3,9.1-16.3,9.1-25.4v-21.8c0-2.5-0.7-16.3-15.6-22.5l-18.5-5.4l0.7-2.2l18.5,5.4c16.3,6.5,17.4,21.8,17.4,24.7v21.8
						c0,9.8-3.6,19.6-9.8,27.2L406.6,486.7z"/>
				</g>
				<g id="XMLID_42467_">
					<path id="XMLID_42468_" class="st2" d="M409.1,469.6l-2.5-0.4l7.3-47.9c0,0,1.1-1.5,2.5,0.4L409.1,469.6z"/>
				</g>
			</g>
		</g>
		<g id="XMLID_42416_">
			
				<rect id="XMLID_42417_" x="368.9" y="398.5" transform="matrix(1.736155e-03 -1 1 1.736155e-03 -59.6025 798.476)" class="st2" width="2.5" height="61.3"/>
		</g>
		<g id="XMLID_42409_">
			<path id="XMLID_42413_" class="st2" d="M333.7,467.8l-11.2,9.1l-6.2-6.9l15.2-12.3L333.7,467.8z M323.6,473.6l7.3-6.2l-0.7-5.1
				l-9.4,8L323.6,473.6z"/>
		</g>
		<g id="XMLID_42407_">
			
				<rect id="XMLID_42408_" x="351.6" y="375.6" transform="matrix(0.4121 -0.9111 0.9111 0.4121 -135.3049 543.6454)" class="st2" width="4" height="2.2"/>
		</g>
		<g id="XMLID_42401_">
			
				<rect id="XMLID_42406_" x="384.8" y="374.7" transform="matrix(0.9111 -0.4121 0.4121 0.9111 -120.9558 192.4878)" class="st2" width="2.2" height="4"/>
		</g>
		<g id="XMLID_42382_">
			<path id="XMLID_42394_" class="st2" d="M408.8,457.7L424,470l-6.2,6.9l-11.2-9.1L408.8,457.7z M420,470l-9.4-8l-0.7,5.1l7.3,6.2
				L420,470z"/>
		</g>
	</g>
</g>
</svg>
