<?xml version="1.0" encoding="utf-8"?>
<!-- Generator: Adobe Illustrator 24.2.1, SVG Export Plug-In . SVG Version: 6.00 Build 0)  -->
<svg version="1.1" id="Layer_1" xmlns="http://www.w3.org/2000/svg" xmlns:xlink="http://www.w3.org/1999/xlink" x="0px" y="0px"
	 viewBox="0 0 800 800" style="enable-background:new 0 0 800 800;" xml:space="preserve">
<style type="text/css">
	.st0{fill-rule:evenodd;clip-rule:evenodd;fill:#1D1D1D;}
	.st1{fill:#C1C1C1;}
</style>
<rect x="-0.4" y="-0.5" class="st0" width="801.5" height="801.5"/>
<g>
	<path class="st1" d="M374.9,320.8c12,0,21.4,9.7,21.4,21.4c0,2.2,1.9,4.1,4.1,4.1s4.1-1.9,4.1-4.1c0-12,9.7-21.4,21.4-21.4
		c31.5,0,57-25.5,57-57c0-0.4,0-0.7,0-1.1c-0.4-23.2-19.5-42-42.7-42c-18,0-33.4,10.9-39.7,26.6c-6.4-15.7-21.7-26.6-39.7-26.6
		c-23.2,0-42.4,18.7-42.7,42c0,0.4,0,0.7,0,1.1C317.9,295,343.4,320.8,374.9,320.8z M360.6,228.6c19.1,0,34.9,15.7,34.9,34.9
		c0,11.2-9.4,20.6-20.6,20.6s-20.6-9.4-20.6-20.6c0-4.5,3.7-8.2,8.2-8.2s8.2,3.7,8.2,8.2c0,2.2,1.9,4.1,4.1,4.1s4.1-1.9,4.1-4.1
		c0-9-7.5-16.5-16.5-16.5c-9,0-16.5,7.5-16.5,16.5c0,15.7,12.7,28.9,28.9,28.9c11.2,0,20.6-6.4,25.5-15.4
		c4.9,9.4,14.6,15.4,25.5,15.4c15.7,0,28.9-12.7,28.9-28.9c0-9-7.5-16.5-16.5-16.5c-9,0-16.5,7.5-16.5,16.5c0,2.2,1.9,4.1,4.1,4.1
		c2.2,0,4.1-1.9,4.1-4.1c0-4.5,3.7-8.2,8.2-8.2c4.5,0,8.2,3.7,8.2,8.2c0,11.2-9.4,20.6-20.6,20.6s-20.6-9.4-20.6-20.6
		c0-19.1,15.7-34.9,34.9-34.9s34.9,15.7,34.9,34.9c0,0.4,0,0.4,0,0.7c-0.4,26.6-22.1,48.4-49.1,48.4c-10.9,0-20.2,6-25.5,14.6
		c-5.2-8.6-14.6-14.6-25.5-14.6c-26.6,0-48.7-21.7-49.1-48.4c0-0.4,0-0.4,0-0.7C326.2,244.4,341.5,228.6,360.6,228.6z"/>
	<path class="st1" d="M320.9,509.4h8.2l1.5-1.5v-9.4l-1.5-1.5l1.5-1.5v-9.4l-1.5-1.5h-8.2l0.4,1.5v22.1L320.9,509.4z M324.3,488.1
		L324.3,488.1l2.6-0.4l0.4,0.4v7.1l-0.4,0.4h-2.2l-0.4-0.4V488.1z M324.3,498.9L324.3,498.9l2.6-0.4l0.4,0.4v7.1l-0.4,0.4h-2.2
		l-0.4-0.4V498.9z"/>
	<path class="st1" d="M350.9,509.4l-0.7-2.2l-3.7-21.4l0.4-1.5h-4.1l0.4,1.5l-3.7,21.4l-0.7,2.2h3.7l-0.4-1.1l0.7-4.9l0.4-0.4h2.6
		l0.4,0.4l0.7,4.9l0,1.1H350.9z M345.3,500.1h-1.5l-0.4-0.4l1.1-6.7L345.3,500.1L345.3,500.1z"/>
	<polygon class="st1" points="370.4,484.3 365.5,484.3 365.9,485.4 362.1,494.8 362.1,486.2 362.5,484.3 358.4,484.3 358.8,486.2 
		358.8,507.9 358.4,509.4 362.5,509.4 362.1,507.9 362.1,503.1 363.3,500.1 365.9,508.3 365.5,509.4 370.4,509.4 368.9,507.9 
		364.8,495.9 368.9,486.2 	"/>
	<polygon class="st1" points="377.9,509.4 387.3,509.4 388,506.1 386.5,506.4 382,506.4 381.6,506.1 381.6,498.9 382,498.6 
		383.1,498.6 384.6,498.9 384.6,495.2 383.1,495.6 382,495.6 381.6,495.2 381.6,488.1 382,487.7 386.5,487.7 388,488.1 387.3,484.3 
		377.9,484.3 378.3,485.8 378.3,507.9 	"/>
	<polygon class="st1" points="395.9,509.4 399.6,509.4 399.3,507.9 399.3,498.9 399.6,498.6 402.3,498.6 402.6,498.9 402.6,507.9 
		402.3,509.4 406,509.4 405.6,507.9 405.6,486.2 406,484.3 402.3,484.3 402.6,486.2 402.6,495.2 402.3,495.6 399.6,495.6 
		399.3,495.2 399.3,486.2 399.6,484.3 395.9,484.3 396.3,486.2 396.3,507.9 	"/>
	<path class="st1" d="M424,507.9v-22.1l-1.5-1.5h-6.4l-1.5,1.5v22.1l1.5,1.5h6.4L424,507.9z M421,506.1L421,506.1l-2.6,0.4l-0.4-0.4
		v-18l0.4-0.4h2.2l0.4,0.4V506.1z"/>
	<polygon class="st1" points="436.8,484.3 433,484.3 433.4,486.2 433.4,507.9 434.9,509.4 441.3,509.4 442.8,507.9 442.8,486.2 
		443.1,484.3 439,484.3 439.4,486.2 439.4,506.1 439,506.4 436.8,506.4 436.4,506.1 436.4,486.2 	"/>
	<polygon class="st1" points="455.5,503.4 451.4,503.4 451.8,504.9 451.8,507.9 453.6,509.4 459.6,509.4 461.1,507.9 461.1,497.1 
		459.6,495.6 455.5,495.6 455.1,495.2 455.1,488.1 455.5,487.7 457.8,487.7 458.1,488.1 458.1,489.2 457.8,490.7 461.9,490.7 
		461.1,489.2 461.1,486.2 459.6,484.3 453.6,484.3 451.8,486.2 451.8,497.1 453.6,498.6 457.8,498.6 458.1,498.9 458.1,506.1 
		457.8,506.4 455.5,506.4 455.1,506.1 455.1,504.9 	"/>
	<polygon class="st1" points="473.9,487.7 478.4,487.7 480.2,488.1 479.5,484.3 470.1,484.3 470.5,485.8 470.5,507.9 470.1,509.4 
		479.5,509.4 480.2,506.1 478.4,506.4 473.9,506.4 473.5,506.1 473.5,498.9 473.9,498.6 475.4,498.6 476.9,498.9 476.9,495.2 
		475.4,495.6 473.9,495.6 473.5,495.2 473.5,488.1 	"/>
	<path class="st1" d="M275.5,421.7L275.5,421.7c-1.9,0-3,0.4-3.7,1.5c-0.7,0.7-1.1,2.2-1.1,4.1c-0.4,9-2.2,18-6,26.6
		c-7.9,18-18,31.9-29.6,41.2c-3,2.2-5.6,3.7-7.5,4.9c-3,1.1-4.9,1.9-6.4,1.9l0,0c-2.6,0-4.9-1.9-7.1-5.2c-1.1-1.9-2.2-3.4-2.6-4.1
		c-1.9-3.7-3-7.9-4.1-12c-3-10.9-4.5-23.6-4.5-37.9c-0.4-23.6,2.2-48.7,7.9-74.6c4.9-23.2,11.6-43.5,19.1-60.7
		c3-6.7,6-12.4,9.4-17.2c2.2-3,4.5-4.9,6-6c0.7-0.4,1.5-0.4,1.9-0.7l0,0c1.1,0,1.9,0.4,2.6,1.1c1.5,1.9,3,4.5,3.7,7.1
		c2.2,7.1,3.7,14.2,3.7,21.7c0,3.7,0,7.5-0.4,11.2c0,0.7-0.4,3-1.1,7.9c-0.7,4.5-1.5,8.6-3,13.1c-0.4,1.5-0.4,3,0.4,3.7
		c1.1,1.5,2.2,2.2,4.1,2.6c0.4,0,1.1,0.4,1.9,0.4c2.2,0,3.7-1.1,4.9-3.4c0-0.4,0.4-1.5,0.7-3.7c0.7-4.9,1.5-9,1.9-12.4
		c0.7-4.5,0.7-9.7,0.7-15.4c0-6.7-0.7-12.7-1.9-17.6c-1.5-7.5-4.1-13.1-7.1-17.2c-3.4-4.5-7.1-6.7-11.6-6.7l0,0
		c-3,0-6.4,1.5-9.7,3.7c-2.2,1.9-4.5,4.9-7.1,8.6c-4.1,6-7.1,12.4-9.7,18.7c-18.4,45.4-27.4,90-27,134.2c0,3.7,0.4,9,0.4,15.7
		c0.7,11.6,2.6,22.5,6.4,31.9c2.2,6.4,4.9,11.2,7.9,14.2l6,6.7l0,0h7.9c3.4,0,6.4-0.7,9.4-2.2c4.1-1.5,8.2-4.5,13.1-8.2
		c8.6-7.9,15.4-15.7,20.2-23.6s9.4-17.2,13.1-27.4c2.2-6,3.4-13.1,3.7-20.6c0-1.9-0.7-3.4-1.9-4.5
		C278.5,422.1,277.4,421.7,275.5,421.7z"/>
	<path class="st1" d="M323.5,404.4c0.7-1.1,1.1-2.2,1.1-3.4c0-1.1-0.4-2.2-0.7-3.4c-0.7-1.9-2.2-3-3.7-4.1c-1.1-0.7-2.6-1.1-4.1-1.1
		l0,0c-1.1,0-1.9,0-2.2,0.4c-2.2,0.7-4.1,2.2-5.6,4.1s-3,4.5-4.1,7.5c-1.1,3-1.5,4.5-1.9,5.2c-2.2,5.2-4.1,12.7-6,21.7
		c-0.4,1.1-0.7,2.2-0.7,3.4c-0.4,1.1-0.4,2.2-0.7,3.4l0,0c0,0,0,0,0,0.4c0-0.4,0-0.7,0-1.1v-4.1c0-1.1,0-2.6,0-4.5l0.7-23.6
		c0-1.1,0-2.6,0-4.1l0.4-5.6c0-0.7,0.4-1.9,0.7-3c0.4-1.1,0.4-2.6,0.4-3.4c0-1.1-0.4-2.2-1.1-3c-0.7-0.7-1.9-1.1-3.4-1.1
		c-0.7,0-1.5,0.4-2.2,0.7c-1.1,0.7-1.9,1.5-1.9,2.2c-0.4,0.7-0.4,1.9-0.4,3.7c-0.7,10.5-1.1,20.6-1.5,30c0,0.7,0,2.2,0,3.7v11.6
		c0,3.4,0,5.6,0.4,7.5c0,1.9,0.4,3.7,0.7,4.9c0.4,1.5,1.1,2.6,1.9,3.7l1.1,0h2.2c0.4,0,1.1,0,1.5,0c2.2-0.7,4.1-2.6,5.2-6.4
		c0.4-1.9,1.1-3.7,1.5-6c0.4-2.2,0.7-3.7,1.1-4.5l1.1-4.9c1.1-5.2,2.2-9.7,3.4-13.5c1.1-3.7,2.6-7.5,4.1-10.9
		c0.4-0.7,0.7-1.5,1.1-2.2c0.4-0.7,0.7-1.1,0.7-1.9c0.4-0.4,0.4-0.7,1.1-1.5c0.4-0.4,0.7-0.7,1.1-1.1c0,0.4,0.4,1.1,0.4,1.5
		c0.4,1.1,0.4,1.9,0.7,2.2c1.1,1.5,2.6,1.9,4.5,1.9l0,0C321.7,405.9,322.8,405.6,323.5,404.4z"/>
	<path class="st1" d="M352.4,413.1c0.4,11.2,1.1,20.6,1.9,27.4c0.4,4.5,1.1,8.2,2.6,11.2c1.5,3.4,3.7,4.9,6.7,4.9l0,0
		c0.7,0,1.9,0,3-0.4c1.9-0.7,3-1.9,3-3.4c0-0.7,0-1.5-0.7-2.2c-0.7-0.7-1.5-1.1-2.2-1.1l0,0h-0.4c-1.1,0-1.9,0-1.9-0.4
		c-0.4-0.4-0.7-1.1-1.1-2.2c-1.1-5.2-1.9-10.9-1.9-16.5c0-0.7,0-2.6-0.4-5.6c-0.4-20.6-0.7-31.9-1.1-34.1c-0.7-3-2.2-4.5-4.5-4.5
		l0,0c-1.9,0-3,1.1-4.1,3.4c-0.4,0.7-0.7,1.5-0.7,1.9c0,0.7-0.4,1.1-0.4,1.5c0,0.4-0.4,0.7-0.4,1.5c0,0.4-0.4,0.7-0.7,1.1l-1.1-0.4
		c-1.5-0.7-3-1.1-4.1-1.1l0,0c-2.6,0-4.9,1.1-6.7,3.4c-1.1,1.1-2.2,3-3.7,5.6c-1.1,2.6-2.6,5.6-3.4,9c-0.4,1.5-1.1,4.1-1.9,7.5
		c-0.7,3.4-1.1,6.7-1.1,10.1c0,1.9,0.4,3.7,0.4,5.6c0,0,0.4,0.7,0.4,2.2c0.4,1.5,0.7,2.6,1.5,3.4c1.5,2.2,3.4,3.7,6,3.7l0,0
		c1.9,0,3.7-0.7,4.9-2.2c1.1-1.5,2.6-3.4,3.7-5.6c2.2-4.1,4.1-9.7,6-16.1c0.4-1.5,0.7-3,1.5-4.5C351.6,414.9,352,413.8,352.4,413.1z
		 M344.5,406.7c0,1.9,0,3.7-0.7,5.2c-2.2,8.2-4.5,15.4-7.1,21c-0.4,0.4-0.4,0.7-0.7,1.5l0,0c-0.4,0.4-0.4,0.7-1.1,1.1
		c-0.4-0.4-0.7-0.7-0.7-0.7c0-0.4,0-1.1,0-1.9s0-1.9,0-3.4c0-8.2,1.9-16.1,5.6-23.2c0.4-0.7,1.1-1.9,2.6-3.7
		c0.4-0.4,0.7-0.7,0.7-0.7h0.4c0.4,0,0.7,0.4,1.1,1.5C344.5,404.8,344.5,405.9,344.5,406.7z"/>
	<path class="st1" d="M422.9,371.5c-1.1-0.4-2.6,0-3.7,0.7s-1.9,1.9-1.9,3.4c0,1.9,1.1,3,3,3.7c0.7,0.4,1.5,0.4,1.9,0.4l0,0
		c1.1,0,1.9-0.4,2.6-0.7c0.7-0.7,1.1-1.5,1.1-2.6c0-1.1-0.4-2.2-1.1-3C424.4,372.2,423.6,371.5,422.9,371.5z"/>
	<path class="st1" d="M494.1,448.3L494.1,448.3h1.1c1.1-0.4,2.2-0.7,2.6-1.5c0.7-0.7,1.1-1.9,1.1-2.6s-0.4-1.5-0.7-1.9
		c-0.4-0.4-1.1-0.7-1.9-0.7s-1.5-0.4-1.9-0.7c-0.4-0.7-0.7-1.5-1.1-2.6c-0.7-3.7-1.5-7.5-1.9-11.2l-1.5-20.6c0-2.2-0.4-4.1-1.1-5.2
		c-0.7-1.1-1.9-1.9-3.7-1.9l0,0c-1.9,0-3.7,1.1-4.9,3c-1.5,1.9-2.6,4.1-3.7,6c-3.4,6.4-5.2,10.5-5.6,11.6l-3.7,7.9
		c0,0-0.4,0.4-0.4,0.7l0,0l0,0c-0.4,1.1-1.1,1.9-1.5,2.6c-0.4-2.6-0.4-5.2-0.4-7.5c0-3.7,0.4-6.4,0.4-7.9l0.4-5.2c0-1.5,0-3,0.4-5.6
		c0-2.2,0-4.9,0-7.5c0-0.7,0-2.2-0.4-4.1c-0.4-1.9-1.1-3.4-2.2-4.5c-1.1-1.1-2.2-1.5-3.7-1.5c-1.9,0-3.7,0.7-5.6,2.6
		c-1.1,1.1-3,3.4-5.2,6.7c-3.4,4.9-7.9,12.7-13.9,23.2l-2.2,3.4v0.4c-3,5.2-5.2,9-7.1,11.6l-0.4,0.4c-1.1,1.5-2.2,2.6-3,3.4
		c-0.4-0.7-0.7-1.5-1.1-2.2c0-1.1,0-1.5,0-1.5v-0.7c0-1.1,0-3.4-0.4-6c0-4.5,0.4-10.1,1.1-16.9c0.4-0.4,0.4-1.1,0.4-1.5
		s0-0.7-0.4-1.1c0,0,0,0,0-0.4l0.4-1.5c0.4-1.5,0.4-2.6,0.7-3.4c0-0.7,0.7-1.5,1.5-2.2c0.7-0.7,0.7-1.5,0.7-2.2
		c0-0.7-0.4-1.9-1.5-3.4s-2.2-1.9-4.1-1.9l0,0c-0.4,0-1.1,0-1.5,0c-1.9,0.4-2.6,1.9-3,4.1c-0.4,2.6-0.7,5.2-0.7,7.5v1.1v0.4
		c-0.4,0-0.4,0.4-0.7,0.4l-0.7,0.7c-1.1,0.7-2.2,0.7-3,0.7l0,0c-1.5,0-3-0.7-4.1-2.2c-0.7-3-2.6-6-4.5-9.7c0-0.4-0.4-0.7-0.7-1.9
		c-0.4-0.7-0.7-1.5-1.5-2.2c-0.7-0.7-1.5-1.1-3-1.1l0,0c-1.9,0-3,0.7-3.7,2.2s-0.7,3-0.7,5.2c0,2.2,0,3.4,0,4.1c0,3.7,0,7.1,0,10.1
		s0,5.2-0.4,7.5c-0.4,3-0.4,4.9-0.4,6.4c0,5.6-1.1,10.9-2.6,16.5c-0.4,1.5-0.7,3-1.5,4.1c-0.4,1.1-0.7,1.5-1.1,1.5
		c-0.7-0.7-1.1-1.9-1.1-3.7l0,0l0,0c0,0,0,0,0-0.4l0,0c-1.5-5.2-2.2-10.5-3-16.1c-0.4-4.5-0.4-8.6-0.7-12.7c0-5.6,0.4-13.1,1.1-21.4
		c0-0.7,0.4-1.9,0.4-3s0.4-2.2,0.4-2.6l0.4-1.5c0,0,0.4-0.4,0.4-0.7c0.4-0.4,0.4-0.4,0.4-0.7c0.7-0.7,1.1-1.5,1.1-2.6v-0.7
		c-0.4-1.1-0.7-1.9-1.9-2.6c-0.7-0.7-1.5-0.7-3-0.7c-1.5,0-2.6,0.7-3.7,1.9c-0.7,1.5-1.5,2.6-1.5,4.5c-1.1,6.7-1.5,15.7-1.5,25.9v6
		c0,1.5,0,3.4,0.4,5.6c0,2.2,0.4,3.7,0.4,4.9c0.7,6.7,1.9,12.7,3,17.6c0.4,1.9,1.1,3.7,2.2,6.4c1.5,3.4,3.7,4.9,6.4,5.2h0.4
		c2.2,0,3.7-1.1,5.2-2.6c1.1-1.9,2.2-3.7,3-6.4c1.9-5.6,3.4-11.2,3.7-17.2c1.5-4.1,1.5-8.2,1.5-12.4c0-1.5,0-3.7,0-6.4v-2.2
		c0-0.7,0-1.5,0-1.9c1.5,1.9,3,3,4.9,4.1c2.2,1.1,4.5,1.5,7.1,1.5l0,0c0.7,0,1.5,0,2.2,0c-0.4,5.2-0.7,9.4-0.7,13.1
		c0,2.6,0,4.5,0.4,5.6c0.4,3.4,0.7,5.6,1.5,7.5c0.7,1.5,1.5,3,2.6,3.7c1.1,1.1,2.6,1.5,4.1,1.5l0,0c1.5,0,3.4-0.7,5.2-1.9
		c1.1-0.7,2.2-2.2,4.1-4.1c1.9-2.6,3.7-5.6,6-9c0.4-1.1,1.1-2.2,1.9-3.4c0.7-1.1,1.5-2.6,2.6-4.5c0.4-0.7,2.2-3.7,5.2-9.4
		c4.5-7.5,7.9-12.7,10.1-16.1c0.7-0.7,1.1-1.1,1.1-1.5l0,0c0,1.1,0.4,3,0.4,4.9v6.7v0.4c-0.4,2.2-0.4,3.7-0.4,4.9
		c-0.4,7.9-0.4,13.9-0.4,18c0,1.9,0.4,3.7,0.4,5.6c0.4,1.5,1.1,2.6,1.9,3.7s2.2,1.5,3.7,1.5l0,0c1.9,0,3.7-1.1,5.2-3.4
		c1.5-1.9,3.4-4.9,5.2-8.6l3.7-8.2l4.5-9.4c0,0.4,0,1.1,0,1.5c0.4,2.6,0.4,4.9,0.4,6.4c0.4,7.9,1.1,13.9,1.9,17.6
		c0.4,2.2,1.1,4.5,1.9,6c0.7,1.1,1.5,2.2,3,3C491.5,447.9,492.6,448.3,494.1,448.3z"/>
	<path class="st1" d="M606.2,410.4c-0.7-0.7-2.2-1.5-3.4-1.5l0,0h-1.1c-1.1,0.4-4.1,1.5-8.2,4.1s-7.5,4.5-9.7,6.4l-0.4,0.4l0,0
		c-0.7-1.1-2.2-2.2-4.1-4.1c-2.2-1.9-3.7-2.6-4.5-3.4c-2.2-1.5-3-1.9-3-1.9l0,0l0,0l-3.4-2.2c-1.1-0.7-1.9-1.1-2.2-1.9
		s-0.4-0.7-0.4-0.7s0,0,0.4-0.4c0.7-0.7,1.5-1.5,1.9-1.9c4.5-3,9.4-4.5,14.2-4.9c-0.4,1.1-0.7,1.9-0.7,2.6c0,1.1,0.4,2.2,1.1,3
		c0.7,0.7,1.9,1.5,3,1.5l0,0c1.1,0,1.9-0.4,2.6-1.1c0.7-0.7,1.5-1.9,2.2-3c0.4-1.1,0.7-2.2,0.7-3.7c0-1.1,0-1.9-0.4-2.2
		c-0.7-2.2-2.2-3.4-4.1-3.7c-1.1-0.4-2.2-0.4-3.4-0.4l0,0h-1.5c-5.6,0.7-11.2,2.6-16.9,6c-1.5,1.1-2.6,1.9-3.7,3
		c-1.1,1.5-1.5,3.4-1.5,4.9s0.4,3,1.1,4.1c0.7,1.5,1.9,2.6,3,3.7c1.5,1.1,3,2.2,4.5,3.4l1.5,1.1l0,0l4.9,3.4c0.7,0.4,1.9,1.5,3.4,3
		l0.4,0.4l-0.4,0.4c-0.4,0.4-0.7,0.7-1.1,0.7l0,0l-1.9,1.5c-2.6,2.6-4.9,4.9-6,7.1c0.4-0.7,0.4-1.5,0.4-2.2s-0.4-1.5-0.7-2.2
		s-1.1-1.1-2.2-1.5c-0.7-0.4-1.5-0.4-1.9-0.4c-0.7,0-1.9,0.4-3,0.7c-1.5,0.7-3,1.5-4.5,2.6c-0.7,0.7-2.2,1.9-2.6,1.9l-0.4,0.4
		l-0.7,0.4c-0.4,0.4-0.7,0.7-1.1,0.7l-1.1-9c-1.5-13.9-3.4-26.2-5.6-36.7c-0.7-3-1.5-5.2-2.2-6.7c-1.1-2.2-3-3.4-4.5-3.4l0,0
		c-1.9,0-3.4,1.1-4.5,3c-1.1,1.9-1.9,4.1-3,6.7c-0.4,1.1-0.7,1.9-1.1,2.2c-0.4,0.4-1.1,0.7-1.9,0.7h-0.4c-2.2,0-4.9,0.7-7.9,3
		c-1.5,1.1-3,2.6-3.7,3.7c-6,7.1-10.1,16.1-12.7,26.6c-0.4,1.5-0.4,3-0.4,4.5v1.9c0.4,3.4,1.9,5.6,4.1,6.7c0.7,0.4,1.5,0.4,2.2,0.4
		l0,0c1.5,0,3.4-0.7,4.9-1.9c1.1-0.7,2.6-1.9,3.4-3.4c1.1-1.5,1.5-2.2,1.9-2.2c4.1-5.6,7.9-12.4,11.2-19.9l0.4-1.1
		c0.4-1.1,0.7-1.5,0.7-1.9c0,0,0,0.4,0.4,0.4l0,0c0,0,0,0,0.4,0.4c0,0.4,0.4,0.4,0.7,0.7c0.7,0.7,1.9,1.1,3,1.1l0,0
		c0.7,0,1.1,0,1.9-0.4c1.1-0.7,1.9-2.2,1.9-4.5c0-2.6-0.7-5.2-1.9-7.9c-0.7-1.9-1.1-3-1.1-3.4c0-1.1,0.4-2.6,1.5-3.7
		c0.4,0.7,0.4,1.5,0.4,2.6v0.4c2.6,12.7,4.5,27.4,6.4,43.9c0.4,2.2-0.4,4.1-1.9,5.6c-10.9,10.9-20.6,23.2-28.9,36.7
		c-6,9.7-10.5,19.1-13.5,27.7c-2.6,7.5-3.7,15-3.7,21.7c0,3.7,0.4,7.1,1.5,9.4c1.5,5.2,4.9,9,9.4,10.9c1.5,0.7,3.4,1.1,5.6,1.1l0,0
		c2.6,0,5.2-0.7,7.5-1.9c3-1.5,6-3.4,8.6-6c3.4-3.4,6.7-7.5,9.7-12.7c3.4-6.7,6.4-13.9,8.2-21.7c3-12.4,4.9-24.7,5.2-37.5
		c0.4-3.4,0.4-7.5,0.4-13.1c0-4.5,0-7.9-0.4-10.1c0-0.7,0-1.5,0-2.2c0-0.4,0.4-1.1,0.7-1.5l3.4-3c1.9-1.9,3.4-3,4.5-4.1
		c1.1-0.7,2.6-1.1,4.1-1.5c0.7,0,1.5-0.4,1.9-0.7c-0.7,1.1-1.5,2.6-1.9,3.7s-0.4,2.2-0.4,3c0,1.5,0.4,3,1.1,4.1
		c1.1,1.9,2.6,3,4.5,3.4h0.4h0.7c4.1,0,7.5-1.9,10.5-6c2.6-3.4,3.7-7.1,3.7-11.2c0-1.5,0-3-0.4-4.1c0-0.4,0-0.7,0-1.1c0,0,0,0,0-0.4
		l0.7-0.4l2.2-1.5c3.7-2.6,7.1-4.5,10.9-6h0.4c1.1-0.4,1.9-0.7,2.2-0.7c0.4,0,0.7,0,0.7,0c1.1,0.4,1.9,0.4,2.2-0.4
		c0.7-0.4,1.5-1.1,1.5-2.2C608.1,413.1,607.7,411.6,606.2,410.4z M572.9,440.4C572.9,440.4,573.2,440.1,572.9,440.4
		c0.4-1.1,0.7-2.2,1.9-3.7c1.5-2.2,3.7-4.5,6.4-6.7v1.1c0,2.2-1.1,4.5-3,6.4l-2.6,3H572.9C573.2,440.4,573.2,440.4,572.9,440.4
		L572.9,440.4L572.9,440.4z M547,458.1c0,18.4-1.9,35.2-6,49.5c-1.9,6.7-4.5,13.1-7.9,19.1c-3,5.2-6.4,9.7-10.9,12.7l0,0
		c-2.2,1.9-4.5,3-6.7,3.4c-0.4,0.4-1.1,0.4-2.2,0.4l0,0c-2.6,0-4.9-1.5-6.4-4.5c-1.1-2.6-1.9-5.6-1.9-9.4c0-5.2,0.7-10.5,2.2-15.7
		c2.2-8.6,6.7-18,12.4-27.7c7.1-11.6,15.7-23.2,25.5-34.1v-0.4c0.4,0,0.7-0.4,0.7-0.4v0.4L547,458.1z M511.4,424.7
		c1.9-8.6,5.6-15.7,10.5-22.1c1.9-2.2,3.4-3.4,5.2-4.1h0.4v0.4l-1.5,3.7c-3,8.6-7.1,16.1-12.4,22.9l-0.4,0.4
		c-0.7,1.1-1.5,2.2-2.2,2.6c0-0.4,0-0.7,0-0.7c0-0.4,0-0.7,0.4-1.5c0-0.7,0.4-1.1,0.4-1.1L511.4,424.7z"/>
	<path class="st1" d="M465.3,540.5c-2.2-0.7-4.9-1.5-7.9-2.2c-5.6-1.1-11.2-1.9-16.5-2.2c-5.6-0.7-12.4-1.1-20.2-1.9
		c-26.2-1.5-54,0.4-82.5,6l-10.9,2.2c-1.9,0.7-2.6,1.9-3,3c0,0.7,0,1.5,0,2.2c0.4,1.5,1.1,2.2,2.6,2.6c0.4,0,1.5,0,2.6,0
		c10.5-2.2,18.7-4.1,25.1-5.2c25.1-3.7,48-4.9,68.2-3.4c14.2,1.1,25.9,2.6,34.5,4.5c2.2,0.4,4.1,1.1,5.6,1.5
		c1.1,0.4,2.6,1.1,3.7,2.2l1.5,0.7h0.4c0.7,0,1.1-0.4,1.5-0.7c0.4-0.4,0.7-1.1,1.1-2.2c0.4-1.5,0-3-1.1-4.1
		C469,542,467.5,541.3,465.3,540.5z"/>
	<path class="st1" d="M308.9,492.9c-1.1-0.4-2.6,0-3.7,0.7s-1.9,1.9-1.9,3.4c0,1.9,1.1,3,3,3.7c0.7,0.4,1.5,0.4,1.9,0.4l0,0
		c1.1,0,1.9-0.4,2.6-0.7c0.7-0.7,1.1-1.5,1.1-2.6c0-1.1-0.4-2.2-1.1-3C310.4,493.7,309.7,493.3,308.9,492.9z"/>
	<path class="st1" d="M494.5,492.9c-1.1-0.4-2.6,0-3.7,0.7s-1.9,1.9-1.9,3.4c0,1.9,1.1,3,3,3.7c0.7,0.4,1.5,0.4,1.9,0.4l0,0
		c1.1,0,1.9-0.4,2.6-0.7c0.7-0.7,1.1-1.5,1.1-2.6c0-1.1-0.4-2.2-1.1-3C496,493.7,495.2,493.3,494.5,492.9z"/>
</g>
</svg>
