<?xml version="1.0" encoding="utf-8"?>
<!-- Generator: Adobe Illustrator 24.2.1, SVG Export Plug-In . SVG Version: 6.00 Build 0)  -->
<svg version="1.1" id="Layer_1" xmlns="http://www.w3.org/2000/svg" xmlns:xlink="http://www.w3.org/1999/xlink" x="0px" y="0px"
	 viewBox="0 0 800 800" style="enable-background:new 0 0 800 800;" xml:space="preserve">
<style type="text/css">
	.st0{fill-rule:evenodd;clip-rule:evenodd;fill:#FFFFFF;}
	.st1{fill:#F48020;}
</style>
<rect x="-0.4" y="-0.5" class="st0" width="801.5" height="801.5"/>
<g>
	<g>
		<g>
			<path class="st1" d="M157.4,519.5c-0.3-0.3-0.3-0.3-0.3-0.7v-55.3c0-0.3,0-0.3,0.3-0.7c0.3-0.3,0.3-0.3,0.7-0.3H172
				c4.5,0,8.4,1.4,11.1,4.2c2.8,2.8,4.2,6.6,4.2,11.5v26.1c0,4.9-1.4,8.7-4.2,11.5c-2.8,2.8-6.6,4.2-11.1,4.2h-13.9
				C157.8,519.8,157.4,519.5,157.4,519.5z M166.8,511.5h4.9c1.7,0,3.1-0.7,4.5-2.1c1-1.4,1.7-3.5,1.7-5.9v-24.7
				c0-2.4-0.7-4.5-1.7-5.9c-1-1.4-2.8-2.1-4.5-2.1h-4.9c-0.3,0-0.3,0-0.3,0.3v40C166.5,511.5,166.8,511.5,166.8,511.5z"/>
			<path class="st1" d="M197.8,519.5c-0.3-0.3-0.3-0.3-0.3-0.7v-55.3c0-0.3,0-0.3,0.3-0.7c0.3-0.3,0.3-0.3,0.7-0.3h7.7
				c0.3,0,0.3,0,0.7,0.3c0.3,0.3,0.3,0.3,0.3,0.7v55.3c0,0.3,0,0.3-0.3,0.7s-0.3,0.3-0.7,0.3h-7.7
				C198.1,519.8,197.8,519.5,197.8,519.5z"/>
			<path class="st1" d="M245.5,470.4c-0.3,0.3-0.3,0.3-0.7,0.3H227c-0.3,0-0.3,0-0.3,0.3v15.3c0,0.3,0,0.3,0.3,0.3h10.4
				c0.3,0,0.3,0,0.7,0.3c0.3,0.3,0.3,0.3,0.3,0.7v6.3c0,0.3,0,0.3-0.3,0.7c-0.3,0.3-0.3,0.3-0.7,0.3H227c-0.3,0-0.3,0-0.3,0.3v15.7
				c0,0.3,0,0.3,0.3,0.3h17.8c0.3,0,0.3,0,0.7,0.3c0.3,0.3,0.3,0.3,0.3,0.7v6.3c0,0.3,0,0.3-0.3,0.7c-0.3,0.3-0.3,0.3-0.7,0.3h-26.5
				c-0.3,0-0.3,0-0.7-0.3s-0.3-0.3-0.3-0.7v-55.3c0-0.3,0-0.3,0.3-0.7c0.3-0.3,0.3-0.3,0.7-0.3h26.5c0.3,0,0.3,0,0.7,0.3
				c0.3,0.3,0.3,0.3,0.3,0.7v6.3C245.8,469.7,245.8,470,245.5,470.4z"/>
			<path class="st1" d="M275.1,516.3c-2.8-2.8-4.2-6.3-4.2-10.8v-2.1c0-0.3,0-0.3,0.3-0.7c0.3-0.3,0.3-0.3,0.7-0.3h7.3
				c0.3,0,0.3,0,0.7,0.3c0.3,0.3,0.3,0.3,0.3,0.7v1.7c0,2.1,0.7,3.8,1.7,5.2c1,1.4,2.4,2.1,4.2,2.1c1.7,0,3.1-0.7,4.2-1.7
				c1-1.4,1.7-2.8,1.7-4.9c0-1.4-0.3-2.8-1-3.8c-0.7-1-1.4-2.1-2.4-2.8c-1-1-2.8-2.4-5.2-4.2c-2.8-2.1-4.9-3.8-6.6-5.2
				c-1.7-1.4-3.1-3.5-4.2-5.6c-1-2.1-1.7-4.5-1.7-7.7c0-4.5,1.4-8,4.2-10.8c2.8-2.8,6.3-4.2,10.8-4.2c4.5,0,8.4,1.4,11.1,4.2
				s4.2,6.6,4.2,11.1v2.1c0,0.3,0,0.3-0.3,0.7c-0.3,0.3-0.3,0.3-0.7,0.3h-7.3c-0.3,0-0.3,0-0.7-0.3c-0.7-0.3-0.7-0.3-0.7-0.7V477
				c0-2.1-0.7-3.8-1.7-5.2s-2.4-2.1-4.2-2.1c-1.7,0-3.1,0.7-4.2,1.7c-1,1-1.4,2.8-1.4,4.9s0.7,3.5,1.7,4.9c1,1.4,3.5,3.1,6.6,5.6
				c3.5,2.4,5.9,4.5,7.7,5.9c1.7,1.4,3.1,3.1,3.8,5.2c1,1.7,1.4,4.2,1.4,6.6c0,4.5-1.4,8.4-4.2,11.1c-2.8,2.8-6.6,4.2-11.1,4.2
				C281.7,520.2,277.9,519.1,275.1,516.3z"/>
			<path class="st1" d="M331.8,518.8l-1.4-8.7c0-0.3,0-0.3-0.3-0.3h-11.8c-0.3,0-0.3,0-0.3,0.3l-1.4,8.7c0,0.7-0.3,1-1,1h-7.3
				c-0.7,0-1-0.3-1-1l12.2-55.3c0-0.7,0.3-1,1-1h8.7c0.7,0,1,0.3,1,1l12.2,55.3v0.3c0,0.3-0.3,0.7-1,0.7h-7.7
				C332.2,519.8,331.8,519.5,331.8,518.8z M319.3,502.4h9.1c0.3,0,0.3,0,0.3-0.3l-4.9-25.8c0,0,0-0.3-0.3-0.3c0,0-0.3,0-0.3,0.3
				l-4.5,25.8C318.9,502.1,318.9,502.4,319.3,502.4z"/>
			<path class="st1" d="M348.9,519.5c-0.3-0.3-0.3-0.3-0.3-0.7v-55.3c0-0.3,0-0.3,0.3-0.7c0.3-0.3,0.3-0.3,0.7-0.3h7.7
				c0.3,0,0.3,0,0.7,0.3c0.3,0.3,0.3,0.3,0.3,0.7v47.7c0,0.3,0,0.3,0.3,0.3h17.8c0.3,0,0.3,0,0.7,0.3c0.3,0.3,0.3,0.3,0.3,0.7v6.3
				c0,0.3,0,0.3-0.3,0.7c-0.3,0.3-0.3,0.3-0.7,0.3h-26.5C349.6,519.8,349.2,519.5,348.9,519.5z"/>
			<path class="st1" d="M382.3,519.5c-0.3-0.3-0.3-0.3-0.3-0.7v-6.6c0-0.3,0-0.7,0.3-1.4l18.4-40v-0.3c0,0,0,0-0.3,0H383
				c-0.3,0-0.3,0-0.7-0.3c-0.3,0-0.3-0.3-0.3-0.3v-6.3c0-0.3,0-0.3,0.3-0.7c0.3-0.3,0.3-0.3,0.7-0.3h26.8c0.3,0,0.3,0,0.7,0.3
				c0.3,0.3,0.3,0.3,0.3,0.7v6.6c0,0.3,0,0.7-0.3,1.4l-18.4,40v0.3c0,0,0,0,0.3,0h17.4c0.3,0,0.3,0,0.7,0.3c0.3,0.3,0.3,0.3,0.3,0.7
				v6.3c0,0.3,0,0.3-0.3,0.7c-0.3,0.3-0.3,0.3-0.7,0.3H383C382.6,519.8,382.3,519.5,382.3,519.5z"/>
			<path class="st1" d="M422.3,516.3c-2.8-2.8-4.2-6.3-4.2-10.8v-28.9c0-4.5,1.4-8,4.2-10.8s6.6-4.2,11.1-4.2
				c4.5,0,8.4,1.4,11.1,4.2s4.2,6.3,4.2,10.8v3.1c0,0.3,0,0.3-0.3,0.7s-0.3,0.3-0.7,0.3h-7.7c-0.3,0-0.3,0-0.7-0.3s-0.3-0.3-0.3-0.7
				v-3.5c0-2.1-0.7-3.5-1.7-4.9c-1-1-2.4-1.7-4.5-1.7c-1.7,0-3.1,0.7-4.2,1.7s-1.7,2.8-1.7,4.9v29.2c0,2.1,0.7,3.5,1.7,4.9
				c1,1,2.4,1.7,4.2,1.7c1.7,0,3.1-0.7,4.5-1.7c1-1,1.7-2.8,1.7-4.9v-8c0-0.3,0-0.3-0.3-0.3h-4.5c-0.3,0-0.3,0-0.7-0.3
				c-0.3-0.3-0.3-0.3-0.3-0.7v-5.9c0-0.3,0-0.3,0.3-0.7c0.3-0.3,0.3-0.3,0.7-0.3h13.9c0.3,0,0.3,0,0.7,0.3c0.3,0.3,0.3,0.3,0.3,0.7
				v15.3c0,4.5-1.4,8-4.2,10.8c-2.8,2.8-6.6,4.2-11.1,4.2C428.9,520.2,425.1,519.1,422.3,516.3z"/>
			<path class="st1" d="M480.1,518.8l-7-23.3c0-0.3-0.3-0.3-0.3-0.3h-4.2c-0.3,0-0.3,0-0.3,0.3v23.3c0,0.3,0,0.3-0.3,0.7
				c-0.3,0.3-0.3,0.3-0.7,0.3h-7.7c-0.3,0-0.3,0-0.7-0.3c-0.3-0.3-0.3-0.3-0.3-0.7v-55.3c0-0.3,0-0.3,0.3-0.7
				c0.3-0.3,0.3-0.3,0.7-0.3h15.3c2.8,0,5.6,0.7,7.7,2.1c2.1,1.4,3.8,3.5,5.2,5.9s1.7,5.6,1.7,8.7c0,3.5-0.7,6.3-2.1,8.7
				s-3.1,4.2-5.6,5.6c-0.3,0-0.3,0.3-0.3,0.3l8,24.7v0.3c0,0.3-0.3,0.7-1,0.7h-8C480.8,519.8,480.4,519.5,480.1,518.8z M468.3,471.1
				v16.4c0,0.3,0,0.3,0.3,0.3h4.9c2.1,0,3.5-0.7,4.9-2.4c1.4-1.4,1.7-3.5,1.7-6.3c0-2.8-0.7-4.9-1.7-6.3c-1.4-1.4-2.8-2.4-4.9-2.4
				h-4.9C468.3,470.7,468.3,470.7,468.3,471.1z"/>
			<path class="st1" d="M501.3,516c-2.8-2.8-4.2-6.6-4.2-11.1v-27.5c0-4.5,1.4-8.4,4.2-11.1c2.8-2.8,6.6-4.2,11.5-4.2
				c4.5,0,8.4,1.4,11.5,4.2c2.8,2.8,4.2,6.6,4.2,11.1v27.5c0,4.5-1.4,8.4-4.2,11.1c-2.8,2.8-6.6,4.2-11.5,4.2
				C507.9,520.2,504.1,518.8,501.3,516z M517,510.1c1-1.4,1.7-3.1,1.7-4.9V477c0-2.1-0.7-3.8-1.7-4.9c-1-1.4-2.8-2.1-4.5-2.1
				c-1.7,0-3.5,0.7-4.5,2.1c-1,1.4-1.7,3.1-1.7,4.9v28.2c0,2.1,0.7,3.8,1.7,4.9c1,1.4,2.4,2.1,4.5,2.1
				C514.6,512.2,516,511.5,517,510.1z"/>
			<path class="st1" d="M567.8,462.7c0.3,0.3,0.3,0.3,0.3,0.7v6.3c0,0.3,0,0.3-0.3,0.7c-0.3,0.3-0.3,0.3-0.7,0.3h-10.4
				c-0.3,0-0.3,0-0.3,0.3v47.7c0,0.3,0,0.3-0.3,0.7c-0.3,0.3-0.3,0.3-0.7,0.3h-7.7c-0.3,0-0.3,0-0.7-0.3c-0.3-0.3-0.3-0.3-0.3-0.7
				v-47.7c0-0.3,0-0.3-0.3-0.3h-9.7c-0.3,0-0.3,0-0.7-0.3s-0.3-0.3-0.3-0.7v-6.3c0-0.3,0-0.3,0.3-0.7c0.3-0.3,0.3-0.3,0.7-0.3h30.6
				C567.5,462.4,567.8,462.4,567.8,462.7z"/>
			<path class="st1" d="M606.5,462.7c0.3,0.3,0.3,0.3,0.3,0.7v6.3c0,0.3,0,0.3-0.3,0.7c-0.3,0.3-0.3,0.3-0.7,0.3h-10.4
				c-0.3,0-0.3,0-0.3,0.3v47.7c0,0.3,0,0.3-0.3,0.7c-0.3,0.3-0.3,0.3-0.7,0.3h-7.7c-0.3,0-0.3,0-0.7-0.3c-0.3-0.3-0.3-0.3-0.3-0.7
				v-47.7c0-0.3,0-0.3-0.3-0.3h-9.7c-0.3,0-0.3,0-0.7-0.3c-0.3-0.3-0.3-0.3-0.3-0.7v-6.3c0-0.3,0-0.3,0.3-0.7
				c0.3-0.3,0.3-0.3,0.7-0.3h30.6C606.1,462.4,606.5,462.4,606.5,462.7z"/>
			<path class="st1" d="M643.4,470.4c-0.3,0.3-0.3,0.3-0.7,0.3h-17.8c-0.3,0-0.3,0-0.3,0.3v15.3c0,0.3,0,0.3,0.3,0.3h10.4
				c0.3,0,0.3,0,0.7,0.3c0.3,0.3,0.3,0.3,0.3,0.7v6.3c0,0.3,0,0.3-0.3,0.7c-0.3,0.3-0.3,0.3-0.7,0.3h-10.4c-0.3,0-0.3,0-0.3,0.3
				v15.7c0,0.3,0,0.3,0.3,0.3h17.8c0.3,0,0.3,0,0.7,0.3c0.3,0.3,0.3,0.3,0.3,0.7v6.3c0,0.3,0,0.3-0.3,0.7c-0.3,0.3-0.3,0.3-0.7,0.3
				h-26.5c-0.3,0-0.3,0-0.7-0.3s-0.3-0.3-0.3-0.7v-55.3c0-0.3,0-0.3,0.3-0.7c0.3-0.3,0.3-0.3,0.7-0.3h26.5c0.3,0,0.3,0,0.7,0.3
				c0.3,0.3,0.3,0.3,0.3,0.7v6.3C643.7,469.7,643.7,470,643.4,470.4z"/>
		</g>
		<g>
			<path class="st1" d="M267.4,557.4h-3.8l-1.7-11.1l-5.2,11.1h-1l-5.2-11.1l-1.7,11.1h-3.8l2.8-17.1h3.8l4.5,10.4l4.5-10.4h3.8
				L267.4,557.4z"/>
			<path class="st1" d="M278.9,554.3h7v3.5h-10.4v-17.1h10.4v3.5h-6.6v3.5h5.9v3.5h-5.9v3.1H278.9z"/>
			<path class="st1" d="M293.9,557.4v-17.1h3.8v17.1H293.9z"/>
			<path class="st1" d="M317.2,540.3h3.5v17.1h-3.1l-7.7-10.8v10.8h-3.5v-17.1h3.5l7.7,10.4v-10.4H317.2z"/>
			<path class="st1" d="M351.7,540.3v3.5h-4.9v13.6h-3.8v-13.6h-4.9v-3.5H351.7z"/>
			<path class="st1" d="M368.7,557.4l-1-3.1h-7l-1,3.1h-3.8l6.6-17.1h3.5l7,17.1H368.7z M364.2,544.9l-2.1,6.3h4.5L364.2,544.9z"/>
			<path class="st1" d="M386.8,548.7h9.1c0,1.7-0.3,3.5-1,4.9c-0.7,1.4-1.7,2.4-3.1,3.5c-1.4,0.7-2.8,1-4.5,1
				c-1.4,0-2.4-0.3-3.5-0.7s-2.1-1-2.8-1.7c-0.7-0.7-1.4-1.7-1.7-2.8c-0.3-1-0.7-2.4-0.7-3.5c0-1.4,0.3-2.4,0.7-3.5
				c0.3-1,1-2.1,1.7-2.8c0.7-0.7,1.7-1.4,2.8-1.7s2.4-0.7,3.5-0.7c1.4,0,2.8,0.3,3.8,0.7c1.4,0.7,2.1,1.4,3.1,2.4
				c0.7,1,1.4,2.1,1.7,3.5H392c-0.3-1-1-1.7-1.7-2.1c-0.7-0.7-1.7-0.7-2.8-0.7c-1.4,0-2.8,0.3-3.8,1.4c-1,1-1.4,2.4-1.4,3.8
				c0,1.7,0.3,2.8,1.4,3.8s2.1,1.4,3.8,1.4c1,0,2.1-0.3,3.1-0.7c1-0.7,1.4-1.4,1.7-2.1h-5.2v-3.5H386.8z"/>
			<path class="st1" d="M425.1,557.4l-1-3.1h-7l-1,3.1h-3.8l6.6-17.1h3.5l7,17.1H425.1z M420.6,544.9l-2.1,6.3h4.5L420.6,544.9z"/>
			<path class="st1" d="M457.5,557.4h-3.8l-1.7-11.1l-5.2,11.1h-1l-5.2-11.1l-1.7,11.1h-3.8l2.8-17.1h3.8l4.5,10.4l4.5-10.4h3.8
				L457.5,557.4z"/>
			<path class="st1" d="M496.8,557.4h-3.5l-1.7-11.1l-5.2,11.1h-1l-5.2-11.1l-1.7,11.1h-3.8l2.8-17.1h3.8l4.5,10.4l4.5-10.4h3.8
				L496.8,557.4z"/>
			<path class="st1" d="M508.3,554.3h7v3.5h-10.4v-17.1h10.4v3.5h-6.6v3.5h5.9v3.5h-5.9v3.1H508.3z"/>
			<path class="st1" d="M527.1,554.3h7v3.5h-10.4v-17.1h10.4v3.5h-6.6v3.5h5.9v3.5h-5.9v3.1H527.1z"/>
			<path class="st1" d="M551.5,557.4l-3.5-5.9h-2.4v5.9h-3.5v-17.1h7c1.7,0,3.1,0.7,4.2,1.7s1.7,2.4,1.7,4.2c0,1-0.3,2.1-0.7,3.1
				c-0.7,1-1.4,1.4-2.4,2.1l3.8,6.6h-4.2V557.4z M545.5,543.8v4.5h3.1c0.7,0,1.4-0.3,1.7-0.7c0.3-0.3,0.7-1,0.7-1.7
				c0-0.7-0.3-1-0.7-1.7c-0.3-0.3-1-0.7-1.7-0.7h-3.1V543.8z"/>
		</g>
		<g>
			<rect x="578.6" y="549.7" class="st1" width="16.7" height="1.7"/>
			<rect x="205.4" y="549.7" class="st1" width="16.7" height="1.7"/>
		</g>
	</g>
	<g>
		<g>
			<path class="st1" d="M483.6,281.4v-11.8c1-0.7,1.7-1,1.7-1c1-1,1.4-2.4,0.7-3.8L466.5,233c-0.7-1.4-2.4-1.7-3.8-1
				c-0.3,0.3-1,0.7-1,1l-8,12.9c-15.7-11.1-33.8-16.7-53.3-16.7c-40.7,0-75.5,26.5-87.7,63.4l0,0l0,0l0,0l0,0
				c-2.8,8.4-4.5,17.4-4.5,26.8c0,0.7,0,1.4,0,2.1c0,1.4,0,2.4,0,3.5c0,0.3,0,0.7,0,1.4c0.3,8,1.7,15.7,4.2,23
				c0.7,2.4,1.4,4.5,2.4,6.6c1,2.4,2.1,4.5,3.1,7c1.7,3.5,3.8,7,5.9,10.1c1.4,2.1,2.8,3.8,4.2,5.9c1.7,2.4,3.8,4.5,5.9,7
				c5.2,5.6,11.1,10.4,17.8,14.3c1.4,0.7,2.8,1.7,4.2,2.4c13.6,7.7,28.9,11.5,44.6,11.5c13.6,0,26.5-2.8,38.6-8.4
				c4.5-2.1,8.7-4.5,12.5-7c24.4-16,39.7-43.2,41.1-72.1c0-1.4,0-3.1,0-4.5C492.6,307.1,489.5,293.5,483.6,281.4z M464.1,239.6
				l15.7,25.1c-2.8,1.4-7.7,3.1-15.7,3.1c-7.7,0-12.9-1.7-15.7-3.1L464.1,239.6z M368.7,372.9c2.1-1,4.5-1.7,7-1.7
				c5.6,0,10.8-2.1,14.6-5.9l8.7-8.7c1.4-1.4,3.5-2.4,5.6-2.4l0,0c3.5,0,5.9,3.5,4.5,7l-6.3,14.6c-0.3,1-1.4,1.7-2.4,1.7l0,0
				c-3.8,0-5.6-0.7-7.7-1.4c-2.1-1-4.9-1.7-9.7-1.7c-4.9,0-7.3,1-9.7,1.7c-2.1,0.7-3.8,1.4-7.7,1.4l0,0c-0.7,0-1.4-1-0.7-1.4
				C366.3,374.7,367.7,373.6,368.7,372.9z M358.6,375l-0.3,0.7h-0.3c-2.8-1-4.5-3.8-4.2-6.6c2.1-15.7,12.2-28.9,26.1-35.2
				c8.4-3.8,17.8,2.4,17.8,11.5l0,0c0,3.5-1.4,6.6-3.8,8.7l-7.3,7.3c-2.8,2.8-6.6,4.2-10.4,4.2c-3.5,0-7,1-10.1,2.4
				C363.1,369.4,360.4,371.9,358.6,375z M417.8,311.6c-1.7,0.7-4.5,1.7-9.4,1.7c-2.1,0-3.8-0.3-5.2-0.3c-1.7-0.3-3.1-1-4.2-1.4
				l4.2-6.3l5.2-8.4L417.8,311.6z M416,268.8l9.4-14.6l9.4,14.6c-1.7,0.7-4.5,1.7-9.4,1.7C420.9,270.6,417.8,269.5,416,268.8z
				 M427.5,346.5L427.5,346.5c7.7,0,12.2,8.4,8,15l-6.3,9.4c-1.7,2.8-4.9,4.2-8,3.5c-1,0-2.1-0.3-3.5-0.3c-1,0-2.4,0-3.1,0
				c-2.1,0.3-3.5-1.7-2.8-3.8l8.4-19.1C421.3,348.2,424.1,346.5,427.5,346.5z M423,340.5v-3.1h28.2l-2.1,3.1H423z M422.3,331.5
				c-2.8,0-4.9,2.1-4.9,4.9v6.3l-2.4,5.6h-11.5v-24c0-2.8,2.1-4.9,4.9-4.9l0,0c2.4,0,4.2-0.3,5.9-0.3v2.4c0,3.1,2.8,5.9,5.9,5.9
				v-10.1c2.4-1.4,3.5-2.4,3.8-2.8c0.7-1,0.7-2.4,0-3.5c-2.4-3.5-3.1-8-3.1-12.2v-17.4c0-2.8,2.1-4.9,4.9-4.9l0,0
				c2.1,0,4.2,0,5.6-0.3l0,0v29.6c0,3.1,2.8,5.9,5.9,5.9v-23.3c3.8,0,7,3.1,7,7v29.9c3.1,0,5.9-2.8,5.9-5.9v-32
				c0-7.3,5.9-13.6,13.6-13.6h0.3c3.1,0,8,0,13.9-2.1l0,0v50.5h-5.6c-7,0-13.2,3.5-17.1,9.1h-33.1V331.5z M330.8,372.2
				c-2.8-3.8-5.6-8.4-7.7-12.5c-0.3-0.7-0.7-1.4-1-2.1l19.5,5.2c0.3,0,0.3,0,0.3-0.3l1.4-4.9c0-0.3,0-0.3-0.3-0.3l-23.7-7
				c-2.4-7-4.2-13.9-4.9-21.2l32.4,18.4c0.3,0,0.3,0,0.7,0l2.4-4.2c0-0.3,0-0.3,0-0.7l-35.9-20.5c0-0.3,0-0.7,0-1
				c0-8.4,1-16.4,3.5-24l0,0l37.9,37.9c0,0,0.3,0,0.7,0l3.5-3.5c0,0,0-0.3,0-0.7l-40-40.4c3.5-9.1,8-17.1,14.3-24.4l0,0l33.8,58.5
				c0,0.3,0.3,0.3,0.7,0l4.5-2.4c0.3,0,0.3-0.3,0-0.7l-34.8-60.2l0,0c7-7.3,15-13.2,24-17.8l19.8,74.5c0,0.3,0.3,0.3,0.3,0.3
				l4.9-1.4c0.3,0,0.3-0.3,0.3-0.3L367.3,241c9.4-3.8,19.5-6.3,29.9-6.6c0,19.5,0,39.3,0,58.8c0,0.3,0.7,0.7,0.7,0.3l4.9-8.4
				c0,0,0,0,0-0.3v-50.5c17.4,0.3,33.8,5.9,47.7,16l-8.7,13.9c-0.7,1.4-0.3,2.8,0.7,3.8c0,0,0.7,0.3,1.7,1v12.9h-7v-8
				c2.8-1.4,3.8-2.8,4.2-3.1c0.7-1,0.7-2.4,0-3.5l-13.2-20.9c-0.7-0.7-1.4-1.4-2.4-1.4s-2.1,0.3-2.4,1.4l-13.2,20.9
				c-0.7,1-0.7,2.4,0,3.5c0.3,0.3,1.7,2.1,4.9,3.5l0,0v21.9l0,0l-4.2-6.6c-0.7-0.7-1.4-1.4-2.4-1.4c-1,0-2.1,0.3-2.4,1.4l-3.1,4.9
				l-5.9,9.1l-4.5,7.3c-0.7,1-0.7,2.4,0,3.5c0.3,0.3,1.7,2.1,4.9,3.5v5.9c-27.5,0.3-49.8,23-50.1,50.1c-3.1,0-5.2,0.7-7,1.4v-2.8
				c0-0.3-0.3-0.3-0.3-0.3H330.8z M447.4,393.5L447.4,393.5c-3.5,2.4-7.3,4.5-11.1,6.3c-11.5,5.2-23.3,8-36.2,8
				c-14.6,0-29.2-3.8-41.8-10.8c-1.4-0.7-2.8-1.4-3.8-2.4c-0.3-0.3-1-0.7-1.4-1l0,0l0,0c1,0.3,2.1,0.7,3.1,1c2.1,1,4.9,1.7,9.7,1.7
				c4.9,0,7.3-1,9.7-1.7c2.1-0.7,3.8-1.4,7.7-1.4c3.8,0,5.6,0.7,7.7,1.4c2.1,1,4.9,1.7,9.7,1.7s7.3-1,9.7-1.7
				c2.1-0.7,3.8-1.4,7.7-1.4c3.8,0,5.6,0.7,7.7,1.4c2.1,1,4.9,1.7,9.7,1.7c4.9,0,7.3-1,9.7-1.7C445.3,393.8,446.3,393.5,447.4,393.5
				L447.4,393.5z M461.6,382c-1.7,1.7-3.8,3.5-5.9,5.2l0,0c-1,0-2.4-0.3-3.8-0.3c-4.9,0-7.3,1-9.7,1.7c-2.1,0.7-3.8,1.4-7.7,1.4
				c-3.8,0-5.6-0.7-7.7-1.4c-2.1-1-4.9-1.7-9.7-1.7c-4.9,0-7.3,1-9.7,1.7c-2.1,0.7-3.8,1.4-7.7,1.4s-5.6-0.7-7.7-1.4
				c-2.1-1-4.9-1.7-9.7-1.7s-7.3,1-9.7,1.7c-2.1,0.7-3.8,1.4-7.7,1.4c-3.8,0-5.6-0.7-7.7-1.4c-2.1-1-4.9-1.7-9.7-1.7
				c-1.4,0-2.8,0-3.8,0.3l0,0c-2.1-1.7-3.8-3.5-5.9-5.2l0,0c0.7-0.3,1.4-0.3,2.1-0.7c2.1-0.7,3.8-1.4,7.7-1.4c0.3,0,1,0,1.4,0
				c2.8,0,4.2,0.7,5.9,1.4c0.7,0.3,1.4,0.3,2.1,0.7c2.4,0.7,4.9,1,7.7,1c4.9,0,7.3-1,9.7-1.7c2.1-0.7,3.8-1.4,7.7-1.4
				c3.8,0,5.6,0.7,7.7,1.4c2.1,1,4.9,1.7,9.7,1.7s7.3-1,9.7-1.7c2.1-0.7,3.8-1.4,7.7-1.4s5.6,0.7,7.7,1.4c0.3,0,0.7,0.3,1,0.3
				c2.1,0.7,4.5,1.4,8.7,1.4c4.9,0,7.3-1,9.7-1.7c2.1-0.7,3.8-1.4,7.7-1.4c3.8,0,5.6,0.7,7.7,1.4C460.3,381.6,461,381.6,461.6,382
				L461.6,382z M466.2,377.1c-1.7-0.3-3.1-0.7-4.5-1.4c-2.1-1-4.9-1.7-9.7-1.7s-7.3,1-9.7,1.7c-2.1,0.7-3.8,1.4-7.7,1.4l0,0
				c-1.4,0-2.1-1.4-1.4-2.4l25.8-38.6l0.7-1.4c2.8-4.2,7.3-6.6,12.2-6.6l0,0c8,0,13.6,7.7,11.5,15.3
				C480.4,355.9,474.2,367.3,466.2,377.1z M486.7,322.4h-3.1v-24.4c2.1,7.3,3.1,15,3.1,23C486.7,321.4,486.7,322.1,486.7,322.4z"/>
			<path class="st1" d="M475.9,282.8c0-2.1-1.7-3.5-3.8-2.8c-1.4,0.3-2.1,1.7-2.1,2.8v5.9h5.9V282.8z"/>
			<path class="st1" d="M467.9,294.9c0-2.1-1.7-3.5-3.8-2.8c-1.4,0.3-2.1,1.7-2.1,2.8v5.9h5.9V294.9z"/>
			<path class="st1" d="M459.9,307.8c0-2.1-1.7-3.5-3.8-2.8c-1.4,0.3-2.1,1.7-2.1,2.8v5.9h5.9V307.8z"/>
			<path class="st1" d="M425.1,284.5c-1.4,0.3-2.1,1.7-2.1,2.8v5.9h5.9v-5.9C428.9,285.2,427.2,283.8,425.1,284.5z"/>
			<path class="st1" d="M407.7,327.3c-1.4,0.3-2.1,1.7-2.1,2.8v5.9h5.9v-5.9C411.5,328,409.8,326.6,407.7,327.3z"/>
		</g>
	</g>
</g>
</svg>
