<?xml version="1.0" encoding="utf-8"?>
<!-- Generator: Adobe Illustrator 24.2.1, SVG Export Plug-In . SVG Version: 6.00 Build 0)  -->
<svg version="1.1" id="Layer_1" xmlns="http://www.w3.org/2000/svg" xmlns:xlink="http://www.w3.org/1999/xlink" x="0px" y="0px"
	 viewBox="0 0 800 800" style="enable-background:new 0 0 800 800;" xml:space="preserve">
<style type="text/css">
	.st0{fill-rule:evenodd;clip-rule:evenodd;fill:#FF6600;}
	.st1{opacity:0.7;}
	.st2{fill:#FFFFFF;}
</style>
<rect x="-0.4" y="-0.5" class="st0" width="801.5" height="801.5"/>
<g>
	<g class="st1">
		<path class="st2" d="M579.4,351.7h-42.1c-1.4,0-2.5,1.1-2.5,2.5v10.6c0,1.4,1.1,2.5,2.5,2.5h12v39c0,1.4,1.1,2.5,2.5,2.5h12.7
			c1.4,0,2.5-1.1,2.5-2.5v-39h12c1.4,0,2.5-1.1,2.5-2.5v-10.6C581.9,352.8,580.8,351.7,579.4,351.7z"/>
		<path class="st2" d="M624.4,393.1h-21.6v-5.7h19.1c1.4,0,2.5-1.1,2.5-2.5v-10.3c0-1.4-1.1-2.5-2.5-2.5h-19.1v-4.6h20.5
			c1.4,0,2.5-1.1,2.5-2.5v-10.6c0-1.4-1.1-2.5-2.5-2.5h-35.4c-1.4,0-2.5,1.1-2.5,2.5v52.1c0,1.4,1.1,2.5,2.5,2.5h36.5
			c1.4,0,2.5-1.1,2.5-2.5V396C626.9,394.2,625.8,393.1,624.4,393.1z"/>
		<path class="st2" d="M653.1,351.7h-18.8c-1.4,0-2.5,1.1-2.5,2.5v52.1c0,1.4,1.1,2.5,2.5,2.5h19.5c15.9,0,31.9-8.9,31.9-28.7
			C685.6,362.3,673.3,351.7,653.1,351.7z M649.2,367.3h3.9c9.6,0,14.5,4.2,14.5,12.7c0,8.5-5,12.7-14.9,12.7h-3.5L649.2,367.3
			L649.2,367.3z"/>
	</g>
	<g>
		<path class="st2" d="M199.8,443.4c-0.4-0.4-0.7-0.4-1.4-0.7s-1.1-0.4-1.4-0.4l-1.4-0.4c-1.8-0.7-2.5-1.1-2.8-1.1
			c-0.4-0.4-0.4-0.4-0.4-0.7c0-0.7,0.7-1.1,1.8-1.1c1.4,0,2.1,0.7,2.8,2.1c0,0.4,0.4,0.4,0.7,0.4c0.4,0,0.7,0,0.7,0l3.2-1.8
			c0.4-0.4,0.7-0.7,0.4-1.4c-1.4-3.2-4.6-5-7.8-5c-2.1,0-3.9,0.7-5.3,1.8c-1.4,1.1-2.1,2.8-2.1,5s0.7,3.9,2.1,5
			c1.4,1.1,2.5,1.4,4.2,2.1c1.8,0.4,2.8,1.1,3.2,1.1c0.4,0.4,0.4,0.4,0.4,0.7c0,1.1-1.4,1.1-2.1,1.1c-1.8,0-3.2-0.7-3.5-2.5
			c0-0.4-0.4-0.4-0.7-0.7c-0.4,0-0.7,0-0.7,0l-3.2,2.1c-0.4,0.4-0.7,0.7-0.4,1.1c1.4,3.5,4.6,5.7,8.9,5.7c2.5,0,4.2-0.7,5.7-1.8
			c1.4-1.4,2.5-2.8,2.5-5c0-1.1-0.4-2.5-0.7-3.2C201.5,444.5,200.1,443.4,199.8,443.4z"/>
		<path class="st2" d="M221.7,433.5h-3.9c-0.4,0-1.1,0.4-1.1,1.1v7.1h-5.3v-7.1c0-0.4-0.4-1.1-1.1-1.1h-3.9c-0.4,0-1.1,0.4-1.1,1.1
			v19.8c0,0.4,0.4,1.1,1.1,1.1h3.9c0.4,0,1.1-0.4,1.1-1.1V447h5.3v7.4c0,0.4,0.4,1.1,1.1,1.1h3.9c0.4,0,1.1-0.4,1.1-1.1v-19.8
			C222.8,433.9,222.1,433.5,221.7,433.5z"/>
		<path class="st2" d="M236.6,433.2c-3.2,0-5.7,1.1-8.1,3.2c-2.1,2.1-3.2,5-3.2,8.1c0,3.2,1.1,5.7,3.2,8.1c2.1,2.1,5,3.2,8.1,3.2
			c3.2,0,5.7-1.1,8.1-3.2c2.1-2.1,3.2-5,3.2-8.1c0-3.2-1.1-6-3.2-8.1C242.6,434.2,239.8,433.2,236.6,433.2z M236.6,449.8
			c-1.4,0-2.8-0.4-3.9-1.4s-1.4-2.5-1.4-3.9c0-1.8,0.4-2.8,1.4-3.9c1.1-1.1,2.5-1.4,3.9-1.4c1.4,0,2.8,0.4,3.9,1.4s1.4,2.5,1.4,3.9
			c0,1.8-0.4,2.8-1.4,3.9C239.4,449.5,238.4,449.8,236.6,449.8z"/>
		<path class="st2" d="M277,433.5h-4.2c-0.4,0-0.7,0.4-1.1,0.7l-2.5,11.3l-3.2-11.3c0-0.4-0.4-0.7-1.1-0.7h-3.2
			c-0.4,0-0.7,0.4-1.1,0.7l-3.2,11.3l-2.8-11.3c0-0.4-0.4-0.7-1.1-0.7h-4.2c-0.4,0-0.7,0-0.7,0.4c-0.4,0.4-0.4,0.7,0,0.7l5.7,19.8
			c0,0.4,0.4,0.7,1.1,0.7h4.6c0.4,0,0.7-0.4,1.1-0.7l2.8-9.9l2.8,9.9c0,0.4,0.4,0.7,1.1,0.7h4.6c0.4,0,0.7-0.4,1.1-0.7l5.7-19.8
			c0-0.4,0-0.7,0-0.7C277.7,433.5,277.3,433.5,277,433.5z"/>
		<path class="st2" d="M309.9,433.5H306c-0.4,0-0.7,0-0.7,0.4l-5,8.1l-5-8.1c0-0.4-0.4-0.4-0.7-0.4h-4.2c-0.4,0-1.1,0.4-1.1,1.1
			v19.8c0,0.4,0.4,1.1,1.1,1.1h3.9c0.4,0,1.1-0.4,1.1-1.1v-9.6l3.9,6.4c0,0.4,0.4,0.4,0.7,0.4h0.4c0.4,0,0.7,0,0.7-0.4l3.9-6.4v9.6
			c0,0.4,0.4,1.1,1.1,1.1h3.9c0.4,0,1.1-0.4,1.1-1.1v-19.8C310.6,433.9,310.3,433.5,309.9,433.5z"/>
		<path class="st2" d="M324.8,433.2c-3.2,0-5.7,1.1-8.1,3.2c-2.1,2.1-3.2,5-3.2,8.1c0,3.2,1.1,5.7,3.2,8.1c2.1,2.1,5,3.2,8.1,3.2
			s5.7-1.1,8.1-3.2c2.1-2.1,3.2-5,3.2-8.1c0-3.2-1.1-6-3.2-8.1C330.8,434.2,328,433.2,324.8,433.2z M324.8,449.8
			c-1.4,0-2.8-0.4-3.9-1.4s-1.4-2.5-1.4-3.9c0-1.8,0.4-2.8,1.4-3.9c1.1-1.1,2.5-1.4,3.9-1.4s2.8,0.4,3.9,1.4
			c1.1,1.1,1.4,2.5,1.4,3.9c0,1.8-0.4,2.8-1.4,3.9C327.6,449.5,326.5,449.8,324.8,449.8z"/>
		<path class="st2" d="M352,447.3c2.1-1.4,3.5-3.5,3.5-6c0-2.1-0.7-3.9-2.1-5.3c-1.4-1.4-3.2-2.1-5.3-2.1H340
			c-0.4,0-1.1,0.4-1.1,1.1v19.8c0,0.4,0.4,1.1,1.1,1.1h3.9c0.4,0,1.1-0.4,1.1-1.1v-6h1.4l3.9,6.4c0,0.4,0.4,0.4,0.7,0.4h4.2
			c0.4,0,0.7-0.4,0.7-0.4c0-0.4,0-0.7,0-1.1L352,447.3z M344.6,439.2h3.2c1.1,0,1.8,0.7,1.8,2.1c0,1.1-0.7,2.1-1.8,2.1h-3.2V439.2z"
			/>
		<path class="st2" d="M371.5,449.8h-7.4v-2.5h6.7c0.4,0,1.1-0.4,1.1-1.1v-3.5c0-0.4-0.4-1.1-1.1-1.1h-6.7v-2.5h7.4
			c0.4,0,1.1-0.4,1.1-1.1v-3.9c0-0.4-0.4-1.1-1.1-1.1h-12c-0.4,0-1.1,0.4-1.1,1.1v19.8c0,0.4,0.4,1.1,1.1,1.1h12.4
			c0.4,0,1.1-0.4,1.1-1.1v-3.9C372.6,450.2,372.2,449.8,371.5,449.8z"/>
		<path class="st2" d="M397,449.8h-6.7v-15.2c0-0.4-0.4-1.1-1.1-1.1h-3.9c-0.4,0-1.1,0.4-1.1,1.1v19.8c0,0.4,0.4,1.1,1.1,1.1h11.3
			c0.4,0,1.1-0.4,1.1-1.1v-3.9C397.7,450.2,397.4,449.8,397,449.8z"/>
		<path class="st2" d="M409.8,433.2c-3.2,0-5.7,1.1-8.1,3.2c-2.1,2.1-3.2,5-3.2,8.1c0,3.2,1.1,5.7,3.2,8.1c2.1,2.1,5,3.2,8.1,3.2
			c3.2,0,5.7-1.1,8.1-3.2c2.1-2.1,3.2-5,3.2-8.1c0-3.2-1.1-6-3.2-8.1C415.4,434.2,412.6,433.2,409.8,433.2z M409.8,449.8
			c-1.4,0-2.8-0.4-3.9-1.4c-1.1-1.1-1.4-2.5-1.4-3.9c0-1.8,0.4-2.8,1.4-3.9c1.1-1.1,2.5-1.4,3.9-1.4c1.4,0,2.8,0.4,3.9,1.4
			c1.1,1.1,1.4,2.5,1.4,3.9c0,1.8-0.4,2.8-1.4,3.9C412.6,449.5,411.2,449.8,409.8,449.8z"/>
		<path class="st2" d="M440.2,433.5H436c-0.4,0-0.7,0.4-1.1,0.7l-3.9,12.4l-3.9-12.4c0-0.4-0.4-0.7-1.1-0.7h-4.2
			c-0.4,0-0.7,0-0.7,0.4c-0.4,0.4-0.4,0.7,0,0.7l6.7,19.8c0,0.4,0.4,0.7,1.1,0.7h5c0.4,0,0.7-0.4,1.1-0.7l6.7-19.8
			c0-0.4,0-0.7,0-0.7C440.6,433.5,440.6,433.5,440.2,433.5z"/>
		<path class="st2" d="M456.2,449.8h-7.4v-2.5h6.7c0.4,0,1.1-0.4,1.1-1.1v-3.5c0-0.4-0.4-1.1-1.1-1.1h-6.7v-2.5h7.4
			c0.4,0,1.1-0.4,1.1-1.1v-3.9c0-0.4-0.4-1.1-1.1-1.1h-12c-0.4,0-1.1,0.4-1.1,1.1v19.8c0,0.4,0.4,1.1,1.1,1.1h12.4
			c0.4,0,1.1-0.4,1.1-1.1v-3.9C456.9,450.2,456.5,449.8,456.2,449.8z"/>
		<path class="st2" d="M465.7,449.5h-3.9c-0.4,0-0.7,0.4-1.1,0.7l-1.1,7.8c0,0.4,0,0.7,0.4,0.7c0.4,0.4,0.4,0.4,0.7,0.4h2.8
			c0.4,0,0.7-0.4,1.1-0.7l2.1-7.8c0-0.4,0-0.7,0-0.7C466.4,449.5,466.1,449.5,465.7,449.5z"/>
		<path class="st2" d="M491.9,433.5h-11.7c-0.4,0-1.1,0.4-1.1,1.1v19.8c0,0.4,0.4,1.1,1.1,1.1h3.9c0.4,0,1.1-0.4,1.1-1.1v-6.7h6.7
			c0.4,0,1.1-0.4,1.1-1.1v-3.9c0-0.4-0.4-1.1-1.1-1.1h-6.7v-2.8h7.1c0.4,0,1.1-0.4,1.1-1.1v-3.9C493,433.9,492.3,433.5,491.9,433.5z
			"/>
		<path class="st2" d="M505.7,433.2c-3.2,0-5.7,1.1-8.1,3.2c-2.1,2.1-3.2,5-3.2,8.1c0,3.2,1.1,5.7,3.2,8.1c2.1,2.1,5,3.2,8.1,3.2
			s5.7-1.1,8.1-3.2c2.1-2.1,3.2-5,3.2-8.1c0-3.2-1.1-6-3.2-8.1C511.4,434.2,508.9,433.2,505.7,433.2z M505.7,449.8
			c-1.4,0-2.8-0.4-3.9-1.4s-1.4-2.5-1.4-3.9c0-1.8,0.4-2.8,1.4-3.9c1.1-1.1,2.5-1.4,3.9-1.4s2.8,0.4,3.9,1.4
			c1.1,1.1,1.4,2.5,1.4,3.9c0,1.8-0.4,2.8-1.4,3.9C508.6,449.5,507.2,449.8,505.7,449.8z"/>
		<path class="st2" d="M532.7,447.3c2.1-1.4,3.5-3.5,3.5-6c0-2.1-0.7-3.9-2.1-5.3s-3.2-2.1-5.3-2.1h-8.1c-0.4,0-1.1,0.4-1.1,1.1
			v19.8c0,0.4,0.4,1.1,1.1,1.1h3.9c0.4,0,1.1-0.4,1.1-1.1v-6h1.4l3.9,6.4c0,0.4,0.4,0.4,0.7,0.4h4.2c0.4,0,0.7-0.4,0.7-0.4
			c0-0.4,0-0.7,0-1.1L532.7,447.3z M525.6,439.2h3.2c1.1,0,1.8,0.7,1.8,2.1c0,1.1-0.7,2.1-1.8,2.1h-3.2V439.2z"/>
		<path class="st2" d="M560.6,449.8h-6.7v-15.2c0-0.4-0.4-1.1-1.1-1.1h-3.9c-0.4,0-1.1,0.4-1.1,1.1v19.8c0,0.4,0.4,1.1,1.1,1.1h11.3
			c0.4,0,1.1-0.4,1.1-1.1v-3.9C561.7,450.2,561.3,449.8,560.6,449.8z"/>
		<path class="st2" d="M576.9,449.8h-7.4v-2.5h6.7c0.4,0,1.1-0.4,1.1-1.1v-3.5c0-0.4-0.4-1.1-1.1-1.1h-6.7v-2.5h7.4
			c0.4,0,1.1-0.4,1.1-1.1v-3.9c0-0.4-0.4-1.1-1.1-1.1h-12c-0.4,0-1.1,0.4-1.1,1.1v19.8c0,0.4,0.4,1.1,1.1,1.1h12.4
			c0.4,0,1.1-0.4,1.1-1.1v-3.9C577.6,450.2,577.3,449.8,576.9,449.8z"/>
		<path class="st2" d="M593.2,443.4c-0.4-0.4-0.7-0.4-1.4-0.7c-0.7-0.4-1.1-0.4-1.4-0.4L589,442c-1.8-0.7-2.5-1.1-2.8-1.1
			c-0.4-0.4-0.4-0.4-0.4-0.7c0-0.7,0.7-1.1,1.8-1.1c1.4,0,2.1,0.7,2.8,2.1c0,0.4,0.4,0.4,0.7,0.4c0.4,0,0.7,0,0.7,0l3.2-1.8
			c0.4-0.4,0.7-0.7,0.4-1.4c-1.4-3.2-4.6-5-7.8-5c-2.1,0-3.9,0.7-5.3,1.8c-1.4,1.1-2.1,2.8-2.1,5s0.7,3.9,2.1,5
			c1.4,1.1,2.5,1.4,4.2,2.1c1.8,0.4,2.8,1.1,3.2,1.1c0.4,0.4,0.4,0.4,0.4,0.7c0,1.1-1.4,1.1-2.1,1.1c-1.8,0-3.2-0.7-3.5-2.5
			c0-0.4-0.4-0.4-0.7-0.7c-0.4,0-0.7,0-0.7,0l-3.2,2.1c-0.4,0.4-0.7,0.7-0.4,1.1c1.4,3.5,4.6,5.7,8.9,5.7c2.5,0,4.2-0.7,5.7-1.8
			c1.4-1.4,2.5-2.8,2.5-5c0-1.1-0.4-2.5-0.7-3.2C595,444.5,593.6,443.4,593.2,443.4z"/>
		<path class="st2" d="M614.1,445.6c-0.7-1.1-1.8-2.1-2.1-2.1c-0.4-0.4-0.7-0.4-1.4-0.7s-1.1-0.4-1.4-0.4l-1.4-0.4
			c-1.8-0.7-2.5-1.1-2.8-1.1c-0.4-0.4-0.4-0.4-0.4-0.7c0-0.7,0.7-1.1,1.8-1.1c1.4,0,2.1,0.7,2.8,2.1c0,0.4,0.4,0.4,0.7,0.4
			s0.7,0,0.7,0l3.2-1.8c0.4-0.4,0.7-0.7,0.4-1.4c-1.4-3.2-4.6-5-7.8-5c-2.1,0-3.9,0.7-5.3,1.8c-1.4,1.1-2.1,2.8-2.1,5s0.7,3.9,2.1,5
			s2.5,1.4,4.2,2.1c1.8,0.4,2.8,1.1,3.2,1.1c0.4,0.4,0.4,0.4,0.4,0.7c0,1.1-1.4,1.1-2.1,1.1c-1.8,0-3.2-0.7-3.5-2.5
			c0-0.4-0.4-0.4-0.7-0.7c-0.4,0-0.7,0-0.7,0l-3.2,2.1c-0.4,0.4-0.7,0.7-0.4,1.1c1.4,3.5,4.6,5.7,8.9,5.7c2.5,0,4.2-0.7,5.7-1.8
			c1.4-1.4,2.5-2.8,2.5-5C614.8,447.7,614.5,446.3,614.1,445.6z"/>
	</g>
	<g>
		<path class="st2" d="M419.3,351.7h-12.7c-1.4,0-2.5,1.1-2.5,2.5v31.5c0,3.9-1.4,8.1-7.4,8.1c-6.4,0-7.4-5.3-7.4-8.1v-31.5
			c0-1.4-1.1-2.5-2.5-2.5h-12.4c-1.4,0-2.5,1.1-2.5,2.5v32.6c0,14.2,9.9,23.7,24.8,23.7s25.1-9.6,25.1-23.7v-32.6
			C422.2,352.8,420.7,351.7,419.3,351.7z"/>
		<path class="st2" d="M477.4,351.7H465c-0.7,0-1.4,0.4-1.8,0.7s-0.7,1.1-0.7,1.8l0.4,25.1l-16.3-26.6c-0.4-0.7-1.4-1.1-2.1-1.1H430
			c-1.4,0-2.5,1.1-2.5,2.5v52.1c0,1.4,1.1,2.5,2.5,2.5h12.4c0.7,0,1.4-0.4,1.8-0.7c0.4-0.4,0.7-1.1,0.7-1.8l-0.4-25.5l16.3,26.6
			c0.4,0.7,1.4,1.1,2.1,1.1h14.2c1.4,0,2.5-1.1,2.5-2.5v-51.7C480.2,352.8,478.8,351.7,477.4,351.7z"/>
		<path class="st2" d="M528.4,351.7h-42.1c-1.4,0-2.5,1.1-2.5,2.5v10.6c0,1.4,1.1,2.5,2.5,2.5h12v39c0,1.4,1.1,2.5,2.5,2.5h12.7
			c1.4,0,2.5-1.1,2.5-2.5v-39h12c1.4,0,2.5-1.1,2.5-2.5v-10.6C530.9,352.8,529.8,351.7,528.4,351.7z"/>
		<path class="st2" d="M136.4,351.7h-18.8c-1.4,0-2.5,1.1-2.5,2.5v52.1c0,1.4,1.1,2.5,2.5,2.5h19.5c15.9,0,31.9-8.9,31.9-28.7
			C169,362.3,156.9,351.7,136.4,351.7z M132.5,367.3h3.9c9.6,0,14.5,4.2,14.5,12.7c0,8.5-5,12.7-14.9,12.7h-3.5
			C132.5,392.8,132.5,367.3,132.5,367.3z"/>
		<path class="st2" d="M188.1,351.7h-12.7c-1.4,0-2.5,1.1-2.5,2.5v52.1c0,1.4,1.1,2.5,2.5,2.5h12.7c1.4,0,2.5-1.1,2.5-2.5v-52.1
			C190.6,352.8,189.5,351.7,188.1,351.7z"/>
		<path class="st2" d="M223.1,373.3l-5.3-1.4c-4.2-1.1-4.2-2.5-4.2-3.2s0.4-1.1,0.7-1.4c0.7-0.7,1.8-1.1,3.2-1.1
			c1.8,0,4.2,0.7,7.8,4.2c1.1,1.1,2.5,1.1,3.5,0.4l8.1-5.7c0.7-0.4,1.1-1.1,1.1-2.1s0-1.8-0.7-2.1c-5.7-7.1-12.4-10.6-21.2-10.6l0,0
			c-11.7,0-20.5,7.8-20.5,18.4c0,6.4,2.8,14.5,15.9,18.4l4.6,1.4c4.6,1.4,4.6,2.5,4.6,3.5c0,2.5-2.5,2.8-3.9,2.8l0,0
			c-3.2,0-6.7-1.8-9.2-4.6c-1.1-1.1-2.8-1.4-3.9-0.4l-8.5,6c-0.7,0.4-1.1,1.1-1.1,2.1c0,0.7,0,1.8,0.7,2.1
			c5.7,6.7,13.1,10.3,22,10.3c5.7,0,11-1.8,14.9-5c4.2-3.5,6.4-8.1,6.4-13.5C238.7,385,235.9,376.5,223.1,373.3z"/>
		<path class="st2" d="M284.4,388.9c-0.7-0.4-1.4-0.7-2.1-0.7s-1.4,0.4-1.8,1.1c-1.8,2.8-5.3,4.2-8.9,4.2c-7.4,0-12.4-5.3-12.4-13.5
			c0-7.8,5.3-13.5,12.4-13.5c3.5,0,6.7,1.4,8.5,3.9c0.4,0.7,1.1,1.1,1.8,1.1s1.4-0.4,2.1-0.7l8.5-8.5c1.1-1.1,1.1-2.5,0-3.5
			c-4.6-5.3-12.7-8.5-21.6-8.5c-17.7,0-30.8,12.7-30.8,30.1s12.7,30.1,30.5,30.1c9.2,0,17-3.5,22.3-9.6c1.1-1.1,0.7-2.5-0.4-3.5
			L284.4,388.9z"/>
	</g>
	<g>
		<path class="st2" d="M364.4,361.3c3.2-6,1.4-13.8-4.2-17.7c-2.1-1.4-4.6-2.1-7.4-2.1c-3.9,0-7.4,1.8-9.9,4.6
			c-3.5-0.7-7.1-1.1-11-1.1c-3.9,0-7.4,0.4-11,1.1c-2.5-2.8-6-4.6-9.9-4.6c-2.5,0-5.3,0.7-7.4,2.1c-2.8,2.1-5,5-5.7,8.5
			c-0.7,3.2,0,6.4,1.4,9.2c-2.5,4.2-3.5,9.2-3.5,14.9c0,9.6,3.9,19.8,10.3,27.3c3.2,3.9,7.1,7.1,11.3,9.2c4.6,2.5,9.6,3.5,14.5,3.5
			s9.9-1.1,14.5-3.5c4.2-2.1,8.1-5.3,11.3-9.2c6.7-7.8,10.3-17.7,10.3-27.3C368,370.8,366.9,365.9,364.4,361.3z M305.7,362
			c0.4-0.4,0.4-0.7,0-1.4l-1.1-1.4c-1.1-1.8-1.4-3.5-1.1-5.7c0.4-1.8,1.4-3.5,3.2-4.6c1.1-0.7,2.5-1.1,3.9-1.1c2.5,0,4.6,1.1,6,3.2
			l1.1,1.4c0.4,0.4,0.7,0.7,1.4,0.4c3.9-1.4,8.1-1.8,12.7-1.8c4.6,0,8.9,0.7,12.7,1.8c0.4,0,1.1,0,1.4-0.4l1.1-1.4
			c1.4-2.1,3.5-3.2,6-3.2c1.4,0,2.8,0.4,3.9,1.1c3.5,2.1,4.2,6.7,2.1,10.3l-1.4,1.8c-0.4,0.4-0.4,1.1,0,1.4
			c2.8,3.9,4.2,8.9,4.2,14.2c0,16.3-13.1,34.4-30.5,34.4S301,392.8,301,376.5C301.4,370.8,302.8,365.9,305.7,362z"/>
		<g>
			<path class="st2" d="M338.6,399.5c-3.9,3.9-10.3,3.9-13.8,0c-0.7-0.7-0.4-1.8,0.4-2.1c2.5-0.7,4.2-2.1,5.7-4.2
				c0.4-0.4,1.1-0.4,1.4,0c1.4,2.1,3.5,3.5,6,4.2C338.9,397.8,339.3,398.8,338.6,399.5z"/>
			<path class="st2" d="M348.9,364.5h-34.7c-2.5,0-4.6,2.5-3.9,5l1.4,6.4c0.4,2.1,2.5,3.9,4.6,3.9h2.1l0,0
				c-2.1,4.2-2.1,9.2,0.7,12.4c1.8,2.5,5.3,3.2,7.8,1.4c1.4-0.7,2.5-2.1,2.8-3.5c0.4-0.7,0-1.8-0.7-2.1c-2.1-1.1-4.2-3.2-3.9-5.3
				c0.7-2.8,4.2-3.2,6.7-3.2c2.1,0,6,0.4,6.7,3.2c0.4,2.5-1.8,4.6-3.9,5.3c-0.7,0.4-1.1,1.4-0.7,2.1c0.7,1.8,2.1,2.8,3.5,3.9
				c2.5,1.4,5.7,0.7,7.4-1.4c2.8-3.5,2.8-8.5,0.7-12.7l0,0h1.4c2.1,0,4.2-1.8,4.6-3.9l1.4-6.4C353.5,366.9,351.7,364.5,348.9,364.5z
				 M328.3,370.1l-0.7,1.8l0,0l-0.7,2.8c-0.4,1.4-1.8,2.5-3.2,2.5H317c-1.1,0-2.1-0.7-2.1-1.8l-1.1-5.7c-0.4-1.1,0.7-2.1,1.8-2.1
				h11.3C328,367.3,328.7,368.7,328.3,370.1z M349.6,369.4l-1.1,5.7c-0.4,1.1-1.1,1.8-2.1,1.8h-6.7c-1.4,0-2.8-1.1-3.2-2.5l-0.7-2.8
				l0,0l-0.7-1.8c-0.4-1.4,0.4-2.8,1.8-2.8h11.3C349.2,367.3,349.9,368.4,349.6,369.4z"/>
		</g>
	</g>
</g>
</svg>
