<?xml version="1.0" encoding="utf-8"?>
<!-- Generator: Adobe Illustrator 24.2.1, SVG Export Plug-In . SVG Version: 6.00 Build 0)  -->
<svg version="1.1" id="Layer_1" xmlns="http://www.w3.org/2000/svg" xmlns:xlink="http://www.w3.org/1999/xlink" x="0px" y="0px"
	 viewBox="0 0 800 800" style="enable-background:new 0 0 800 800;" xml:space="preserve">
<style type="text/css">
	.st0{fill-rule:evenodd;clip-rule:evenodd;fill:#041A2E;}
	.st1{fill:#C3A967;}
</style>
<rect x="-0.4" y="-0.5" class="st0" width="801.5" height="801.5"/>
<g>
	<path class="st1" d="M140.4,361.9v76.7h66.1v-38l-37.6-38.7H140.4z M216.8,396.4v52.8h-86.6v-97.6h43.3
		C173.5,351.6,202.3,381.6,216.8,396.4z"/>
	<path class="st1" d="M202.3,366.4l14.4-14.8c14.4,14.8,28.9,30,43.3,44.8v52.8h-86.6v-52.8l7.2-7.6l7.2,7.6l-4.2,4.2v38h66.1v-38
		l-33-34.2l-7.2,7.6L202.3,366.4z"/>
	<path class="st1" d="M299.2,384.7c3.8,0,6.8-1.1,8.7-3c2.3-2.3,3-4.9,3-8.7s-1.1-6.8-3-8.7c-2.3-2.3-4.9-3-8.7-3h-4.6V385h4.6
		V384.7z M299.6,352c4.2,0,8,0.8,11.4,2.7c3.4,1.9,5.7,4.2,7.6,7.2c1.9,3,2.7,6.8,2.7,10.6c0,4.2-0.8,7.6-2.7,10.6s-4.2,5.7-7.6,7.2
		c-3,1.9-6.8,2.7-11.4,2.7h-15.2v-41H299.6z"/>
	<path class="st1" d="M352.3,352v28.1c0,4.2-1.1,7.6-3.8,9.9c-2.3,2.3-5.7,3.4-9.9,3.4s-8-1.1-10.3-3.8c-2.7-2.3-3.8-6.1-3.8-10.6
		h9.9c0,1.9,0.4,3,1.1,3.8c0.8,0.8,1.9,1.1,3,1.1c1.1,0,2.3-0.4,2.7-1.1c0.8-0.8,1.1-1.9,1.1-3.4v-28.1h9.9V352z"/>
	<path class="st1" d="M389.6,370.6c1.9,0,3.4-0.4,4.2-1.5c0.8-0.8,1.5-2.3,1.5-3.8c0-1.5-0.4-3-1.5-3.8c-0.8-0.8-2.3-1.5-4.2-1.5
		h-5.3v10.6H389.6z M405.5,365.3c0,2.3-0.4,4.6-1.5,6.5s-2.7,3.4-4.9,4.9c-2.3,1.1-4.9,1.9-8.4,1.9h-6.1V393h-9.9v-41h16.3
		c3.4,0,6.1,0.4,8.4,1.5s3.8,2.7,4.9,4.6C404.8,360.4,405.5,362.6,405.5,365.3z"/>
	<path class="st1" d="M420.7,370.6h6.1c1.9,0,3-0.4,4.2-1.5c0.8-0.8,1.5-2.3,1.5-3.8c0-1.5-0.4-3-1.5-3.8c-0.8-0.8-2.3-1.5-4.2-1.5
		h-6.1V370.6z M431.3,393l-8.4-15.6h-2.3V393h-10.3v-41h16.7c3.4,0,6.1,0.4,8.4,1.5c2.3,1.1,3.8,2.7,4.9,4.6s1.5,4.2,1.5,6.5
		c0,2.7-0.8,5.3-2.3,7.2c-1.5,2.3-3.8,3.8-6.8,4.6l9.5,16.3h-11V393z"/>
	<path class="st1" d="M468.2,384.3c3.4,0,6.1-1.1,8-3c1.9-2.3,3-4.9,3-8.7c0-3.4-1.1-6.5-3-8.7c-1.9-2.3-4.6-3-8-3s-6.1,1.1-8,3
		c-1.9,2.3-3,4.9-3,8.7c0,3.4,1.1,6.5,3,8.7C462.1,383.1,464.8,384.3,468.2,384.3z M468.2,393.8c-3.8,0-7.2-0.8-10.6-2.7
		c-3-1.9-5.7-4.2-7.6-7.6c-1.9-3-2.7-6.8-2.7-11s0.8-7.6,2.7-10.6c1.9-3,4.6-5.7,7.6-7.6s6.8-2.7,10.6-2.7s7.2,0.8,10.6,2.7
		c3,1.9,5.7,4.2,7.6,7.6c1.9,3,2.7,6.8,2.7,10.6c0,3.8-0.8,7.6-2.7,11c-1.9,3-4.6,5.7-7.6,7.6C475.4,392.6,472,393.8,468.2,393.8z"
		/>
	<path class="st1" d="M509.9,370.6c1.9,0,3.4-0.4,4.2-1.5c0.8-0.8,1.5-2.3,1.5-3.8c0-1.5-0.4-3-1.5-3.8c-0.8-0.8-2.3-1.5-4.2-1.5
		h-5.3v10.6H509.9z M525.9,365.3c0,2.3-0.4,4.6-1.5,6.5c-1.1,1.9-2.7,3.4-4.9,4.9c-2.3,1.1-4.9,1.9-8.4,1.9H505V393h-9.9v-41h16.3
		c3.4,0,6.1,0.4,8.4,1.5c2.3,1.1,3.8,2.7,4.9,4.6C525.1,360.4,525.9,362.6,525.9,365.3z"/>
	<polygon class="st1" points="541.1,360 541.1,368.7 554.4,368.7 554.4,376.3 541.1,376.3 541.1,385.4 556.3,385.4 556.3,393 
		531.2,393 531.2,352 556.3,352 556.3,360 	"/>
	<path class="st1" d="M572.6,370.6h6.1c1.9,0,3-0.4,4.2-1.5c0.8-0.8,1.5-2.3,1.5-3.8c0-1.5-0.4-3-1.5-3.8c-0.8-0.8-2.3-1.5-4.2-1.5
		h-6.1V370.6z M583.6,393l-8.4-15.6H573V393h-9.9v-41h16.7c3.4,0,6.1,0.4,8.4,1.5c2.3,1.1,3.8,2.7,4.9,4.6c1.1,1.9,1.5,4.2,1.5,6.5
		c0,2.7-0.8,5.3-2.3,7.2c-1.5,2.3-3.8,3.8-6.8,4.6l9.5,16.3h-11.4V393z"/>
	<polygon class="st1" points="630.3,352 630.3,360 619.3,360 619.3,393 609.4,393 609.4,360 598.4,360 598.4,352 	"/>
	<polygon class="st1" points="670.6,352 656.1,379.7 656.1,393 646.3,393 646.3,379.7 632.2,352 643.6,352 651.2,369.5 659.2,352 	
		"/>
	<polygon class="st1" points="317.8,410.1 317.8,448.8 308.7,448.8 308.7,432.9 293.9,432.9 293.9,448.8 284.4,448.8 284.4,410.1 
		293.9,410.1 293.9,425.3 308.7,425.3 308.7,410.1 	"/>
	<path class="st1" d="M343.2,440.5c3,0,5.7-1.1,7.6-3s2.7-4.6,2.7-8c0-3.4-0.8-6.1-2.7-8s-4.2-3-7.6-3c-3,0-5.7,1.1-7.6,3
		c-1.9,1.9-2.7,4.6-2.7,8c0,3.4,0.8,6.1,2.7,8C337.5,439.3,339.8,440.5,343.2,440.5z M343.2,449.2c-3.8,0-6.8-0.8-9.9-2.7
		c-3-1.5-5.3-4.2-7.2-7.2c-1.9-3-2.7-6.5-2.7-10.3s0.8-7.2,2.7-10.3c1.9-3,4.2-5.3,7.2-7.2s6.5-2.7,9.9-2.7c3.8,0,6.8,0.8,9.9,2.7
		c3,1.5,5.3,4.2,7.2,7.2s2.7,6.5,2.7,10.3s-0.8,7.2-2.7,10.3c-1.9,3-4.2,5.3-7.2,7.2C350.1,448.5,346.7,449.2,343.2,449.2z"/>
	<polygon class="st1" points="377.8,441.6 389.9,441.6 389.9,448.8 368.3,448.8 368.3,410.1 377.8,410.1 	"/>
	<path class="st1" d="M408.5,440.9c3.4,0,6.5-1.1,8.4-3c1.9-1.9,3-4.9,3-8.4c0-3.4-1.1-6.5-3-8.4c-1.9-1.9-4.9-3-8.4-3H404v22.8
		H408.5z M408.9,410.1c4.2,0,7.6,0.8,10.6,2.3s5.3,3.8,7.2,6.8c1.5,3,2.7,6.5,2.7,10.3c0,3.8-0.8,7.2-2.7,10.3
		c-1.5,3-4.2,5.3-7.2,6.8c-3,1.5-6.5,2.3-10.6,2.3h-14.4v-38.7H408.9z"/>
	<rect x="434.8" y="410.1" class="st1" width="9.5" height="38.7"/>
	<polygon class="st1" points="485.6,448.8 476.1,448.8 460.6,424.9 460.6,448.8 451.1,448.8 451.1,410.1 460.6,410.1 476.1,434 
		476.1,410.1 485.6,410.1 	"/>
	<path class="st1" d="M491,429.5c0-3.8,0.8-7.2,2.7-10.3c1.5-3,4.2-5.3,6.8-6.8c3-1.5,6.5-2.7,10.3-2.7c4.6,0,8.7,1.1,11.8,3.4
		s5.3,5.3,6.5,9.5h-10.6c-0.8-1.1-1.5-2.3-3-3c-1.1-0.8-2.7-1.1-4.6-1.1c-3,0-5.7,1.1-7.2,3c-1.9,1.9-2.7,4.6-2.7,8
		c0,3.4,1.1,6.5,3,8.4c1.9,1.9,4.6,3,8,3c2.3,0,4.2-0.8,6.1-1.9c1.5-1.1,2.7-3,3.4-4.9h-12.2v-6.8h20.5v8.7
		c-0.8,2.3-1.9,4.6-3.4,6.5c-1.5,1.9-3.8,3.8-6.5,4.9c-2.7,1.1-5.3,1.9-8.7,1.9c-3.8,0-7.2-0.8-10.3-2.7c-3-1.5-5.3-4.2-6.8-6.8
		C491.7,436.7,491,433.3,491,429.5z"/>
	<path class="st1" d="M548.7,449.2c-2.7,0-5.3-0.4-7.6-1.5c-2.3-0.8-4.2-2.3-5.3-4.2c-1.5-1.9-1.9-3.8-2.3-6.5h9.9
		c0,1.5,0.8,2.7,1.5,3.4c0.8,0.8,1.9,1.1,3.4,1.1s2.7-0.4,3.4-1.1c0.8-0.8,1.1-1.5,1.1-2.7s-0.4-1.9-1.1-2.3
		c-0.8-0.8-1.5-1.1-2.3-1.5c-0.8-0.4-2.3-0.8-4.2-1.5c-2.7-0.8-4.6-1.5-6.1-2.3c-1.5-0.8-3-1.9-4.2-3.4c-1.1-1.5-1.9-3.4-1.9-6.1
		c0-3.8,1.1-6.5,3.8-8.4c2.7-1.9,6.1-3,10.3-3c4.2,0,7.6,1.1,10.3,3c2.7,1.9,4.2,4.9,4.2,8.4h-10.3c0-1.1-0.4-2.3-1.5-3
		c-0.8-0.8-1.9-1.1-3.4-1.1c-1.1,0-1.9,0.4-2.7,0.8c-0.8,0.8-1.1,1.5-1.1,2.7c0,1.1,0.8,2.3,1.9,3c1.1,0.8,3,1.5,5.7,2.3
		c2.7,0.8,4.6,1.5,6.1,2.3c1.5,0.8,3,1.9,4.2,3.4c1.1,1.5,1.9,3.4,1.9,5.7c0,2.3-0.4,4.2-1.5,6.1s-2.7,3.4-4.9,4.2
		C554,448.8,551.7,449.2,548.7,449.2z"/>
	<polygon class="st1" points="590.8,441.6 603.4,441.6 603.4,448.8 581.3,448.8 581.3,410.1 590.8,410.1 	"/>
	<polygon class="st1" points="617.4,441.6 629.6,441.6 629.6,448.8 607.9,448.8 607.9,410.1 617.4,410.1 	"/>
	<path class="st1" d="M632.6,429.5c0-3.8,0.8-7.2,2.7-10.3c1.5-3,3.8-5.3,6.8-6.8c3-1.5,6.5-2.7,10.3-2.7c4.6,0,8.7,1.1,11.8,3.8
		c3.4,2.3,5.3,5.7,6.5,9.9h-10.3c-0.8-1.5-1.9-2.7-3.4-3.8c-1.5-0.8-3-1.1-4.9-1.1c-3,0-5.3,1.1-7.2,3s-2.7,4.6-2.7,8
		c0,3.4,0.8,6.1,2.7,8s4.2,3,7.2,3c1.9,0,3.4-0.4,4.9-1.1c1.5-0.8,2.7-1.9,3.4-3.8h10.3c-1.1,4.2-3.4,7.6-6.5,9.9
		c-3.4,2.3-7.2,3.8-11.8,3.8c-3.8,0-7.2-0.8-10.3-2.7c-3-1.5-5.3-4.2-6.8-6.8C633.4,436.7,632.6,433.3,632.6,429.5z"/>
</g>
</svg>
