<?xml version="1.0" encoding="utf-8"?>
<!-- Generator: Adobe Illustrator 24.2.1, SVG Export Plug-In . SVG Version: 6.00 Build 0)  -->
<svg version="1.1" id="Layer_1" xmlns="http://www.w3.org/2000/svg" xmlns:xlink="http://www.w3.org/1999/xlink" x="0px" y="0px"
	 viewBox="0 0 800 800" style="enable-background:new 0 0 800 800;" xml:space="preserve">
<style type="text/css">
	.st0{fill-rule:evenodd;clip-rule:evenodd;fill:#142036;}
	.st1{fill:#FFFFFF;}
	.st2{fill:#C3C1C2;}
	.st3{fill-rule:evenodd;clip-rule:evenodd;fill:#C3C1C2;}
</style>
<rect x="-0.4" y="-0.5" class="st0" width="801.5" height="801.5"/>
<g>
	<polygon class="st1" points="150.8,392.1 191,392.1 191,400.9 160.3,400.9 160.3,415.5 187.6,415.5 187.6,424.3 160.3,424.3 
		160.3,439.4 191.4,439.4 191.4,448.2 150.8,448.2 	"/>
	<polygon class="st1" points="228,392.1 237.5,392.1 237.5,439.2 266.1,439.2 266.1,448.2 228,448.2 	"/>
	<polygon class="st1" points="301.3,392.1 341.6,392.1 341.6,400.9 310.8,400.9 310.8,415.5 338.1,415.5 338.1,424.3 310.8,424.3 
		310.8,439.4 342,439.4 342,448.2 301.3,448.2 	"/>
	<polygon class="st1" points="373.9,392.1 384.4,392.1 400.8,435.2 417.1,392.1 427.4,392.1 404.9,448.6 396.5,448.6 	"/>
	<polygon class="st1" points="506.2,448.2 496.1,448.2 477.7,403.5 459.3,448.2 449.6,448.2 473.5,391.7 482.3,391.7 	"/>
	<polygon class="st1" points="547.1,401.3 529.9,401.3 529.9,392.1 574,392.1 574,401.3 556.8,401.3 556.8,448.2 547.1,448.2 	"/>
	<polygon class="st1" points="609.3,392.1 649.6,392.1 649.6,400.9 618.9,400.9 618.9,415.5 646.1,415.5 646.1,424.3 618.9,424.3 
		618.9,439.4 650,439.4 650,448.2 609.3,448.2 	"/>
	<polygon class="st2" points="282,485.4 288.8,485.4 288.8,504.2 300.8,504.2 300.8,510.2 282,510.2 	"/>
	<path class="st2" d="M326.1,500.4l-2.8-7l-2.8,7H326.1z M320.1,485.3h6.6l10.5,24.9h-7.3l-1.8-4.4h-9.5l-1.8,4.4h-7.2L320.1,485.3z
		"/>
	<polygon class="st2" points="342.6,485.4 349.8,485.4 354.1,499.7 358.9,485.4 364.8,485.4 369.6,499.7 373.9,485.4 381,485.4 
		372.7,510.3 366.7,510.3 361.8,496.1 356.8,510.3 350.8,510.3 	"/>
	<polygon class="st2" points="391.5,485.4 397.9,485.4 408.1,498.5 408.1,485.4 414.8,485.4 414.8,510.2 408.8,510.2 398.3,496.6 
		398.3,510.2 391.5,510.2 	"/>
	<path class="st2" d="M455.8,510.7c-3.6,0-6.6-1.2-9-3.6c-2.5-2.5-3.7-5.5-3.7-9.2c0-3.6,1.2-6.7,3.7-9.2c2.5-2.5,5.6-3.7,9.3-3.7
		c4.4,0,7.9,1.7,10.4,5.2l-5,3.9c-1.5-1.9-3.3-2.9-5.4-2.9c-1.7,0-3.1,0.6-4.2,1.9c-1.1,1.3-1.7,2.8-1.7,4.7c0,1.9,0.6,3.5,1.7,4.7
		c1.1,1.3,2.5,1.9,4.2,1.9c2.1,0,3.9-1,5.6-3l5.2,3.7C464,508.8,460.4,510.7,455.8,510.7"/>
	<path class="st2" d="M489.2,504.5c1.9,0,3.4-0.7,4.6-2c1.2-1.3,1.7-2.8,1.7-4.7c0-1.8-0.6-3.4-1.8-4.7c-1.2-1.3-2.8-2-4.6-2
		c-1.8,0-3.3,0.7-4.5,2c-1.2,1.3-1.7,2.8-1.7,4.7c0,1.8,0.6,3.4,1.8,4.7C485.9,503.8,487.4,504.5,489.2,504.5 M489.2,510.7
		c-3.8,0-7-1.2-9.5-3.7c-2.5-2.5-3.8-5.5-3.8-9.1c0-3.6,1.3-6.6,3.8-9.1c2.6-2.5,5.7-3.8,9.5-3.8c3.8,0,7,1.2,9.5,3.7
		c2.5,2.5,3.8,5.5,3.8,9.1c0,3.6-1.3,6.6-3.8,9.1C496.1,509.4,493,510.7,489.2,510.7"/>
	<rect x="511.8" y="503.3" class="st3" width="7" height="6.9"/>
	<path class="st3" d="M396,229.8v-14.6h-28.8l14.2,19.9C385.7,232.4,390.7,230.5,396,229.8 M419.5,235.2l14.3-20h-29v14.6
		C410,230.6,415,232.4,419.5,235.2 M429.5,244.2l32.1-20.9v-8.1h-17.1l-18.2,25.4C427.4,241.8,428.5,243,429.5,244.2 M374.5,240.6
		l-18.1-25.4h-17.3c0,2.7,0,5.4,0,8.1l32.2,20.9C372.3,243,373.4,241.8,374.5,240.6 M436.9,261.1l24.7-14.3v-13l-27.6,17.9
		C435.4,254.7,436.4,257.8,436.9,261.1 M339.1,233.8c0,4.3,0,8.7,0,13l24.7,14.3c0.5-3.2,1.5-6.4,2.9-9.3L339.1,233.8z M428.6,265.9
		c-0.3-12-8.9-23.1-20.3-26.4c-9.4-2.7-20.2-0.1-27.4,6.7c-5.3,5.1-8.5,12.3-8.7,19.8l28.2,16.3L428.6,265.9z M339.1,256.9
		c0,3.5,0,7,0,10.5l43.4,25l9.1-5.3L339.1,256.9z M339.2,277.6c0.1,3.8,0.5,7.6,1.3,11.3l24.1,13.9l9.2-5.3L339.2,277.6z
		 M344.6,301.4c1.5,3.4,3.4,6.7,5.5,9.8l5.7-3.3L344.6,301.4z M362.7,324.6l98.9-57.1V257l-106,61.2c0.5,0.5,1,1,1.4,1.5
		C358.9,321.4,360.7,323.1,362.7,324.6 M461.6,277.6L371,329.9c3.4,1.8,6.9,3.3,10.6,4.5l78.7-45.6
		C461.1,285.2,461.5,281.4,461.6,277.6 M456.3,301.4l-61.9,35.8c6.1,0.6,12.3,0.4,18.3-0.8C431.6,332.5,448.3,319.1,456.3,301.4
		 M470.4,276.3c0,25.6-15,50.5-38.1,62.3c-22.6,11.6-51.4,9.7-72.6-5.4c-18-12.9-29.2-34.4-29.3-56.7v-70.1h140V276.3z"/>
</g>
</svg>
