<?xml version="1.0" encoding="utf-8"?>
<!-- Generator: Adobe Illustrator 24.2.1, SVG Export Plug-In . SVG Version: 6.00 Build 0)  -->
<svg version="1.1" id="Layer_1" xmlns="http://www.w3.org/2000/svg" xmlns:xlink="http://www.w3.org/1999/xlink" x="0px" y="0px"
	 viewBox="0 0 800 800" style="enable-background:new 0 0 800 800;" xml:space="preserve">
<style type="text/css">
	.st0{fill-rule:evenodd;clip-rule:evenodd;fill:#002546;}
	.st1{fill:#FFFFFF;}
</style>
<rect x="-0.4" y="-0.5" class="st0" width="801.5" height="801.5"/>
<g>
	<g>
		<path class="st1" d="M207.3,359l-13.9,7.3c4.7,1.8,9.1,3.6,13.9,5.8c4.7-2.2,9.5-4.4,13.9-6.2L207.3,359z M207.3,359l-13.9,7.3
			c4.7,1.8,9.1,3.6,13.9,5.8c4.7-2.2,9.5-4.4,13.9-6.2L207.3,359z M253.3,349.9l-7.7,1.5c-2.6,0.4-5.5,1.1-8,1.8L211,339.3l-3.3-1.8
			l-3.3,1.8l-27,13.9c-2.9-0.7-5.8-1.5-8.4-1.8l-7.7-1.5l-8.8-1.5V425l6.2,1.1l5.5,1.1c12,2.2,24.8,6.6,37.2,13.1l2.9,1.5l3.3,1.8
			l3.3-1.8l2.9-1.5c12.4-6.6,24.8-10.9,37.2-13.1l5.5-1.1l6.2-1.1v-76.6L253.3,349.9z M254.4,418.8l-5.1,1.1
			c-12.8,2.2-25.9,6.9-39,13.9l-2.9,1.5l-2.9-1.5c-13.1-6.9-26.3-11.3-39-13.9l-5.5-1.1v-61.7l7.7,1.5c3.6,0.7,7.3,1.5,10.6,2.6
			l29.6-15.3l29.2,15c3.6-1.1,6.9-1.8,10.2-2.2l7.7-1.5v61.7H254.4z M193.1,365.9c4.7,1.8,9.1,3.6,13.9,5.8
			c4.7-2.2,9.5-4.4,13.9-6.2l-13.9-6.9L193.1,365.9z M207.3,359l-13.9,7.3c4.7,1.8,9.1,3.6,13.9,5.8c4.7-2.2,9.5-4.4,13.9-6.2
			L207.3,359z M207.3,359l-13.9,7.3c4.7,1.8,9.1,3.6,13.9,5.8c4.7-2.2,9.5-4.4,13.9-6.2L207.3,359z M207.3,359l-13.9,7.3
			c4.7,1.8,9.1,3.6,13.9,5.8c4.7-2.2,9.5-4.4,13.9-6.2L207.3,359z M207.3,359l-13.9,7.3c4.7,1.8,9.1,3.6,13.9,5.8
			c4.7-2.2,9.5-4.4,13.9-6.2L207.3,359z"/>
		<path class="st1" d="M241.6,372.9v35.4c-9.1,2.2-18.6,5.1-28.1,9.5v-34.3C223,378.7,232.1,375.4,241.6,372.9z"/>
		<path class="st1" d="M200.4,383.4v34.3c-9.5-4-18.6-7.3-28.1-9.5v-35.4C181.8,375.4,191.3,378.7,200.4,383.4z"/>
	</g>
	<g>
		<path class="st1" d="M339.8,381.3c0-7.3-2.6-13.5-7.3-18.6s-10.9-7.7-17.9-7.7c-7.7,0-14.2,2.6-19,7.7c-4.7,5.1-7.3,11.3-7.3,18.6
			c0,7.7,2.6,13.9,7.3,19c5.1,5.1,11.7,7.3,19.7,7.3c9.5,0,16.8-3.6,21.9-10.6l-10.2-5.8c-2.6,3.3-6.2,5.1-11.3,5.1
			c-7.7,0-12.4-2.9-14.2-9.5h37.6C339.4,384.5,339.8,383.1,339.8,381.3z M301.5,376.5c1.5-6.2,6.2-10.2,13.1-10.2
			c5.8,0,10.9,3.3,12.4,10.2H301.5z"/>
		<path class="st1" d="M414.3,360.5c-3.6-3.3-7.7-4.7-12.8-4.7c-6.6,0-12,2.6-16.1,7.7c-3.3-5.1-8-7.7-15-7.7
			c-5.5,0-9.9,1.5-13.1,4.7v-3.6h-11.7v49.3h11.7v-25.5c0-4.7,1.1-8,3.3-10.6c2.2-2.2,4.7-3.3,7.7-3.3c2.9,0,5.1,1.1,6.6,2.9
			s1.8,4.4,1.8,7.3v29.2h11.7v-25.5c0-4.7,1.1-8,3.3-10.6c2.2-2.2,4.7-3.3,7.7-3.3c2.9,0,5.1,1.1,6.6,2.9s1.8,4.4,1.8,7.3v29.2h11.7
			v-30.3C419.7,368.8,417.9,363.4,414.3,360.5z"/>
		<path class="st1" d="M472.6,363c-4.7-4.7-10.6-7.3-17.5-7.3c-2.9,0-5.5,0.4-8,1.5c-2.6,1.1-4,1.5-4.7,2.2
			c-0.7,0.4-1.1,1.1-1.8,1.5v-3.6h-11.7v64.6h11.7v-19l1.5,1.1c1.1,0.7,2.9,1.8,5.1,2.6c2.6,0.7,5.1,1.1,8,1.1
			c6.9,0,12.8-2.6,17.5-7.3s6.9-10.9,6.9-18.6C479.9,374,477.4,367.8,472.6,363z M463.9,392.2c-2.6,2.6-5.8,4-10.2,4
			s-7.3-1.5-10.2-4c-2.6-2.6-4-6.2-4-10.6c0-4.4,1.5-8,4-10.6c2.6-2.6,5.8-4,10.2-4s7.3,1.5,10.2,4c2.6,2.6,4,6.2,4,10.6
			C467.9,386,466.8,389.6,463.9,392.2z"/>
		<path class="st1" d="M497.8,360.5v-3.6h-11.7v49.3h11.7v-25.5c0-5.1,1.1-8.8,3.6-10.9c2.2-2.2,5.8-2.9,10.9-2.9v-10.9
			C506.2,355.7,501.1,357.2,497.8,360.5z"/>
		<path class="st1" d="M565.7,381.3c0-7.3-2.6-13.5-7.3-18.6c-4.7-5.1-10.9-7.7-17.9-7.7c-7.7,0-14.2,2.6-19,7.7
			c-4.7,5.1-7.3,11.3-7.3,18.6c0,7.7,2.6,13.9,7.3,19c5.1,5.1,11.7,7.3,19.7,7.3c9.5,0,16.8-3.6,21.9-10.6l-10.2-5.8
			c-2.6,3.3-6.2,5.1-11.3,5.1c-7.7,0-12.4-2.9-14.2-9.5H565C565.7,384.5,565.7,383.1,565.7,381.3z M527.4,376.5
			c1.5-6.2,6.2-10.2,13.1-10.2c5.8,0,10.9,3.3,12.4,10.2H527.4z"/>
		<path class="st1" d="M604,383.1c-1.5-2.2-3.6-4-5.8-4.7c-2.6-0.7-4.7-1.8-6.9-2.6c-2.2-0.7-4-1.8-5.8-2.6
			c-1.5-1.1-2.6-2.2-2.6-3.6c0-1.1,0.4-2.2,1.5-2.9c1.1-0.7,2.2-1.1,4-1.1c4,0,8,1.5,12,4l5.5-8l-2.2-1.5c-1.5-1.1-3.6-2.2-6.6-2.9
			c-2.9-1.1-6.2-1.5-9.5-1.5c-4.7,0-8.8,1.5-12,4.4c-3.3,2.9-4.7,6.6-4.7,10.6c0,3.3,0.7,5.8,2.6,8c1.5,2.2,3.6,3.6,6.2,4.4
			c2.6,0.7,4.7,1.8,6.9,2.6c2.2,0.7,4,1.8,5.8,2.6c1.8,1.1,2.6,2.2,2.6,3.6c0,3.3-2.2,5.1-6.2,5.1c-2.2,0-4.7-0.4-6.9-1.5
			c-2.6-1.1-4-1.8-5.1-2.6c-0.7-0.7-1.5-1.1-2.2-1.5l-6.6,8.4l1.1,0.7c0.7,0.4,1.5,1.1,2.9,1.8c1.1,0.7,2.6,1.5,4.4,2.2
			c1.5,0.7,3.6,1.5,5.8,1.8s4.7,0.7,6.9,0.7c5.5,0,9.5-1.5,12.8-4.4c3.3-2.9,4.7-6.6,4.7-10.9C606.2,388.6,605.5,385.6,604,383.1z"
			/>
		<path class="st1" d="M645.6,383.1c-1.5-2.2-3.6-4-5.8-4.7c-2.6-0.7-4.7-1.8-6.9-2.6c-2.2-0.7-4-1.8-5.8-2.6
			c-1.5-1.1-2.6-2.2-2.6-3.6c0-1.1,0.4-2.2,1.5-2.9c1.1-0.7,2.2-1.1,4-1.1c4,0,8,1.5,12,4l5.5-8l-2.2-1.5c-1.5-1.1-3.6-2.2-6.6-2.9
			c-2.9-1.1-6.2-1.5-9.5-1.5c-4.7,0-8.8,1.5-12,4.4c-3.3,2.9-4.7,6.6-4.7,10.6c0,3.3,0.7,5.8,2.6,8c1.5,2.2,3.6,3.6,6.2,4.4
			c2.6,0.7,4.7,1.8,6.9,2.6s4,1.8,5.8,2.6c1.5,1.1,2.6,2.2,2.6,3.6c0,3.3-2.2,5.1-6.2,5.1c-2.2,0-4.7-0.4-6.9-1.5
			c-2.6-1.1-4-1.8-5.1-2.6c-0.7-0.7-1.5-1.1-2.2-1.5l-6.6,8.4l1.1,0.7c0.7,0.4,1.5,1.1,2.9,1.8c1.1,0.7,2.6,1.5,4.4,2.2
			c1.5,0.7,3.6,1.5,5.8,1.8s4.7,0.7,6.9,0.7c5.5,0,9.5-1.5,12.8-4.4c3.3-2.9,4.7-6.6,4.7-10.9C647.8,388.6,647.1,385.6,645.6,383.1z
			"/>
	</g>
	<g>
		<path class="st1" d="M317.2,449.1c0-3.6-1.1-6.9-3.6-9.5s-5.5-4-9.1-4c-4,0-7.3,1.1-9.5,4c-2.6,2.6-3.6,5.8-3.6,9.5
			c0,4,1.1,6.9,3.6,9.5s5.8,3.6,10.2,3.6c4.7,0,8.4-1.8,10.9-5.5l-5.1-2.9c-1.1,1.8-3.3,2.6-5.5,2.6c-4,0-6.2-1.5-7.3-4.7h19
			C317.2,451,317.2,450.2,317.2,449.1z M297.8,446.9c0.7-3.3,3.3-5.1,6.6-5.1c2.9,0,5.5,1.8,6.2,5.1H297.8z"/>
		<path class="st1" d="M339.4,426.5v13.1c-1.8-2.6-4.7-3.6-8-3.6c-3.3,0-6.2,1.5-8.8,4c-2.6,2.6-3.6,5.8-3.6,9.5s1.1,6.9,3.6,9.5
			s5.5,4,8.8,4c3.6,0,6.2-1.1,8-3.6v2.9h6.6v-35.4h-6.6V426.5z M337.3,454.2c-1.5,1.5-2.9,1.8-5.1,1.8s-3.6-0.7-5.1-1.8
			c-1.5-1.5-1.8-2.9-1.8-5.1s0.7-3.6,1.8-5.1c1.5-1.5,2.9-2.2,5.1-2.2s3.6,0.7,5.1,2.2s1.8,2.9,1.8,5.1
			C339.4,451.3,338.7,453.1,337.3,454.2z"/>
		<path class="st1" d="M367.2,436.7v13.5c0,4-2.2,6.2-5.5,6.2c-2.9,0-5.1-1.8-5.1-5.1v-14.6H350v15.3c0,3.3,0.7,5.8,2.6,7.7
			s4,2.9,6.9,2.9c3.3,0,5.8-1.1,7.7-3.6v2.9h6.2v-25.2H367.2z"/>
		<path class="st1" d="M395.6,452.8c-1.1,2.2-3.3,3.3-5.8,3.3c-1.8,0-3.6-0.7-4.7-1.8c-1.1-1.5-1.8-2.9-1.8-5.1c0-4,2.9-6.9,6.9-6.9
			c2.6,0,4.7,1.5,5.8,3.3l5.5-3.3c-2.2-4-6.6-6.6-11.3-6.6c-3.6,0-6.9,1.1-9.5,4c-2.6,2.6-3.6,5.8-3.6,9.5s1.1,6.9,3.6,9.5
			s5.8,4,9.5,4c4.7,0,9.1-2.6,11.3-6.6L395.6,452.8z"/>
		<path class="st1" d="M421.9,436.7v2.9c-1.8-2.6-4.7-3.6-8.4-3.6c-3.3,0-6.2,1.5-8.8,4c-2.6,2.6-3.6,5.8-3.6,9.5s1.1,6.9,3.6,9.5
			s5.5,4,8.8,4c3.6,0,6.2-1.1,8.4-3.6v2.9h6.6v-25.5H421.9z M420.1,454.2c-1.5,1.5-2.9,1.8-5.1,1.8s-3.6-0.7-5.1-1.8
			c-1.5-1.5-1.8-2.9-1.8-5.1s0.7-3.6,1.8-5.1c1.5-1.5,2.9-2.2,5.1-2.2s3.6,0.7,5.1,2.2s2.2,2.9,2.2,5.1
			C421.9,451.3,421.6,453.1,420.1,454.2z"/>
		<path class="st1" d="M447.5,442.9v-6.2h-5.8v-7.3l-6.6,1.8v5.5h-4.4v6.2h4.4v10.6c0,6.9,3.3,9.5,12,8.4v-5.8
			c-3.6,0.4-5.8,0-5.8-2.6v-10.6L447.5,442.9L447.5,442.9z"/>
		<path class="st1" d="M450.7,436.7v25.2h6.6v-25.2H450.7z M453.7,425.4c-2.2,0-4,1.8-4,4s1.8,4,4,4s4-1.8,4-4
			C457.7,427.6,455.9,425.4,453.7,425.4z"/>
		<path class="st1" d="M482.5,439.6c-2.6-2.6-5.8-4-9.5-4s-6.9,1.5-9.5,4s-4,5.8-4,9.5s1.1,6.9,4,9.5c2.6,2.6,5.8,4,9.5,4
			s6.9-1.1,9.5-4c2.6-2.6,4-5.8,4-9.5S485,442.6,482.5,439.6z M478.1,454.2c-1.5,1.5-2.9,1.8-4.7,1.8s-3.6-0.7-4.7-1.8
			c-1.1-1.5-1.8-2.9-1.8-5.1s0.7-3.6,1.8-5.1c1.5-1.5,2.9-1.8,4.7-1.8s3.6,0.7,4.7,1.8c1.5,1.5,1.8,2.9,1.8,5.1
			S479.2,452.8,478.1,454.2z"/>
		<path class="st1" d="M510.2,438.5c-1.8-1.8-4-2.9-6.9-2.9c-3.3,0-5.8,1.1-7.7,3.6v-2.6h-6.6v25.2h6.6v-13.5c0-4,2.2-6.2,5.5-6.2
			c2.9,0,5.1,1.8,5.1,5.1v14.6h6.6v-15.3C513.1,442.9,512.1,440.7,510.2,438.5z"/>
	</g>
</g>
</svg>
