<?xml version="1.0" encoding="utf-8"?>
<!-- Generator: Adobe Illustrator 24.2.1, SVG Export Plug-In . SVG Version: 6.00 Build 0)  -->
<svg version="1.1" id="Layer_1" xmlns="http://www.w3.org/2000/svg" xmlns:xlink="http://www.w3.org/1999/xlink" x="0px" y="0px"
	 viewBox="0 0 800 800" style="enable-background:new 0 0 800 800;" xml:space="preserve">
<style type="text/css">
	.st0{fill-rule:evenodd;clip-rule:evenodd;fill:#253A32;}
	.st1{fill:#E8E7E7;}
	.st2{fill:#7FC9A6;}
</style>
<rect x="-0.4" y="-0.5" class="st0" width="801.5" height="801.5"/>
<g>
	<g>
		<path class="st1" d="M268.7,499l-9.8-15.6l-9.1,15.6h-12.7l15.3-23.2l-14.2-20.7H251l8.4,13.8l8-13.8h12.3l-13.4,20.7l16,23.2
			H268.7z"/>
		<path class="st1" d="M312,500.1c-13.4,0-23.6-9.4-23.6-23.2c0-14.2,10.5-23.2,24-23.2c6.2,0,12.7,2.2,16.3,6.5l-7.3,7.3
			c-1.8-2.9-5.4-4-8.7-4c-7.3,0-12.7,5.8-12.7,13.4c0,8,5.1,13.4,12.3,13.4c4,0,7.6-1.8,9.4-4.4l7.3,6.9
			C325,497.6,319.2,500.1,312,500.1z"/>
		<path class="st1" d="M394,490v-25.8h19.2v-9.1h-29.4V499h30.5V490H394z M409.6,472.5h-7.3c-4.7,0-8.4,3.6-8.4,8.4h15.6V472.5z"/>
		<path class="st1" d="M350.1,490v-25.8h19.2v-9.1h-29.4V499h30.5V490H350.1z M365.7,472.5h-7.3c-4.7,0-8.4,3.6-8.4,8.4h15.6V472.5z
			"/>
		<path class="st1" d="M208.8,490v-25.8h19.2v-9.1h-29.4V499h30.5V490H208.8z M224.4,472.5h-7.3c-4.7,0-8.4,3.6-8.4,8.4h15.6V472.5z
			"/>
		<path class="st1" d="M443.8,499h-16.3v-43.9h16c12.3,0,25.1,5.1,25.1,21.8C468.5,492.5,456.1,499,443.8,499z M443.1,464.2h-5.4
			V490h5.1c7.6,0,14.5-3.3,14.5-13.1C457.6,467.1,450.7,464.2,443.1,464.2z"/>
		<path class="st1" d="M481.9,499v-43.9h10.5V499H481.9z"/>
		<path class="st1" d="M535.7,499l-17.8-28.7h-0.4l0.4,28.7h-10.2v-43.9h12l17.8,28.7h0.4l-0.4-28.7h10.2V499H535.7z"/>
		<path class="st1" d="M585,500.1c-14.2,0-24.3-9.4-24.3-23.2c0-14.2,10.5-23.2,24-23.2c6.9,0,13.4,2.2,17.1,5.8l-6.5,7.6
			c-2.2-2.2-5.4-4-9.8-4c-7.6,0-13.1,5.8-13.1,13.8c0,8,4.7,13.8,13.4,13.8c2.5,0,4.7-0.4,6.5-1.1v-8H584v-8.7h18.2v23.2
			C597.8,498.7,591.9,500.1,585,500.1z"/>
	</g>
	<g>
		<g>
			<path class="st2" d="M306.2,539l-1.5-3.6h-7.3L296,539h-5.1l8-19.2h4.4l8,19.2H306.2z M301.1,524.5l-2.5,6.5h4.7L301.1,524.5z"/>
			<path class="st2" d="M337,539h-4.7l-7.3-19.2h5.1l4.4,13.8l0,0l4.4-13.8h5.1L337,539z"/>
			<path class="st2" d="M361,539v-19.6h13.1v4h-8.4v3.6h6.5v3.6h-6.5v4h9.1v4H361V539z"/>
			<path class="st2" d="M403.1,539l-4.4-7.6h-1.5v7.6h-4.7v-19.6h7.3c3.6,0,7.3,1.5,7.3,5.8c0,2.5-1.5,4.4-4,5.1l5.1,8.4h-5.1V539z
				 M399.5,523.4h-2.5v4.4h2.2c1.5,0,3.3-0.4,3.3-2.2C402.7,523.7,400.9,523.4,399.5,523.4z"/>
			<path class="st2" d="M438.7,539l-1.5-3.6h-7.6l-1.5,3.6h-5.1l8-19.2h4.4l8,19.2H438.7z M433.6,524.5l-2.5,6.5h4.7L433.6,524.5z"
				/>
			<path class="st2" d="M469.9,539.4c-6.2,0-10.5-4-10.5-10.2c0-6.2,4.7-10.2,10.5-10.2c2.9,0,5.8,1.1,7.6,2.5l-2.9,3.3
				c-0.7-1.1-2.5-1.8-4.4-1.8c-3.3,0-5.8,2.5-5.8,6.2c0,3.6,2.2,6.2,5.8,6.2c1.1,0,2.2,0,2.9-0.4v-3.6h-3.6v-3.6h8v10.2
				C475.4,538.6,472.8,539.4,469.9,539.4z"/>
			<path class="st2" d="M496.1,539v-19.6h13.1v4h-8.4v3.6h6.5v3.6h-6.5v4h9.1v4h-13.8V539z"/>
		</g>
		<g>
			<circle class="st2" cx="540.4" cy="529.2" r="3.6"/>
			<circle class="st2" cx="260" cy="529.2" r="3.6"/>
		</g>
	</g>
	<g>
		<path class="st2" d="M412.9,360.3c5.4,5.4,8.7,13.1,8.7,21.1v1.5c0,8-3.3,15.6-8.7,21.1l-12.7,12.7l-12.7-12.7
			c-5.4-5.8-8.7-13.1-8.7-21.1v-1.5c0-8,2.9-15.3,8.7-21.1c1.8,1.8,2.5,4,2.5,6.5c0,1.5-0.4,2.9-1.1,4.4c-1.5,2.9-2.2,6.5-2.2,10.2
			v1.5c0,5.8,2.2,11.3,6.5,15.6l7.3,7.3l7.3-7.3c4-4,6.5-9.8,6.5-15.6v-1.5c0-5.8-2.2-11.3-6.5-15.6l0,0c-1.1-1.1-3.3-0.4-3.3,1.5
			v10.9c0,4.4-3.6,8-8,8V352c0-12.3-10.2-22.2-22.2-22.2h-4c-6.9,0-13.8,0-22.2,0c-4.4,0-8-3.6-8-8l0,0c6.9,0,13.1,0,18.9,0
			c1.8,0,2.5-2.2,1.5-3.3l0,0c-4-4-9.8-6.5-15.6-6.5h-1.5c-5.8,0-11.3,2.2-15.6,6.5l-7.3,7.3l7.3,7.3c4,4,9.8,6.5,15.6,6.5h1.1l0,0
			c3.6,0,6.9-0.7,10.2-2.5c3.6-1.8,8-1.1,10.9,1.5c-2.9,2.9-6.2,5.1-9.8,6.5c-3.6,1.5-7.3,2.2-11.3,2.2h-1.8c-8,0-15.6-3.3-21.1-8.7
			l-12.7-12.7l12.7-12.7c5.4-5.4,13.1-8.7,21.1-8.7h1.8c8,0,15.6,3.3,21.1,8.7l8.7,8.7c16.3,0.4,29.4,13.4,29.8,29.8L412.9,360.3z"
			/>
		<path class="st2" d="M457.2,354.9L457.2,354.9c-6.2,12-16,21.8-27.6,28l0,0c-1.8-3.6-0.7-8.4,2.5-10.5c5.4-4,10.5-8.7,14.5-14.5
			C449.2,354.2,453.6,353.1,457.2,354.9z"/>
		<path class="st2" d="M370.4,382.5L370.4,382.5c-12-6.2-21.8-16-27.6-27.6l0,0c3.6-1.8,8.4-0.7,10.5,2.9c4,5.4,8.7,10.5,14.5,14.5
			C371.2,374.1,372.2,378.8,370.4,382.5z"/>
		<path class="st2" d="M491.4,325.5l-12.7,12.7c-5.4,5.4-13.1,8.7-21.1,8.7h-1.5c-8,0-15.6-3.3-21.1-8.7l-8.7-8.7
			c-16.3-0.4-29.4-13.4-29.8-29.8l-8.7-8.7c-5.4-5.4-8.7-13.1-8.7-21.1v-1.5c0-8,3.3-15.6,8.7-21.1l12.7-12.7l12.7,12.7
			c5.4,5.4,8.7,13.1,8.7,21.1v1.5c0,8-2.9,15.3-8.7,21.1c-1.8-1.8-2.5-4-2.5-6.5c0-1.5,0.4-2.9,1.1-4.4c1.5-3.3,2.5-6.5,2.5-10.2
			v-1.5c0-5.8-2.2-11.3-6.5-15.6l-7.3-7.3l-7.3,7.3c-4,4-6.5,9.8-6.5,15.6v1.5c0,5.8,2.2,11.3,6.5,15.6l0,0c1.1,1.1,3.3,0.4,3.3-1.5
			c0-3.3,0-6.9,0-10.9c0-4.4,3.6-8,8-8c0,6.2,0,11.3,0,16c0,4.7,0,9.4,0,13.8v4c0,12.3,10.2,22.2,22.2,22.2h26.1c4.4,0,8,3.6,8,8
			l0,0H442c-1.8,0-2.5,2.2-1.5,3.3l0,0c4,4,9.8,6.5,15.6,6.5h1.5c5.8,0,11.3-2.2,15.6-6.5l7.3-7.3l-7.3-7.3c-4-4-9.8-6.5-15.6-6.5
			h-1.5l0,0c-3.6,0-6.9,0.7-10.2,2.5c-3.6,1.8-8,1.1-10.9-1.5c2.9-2.9,6.2-5.1,9.8-6.5c3.6-1.5,7.3-2.2,11.3-2.2h1.8
			c8,0,15.6,3.3,21.1,8.7L491.4,325.5z"/>
		<path class="st2" d="M429.6,268.1L429.6,268.1c12,6.2,21.8,16,27.6,27.6l0,0c-3.6,1.8-8.4,0.7-10.5-2.9c-4-5.4-8.7-10.5-14.5-14.5
			C428.9,276.4,427.8,271.7,429.6,268.1z"/>
		<path class="st2" d="M342.8,295.7L342.8,295.7c6.2-12,15.6-21.8,27.6-27.6l0,0c1.8,3.6,0.7,8.4-2.9,10.5
			c-5.8,4-10.5,8.7-14.5,14.5C351.2,296.4,346.5,297.5,342.8,295.7z"/>
	</g>
</g>
</svg>
