<?xml version="1.0" encoding="utf-8"?>
<!-- Generator: Adobe Illustrator 24.2.1, SVG Export Plug-In . SVG Version: 6.00 Build 0)  -->
<svg version="1.1" id="Layer_1" xmlns="http://www.w3.org/2000/svg" xmlns:xlink="http://www.w3.org/1999/xlink" x="0px" y="0px"
	 viewBox="0 0 800 800" style="enable-background:new 0 0 800 800;" xml:space="preserve">
<style type="text/css">
	.st0{fill-rule:evenodd;clip-rule:evenodd;fill:#25293C;}
	.st1{fill:#FFFFFF;}
	.st2{fill:#F5753A;}
	.st3{fill-rule:evenodd;clip-rule:evenodd;fill:#F5753A;}
</style>
<rect x="-0.4" y="-0.5" class="st0" width="801.5" height="801.5"/>
<g>
	<polygon class="st1" points="343.8,321.8 370.8,321.8 370.8,330.8 353.4,330.8 353.4,341 368.9,341 368.9,349.4 353.4,349.4 
		353.4,364.2 343.8,364.2 	"/>
	<rect x="376.1" y="320.9" class="st1" width="9" height="43.3"/>
	<path class="st1" d="M407.9,356.8c1.1,0,2.2-0.2,3.2-0.6c1-0.4,1.9-1,2.6-1.7c0.7-0.7,1.3-1.6,1.8-2.6c0.4-1,0.6-2.1,0.6-3.3
		c0-1.2-0.2-2.3-0.6-3.3c-0.4-1-1-1.8-1.7-2.6c-0.7-0.7-1.6-1.3-2.6-1.7c-1-0.4-2.1-0.6-3.2-0.6s-2.2,0.2-3.2,0.6
		c-1,0.4-1.9,1-2.6,1.7c-0.7,0.7-1.3,1.6-1.8,2.6c-0.4,1-0.6,2.1-0.6,3.3c0,1.2,0.2,2.3,0.6,3.3c0.4,1,1,1.9,1.8,2.6
		c0.7,0.7,1.6,1.3,2.6,1.7C405.7,356.6,406.8,356.8,407.9,356.8z M407.9,365.2c-2.4,0-4.7-0.4-6.8-1.3c-2.1-0.8-3.9-2-5.5-3.5
		c-1.6-1.5-2.8-3.2-3.7-5.3c-0.9-2-1.3-4.2-1.3-6.6c0-2.3,0.5-4.5,1.4-6.5c0.9-2,2.2-3.8,3.7-5.2c1.6-1.5,3.4-2.6,5.5-3.5
		c2.1-0.8,4.3-1.3,6.7-1.3c2.4,0,4.6,0.4,6.7,1.3c2.1,0.8,3.9,2,5.5,3.5c1.6,1.5,2.8,3.2,3.7,5.2c0.9,2,1.4,4.2,1.4,6.5
		c0,2.4-0.5,4.6-1.4,6.6c-0.9,2-2.1,3.8-3.7,5.3c-1.6,1.5-3.4,2.6-5.5,3.5C412.6,364.7,410.4,365.2,407.9,365.2z"/>
	<path class="st1" d="M430.8,333h7.1l0.9,3.6h0.5c0.9-1.3,2.1-2.3,3.6-3.2c1.5-0.8,3.3-1.3,5.2-1.3h1v8.7h-1.1
		c-1.1,0-2.1,0.2-3.1,0.5c-1,0.3-1.9,0.8-2.7,1.5c-0.8,0.7-1.4,1.5-1.9,2.6c-0.5,1.1-0.7,2.4-0.7,3.9v14.9h-8.9V333z"/>
	<path class="st1" d="M453.8,333h9.2v31.2h-9.2V333z M458.4,328.2c-1.4,0-2.7-0.5-3.7-1.5c-1-1-1.5-2.3-1.5-3.7
		c0-1.6,0.5-2.8,1.6-3.8c1.1-1,2.3-1.5,3.6-1.5c1.4,0,2.7,0.5,3.8,1.5c1.1,1,1.6,2.3,1.6,3.8c0,1.4-0.5,2.7-1.6,3.7
		C461.1,327.7,459.9,328.2,458.4,328.2z"/>
	<path class="st1" d="M485.9,357c1.2,0,2.3-0.2,3.4-0.7c1-0.5,1.9-1.1,2.7-1.8c0.8-0.8,1.4-1.6,1.8-2.6c0.4-1,0.6-2.1,0.6-3.2
		c0-1.2-0.2-2.3-0.7-3.3c-0.5-1-1.1-1.9-1.8-2.7c-0.8-0.8-1.7-1.4-2.7-1.8c-1-0.4-2.2-0.6-3.4-0.6c-1.1,0-2.2,0.2-3.3,0.6
		c-1,0.4-1.9,1-2.7,1.7c-0.8,0.7-1.4,1.6-1.8,2.6c-0.4,1-0.6,2.2-0.6,3.4c0,1.2,0.2,2.4,0.6,3.4c0.4,1,1,1.9,1.8,2.6
		c0.8,0.7,1.7,1.3,2.7,1.7C483.7,356.8,484.8,357,485.9,357z M484.8,365.1c-2.5,0-4.7-0.4-6.7-1.3c-2-0.9-3.7-2-5.1-3.5
		c-1.4-1.5-2.5-3.2-3.2-5.1c-0.8-1.9-1.1-4-1.1-6.2c0-2.3,0.4-4.5,1.1-6.6c0.8-2.1,1.8-3.8,3.3-5.4c1.4-1.5,3.1-2.7,5.1-3.6
		c2-0.9,4.2-1.3,6.7-1.3c2.1,0,3.9,0.4,5.3,1.1c1.4,0.8,2.6,1.7,3.6,2.9h0.5v-15.2h9v32.7c0,0.9,0.1,1.6,0.3,2.1
		c0.2,0.5,0.6,0.8,1.4,0.8c0.2,0,0.3,0,0.5-0.1c0.2,0,0.3-0.1,0.6-0.2h0.7v7.9c-0.7,0.3-1.4,0.6-2.1,0.7c-0.7,0.2-1.5,0.2-2.3,0.2
		c-1.2,0-2.2-0.1-3-0.4c-0.8-0.3-1.4-0.6-1.9-1.1c-0.5-0.5-0.8-1-1-1.6c-0.2-0.6-0.4-1.2-0.5-1.8h-0.5c-1.1,1.6-2.5,2.8-4.4,3.6
		C489.2,364.7,487.2,365.1,484.8,365.1z"/>
	<path class="st1" d="M527.3,357c1.2,0,2.3-0.2,3.4-0.7c1-0.5,1.9-1.1,2.7-1.8c0.8-0.8,1.4-1.6,1.8-2.6c0.4-1,0.6-2.1,0.6-3.2
		c0-1.2-0.2-2.3-0.7-3.3c-0.5-1-1.1-1.9-1.8-2.7c-0.8-0.8-1.7-1.4-2.7-1.8c-1-0.4-2.2-0.6-3.4-0.6c-1.1,0-2.2,0.2-3.3,0.6
		c-1,0.4-1.9,1-2.7,1.7c-0.8,0.7-1.4,1.6-1.8,2.6c-0.4,1-0.6,2.2-0.6,3.4c0,1.2,0.2,2.4,0.6,3.4c0.4,1,1,1.9,1.8,2.6
		c0.8,0.7,1.7,1.3,2.7,1.7C525.1,356.8,526.2,357,527.3,357z M526.2,365.1c-2.5,0-4.7-0.4-6.7-1.3c-2-0.9-3.7-2-5.1-3.5
		c-1.4-1.5-2.5-3.2-3.2-5.1c-0.8-1.9-1.1-4-1.1-6.2c0-2.3,0.4-4.5,1.1-6.6c0.8-2.1,1.8-3.8,3.3-5.4c1.4-1.5,3.1-2.7,5.1-3.6
		c2-0.9,4.2-1.3,6.7-1.3c1.4,0,2.6,0.1,3.7,0.4c1.1,0.3,2,0.6,2.9,1c0.8,0.4,1.6,0.9,2.2,1.5c0.6,0.6,1.2,1.1,1.7,1.7h0.5l0.9-3.6
		h6.6v20.5c0,0.9,0.1,1.6,0.3,2.1c0.2,0.5,0.6,0.8,1.4,0.8c0.2,0,0.3,0,0.5-0.1c0.2,0,0.3-0.1,0.6-0.2h0.7v7.9
		c-0.7,0.3-1.4,0.6-2.1,0.7c-0.7,0.2-1.5,0.2-2.3,0.2c-1.2,0-2.2-0.1-3-0.4c-0.8-0.3-1.4-0.6-1.9-1.1c-0.5-0.5-0.8-1-1-1.6
		c-0.2-0.6-0.4-1.2-0.5-1.8h-0.5c-1.1,1.6-2.5,2.8-4.4,3.6C530.7,364.7,528.6,365.1,526.2,365.1z"/>
	<path class="st1" d="M366.5,416.6c-3.3,0-6.4-0.6-9.2-1.7c-2.8-1.1-5.2-2.6-7.2-4.6c-2-2-3.6-4.3-4.7-7c-1.1-2.7-1.7-5.7-1.7-8.9
		c0-3.2,0.6-6.2,1.7-8.9s2.7-5,4.7-7c2-2,4.4-3.5,7.2-4.6c2.8-1.1,5.8-1.6,9.2-1.6c3.1,0,5.7,0.2,7.8,0.7c2.1,0.5,4,1.1,5.6,1.9v8.8
		h-0.6c-1.4-0.8-3-1.5-4.8-2c-1.8-0.5-3.9-0.7-6.2-0.7c-2.2,0-4.2,0.3-6,1c-1.8,0.7-3.3,1.6-4.5,2.8c-1.2,1.2-2.2,2.6-2.8,4.2
		s-1,3.4-1,5.3c0,1.9,0.3,3.7,1,5.3c0.7,1.6,1.6,3.1,2.8,4.2c1.2,1.2,2.7,2.1,4.5,2.8c1.8,0.7,3.8,1,6,1c2.3,0,4.4-0.3,6.2-0.8
		s3.4-1.2,4.8-2h0.6v8.8c-1.6,0.9-3.5,1.5-5.6,2C372.2,416.4,369.6,416.6,366.5,416.6z"/>
	<path class="st1" d="M400.6,408.3c1.1,0,2.2-0.2,3.2-0.6c1-0.4,1.9-1,2.6-1.7c0.7-0.7,1.3-1.6,1.8-2.6c0.4-1,0.6-2.1,0.6-3.3
		s-0.2-2.3-0.6-3.3c-0.4-1-1-1.8-1.7-2.6s-1.6-1.3-2.6-1.7c-1-0.4-2.1-0.6-3.2-0.6c-1.1,0-2.2,0.2-3.2,0.6s-1.9,1-2.6,1.7
		s-1.3,1.6-1.8,2.6c-0.4,1-0.6,2.1-0.6,3.3s0.2,2.3,0.6,3.3c0.4,1,1,1.9,1.8,2.6c0.7,0.7,1.6,1.3,2.6,1.7
		C398.4,408.1,399.5,408.3,400.6,408.3z M400.6,416.7c-2.4,0-4.7-0.4-6.8-1.3c-2.1-0.8-3.9-2-5.5-3.5c-1.6-1.5-2.8-3.2-3.7-5.3
		c-0.9-2-1.3-4.2-1.3-6.6c0-2.3,0.5-4.5,1.4-6.5c0.9-2,2.2-3.8,3.7-5.2c1.6-1.5,3.4-2.6,5.5-3.5c2.1-0.8,4.3-1.3,6.7-1.3
		c2.4,0,4.6,0.4,6.7,1.3c2.1,0.8,3.9,2,5.5,3.5c1.6,1.5,2.8,3.2,3.7,5.2c0.9,2,1.4,4.2,1.4,6.5c0,2.4-0.5,4.6-1.4,6.6
		c-0.9,2-2.1,3.8-3.7,5.3c-1.6,1.5-3.4,2.6-5.5,3.5C405.3,416.3,403,416.7,400.6,416.7z"/>
	<path class="st1" d="M423.5,384.5h7.4l0.9,3.6h0.6c0.9-1.2,2.1-2.3,3.6-3.2c1.5-0.9,3.6-1.3,6.2-1.3c4.3,0,7.5,1.2,9.7,3.6
		c2.2,2.4,3.3,5.5,3.3,9.4v19.1h-9.2v-17.1c0-2.2-0.6-3.9-1.7-5c-1.1-1.1-2.7-1.7-4.6-1.7c-1.1,0-2.1,0.2-3,0.6
		c-0.8,0.4-1.5,1-2.1,1.7c-0.6,0.7-1,1.5-1.2,2.5c-0.3,0.9-0.4,1.9-0.4,2.9v16.2h-9.2V384.5z"/>
	<path class="st1" d="M477.6,416.7c-2.6,0-5-0.4-7.1-1.2c-2.1-0.8-4-2-5.4-3.4c-1.5-1.5-2.7-3.2-3.5-5.3c-0.8-2-1.2-4.2-1.2-6.6
		c0-2.4,0.4-4.6,1.2-6.7c0.8-2,2-3.8,3.5-5.2c1.5-1.5,3.3-2.6,5.4-3.4c2.1-0.8,4.5-1.2,7.1-1.2c2,0,3.8,0.2,5.4,0.6
		c1.6,0.4,3,0.9,4.2,1.6v8.1h-0.7c-1-0.6-2.2-1-3.6-1.4c-1.4-0.4-2.9-0.6-4.5-0.6c-2.6,0-4.7,0.7-6.2,2.2c-1.6,1.5-2.4,3.5-2.4,6
		c0,2.5,0.8,4.5,2.3,6c1.6,1.5,3.7,2.3,6.3,2.3c1.6,0,3.1-0.2,4.5-0.6c1.4-0.4,2.6-0.9,3.5-1.4h0.7v8.1c-1.2,0.7-2.6,1.2-4.2,1.6
		C481.3,416.5,479.5,416.7,477.6,416.7z"/>
	<path class="st1" d="M515,396.6c-0.1-1.7-0.8-3.2-2.1-4.5c-1.3-1.3-3.1-1.9-5.4-1.9c-1.9,0-3.6,0.5-5.1,1.6c-1.5,1-2.5,2.8-3,5.2
		H515V396.6z M522.8,397.4c0,0.9-0.1,1.8-0.2,2.7c-0.1,0.9-0.4,1.8-0.8,2.6h-22.3c0.3,1.3,0.8,2.3,1.4,3.2c0.7,0.9,1.5,1.5,2.4,2.1
		c0.9,0.5,2,0.9,3.1,1.1c1.1,0.2,2.2,0.3,3.3,0.3c2.1,0,3.9-0.2,5.5-0.5c1.6-0.3,3.2-0.8,4.8-1.5h0.6v6.6c-1.7,0.9-3.6,1.6-5.5,2.1
		c-1.9,0.4-4.2,0.6-6.8,0.6c-2.6,0-5-0.4-7.1-1.2c-2.1-0.8-4-1.9-5.5-3.3c-1.5-1.4-2.7-3.1-3.5-5.2c-0.8-2.1-1.3-4.3-1.3-6.8
		c0-2.6,0.4-5,1.3-7c0.8-2.1,2-3.8,3.5-5.2c1.5-1.4,3.2-2.5,5.2-3.3c2-0.8,4.2-1.1,6.5-1.1c2.4,0,4.6,0.4,6.5,1.1
		c1.9,0.7,3.5,1.7,4.8,3c1.3,1.3,2.3,2.7,3,4.4C522.4,393.7,522.8,395.5,522.8,397.4z"/>
	<path class="st1" d="M528.3,384.5h7.1l0.9,3.6h0.5c0.9-1.3,2.1-2.3,3.6-3.2c1.5-0.8,3.3-1.3,5.2-1.3h1v8.7h-1.1
		c-1.1,0-2.1,0.2-3.1,0.5c-1,0.3-1.9,0.8-2.7,1.5c-0.8,0.7-1.4,1.5-1.9,2.6c-0.5,1.1-0.7,2.4-0.7,3.9v14.9h-8.9V384.5z"/>
	<path class="st1" d="M551.3,384.5h7.4l0.9,3.6h0.6c0.9-1.2,2.1-2.3,3.6-3.2c1.5-0.9,3.6-1.3,6.2-1.3c4.3,0,7.5,1.2,9.7,3.6
		c2.2,2.4,3.3,5.5,3.3,9.4v19.1h-9.2v-17.1c0-2.2-0.6-3.9-1.7-5c-1.1-1.1-2.7-1.7-4.6-1.7c-1.1,0-2.1,0.2-3,0.6
		c-0.8,0.4-1.5,1-2.1,1.7c-0.6,0.7-1,1.5-1.2,2.5c-0.3,0.9-0.4,1.9-0.4,2.9v16.2h-9.2V384.5z"/>
	<path class="st1" d="M612.2,396.6c-0.1-1.7-0.8-3.2-2.1-4.5c-1.3-1.3-3.1-1.9-5.4-1.9c-1.9,0-3.6,0.5-5.1,1.6c-1.5,1-2.5,2.8-3,5.2
		h15.5V396.6z M620,397.4c0,0.9-0.1,1.8-0.2,2.7c-0.1,0.9-0.4,1.8-0.8,2.6h-22.3c0.3,1.3,0.8,2.3,1.4,3.2c0.7,0.9,1.5,1.5,2.4,2.1
		c0.9,0.5,2,0.9,3.1,1.1c1.1,0.2,2.2,0.3,3.3,0.3c2.1,0,3.9-0.2,5.5-0.5c1.6-0.3,3.2-0.8,4.8-1.5h0.6v6.6c-1.7,0.9-3.6,1.6-5.5,2.1
		c-1.9,0.4-4.2,0.6-6.8,0.6c-2.6,0-5-0.4-7.1-1.2c-2.1-0.8-4-1.9-5.5-3.3c-1.5-1.4-2.7-3.1-3.5-5.2c-0.8-2.1-1.3-4.3-1.3-6.8
		c0-2.6,0.4-5,1.3-7c0.8-2.1,2-3.8,3.5-5.2c1.5-1.4,3.2-2.5,5.2-3.3c2-0.8,4.2-1.1,6.5-1.1c2.4,0,4.6,0.4,6.5,1.1
		c1.9,0.7,3.5,1.7,4.8,3c1.3,1.3,2.3,2.7,3,4.4C619.6,393.7,620,395.5,620,397.4z"/>
	<path class="st1" d="M641.1,408.5c1.2,0,2.3-0.2,3.4-0.7c1-0.5,1.9-1.1,2.7-1.8c0.8-0.8,1.4-1.6,1.8-2.6c0.4-1,0.6-2.1,0.6-3.2
		c0-1.2-0.2-2.3-0.7-3.3c-0.5-1-1.1-1.9-1.8-2.7c-0.8-0.8-1.7-1.4-2.7-1.8c-1-0.4-2.2-0.6-3.4-0.6c-1.1,0-2.2,0.2-3.3,0.6
		c-1,0.4-1.9,1-2.7,1.7s-1.4,1.6-1.8,2.6c-0.4,1-0.6,2.2-0.6,3.4c0,1.2,0.2,2.4,0.6,3.4c0.4,1,1,1.9,1.8,2.6
		c0.8,0.7,1.7,1.3,2.7,1.7C638.8,408.3,639.9,408.5,641.1,408.5z M640,416.6c-2.5,0-4.7-0.4-6.7-1.3c-2-0.9-3.7-2-5.1-3.5
		c-1.4-1.5-2.5-3.2-3.2-5.1s-1.1-4-1.1-6.2c0-2.3,0.4-4.5,1.1-6.6s1.8-3.8,3.3-5.4c1.4-1.5,3.1-2.7,5.1-3.6c2-0.9,4.2-1.3,6.7-1.3
		c2.1,0,3.9,0.4,5.3,1.1c1.4,0.8,2.6,1.7,3.6,2.9h0.5v-15.2h9v32.7c0,0.9,0.1,1.6,0.3,2.1c0.2,0.5,0.6,0.8,1.4,0.8
		c0.2,0,0.3,0,0.5-0.1c0.2,0,0.3-0.1,0.6-0.2h0.7v7.9c-0.7,0.3-1.4,0.6-2.1,0.7c-0.7,0.2-1.5,0.2-2.3,0.2c-1.2,0-2.2-0.1-3-0.4
		c-0.8-0.3-1.4-0.6-1.9-1.1c-0.5-0.5-0.8-1-1-1.6c-0.2-0.6-0.4-1.2-0.5-1.8h-0.5c-1.1,1.6-2.5,2.8-4.4,3.6
		C644.4,416.2,642.3,416.6,640,416.6z"/>
	<path class="st1" d="M366.5,468.2c-3.3,0-6.4-0.6-9.2-1.7c-2.8-1.1-5.2-2.6-7.2-4.6c-2-2-3.6-4.3-4.7-7c-1.1-2.7-1.7-5.7-1.7-8.9
		s0.6-6.2,1.7-8.9s2.7-5,4.7-7c2-2,4.4-3.5,7.2-4.6c2.8-1.1,5.8-1.6,9.2-1.6c3.1,0,5.7,0.2,7.8,0.7c2.1,0.5,4,1.1,5.6,1.9v8.8h-0.6
		c-1.4-0.8-3-1.5-4.8-2c-1.8-0.5-3.9-0.7-6.2-0.7c-2.2,0-4.2,0.3-6,1c-1.8,0.7-3.3,1.6-4.5,2.8c-1.2,1.2-2.2,2.6-2.8,4.2
		c-0.7,1.6-1,3.4-1,5.3c0,1.9,0.3,3.7,1,5.3c0.7,1.6,1.6,3.1,2.8,4.2c1.2,1.2,2.7,2.1,4.5,2.8c1.8,0.7,3.8,1,6,1
		c2.3,0,4.4-0.3,6.2-0.8c1.8-0.5,3.4-1.2,4.8-2h0.6v8.8c-1.6,0.9-3.5,1.5-5.6,2C372.2,467.9,369.6,468.2,366.5,468.2z"/>
	<path class="st1" d="M400.8,460c1.2,0,2.3-0.2,3.4-0.7c1-0.5,1.9-1.1,2.7-1.8c0.8-0.8,1.4-1.6,1.8-2.6c0.4-1,0.6-2.1,0.6-3.2
		c0-1.2-0.2-2.3-0.7-3.3c-0.5-1-1.1-1.9-1.8-2.7c-0.8-0.8-1.7-1.4-2.7-1.8c-1-0.4-2.2-0.6-3.4-0.6c-1.1,0-2.2,0.2-3.3,0.6
		c-1,0.4-1.9,1-2.7,1.7s-1.4,1.6-1.8,2.6c-0.4,1-0.6,2.2-0.6,3.4c0,1.2,0.2,2.4,0.6,3.4c0.4,1,1,1.9,1.8,2.6
		c0.8,0.7,1.7,1.3,2.7,1.7C398.6,459.8,399.7,460,400.8,460z M399.7,468.2c-2.5,0-4.7-0.4-6.7-1.3c-2-0.9-3.7-2-5.1-3.5
		c-1.4-1.5-2.5-3.2-3.2-5.1c-0.8-1.9-1.1-4-1.1-6.2c0-2.3,0.4-4.5,1.1-6.6c0.8-2.1,1.8-3.8,3.3-5.4s3.1-2.7,5.1-3.6
		c2-0.9,4.2-1.3,6.7-1.3c1.4,0,2.6,0.1,3.7,0.4c1.1,0.3,2,0.6,2.9,1c0.8,0.4,1.6,0.9,2.2,1.5c0.6,0.6,1.2,1.1,1.7,1.7h0.5l0.9-3.6
		h6.6v20.5c0,0.9,0.1,1.6,0.3,2.1c0.2,0.5,0.6,0.8,1.4,0.8c0.2,0,0.3,0,0.5-0.1c0.2,0,0.3-0.1,0.6-0.2h0.7v7.9
		c-0.7,0.3-1.4,0.6-2.1,0.7c-0.7,0.2-1.5,0.2-2.3,0.2c-1.2,0-2.2-0.1-3-0.4s-1.4-0.6-1.9-1.1c-0.5-0.5-0.8-1-1-1.6
		c-0.2-0.6-0.4-1.2-0.5-1.8h-0.5c-1.1,1.6-2.5,2.8-4.4,3.6C404.1,467.7,402,468.2,399.7,468.2z"/>
	<path class="st1" d="M426.8,436h7.1l0.9,3.6h0.5c0.9-1.3,2.1-2.3,3.6-3.2c1.5-0.8,3.3-1.3,5.2-1.3h1v8.7h-1.1
		c-1.1,0-2.1,0.2-3.1,0.5c-1,0.3-1.9,0.8-2.7,1.5c-0.8,0.7-1.4,1.5-1.9,2.6c-0.5,1.1-0.7,2.4-0.7,3.9v14.9h-8.9V436z"/>
	<path class="st1" d="M471.4,448.1c-0.1-1.7-0.8-3.2-2.1-4.5c-1.3-1.3-3.1-1.9-5.4-1.9c-1.9,0-3.6,0.5-5.1,1.6c-1.5,1-2.5,2.8-3,5.2
		h15.5V448.1z M479.1,449c0,0.9-0.1,1.8-0.2,2.7c-0.1,0.9-0.4,1.8-0.8,2.6h-22.3c0.3,1.3,0.8,2.3,1.4,3.2c0.7,0.9,1.5,1.5,2.4,2.1
		c0.9,0.5,2,0.9,3.1,1.1c1.1,0.2,2.2,0.3,3.3,0.3c2.1,0,3.9-0.2,5.5-0.5c1.6-0.3,3.2-0.8,4.8-1.5h0.6v6.6c-1.7,0.9-3.6,1.6-5.5,2.1
		c-1.9,0.4-4.2,0.6-6.8,0.6c-2.6,0-5-0.4-7.1-1.2c-2.1-0.8-4-1.9-5.5-3.3c-1.5-1.4-2.7-3.1-3.5-5.2c-0.8-2.1-1.3-4.3-1.3-6.8
		c0-2.6,0.4-5,1.3-7c0.8-2.1,2-3.8,3.5-5.2c1.5-1.4,3.2-2.5,5.2-3.3c2-0.8,4.2-1.1,6.5-1.1c2.4,0,4.6,0.4,6.5,1.1
		c1.9,0.7,3.5,1.7,4.8,3c1.3,1.3,2.3,2.7,3,4.4C478.8,445.2,479.1,447,479.1,449z"/>
	<polygon class="st2" points="485.2,451.4 495.6,451.4 495.6,446.8 490.2,446.8 490.2,435.5 485.2,435.5 	"/>
	<polygon class="st2" points="497.3,451.4 507.7,451.4 507.7,446.8 502.2,446.8 502.2,435.5 497.3,435.5 	"/>
	<path class="st2" d="M516.8,451.7c2.5,0,3.9-0.4,5.1-1v-4.5h-0.3c-0.9,0.6-2.1,1-3.9,1c-2.9,0-4.2-1.9-4.2-3.8c0-2,1.3-3.8,4.2-3.8
		c1.7,0,3,0.5,3.9,1h0.3v-4.5c-1.1-0.6-2.5-1-5.1-1c-5.1,0-8.5,3.6-8.5,8.2C508.3,448.1,511.7,451.7,516.8,451.7z"/>
	<path class="st3" d="M214.8,403.1l58.3,58.3h17.1v-88.1h16.3l-73.5-49l-73.5,49h16.3v88.1H237l13.7,13.7c0,0-64.1,0-78,0
		c-5.9,0-10.7-4.8-10.7-10.7V387h-12.4c-4.7,0-8.9-3.1-10.3-7.6c-1.4-4.5,0.4-9.4,4.3-12c22.2-14.8,72.4-48.3,83.4-55.6
		c3.6-2.4,8.3-2.4,11.9,0c11,7.3,61.2,40.8,83.4,55.6c3.9,2.6,5.7,7.5,4.3,12c-1.4,4.5-5.5,7.6-10.3,7.6h-12.4v77.4
		c0,5.9-4.8,10.7-10.7,10.7c-6,0-17.2,0-21.3,0c-2.8,0-5.6-1.1-7.6-3.1c-7.3-7.3-59.2-59.2-59.2-59.2c-9-9-9-23.7,0-32.7
		c7.5-7.5,19-8.8,27.9-3.7c8.8-5.1,20.3-3.8,27.9,3.7c9,9,9,23.7,0,32.7l-10.1,10.1l-9.7-9.7l10.1-10.1c3.7-3.7,3.7-9.7,0-13.3
		c-3.7-3.7-9.7-3.7-13.3,0l-4.8,4.9l-4.8-4.9c-3.7-3.7-9.7-3.7-13.3,0C211.1,393.4,211.1,399.4,214.8,403.1z"/>
</g>
</svg>
