<?xml version="1.0" encoding="utf-8"?>
<!-- Generator: Adobe Illustrator 24.2.1, SVG Export Plug-In . SVG Version: 6.00 Build 0)  -->
<svg version="1.1" id="Layer_1" xmlns="http://www.w3.org/2000/svg" xmlns:xlink="http://www.w3.org/1999/xlink" x="0px" y="0px"
	 viewBox="0 0 800 800" style="enable-background:new 0 0 800 800;" xml:space="preserve">
<style type="text/css">
	.st0{fill-rule:evenodd;clip-rule:evenodd;}
	.st1{fill:#FFFFFF;}
</style>
<rect x="-0.4" y="-0.5" class="st0" width="801.5" height="801.5"/>
<g>
	<polygon class="st1" points="291.2,468.5 174.2,468.5 174.2,340.9 291.2,340.9 291.2,331.6 165,331.6 165,477.4 291.2,477.4 	"/>
	<polygon class="st1" points="509.5,331.6 509.5,340.9 626.6,340.9 626.6,468.5 509.5,468.5 509.5,477.4 635.8,477.4 635.8,331.6 	
		"/>
	<polygon class="st1" points="308.7,321 333,321 333,328.2 317.2,328.2 317.2,333.7 331.3,333.7 331.3,340.5 317.2,340.5 
		317.2,351.1 308.7,351.1 	"/>
	<g>
		<path class="st1" d="M344.6,321H359c4.8,0,7.9,1.4,9.9,3.4c1.7,1.7,2.7,4.1,2.7,7.2l0,0c0,4.8-2.4,7.5-6.2,9.2l7.2,10.6h-9.6
			l-6.5-9.2l0,0h-3.4v9.2h-8.6V321z M358.3,335.4c2.7,0,4.4-1.4,4.4-3.4l0,0c0-2.4-1.7-3.4-4.4-3.4h-5.5v6.8H358.3z"/>
		<path class="st1" d="M393.2,320.7h8.2l13,30.5h-8.9l-2.1-5.5h-11.6l-2.7,5.5h-8.9L393.2,320.7z M400.7,339.5l-3.4-8.6l-3.4,8.6
			H400.7z"/>
		<polygon class="st1" points="425,321 433.9,321 441.1,332.7 448.3,321 457.2,321 457.2,351.1 448.6,351.1 448.6,334 441.1,345.7 
			440.8,345.7 433.2,334 433.2,351.1 425,351.1 		"/>
		<polygon class="st1" points="470.2,321 494.5,321 494.5,328.2 478.4,328.2 478.4,332.7 493.1,332.7 493.1,339.5 478.4,339.5 
			478.4,344.3 494.8,344.3 494.8,351.1 470.2,351.1 		"/>
		<path class="st1" d="M305.6,465.1h6.2c3.8,0,5.8,1.7,5.8,5.1l0,0c0,3.4-2.7,5.1-6.2,5.1h-2.1v4.1h-4.1v-14.4H305.6z M311.4,472.3
			c1.4,0,2.4-0.7,2.4-1.7l0,0c0-1.4-1-1.7-2.4-1.7h-1.7v3.4H311.4z"/>
		<polygon class="st1" points="322.4,465.1 326.1,465.1 326.1,470.5 331.3,470.5 331.3,465.1 335.4,465.1 335.4,479.4 331.3,479.4 
			331.3,474 326.1,474 326.1,479.4 322.4,479.4 		"/>
		<path class="st1" d="M340.2,472.3L340.2,472.3c0-4.1,3.4-7.5,7.9-7.5c4.4,0,7.5,3.4,7.5,7.5l0,0c0,4.1-3.4,7.5-7.9,7.5
			C343.6,479.8,340.2,476.4,340.2,472.3 M351.5,472.3L351.5,472.3c0-2.1-1.4-3.8-3.8-3.8c-2.1,0-3.8,1.7-3.8,3.8l0,0
			c0,2.1,1.4,3.8,3.8,3.8C350.1,476,351.5,474.3,351.5,472.3"/>
		<polygon class="st1" points="363.4,468.5 359.3,468.5 359.3,465.1 371.6,465.1 371.6,468.5 367.5,468.5 367.5,479.4 363.4,479.4 
					"/>
		<path class="st1" d="M375.1,472.3L375.1,472.3c0-4.1,3.4-7.5,7.9-7.5c4.4,0,7.5,3.4,7.5,7.5l0,0c0,4.1-3.4,7.5-7.9,7.5
			C378.5,479.8,375.1,476.4,375.1,472.3 M386.7,472.3L386.7,472.3c0-2.1-1.4-3.8-3.8-3.8c-2.1,0-3.8,1.7-3.8,3.8l0,0
			c0,2.1,1.4,3.8,3.8,3.8C385,476,386.7,474.3,386.7,472.3"/>
		<path class="st1" d="M394.9,472.3L394.9,472.3c0-4.1,3.4-7.5,7.9-7.5c2.4,0,4.4,0.7,5.8,2.1l-2.4,2.7c-1-1-2.1-1.4-3.4-1.4
			c-2.1,0-3.8,1.7-3.8,3.8l0,0c0,2.4,1.7,4.1,3.8,4.1c1,0,1.7-0.3,2.4-0.7v-1.7h-2.7v-2.7h6.5v6.5c-1.4,1.4-3.8,2.1-6.2,2.1
			C398.3,479.8,394.9,476.7,394.9,472.3"/>
		<path class="st1" d="M414.1,465.1h6.8c2.1,0,3.8,0.7,4.8,1.7c0.7,0.7,1.4,2.1,1.4,3.4l0,0c0,2.1-1,3.8-3.1,4.4l3.4,5.1H423
			l-2.7-4.4l0,0h-1.7v4.4h-4.1v-14.7H414.1z M420.6,471.9c1.4,0,2.1-0.7,2.1-1.7l0,0c0-1-0.7-1.7-2.1-1.7h-2.7v3.4H420.6z"/>
		<path class="st1" d="M436.3,465.1h3.8l6.2,14.4h-4.1l-1-2.4h-5.5l-1,2.4h-4.4L436.3,465.1z M439.7,473.6l-1.7-4.1l-1.7,4.1H439.7z
			"/>
		<path class="st1" d="M450.7,465.1h6.2c3.8,0,5.8,1.7,5.8,5.1l0,0c0,3.4-2.7,5.1-6.2,5.1h-2.1v4.1h-3.8V465.1z M456.5,472.3
			c1.4,0,2.4-0.7,2.4-1.7l0,0c0-1.4-1-1.7-2.4-1.7h-1.7v3.4H456.5z"/>
		<polygon class="st1" points="467.1,465.1 471.2,465.1 471.2,470.5 476.3,470.5 476.3,465.1 480.1,465.1 480.1,479.4 476.3,479.4 
			476.3,474 471.2,474 471.2,479.4 467.1,479.4 		"/>
		<polygon class="st1" points="489.7,474 484.2,465.1 488.7,465.1 491.7,470.2 494.8,465.1 499.3,465.1 493.8,474 493.8,479.4 
			489.7,479.4 		"/>
		<path class="st1" d="M208.1,421.6v1c0,0.3,0,0.3,0.3,0.7c0.3,0,0.3,0.3,0.7,0.3c0.3,0,0.3,0,0.7-0.3c4.1-6.8,7.2-12.7,9.6-18.1
			c2.4-5.1,4.4-8.9,5.5-11.3s2.1-4.4,2.7-5.8c1.7-3.8,3.8-7.2,5.8-10.3c-8.2,2.4-14.4,3.8-19.2,3.8c-4.8,0-8.2-0.3-10.3-0.7
			c-2.1-0.7-3.4-1.4-4.1-2.1c-0.7-0.7-1-1.7-1.4-2.4c0-1,0-1.7,0-2.4c0-1.7,0.7-3.1,2.4-4.1s3.1-1.7,4.1-1.7c1,0,1.7,0,1.7,0.7
			c0,0.3,0,1-0.7,1.4c-0.3,0.7-0.7,1-0.7,1.4c0,1,3.8,1.7,10.9,1.4c7.2,0,15.1-1.4,24.3-3.4c4.8-4.8,9.2-7.2,13-7.5
			c2.4,0,4.4,0.7,5.1,2.4c0.7,1,1,2.1,1,2.7c0,1-0.3,2.1-1.4,2.7c-1,1-2.1,1.7-3.8,2.4c-3.1,1.4-6.5,2.4-10.6,3.1
			c-1.4,2.4-3.8,6.5-6.5,11.6c-2.7,5.1-4.4,8.9-5.5,10.6c-1,1.7-2.7,5.1-4.8,9.9c-2.1,4.8-4.1,8.9-5.5,12.3
			c-1.7,3.4-3.4,6.8-5.1,10.3c-3.8,6.8-7.5,10.6-10.9,10.6c-1.4,0-2.7-0.3-3.8-1.4c-1-0.7-1.7-2.1-2.1-4.1c-0.3-2.1,0.7-4.4,2.1-7.2
			c1.7-3.1,2.7-4.8,3.8-5.5c0.7-0.7,1.4-1.4,1.7-1.4C207.7,420.9,208.1,421.3,208.1,421.6"/>
		<path class="st1" d="M280.6,422c0.3,1.7,0.7,2.7,0.7,3.8s0,1.7-0.3,2.4s-0.7,1.7-1.7,2.7c-1,1.4-2.1,2.4-3.1,3.8
			c-3.1,3.1-6.5,4.4-9.9,4.4c-5.1,0-7.9-2.4-8.2-7.2c-0.3-4.4,2.1-13,7.9-26c0.3-0.3,0.3-0.7,0.3-1c-2.1,1.7-6.2,6.8-12.3,15.4
			c-5.8,8.2-9.9,14-11.6,17.5c0,0.3-0.7,0.7-1.4,1c-0.7,0.3-1.4,0.7-1.7,0.7s-1,0-1.4-0.3c-0.3-0.3-0.7-0.3-1-0.3s-0.7,0-0.7-0.3
			s0.3-1.7,1.4-4.8c0.7-2.7,2.1-6.5,3.4-10.6c3.8-11.6,9.6-27,17.5-45.9c2.7-6.5,5.1-11.3,6.5-14c1-2.1,3.4-3.1,6.5-3.1
			c0.7,0,1,0.3,1.4,0.7c0,0.3,0.3,1,0.3,1.4s0,1,0,1.4L269,372c-8.2,17.1-14.4,31.1-18.1,42.4c4.1-6.5,8.6-11.6,12.7-15.1
			c2.7-2.4,4.4-3.4,5.8-3.4c1.4,0,2.7,0.3,3.8,0.7c1,0.3,1.7,1.7,2.1,3.4c0,0.7-0.7,3.1-2.4,7.5c-4.8,13.3-7.2,20.5-6.8,21.9
			c0,1.4,0.7,2.1,1.7,2.1c1.7,0,3.8-1.7,6.8-5.1c2.1-2.7,3.8-4.1,4.1-5.1c0.3-0.3,0.7-0.3,1-0.3C279.9,420.9,280.3,421.3,280.6,422"
			/>
		<path class="st1" d="M307.3,425c1.4-1,2.4-2.1,2.7-2.4s1-1,1.4-1.4c0.7-0.7,1-1,1.4-1c0.7,0,1,0.7,1,2.4c0,1.7-0.3,3.1-1.7,5.1
			c-1.4,1.7-2.7,3.4-4.8,4.8c-2.1,1.4-4.1,2.4-6.2,3.4c-4.4,2.1-8.2,3.1-11.3,3.1s-6.2-1-8.9-3.4c-2.7-2.4-4.4-5.5-4.8-9.2
			c-0.3-3.8,0-7.5,1.4-11.3c1.4-3.8,3.1-7.2,5.5-9.9c2.4-2.7,5.1-5.1,8.6-7.2c3.4-1.7,6.8-2.7,10.3-2.7c1.7,0,3.1,0.3,4.4,1.4
			c1.4,1,2.1,2.4,2.4,4.4c0,1.7-0.3,4.1-1.7,6.5c-1.4,2.7-3.1,3.8-4.8,3.8c-2.1,0-3.1-1-3.1-3.1c0-0.7,0.3-1.4,1-3.1
			c0.7-1.4,1-2.4,1-2.7c0-0.3-0.3-0.7-0.7-0.7c-1.7,0-3.4,0.7-5.1,2.1c-1.7,1.4-3.4,2.7-4.8,4.1c-1.4,1.4-2.7,3.1-4.1,4.8
			c-2.7,3.8-3.8,7.9-3.4,12c0,1.7,0.7,3.1,1.7,4.4c1,1.4,2.7,1.7,5.1,1.7s4.4-0.3,6.8-1c2.4-0.7,4.1-1.4,5.5-2.1
			C304.2,427.4,305.9,426.4,307.3,425"/>
		<path class="st1" d="M435.3,395.6c1,0,2.1,0.3,3.1,1.4c1,1,1.7,2.4,1.7,4.1c0.3,2.1-0.3,4.4-1,7.5c-1,3.1-2.4,6.2-4.1,9.2
			c-1.7,3.1-3.8,6.2-6.2,8.9c-2.4,2.7-4.8,5.1-7.5,6.8c-2.7,1.7-5.1,2.7-7.5,2.7s-4.4-0.7-5.8-2.4c-1.7-1.7-2.4-3.8-2.7-6.8
			s0-6.2,1-9.9c1-3.8,2.4-6.8,4.1-9.6c1.7-2.7,3.8-5.1,6.2-7.5c4.4-4.4,8.9-6.8,12.7-6.8c1.7,0,3.1,0.3,4.1,1.4
			c0.3,0.3,0.7,0.7,0.7,0.7v0.3C433.9,395.6,434.6,395.6,435.3,395.6 M431.5,402.5L431.5,402.5c-1.4,0-2.1-0.7-2.1-2.7
			c-2.1,0.7-4.4,2.4-6.5,4.4c-2.4,2.1-4.1,4.4-5.8,7.5c-3.4,5.8-5.1,10.3-4.8,14.4c0.3,2.1,1,2.7,2.1,2.7c1.4,0,3.1-1,5.5-2.7
			c2.4-1.7,4.4-4.4,6.5-7.9s3.8-6.5,4.8-8.9c1-2.4,1.4-4.1,1.4-5.1C432.2,402.8,431.9,402.5,431.5,402.5"/>
		<path class="st1" d="M442.5,435h-2.4h-0.7c-0.3,0-0.7-0.3-1-0.7c-0.3-0.3-0.7-0.7-1-0.7s-0.3-0.3-0.3-0.7s0-1,0.3-1.7
			c4.8-14.7,9.2-26.3,14-35.2c0.7-1,1.4-1.7,2.7-2.1c1.4-0.7,2.7-0.7,3.8-0.7c0.7,0,1.4,0.7,1.4,2.1c0,0.3,0,1-0.3,1.4
			c-0.3,0.7-0.7,1.7-1.7,3.1c-0.7,1.4-1.7,3.1-3.1,5.1c-1,1.7-1.7,3.1-2.1,3.1c3.8-4.8,7.2-8.6,10.3-10.9c3.1-2.4,5.5-3.8,7.2-3.8
			c1.4,0,2.7,0.3,3.8,1.4c1,1,1.4,2.1,1.4,3.1s0,2.1,0,2.7c0,0.7-0.3,1.4-0.7,2.4c-0.3,0.7-0.7,1.4-0.7,2.1c-0.3,0.7-0.7,1.4-1,2.1
			c-0.7,1-1,1.7-1,2.1c-0.3,0.3-0.7,1-1.4,2.1c-0.7,1-1,1.4-1,1.7c0.7-1,1.7-2.4,3.1-4.4c1.4-2.1,2.4-3.4,3.4-4.8
			c1-1.4,2.1-2.7,3.4-4.4c1.4-1.7,2.7-3.1,4.1-3.8c3.1-2.4,6.5-3.4,9.9-3.8c1,0,2.1,0.3,3.1,1c1,0.7,1.4,1.7,1.4,3.1
			c0,1-1,3.8-3.1,8.2c-2.1,4.4-4.1,8.6-6.2,13c-2.1,4.4-3.1,7.2-3.1,8.2c0,1.7,0.3,2.4,1,2.7c0.7,0.3,1,0.3,2.1,0.3
			c0.7,0,1.7-0.7,3.1-1.7c1.4-1,2.4-2.1,3.4-3.1c1.4-1.7,3.1-3.4,4.1-5.1c0.3-0.3,0.7-0.3,1-0.3c0.7,0,1,0.3,1,1.4
			c0.3,1,0.3,2.1,0.3,3.1c0,1,0,1.7,0,2.1c-0.7,2.1-2.4,4.4-5.1,7.2c-2.7,2.7-5.5,4.1-8.2,4.1c-0.3,0-0.7,0-0.7,0
			c-3.1-0.3-5.5-1.4-6.8-2.7c-1.4-1.7-2.1-3.4-2.4-5.5c-0.3-2.1,0.3-4.8,1.4-7.9c1-3.1,2.4-5.8,3.8-8.6c1.4-2.4,2.7-4.8,3.8-6.8
			c1-2.1,1.7-3.1,1.7-3.4c0,0,0-0.3-0.3-0.3c-1,0-3.1,1.7-5.8,5.1c-5.1,5.8-9.6,11.6-13,17.1c-1,1.4-3.1,5.1-6.5,10.9
			c-0.3,0.7-1,1-2.1,1s-2.1-0.3-3.1-0.7c-1-0.3-1.7-1-1.7-1.7c0-0.3,2.1-5.1,6.2-14.4c4.1-9.2,6.2-14.4,5.8-15.1
			c0-0.7-0.7-1.4-1.4-1.4c-1,0-2.7,1.7-5.1,4.4c-6.8,8.2-12.3,16.8-15.7,25c-0.3,0.3-0.7,1.4-1.4,2.4
			C443.2,434.3,442.5,435,442.5,435"/>
		<path class="st1" d="M555.4,424.7c0,1.4,1,2.4,3.1,2.1c1,0,2.1-0.7,3.4-1.7c1.4-1,2.7-2.4,3.8-3.8c2.7-3.4,4.4-5.5,4.8-5.5
			c0.7,0,1.4,1.4,1.7,3.8c0.3,2.4-0.3,4.4-1.7,5.1c-4.1,4.4-7.2,7.2-9.6,8.2c-1.4,0.7-2.7,0.7-4.4,0.7c-1.7,0-3.4-0.7-5.1-2.4
			c-1.7-1.4-2.7-3.4-3.1-5.5c-0.3-2.1,0-4.8,1-7.5c0.7-2.7,1.7-5.1,2.4-7.2c1-2.1,2.1-4.4,3.4-6.8c1.4-2.7,2.1-4.4,2.1-5.1l0,0
			c-1,0-3.4,2.4-6.8,6.8c-3.8,4.4-6.5,8.2-8.9,11.3s-5.1,7.5-8.2,13c-1,1.4-1.7,2.4-2.4,2.4s-1.4-0.3-2.7-0.7c-1-0.3-1.7-0.7-2.1-1
			c-0.3-0.3-0.3-0.3-0.3-1c0-0.3,0-1,0.3-1.4c0-0.7,0.3-1,0.3-1.4s0.3-1,0.7-1.7s1-2.7,2.4-5.1c1-2.7,2.7-6.5,5.1-12
			c2.4-5.1,3.8-8.6,4.1-9.6c1-2.4,1.7-3.8,2.4-4.8c1.4-2.1,3.4-3.1,6.8-3.1c0.7,0,1,0.3,1.4,1.4c0,1.7-1,4.8-3.1,9.2l-1.7,3.4
			c4.8-6.5,8.9-10.9,12.3-12.7c1.7-1,3.4-1.4,4.8-1.4s2.7,0.3,3.4,1.4c1,0.7,1.4,1.7,1.4,2.7c0,1,0,2.4-0.7,3.8
			c-0.3,1.4-1,2.7-1.7,3.8c-0.7,1-1.4,2.7-2.1,4.4c-1,1.7-1.4,2.7-1.4,2.7s-0.3,0.7-0.7,1.4c-0.3,0.7-0.7,1-0.7,1.4
			s-0.3,0.7-0.7,1.7c-0.3,0.7-0.7,1.4-1,2.1c-0.3,0.7-0.3,1-0.7,2.1c-0.3,0.7-0.7,1.4-0.7,2.1c-0.3,0.7-0.3,1-0.7,1.7
			C555.4,423,555.4,424,555.4,424.7"/>
		<path class="st1" d="M594.7,366.2l2.1,0.3c0.3,0,0.7,0,0.7,0.3c0.3,0.3,0.3,0.7,0.3,1s-0.3,1-0.7,2.1c-0.7,1.4-1,2.7-2.1,4.1
			c-0.7,1.4-1,2.4-1,2.4c2.4-0.3,4.1-0.3,5.1-0.3s1.7,0,2.1,0.3c0.3,0,0.7,0.7,1.4,1.4c0.7,0.7,1,1.4,1.4,1.7c0.3,0.3,0.7,1,0.7,1.7
			s-0.3,1.4-1,1.7s-1.7,0.7-2.4,1c-7.2,1-10.9,1.4-11.6,1.4c-2.1,4.1-5.1,10.9-8.6,19.8c-3.8,8.9-5.5,14.7-5.5,16.8c0,1,0,1.7,0,2.4
			c0,1.4,0.7,2.1,2.1,2.1c1.4,0,2.7-0.7,4.1-1.7s2.7-2.4,3.8-3.4c3.1-3.4,4.8-5.1,5.1-5.1c0.7,0,1.4,1.4,1.7,4.4
			c0,1.7-0.3,3.1-1.7,4.4c-2.7,3.1-5.1,5.1-7.2,6.8c-2.1,1.4-4.1,2.4-6.2,2.4c-0.3,0-1,0-1.4,0c-2.4-0.3-4.4-1.4-5.8-3.1
			c-1.4-1.4-2.1-3.4-2.4-5.8c-0.3-2.4,0.3-5.5,1-9.2c1-3.8,2.4-7.5,4.1-11.6c2.7-6.5,5.5-13,8.2-18.8l-1.7,0.3
			c-3.4,0.3-5.5,0.7-6.2,0.7h-0.3c-1,0-1.7-0.3-2.7-0.7s-1.4-1-1.4-1.4c0-0.7,0-1,0.3-1.7c0.3-0.7,0.7-1,0.7-1.4
			c0-0.7,1-1.7,2.1-2.4c1.4-1,2.4-1.4,3.1-1.4s1.4,0,2.1,0c0.7,0,1.4,0,2.1,0c0.7,0,1.4,0,1.7,0l4.1-0.3c2.1-4.4,3.8-7.2,4.4-8.2
			c0.7-1.4,1.4-2.1,1.4-2.1s0.3-0.3,1-0.3L594.7,366.2z"/>
		<path class="st1" d="M301.8,402.8c0,0,0,0.3-0.3,1.4c-1,2.7-4.1,8.9-13.3,14.4c0,0-5.5,4.4,1,4.4c6.5,0,24.6-16.1,19.5-24"/>
		<path class="st1" d="M528,420.9c1.4-1,2.4-2.1,2.7-2.4c0.3-0.3,1-1,1.4-1.4c0.7-0.7,1-1,1.4-1c0.7,0,1,0.7,1,2.4s-0.3,3.1-1.7,5.1
			c-1.4,1.7-2.7,3.4-4.8,4.8c-2.1,1.4-4.1,2.4-6.2,3.4c-4.4,2.1-8.2,3.1-11.3,3.1s-6.2-1-8.9-3.4s-4.4-5.5-4.8-9.2s0-7.5,1.4-11.3
			c1.4-3.8,3.1-7.2,5.5-9.9c2.4-2.7,5.1-5.1,8.6-7.2c3.4-1.7,6.8-2.7,10.3-2.7c1.7,0,3.1,0.3,4.4,1.4c1.4,1,2.1,2.4,2.4,4.4
			c0,1.7-0.3,4.1-1.7,6.5c-1.4,2.7-3.1,3.8-4.8,3.8c-2.1,0-3.1-1-3.1-3.1c0-0.7,0.3-1.4,1-3.1c0.7-1.4,1-2.4,1-2.7
			c0-0.3-0.3-0.7-0.7-0.7c-1.7,0-3.4,0.7-5.1,2.1c-1.7,1.4-3.4,2.7-4.8,4.1c-1.4,1.4-2.7,3.1-4.1,4.8c-2.7,3.8-3.8,7.9-3.4,12
			c0,1.7,0.7,3.1,1.7,4.4s2.7,1.7,5.1,1.7c2.4,0,4.4-0.3,6.8-1c2.4-0.7,4.1-1.4,5.5-2.1C525.3,423,526.6,422,528,420.9"/>
		<path class="st1" d="M522.5,398.7c0,0,0,0.3-0.3,1.4c-1,2.7-4.1,8.9-13.3,14.4c0,0-5.5,4.4,1,4.4s24.6-16.1,19.5-24"/>
		<path class="st1" d="M332,450.4c-0.7,0-1.7-0.3-2.7-0.3c-2.7-0.7-4.1-2.1-4.1-4.1c0-0.7,0.7-3.8,5.5-13c3.8-7.5,8.2-16.1,13.3-25
			c5.1-8.9,10.6-17.8,16.1-26c9.6-14.4,13.3-17.1,15.1-17.5l0,0c0.3,0,0.7,0,1,0.3c0.7,0.3,0.7,0.3,1,0.3c0,0,0.3,0,0.7-0.3
			s1-0.7,2.1-0.7l0,0c1.4,0,2.4,0.3,3.4,0.7c0.7,0.3,1.7,0.7,1.7,1.4c0,0.3-0.3,1.7-3.8,9.6c-8.6,20.5-14,34.6-16.8,42.1l0.7,0.3
			c3.1-4.4,7.2-10.6,12.7-18.1c5.5-7.5,11.6-15.1,17.8-22.6c9.9-12,13.3-14.7,14.7-14.7l0,0c0.7,0,1.7,0,2.7,0.3
			c1.7,0.7,3.8,0.7,5.1,0.7h0.3c0.3,0,0.7,0.3,1,0.7c0.3,0.3,0.3,0.7,0.7,1c0,0.3,0,0.7,0,0.7c-8.6,14.7-15.7,28.1-21.6,39.3
			c-5.8,11.3-9.2,19.2-10.6,22.9l-0.3,0.7h0.7c3.4-0.7,7.5-5.1,13.3-13c0.3-0.3,0.3-0.7,0.3-0.7l0.3-0.3l0,0c0,0,0.3,0,0.7,1.4
			l-0.3,1l0.3,1c0,0.3,0,0.7,0,0.7l0.7,2.1c0,0.7-0.3,1.7-0.7,2.7c-1.7,3.1-4.8,6.5-8.9,10.3s-7.2,5.8-9.2,5.8h-0.3
			c-2.1,0-3.4-0.7-4.8-2.1c-1.4-1.4-2.1-2.7-2.1-4.4c-0.3-2.1,1.4-6.8,4.8-14c5.1-10.6,11.6-23.6,19.5-38l-0.7-0.3
			c-1.7,2.4-6.5,8.6-14,18.5c-16.8,21.9-26.7,34.6-29.4,37.6c-0.3,0.3-1,0.7-2.1,0.7l0,0c-1,0-2.1-0.3-3.1-1.4
			c-1-0.7-1.7-1.7-1.7-2.7v-0.3c0-1.4,2.4-8.6,6.8-20.9c4.8-12.7,8.6-22.9,12-30.1l-0.7-0.3c-5.1,7.2-10.3,15.4-15.4,24
			c-9.6,16.8-16.8,31.1-20.9,42.8C333,450,332.6,450.4,332,450.4L332,450.4z"/>
		<path class="st1" d="M597.8,427.8L597.8,427.8c0-3.8,3.1-6.5,6.5-6.5c3.4,0,6.5,3.1,6.5,6.5l0,0c0,3.4-3.1,6.5-6.5,6.5
			C600.9,434.3,597.8,431.2,597.8,427.8 M610.1,427.8L610.1,427.8c0-3.1-2.4-5.8-5.8-5.8c-3.4,0-5.8,2.7-5.8,5.8l0,0
			c0,3.1,2.4,5.8,5.8,5.8C607.7,433.6,610.1,430.9,610.1,427.8 M601.2,427.8L601.2,427.8c0-1.7,1.4-3.4,3.4-3.4c1,0,2.1,0.3,2.4,1
			l-0.7,0.7c-0.3-0.3-1-1-2.1-1c-1.4,0-2.4,1-2.4,2.4l0,0c0,1.4,1,2.4,2.4,2.4c0.7,0,1.4-0.3,2.1-1l0.7,0.7c-0.7,0.7-1.4,1-2.7,1
			C602.6,430.9,601.2,429.5,601.2,427.8"/>
	</g>
</g>
</svg>
