<?xml version="1.0" encoding="utf-8"?>
<!-- Generator: Adobe Illustrator 24.2.1, SVG Export Plug-In . SVG Version: 6.00 Build 0)  -->
<svg version="1.1" id="Layer_1" xmlns="http://www.w3.org/2000/svg" xmlns:xlink="http://www.w3.org/1999/xlink" x="0px" y="0px"
	 viewBox="0 0 800 800" style="enable-background:new 0 0 800 800;" xml:space="preserve">
<style type="text/css">
	.st0{fill-rule:evenodd;clip-rule:evenodd;fill:#240058;}
	.st1{fill:#FFFFFF;}
	.st2{fill:#240058;}
	.st3{fill:#FFBD97;}
	.st4{fill:#CACEF7;}
	.st5{fill:#D8D8D8;}
	.st6{fill:#FFF192;}
	.st7{fill:#FBDEDA;}
	.st8{fill:#1BE2BF;}
	.st9{fill:#E01A5E;}
	.st10{fill:#0086FF;}
</style>
<rect x="-0.4" y="-0.5" class="st0" width="801.5" height="801.5"/>
<g>
	<path class="st1" d="M513.2,583.7l0.1,3l33-3.3l1.4-41.7l13.4-1.2l-4.1-64.8l-5.2,0.5l-0.3-11l5.2-0.7l-0.9-30.7l-20.5,1.9
		c0,0-6.9-4.4-11.2-6.8c0.4-1.9,0.8-4,1.2-6.3l14.5-16.5l-31.1-1l-17.4-0.9c-0.4-1.2-0.8-2.6-1.3-4c3.8-3.2,9.7-7.7,9.7-7.7
		s-1.1-6.6-1.2-7.6l43.6,1.3l4.4-39.2l-46.7,2.8c4.1-11.6,4.2-24.9,4.2-24.9l-13.1-6.3c0,0-16,10.3-20.1,12.6
		c-0.9-1-1.8-1.9-2.6-2.8c-0.8-5.6-4-18.9-4-18.9S450,301,433.7,295l9.3-5.4l43.4,2l1.2-6.5c1.7-9.5-1.4-14.8-2.1-15.8l-2.3-3.5
		c0,0-35.3,0.9-46.2,1.5c0.7-6-0.7-9.6-1.2-10.6l-2.1-4.4c0,0-23.2,0.8-28.4,1.3c3.7-2.9,16.3-15.3,16.3-15.3s-7-7.3-9.6-9.3
		c5.2-4.1,16.4-14.8,16.4-14.8l-9.6-4.8c-9.3-4.7-19.2-7.8-29.4-9.5c3.6-7.8,5.9-13.9,6.1-14.2l4.1-10.7l-11.5,0.5
		c-13.5,0.5-25.1,2.3-35.2,4.8l1-6.9l-12.1,4.6c-19.3,7.4-31.2,17.9-38.1,25.9l-20.2-27.3c0,0-11.7,4.6-17,11.6l-4.2,5.6l7.4,6.4
		l-2.4,2.1c-0.7,0.6-3.5,3.5-4.7,9c-7.9-5-18.3-8-18.7-8.1l-6.2-1.8l-2.8,5.9c-0.8,1.8-1.8,3.7-2.8,5.7l-61.7-39.6l-7.8,14.3l7.3,13
		l-4.2,3.6l2.3,2.9l-1.7,7.7l-0.8,3.5l-0.5,2.3l43.8,31.6c-1.9,2.9-3.1,4.7-3.2,4.7L202,262l4.7,4.5c10.4,9.8,18.8,13.8,19.2,14
		l5.5,2.6c0,0,3.9-5.1,4-5.3l5.9,3.5c0.9,0.5,5.5,3.2,11.5,4.2l11.6,2.1l1.3-3.6l3,0.5c3.4,3.1,6.9,6,10.2,8.7
		c-6.7,5.3-11.4,12.1-13.7,19.9c-7,3.7-12.2,10-15,18l-0.1,0.4c-0.2,0.7-4.6,16.6,5.9,30.1c0,0-1.4,7.5-1.5,7.5l9.1,28.6l5.2,2.6
		c3.1,6.3,12,23.6,22.6,36.6l0.1,0.1c-4.2-1.8-9.1-2.8-14.7-2.8c-4,0-8.3,0.5-12.7,1.6c-18.3,4.4-30.8,18.8-33.8,39.8l0,0.2
		c0,0-5.7,39.5,24.8,47.1l-9.3,33l2.9,25.3l6.8-0.8l1.1,18.3l84.5-5.7l0.1-11.2l0.8-0.6c1.2,1.6,2.5,3,3.9,4.3
		c3.5,3.3,7.7,5.9,12.4,7.6c4.1,1.5,8.5,2.3,13.2,2.3c0.7,0,1.3,0,2,0c2.7-0.1,5.5-0.5,8.4-1.2c2.9-0.7,5.8-1.6,8.5-2.7
		c2.8-1.2,5.5-2.7,8-4.4c2.7-1.9,5-4.1,6.8-6.7l0.2-0.3c2.1,1.9,4.4,3.5,6.9,4.8c2.7,1.4,5.6,2.5,8.6,3.2c2.5,0.6,5.2,0.9,7.8,0.9
		c0.6,0,5.9-0.1,6.5-0.1C444.8,588.3,513.2,583.7,513.2,583.7z"/>
	<g>
		<g>
			<g>
				<g>
					<path class="st2" d="M345.2,449.9c0,2.7-0.1,5.3-0.1,7.9c0,2.6-0.1,5.3-0.2,7.9l-18,1.8l-0.2,5.4l12.7-0.6l-0.3,13.2l-12.7,1
						l-0.1,6.2l10.5-0.5l7.5-0.4c0,3.1-0.1,6.2-0.1,9.3c0,3.1-0.1,6.2-0.1,9.3l-36.6,2.6l-1.5-61.3L345.2,449.9z"/>
					<path class="st2" d="M451.3,465.2c0.1,2.2,0,4.2-0.3,6c-0.3,1.8-0.8,3.5-1.6,5c-0.8,1.5-1.7,3-3,4.3c-1.2,1.3-2.8,2.6-4.5,3.9
						l11,17.5l-18.9,4.6l-7.4-17.8l-5.3,0.4l0.1,17.7l-18.3,0.9c-0.2-6.5-0.3-12.9-0.5-19.3c-0.2-6.4-0.3-12.8-0.5-19.3
						c-0.1-3.3-0.2-6.5-0.3-9.7c-0.1-3.2-0.1-6.4-0.1-9.7c1.9-0.8,3.9-1.5,5.8-2.1c1.9-0.6,3.8-1,5.7-1.4c1.9-0.4,3.9-0.6,5.9-0.8
						c2-0.2,4-0.3,6.1-0.4c3.2-0.2,6.4,0.1,9.4,0.9c3.1,0.7,5.8,2,8.2,3.6c2.4,1.7,4.4,3.8,5.9,6.4
						C450.3,458.6,451.1,461.7,451.3,465.2z M432.3,467.5c-0.1-1.2-0.3-2.3-0.6-3.2c-0.4-1-0.9-1.8-1.6-2.5
						c-0.7-0.7-1.5-1.2-2.5-1.6c-1-0.4-2.1-0.5-3.4-0.5c-0.6,0-1.1,0.1-1.7,0.2c-0.5,0.1-1.1,0.2-1.6,0.4l0.1,15.8l1,0
						c1.2-0.1,2.5-0.3,3.7-0.6c1.2-0.4,2.4-0.9,3.3-1.6s1.8-1.6,2.3-2.6C432.1,470.1,432.4,468.9,432.3,467.5z"/>
					<path class="st2" d="M505.6,495c-1.2,1.7-2.7,3.3-4.5,4.6c-1.8,1.3-3.7,2.5-5.8,3.4c-2.1,0.9-4.2,1.6-6.4,2.2
						c-2.2,0.5-4.3,0.8-6.3,0.9c-3.9,0.2-7.5-0.4-10.8-1.7c-3.3-1.3-6.3-3.2-8.7-5.7c-2.5-2.5-4.5-5.4-6-8.9
						c-1.5-3.4-2.4-7.2-2.5-11.2c-0.1-3.1,0-6.1,0.6-9.1c0.5-3,1.4-5.8,2.5-8.5c1.1-2.7,2.5-5.2,4.2-7.4c1.7-2.3,3.6-4.3,5.8-6
						c2.2-1.7,4.6-3,7.3-4c2.7-1,5.5-1.6,8.6-1.7c1.2-0.1,2.4-0.1,3.7,0c1.3,0,2.6,0.1,3.9,0.3c1.3,0.2,2.6,0.5,3.8,0.8
						c1.3,0.4,2.4,0.8,3.5,1.4l6.1,18c-4.1-2.7-8.8-3.6-10.4-3.7c-1.6-0.1-3.7,0-5.2,0.1c-2.1,0.1-4.3,0.9-6.1,1.7
						c-1.8,0.8-3.6,2.3-4.9,3.6c-1.3,1.4-2.3,3-3,4.9c-0.7,1.9-1,4-0.9,6.4c0.1,1.5,0.3,2.9,0.8,4.2c0.4,1.4,1.1,2.5,1.9,3.6
						c0.8,1,1.8,1.8,3,2.4c1.2,0.6,2.5,0.9,4,0.8c1,0,2.1-0.2,3.1-0.6s2-0.9,2.7-1.6l0-3.3l-9.7,0.3l-0.1-12.8c4-0.3,8-0.6,12-0.9
						c4-0.3,8-0.6,12-1L505.6,495z"/>
					<path class="st2" d="M548.6,439.4c0.1,2.7,0.2,5.3,0.3,7.9c0.1,2.6,0.2,5.3,0.2,7.9l-20.1,2.7l0.1,5.4L544,462l0.4,13.2
						l-14.9,1.7l0.2,6.2l12.7-1l7.4-0.7c0.1,3.1,0.3,6.2,0.4,9.3c0.1,3.1,0.3,6.2,0.4,9.3l-38.6,4.4l-4.6-61.2L548.6,439.4z"/>
				</g>
				<g>
					<path class="st2" d="M513.6,573.2l-21.6,3.8l-3.1-9.8l-10,0.5l-1.7,10l-22.5-1.1l14.7-59.3l24.3-2.4L513.6,573.2z M486.7,553.9
						l-4.1-15.1l-2.5,15.4L486.7,553.9z"/>
					<path class="st2" d="M553,512.3l0.4,18.6l-13,1.1l-1.4,41.8l-18.5,1.8l-1.9-41.6l-13,1.3l-0.5-20.7L553,512.3z"/>
				</g>
			</g>
			<path class="st2" d="M399.1,478.6c-0.2-4.1-1-7.8-2.5-11.1c-1.5-3.3-3.5-6.1-6-8.3c-2.5-2.3-5.5-3.9-8.9-5
				c-3.4-1.1-7.2-1.6-11.3-1.4c-2.5,0.1-5,0.6-7.2,1.4c-2.3,0.8-4.3,1.9-6.3,3.3c-1.9,1.4-3.6,3-5.1,4.8c-1.5,1.8-2.8,3.8-3.8,6
				c-1,2.1-1.8,4.4-2.3,6.8c-0.5,2.4-0.7,4.8-0.6,7.3c0.1,2.5,0.6,4.9,1.3,7.2c0.7,2.3,1.7,4.4,3,6.4c1.2,2,2.7,3.7,4.4,5.3
				c1.7,1.6,3.6,2.9,5.7,4c2.1,1.1,4.3,1.9,6.6,2.4c2.3,0.5,4.8,0.8,7.3,0.6c2.6-0.1,5.1-0.6,7.4-1.4c2.3-0.8,4.4-1.9,6.4-3.2
				c1.9-1.3,3.7-2.9,5.2-4.7c1.5-1.8,2.8-3.8,3.8-5.9c1-2.1,1.8-4.4,2.3-6.9C399,483.7,399.2,481.2,399.1,478.6z M367.4,487.8
				c-1.4,2.8-3.9,3.7-6.6,2.9c-3.3-0.9-5.5-3.4-5.8-6.6c-0.2-2.5,0.6-4.8,1.8-6.9c2.5-4.3,5.6-8.1,10.1-10.9
				c1.7-1.1,3.9-1.6,5.9-2.3c0.6-0.2,1.4,0,2.5-0.1c-0.9,1.7-1.6,3-2.3,4.4c-2,4-3,8.4-3.6,12.9C369,483.5,368.4,485.8,367.4,487.8z
				 M384.4,491c-1,2.4-2.5,4.5-5.5,5.3c-4.5,1.3-9.1-1.8-8.9-6c0.1-3.1,1.8-5.6,3.6-7.9c3.5-4.6,5.9-9.6,6.9-15.2
				c0-0.2,0.2-0.5,0.4-0.9c0.7,0.7,1.3,1.2,1.8,1.7c2.1,2.8,3.1,5.7,3.3,8.8C386.3,481.8,386.3,486.6,384.4,491z"/>
			<path class="st2" d="M456.7,547.8c-0.2-4.3-1.1-8.1-2.6-11.5c-1.5-3.4-3.6-6.3-6.2-8.6c-2.6-2.3-5.7-4.1-9.2-5.2
				c-3.6-1.2-7.5-1.6-11.7-1.4c-2.6,0.1-5.1,0.6-7.5,1.5c-2.3,0.8-4.5,2-6.5,3.4c-2,1.4-3.7,3.1-5.3,5c-1.6,1.9-2.9,3.9-3.9,6.2
				c-1.1,2.2-1.8,4.6-2.3,7c-0.5,2.5-0.7,5-0.6,7.5c0.1,2.6,0.6,5.1,1.3,7.5c0.8,2.4,1.8,4.6,3.1,6.6c1.3,2,2.8,3.9,4.6,5.5
				c1.8,1.6,3.7,3,5.8,4.1c2.1,1.1,4.4,2,6.8,2.5c2.4,0.6,4.9,0.8,7.6,0.7c2.7-0.1,5.3-0.6,7.7-1.4c2.4-0.8,4.6-1.9,6.6-3.3
				c2-1.4,3.8-3,5.4-4.9c1.6-1.9,2.9-3.9,3.9-6.1c1.1-2.2,1.8-4.6,2.3-7.1C456.7,553.1,456.9,550.5,456.7,547.8z M416.4,556.7
				c-3.1-1.6-4.7-4.5-4.2-7.7c0.3-2.5,1.6-4.6,3.2-6.4c3.4-3.6,7.3-6.7,12.2-8.5c1.9-0.7,4.1-0.7,6.2-0.9c0.6-0.1,1.4,0.3,2.5,0.5
				c-1.2,1.4-2.2,2.6-3.2,3.8c-2.8,3.5-4.7,7.6-6.3,11.8c-0.8,2.1-1.9,4.2-3.3,6C421.5,557.6,418.8,558,416.4,556.7z M444.1,548.6
				c-0.8,4.8-1.8,9.6-4.6,13.5c-1.5,2.1-3.4,3.8-6.5,4c-4.7,0.3-8.5-3.7-7.4-7.8c0.8-3,2.9-5.1,5.2-7c4.4-3.7,7.8-8.1,10-13.3
				c0.1-0.2,0.3-0.4,0.6-0.8c0.5,0.8,1.1,1.4,1.4,2.1C444.1,542.4,444.5,545.5,444.1,548.6z"/>
			<path class="st2" d="M381.1,554.9l0,6.6c-0.8,0.8-1.9,1.3-3.1,1.7c-1.2,0.4-2.4,0.6-3.5,0.6c-1.7,0.1-3.2-0.2-4.5-0.8
				c-1.3-0.6-2.4-1.5-3.4-2.6c-0.9-1.1-1.6-2.4-2.1-3.8c-0.5-1.4-0.8-3-0.9-4.5c-0.1-1.6,0.1-3,0.3-4.4l0,0c0-0.1,0-0.1,0-0.2
				c0.1-0.5,0.3-1,0.4-1.5c0.1-0.2,0.1-0.5,0.2-0.7c0,0,0-0.1,0-0.2c4.1-12,17.5-14.9,20.8-9.8c0.8,1.3,1.2,2.5,1.3,3.6
				c0.2,1.8-0.5,3.4-1.5,4.7c-2.4,3.2-6.8,5-6.8,5l1.5,3.1c9.5-0.3,14.6-3.8,17.2-7.9c0.3-0.5,0.6-1,0.8-1.5
				c1.2-2.5,1.6-5.1,1.5-7.2c-0.2-9.6-10-23.1-32.7-17.7c-18.9,4.5-23.7,21.4-25,30.2c0,0,0,0,0,0c7.4-0.4,13.7,1.6,13.7,1.6l0,0.4
				l0,1.4c-1.8-0.2-3.5-0.2-5.2-0.2c-3.8,0.1-7,0.7-9,1.2c0,0,0,0,0,0c0,0.6,0,0.9,0,0.9l0,0c0,0.9,0,1.8,0,2.7
				c0,0.9,0.1,1.7,0.2,2.6c6.1-2.1,12-1.8,12-1.8l0.4,1.5c-5.4,0.8-9.9,3-11.8,4c0.5,1.9,1.1,3.8,1.9,5.6c4.4-3,9.1-3.8,9.1-3.8
				l0.7,1.4c-3.6,1.6-6.4,4.1-8,5.7c1.4,2.4,3.1,4.5,5.1,6.3c2.8,2.6,6.1,4.7,9.9,6.1c3.8,1.4,7.8,2,12.2,1.8c2.3-0.1,4.6-0.4,7.1-1
				c2.5-0.6,4.9-1.3,7.3-2.3c2.3-1,4.5-2.2,6.6-3.6c2-1.4,3.7-3.1,5-4.9l-1.4-21.7C391.3,554.5,383.6,555.1,381.1,554.9z"/>
			<path class="st2" d="M281.8,482.1l0,7.5c-0.9,0.9-2.1,1.5-3.4,1.9c-1.3,0.4-2.7,0.6-3.9,0.7c-1.9,0.1-3.6-0.2-5-0.9
				c-1.5-0.7-2.7-1.7-3.7-2.9c-1-1.2-1.8-2.6-2.3-4.2c-0.5-1.6-0.9-3.3-0.9-5c-0.1-1.7,0.1-3.4,0.4-4.9l0,0c0-0.1,0-0.1,0-0.2
				c0.1-0.6,0.3-1.2,0.5-1.7c0.1-0.3,0.2-0.5,0.3-0.8c0,0,0-0.1,0-0.3c4.6-13.3,19.5-16.6,23.1-10.9c0.9,1.4,1.4,2.8,1.5,4
				c0.2,2-0.6,3.8-1.7,5.2c-2.7,3.6-7.5,5.5-7.5,5.5l1.6,3.5c10.6-0.3,16.3-4.3,19.2-8.8c0.3-0.5,0.6-1.1,0.9-1.7
				c1.3-2.8,1.8-5.7,1.7-8c-0.2-10.7-11.1-25.7-36.4-19.7c-21,5-26.4,23.9-27.8,33.7c0,0,0,0,0,0c8.2-0.4,15.3,1.8,15.3,1.8l0,0.5
				l0,1.5c-2-0.2-3.9-0.3-5.8-0.2c-4.2,0.1-7.8,0.8-10,1.3c0,0,0,0,0,0c0,0.7,0,1,0,1l0,0c0,1,0,2,0,3c0,1,0.2,1.9,0.3,2.9
				c6.7-2.3,13.4-1.9,13.4-1.9l0.5,1.6c-6,0.9-11,3.4-13.1,4.5c0.5,2.2,1.2,4.2,2.1,6.2c4.9-3.4,10.1-4.2,10.1-4.2l0.8,1.5
				c-4,1.8-7.2,4.5-9,6.3c1.6,2.6,3.4,5,5.6,7.1c3.1,2.9,6.8,5.2,11,6.7c4.2,1.6,8.7,2.2,13.6,2c2.5-0.1,5.2-0.5,7.9-1.1
				c2.8-0.6,5.5-1.5,8.1-2.6c2.6-1.1,5-2.4,7.3-4c2.3-1.6,4.1-3.4,5.6-5.5l-1.6-24.2C293.1,481.7,286.4,482.7,281.8,482.1z"/>
			<g>
				<g>
					<path class="st2" d="M281.1,550.3l-9.8,1.5l-1.3-4.3l-4.5,0.1l-0.9,4.4l-10.2-0.7l7.2-26l11-0.9L281.1,550.3z M269.1,541.6
						l-1.7-6.7l-1.3,6.8L269.1,541.6z"/>
					<path class="st2" d="M310.2,523.4l-0.7,26.3l-10.4,1.2l-5.9-13.9l-0.5,14.3l-9,0.3l0-27.4l9.9-0.8l7.3,13.7l0-13.2L310.2,523.4
						z"/>
					<path class="st2" d="M335.8,535.1c0,1.8-0.1,3.4-0.6,4.9c-0.4,1.5-1.1,2.8-1.9,3.9c-0.8,1.2-1.8,2.2-3,3
						c-1.2,0.8-2.4,1.6-3.8,2.1c-1.4,0.6-2.9,1-4.5,1.3c-1.6,0.3-3.2,0.5-4.9,0.5c-0.6,0-1.2,0-1.8,0c-0.6,0-1.2,0-1.8-0.1l-0.1-26
						c1.4-0.5,2.9-0.9,4.5-1.1c1.5-0.2,3.1-0.4,4.6-0.4c1.9-0.1,3.6,0.2,5.3,0.7c1.6,0.5,3,1.3,4.2,2.3c1.2,1,2.1,2.3,2.8,3.7
						S335.8,533.2,335.8,535.1z M327.7,536.6c0-0.7-0.1-1.4-0.3-2c-0.2-0.6-0.5-1.2-0.9-1.7c-0.4-0.5-0.9-0.9-1.5-1.2
						c-0.6-0.3-1.3-0.4-2.1-0.4l-0.5,12c0.8-0.1,1.5-0.4,2.1-0.8c0.6-0.4,1.2-0.9,1.6-1.5c0.5-0.6,0.8-1.2,1-1.9
						c0.2-0.7,0.4-1.4,0.4-2.2L327.7,536.6z"/>
				</g>
				<g>
					<path class="st2" d="M279.9,559l0.3,8.2l-6.6,0.7l-0.6,18.4l-9.3,1.1l-1.1-18.3l-6.6,0.8l-0.3-9.1L279.9,559z"/>
					<path class="st2" d="M310,584.6l-11,1.2l-0.6-8.9l-5.1,0.4l0.2,8.5l-9.9,0.7l-0.8-27.2l10.5-0.3l0.2,11.6l4.9-0.3l-0.9-12.6
						l10.1-0.5L310,584.6z"/>
					<path class="st2" d="M334,555.6c0,1.2,0,2.4,0,3.6c0,1.2,0,2.4-0.1,3.6l-9.8,1.1l-0.1,2.4l6.9-0.5l-0.2,6l-7,0.7l-0.1,2.8
						l5.8-0.4l4.1-0.3c0,1.4,0,2.8,0,4.2c0,1.4,0,2.8,0,4.2l-20,1.8l-0.9-27.9L334,555.6z"/>
				</g>
			</g>
		</g>
		<g>
			<g>
				<g>
					<path class="st3" d="M335,325c0,0-8.2-7.8-23.5-5.6c-15.4,2.2-3.1,24.5,2.2,27.3c0,0-0.8,4.2-9,5.1l-6.7,2.1l-16.9-8.8
						c0,0-9.7,8.2-10.7,9.1c-0.9,0.9-25.4-17.9,2.8-33.5c0,0,13.5-34.5,48.9-30.4c35.4,4.1,27,33.9,27,33.9L335,325z"/>
					<path class="st1" d="M271.5,347.9c0,0-10.2-11.8-0.1-21.3c0,0-18.1,5.5-2,29.2L271.5,347.9z"/>
					<path class="st1" d="M306.1,295c0,0-22.2,2-22.7,27.1c-0.6,26.4,22.1,29.4,22.1,29.4l-6.3,3c0,0-17.2-5.9-17.8-7.1
						s-5.7-21.9-5.7-23.9s3-17,3.2-18.2S291.5,288.4,306.1,295z"/>
					<path class="st1" d="M284.1,335c0,0,3-1.1,6-1.4l2.1,3.4l-6.5,1.1L284.1,335z"/>
					<path class="st1" d="M282.6,324.2c0,0,4.6-0.7,8.7,0.3l0.7,2.5l-9.3,1.1L282.6,324.2z"/>
					<path class="st1" d="M283.3,312.2l0,4.9l10.7,0.7l-0.3-2.4C293.7,315.4,290.2,313.1,283.3,312.2z"/>
					<path class="st3" d="M328.8,356.3l-12.5,2.2c0,0,13.2,20.7,30.1,1.9L328.8,356.3z"/>
					<path class="st1" d="M407.5,371.4l-4.4,48l25.4,27.6c0,0,39.5-25.4,81.2,15.1l13.2-22.9l-55.5-23.5l11.9-21.3l7.2-9.7l-4.7-6.9
						l-33.5-1.6v-4.4l34.8-1.3l-2.5-9.4l12.2-31l-24.5,11.6l-8.5-5c0,0-3.1,16.6-3.1,17.6C456.7,355.1,407.5,371.4,407.5,371.4z"/>
					<path class="st4" d="M419.6,418l1.6-38c0,0,15.7-9.4,40.5-28.4l-53.6,21l-4.3,50.1L419.6,418z"/>
					<polygon class="st4" points="499.2,452.8 508.2,431.7 522.9,441.7 511.9,462.8 					"/>
					<path class="st1" d="M317.5,343.8c0,0-4.8,6.7-12.8,7.9l-2.8,3.1c0,0-22.3-9.6-22.6-8.9c-0.2,0.7-13.6,22.8-13.6,22.8l8.5,18.3
						l2.8,2.4c0,0,20.7,37.2,21.6,36.9c0.9-0.2,30.3,0.2,27.7-2.4s-9.2-28.5-9.2-28.5l13.9-13.9l12.2,10.1l-7.8,13.9
						c0,0,22.8,29.9,47.5,37.9l12-24c0,0-18.1,2.1-36.9-9.4c0,0,26.8-20.5,26.3-21.4c-0.5-0.9-14.8-29.2-14.8-29.2
						s19-15.8,18.3-15.8s-21.9,0.9-21.9,0.9s-8,12.9-18.3,14.1c0,0-4,10.3-21.4,9.6c0,0-6.1-0.9-8.9-6.8l-1.2-3.1l12.2-0.7
						l-2.4-23.8L332,323c0,0-10.1-8.7-24.2-1.6C307.8,321.4,296.5,340.2,317.5,343.8z"/>
					<path class="st4" d="M337.4,376.4l16.5,2.1c0,0-7.4,12.3-8.6,11.9s-16.2-7.9-16.2-7.9L337.4,376.4z"/>
					<path class="st4" d="M317.5,343.8c0,0-6.3-9.5,0.9-13.5c7.1-4,10.3,6.7,10.3,6.7l2-13.8c0,0-17.4-12.3-24.5,2.4
						C299,340.2,317.5,343.8,317.5,343.8z"/>
					<polygon class="st4" points="395,419.4 383,443.4 367.4,435.9 377.4,417.5 					"/>
					<path class="st1" d="M339.1,409.8c0,0,13.9-18.8,19.3-27.7l-1.5-1.5L335,404.1L339.1,409.8z"/>
					<polygon class="st5" points="237,224.7 183.4,190.1 182.2,200.5 185.7,211.3 178.2,214.8 223.3,245.4 					"/>
					<polygon class="st1" points="229.6,230.6 182.1,202.9 183.7,192.9 235.9,226.9 					"/>
					<path class="st6" d="M255.6,216.2c-0.5,2.4-8.2,24.7-9.9,26.1c-1.6,1.4-16.9,24.2-16.9,24.2s-13.2-8.5-12.7-9.4
						c0.5-0.9,25.9-46.3,28.5-44.9S255.6,216.2,255.6,216.2z"/>
					<polygon class="st1" points="251.2,226.6 238.8,219.8 242.5,212.7 253,217.1 253.5,225.6 					"/>
					<path class="st7" d="M280.2,249.1l-9.1,21.6l-11.3-0.3l-3.4,3.4l-14.1-5c0,0,2.5-5,1.6-5.3s-9.1-5-9.1-6.3
						c0-1.3,8.8-11.3,9.4-12.5c0.6-1.3,9.4-19.1,9.4-19.1l15.7,5l0.6,9.7L280.2,249.1z"/>
					<path class="st7" d="M352.9,313.7l10.7,6.6l4.1,24.5l-16.3,13.5l-21.3-1.3c0,0-3.8-13.8-4.1-14.7c-0.3-0.9,5-16.3,5-16.3
						l11.3-1.6L352.9,313.7z"/>
					<path class="st8" d="M416.9,298.9c2.2,0.9,32.3,8.5,39.2,16.6l0.9,11.3l-30.1-0.3L416.9,298.9z"/>
					<path class="st8" d="M322.5,264.1l-43.3-15.7l-7.2,21l25.7,22.3c0,0,35.7,2.8,35.1,1.3C332.2,291.4,322.5,264.1,322.5,264.1z"
						/>
					<polygon class="st1" points="294.1,253.5 284.6,278.8 272,267.8 282,250.4 					"/>
					<path class="st8" d="M344.8,303c0,0,24.1-6.6,25.7-7.8c1.6-1.3,16.9-16,16.9-16l26,8.2l14.4,40.8c0,0-29.8,15.4-60.5,15.1
						l-0.9-19.1l-16-11.9L344.8,303z"/>
					<polygon class="st1" points="379.5,316.8 386.9,340.5 367.3,343.2 366.4,324 					"/>
					<path class="st7" d="M318.4,241.9l11.9,50.8l18.5,11l26-10l11.9-16.9l-7.8-43.9l-8.2,2.8l-4.7-9.1
						C366.1,226.5,335.7,232.8,318.4,241.9z"/>
					<path class="st1" d="M325.2,245.1c0,0,2.9,25.8,15.3,50.6c0,0-8.2-2.1-10-6.3c-1.8-4.2-9.2-24-10.3-45.9L325.2,245.1z"/>
					<path class="st9" d="M364.7,269.4c3.9-5,12.5-9,14.9-5.5c2.2,3.3-1.1,5.4-5.2,9.7c-7.5,7.3-10,5.5-11.3,4
						C361.7,276.1,362.1,272.8,364.7,269.4z"/>
					<path class="st6" d="M318.7,239.1c-1.3,0-16-0.9-16-0.9s6.3-12.9,6-13.8s-2.2-11.9-2.2-11.9s38.3-25.4,73.4-24.1l-4.1,18.2
						l30.7,6.3L391.8,229l10,5.6l-16.9,16.6l-4.7-16.6l-7.8,3.8l-5.6-13.2L324.1,240L318.7,239.1z"/>
					<path class="st1" d="M328.5,235.5l9.3-15.3c0,0,24.7-10.4,62-5.9l1.1-3.2c0,0-35.4-11.1-69,5.7
						C331.8,216.9,327.3,228.3,328.5,235.5z"/>
					<path class="st1" d="M322.2,237.6c0,0-6-11.4-7.4-21.5c0,0,21.5-21,59-24.8l2.7-3.7c0,0-46.5-2.2-68,28.7
						C308.5,216.3,312.2,232.3,322.2,237.6z"/>
					<path class="st10" d="M456.7,328.4l1.3,21.3l-49.9,22.9l-5,46.7c0,0-29.5,0.3-48.6-10.7l28.8-20.4l-13.7-28.8l16.5-14.4
						l43-18.5L456.7,328.4z"/>
					<path class="st1" d="M365,412.2c0,0,15.8-11.3,26.9-20.3l-1.4-1.7l-32.6,18.1L365,412.2z"/>
					<g>
						<path class="st2" d="M359.3,251.7c0,0-2.6-1.4-4.7-1.9c0,0,2.9-3.5,4.2-6.8l-2.6-0.5c0,0-6.4,6.8-13.3,10.6
							c0,0-2.8-1.6-4.3-3.1l-2.3,1.6c0.5,1.4,2.8,6.6,5.2,10.7c0,0,6.6-1.2,14.4-4.7C355.9,257.6,358,254.8,359.3,251.7z"/>
						<path class="st2" d="M367.3,285.3c11.8-4.9,22.1-17.7,17.2-26.5c-5.1-9.4-21.4-4.7-31,5.7c-6.5,7-7.9,14.8-4.8,19
							C351.6,287.6,359,288.8,367.3,285.3z M365.5,269.6c3.4-4.4,11-7.9,13.1-4.9c2,2.9-0.9,4.8-4.6,8.5c-6.6,6.4-8.8,4.8-10,3.6
							C362.8,275.5,363.2,272.6,365.5,269.6z"/>
						<path class="st2" d="M335.5,271.3l-4.9,1.3l0.8,2.4c0,0,2.1,0.9,3.4,1.2c0,0,2.9-1.6,5-3.7l-0.9-2.3L335.5,271.3z"/>
						<path class="st2" d="M297.6,367.2l-2.8,0.7c0,0-0.9-2.8-1.9-5.6l-2.5,0.5c0,0-0.6,8.1-3.1,14.5c0,0-2.7,0.5-4.6,0.3l-0.7,2.3
							c1.1,0.6,5.5,2.9,9.5,4.4c0,0,3.8-4.5,7.1-11.1C298.6,373.1,298.4,370.1,297.6,367.2z"/>
						<path class="st2" d="M296.5,404.6l-0.4,2.9l3.5,2.6c0.1,3,2.2,6.5,2.2,6.5c3.1-1.3,4.5-5.9,4.5-5.9
							C304.6,406.2,296.5,404.6,296.5,404.6z"/>
						<path class="st2" d="M341.2,333.7c0,0,1.1,10,4.6,17.7l3-0.9c0,0-3.3-10.8-3.6-18.1L341.2,333.7z"/>
						<path class="st2" d="M296.1,203.4l-15.2-20.5c0,0-4,1.5-8.2,7.1l20.1,17.4L296.1,203.4z"/>
						<path class="st2" d="M288.6,217.9l0.8-4.3l-17-8.3c0,0-2.9,2.6-2.5,9L288.6,217.9z"/>
						<g>
							<path class="st2" d="M281.4,339.9c4.9-3.7,10.1-4.7,10.1-4.7l0.8,1.7c-4,2-7.2,5-9,7L281.4,339.9z"/>
							<path class="st2" d="M278.5,328.4c6.7-2.6,13.4-2.2,13.4-2.2l0.5,1.8c-6,1-11,3.7-13.1,5L278.5,328.4z"/>
							<path class="st2" d="M278.7,315.2C278.7,315.2,278.7,315.2,278.7,315.2c8.2-0.5,15.3,2,15.3,2l0,0.5l0,1.7
								c-2-0.2-3.9-0.3-5.8-0.2c-4.2,0.1-7.8,0.9-10,1.4c0,0,0,0,0,0L278.7,315.2z"/>
						</g>
						<path class="st2" d="M422.5,278.4l57.7,2.6c1.3-7-0.9-10.3-0.9-10.3c-28.8,0.2-56.4,2.4-56.4,2.4
							C422.2,274.6,422.5,278.4,422.5,278.4z"/>
						<path class="st2" d="M537.4,352.7c-17.1,0.2-33.5,1.6-33.5,1.6c-0.4,1-0.2,3.6-0.2,3.6l34.3,1.8
							C538.7,355,537.4,352.7,537.4,352.7z"/>
						<path class="st2" d="M401.5,262.5l28.1,1.8c0.6-4.7-0.5-7-0.5-7c-14.1,0.2-27.5,1.6-27.5,1.6
							C401.3,259.9,401.5,262.5,401.5,262.5z"/>
					</g>
				</g>
				<path class="st2" d="M534.8,365.4c-17.1,0.1-33.9,0.5-48.1,0.9c-1.2-3.8-2.1-5.9-2.1-5.9c11.8-17.4,11.8-34.3,11.8-34.3
					l-4.5-1.6c-12.7,8.7-23.3,13.9-23.3,13.9c-2.3-3.7-6-7.3-7.6-8.9c-0.6-5.4-1.7-11.5-3.4-17.6c0,0-15.3-9.3-36.4-15.6
					c-0.5-1.6-1.1-3.1-1.6-4.4l9.7-5.6c-10.9-4.8-40.1-10.6-40.1-10.6c-0.4-4.8-1.1-12.9-2.7-21.1c6.2-3.6,16.1-10,24.6-18.9
					c0,0-5.7-6-12.8-8.6c10.2-7,17-13.5,17-13.5c-13-6.5-25.9-9.3-37.6-9.8c6.1-11.7,10.6-23.3,10.6-23.3c-18.3,0.7-33,3.8-44.7,7.9
					l0.9-5.8c-32.3,12.4-42,33.7-42,33.7c0.7,2.2,1.5,4.3,2.4,6.3c-5,9.9-5.5,18.6-5.5,18.6c2.9,0.6,6,0.9,8.9,1v5.6l6.9,1.1
					c0.5,3.1,1.2,6.8,2.1,11c-16.1-7.1-32.5-12.1-37.4-13.6l0-0.3c-2.8-2.5-7.3-6.1-7.3-6.1c-1-5.8-0.8-10.9-0.8-10.9
					c-3.9-2.6-10.1-5-14.5-6.5c1.2-3.4,2.1-6.9,2.1-6.9c-7.1-4.7-17.5-7.8-17.5-7.8c-2,4.3-4.4,8.8-6.9,13.3l-61.7-39.7l-1.9,3.5
					l8.3,14.8l-3.4,2.9l5.8,7.3l-7.6,0.7l-0.9,4l45.6,32.9c-4.3,6.6-7.2,10.9-7.2,10.9c9.6,9.1,17.2,12.6,17.2,12.6
					c2.8-3.7,5-7.2,6.3-9.4c1,1,3,2.7,6,4.4l-1.2,3.2l5,3c0.4,0.2,4.1,2.4,8.9,3.3l5.3,0.9l1.3-3.7c1.1,0.3,2.4,0.6,3.4,0.8l7.3,1.1
					l0-0.6c7.3,6.6,15.4,13.2,20.6,17.3c-1.1,0.6-2.3,1.2-3.4,1.8c-10.6,6.2-15.3,14.4-16.8,22.6c-4.6,1.7-11.1,5.8-14.4,15.2
					c0,0-4.4,15.1,7.3,26.2c-1.3,3.1-2.3,6.5-2.6,9.8c0,0,1.2,9.6,7.3,22.3l5.2,2.6c0,0,10.3,22.1,22.8,37.4c0,0,4.5,0.9,20.9-1.4
					c0,0,11.1-1.6,15.5-5.4c0,0-3.1-4-6.3-5.2c0,0,1.9-1.8,2.1-2.8c0,0-2.1-2.8-6.1-4.5c0,0-3.1-8.5-4-13.9c0,0,4.1-5,8.6-10.2
					l12,5.8c-6.5,7.1-11.7,13.5-11.7,13.5c4.4,5.4,8.8,10.2,13.2,14.5c1.8,3.6,5.3,10.1,10.1,17.4l6.1-3.3c0.8,0.6,1.6,1.2,2.4,1.8
					l-6.2,4.5c1.9,2.7,4.1,5.4,6.4,8c0,0,4.7-3.3,8.3-6.6c8.2,5.3,13.5,7.8,13.5,7.8c8.5-9.9,12.7-19.9,14.3-24.8
					c3.6,4.3,14.4,15.9,32,25.3c0,0,31.3-13.2,53.1-2.1c21.6,10.9,28.2,19.8,28.2,19.8s11.1-9.2,16.9-31c0,0-4.3-2.7-11.8-6.5
					c1.2-3.2,2.4-7.9,3-13.9l6.4-5.7l-19.2-0.6c-0.5,6.6-1.9,11.4-2.9,14.3c-1-0.4-2-0.9-3.1-1.3c1.4-5,1.6-10.9,1.6-13.3l-15.5-0.7
					c0,0-2.1-8.2-4.5-13.5c6.5-5.7,10.5-8.7,10.5-8.7c-0.5-3.1-1.1-6-1.6-8.6l-8-0.2c1.1,3.8,1.4,6.3,1.4,6.3
					c-6.5,4.3-17.9,16.4-24.2,23.3c-4.4-4.9-10.3-8.6-10.3-8.6l-2,2c2.7,2.8,5,6.2,6.6,8.8c-8.1-1.3-16.6-2.2-25.4-2.3v5.4
					c0,0,35.9-0.6,76.3,21.5l-5.6,13.3c-7.2-4.3-17.2-9.2-28.4-11.7c-21.9-4.9-43.3,4.7-43.3,4.7s-10.4-7.7-19.5-18.4
					c0.9-7.6,3.2-29.8,2.7-47.4c6.9-1.6,25.2-7,51.6-22.9c0,0,0.3-3.2,0.2-8.3c2.7,2.6,4.4,5.3,4.4,5.3
					c10.3-3.8,22.1-13.6,22.1-13.6c-2.8,8.7-10.8,18.1-10.8,18.1c-4-0.2-7.3,0.7-7.3,0.7c3.2,4.1,5.7,8.6,7.5,12.8
					c-17.3,0.6-28.8,1.2-28.8,1.2c-0.8,1.3-0.6,4.3-0.5,5.1c0,0.1,0,0.2,0,0.2l32.2,1l8.3,0.3l47.3,1.4c0.2-0.8,0.4-1.6,0.5-2.3
					C537.4,368,534.8,365.4,534.8,365.4z M508.1,436.3c3.2,1.8,6.4,3.8,9.6,6c0,0-2.6,8-7.1,13.4c0,0-3.6-3-9.6-6.8L508.1,436.3z
					 M450.7,317.4c0,0,1,3.5,1.9,8.7c-6.9-1.3-18.1-2.6-24-3.2c-1.2-6-2.8-12.2-4.5-17.8C431,307.5,444.2,312.5,450.7,317.4z
					 M387.9,283c6.6,1.2,20.3,5.4,20.3,5.4c8,13.6,14.1,38.3,14.1,38.3c-20.5,11.3-44.1,13.5-52.6,14c-0.2-3.6-0.6-8.5-1.4-13.7
					c22.8-13.1,31.9-28,31.9-28l-2.1-2.1c-2.8,2.6-5.8,5.1-8.7,7.3l-9-4.3l-2.1,2.4l5.5,6.2c-7.9,5.7-14.7,9.6-17.5,11.2
					c-1.7-1.8-6.1-6.1-12.7-8.4c-0.5-2.1-1.4-4.1-2.7-6.2C354.7,304.8,375.5,302.3,387.9,283z M332.5,354.3c-0.5-1.3-1-3-1.4-4.7
					c3.7-0.5,7.6-1.2,7.6-1.2l-0.2-2.4c-1.9-0.2-5.9-0.8-8.4-1.2c0-0.1,0-0.2-0.1-0.3c-0.2-1.7-0.3-3.2-0.2-4.7
					c3.7-0.4,7.9-0.9,7.9-0.9l-0.2-2.4c-1.6-0.2-4.6-0.8-6.9-1.3c0.8-2.5,1.9-4.3,2.7-5.4l0.4-0.2c2.5,0.2,11.5,0.5,22.7-5.5
					l-0.6-1.9l-3.3-0.1c1.2-1.2,2.1-2.5,2.8-3.8c1,0.6,5,2.8,6.5,4c3.2,7,1.8,21.4,1.8,21.4c-3.5,5.2-10.5,10.2-14.3,11.4
					C340.9,355.7,336,355,332.5,354.3z M341.7,361.6c-4.9,4.1-13.5,7.2-22.1-0.3c0,0,5.4,1.3,9.9-2
					C331.9,360.1,335.9,361.1,341.7,361.6z M347,299.8c-3.1-3.4-7-6.4-11.6-8.8c-1.9-3.6-5.4-11.1-8.6-22.7c2-0.6,3.1-1,3.1-1
					c-0.9-4.2-1.9-9.1-2.4-10.3l-3.3,0.1c-0.8-3.7-1.5-7.7-2.1-12c0,0,0,0,0,0c0.1-0.1,0.3-0.1,0.4-0.2l2.8,1.8l1.6-3.9
					c15.8-7.1,29.3-11.1,37.2-13.2c1.6,6.5,3,13.3,3,13.3c2.8-0.9,5.9-2.2,8.8-3.5l0.1,0.2c0,0,1.8,6.7,3.2,12.4
					c1.5,7.3,2.8,16,3.3,26.1c0,0-7.8,18.5-35.7,21.3L347,299.8z M385,245.4l-2.7-8.8c2.4-1.2,4.8-2.5,7.1-3.8
					c2.9,0.9,6.1,2.2,8.3,4.1C397.6,236.9,391,242.7,385,245.4z M399.7,214.4c0,0-5.1,5-11.3,9.2l0-0.1c-1.4,0.8-3.1,1.7-4.8,2.5
					c-0.8,0.4-1.6,0.8-2.5,1.1c-3.1,1.4-6,2.6-7.3,3.1c-0.5,0.2-0.7,0.3-0.7,0.3l-0.7-2.5l-0.6-2.1l6.4-6.7c-1.8,0-3.7,0.2-5.5,0.4
					c-0.8,0.1-1.6,0.3-2.5,0.4l0-0.1l-1,0.3c-0.6,0.1-1.1,0.2-1.7,0.4c-5.7,1.3-10.7,3.2-12.8,4.1c-8.7,2.8-18.3,6.4-26.4,10.8
					c0,0,3.7-14,5.6-17.4C334.1,218.1,360.3,204.2,399.7,214.4z M306.9,234.7l1.8-5.4c1.2,2.1,2.5,4,3.7,5.6L306.9,234.7z
					 M310.6,215.5c27.3-25.4,63.3-24.2,63.3-24.2c-1.1,3.6-4.4,8.5-7,12.4c-24,1.5-40.9,11-40.9,11c-1.9,5.4-3.1,15.8-3.7,22.9
					C315.4,228.8,310.6,215.5,310.6,215.5z M184.7,214.7l7.4-2l-8-8.9l2.6-2.7l-1.3-5.4l46.2,31.4c-0.7,1.2-1.4,2.3-2,3.5
					l-30.5-17.4l-1.5,2.3l28.8,20.6c-0.8,1.4-1.6,2.7-2.4,4L184.7,214.7z M233.9,252.2l-2.8,4.5c-1.7,2.5-4,5.6-4,5.6
					c-3.2-1.9-6.4-4.7-6.4-4.7c9.9-13.2,23.9-40.6,23.9-40.6c5.2,1.5,7.6,3.7,7.6,3.7L242,238.9l1.6,2.3l-2.2,2
					C240.8,243.7,237.5,246.4,233.9,252.2z M244.5,260.7c-0.3-0.1-0.5-0.3-0.7-0.4c-4-2.2-6-4.5-6-4.5c3.7-6.1,6.9-8.6,6.9-8.6
					c2.4,1.5,4.7,4.2,4.7,4.2L248,254L244.5,260.7z M255.8,270.3c-0.6-0.1-1.2-0.2-1.8-0.4c-1.8-0.4-3.3-1-4.6-1.5
					c-1.6-0.7-2.6-1.2-2.6-1.2c2.7-6.7,6.2-9.4,6.2-9.4c0.2,0.2,0.8,0.6,1.4,1c0.4,0.2,0.8,0.5,1.2,0.8c1.2,0.8,2.4,1.5,2.4,1.5
					C257.2,266.7,255.8,270.3,255.8,270.3z M267,268.6c0,0.1-0.1,0.1-0.1,0.1c-1.2-0.2-3.2-0.7-4.5-1c-0.7-0.2-1.2-0.3-1.2-0.3
					c0.3-3.2,2.5-9.4,2.5-9.4c0.2,0,0.3,0.1,0.5,0.1c2.5,0.6,5.7,2.3,6.2,2.6c0,0,0.1,0,0.1,0C270,263.1,267.5,267.8,267,268.6z
					 M266.9,251.6c-3.9-7.8-9.1-14.3-9.1-14.3l-1.8,2c3,4.8,5.3,12.4,5.3,12.4c-2.5,2-4.3,2.3-4.3,2.3c-3-3.8-7.6-12.9-7.6-12.9
					c1.8-4.6,6.6-12.9,6.6-12.9c4,1,10.6,5.3,10.6,5.3s0.6,7.8,1.6,8.9c1.8,1.8,5.6,4.6,8.2,6.4c-1.3,2.1-2.5,4.4-3.7,6.7
					L266.9,251.6z M273.9,268.2c2.8-7.2,8.2-15.7,8.2-15.7c8.5,2.5,29.4,11.8,37.5,15.5c1.5,5.8,3.4,12.2,5.8,19.2
					c-7.4-1.8-15.7-2-24.4,0.6C285.3,277.5,273.9,268.2,273.9,268.2z M264.5,335.7c1.3-4.9,4.4-7.7,6.9-9.2c0.5,5.6,2,10.8,3.5,14.7
					c-1.5,1.7-3.9,4.8-6.3,8.6C266.1,346.2,263.2,340.8,264.5,335.7z M368.4,432.5c-20.1-13.3-31.2-27.9-31.2-27.9
					c10.3-13.9,19.8-24,19.8-24c-1.6-0.9-3.1-2.1-3.1-2.1c-3.2,2.6-6.7,5.9-10,9.4l-9.9-8.2c1.3-1.3,2.5-2.5,3.5-3.3l-2.4-2.6
					c0,0-12.9,11.3-18.6,15.8l-4.2-0.5c0,0,0.7,13.6,7.3,32.9c0,0-10.8,2.1-18.3,1.6c0,0-11.8-16.7-19-32.9c0,0,0-4.7,0.5-6.1
					c0,0-3.8-2.1-7.8-3.1c0,0-5.2-10.6-5.6-15.1c0,0,3.1-9.4,10.6-15.9c12.5,13.7,27.5,3.7,27.5,3.7l-1.8-2.8c-16.1,2.8-22-13-22-13
					c-10.8-29.2,8.5-43.7,33.6-44.7c21.8-0.8,30.2,16.7,32,21.4c-1.2,2.1-4.6,5.4-15.1,6c-6.8-8.3-18.8-4.9-18.8-4.9v-4
					c-5.5,1.6-10.3,3.3-12.9,8.1c0,0-4.8,8,1.1,19.1c3.4,5.8,8.5,9.4,8.5,9.4c2.8-1.2,5.6-5.2,5.6-5.2c-7.9-2.9-14.2-17.8-2.5-21.3
					c7.1-2.1,11.7-0.2,13.7,1.1c-1.6,1.7-7.9,9.3-6.1,21.6c0,0,1,5.7,3,10.2c-2.2,1.6-6.2,2.9-12.2-1.2l-2.4,3
					c0,0,4.2,14.8,20.1,14.8c10.6,0,16.9-6,20.4-11.1c3-1.7,9.7-5.8,15.8-11.3c3.9-0.5,7.6-1,11.1-1.6c-4.5,3.4-9.7,7.9-13.3,12.8
					c0,0,6,12.2,14.1,27.3c0,0-14.1,10.3-26.7,18.8v5.6c0,0,5.6,4.7,19.7,8.3L368.4,432.5z M380,439.4c-3.2-1.7-6.2-3.5-9.1-5.3
					l5.7-12.4c3.1,0.6,6.4,1.2,10.2,1.7C384.2,432,380,439.4,380,439.4z M453.9,348.2c0,0-17.9,14.1-58.6,21.6l-0.3,2.8l8.2,1.7
					c0.1,7.7,0.2,28.6-2.6,41.3c0,0-21,2.2-39.5-6.6c0,0,14.1-10.7,29.5-18.8c0,0-11.3-22.3-15.4-29.8c0,0,8.9-8.8,22.6-16.8
					c22.3-6.2,32-13.8,32-13.8c0-0.1,0-0.3-0.1-0.4l23.6,1.2C454.1,336.1,454.5,342.4,453.9,348.2z"/>
			</g>
		</g>
	</g>
</g>
</svg>
