<?xml version="1.0" encoding="utf-8"?>
<!-- Generator: Adobe Illustrator 24.2.1, SVG Export Plug-In . SVG Version: 6.00 Build 0)  -->
<svg version="1.1" id="Layer_1" xmlns="http://www.w3.org/2000/svg" xmlns:xlink="http://www.w3.org/1999/xlink" x="0px" y="0px"
	 viewBox="0 0 800 800" style="enable-background:new 0 0 800 800;" xml:space="preserve">
<style type="text/css">
	.st0{fill-rule:evenodd;clip-rule:evenodd;fill:#F1C400;}
	.st1{fill:#28334A;}
</style>
<rect x="-0.4" y="-0.5" class="st0" width="801.5" height="801.5"/>
<g>
	<path class="st1" d="M327.9,487.5c-12.3,0-21.2,9.3-21.2,20.5l0,0c0,11.3,8.9,20.5,21.2,20.5s21.2-9.3,21.2-20.5l0,0
		C349.1,496.7,340.1,487.5,327.9,487.5z M339.1,508.3c0,6.6-4.6,11.9-11.3,11.9c-6.6,0-11.3-5.6-11.3-11.9l0,0
		c0-6.6,4.6-11.9,11.3-11.9C334.5,496.1,339.1,501.4,339.1,508.3L339.1,508.3z"/>
	<path class="st1" d="M401.4,478.5c-2.6,0-4.6,2-4.6,4.6v31.1l-26.2-33.1c-1.3-1.7-2.6-3-5-3h-1.3c-2.6,0-5,2-5,5v43.4
		c0,2.6,2,4.6,4.6,4.6s4.6-2,4.6-4.6v-31.8l27.2,33.8c1.3,1.7,2.6,3,5,3h0.3c2.6,0,5-2,5-5v-43.4C406,480.5,404.1,478.5,401.4,478.5
		z"/>
	<path class="st1" d="M454.1,509v-14.6c0-2.6-2-5-5-5c-2.6,0-5,2-5,5v15.2c0,7-3,10.6-7.9,10.6c-4.6,0-7.9-2.3-7.9-10.9v-14.9
		c0-2.6-2-5-5-5c-2.6,0-5,2-5,5v14.9c0,13.6,7.6,19.5,17.6,19.5C446.8,528.5,454.1,521.6,454.1,509z"/>
	<path class="st1" d="M489.8,476.5h-28.1c-2.3,0-4.3,2-4.3,4.3c0,2.3,2,4.3,4.3,4.3h9.3v44.7c0,2.6,2,5,5,5c2.6,0,5-2,5-5v-44.4h9.3
		c2.3,0,4.3-2,4.3-4.3C494.5,478.5,492.5,476.5,489.8,476.5z"/>
	<path class="st1" d="M516.7,502c-7.6-2-9.6-3-9.6-5.6l0,0c0-2,2-4,5.6-4c3,0,6,1,9.3,3c0.7,0.3,1.7,0.7,2.3,0.7
		c2.6,0,4.6-2,4.6-4.3c0-2-1-3.3-2-4c-4-2.6-8.6-4-13.9-4c-8.9,0-15.2,5.3-15.2,13.2l0,0c0,8.6,5.6,11.3,14.6,13.6
		c7.3,2,8.9,3,8.9,5.6l0,0c0,2.6-2.3,4.3-6.3,4.3c-4.3,0-7.9-1.7-11.3-4c-0.7-0.3-1.7-1-2.6-1c-2.6,0-4.6,2-4.6,4.3
		c0,1.7,0.7,3,1.7,3.6c5,3.6,10.6,5.3,16.6,5.3c9.6,0,16.2-5,16.2-13.6l0,0C530.6,507.7,525.6,504.3,516.7,502z"/>
	<path class="st1" d="M292.8,503.4h-11.3c-2.3,0-4.3,2-4.3,4.3c0,2.3,2,4,4.3,4h6.6v10.3c-3.3,2.6-7.9,4-13.2,4
		c-11.3,0-18.5-8.3-18.5-19.5l0,0c0-10.6,7.6-19.2,17.6-19.2c6,0,9.6,1.7,13.2,4.3c0.7,0.7,1.7,1,3,1c2.6,0,4.6-2.3,4.6-4.6
		c0-2-1-3.3-2-4c-5-3.6-10.6-5.6-18.5-5.6c-16.6,0-28.1,12.9-28.1,28.1l0,0c0,15.9,11.3,28.1,28.1,28.1c8.3,0,14.6-2.6,19.5-6
		c2.3-1.3,3.3-3.3,3.3-6V508C297.4,505.3,295.4,503.4,292.8,503.4z"/>
	<path class="st1" d="M455.4,349.4c-1-1.7-2.3-3-3.6-4.3c-2-2-3-3-2.6-6c0.7-4.3,1.3-11.9,1.7-14.9c0.3-4,0.7-7.6,0-10.9
		c-3.6-22.9-21.5-39.1-46-41.7c-2-0.3-2-1.3-2-2.3c0.7-7,2.6-27.5,2.6-27.5c0.3-2.6-1.7-5.3-4.3-5.6c-2.6-0.3-5.3,1.7-5.6,4.3
		c0,0-2,21.2-2.6,28.5c-0.3,2.3-1.3,2.3-3,2.6c-19.5,3-35.4,16.9-42.1,31.8c-3,7-3,15.6-1.7,26.2c0.3,1.7,0.7,5.3,1,8.3
		c0.3,4-0.7,5-2.3,6.6c-7,7.3-10.9,17.2-9.6,28.1c1,7.9,5,14.6,11.3,19.5c1.3,1,3,2,4.6,3c2,1,3,1.7,3.3,5c1.3,12.6,5.3,46,5.3,46
		c0.7,6.6,4,8.3,10.9,8.3l54-1.3c7.9-0.3,10.6-3.3,11.6-8.9c0,0,1-7.3,2-16.6c0.3-1.7,0.7-2.6,2-3.6c3-1.7,6-3.6,8.3-6
		c2-1.7,2.3-5,0.3-7c-1.7-2-5-2.3-7-0.3l-0.3,0.3c-1,1-1.3,0-1.3-1.7c0.7-4.3,1-7.9,1.3-10.6c0.3-2,1.3-2.3,2.6-3
		c1.7-0.7,3-1.7,4.3-2.3c6.3-4.6,10.6-11.3,11.9-18.9C462.7,365.6,460.7,356.6,455.4,349.4z M357.7,307
		c6.3-13.6,22.2-25.8,40.4-25.8c19.9,0,35.8,10.9,41.4,27.2c0.3,1.3,0,4.6-2.3,4.6c-13.2-0.3-60.6-1.3-77.5-1.3
		C358.4,311.6,355.7,311.3,357.7,307z M451.4,372.9c-1,5.3-3.6,9.9-7.6,12.9c-4.3,3-9.6,4.3-14.9,3.3c-8.6-1.7-14.6-10.3-12.9-18.9
		c1.3-7,7.6-11.9,14.6-10.6c5.3,1,7.6,6.3,6.6,10.9c-0.7,3.6-2.3,5.3-3.6,5.3c-1.3,0-2.3-1-2.3-3.6s-2.3-5-5.3-4.6
		c-2.6,0-5,2.3-4.6,5.3c0.3,7,5.3,11.3,11.6,11.9c5.6,0.3,12.6-4,13.9-12.3c1.3-9.3-3.6-19.2-14.9-21.2c-12.3-2-23.8,5.6-25.8,17.9
		c-2.3,13.9,7,27.2,20.9,29.8c1,0,1.7,0.3,2.6,0.3c2,0,2.3,1.3,2,3c-0.3,3.3-1,8.6-1.3,10.9c0,0,0,1,0,1.3c-0.7,4.3-1,5.3-3.6,6.3
		c-15.2,5.6-33.8,5-45-3.3c-2.3-1.7-5.3-1-7,1.3c-1.7,2.3-1,5,1.3,6.6c8.3,6,19.2,8.6,30.5,8.6c6.6,0,13.2-0.7,19.5-2.6
		c2-0.7,2.3,0,2,2c-0.3,2.6-0.7,6-1,7.9c-0.3,2.3-1,3.3-4,3.3c-10.3,0.3-39.4,1-50.7,1c-2.3,0-2.6-0.7-3-2.6c-0.3-3-1-7.6-1-9.6
		l-2-15.6c-0.3-3.3-1.3-11.6-1.7-15.6c-0.3-2,0.7-2.3,3.6-2.6c13.9-1.7,24.2-14.6,22.2-28.8c-1.7-12.3-12.6-20.9-25.2-19.2
		c-4.6,0.7-8.9,3-11.9,6.6c-3,4-4.6,8.3-4,13.2c0.7,6,4,10.3,8.9,12.3c4.3,1.7,9.3,1,12.9-1.7c3.3-2.6,5-6.6,4-10.9
		c-0.3-2.6-3-4.6-5.6-4c-2.6,0.3-4.6,3-4,5.6c0.3,2.6-2,3.6-3.6,3c-1.7-0.7-2.6-3-3-5.3c-0.3-2.3,0-4.6,1.3-6.3
		c1.3-1.7,3.6-3,5.6-3.3c7-1,13.6,4.3,14.2,11.3c1,8.6-5,16.9-13.6,17.9c-5.3,0.7-10.6-0.7-14.6-4c-4-3.3-6.6-7.9-7.3-13.2
		c-1.7-12.9,7.6-25.5,20.9-27.2c6.6-1,12.9,1,18.5,4.3c2.3,1.3,5.3,0.7,6.6-1.7c1.3-2.3,0.7-5.3-1.7-6.6c-7.6-4.6-16.2-6.3-24.8-5.3
		c-1.3,0.3-2.6,0.3-4,0.7c-1.7,0.3-3.3,0.3-3.6-2c-0.3-2.6-0.7-6.3-1-7.6c-0.7-4.3,0.3-5,3-5c17.2,0.3,62.6,1,77.5,1.3
		c3.3,0,5-1,4.3,4.3c-0.3,1.7-0.3,3.6-0.7,6.3c-0.3,2.6-1.7,3.3-4.3,2.6c-0.7,0-1.3-0.3-2-0.3c-8.3-1.3-16.6-0.3-23.8,3.6
		c-2.3,1.3-3.3,4.3-2.3,6.6c1.3,2.3,4.3,3.3,6.6,2.3c5.6-2.6,11.9-4,18.2-3c6.3,1,11.3,4.6,14.9,9.6
		C450.8,360,452.4,366.6,451.4,372.9z"/>
	<g>
		<path class="st1" d="M279.2,553.7c0-0.7,0.3-1,1-1h0.3c0.3,0,0.7,0.3,1,0.7l2.6,4.3l2.6-4.3c0.3-0.3,0.7-0.7,1-0.7h0.3
			c0.7,0,1,0.3,1,1v7.6c0,0.7-0.3,1-1,1c-0.7,0-1-0.3-1-1v-5l-2,3c-0.3,0.3-0.7,0.7-1,0.7c-0.3,0-0.7-0.3-1-0.7l-2-3v5
			c0,0.7-0.3,1-1,1c-0.7,0-1-0.3-1-1L279.2,553.7L279.2,553.7z"/>
		<path class="st1" d="M291.1,561.3l3.3-7.6c0.3-0.7,0.7-1,1.3-1l0,0c0.7,0,1,0.3,1.3,1l3.3,7.6v0.3c0,0.7-0.3,1-1,1
			c-0.7,0-1-0.3-1-0.7l-0.7-1.7h-4.3l-0.7,1.7c-0.3,0.3-0.7,0.7-1,0.7c-0.7,0-1-0.3-1-1C290.8,561.6,291.1,561.3,291.1,561.3z
			 M297.1,558.7l-1.3-3.3l-1.3,3.3H297.1z"/>
		<path class="st1" d="M302.4,554c0-0.7,0.3-1,1-1h2.6c3,0,5.3,2,5.3,5l0,0c0,2.6-2,5-5.3,5h-2.6c-0.7,0-1-0.3-1-1V554z
			 M306.4,560.6c1.7,0,3-1.3,3-3l0,0c0-1.7-1.3-3-3-3h-1.7v6H306.4z"/>
		<path class="st1" d="M313.6,561.6V554c0-0.7,0.3-1,1-1h5.3c0.7,0,1,0.3,1,1s-0.3,1-1,1h-4.3v2h3.6c0.7,0,1,0.3,1,1s-0.3,1-1,1
			h-3.6v2h4.3c0.7,0,1,0.3,1,1s-0.3,1-1,1h-5.6C314.3,562.6,313.6,562,313.6,561.6z"/>
		<path class="st1" d="M327.6,554c0-0.7,0.3-1,1-1h3.3c1,0,2,0.3,2.6,1c0.3,0.3,0.7,1,0.7,1.7l0,0c0,1-0.7,1.7-1.3,2
			c1,0.3,2,1,2,2.3l0,0c0,1.7-1.3,2.6-3.6,2.6h-3.6c-0.7,0-1-0.3-1-1V554z M331.5,556.7c1,0,1.7-0.3,1.7-1l0,0c0-0.7-0.7-1-1.3-1h-2
			v2L331.5,556.7L331.5,556.7z M332.2,560.6c1,0,1.7-0.3,1.7-1l0,0c0-0.7-0.3-1-1.7-1h-2.6v2H332.2L332.2,560.6z"/>
		<path class="st1" d="M340.5,558.7l-3.3-4.3c0-0.3-0.3-0.3-0.3-0.7c0-0.7,0.3-1,1-1c0.3,0,0.7,0.3,1,0.7l2.3,3.3l2.3-3.3
			c0.3-0.3,0.7-0.7,1-0.7c0.7,0,1,0.3,1,1c0,0.3,0,0.7-0.3,0.7l-3.3,4.3v3c0,0.7-0.3,1-1,1s-1-0.3-1-1v-3H340.5z"/>
		<path class="st1" d="M352.1,554c0-0.7,0.3-1,1-1h3.3c1,0,2,0.3,2.6,1c0.3,0.3,0.7,1,0.7,1.7l0,0c0,1-0.7,1.7-1.3,2
			c1,0.3,2,1,2,2.3l0,0c0,1.7-1.3,2.6-3.6,2.6h-3.6c-0.7,0-1-0.3-1-1V554z M356,556.7c1,0,1.7-0.3,1.7-1l0,0c0-0.7-0.7-1-1.3-1h-2v2
			L356,556.7L356,556.7z M356.7,560.6c1,0,1.7-0.3,1.7-1l0,0c0-0.7-0.3-1-1.7-1h-2.6v2H356.7L356.7,560.6z"/>
		<path class="st1" d="M362.3,558.3v-4.6c0-0.7,0.3-1,1-1c0.7,0,1,0.3,1,1v4.6c0,1.7,0.7,2.3,2,2.3c1.3,0,2-0.7,2-2.3v-4.6
			c0-0.7,0.3-1,1-1c0.7,0,1,0.3,1,1v4.6c0,3-1.7,4.3-4.3,4.3C364,562.6,362.3,561.3,362.3,558.3z"/>
		<path class="st1" d="M373.6,554c0-0.7,0.3-1,1-1h3.3c1,0,2,0.3,2.6,1c0.3,0.3,0.7,1,0.7,1.7l0,0c0,1-0.7,1.7-1.3,2
			c1,0.3,2,1,2,2.3l0,0c0,1.7-1.3,2.6-3.6,2.6h-3.6c-0.7,0-1-0.3-1-1V554z M377.6,556.7c1,0,1.7-0.3,1.7-1l0,0c0-0.7-0.7-1-1.3-1h-2
			v2L377.6,556.7L377.6,556.7z M378.2,560.6c1,0,1.7-0.3,1.7-1l0,0c0-0.7-0.3-1-1.7-1h-2.6v2H378.2L378.2,560.6z"/>
		<path class="st1" d="M384.2,554c0-0.7,0.3-1,1-1h3.3c1,0,2,0.3,2.6,1c0.3,0.3,0.7,1,0.7,1.7l0,0c0,1-0.7,1.7-1.3,2
			c1,0.3,2,1,2,2.3l0,0c0,1.7-1.3,2.6-3.6,2.6h-3.6c-0.7,0-1-0.3-1-1V554z M388.2,556.7c1,0,1.7-0.3,1.7-1l0,0c0-0.7-0.7-1-1.3-1h-2
			v2L388.2,556.7L388.2,556.7z M388.8,560.6c1,0,1.7-0.3,1.7-1l0,0c0-0.7-0.3-1-1.7-1h-2.6v2H388.8L388.8,560.6z"/>
		<path class="st1" d="M394.5,553.7c0-0.7,0.3-1,1-1s1,0.3,1,1v7h4.3c0.7,0,1,0.3,1,1c0,0.7-0.3,1-1,1h-5c-0.7,0-1-0.3-1-1v-7.9
			H394.5z"/>
		<path class="st1" d="M403.4,561.6V554c0-0.7,0.3-1,1-1h5.3c0.7,0,1,0.3,1,1s-0.3,1-1,1h-4.3v2h3.6c0.7,0,1,0.3,1,1s-0.3,1-1,1
			h-3.6v2h4.3c0.7,0,1,0.3,1,1s-0.3,1-1,1h-5.6C404.1,562.6,403.4,562,403.4,561.6z"/>
		<path class="st1" d="M415.7,554.7h-2c-0.7,0-1-0.3-1-1s0.3-1,1-1h6.3c0.7,0,1,0.3,1,1s-0.3,1-1,1h-2v7c0,0.7-0.3,1-1,1
			c-0.7,0-1-0.3-1-1v-7H415.7z"/>
		<path class="st1" d="M422.6,561.6V554c0-0.7,0.3-1,1-1h5.3c0.7,0,1,0.3,1,1s-0.3,1-1,1h-4.3v2h3.6c0.7,0,1,0.3,1,1s-0.3,1-1,1
			h-3.6v2h4.3c0.7,0,1,0.3,1,1s-0.3,1-1,1h-5.6C422.9,562.6,422.6,562,422.6,561.6z"/>
		<path class="st1" d="M431.9,561.3l3.3-7.6c0.3-0.7,0.7-1,1.3-1l0,0c0.7,0,1,0.3,1.3,1l3.3,7.6v0.3c0,0.7-0.3,1-1,1s-1-0.3-1-0.7
			l-0.7-1.7h-4.3l-0.7,1.7c-0.3,0.3-0.7,0.7-1,0.7c-0.7,0-1-0.3-1-1C431.5,561.6,431.9,561.3,431.9,561.3z M437.8,558.7l-1.3-3.3
			l-1.3,3.3H437.8z"/>
		<path class="st1" d="M443.1,553.7c0-0.7,0.3-1,1-1c0.7,0,1,0.3,1,1v3h4v-3c0-0.7,0.3-1,1-1c0.7,0,1,0.3,1,1v7.9c0,0.7-0.3,1-1,1
			s-1-0.3-1-1v-3h-4v3c0,0.7-0.3,1-1,1s-1-0.3-1-1V553.7z"/>
		<path class="st1" d="M453.7,557.7L453.7,557.7c0-2.6,2.3-5,5.3-5s5.3,2.3,5.3,5l0,0c0,2.6-2.3,5-5.3,5S453.7,560.6,453.7,557.7z
			 M462,557.7L462,557.7c0-1.7-1.3-3-3-3c-1.7,0-3,1.3-3,3l0,0c0,1.7,1.3,3,3,3C460.7,560.6,462,559.3,462,557.7z"/>
		<path class="st1" d="M466.3,553.7c0-0.7,0.3-1,1-1s1,0.3,1,1v7h4c0.7,0,1,0.3,1,1c0,0.7-0.3,1-1,1h-5c-0.7,0-1-0.3-1-1V553.7z"/>
		<path class="st1" d="M475.3,553.7c0-0.7,0.3-1,1-1s1,0.3,1,1v7.9c0,0.7-0.3,1-1,1c-0.7,0-1-0.3-1-1V553.7z"/>
		<path class="st1" d="M479.9,557.7L479.9,557.7c0-2.6,2-5,5-5c1.3,0,2.3,0.3,3.3,1c0.3,0.3,0.3,0.3,0.3,1s-0.3,1-1,1
			c-0.3,0-0.3,0-0.7-0.3c-0.7-0.3-1.3-0.7-2-0.7c-1.7,0-3,1.3-3,3l0,0c0,1.7,1.3,3,3,3c1,0,1.7-0.3,2-0.7c0.3,0,0.3-0.3,0.7-0.3
			c0.7,0,1,0.3,1,1c0,0.3-0.3,0.7-0.3,0.7c-1,0.7-2,1.3-3.6,1.3C481.9,562.6,479.9,560.6,479.9,557.7z"/>
		<path class="st1" d="M490.8,561.6c-0.3-0.3-0.3-0.3-0.3-0.7c0-0.7,0.3-1,1-1c0.3,0,0.3,0,0.7,0.3c0.7,0.7,1.7,1,2.6,1
			s1.3-0.3,1.3-1l0,0c0-0.7-0.3-0.7-2-1.3c-2-0.7-3.3-1-3.3-3l0,0c0-1.7,1.3-3,3.3-3c1.3,0,2.3,0.3,3,1c0.3,0,0.3,0.3,0.3,1
			s-0.3,1-1,1c-0.3,0-0.3,0-0.7,0c-0.7-0.3-1.3-0.7-2-0.7c-0.7,0-1.3,0.3-1.3,1l0,0c0,0.7,0.3,1,2,1.3c2,0.7,3,1.3,3,3l0,0
			c0,2-1.3,3-3.6,3C493.1,562.6,491.8,562.3,490.8,561.6z"/>
	</g>
	<path class="st1" d="M397.1,228.5c0,3.3-2.6,6-6,6c-3.3,0-6-2.6-6-6c0-3.3,2.6-6,6-6C394.5,222.5,397.1,225.2,397.1,228.5z"/>
	<path class="st1" d="M415,225.2c0,3-2.6,5.6-5.6,5.6c-3,0-5.6-2.6-5.6-5.6s2.6-5.6,5.6-5.6S415,221.9,415,225.2z"/>
	<path class="st1" d="M403.7,212.6c0,2.6-2,4.6-4.6,4.6s-4.6-2-4.6-4.6s2-4.6,4.6-4.6C401.7,208.3,403.7,210.3,403.7,212.6z"/>
</g>
</svg>
