<?xml version="1.0" encoding="utf-8"?>
<!-- Generator: Adobe Illustrator 24.2.1, SVG Export Plug-In . SVG Version: 6.00 Build 0)  -->
<svg version="1.1" id="Layer_1" xmlns="http://www.w3.org/2000/svg" xmlns:xlink="http://www.w3.org/1999/xlink" x="0px" y="0px"
	 viewBox="0 0 800 800" style="enable-background:new 0 0 800 800;" xml:space="preserve">
<style type="text/css">
	.st0{fill-rule:evenodd;clip-rule:evenodd;fill:#FFD400;}
	.st1{fill:#1A1A1A;}
	.st2{fill-rule:evenodd;clip-rule:evenodd;fill:#1A1A1A;}
</style>
<rect x="-0.4" y="-0.5" class="st0" width="801.5" height="801.5"/>
<g>
	<path class="st1" d="M312.5,397.3h-26.5v8.3h15.7c-2.1,7.1-7.3,10.4-14.4,10.4c-10.3,0-16.5-6.6-16.5-16.6
		c0-9.9,6.1-16.6,15.3-16.6c7,0,11.8,3.6,13.8,9.6l10.6-4.4c-3.1-8.3-11.4-15.7-24.1-15.7c-15.3,0-26.8,11.3-26.8,26.9
		c0,15.4,11.3,26.8,26.8,26.8C301.2,426,312.5,415.6,312.5,397.3z"/>
	<path class="st1" d="M337.3,416.1c-6.1,0-10.2-4.5-10.2-10.7c0-6.3,4.1-10.7,10.2-10.7s10.1,4.4,10.1,10.6
		C347.4,411.7,343.2,416.1,337.3,416.1z M337.2,426c12.3,0,21.2-8.9,21.2-20.5c0-11.8-8.9-20.5-21.2-20.5
		c-12.4,0-21.2,8.8-21.2,20.5C316,417.1,324.8,426,337.2,426z"/>
	<path class="st1" d="M383,416.1c-6.1,0-10.2-4.5-10.2-10.7c0-6.3,4.1-10.7,10.2-10.7s10.1,4.4,10.1,10.6
		C393.1,411.7,389,416.1,383,416.1z M383,426c12.3,0,21.2-8.9,21.2-20.5c0-11.8-8.9-20.5-21.2-20.5c-12.4,0-21.2,8.8-21.2,20.5
		C361.8,417.1,370.5,426,383,426z"/>
	<path class="st1" d="M428.7,416.2c-5.9,0-10.1-4.5-10.1-10.8s4.2-10.9,10.1-10.9c6,0,10.1,4.5,10.1,10.9
		C438.8,411.8,434.7,416.2,428.7,416.2z M438.3,370.6v18.6c-2.9-2.8-6.8-4.3-11.5-4.3c-11.2,0-19.2,8.8-19.2,20.5
		c0,11.7,8.2,20.5,19.5,20.5c5.1,0,9.2-1.9,12.1-5v4h10.2v-54.4H438.3z"/>
	<path class="st1" d="M468.2,383h9.9c4.8,0,7.6,2.5,7.6,6.5c0,3.9-2.8,6.5-7.6,6.5h-9.9V383z M485.1,425h12.3l-15.4-21.4
		c8.9-1.3,14.5-7.1,14.5-15c0-8.9-7-15.3-18.1-15.3h-21.1V425h10.9v-21.2h2.2L485.1,425z"/>
	<path class="st1" d="M509,401.6c1.1-5.4,4.8-8.3,9.9-8.3c5.1,0,8.5,3.2,9.5,8.3H509z M509.1,408.8h29.4c0.1-1,0.2-2.5,0.2-4.2
		c0-9.8-7.5-19.7-20.2-19.7c-11.2,0-20.2,9.2-20.2,20.5c0,11.7,8.3,20.5,21,20.5c9.6,0,14.7-3.9,17.7-8.4l-8.4-5.6
		c-1.7,3.1-4.2,4.8-9,4.8C514.4,416.8,510.4,413.9,509.1,408.8z"/>
	<path class="st1" d="M563.4,416.2c-5.9,0-10.1-4.5-10.1-10.8s4.2-10.9,10.1-10.9c6,0,10.1,4.5,10.1,10.9
		C573.5,411.8,569.4,416.2,563.4,416.2z M573.9,385.8v4.8c-2.8-3.2-6.9-5-12.1-5c-11.3,0-19.5,8.1-19.5,19.9
		c0,11.7,8.2,20.5,19.5,20.5c5.1,0,9.2-1.9,12.1-5.3v4.3h10.2v-39.2H573.9z"/>
	<rect x="591.2" y="370.6" class="st1" width="11" height="54.4"/>
	<path class="st1" d="M628.8,425h6.5v-9.6h-4.2c-3.9,0-6-2.2-6-6.4v-13.8h9.9v-9.4h-9.5v-10.3h-10.7v6.1c0,2.8-1.3,4.2-4,4.2h-3.3
		v9.4h6.7v15.2C614.1,419.2,619,425,628.8,425z"/>
	<polygon class="st1" points="667.4,385.8 657.5,416.2 648.6,385.8 637.2,385.8 650.3,425 654,425 648.7,438.3 659.5,438.3 
		664.4,425 678.8,385.8 	"/>
	<path class="st2" d="M166.3,394v5.9c0,9.3,7.5,16.8,16.8,16.8c9.3,0,16.8-7.5,16.8-16.8V394h11.7v5.9c0,15.8-12.8,28.6-28.6,28.6
		c-15.8,0-28.6-12.8-28.6-28.6V394H166.3z"/>
	<polygon class="st2" points="143.6,380.8 143.6,428.4 131.9,428.4 131.9,373.5 183.1,348.3 234.3,373.5 234.3,428.4 222.6,428.4 
		222.6,380.8 183.1,361.3 	"/>
</g>
</svg>
