<?xml version="1.0" encoding="utf-8"?>
<!-- Generator: Adobe Illustrator 24.2.1, SVG Export Plug-In . SVG Version: 6.00 Build 0)  -->
<svg version="1.1" id="Layer_1" xmlns="http://www.w3.org/2000/svg" xmlns:xlink="http://www.w3.org/1999/xlink" x="0px" y="0px"
	 viewBox="0 0 800 800" style="enable-background:new 0 0 800 800;" xml:space="preserve">
<style type="text/css">
	.st0{fill-rule:evenodd;clip-rule:evenodd;fill:#001E30;}
	.st1{fill-rule:evenodd;clip-rule:evenodd;fill:#FFCC3E;}
	.st2{fill:#FFF3D7;}
</style>
<rect x="-0.4" y="-0.5" class="st0" width="801.5" height="801.5"/>
<g>
	<path class="st1" d="M431.1,242.2h-3.5c-0.8-1.5-1.3-3.1-1.3-4.8c0-5.3,4.3-9.7,9.7-9.7s9.7,4.3,9.7,9.7c0,1.7-0.4,3.4-1.3,4.8
		h-3.5v44.5h16.7c3.2,0,5.8,2.6,5.8,5.8c0,3.8-3.1,6.9-6.9,6.9c-3.8,0-6.9-3.1-6.9-6.9h-6.7l-1,84.6l-11.8,0.3l-1-84.9h-6.7
		c0,3.8-3.1,6.9-6.9,6.9c-3.8,0-6.9-3.1-6.9-6.9l0,0c0-3.2,2.6-5.8,5.8-5.8h16.7V242.2z"/>
	<path class="st1" d="M334.8,377.4H308c14.4-36.6,50.1-62.5,91.8-62.5c41.7,0,77.4,25.9,91.8,62.5h-1.1
		c-13.6-29.3-43.4-49.7-77.8-49.7C378.2,327.7,348.4,348,334.8,377.4z M476.8,456.4l-3.7,11.4h-12l9.7,7.1l-3.7,11.4l9.7-7.1
		l9.7,7.1l-3.7-11.4l9.7-7.1h-12L476.8,456.4z M338.5,456.4c9.6,16.5,24.5,29.5,42.4,36.6l-10.1,5.2l4.9,10.8
		c-28.4-7.2-52-26.7-64.6-52.6H338.5z M447.7,479.6L444,491h-12l9.7,7.1l-3.7,11.4l9.7-7.1l9.7,7.1l-3.7-11.4l9.7-7.1h-12
		L447.7,479.6z M408.6,490.5l-3.7,11.4h-12l9.7,7.1l-3.7,11.4l9.7-7.1l9.7,7.1l-3.7-11.4l9.7-7.1h-12L408.6,490.5z"/>
	<path class="st2" d="M158.9,399.8h13.9v-8.1c0-0.4-0.1-0.8-0.4-1.1c-0.2-0.3-0.6-0.6-1-0.8c-0.4-0.2-0.9-0.4-1.4-0.5
		c-0.5-0.1-1-0.2-1.6-0.2v-1.3h16.8v1.3c-0.6,0-1.1,0.1-1.6,0.2c-0.5,0.1-1,0.3-1.4,0.5c-0.4,0.2-0.7,0.5-1,0.8
		c-0.2,0.3-0.4,0.7-0.4,1.2v30c0,1,0.4,1.8,1.2,2.2s1.8,0.7,3.2,0.8v1.3h-16.8v-1.3c1.2-0.1,2.2-0.3,3-0.7c0.8-0.4,1.2-1.1,1.2-2
		v-19.3l-13.9,0v19.1c0,1,0.4,1.8,1.2,2.2c0.8,0.4,1.8,0.7,3.2,0.8v1.3h-16.8v-1.3c1.2-0.1,2.2-0.3,3-0.7c0.8-0.4,1.2-1.1,1.2-2
		v-30.2c0-0.4-0.1-0.8-0.4-1.1c-0.2-0.3-0.6-0.6-1-0.8c-0.4-0.2-0.9-0.4-1.4-0.5c-0.5-0.1-1-0.2-1.6-0.2v-1.3h16.8v1.3
		c-0.6,0-1.1,0.1-1.6,0.2c-0.5,0.1-1,0.3-1.4,0.5c-0.4,0.2-0.7,0.5-1,0.8c-0.2,0.3-0.4,0.7-0.4,1.2V399.8z"/>
	<path class="st2" d="M202.9,392.4c-0.7,2.7-1.4,5.3-2.1,7.9c-0.7,2.6-1.4,5.3-2.1,8h8.3c-0.6-2.6-1.3-5.2-1.9-7.8
		c-0.6-2.6-1.3-5.2-2-7.9L202.9,392.4z M210,387.8c1.2,5.6,2.5,11.2,3.8,16.7c1.3,5.5,2.7,11.1,4.1,16.7c0.2,0.4,0.3,0.8,0.5,1.2
		c0.2,0.4,0.4,0.8,0.7,1.1c0.3,0.3,0.6,0.6,1,0.8c0.4,0.2,0.9,0.3,1.5,0.4v1.3h-14.4v-1.3c0.5,0,1-0.1,1.4-0.4
		c0.4-0.2,0.7-0.5,1-0.8c0.2-0.3,0.4-0.6,0.5-1c0.1-0.4,0-0.7,0-1c-0.4-1.8-0.8-3.6-1.2-5.3c-0.4-1.8-0.8-3.5-1.2-5.3h-9.6
		l-2.9,10.9c-0.3,0.7-0.1,1.4,0.5,1.9c0.6,0.6,1.5,0.9,2.6,0.9v1.3h-10.5v-1.3c1,0,1.8-0.3,2.5-0.8c0.6-0.5,1.2-1.3,1.8-2.4
		c1.3-5,2.6-9.9,3.9-14.8c1.3-4.9,2.6-9.8,3.9-14.8c0.3-0.7,0.1-1.4-0.5-1.9c-0.6-0.6-1.5-0.9-2.6-0.9v-1.2c2.2,0,4.4,0,6.7,0
		C205.5,387.8,207.8,387.8,210,387.8z"/>
	<path class="st2" d="M246.4,421.9c-0.4-0.6-0.8-1.4-1.1-2.4c-0.4-1-0.7-1.9-1.1-3c-0.4-1-0.8-2-1.3-3.1c-0.5-1-1-1.9-1.6-2.7
		c-0.6-0.8-1.3-1.4-2.1-1.9c-0.8-0.5-1.7-0.7-2.7-0.6v13.5c0,1,0.4,1.8,1.2,2.2c0.8,0.4,1.8,0.7,3.2,0.8v1.3H224v-1.3
		c1.2-0.1,2.2-0.3,3-0.7c0.8-0.4,1.2-1.1,1.2-2v-30.2c0-0.4-0.1-0.8-0.4-1.1c-0.2-0.3-0.6-0.6-1-0.8c-0.4-0.2-0.9-0.4-1.4-0.5
		c-0.5-0.1-1-0.2-1.6-0.2v-1.3h18.3c2.8,0,5.2,0.4,7.1,1.1c1.9,0.7,3.5,1.6,4.6,2.7c1.1,1.1,1.9,2.4,2.3,3.8
		c0.4,1.4,0.5,2.8,0.2,4.2c-0.3,1.4-0.9,2.7-1.8,3.9c-0.9,1.2-2.1,2.2-3.6,3c-0.6,0.3-1.2,0.6-1.9,0.8c-0.7,0.2-1.4,0.4-2.1,0.5
		c0.9,0.5,1.7,1.3,2.3,2.3c0.7,1,1.3,2.1,1.8,3.3c0.6,1.2,1.1,2.4,1.6,3.7c0.5,1.3,1.1,2.4,1.7,3.4c0.6,1,1.3,1.9,2.1,2.6
		c0.8,0.7,1.7,1,2.7,1.1l0.2,1.1c-1.5,0.7-2.9,1.1-4.2,1.2c-1.3,0.1-2.6,0-3.7-0.3c-1.1-0.3-2.1-0.8-3-1.6S247,423,246.4,421.9z
		 M236.4,392v14.5c0.6,0,1.2,0,1.7,0h1.4c1.9,0,3.5-0.4,4.8-1.1c1.3-0.7,2.4-1.6,3.1-2.7c0.8-1.1,1.3-2.3,1.5-3.6s0.1-2.6-0.2-3.8
		c-0.4-1.2-1-2.3-2-3.3c-1-1-2.2-1.7-3.7-2.1c-0.8-0.2-1.6-0.3-2.4-0.3c-0.8,0-1.5,0.1-2.1,0.3c-0.6,0.2-1.1,0.5-1.5,0.9
		C236.6,391.1,236.4,391.5,236.4,392z"/>
	<path class="st2" d="M274.8,408.3v13.5c0,1,0.4,1.7,1.2,2.1c0.8,0.4,1.8,0.7,3.2,0.8v1.3h-16.8v-1.3c1.2-0.1,2.2-0.3,3-0.7
		c0.8-0.4,1.2-1.1,1.2-2.1v-30.2c0-0.4-0.1-0.8-0.4-1.1c-0.2-0.3-0.6-0.6-1-0.8c-0.4-0.2-0.9-0.4-1.4-0.5c-0.5-0.1-1-0.2-1.6-0.2
		v-1.3l18.3,0c2.8,0,5.2,0.4,7.1,1.1c1.9,0.7,3.5,1.6,4.6,2.7c1.1,1.1,1.9,2.4,2.3,3.8c0.4,1.4,0.5,2.8,0.2,4.2
		c-0.3,1.4-0.9,2.7-1.8,3.9c-0.9,1.2-2.1,2.2-3.6,3c-1,0.5-2,0.9-3.3,1.2c-1.2,0.3-2.5,0.5-3.8,0.6c-1.3,0.1-2.6,0.2-3.9,0.2
		C277.2,408.4,275.9,408.4,274.8,408.3z M274.8,392v14.4h3.1c1.9,0,3.5-0.4,4.8-1.1c1.3-0.7,2.4-1.6,3.1-2.7
		c0.8-1.1,1.3-2.3,1.5-3.6c0.2-1.3,0.1-2.6-0.2-3.8s-1-2.3-2-3.3c-1-1-2.2-1.7-3.7-2.1c-0.8-0.2-1.6-0.3-2.4-0.3
		c-0.8,0-1.5,0.1-2.1,0.3c-0.6,0.2-1.1,0.5-1.5,0.9C275,391.1,274.8,391.5,274.8,392z"/>
	<path class="st2" d="M323.4,387.8l2,11.3h-1.9c-0.6-1.7-1.4-3.2-2.4-4.5c-1-1.3-2.1-2.3-3.3-3c-1.2-0.8-2.3-1.3-3.5-1.6
		c-1.2-0.3-2.3-0.4-3.2-0.2s-1.8,0.6-2.4,1.2c-0.6,0.6-0.9,1.5-0.9,2.5v10.7c2-0.1,3.6-0.5,4.8-1.2c1.2-0.7,1.9-1.7,1.9-3h1.8v11
		h-1.8c0-1.3-0.6-2.3-1.9-3c-1.2-0.7-2.9-1.1-4.8-1.2v13.6c0,1.1,0.3,1.9,0.9,2.5c0.6,0.6,1.4,1,2.4,1.2c1,0.2,2,0.1,3.2-0.2
		c1.2-0.3,2.4-0.8,3.5-1.6c1.2-0.8,2.2-1.8,3.3-3c1-1.3,1.8-2.8,2.4-4.5h1.9l-2,11.3h-28v-1.3c1.2-0.1,2.2-0.3,3-0.7
		c0.8-0.4,1.2-1.1,1.2-2v-30.2c0-0.4-0.1-0.8-0.4-1.1c-0.2-0.3-0.6-0.6-1-0.8c-0.4-0.2-0.9-0.4-1.4-0.5c-0.5-0.1-1-0.2-1.6-0.2v-1.3
		c4.7,0,9.4,0,14,0H323.4z"/>
	<path class="st2" d="M349.8,421.9c-0.4-0.6-0.8-1.4-1.1-2.4c-0.4-1-0.7-1.9-1.1-3c-0.4-1-0.8-2-1.3-3.1c-0.5-1-1-1.9-1.6-2.7
		c-0.6-0.8-1.3-1.4-2.1-1.9c-0.8-0.5-1.7-0.7-2.7-0.6v13.5c0,1,0.4,1.8,1.2,2.2c0.8,0.4,1.8,0.7,3.2,0.8v1.3h-16.8v-1.3
		c1.2-0.1,2.2-0.3,3-0.7c0.8-0.4,1.2-1.1,1.2-2v-30.2c0-0.4-0.1-0.8-0.4-1.1c-0.2-0.3-0.6-0.6-1-0.8c-0.4-0.2-0.9-0.4-1.4-0.5
		c-0.5-0.1-1-0.2-1.6-0.2v-1.3h18.3c2.8,0,5.2,0.4,7.1,1.1c1.9,0.7,3.5,1.6,4.6,2.7c1.1,1.1,1.9,2.4,2.3,3.8
		c0.4,1.4,0.5,2.8,0.2,4.2c-0.3,1.4-0.9,2.7-1.8,3.9c-0.9,1.2-2.1,2.2-3.6,3c-0.6,0.3-1.2,0.6-1.9,0.8c-0.7,0.2-1.4,0.4-2.1,0.5
		c0.9,0.5,1.7,1.3,2.3,2.3c0.6,1,1.3,2.1,1.8,3.3c0.6,1.2,1.1,2.4,1.6,3.7c0.5,1.3,1.1,2.4,1.7,3.4c0.6,1,1.3,1.9,2.1,2.6
		c0.8,0.7,1.7,1,2.7,1.1l0.2,1.1c-1.5,0.7-2.9,1.1-4.2,1.2c-1.3,0.1-2.6,0-3.7-0.3c-1.1-0.3-2.1-0.8-3-1.6S350.4,423,349.8,421.9z
		 M339.8,392v14.5c0.6,0,1.2,0,1.7,0h1.4c1.9,0,3.5-0.4,4.8-1.1c1.3-0.7,2.4-1.6,3.1-2.7c0.8-1.1,1.3-2.3,1.5-3.6
		c0.2-1.3,0.1-2.6-0.2-3.8c-0.4-1.2-1-2.3-2-3.3c-1-1-2.2-1.7-3.7-2.1c-0.8-0.2-1.6-0.3-2.4-0.3c-0.8,0-1.5,0.1-2.1,0.3
		c-0.6,0.2-1.1,0.5-1.5,0.9C340,391.1,339.8,391.5,339.8,392z"/>
	<path class="st2" d="M395.8,392.4c-0.7,2.7-1.4,5.3-2.1,7.9c-0.7,2.6-1.4,5.3-2.1,8h8.3c-0.6-2.6-1.3-5.2-1.9-7.8s-1.3-5.2-2-7.9
		L395.8,392.4z M403,387.8c1.2,5.6,2.5,11.2,3.8,16.7c1.3,5.5,2.7,11.1,4.1,16.7c0.2,0.4,0.3,0.8,0.5,1.2c0.2,0.4,0.4,0.8,0.7,1.1
		c0.3,0.3,0.6,0.6,1,0.8c0.4,0.2,0.9,0.3,1.5,0.4v1.3h-14.4v-1.3c0.5,0,1-0.1,1.4-0.4c0.4-0.2,0.7-0.5,1-0.8c0.2-0.3,0.4-0.6,0.5-1
		c0.1-0.4,0-0.7,0-1c-0.4-1.8-0.8-3.6-1.2-5.3c-0.4-1.8-0.8-3.5-1.2-5.3h-9.6l-2.9,10.9c-0.3,0.7-0.1,1.4,0.5,1.9
		c0.6,0.6,1.5,0.9,2.6,0.9v1.3h-10.5v-1.3c1,0,1.8-0.3,2.5-0.8c0.6-0.5,1.2-1.3,1.8-2.4c1.3-5,2.6-9.9,3.9-14.8
		c1.3-4.9,2.6-9.8,3.9-14.8c0.3-0.7,0.1-1.4-0.5-1.9c-0.6-0.6-1.5-0.9-2.6-0.9v-1.2c2.2,0,4.4,0,6.7,0
		C398.5,387.8,400.7,387.8,403,387.8z"/>
	<path class="st2" d="M420.6,413.3c1,0,1.9,0.3,2.6,0.8c0.7,0.5,1.1,1.2,1.1,2c0,0.8-0.4,1.5-1.1,2c-0.7,0.6-1.6,0.8-2.6,0.8
		c-1,0-1.9-0.3-2.6-0.8c-0.7-0.6-1.1-1.2-1.1-2c0-0.8,0.4-1.5,1.1-2C418.7,413.6,419.6,413.3,420.6,413.3z"/>
	<path class="st2" d="M461,423.7c1-0.3,1.9-0.9,2.6-1.7c0.7-0.8,1.3-1.7,1.8-2.7c0.4-1,0.7-2.1,0.9-3.3c0.1-1.2,0.1-2.4,0-3.5
		c-0.1-1.2-0.4-2.3-0.8-3.4c-0.4-1.1-1-2.1-1.7-3c-0.6-0.8-1.3-1.3-1.9-1.7c-0.7-0.3-1.4-0.6-2.1-0.7c-0.8-0.1-1.6-0.2-2.5-0.2
		c-0.9,0-1.8,0-2.9,0v17.7c0,0.6,0.2,1.2,0.6,1.6c0.4,0.4,1,0.7,1.6,0.9c0.7,0.2,1.4,0.3,2.1,0.3C459.5,424.1,460.3,424,461,423.7z
		 M466.7,402c1.4,0.3,2.6,0.9,3.6,1.7c1,0.9,1.9,1.9,2.6,3.1c0.7,1.2,1.2,2.5,1.5,3.9c0.3,1.4,0.4,2.8,0.2,4.2
		c-0.1,1.4-0.5,2.8-1.1,4.1c-0.6,1.3-1.5,2.5-2.5,3.5c-1.1,1-2.4,1.9-4,2.5c-1.6,0.6-3.5,0.9-5.6,0.9h-19.3v-1.3
		c1.2-0.1,2.2-0.3,3-0.7c0.8-0.4,1.2-1.1,1.2-2v-30.2c0-0.4-0.1-0.8-0.4-1.1c-0.2-0.3-0.6-0.6-1-0.8c-0.4-0.2-0.9-0.4-1.4-0.5
		c-0.5-0.1-1-0.2-1.6-0.2v-1.3l17.5,0c1.5,0,2.9,0,4.1,0.1c1.2,0.1,2.3,0.3,3.3,0.6c1.4,0.4,2.5,1,3.4,1.7c0.9,0.7,1.5,1.6,1.9,2.5
		c0.4,0.9,0.5,1.8,0.5,2.8c-0.1,1-0.4,1.9-0.8,2.7c-0.5,0.9-1.1,1.6-2,2.3C468.9,401.2,467.9,401.7,466.7,402z M454.4,392.1v9.5
		c0.6,0,1.3,0,1.9,0c0.6,0,1.2,0,1.8-0.1c0.6,0,1.1-0.1,1.7-0.3c0.6-0.1,1.1-0.3,1.7-0.6c1-0.5,1.7-1.1,2.3-1.8
		c0.6-0.7,1-1.5,1.2-2.3c0.2-0.8,0.2-1.6,0.1-2.4c-0.1-0.8-0.4-1.5-0.9-2.2c-0.5-0.7-1.1-1.2-1.9-1.6c-0.8-0.4-1.8-0.6-2.8-0.7
		c-0.7,0-1.3,0-1.9,0.1c-0.6,0.1-1.1,0.3-1.6,0.5c-0.5,0.2-0.8,0.5-1.1,0.8C454.5,391.3,454.4,391.7,454.4,392.1z"/>
	<path class="st2" d="M497.5,421.9c-0.4-0.6-0.8-1.4-1.1-2.4c-0.4-1-0.7-1.9-1.1-3c-0.4-1-0.8-2-1.3-3.1c-0.5-1-1-1.9-1.6-2.7
		c-0.6-0.8-1.3-1.4-2.1-1.9c-0.8-0.5-1.7-0.7-2.7-0.6v13.5c0,1,0.4,1.8,1.2,2.2c0.8,0.4,1.8,0.7,3.2,0.8v1.3h-16.8v-1.3
		c1.2-0.1,2.2-0.3,3-0.7c0.8-0.4,1.2-1.1,1.2-2v-30.2c0-0.4-0.1-0.8-0.4-1.1c-0.2-0.3-0.6-0.6-1-0.8c-0.4-0.2-0.9-0.4-1.4-0.5
		c-0.5-0.1-1-0.2-1.6-0.2v-1.3h18.3c2.8,0,5.2,0.4,7.1,1.1c1.9,0.7,3.5,1.6,4.6,2.7c1.1,1.1,1.9,2.4,2.3,3.8
		c0.4,1.4,0.5,2.8,0.2,4.2c-0.3,1.4-0.9,2.7-1.8,3.9c-0.9,1.2-2.1,2.2-3.6,3c-0.6,0.3-1.2,0.6-1.9,0.8c-0.7,0.2-1.4,0.4-2.1,0.5
		c0.9,0.5,1.7,1.3,2.3,2.3c0.7,1,1.3,2.1,1.8,3.3c0.6,1.2,1.1,2.4,1.6,3.7c0.5,1.3,1.1,2.4,1.7,3.4c0.6,1,1.3,1.9,2.1,2.6
		c0.8,0.7,1.7,1,2.7,1.1l0.2,1.1c-1.5,0.7-2.9,1.1-4.2,1.2c-1.3,0.1-2.6,0-3.7-0.3c-1.1-0.3-2.1-0.8-3-1.6
		C498.9,423.8,498.1,423,497.5,421.9z M487.6,392v14.5c0.6,0,1.2,0,1.7,0h1.4c1.9,0,3.5-0.4,4.8-1.1c1.3-0.7,2.4-1.6,3.1-2.7
		c0.8-1.1,1.3-2.3,1.5-3.6c0.2-1.3,0.1-2.6-0.2-3.8c-0.4-1.2-1-2.3-2-3.3s-2.2-1.7-3.7-2.1c-0.8-0.2-1.6-0.3-2.4-0.3
		c-0.8,0-1.5,0.1-2.1,0.3c-0.6,0.2-1.1,0.5-1.5,0.9C487.7,391.1,487.6,391.5,487.6,392z"/>
	<path class="st2" d="M528.9,424.8c1.4,0.1,2.7-0.2,3.8-1.1c1.1-0.9,2-2.1,2.8-3.7c0.7-1.6,1.3-3.4,1.7-5.5c0.4-2.1,0.6-4.2,0.7-6.4
		s-0.1-4.4-0.4-6.5c-0.3-2.1-0.8-4-1.5-5.7c-0.7-1.7-1.5-3.1-2.5-4.2c-1-1.1-2.2-1.7-3.6-1.8c-1.4-0.1-2.6,0.3-3.7,1.2
		c-1.1,0.9-2,2.2-2.7,3.7c-0.7,1.6-1.3,3.4-1.7,5.4c-0.4,2-0.6,4.2-0.7,6.3c0,2.2,0.1,4.3,0.4,6.4c0.3,2.1,0.8,4,1.4,5.7
		c0.7,1.7,1.5,3.1,2.5,4.2C526.4,424,527.6,424.6,528.9,424.8z M529.1,427.2c-2.3,0-4.5-0.5-6.3-1.2c-1.9-0.8-3.5-1.8-4.9-3.1
		c-1.4-1.3-2.6-2.8-3.5-4.5c-0.9-1.7-1.6-3.5-2.1-5.4c-0.5-1.9-0.7-3.8-0.6-5.9c0-2,0.3-4,0.8-5.8c0.5-1.9,1.2-3.7,2.2-5.3
		c1-1.7,2.1-3.1,3.6-4.4c1.4-1.2,3.1-2.2,5-3c1.9-0.7,4-1.1,6.4-1.1c3,0,5.6,0.6,7.8,1.8c2.2,1.2,4,2.7,5.5,4.6
		c1.5,1.9,2.6,4,3.3,6.4c0.7,2.4,1.1,4.9,1,7.3c0,2.5-0.4,4.9-1.2,7.3c-0.8,2.4-1.9,4.5-3.4,6.3c-1.5,1.8-3.4,3.3-5.6,4.4
		C534.7,426.7,532.1,427.2,529.1,427.2z"/>
	<path class="st2" d="M569.8,424.8c1.4,0.1,2.7-0.2,3.8-1.1c1.1-0.9,2-2.1,2.8-3.7c0.7-1.6,1.3-3.4,1.7-5.5c0.4-2.1,0.6-4.2,0.7-6.4
		s-0.1-4.4-0.4-6.5c-0.3-2.1-0.8-4-1.5-5.7c-0.7-1.7-1.5-3.1-2.5-4.2c-1-1.1-2.2-1.7-3.6-1.8c-1.4-0.1-2.6,0.3-3.7,1.2
		c-1.1,0.9-2,2.2-2.7,3.7c-0.7,1.6-1.3,3.4-1.7,5.4c-0.4,2-0.6,4.2-0.7,6.3c0,2.2,0.1,4.3,0.4,6.4c0.3,2.1,0.8,4,1.5,5.7
		s1.5,3.1,2.5,4.2C567.2,424,568.4,424.6,569.8,424.8z M570,427.2c-2.3,0-4.5-0.5-6.3-1.2c-1.9-0.8-3.5-1.8-4.9-3.1
		c-1.4-1.3-2.6-2.8-3.5-4.5c-0.9-1.7-1.6-3.5-2.1-5.4c-0.5-1.9-0.7-3.8-0.6-5.9c0-2,0.3-4,0.8-5.8s1.2-3.7,2.2-5.3
		c1-1.7,2.1-3.1,3.6-4.4c1.4-1.2,3.1-2.2,5-3c1.9-0.7,4-1.1,6.4-1.1c3,0,5.6,0.6,7.8,1.8c2.2,1.2,4,2.7,5.5,4.6
		c1.5,1.9,2.6,4,3.3,6.4c0.7,2.4,1.1,4.9,1,7.3c0,2.5-0.4,4.9-1.2,7.3c-0.8,2.4-1.9,4.5-3.4,6.3c-1.5,1.8-3.4,3.3-5.6,4.4
		C575.6,426.7,572.9,427.2,570,427.2z"/>
	<path class="st2" d="M606.8,387.8v1.3c-0.6,0-1.1,0.1-1.6,0.2c-0.5,0.1-1,0.3-1.4,0.5c-0.4,0.2-0.7,0.5-1,0.8
		c-0.2,0.3-0.4,0.7-0.4,1.2v11.3l9.2-11.3c0.4-0.5,0.6-0.9,0.6-1.2c0-0.3,0-0.6-0.2-0.8c-0.2-0.2-0.5-0.4-1-0.5
		c-0.4-0.1-1-0.2-1.5-0.3v-1.3h12.1v1.3c-1.4,0.1-2.7,0.4-3.8,0.8c-1.1,0.4-2.1,1.1-2.9,2.2l-6.6,8.1l12.5,21.6
		c0.3,0.6,0.8,1.1,1.2,1.4s0.9,0.6,1.4,0.8c0.5,0.2,1,0.3,1.6,0.4c0.6,0.1,1.1,0.2,1.6,0.2v1.3h-17.4v-1.3c0.6-0.1,1.1-0.1,1.5-0.3
		c0.5-0.1,0.8-0.3,1.1-0.5c0.3-0.2,0.4-0.5,0.4-0.8c0-0.3-0.1-0.7-0.4-1.2l-8.7-15.5l-0.9,1v14.3c0,1,0.4,1.8,1.2,2.2
		c0.8,0.4,1.8,0.7,3.2,0.8v1.3H590v-1.3c1.2-0.1,2.2-0.3,3-0.7c0.8-0.4,1.2-1.1,1.2-2v-30.2c0-0.4-0.1-0.8-0.4-1.1
		c-0.2-0.3-0.6-0.6-1-0.8c-0.4-0.2-0.9-0.4-1.4-0.5c-0.5-0.1-1-0.2-1.6-0.2v-1.3H606.8z"/>
	<path class="st2" d="M630.2,420c0.4,0.9,1.1,1.7,2,2.3c0.9,0.6,1.9,1.1,3,1.4c1.1,0.3,2.3,0.5,3.4,0.5c1.2,0,2.3-0.2,3.3-0.6
		c1-0.4,1.8-1,2.5-1.7c0.7-0.8,1-1.8,1.1-3c0.1-1.2-0.3-2.3-1-3.2c-0.7-0.9-1.6-1.8-2.8-2.6c-1.2-0.8-2.4-1.6-3.9-2.3
		c-1.4-0.8-2.8-1.5-4.2-2.4c-1.4-0.8-2.6-1.7-3.7-2.8c-1.1-1-2-2.2-2.5-3.5c-0.7-1.8-1-3.4-0.7-5c0.3-1.6,0.9-3,1.9-4.3
		c1-1.3,2.2-2.4,3.8-3.3c1.5-0.9,3.2-1.5,4.9-1.8c1.8-0.3,3.6-0.3,5.4,0c1.9,0.3,3.6,1,5.2,2.1c1,0.5,1.9,0.6,2.5,0.2
		c0.7-0.4,1.1-0.9,1.4-1.7h2l-4.4,11.1h-2.1c0.1-0.2,0.2-0.5,0.3-0.9c0.1-0.4,0.2-0.9,0.3-1.4c0.1-0.5,0.1-1.1,0.1-1.7
		c0-0.6-0.1-1.2-0.2-1.7c-0.2-0.8-0.7-1.5-1.4-2.1c-0.7-0.6-1.6-1.1-2.5-1.4c-1-0.3-2-0.5-3-0.6c-1.1,0-2.1,0.1-3,0.5
		c-0.9,0.4-1.7,1-2.4,1.7c-0.7,0.8-1,1.8-1.2,3.1c-0.1,1.1,0.1,2.1,0.6,3c0.5,0.9,1.2,1.6,2.1,2.4c0.9,0.7,2,1.4,3.2,2
		c1.2,0.6,2.5,1.3,3.7,2c1.3,0.7,2.5,1.4,3.7,2.1c1.2,0.7,2.3,1.6,3.2,2.5c0.9,0.9,1.7,1.9,2.2,3.1c0.5,1.1,0.8,2.5,0.7,3.9
		c-0.1,1.9-0.7,3.6-1.8,5.1c-1.1,1.4-2.5,2.6-4.1,3.5c-1.6,0.9-3.5,1.5-5.5,1.9c-2,0.3-4,0.4-5.9,0.2c-1.9-0.2-3.7-0.8-5.3-1.6
		c-1.6-0.8-2.9-2-3.8-3.4c-0.4-0.7-0.7-1.5-0.9-2.4c-0.1-0.9-0.1-1.8,0.2-2.5c0.2-0.6,0.6-1.1,1-1.5c0.5-0.4,1-0.6,1.5-0.7
		c0.6-0.1,1.1-0.2,1.7-0.1c0.6,0.1,1.1,0.2,1.6,0.5c0.5,0.2,0.9,0.6,1.2,1c0.3,0.4,0.5,0.9,0.5,1.4c0,0.4-0.1,0.8-0.4,1.2
		c-0.2,0.4-0.6,0.7-1,1s-0.8,0.5-1.4,0.7C631.3,420,630.8,420,630.2,420z"/>
	<path class="st2" d="M149.1,444.1c0,0.4,0.1,0.8,0.2,1.1c0.2,0.3,0.4,0.6,0.6,0.8c0.3,0.2,0.6,0.4,1,0.5c0.4,0.1,0.8,0.2,1.2,0.2
		c0.5,0,0.9-0.1,1.3-0.2c0.4-0.1,0.7-0.3,1-0.5c0.3-0.2,0.5-0.5,0.6-0.8c0.1-0.3,0.2-0.7,0.2-1.1v-5.9c0-0.1,0-0.2,0.1-0.2
		c0.1-0.1,0.2-0.1,0.3-0.1h1.6c0.1,0,0.2,0,0.3,0.1c0.1,0.1,0.1,0.1,0.1,0.2v5.9c0,0.7-0.1,1.4-0.4,1.9c-0.3,0.5-0.7,1-1.2,1.3
		c-0.5,0.4-1.1,0.6-1.8,0.8s-1.4,0.3-2.1,0.3c-0.8,0-1.5-0.1-2.1-0.3c-0.7-0.2-1.3-0.5-1.8-0.8c-0.5-0.4-0.9-0.8-1.2-1.3
		c-0.3-0.5-0.4-1.1-0.4-1.8v-5.9c0-0.1,0-0.1,0.1-0.2c0.1-0.1,0.2-0.1,0.3-0.1h1.7c0.1,0,0.2,0,0.3,0.1c0.1,0.1,0.1,0.1,0.1,0.2
		V444.1z"/>
	<path class="st2" d="M168.6,445.4c0.2,0.2,0.4,0.3,0.6,0.5c0.2,0.2,0.4,0.3,0.7,0.4s0.5,0.2,0.8,0.3c0.3,0.1,0.6,0.1,0.9,0.1
		c0.7,0,1.3-0.1,1.6-0.4c0.4-0.2,0.5-0.6,0.5-1c0-0.2-0.1-0.4-0.2-0.6s-0.3-0.3-0.5-0.4c-0.2-0.1-0.4-0.2-0.7-0.3
		c-0.3-0.1-0.5-0.2-0.8-0.3c-0.7-0.2-1.3-0.4-1.8-0.6c-0.5-0.2-0.9-0.5-1.3-0.7c-0.3-0.3-0.6-0.5-0.8-0.9c-0.2-0.3-0.3-0.7-0.3-1.1
		c0-0.4,0.1-0.8,0.3-1.1c0.2-0.3,0.5-0.6,0.8-0.9c0.4-0.2,0.8-0.4,1.3-0.6c0.5-0.1,1-0.2,1.6-0.2c0.2,0,0.5,0,0.7,0
		c0.2,0,0.5,0.1,0.7,0.1c0.2,0.1,0.5,0.1,0.7,0.2c0.2,0.1,0.4,0.2,0.6,0.3c0.1,0.1,0.3,0.1,0.4,0.2c0.1,0.1,0.3,0.2,0.4,0.3
		c0.1,0.1,0.2,0.2,0.3,0.3c0.1,0.1,0.1,0.2,0.1,0.2c0,0.1,0,0.1,0,0.1c0,0-0.1,0.1-0.1,0.1l-0.8,0.7c-0.1,0.1-0.2,0.1-0.2,0.1
		c-0.1,0-0.1,0-0.2,0s-0.1-0.1-0.2-0.1l0,0c-0.1-0.1-0.3-0.2-0.4-0.3c-0.2-0.1-0.3-0.2-0.5-0.3c-0.2-0.1-0.4-0.1-0.6-0.2
		c-0.2,0-0.4-0.1-0.6-0.1c-0.2,0-0.5,0-0.7,0.1c-0.2,0-0.4,0.1-0.5,0.2c-0.1,0.1-0.3,0.2-0.3,0.3c-0.1,0.1-0.1,0.3-0.1,0.5
		c0,0.2,0,0.3,0.1,0.5s0.2,0.2,0.4,0.4c0.2,0.1,0.4,0.2,0.7,0.3c0.3,0.1,0.6,0.2,0.9,0.3l0.8,0.3c0.5,0.2,1,0.4,1.4,0.5
		c0.4,0.2,0.8,0.4,1.1,0.7c0.3,0.2,0.5,0.5,0.7,0.8c0.2,0.3,0.3,0.7,0.3,1.1c0,0.5-0.1,0.9-0.3,1.3c-0.2,0.4-0.5,0.7-1,1
		c-0.4,0.3-0.9,0.5-1.5,0.6c-0.6,0.1-1.2,0.2-1.9,0.2c-1,0-1.8-0.2-2.6-0.5c-0.8-0.3-1.4-0.8-2-1.4c0,0,0,0,0,0c0,0,0,0,0,0
		c0-0.1-0.1-0.1-0.1-0.1c0,0,0-0.1,0-0.1c0-0.1,0.1-0.2,0.2-0.3l1.1-0.7c0.1,0,0.2-0.1,0.3-0.1C168.4,445.3,168.5,445.3,168.6,445.4
		z"/>
	<path class="st2" d="M190.5,440.9c0,0.1-0.1,0.2-0.1,0.3c0,0.1-0.1,0.2-0.1,0.3l-2,3.9h4.4l-2-3.9c0-0.1-0.1-0.2-0.1-0.3
		C190.6,441.1,190.5,441,190.5,440.9z M190.1,437.6c0,0,0.1-0.1,0.1-0.1c0.1,0,0.1-0.1,0.2-0.1c0.1,0,0.2,0,0.2,0.1
		c0.1,0,0.1,0.1,0.1,0.1c0,0.1,0.1,0.1,0.1,0.1c0,0,0,0.1,0.1,0.1l0.2,0.3c0.9,1.6,1.8,3.3,2.7,4.9c0.9,1.6,1.8,3.3,2.7,4.9
		c0,0,0,0,0,0.1c0,0,0,0.1,0,0.1c0,0.1-0.1,0.2-0.4,0.2h-1.8c-0.2,0-0.4-0.1-0.5-0.3l-0.5-1h-5.9l-0.5,1c-0.1,0.2-0.3,0.3-0.5,0.3
		h-1.8c-0.1,0-0.2,0-0.3-0.1c-0.1,0-0.1-0.1-0.1-0.2c0,0,0-0.1,0-0.1c0,0,0-0.1,0-0.1c0.9-1.6,1.8-3.3,2.7-4.9
		c0.9-1.6,1.8-3.2,2.7-4.9c0-0.1,0.1-0.2,0.2-0.3C190,437.8,190.1,437.7,190.1,437.6z"/>
	<path class="st2" d="M217.5,438.2c0-0.1,0-0.2,0.1-0.2c0.1-0.1,0.2-0.1,0.3-0.1h9.1c0.1,0,0.2,0,0.3,0.1c0.1,0.1,0.1,0.1,0.1,0.2
		v1.1c0,0.1,0,0.2-0.1,0.2c-0.1,0.1-0.2,0.1-0.3,0.1h-3.3v8.3c0,0.1,0,0.2-0.1,0.2c-0.1,0.1-0.2,0.1-0.3,0.1h-1.6
		c-0.1,0-0.2,0-0.3-0.1c-0.1-0.1-0.1-0.1-0.1-0.2v-8.3h-3.4c-0.1,0-0.2,0-0.3-0.1c-0.1-0.1-0.1-0.1-0.1-0.3V438.2z"/>
	<path class="st2" d="M237.4,443.1c0,0.5,0.1,0.9,0.3,1.4c0.2,0.4,0.5,0.8,0.9,1.1c0.4,0.3,0.9,0.6,1.4,0.7c0.5,0.2,1.1,0.3,1.7,0.3
		c0.6,0,1.2-0.1,1.7-0.3c0.5-0.2,1-0.4,1.4-0.7c0.4-0.3,0.7-0.7,0.9-1.1c0.2-0.4,0.3-0.9,0.3-1.4c0-0.5-0.1-0.9-0.3-1.4
		c-0.2-0.4-0.5-0.8-0.9-1.1c-0.4-0.3-0.9-0.6-1.4-0.7c-0.5-0.2-1.1-0.3-1.7-0.3c-0.6,0-1.2,0.1-1.7,0.3c-0.5,0.2-1,0.4-1.4,0.7
		c-0.4,0.3-0.7,0.7-0.9,1.1C237.5,442.1,237.4,442.6,237.4,443.1z M234.9,443.1c0-0.5,0.1-1,0.2-1.4c0.2-0.5,0.4-0.9,0.7-1.3
		c0.3-0.4,0.7-0.8,1.1-1.1c0.4-0.3,0.9-0.6,1.4-0.8c0.5-0.2,1-0.4,1.6-0.5c0.6-0.1,1.2-0.2,1.8-0.2c0.6,0,1.2,0.1,1.8,0.2
		c0.6,0.1,1.1,0.3,1.6,0.5c0.5,0.2,1,0.5,1.4,0.8c0.4,0.3,0.8,0.7,1.1,1.1c0.3,0.4,0.5,0.8,0.7,1.3c0.2,0.5,0.2,0.9,0.2,1.4
		c0,0.5-0.1,1-0.2,1.4c-0.2,0.5-0.4,0.9-0.7,1.3c-0.3,0.4-0.7,0.8-1.1,1.1c-0.4,0.3-0.9,0.6-1.4,0.8c-0.5,0.2-1,0.4-1.6,0.5
		c-0.6,0.1-1.2,0.2-1.8,0.2c-0.6,0-1.2-0.1-1.8-0.2c-0.6-0.1-1.1-0.3-1.6-0.5c-0.5-0.2-1-0.5-1.4-0.8c-0.4-0.3-0.8-0.7-1.1-1.1
		c-0.3-0.4-0.5-0.8-0.7-1.3C235,444,234.9,443.6,234.9,443.1z"/>
	<path class="st2" d="M260.6,439.7v6.8h0.9c0.5,0,1,0,1.4,0c0.6,0,1.2-0.1,1.7-0.3c0.5-0.2,1-0.4,1.3-0.7c0.4-0.3,0.7-0.7,0.9-1.1
		c0.2-0.4,0.3-0.8,0.3-1.3c0-0.5-0.1-0.9-0.4-1.4s-0.6-0.8-1-1.1c-0.4-0.3-0.9-0.5-1.4-0.7c-0.5-0.2-1.1-0.2-1.7-0.2H260.6z
		 M269.5,443.1c0,0.5-0.1,0.9-0.2,1.4c-0.2,0.4-0.4,0.9-0.7,1.2c-0.3,0.4-0.6,0.7-1,1c-0.4,0.3-0.9,0.6-1.4,0.8s-1,0.4-1.6,0.5
		c-0.6,0.1-1.2,0.2-1.8,0.2h-4.3c-0.1,0-0.2,0-0.3-0.1c-0.1,0-0.1-0.1-0.1-0.2v-9.7c0-0.1,0-0.2,0.1-0.2c0.1-0.1,0.2-0.1,0.3-0.1
		h4.3c0.6,0,1.2,0.1,1.8,0.2c0.6,0.1,1.1,0.3,1.6,0.5c0.5,0.2,1,0.5,1.4,0.8c0.4,0.3,0.8,0.7,1,1c0.3,0.4,0.5,0.8,0.7,1.2
		C269.5,442.1,269.5,442.6,269.5,443.1z"/>
	<path class="st2" d="M283.2,440.9c0,0.1-0.1,0.2-0.1,0.3c0,0.1-0.1,0.2-0.1,0.3l-2,3.9h4.4l-2-3.9c0-0.1-0.1-0.2-0.1-0.3
		C283.3,441.1,283.2,441,283.2,440.9z M282.8,437.6c0,0,0.1-0.1,0.1-0.1c0.1,0,0.1-0.1,0.2-0.1c0.1,0,0.2,0,0.2,0.1
		c0.1,0,0.1,0.1,0.1,0.1c0,0.1,0.1,0.1,0.1,0.1c0,0,0,0.1,0.1,0.1l0.2,0.3c0.9,1.6,1.8,3.3,2.7,4.9c0.9,1.6,1.8,3.3,2.7,4.9
		c0,0,0,0,0,0.1c0,0,0,0.1,0,0.1c0,0.1-0.1,0.2-0.4,0.2h-1.8c-0.2,0-0.4-0.1-0.5-0.3l-0.5-1h-5.9l-0.5,1c-0.1,0.2-0.3,0.3-0.5,0.3
		h-1.8c-0.1,0-0.2,0-0.3-0.1c-0.1,0-0.1-0.1-0.1-0.2c0,0,0-0.1,0-0.1c0,0,0-0.1,0-0.1c0.9-1.6,1.8-3.3,2.7-4.9
		c0.9-1.6,1.8-3.2,2.7-4.9c0-0.1,0.1-0.2,0.2-0.3C282.7,437.8,282.7,437.7,282.8,437.6z"/>
	<path class="st2" d="M298.8,438.1c0.5,0.7,0.9,1.4,1.4,2.2c0.5,0.7,0.9,1.4,1.4,2.2l2.8-4.4c0.1-0.1,0.1-0.2,0.2-0.2
		c0,0,0.1,0,0.2,0h2.3c0.1,0,0.2,0,0.2,0.1c0,0,0,0.1-0.1,0.2c-0.7,1-1.4,2-2.1,3c-0.7,1-1.4,2-2.1,3v3.7c0,0.2-0.1,0.3-0.4,0.3
		h-1.7c-0.3,0-0.4-0.1-0.4-0.3v-3.7l-4.3-6c0,0-0.1-0.1-0.1-0.1c0,0,0-0.1,0-0.1c0-0.1,0.1-0.1,0.2-0.1h2.2c0.1,0,0.1,0,0.1,0
		c0,0,0.1,0,0.1,0c0,0,0.1,0,0.1,0.1C298.7,438,298.7,438.1,298.8,438.1z"/>
	<path class="st2" d="M335.9,440.6c0-0.2-0.1-0.4-0.2-0.5c-0.1-0.1-0.3-0.3-0.4-0.4c-0.2-0.1-0.4-0.2-0.7-0.2
		c-0.3,0-0.5-0.1-0.8-0.1h-2.6v2.4h3c0.2,0,0.5,0,0.7-0.1c0.2-0.1,0.4-0.1,0.5-0.2c0.2-0.1,0.3-0.2,0.4-0.4
		C335.8,441,335.9,440.8,335.9,440.6z M336.7,445c0-0.3-0.1-0.5-0.2-0.7c-0.1-0.2-0.2-0.4-0.4-0.5c-0.2-0.1-0.4-0.3-0.6-0.3
		s-0.5-0.1-0.7-0.1h-3.6v3.3h3.6c0.3,0,0.5,0,0.7-0.1c0.2-0.1,0.4-0.2,0.6-0.3c0.2-0.1,0.3-0.3,0.4-0.5
		C336.7,445.5,336.7,445.3,336.7,445z M328.7,438.2c0-0.1,0-0.2,0.1-0.2c0.1-0.1,0.2-0.1,0.3-0.1h5.5c0.5,0,1,0.1,1.4,0.2
		s0.8,0.3,1.2,0.6c0.3,0.2,0.6,0.5,0.8,0.9c0.2,0.3,0.3,0.7,0.3,1.1c0,0.2,0,0.4-0.1,0.5c0,0.2-0.1,0.3-0.2,0.5
		c-0.1,0.1-0.2,0.3-0.3,0.4c-0.1,0.1-0.3,0.3-0.4,0.4c0.3,0.1,0.5,0.3,0.7,0.5s0.4,0.4,0.6,0.6s0.3,0.5,0.4,0.7
		c0.1,0.3,0.1,0.6,0.1,0.9c0,0.5-0.1,0.9-0.3,1.3c-0.2,0.4-0.5,0.7-0.8,1c-0.4,0.3-0.8,0.5-1.2,0.7c-0.5,0.2-1,0.2-1.5,0.2h-6.1
		c-0.1,0-0.2,0-0.3-0.1c-0.1-0.1-0.1-0.1-0.1-0.2V438.2z"/>
	<path class="st2" d="M348.5,438.2c0-0.1,0-0.2,0.1-0.2c0.1-0.1,0.2-0.1,0.3-0.1h8.7c0.3,0,0.4,0.1,0.4,0.3v1.1c0,0.1,0,0.2-0.1,0.2
		c-0.1,0.1-0.2,0.1-0.3,0.1H351v3.5h5.2c0.1,0,0.2,0,0.3,0.1c0.1,0,0.1,0.1,0.1,0.2v1c0,0.1,0,0.1-0.1,0.2c-0.1,0.1-0.2,0.1-0.3,0.1
		H351v1.7h6.8c0.3,0,0.4,0.1,0.4,0.3v1.1c0,0.1,0,0.2-0.1,0.2c-0.1,0.1-0.2,0.1-0.3,0.1h-8.9c-0.1,0-0.2,0-0.3-0.1
		c-0.1,0-0.1-0.1-0.1-0.2V438.2z"/>
	<path class="st2" d="M368.5,445.4c0.2,0.2,0.4,0.3,0.6,0.5c0.2,0.2,0.4,0.3,0.7,0.4c0.2,0.1,0.5,0.2,0.8,0.3
		c0.3,0.1,0.6,0.1,0.9,0.1c0.7,0,1.3-0.1,1.6-0.4c0.4-0.2,0.5-0.6,0.5-1c0-0.2-0.1-0.4-0.2-0.6c-0.1-0.2-0.3-0.3-0.5-0.4
		c-0.2-0.1-0.4-0.2-0.7-0.3c-0.2-0.1-0.5-0.2-0.8-0.3c-0.7-0.2-1.3-0.4-1.8-0.6c-0.5-0.2-0.9-0.5-1.3-0.7c-0.3-0.3-0.6-0.5-0.8-0.9
		c-0.2-0.3-0.3-0.7-0.3-1.1c0-0.4,0.1-0.8,0.3-1.1c0.2-0.3,0.5-0.6,0.8-0.9c0.4-0.2,0.8-0.4,1.3-0.6c0.5-0.1,1-0.2,1.6-0.2
		c0.2,0,0.5,0,0.7,0c0.2,0,0.5,0.1,0.7,0.1c0.2,0.1,0.5,0.1,0.7,0.2c0.2,0.1,0.4,0.2,0.6,0.3c0.1,0.1,0.3,0.1,0.4,0.2
		c0.1,0.1,0.2,0.2,0.4,0.3c0.1,0.1,0.2,0.2,0.3,0.3c0.1,0.1,0.1,0.2,0.1,0.2c0,0.1,0,0.1,0,0.1c0,0-0.1,0.1-0.1,0.1l-0.8,0.7
		c-0.1,0.1-0.2,0.1-0.2,0.1c-0.1,0-0.1,0-0.2,0c-0.1,0-0.1-0.1-0.2-0.1l0,0c-0.1-0.1-0.3-0.2-0.4-0.3c-0.2-0.1-0.3-0.2-0.5-0.3
		c-0.2-0.1-0.4-0.1-0.6-0.2c-0.2,0-0.4-0.1-0.6-0.1c-0.2,0-0.5,0-0.7,0.1c-0.2,0-0.4,0.1-0.5,0.2c-0.1,0.1-0.3,0.2-0.3,0.3
		c-0.1,0.1-0.1,0.3-0.1,0.5c0,0.2,0,0.3,0.1,0.5s0.2,0.2,0.4,0.4c0.2,0.1,0.4,0.2,0.7,0.3c0.3,0.1,0.6,0.2,0.9,0.3l0.8,0.3
		c0.5,0.2,1,0.4,1.4,0.5c0.4,0.2,0.8,0.4,1.1,0.7c0.3,0.2,0.5,0.5,0.7,0.8c0.2,0.3,0.3,0.7,0.3,1.1c0,0.5-0.1,0.9-0.3,1.3
		c-0.2,0.4-0.5,0.7-1,1c-0.4,0.3-0.9,0.5-1.5,0.6c-0.6,0.1-1.2,0.2-1.9,0.2c-1,0-1.8-0.2-2.6-0.5c-0.8-0.3-1.4-0.8-2-1.4
		c0,0,0,0,0,0c0,0,0,0,0,0c0-0.1-0.1-0.1-0.1-0.1c0,0,0-0.1,0-0.1c0-0.1,0.1-0.2,0.2-0.3l1.1-0.7c0.1,0,0.2-0.1,0.2-0.1
		C368.3,445.3,368.4,445.3,368.5,445.4z"/>
	<path class="st2" d="M384.4,438.2c0-0.1,0-0.2,0.1-0.2c0.1-0.1,0.2-0.1,0.3-0.1h9.1c0.1,0,0.2,0,0.3,0.1c0.1,0.1,0.1,0.1,0.1,0.2
		v1.1c0,0.1,0,0.2-0.1,0.2c-0.1,0.1-0.2,0.1-0.3,0.1h-3.3v8.3c0,0.1,0,0.2-0.1,0.2c-0.1,0.1-0.2,0.1-0.3,0.1h-1.6
		c-0.1,0-0.2,0-0.3-0.1c-0.1-0.1-0.1-0.1-0.1-0.2v-8.3h-3.4c-0.1,0-0.2,0-0.3-0.1c-0.1-0.1-0.1-0.1-0.1-0.3V438.2z"/>
	<path class="st2" d="M404.3,445.4c0.2,0.2,0.4,0.3,0.6,0.5c0.2,0.2,0.4,0.3,0.7,0.4c0.2,0.1,0.5,0.2,0.8,0.3
		c0.3,0.1,0.6,0.1,0.9,0.1c0.7,0,1.3-0.1,1.6-0.4c0.4-0.2,0.5-0.6,0.5-1c0-0.2-0.1-0.4-0.2-0.6s-0.3-0.3-0.5-0.4s-0.4-0.2-0.7-0.3
		c-0.2-0.1-0.5-0.2-0.8-0.3c-0.7-0.2-1.3-0.4-1.8-0.6c-0.5-0.2-0.9-0.5-1.3-0.7c-0.3-0.3-0.6-0.5-0.8-0.9c-0.2-0.3-0.3-0.7-0.3-1.1
		c0-0.4,0.1-0.8,0.3-1.1s0.5-0.6,0.8-0.9c0.4-0.2,0.8-0.4,1.3-0.6c0.5-0.1,1-0.2,1.6-0.2c0.2,0,0.5,0,0.7,0c0.2,0,0.5,0.1,0.7,0.1
		c0.2,0.1,0.5,0.1,0.7,0.2c0.2,0.1,0.4,0.2,0.6,0.3c0.1,0.1,0.3,0.1,0.4,0.2c0.1,0.1,0.2,0.2,0.4,0.3c0.1,0.1,0.2,0.2,0.3,0.3
		c0.1,0.1,0.1,0.2,0.1,0.2c0,0.1,0,0.1,0,0.1c0,0-0.1,0.1-0.1,0.1l-0.8,0.7c-0.1,0.1-0.2,0.1-0.2,0.1c-0.1,0-0.1,0-0.2,0
		c-0.1,0-0.1-0.1-0.2-0.1l0,0c-0.1-0.1-0.3-0.2-0.4-0.3c-0.2-0.1-0.3-0.2-0.5-0.3c-0.2-0.1-0.4-0.1-0.6-0.2c-0.2,0-0.4-0.1-0.6-0.1
		c-0.2,0-0.5,0-0.7,0.1c-0.2,0-0.4,0.1-0.5,0.2c-0.1,0.1-0.3,0.2-0.3,0.3c-0.1,0.1-0.1,0.3-0.1,0.5c0,0.2,0,0.3,0.1,0.5
		s0.2,0.2,0.4,0.4c0.2,0.1,0.4,0.2,0.7,0.3c0.3,0.1,0.6,0.2,0.9,0.3l0.8,0.3c0.5,0.2,1,0.4,1.4,0.5c0.4,0.2,0.8,0.4,1.1,0.7
		c0.3,0.2,0.5,0.5,0.7,0.8c0.2,0.3,0.2,0.7,0.2,1.1c0,0.5-0.1,0.9-0.3,1.3c-0.2,0.4-0.6,0.7-1,1c-0.4,0.3-0.9,0.5-1.5,0.6
		c-0.6,0.1-1.2,0.2-1.9,0.2c-1,0-1.8-0.2-2.6-0.5c-0.8-0.3-1.4-0.8-2-1.4c0,0,0,0,0,0c0,0,0,0,0,0c0-0.1-0.1-0.1-0.1-0.1
		c0,0,0-0.1,0-0.1c0-0.1,0.1-0.2,0.2-0.3l1.1-0.7c0.1,0,0.2-0.1,0.3-0.1C404.1,445.3,404.2,445.3,404.3,445.4z"/>
	<path class="st2" d="M421.2,438.2c0-0.1,0-0.2,0.1-0.2c0.1-0.1,0.2-0.1,0.3-0.1h8.7c0.3,0,0.4,0.1,0.4,0.3v1.1c0,0.1,0,0.2-0.1,0.2
		c-0.1,0.1-0.2,0.1-0.3,0.1h-6.7v3.5h5.2c0.1,0,0.2,0,0.3,0.1c0.1,0,0.1,0.1,0.1,0.2v1c0,0.1,0,0.1-0.1,0.2
		c-0.1,0.1-0.2,0.1-0.3,0.1h-5.2v1.7h6.8c0.3,0,0.4,0.1,0.4,0.3v1.1c0,0.1,0,0.2-0.1,0.2c-0.1,0.1-0.2,0.1-0.3,0.1h-8.9
		c-0.1,0-0.2,0-0.3-0.1c-0.1,0-0.1-0.1-0.1-0.2V438.2z"/>
	<path class="st2" d="M440,438.2c0-0.1,0-0.2,0.1-0.2c0.1-0.1,0.2-0.1,0.3-0.1h1.6c0.1,0,0.2,0,0.3,0.1c0.1,0.1,0.1,0.1,0.1,0.2v8.3
		h5.5c0.1,0,0.2,0,0.3,0.1c0.1,0.1,0.1,0.1,0.1,0.2v1.2c0,0.1,0,0.2-0.1,0.2c-0.1,0.1-0.2,0.1-0.3,0.1h-7.6c-0.3,0-0.4-0.1-0.4-0.3
		V438.2z"/>
	<path class="st2" d="M457.4,438.2c0-0.1,0-0.2,0.1-0.2c0.1-0.1,0.2-0.1,0.3-0.1h1.6c0.1,0,0.2,0,0.3,0.1c0.1,0.1,0.1,0.1,0.1,0.2
		v8.3h5.5c0.1,0,0.2,0,0.3,0.1c0.1,0.1,0.1,0.1,0.1,0.2v1.2c0,0.1,0,0.2-0.1,0.2c-0.1,0.1-0.2,0.1-0.3,0.1h-7.6
		c-0.3,0-0.4-0.1-0.4-0.3V438.2z"/>
	<path class="st2" d="M474.8,438.2c0-0.1,0-0.2,0.1-0.2c0.1-0.1,0.2-0.1,0.3-0.1h1.6c0.1,0,0.2,0,0.3,0.1c0.1,0.1,0.1,0.1,0.1,0.2
		v9.8c0,0.2-0.1,0.3-0.4,0.3h-1.6c-0.3,0-0.4-0.1-0.4-0.3V438.2z"/>
	<path class="st2" d="M489.8,441.8v6.1c0,0.2-0.1,0.3-0.4,0.3h-1.6c-0.3,0-0.4-0.1-0.4-0.3v-10.1c0,0,0,0,0-0.1c0,0,0-0.1,0-0.1
		c0,0,0-0.1,0.1-0.1c0,0,0.1,0,0.2,0c0.1,0,0.2,0,0.3,0.1l8.5,6.9v-6.3c0-0.2,0.1-0.3,0.4-0.3h1.6c0.3,0,0.4,0.1,0.4,0.3v10.2
		c0,0,0,0,0,0.1c0,0,0,0.1,0,0.1c0,0,0,0.1-0.1,0.1c0,0-0.1,0-0.2,0c-0.1,0-0.2,0-0.3-0.1L489.8,441.8z"/>
	<path class="st2" d="M508.1,443.1c0-0.5,0.1-1,0.2-1.4c0.2-0.5,0.4-0.9,0.7-1.3s0.7-0.8,1.1-1.1c0.4-0.3,0.9-0.6,1.4-0.8
		c0.5-0.2,1-0.4,1.6-0.5c0.6-0.1,1.2-0.2,1.8-0.2c0.7,0,1.4,0.1,2.1,0.3c0.7,0.2,1.3,0.4,1.9,0.7c0.1,0,0.1,0.1,0.2,0.1
		c0,0,0.1,0.1,0.1,0.2c0,0,0,0.1,0,0.1c0,0,0,0.1-0.1,0.1l-0.9,1c-0.1,0.1-0.2,0.1-0.3,0.1c0,0-0.1,0-0.1,0c-0.1,0-0.1,0-0.2-0.1
		c-0.4-0.2-0.8-0.4-1.2-0.5c-0.4-0.1-0.9-0.2-1.4-0.2c-0.6,0-1.2,0.1-1.8,0.3s-1,0.4-1.4,0.8c-0.4,0.3-0.7,0.7-0.9,1.1
		c-0.2,0.4-0.3,0.9-0.3,1.3c0,0.5,0.1,0.9,0.3,1.4c0.2,0.4,0.5,0.8,0.9,1.1c0.4,0.3,0.9,0.6,1.4,0.7c0.5,0.2,1.1,0.3,1.7,0.3
		c0.4,0,0.7,0,1.1-0.1c0.3-0.1,0.7-0.2,1.1-0.3v-1.3h-1.8c-0.1,0-0.2,0-0.3-0.1c-0.1-0.1-0.1-0.1-0.1-0.2v-1c0-0.1,0-0.2,0.1-0.2
		c0.1-0.1,0.2-0.1,0.3-0.1h3.6c0.1,0,0.2,0,0.3,0.1c0.1,0.1,0.1,0.1,0.1,0.2v3.6c0,0.1,0,0.1,0,0.2s-0.1,0.1-0.2,0.1l-0.1,0
		c-0.6,0.3-1.2,0.5-1.9,0.7c-0.7,0.2-1.4,0.2-2.2,0.2c-0.6,0-1.2-0.1-1.8-0.2c-0.6-0.1-1.1-0.3-1.6-0.5c-0.5-0.2-1-0.5-1.4-0.8
		c-0.4-0.3-0.8-0.7-1.1-1.1c-0.3-0.4-0.5-0.8-0.7-1.3C508.2,444,508.1,443.6,508.1,443.1z M508.1,443.1c0-0.5,0.1-1,0.2-1.4
		c0.2-0.5,0.4-0.9,0.7-1.3s0.7-0.8,1.1-1.1c0.4-0.3,0.9-0.6,1.4-0.8c0.5-0.2,1-0.4,1.6-0.5c0.6-0.1,1.2-0.2,1.8-0.2
		c0.7,0,1.4,0.1,2.1,0.3c0.7,0.2,1.3,0.4,1.9,0.7c0.1,0,0.1,0.1,0.2,0.1c0,0,0.1,0.1,0.1,0.2c0,0,0,0.1,0,0.1c0,0,0,0.1-0.1,0.1
		l-0.9,1c-0.1,0.1-0.2,0.1-0.3,0.1c0,0-0.1,0-0.1,0c-0.1,0-0.1,0-0.2-0.1c-0.4-0.2-0.8-0.4-1.2-0.5c-0.4-0.1-0.9-0.2-1.4-0.2
		c-0.6,0-1.2,0.1-1.8,0.3s-1,0.4-1.4,0.8c-0.4,0.3-0.7,0.7-0.9,1.1c-0.2,0.4-0.3,0.9-0.3,1.3c0,0.5,0.1,0.9,0.3,1.4
		c0.2,0.4,0.5,0.8,0.9,1.1c0.4,0.3,0.9,0.6,1.4,0.7c0.5,0.2,1.1,0.3,1.7,0.3c0.4,0,0.7,0,1.1-0.1c0.3-0.1,0.7-0.2,1.1-0.3v-1.3h-1.8
		c-0.1,0-0.2,0-0.3-0.1c-0.1-0.1-0.1-0.1-0.1-0.2v-1c0-0.1,0-0.2,0.1-0.2c0.1-0.1,0.2-0.1,0.3-0.1h3.6c0.1,0,0.2,0,0.3,0.1
		c0.1,0.1,0.1,0.1,0.1,0.2v3.6c0,0.1,0,0.1,0,0.2s-0.1,0.1-0.2,0.1l-0.1,0c-0.6,0.3-1.2,0.5-1.9,0.7c-0.7,0.2-1.4,0.2-2.2,0.2
		c-0.6,0-1.2-0.1-1.8-0.2c-0.6-0.1-1.1-0.3-1.6-0.5c-0.5-0.2-1-0.5-1.4-0.8c-0.4-0.3-0.8-0.7-1.1-1.1c-0.3-0.4-0.5-0.8-0.7-1.3
		C508.2,444,508.1,443.6,508.1,443.1z"/>
	<path class="st2" d="M546.6,440.9c0,0.1-0.1,0.2-0.1,0.3c0,0.1-0.1,0.2-0.1,0.3l-2,3.9h4.4l-2-3.9c0-0.1-0.1-0.2-0.1-0.3
		C546.7,441.1,546.6,441,546.6,440.9z M546.2,437.6c0,0,0.1-0.1,0.1-0.1c0.1,0,0.1-0.1,0.2-0.1c0.1,0,0.2,0,0.2,0.1
		c0.1,0,0.1,0.1,0.1,0.1c0,0.1,0.1,0.1,0.1,0.1c0,0,0,0.1,0.1,0.1l0.2,0.3c0.9,1.6,1.8,3.3,2.7,4.9c0.9,1.6,1.8,3.3,2.7,4.9
		c0,0,0,0,0,0.1c0,0,0,0.1,0,0.1c0,0.1-0.1,0.2-0.4,0.2h-1.8c-0.2,0-0.4-0.1-0.5-0.3l-0.5-1h-5.9l-0.5,1c-0.1,0.2-0.3,0.3-0.5,0.3
		h-1.8c-0.1,0-0.2,0-0.3-0.1c-0.1,0-0.1-0.1-0.1-0.2c0,0,0-0.1,0-0.1c0,0,0-0.1,0-0.1c0.9-1.6,1.8-3.3,2.7-4.9
		c0.9-1.6,1.8-3.2,2.7-4.9c0-0.1,0.1-0.2,0.2-0.3C546.1,437.8,546.2,437.7,546.2,437.6z"/>
	<path class="st2" d="M564,444.1c0,0.4,0.1,0.8,0.2,1.1c0.2,0.3,0.4,0.6,0.6,0.8c0.3,0.2,0.6,0.4,1,0.5c0.4,0.1,0.8,0.2,1.2,0.2
		c0.5,0,0.9-0.1,1.3-0.2c0.4-0.1,0.7-0.3,1-0.5c0.3-0.2,0.5-0.5,0.6-0.8c0.1-0.3,0.2-0.7,0.2-1.1v-5.9c0-0.1,0-0.2,0.1-0.2
		c0.1-0.1,0.2-0.1,0.3-0.1h1.6c0.1,0,0.2,0,0.3,0.1c0.1,0.1,0.1,0.1,0.1,0.2v5.9c0,0.7-0.1,1.4-0.4,1.9c-0.3,0.5-0.7,1-1.2,1.3
		c-0.5,0.4-1.1,0.6-1.8,0.8c-0.7,0.2-1.4,0.3-2.1,0.3s-1.5-0.1-2.1-0.3c-0.7-0.2-1.3-0.5-1.8-0.8c-0.5-0.4-0.9-0.8-1.2-1.3
		c-0.3-0.5-0.4-1.1-0.4-1.8v-5.9c0-0.1,0-0.1,0.1-0.2c0.1-0.1,0.2-0.1,0.3-0.1h1.7c0.1,0,0.2,0,0.3,0.1s0.1,0.1,0.1,0.2V444.1z"/>
	<path class="st2" d="M581.3,438.2c0-0.1,0-0.2,0.1-0.2c0.1-0.1,0.2-0.1,0.3-0.1h9.1c0.1,0,0.2,0,0.3,0.1c0.1,0.1,0.1,0.1,0.1,0.2
		v1.1c0,0.1,0,0.2-0.1,0.2c-0.1,0.1-0.2,0.1-0.3,0.1h-3.3v8.3c0,0.1,0,0.2-0.1,0.2c-0.1,0.1-0.2,0.1-0.3,0.1h-1.6
		c-0.1,0-0.2,0-0.3-0.1c-0.1-0.1-0.1-0.1-0.1-0.2v-8.3h-3.4c-0.1,0-0.2,0-0.3-0.1c-0.1-0.1-0.1-0.1-0.1-0.3V438.2z"/>
	<path class="st2" d="M600.2,438.2c0-0.1,0-0.2,0.1-0.2c0.1-0.1,0.2-0.1,0.3-0.1h1.6c0.1,0,0.2,0,0.3,0.1c0.1,0.1,0.1,0.1,0.1,0.2
		v5.1h6.3v-5.1c0-0.1,0-0.2,0.1-0.2c0.1-0.1,0.2-0.1,0.3-0.1h1.6c0.1,0,0.2,0,0.3,0.1c0.1,0.1,0.1,0.1,0.1,0.2v9.8
		c0,0.2-0.1,0.3-0.4,0.3h-1.6c-0.1,0-0.2,0-0.3-0.1c-0.1-0.1-0.1-0.1-0.1-0.2v-2.9h-6.3v2.9c0,0.2-0.1,0.3-0.4,0.3h-1.6
		c-0.2,0-0.4-0.1-0.4-0.3V438.2z"/>
	<path class="st2" d="M623.1,443.1c0,0.5,0.1,0.9,0.3,1.4c0.2,0.4,0.5,0.8,0.9,1.1c0.4,0.3,0.9,0.6,1.4,0.7c0.5,0.2,1.1,0.3,1.7,0.3
		c0.6,0,1.2-0.1,1.7-0.3c0.5-0.2,1-0.4,1.4-0.7c0.4-0.3,0.7-0.7,0.9-1.1c0.2-0.4,0.3-0.9,0.3-1.4c0-0.5-0.1-0.9-0.3-1.4
		c-0.2-0.4-0.5-0.8-0.9-1.1c-0.4-0.3-0.9-0.6-1.4-0.7c-0.5-0.2-1.1-0.3-1.7-0.3c-0.6,0-1.2,0.1-1.7,0.3c-0.5,0.2-1,0.4-1.4,0.7
		c-0.4,0.3-0.7,0.7-0.9,1.1C623.3,442.1,623.1,442.6,623.1,443.1z M620.7,443.1c0-0.5,0.1-1,0.2-1.4c0.2-0.5,0.4-0.9,0.7-1.3
		c0.3-0.4,0.7-0.8,1.1-1.1c0.4-0.3,0.9-0.6,1.4-0.8c0.5-0.2,1-0.4,1.6-0.5c0.6-0.1,1.2-0.2,1.8-0.2c0.6,0,1.2,0.1,1.8,0.2
		c0.6,0.1,1.1,0.3,1.6,0.5c0.5,0.2,1,0.5,1.4,0.8c0.4,0.3,0.8,0.7,1.1,1.1c0.3,0.4,0.5,0.8,0.7,1.3c0.2,0.5,0.2,0.9,0.2,1.4
		c0,0.5-0.1,1-0.2,1.4c-0.2,0.5-0.4,0.9-0.7,1.3c-0.3,0.4-0.7,0.8-1.1,1.1c-0.4,0.3-0.9,0.6-1.4,0.8c-0.5,0.2-1.1,0.4-1.6,0.5
		c-0.6,0.1-1.2,0.2-1.8,0.2c-0.6,0-1.2-0.1-1.8-0.2c-0.6-0.1-1.1-0.3-1.6-0.5c-0.5-0.2-1-0.5-1.4-0.8c-0.4-0.3-0.8-0.7-1.1-1.1
		c-0.3-0.4-0.5-0.8-0.7-1.3C620.8,444,620.7,443.6,620.7,443.1z"/>
	<path class="st2" d="M651.9,442c0-0.3-0.1-0.6-0.2-0.9s-0.3-0.5-0.6-0.7c-0.2-0.2-0.5-0.4-0.9-0.5c-0.3-0.1-0.7-0.2-1.1-0.3
		c-0.2,0-0.3,0-0.5,0c-0.2,0-0.3,0-0.5,0h-1.9v4.9h2.6c0.4,0,0.8-0.1,1.2-0.2c0.4-0.1,0.7-0.3,1-0.5c0.3-0.2,0.5-0.5,0.6-0.8
		C651.8,442.7,651.9,442.3,651.9,442z M649,437.9c0.5,0,0.9,0,1.4,0.1c0.5,0.1,0.9,0.2,1.3,0.4c0.4,0.2,0.7,0.4,1.1,0.6
		c0.3,0.2,0.6,0.5,0.8,0.8s0.4,0.6,0.5,1c0.1,0.4,0.2,0.7,0.2,1.1c0,0.3,0,0.6-0.1,0.9c-0.1,0.3-0.2,0.6-0.4,0.9
		c-0.2,0.3-0.4,0.5-0.6,0.8c-0.2,0.2-0.5,0.5-0.8,0.6l1.6,2.5c0,0,0.1,0.1,0.1,0.1c0,0.1,0,0.1,0.1,0.1c0,0.1,0,0.1-0.1,0.2
		c-0.1,0-0.1,0.1-0.2,0.1h-1.9c-0.2,0-0.4-0.1-0.4-0.3l-1.2-2c-0.2,0-0.4,0.1-0.6,0.1c-0.2,0-0.4,0-0.6,0h-2.7v1.8
		c0,0.2-0.1,0.3-0.4,0.3h-1.7c-0.3,0-0.4-0.1-0.4-0.3v-9.7c0-0.2,0.1-0.3,0.4-0.3H649z"/>
</g>
</svg>
