<?xml version="1.0" encoding="utf-8"?>
<!-- Generator: Adobe Illustrator 24.2.1, SVG Export Plug-In . SVG Version: 6.00 Build 0)  -->
<svg version="1.1" id="Layer_1" xmlns="http://www.w3.org/2000/svg" xmlns:xlink="http://www.w3.org/1999/xlink" x="0px" y="0px"
	 viewBox="0 0 800 800" style="enable-background:new 0 0 800 800;" xml:space="preserve">
<style type="text/css">
	.st0{fill-rule:evenodd;clip-rule:evenodd;fill:#1F1F1F;}
	.st1{fill:#C69C6D;}
	.st2{fill:#F2F2F2;}
</style>
<rect x="-0.4" y="-0.5" class="st0" width="801.5" height="801.5"/>
<g>
	<g>
		<g>
			<g>
				<path class="st1" d="M225.4,356.8l24.9,4.5l-0.8,4.5l-11-1.9l-2.3,11.7l11,1.9l-0.8,4.5l-24.9-4.2l0.8-4.5l10.6,1.9l2.3-11.7
					l-10.6-1.9L225.4,356.8z"/>
				<path class="st1" d="M241.7,324.3l6.4,3l3.8-7.9l3.4,1.5l-3.8,7.9l6.4,3l4.9-10.2l3.4,1.5l-7.2,14.4l-22.7-11.3l7.2-14.4
					l3.4,1.5L241.7,324.3z"/>
				<path class="st1" d="M292.3,289.5l-2.6,3c-0.4,0.8-1.1,0.8-1.9,0.8l-9.4-1.5c-0.4,0-0.8,0-0.8,0c-0.4,0-0.4,0.4-0.8,0.8
					l-1.5,1.5l7.6,6.4l-3,3.4l-18.9-16.6l5.3-5.7c1.1-1.1,2.3-2.3,3.4-3s2.3-1.1,3-1.1c1.1,0,1.9,0,3,0.4c0.8,0.4,1.9,0.8,2.6,1.5
					c0.8,0.4,1.1,1.1,1.5,1.9c0.4,0.8,0.8,1.5,0.8,2.3c0,0.8,0,1.5,0,2.3s-0.4,1.5-0.8,2.6c0.4,0,0.8,0,1.1-0.4c0.4,0,0.8,0,1.1,0
					L292.3,289.5z M274.2,289.9c0.8-0.8,1.1-1.1,1.1-1.9c0.4-0.8,0.4-1.1,0.4-1.9s0-1.1-0.4-1.5c-0.4-0.4-0.8-1.1-1.1-1.5
					c-1.1-0.8-1.9-1.1-3-1.1s-2.3,0.8-3.4,2.3l-1.9,2.3l6.4,5.7L274.2,289.9z"/>
				<path class="st1" d="M351.3,240.4c0.8,1.9,1.1,3.4,1.1,5.3c0,1.5-0.4,3.4-0.8,4.9c-0.8,1.5-1.5,2.6-2.6,4.2
					c-1.1,1.1-2.6,2.3-4.5,2.6c-1.9,0.8-3.4,1.1-5.3,1.1s-3.4-0.4-4.9-1.1c-1.5-0.8-2.6-1.5-3.8-3c-1.1-1.1-1.9-2.6-2.6-4.5
					c-0.8-1.9-1.1-3.4-1.1-5.3c0-1.5,0.4-3.4,0.8-4.9c0.8-1.5,1.5-2.6,2.6-4.2c1.1-1.1,2.6-2.3,4.5-2.6c1.1-0.4,2.3-0.8,3.4-0.8
					c1.1,0,2.3,0,3.4,0s2.3,0.4,3,0.8c1.1,0.4,1.9,1.1,2.6,1.9c0.8,0.8,1.5,1.5,2.3,2.6C350.1,238.1,350.9,239.3,351.3,240.4z
					 M346.7,241.9c-0.4-1.1-1.1-2.3-1.9-3.4c-0.8-0.8-1.5-1.5-2.6-1.9c-0.8-0.4-1.9-0.8-3-0.8c-1.1,0-2.3,0.4-3.4,0.8
					c-1.1,0.4-2.3,1.1-3,1.9c-0.8,0.8-1.5,1.5-1.5,2.6c-0.4,1.1-0.4,1.9-0.4,3s0.4,2.3,0.8,3.8c0.4,1.1,1.1,2.3,1.9,3.4
					c0.8,0.8,1.5,1.5,2.6,1.9c0.8,0.4,1.9,0.8,3,0.8s2.3-0.4,3.4-0.8c1.1-0.4,2.3-1.1,3-1.9c0.8-0.8,1.5-1.5,1.5-2.6
					c0.4-1.1,0.4-1.9,0.4-3C347.5,244.5,347.1,243.4,346.7,241.9z"/>
				<path class="st1" d="M388.7,242.7c0.8,0,1.9-0.4,2.3-0.8c0.8-0.4,1.1-0.8,1.9-1.5c0.4-0.8,0.8-1.1,1.1-1.9
					c0.4-0.8,0.4-1.5,0.4-2.6l-1.1-15.1l4.5-0.4l1.1,15.1c0,1.5,0,3-0.4,4.2c-0.4,1.1-1.1,2.6-1.9,3.4c-0.8,1.1-1.9,1.9-3,2.3
					c-1.1,0.8-2.6,1.1-4.2,1.1s-3,0-4.5-0.4c-1.5-0.4-2.6-1.1-3.4-1.9c-1.1-0.8-1.9-1.9-2.3-3c-0.8-1.1-0.8-2.6-1.1-4.2l-1.1-15.1
					l4.5-0.4l1.1,15.1c0,1.1,0.4,1.9,0.8,2.6c0.4,0.8,0.8,1.5,1.1,1.9c0.4,0.4,1.1,0.8,1.9,1.1C386.8,242.7,387.5,242.7,388.7,242.7
					z"/>
				<path class="st1" d="M445.4,230.2l-7.6-1.5l-4.2,21.2l-4.5-0.8l4.2-21.2l-7.6-1.5l0.8-3.8l19.6,4.2L445.4,230.2z"/>
				<path class="st1" d="M488.4,257.8c-0.8,1.5-1.9,3-3,4.2c-1.1,1.1-2.6,1.9-4.2,2.3s-3,0.8-4.9,0.4c-1.5,0-3.4-0.8-4.9-1.5
					l-8.7-4.5l11.7-22.3l8.7,4.5c1.9,0.8,3,1.9,4.2,3.4c1.1,1.1,1.9,2.6,2.3,4.2s0.8,3,0.4,4.9C489.6,254.4,489.2,256.3,488.4,257.8
					z M483.9,255.5c0.8-1.1,1.1-2.3,1.1-3.4c0-1.1,0-2.3,0-3.4c-0.4-1.1-0.8-1.9-1.5-2.6c-0.8-0.8-1.5-1.5-2.6-2.3l-4.5-2.3
					l-8.3,15.9l4.5,2.3c1.1,0.8,2.3,0.8,3.4,1.1c1.1,0,1.9,0,3-0.4c1.1-0.4,1.9-0.8,2.6-1.9C482.8,257.8,483.5,256.6,483.9,255.5z"
					/>
				<path class="st1" d="M527.4,291c-1.1,1.1-2.6,2.3-4.2,3s-3,1.1-4.9,1.1c-1.5,0-3-0.4-4.9-0.8c-1.5-0.8-3-1.5-4.5-3
					c-1.5-1.5-2.3-2.6-3-4.5c-0.8-1.5-1.1-3-1.1-4.9c0-1.5,0.4-3,1.1-4.9c0.8-1.5,1.5-3,3-4.2c1.1-1.1,2.6-2.3,4.2-3s3-1.1,4.9-1.1
					c1.5,0,3,0.4,4.9,0.8c1.5,0.8,3,1.5,4.5,3c0.8,0.8,1.5,1.9,2.3,3c0.8,1.1,1.1,1.9,1.5,3c0.4,1.1,0.4,2.3,0.4,3
					c0,1.1,0,2.3-0.4,3c-0.4,1.1-0.8,1.9-1.5,3C528.9,289.1,528.1,289.9,527.4,291z M524,287.6c1.1-1.1,1.9-1.9,2.3-3
					c0.4-1.1,0.8-2.3,0.8-3c0-1.1,0-1.9-0.4-3s-1.1-1.9-1.9-2.6s-1.9-1.5-2.6-1.9c-1.1-0.4-1.9-0.8-3-0.4c-1.1,0-1.9,0.4-3,0.8
					c-1.1,0.4-1.9,1.1-3,2.3c-1.1,1.1-1.9,1.9-2.3,3c-0.4,1.1-0.8,2.3-0.8,3c0,1.1,0,1.9,0.4,3s1.1,1.9,1.9,2.6
					c0.8,0.8,1.9,1.5,2.6,1.9c1.1,0.4,1.9,0.8,3,0.4c1.1,0,1.9-0.4,3-0.8C522.1,289.1,522.8,288.4,524,287.6z"/>
				<path class="st1" d="M554.6,334.1c-1.5,0.8-3.4,1.5-4.9,1.5c-1.5,0.4-3.4,0-4.9-0.4c-1.5-0.4-3-1.1-4.2-2.3s-2.3-2.6-3.4-4.2
					c-0.8-1.5-1.5-3.4-1.5-4.9c0-1.5,0-3.4,0.4-4.9c0.4-1.5,1.1-3,2.3-4.2s2.6-2.3,4.2-3.4c1.5-0.8,3.4-1.5,4.9-1.5
					c1.5-0.4,3.4,0,4.9,0.4c1.5,0.4,3,1.1,4.2,2.3c1.1,1.1,2.3,2.6,3.4,4.2c0.8,1.1,1.1,2.3,1.1,3.4c0.4,1.1,0.4,2.3,0.4,3.4
					c0,1.1-0.4,2.3-0.4,3c-0.4,1.1-0.8,1.9-1.5,3c-0.8,0.8-1.5,1.9-2.3,2.6C556.4,333,555.7,333.7,554.6,334.1z M552.3,329.9
					c1.1-0.8,2.3-1.5,3-2.3s1.5-1.9,1.9-2.6c0.4-1.1,0.4-1.9,0.4-3s-0.4-2.3-1.1-3.4c-0.8-1.1-1.1-1.9-2.3-2.6
					c-0.8-0.8-1.9-1.1-2.6-1.5c-1.1-0.4-2.3-0.4-3.4,0c-1.1,0-2.3,0.8-3.4,1.1c-1.1,0.8-2.3,1.5-3,2.3c-0.8,0.8-1.5,1.9-1.9,2.6
					c-0.4,1.1-0.4,1.9-0.4,3s0.4,2.3,1.1,3.4c0.8,1.1,1.1,1.9,2.3,2.6c0.8,0.8,1.9,1.1,2.6,1.5c1.1,0.4,1.9,0.4,3.4,0
					C550,331.1,551.2,330.7,552.3,329.9z"/>
				<path class="st1" d="M554.6,381.7l-0.8-4.2c0-0.8,0-1.5,0.8-1.9l6.8-6.8c0.4-0.4,0.4-0.4,0.4-0.8s0-0.8,0-1.1l-0.4-1.9l-9.8,1.9
					l-0.8-4.5l24.9-4.9l1.5,7.6c0.4,1.5,0.4,3,0.4,4.5c0,1.1-0.4,2.3-0.8,3.4c-0.4,0.8-1.1,1.5-1.9,2.3c-0.8,0.4-1.9,0.8-2.6,1.1
					c-0.8,0-1.5,0.4-2.3,0c-0.8,0-1.5-0.4-2.3-0.8c-0.8-0.4-1.5-0.8-1.9-1.5c-0.8-0.8-1.1-1.1-1.5-2.3c0,0.4-0.4,0.8-0.4,0.8
					c0,0.4-0.4,0.8-0.8,0.8L554.6,381.7z M565.1,367.4c0,0.8,0.4,1.5,0.8,2.3c0.4,0.8,0.8,1.1,1.1,1.5c0.4,0.4,1.1,0.4,1.5,0.8
					c0.4,0,1.1,0,1.9,0c1.1-0.4,2.3-0.8,2.6-1.9c0.4-1.1,0.8-2.3,0.4-4.2l-0.8-3l-8.3,1.5L565.1,367.4z"/>
			</g>
			<g>
				<path class="st1" d="M246.2,491.7l-1.5-3.4c0-0.4-0.4-0.8,0-1.1c0-0.4,0.4-0.8,0.4-0.8l3.8-4.2l-4.5-9.4l-5.3,0.8
					c-0.4,0-0.8,0-0.8,0c-0.4,0-0.4-0.4-0.8-0.8l-1.5-3.4l27.2-2.3l2.3,4.2L246.2,491.7z M251.1,480l6-6.4c0.4-0.4,0.8-0.8,1.1-1.1
					c0.4-0.4,0.8-0.8,1.1-1.1c-0.8,0-1.1,0.4-1.9,0.4c-0.4,0-1.1,0-1.5,0l-8.7,1.1L251.1,480z"/>
				<path class="st1" d="M286.6,522.7c-1.5,1.1-2.6,2.3-4.5,2.6c-1.5,0.8-3,0.8-4.5,0.8c-1.5,0-3-0.4-4.5-1.1
					c-1.5-0.8-3-1.9-4.2-3.4l-6.4-7.2l18.5-17l6.4,7.2c1.1,1.5,2.3,3,3,4.5c0.8,1.5,0.8,3,0.8,4.9c0,1.5-0.4,3-1.1,4.5
					C289.3,520,288.2,521.2,286.6,522.7z M283.2,518.9c1.1-0.8,1.9-1.9,2.3-3s0.8-1.9,1.1-3c0-1.1,0-1.9-0.4-3
					c-0.4-1.1-1.1-1.9-1.9-3L281,503l-13.2,12.1l3.4,3.8c0.8,0.8,1.9,1.5,2.6,1.9c1.1,0.4,1.9,0.8,3,0.8s1.9-0.4,3-0.8
					C281.4,520.8,282.5,520,283.2,518.9z"/>
				<path class="st1" d="M331.2,538.9l-21.9,16.2l-3.8-2.3l4.5-26.8l3.4,1.9c0.4,0.4,0.8,0.4,0.8,0.8s0,0.8,0,1.1l-3,16.2
					c0,0.4-0.4,1.1-0.4,1.9s-0.4,1.1-0.4,1.9c0.4-0.4,0.8-0.8,1.5-1.5c0.4-0.4,0.8-0.8,1.5-1.1l13.2-10.2c0.4,0,0.4-0.4,0.8-0.4
					c0.4,0,0.8,0,1.1,0.4L331.2,538.9z"/>
				<path class="st1" d="M354.3,551.4l-1.9,6.8l8.3,2.6l-1.1,3.4l-8.3-2.6l-1.9,6.8l11,3l-1.1,3.8l-15.5-4.5l7.2-24.2l15.5,4.5
					l-1.1,3.8L354.3,551.4z"/>
				<path class="st1" d="M409.8,554.8l-0.4,25.3h-2.3c-0.4,0-0.8,0-0.8-0.4c-0.4,0-0.4-0.4-0.8-0.8l-12.8-17c0,0.8,0,1.5,0,2.3
					l-0.4,15.5h-4.2l0.4-25.3h2.6c0.4,0,0.4,0,0.4,0h0.4c0,0,0.4,0,0.4,0.4l0.4,0.4l12.8,17c0-0.4,0-0.8,0-1.1s0-0.8,0-1.1l0.4-15.5
					L409.8,554.8z"/>
				<path class="st1" d="M451.4,550.2l-7.2,1.9l5.7,20.8l-4.5,1.1l-5.7-20.8l-7.2,1.9l-1.1-3.8l19.3-5.3L451.4,550.2z"/>
				<path class="st1" d="M489.9,551.4c0.8-0.4,1.5-1.1,1.9-1.5c0.4-0.8,0.8-1.1,0.8-1.9s0-1.5,0-2.3s-0.4-1.5-1.1-2.3l-7.9-12.8
					l4.2-2.3l7.9,12.8c0.8,1.1,1.1,2.6,1.5,3.8c0.4,1.5,0.4,2.6,0,3.8s-0.8,2.3-1.9,3.4c-0.8,1.1-1.9,2.3-3.4,3
					c-1.5,0.8-2.6,1.5-4.2,1.5c-1.5,0.4-2.6,0-3.8,0c-1.1-0.4-2.3-0.8-3.4-1.9c-1.1-0.8-1.9-1.9-2.6-3l-7.9-12.8l4.2-2.3l7.9,12.8
					c0.4,0.8,1.1,1.5,1.5,1.9c0.8,0.4,1.1,0.8,1.9,1.1c0.8,0.4,1.5,0.4,2.3,0C488.4,552.1,489.2,551.8,489.9,551.4z"/>
				<path class="st1" d="M537.9,515.5l-3,3c-0.4,0.8-1.1,0.8-1.9,0.8l-9.4-1.5c-0.4,0-0.8,0-0.8,0c-0.4,0-0.4,0.4-0.8,0.8l-1.5,1.5
					l7.2,6.8l-3.4,3.4l-18.5-17.4l5.3-5.7c1.1-1.1,2.3-2.3,3.4-3c1.1-0.8,2.3-1.1,3-1.1c1.1,0,1.9,0,3,0.4c0.8,0.4,1.9,0.8,2.6,1.5
					c0.8,0.8,1.1,1.1,1.5,1.9c0.4,0.8,0.8,1.5,0.8,2.3c0,0.8,0,1.5,0,2.3c0,0.8-0.4,1.5-0.8,2.6c0.4,0,0.8,0,1.1,0
					c0.4,0,0.8,0,1.1,0L537.9,515.5z M520.2,515.1c0.8-0.8,1.1-1.1,1.5-1.9s0.4-1.1,0.4-1.9s0-1.1-0.4-1.5s-0.8-1.1-1.1-1.5
					c-0.8-0.8-1.9-1.1-3-1.1c-1.1,0-2.3,0.8-3.4,2.3l-1.9,2.3l6,5.7L520.2,515.1z"/>
				<path class="st1" d="M537.2,478.1l6,3.4l4.2-7.9l3,1.9l-4.2,7.9l6.4,3.4l5.3-9.8l3.4,1.9l-7.6,14l-22.3-12.1l7.6-14l3.4,1.9
					L537.2,478.1z"/>
			</g>
		</g>
		<g>
			<g>
				<g>
					<path class="st1" d="M460.5,322c5.3,0,9.8,4.5,9.8,9.8c0,5.3-4.5,9.8-9.8,9.8c-5.3,0-9.8-4.5-9.8-9.8S455.2,322,460.5,322
						 M460.5,317.9c-7.9,0-14,6.4-14,14c0,7.6,6.4,14,14,14c7.9,0,14-6.4,14-14C474.4,324.3,468.4,317.9,460.5,317.9L460.5,317.9z"
						/>
				</g>
			</g>
		</g>
		<g>
			<g>
				<g>
					<path class="st2" d="M400.4,209.4c25.7,0,51,4.9,74.4,15.1c22.7,9.4,43.1,23.4,60.8,40.8c17.4,17.4,31.4,38.2,40.8,60.8
						c9.8,23.4,15.1,48.7,15.1,74.4s-4.9,51-15.1,74.4c-9.4,22.7-23.4,43.1-40.8,60.8c-17.4,17.4-38.2,31.4-60.8,40.8
						c-23.4,9.8-48.7,15.1-74.4,15.1c-25.7,0-51-4.9-74.4-15.1c-22.7-9.4-43.1-23.4-60.8-40.8c-17.4-17.4-31.4-38.2-40.8-60.8
						c-9.8-23.4-15.1-48.7-15.1-74.4c0-25.7,4.9-51,15.1-74.4c9.4-22.7,23.4-43.1,40.8-60.8c17.4-17.4,38.2-31.4,60.8-40.8
						C349.7,214.3,374.7,209.4,400.4,209.4 M400.4,204.9c-108.1,0-195.4,87.7-195.4,195.4s87.7,195.4,195.4,195.4
						s195.4-87.3,195.4-195.4S508.5,204.9,400.4,204.9L400.4,204.9z"/>
				</g>
			</g>
		</g>
		<g>
			<g>
				<path class="st2" d="M400.4,257.8c-78.6,0-142.5,63.9-142.5,142.5s63.9,142.5,142.5,142.5s142.5-63.5,142.5-142.5
					S479,257.8,400.4,257.8z M265.1,428.9c-1.1-4.9-0.4-10.2,2.3-14.7l34.4-59.3c0.8-1.5,3.4-1.5,4.2,0l29.5,51
					c1.5,2.3,1.5,5.3,0,7.6L321,438.4c-1.5,2.6-4.2,4.2-7.6,4.2h-44.6C267.4,438,266.2,433.5,265.1,428.9z M412.5,419.9l-10.2-10.2
					c-0.4-0.4-0.8-1.1-0.8-1.9v-5.7c0-0.4,0.8-0.8,1.1-0.4l7.9,7.9c0.4,0.4,1.1,0.8,1.9,0.4c0.8-0.4,0.8-1.5,0-2.3l-10.2-10.2
					c-0.4-0.4-0.8-1.1-0.8-1.9V390c0-0.4,0.8-0.8,1.1-0.4l7.9,7.9c0.4,0.4,1.1,0.8,1.9,0.4c0.8-0.4,0.8-1.5,0-2.3l-11-11
					c-0.8-0.8-2.3-0.8-3,0l-10.6,10.6c0,0.8-0.4,1.5,0,2.3c0.4,0.8,1.5,0.8,2.3,0l7.9-7.9c0.4-0.4,1.1,0,1.1,0.4v5.7
					c0,0.8-0.4,1.1-0.8,1.9l-9.8,9.8c-0.8,0.8-1.1,1.5-0.8,1.9c0.4,0.8,1.5,0.8,2.3,0l7.9-7.9c0.4-0.4,1.1,0,1.1,0.4v5.7
					c0,0.8-0.4,1.1-0.8,1.9l-10.2,10.2c-0.4,0.4-0.8,1.1-0.4,1.9c0.4,0.8,1.5,0.8,2.3,0l7.9-7.9c0.4-0.4,1.1,0,1.1,0.4v25.3
					c0,1.9-1.5,3-3,3h-68.8c-1.9,0-3-1.9-1.9-3.4l72.6-125.1c0.8-1.5,3.4-1.5,4.2,0l54,93.3c1.5,2.3,1.5,5.3,0,7.6l-14,23.8
					c-1.5,2.6-4.2,4.2-7.6,4.2h-29.9c-1.9,0-3-1.5-3-3v-24.9c0-0.4,0.8-0.8,1.1-0.4l7.9,7.9c0.4,0.4,1.1,0.8,1.9,0.4
					C413.2,421.4,413.2,420.6,412.5,419.9z M364.5,534c-6-1.5-12.1-3.8-17.8-6c-16.6-6.8-31.4-17-43.8-29.5
					c-12.8-12.8-22.7-27.6-29.5-43.8c-1.1-2.3-1.9-4.9-3-7.6h203.7c5.7,0,11,4.5,11,10.2c0.4,6-4.5,11.3-10.6,11.3H352.8
					c-8.3,0-15.1,6.4-15.5,14.4c-0.4,8.7,6.4,15.5,15.1,15.5h74.1c5.7,0,11,4.5,11,10.2c0.4,6-4.5,11.3-10.6,11.3h-44.2
					c-7.2,0-13.2,4.9-14.7,11.7C367.5,533.2,366,534.4,364.5,534z M536,427.8c-1.9,9.1-4.5,17.8-8.3,26.5
					c-6.8,16.6-17,31.4-29.5,43.8c-12.8,12.8-27.6,22.7-43.8,29.5c-17,7.2-35.1,11-53.7,11c-8.7,0-17-0.8-25.3-2.3c-3-0.8-3-3-3-3.4
					c0.8-4.9,5.3-9.1,10.6-9.1h43.8c8.3,0,15.1-6.4,15.5-14.4c0.4-8.7-6.4-15.5-15.1-15.5h-74.4c-5.7,0-11-4.5-11-10.2
					c-0.4-6,4.5-11.3,10.6-11.3h121.7c8.3,0,15.1-6.4,15.5-14.4c0.4-8.7-6.4-15.5-15.1-15.5h-25.7c-1.9,0-3-1.9-1.9-3.4l48.7-84.3
					c0.8-1.5,3.4-1.5,4.2,0l34,58.6C536,417.6,536.8,422.9,536,427.8z M534.9,406.7l-35.1-60.8c-0.8-1.5-3-1.5-4.2,0l-32.9,56.7
					c-0.8,1.5-3,1.5-4.2,0l-56.7-97.9c-0.8-1.5-3-1.5-4.2,0l-55.5,97.1c-0.8,1.5-3,1.5-4.2,0l-32.1-55.5c-0.8-1.5-3-1.5-4.2,0
					l-35.5,62c-1.1,1.9-3.8,1.1-3.8-0.8c0-2.3,0-4.5,0-6.8c0-18.5,3.8-36.7,11-53.7c6.8-16.6,17-31.4,29.5-43.8
					c12.8-12.8,27.6-22.7,43.8-29.5c17-7.2,35.1-11,53.7-11s36.7,3.8,53.7,11c16.6,6.8,31.4,17,43.8,29.5
					c12.8,12.8,22.7,27.6,29.5,43.8c7.2,17,11,35.1,11,53.7c0,1.9,0,3.8,0,5.3C538.3,407.8,535.7,408.5,534.9,406.7z"/>
			</g>
		</g>
	</g>
	<g>
		<path class="st2" d="M565.5,421.8c-3,0-5.3,2.3-5.3,5.3c0,3,2.3,5.3,5.3,5.3s5.3-2.3,5.3-5.3C570.8,424,568.2,421.8,565.5,421.8z"
			/>
		<path class="st2" d="M235.6,421.8c-3,0-5.3,2.3-5.3,5.3c0,3,2.3,5.3,5.3,5.3c3,0,5.3-2.3,5.3-5.3
			C240.9,424,238.7,421.8,235.6,421.8z"/>
	</g>
</g>
</svg>
