<?xml version="1.0" encoding="utf-8"?>
<!-- Generator: Adobe Illustrator 24.2.1, SVG Export Plug-In . SVG Version: 6.00 Build 0)  -->
<svg version="1.1" id="Layer_1" xmlns="http://www.w3.org/2000/svg" xmlns:xlink="http://www.w3.org/1999/xlink" x="0px" y="0px"
	 viewBox="0 0 800 800" style="enable-background:new 0 0 800 800;" xml:space="preserve">
<style type="text/css">
	.st0{fill-rule:evenodd;clip-rule:evenodd;fill:#435432;}
	.st1{fill:#FFFFFF;}
	.st2{fill:#435432;}
	.st3{fill:#FFC974;}
	.st4{fill:#E7964A;}
	.st5{fill:#B5D1D5;}
	.st6{fill:#F4F5F5;}
</style>
<rect x="-0.4" y="-0.5" class="st0" width="801.5" height="801.5"/>
<g>
	<g>
		<path class="st1" d="M194.8,399.8c0-113.5,91.9-205.4,205.4-205.4S606,286.3,606,400.2S514.1,606,400.2,606
			C286.7,605.6,194.8,513.7,194.8,399.8"/>
		<polygon class="st2" points="280,351.1 263.1,344.1 265.9,337.8 282.4,345.2 285.5,338.2 247.4,321.7 244.3,328.8 259.6,335.4 
			257.2,341.3 241.5,334.6 238.8,341.7 276.9,358.2 		"/>
		<path class="st2" d="M294.5,307.9l-18.1-13.4c-2.7-2-5.5-2.7-7.9-2.4c-2.4,0.4-4.7,2.4-7.1,5.5c-4.7,6.3-3.9,11,1.6,14.9
			l18.1,13.4c2.4,1.6,4.3,2.7,6.7,2.7c3.1,0,5.9-2,8.2-5.5c2.4-3.1,3.1-5.9,3.1-8.2C298.9,312.3,297.3,310.3,294.5,307.9
			 M290.6,319.3c-1.6,2-2.7,2-5.1,0.4l-18.1-13.4c-1.2-0.8-1.6-1.6-2-2.4c0-0.8,0-1.6,0.8-2.7c0.8-1.2,1.6-1.6,2.4-1.6
			c0.8,0,1.6,0.4,2.4,1.2l18.1,13.4c1.2,0.8,1.6,1.6,2,2.4C291.8,317.4,291.4,318.1,290.6,319.3"/>
		<polygon class="st2" points="320.9,296.2 316.5,291.4 308.7,298.1 285.5,271.8 279.6,277.3 307.1,308.3 		"/>
		<polygon class="st2" points="328.3,291.4 335,287.1 326.4,273.4 319.7,247.5 313,251.8 316.9,266.3 305.1,256.9 298.1,261.2 
			319.7,277.3 		"/>
		<path class="st2" d="M386.4,267.9c1.6-2,2-4.7,1.2-8.2l-1.2-7.1l-7.9,1.2l1.2,7.1c0.4,2.7-0.4,3.9-2.7,4.3c-1.2,0.4-2,0-2.7-0.4
			s-1.2-1.2-1.2-2.7l-3.9-22c-0.4-1.2,0-2.4,0.4-2.7c0.4-0.8,1.2-1.2,2.4-1.2c1.2-0.4,2,0,2.7,0.4c0.8,0.4,1.2,1.2,1.2,2.7l1.2,6.7
			l7.9-1.2l-1.2-6.7c-1.2-7.1-5.5-9.4-13-8.2s-10.6,5.1-9,12.2l3.9,22c0.8,3.5,2,5.9,3.9,7.1c1.6,0.8,3.1,1.2,5.1,1.2
			c1.2,0,2.4,0,3.5-0.4C382.1,271,384.9,269.8,386.4,267.9"/>
		<path class="st2" d="M416.7,228.6L416.7,228.6l-9.4-1.2l-10.6,41.2l7.9,0.4l2-9.4l7.1,0.4l1.2,9.4l7.9,0.4L416.7,228.6z
			 M413.1,253.7l-5.1-0.4l3.1-14.5L413.1,253.7z"/>
		<polygon class="st2" points="445,276.5 452.8,279.3 465.8,239.6 458.7,237.2 451.6,260 451.2,234.9 443.4,232.1 430.4,271.8 
			437.1,274.2 444.6,251.4 		"/>
		<polygon class="st2" points="505.8,262.4 499.6,258.5 486.6,278.5 493.3,254.1 485.8,249.4 463.4,283.6 463,284 468.9,288.3 
			482.3,267.9 475.6,292.6 482.7,296.9 505.4,262.8 		"/>
		<path class="st2" d="M497.2,312.3c2.7,3.1,5.5,4.7,8.2,4.7c2.4,0,4.7-1.2,7.1-3.1l16.5-14.9c5.1-4.7,5.1-9.4,0-15.3
			c-2.7-2.7-5.1-4.3-7.5-4.7c-2.4-0.4-5.1,0.8-7.5,3.1l-16.5,14.9C492.1,301.7,492.1,306.8,497.2,312.3 M502.7,302.8l16.5-14.9
			c2-1.6,3.5-1.6,5.1,0c1.6,2,1.6,3.1-0.4,5.1l-16.5,14.9c-0.8,0.8-2,1.2-2.7,1.2s-1.6-0.4-2.4-1.2
			C500.7,306,500.7,304.4,502.7,302.8"/>
		<polygon class="st2" points="520,344.1 525.5,340.9 520.8,331.9 551,314.6 547.5,307.9 510.9,328.4 		"/>
		
			<rect x="523.1" y="344.8" transform="matrix(0.941 -0.3383 0.3383 0.941 -85.9193 204.5907)" class="st2" width="41.6" height="7.9"/>
		
			<rect x="229.8" y="422.6" transform="matrix(0.9883 -0.1526 0.1526 0.9883 -61.9902 41.8034)" class="st2" width="23.2" height="4.3"/>
		<polygon class="st2" points="247.4,445 250.6,444.2 249.8,441.5 254.1,440.7 252.9,436.8 249,437.9 248.2,435.2 245.1,436 
			245.8,438.7 232.9,442.3 234.1,445.8 246.6,442.3 		"/>
		<path class="st2" d="M255.7,457.6c-0.8-1.6-1.6-2.7-2.7-3.1c-1.2-0.4-2.4-0.4-3.9,0l-1.2,0.4l1.2,3.5l1.2-0.4c1.2-0.4,1.6,0,2,0.8
			c0.4,0.4,0.4,0.8,0,1.2c0,0.4-0.4,0.4-1.2,0.8l-1.2,0.4l-2.7-3.5c-1.6-1.6-2.7-2-4.7-1.2l-2,0.8c-1.2,0.4-2,1.2-2.4,2
			s-0.4,2,0.4,3.5c0.4,1.2,1.2,2,2,2.4l-0.4,0.4l1.6,3.5h0.4c0.4-0.4,0.8-0.4,1.2-0.8l9.8-3.9C256.1,463.1,256.8,461.1,255.7,457.6
			 M243.1,460.7l1.2-0.4c0.4,0,0.8-0.4,0.8-0.4c0.4,0,0.8,0,1.2,0.8l1.6,1.6l-3.1,1.2c-0.8,0.4-1.2,0.4-1.6,0
			c-0.4,0-0.8-0.4-0.8-1.2C241.9,461.5,242.3,461.1,243.1,460.7"/>
		
			<rect x="246.7" y="474.1" transform="matrix(0.8816 -0.472 0.472 0.8816 -194.1106 178.279)" class="st2" width="23.2" height="3.9"/>
		
			<rect x="270.5" y="482" transform="matrix(0.8353 -0.5497 0.5497 0.8353 -221.2303 229.2557)" class="st2" width="3.1" height="3.9"/>
		
			<rect x="254.6" y="488.3" transform="matrix(0.8355 -0.5494 0.5494 0.8355 -226.1503 225.019)" class="st2" width="16.5" height="3.9"/>
		<path class="st2" d="M282,503.1c0-1.2-0.4-2.4-1.6-3.9s-2.4-2.4-3.5-2.4c-1.2,0-2.4,0.4-3.5,1.2l-1.2,0.8l2.4,2.7l1.2-0.8
			c0.4-0.4,0.8-0.4,1.2-0.4s0.8,0.4,1.2,0.8c0.8,0.8,0.8,1.6-0.4,2.4l-1.2,0.8l-3.5-2.4c-2-1.2-3.1-1.2-4.7,0.4l-1.6,1.2
			c-0.8,0.8-1.6,1.6-1.6,2.7c0,1.2,0.4,2,1.2,3.1c0.8,1.2,1.6,1.6,2.4,1.6l-0.4,0.4l2.4,2.7v-0.4c0.4-0.4,0.4-0.8,0.8-0.8l8.2-6.7
			C281.6,505.5,282,504.3,282,503.1 M272.5,505.1l2,1.2l-2.4,2c-0.4,0.4-0.8,0.8-1.2,0.4c-0.4,0-0.8-0.4-1.2-0.8
			c-0.8-0.8-0.8-1.6,0-2l0.8-0.8c0.4-0.4,0.8-0.4,1.2-0.4C271.8,504.7,272.2,505.1,272.5,505.1"/>
		<path class="st2" d="M293,514.1l0.4-0.4l-2.7-2.4l-11.4,12.2l2.7,2.7l8.2-9c0.8-0.8,1.6-0.8,2.4-0.4c0.8,0.8,0.8,1.6,0,2.4l-8.2,9
			l2.7,2.7l8.2-9c0.8-0.8,1.2-1.2,1.6-2c0-0.4,0.4-0.8,0-1.6c0-0.8-0.8-2-1.6-2.7C294.9,514.5,293.8,514.1,293,514.1"/>
		
			<rect x="303.7" y="528.9" transform="matrix(0.5842 -0.8116 0.8116 0.5842 -304.9899 469.1984)" class="st2" width="3.5" height="6.7"/>
		<path class="st2" d="M311.4,547.9l3.9,2l3.1-4.3l3.5,2l-1.6,5.1l3.9,2l6.7-22.4l-4.7-2.7L311.4,547.9z M320.5,542.8l5.1-6.7
			l-2.4,7.9L320.5,542.8z"/>
		<path class="st2" d="M352.7,548.3c-1.2-0.4-2.4-0.4-3.1,0c0,0-0.4,0-0.4,0.4c-0.4-1.2-1.2-2-2.7-2.4c-1.2-0.4-2-0.4-3.1,0l0.4-0.8
			l-3.5-1.2l-5.5,15.7l3.5,1.2l3.9-11.4c0-0.4,0.4-0.8,0.8-1.2c0.4,0,0.8,0,1.2,0c0.8,0.4,1.2,0.8,0.8,2l-3.9,11.4l3.5,1.2l3.9-11.4
			c0.4-0.8,0.8-1.6,2-1.2c0.8,0.4,1.2,0.8,0.8,2l-3.9,11.4l3.5,1.2l3.9-11.8c0.4-1.6,0.4-1.6,0.4-2.4c0-0.4,0-1.2-0.4-1.2
			C354.6,549.5,353.8,548.7,352.7,548.3"/>
		<path class="st2" d="M371.5,553c-3.5-0.8-5.9,0.4-6.3,3.9l-1.2,7.1c-0.4,1.6,0,3.1,0.8,3.9s2,1.6,3.9,2c0.8,0,1.2,0,2,0
			c2.7,0,3.9-1.2,4.7-3.9l0.4-1.6l-3.9-0.8l-0.4,1.6c-0.4,1.2-0.8,1.6-2,1.6c-1.2-0.4-1.6-0.8-1.2-2l0.4-2.7l7.1,1.2l0.8-4.3
			C376.6,555.4,375.1,553.8,371.5,553 M368.8,558.9l0.4-1.6c0-0.4,0.4-1.2,0.8-1.2c0.4-0.4,0.8-0.4,1.2,0c0.4,0,0.8,0.4,1.2,0.8
			c0.4,0.4,0.4,0.8,0,1.2l-0.4,1.6L368.8,558.9z"/>
		<path class="st2" d="M393.5,555.4c-1.6,0-2.4,0.4-3.1,1.2v-0.8l-3.5-0.4l-1.2,16.5v0.4l3.9,0.4l0.8-10.6c0-1.2,0.4-2,0.8-2.4
			c0.4-0.4,1.6-0.8,2.7-0.4h0.8l0.4-3.1h-0.4C394.3,555.4,393.9,555.4,393.5,555.4"/>
		<polygon class="st2" points="408,555.8 404.1,555.8 404.5,572.6 408.4,572.2 408,556.1 		"/>
		
			<rect x="404.1" y="551.4" transform="matrix(0.9994 -3.525186e-02 3.525186e-02 0.9994 -19.2422 14.659)" class="st2" width="3.9" height="3.1"/>
		<path class="st2" d="M430.4,563.2l-3.9,0.4l0.4,2.4c0,1.2-0.4,2-1.6,2c-0.4,0-1.2,0-1.2-0.4c-0.4-0.4-0.4-0.8-0.8-1.2l-1.2-7.5
			c0-1.2,0.4-2,1.6-2s1.6,0.4,2,1.6l0.4,2l3.9-0.4l-0.4-2c-0.4-1.6-0.8-2.7-2-3.5s-2.4-0.8-4.3-0.4c-2,0.4-3.1,0.8-3.9,2
			c-0.8,0.8-1.2,2.4-0.8,3.9l1.2,7.5c0.4,1.6,0.8,2.7,2,3.5c0.8,0.4,1.6,0.8,2.7,0.8c0.4,0,1.2,0,1.6,0c3.9-0.4,5.1-2.4,4.7-5.9
			L430.4,563.2z"/>
		<path class="st2" d="M452.8,562.8l-2.7-10.2c-0.4-1.6-1.2-2.7-2.4-3.1c-1.2-0.4-2.4-0.4-3.9,0c-1.6,0.4-2.7,1.2-3.5,2.4
			c-0.8,1.2-0.8,2.4-0.4,3.9l0.4,1.2l3.5-1.2l-0.4-1.2c0-0.4,0-0.8,0-1.2s0.4-0.4,1.2-0.8c0.4,0,0.8,0,1.2,0c0.4,0,0.4,0.4,0.8,1.2
			l0.4,1.2l-3.5,2.4c-2,1.2-2.4,2.4-1.6,4.7l0.4,2c0.4,2,1.6,2.7,3.5,2.7c0.4,0,1.2,0,2-0.4c1.2-0.4,2-0.8,2.4-1.6v0.8l3.5-1.2V564
			C453.2,563.6,452.8,563.2,452.8,562.8 M447.3,563.2c-1.2,0.4-1.6,0-2-1.2l-0.4-1.2c-0.4-0.8,0-1.6,0.4-2l2-1.2l0.8,3.1
			C448.9,562.4,448.5,563.2,447.3,563.2"/>
		<path class="st2" d="M468.5,542.4c-0.4-0.4-0.8-0.4-1.2-0.8c-0.8-0.4-2,0-3.1,0.4c-1.2,0.4-1.6,1.2-2.4,2l-0.4-0.8l-3.5,1.6
			l6.7,14.9v0.4l3.5-1.6l-4.7-11c-0.4-1.2-0.4-2,0.8-2.4c0.8-0.4,1.6,0,2,0.8l4.7,11v0.4l3.5-1.6l-5.1-11.4
			C469.3,543.2,468.9,542.8,468.5,542.4"/>
		<polygon class="st2" points="496.4,514.9 492.9,517.7 494.1,527.1 489.3,520.4 485.8,522.8 499.6,541.2 503.1,538.5 498,531.8 
			506.6,536.1 510.5,533 498.4,527.5 		"/>
		
			<rect x="504.2" y="509" transform="matrix(0.7237 -0.6901 0.6901 0.7237 -212.5045 490.3629)" class="st2" width="3.9" height="3.1"/>
		<polygon class="st2" points="509.4,511.4 506.6,514.1 518,525.9 518,525.9 521.2,523.6 509.8,511.4 		"/>
		<polygon class="st2" points="524.7,499.6 522.3,497.6 520.4,499.6 517.2,496.8 514.5,499.6 518,502.3 516,504.7 518.4,506.7 
			520.4,504.7 530.6,513.3 532.9,510.2 522.7,501.6 		"/>
		<path class="st2" d="M543.5,487.8l-2-1.2l-2,3.1l2,1.2c0.4,0.4,0.8,0.8,0.8,1.2c0,0.4,0,0.8-0.4,1.2c-0.8,0.8-1.6,1.2-2.4,0.4
			l-6.3-3.9c-0.8-0.8-1.2-1.6-0.4-2.4c0.4-0.4,0.8-0.8,1.2-0.8s0.8,0,1.2,0.4l2,1.2l2-3.1l-2-1.2c-2.7-2-5.1-1.2-7.1,2
			s-1.6,5.5,1.2,7.5l6.3,3.9c1.2,0.8,2,1.2,3.1,1.2c1.6,0,2.7-0.8,4.3-3.1C546.7,492.1,546.7,489.8,543.5,487.8"/>
		<path class="st2" d="M544.7,463.9c-0.4,0-0.8,0-1.2,0.4c-0.8,0.4-1.6,1.2-2.4,2.4c-0.4,0.8-0.8,1.6-0.4,2.7l-6.3-3.1l-1.6,3.5
			l20.8,10.2l1.6-3.5l-10.6-5.1c-1.2-0.4-1.2-1.2-0.8-2s1.2-1.2,2.4-0.8l10.6,5.1h0.4l1.6-3.5l-11-5.5
			C545.9,464.2,545.5,464.2,544.7,463.9"/>
		<path class="st2" d="M561.6,447l-1.6-0.4l-1.2,3.5l1.6,0.4c1.2,0.4,1.6,1.2,1.2,2c0,0.4-0.4,0.8-0.8,1.2c-0.4,0-0.8,0-1.2,0
			l-2.7-0.8l2.4-7.1l-4.3-1.2c-1.6-0.4-2.7-0.4-3.9,0c-1.2,0.8-2,2-2.4,3.5c-1.2,3.5,0,5.9,3.1,6.7l7.1,2.4c0.8,0.4,1.6,0.4,2,0.4
			c2,0,3.5-1.2,4.3-3.9c0.4-2,0.8-3.1,0-4.3C564.4,448.1,563.6,447.4,561.6,447 M553.7,448.1l1.6,0.4l-1.2,3.1l-1.6-0.4
			c-1.2-0.4-1.6-1.2-1.2-2c0-0.4,0.4-0.8,0.8-1.2h0.4C553,448.1,553.4,448.1,553.7,448.1"/>
		<path class="st2" d="M558.5,427.3l11.8,2.4l0.8-3.9l-12.2-2.4c-1.2-0.4-1.6-0.4-2.4,0c-0.4,0-0.8,0.4-1.2,0.4
			c-0.8,0.4-1.2,1.6-1.6,2.7c-0.4,1.2,0,2,0.4,3.1h-0.8l-0.8,3.5l16.5,3.1l0.8-3.9l-11.8-2.4c-1.2-0.4-1.6-0.8-1.6-2
			C556.9,427.7,557.3,427.3,558.5,427.3"/>
		<path class="st2" d="M556.5,385.3c0,3.5,2.7,6.3,6.3,6.3c3.5,0,6.3-2.7,6.3-6.3s-2.7-6.3-6.3-6.3
			C559.2,379,556.5,381.8,556.5,385.3"/>
		<path class="st2" d="M237.6,392c3.5,0,6.3-2.7,6.3-6.3s-2.7-6.3-6.3-6.3s-6.3,2.7-6.3,6.3C231.3,388.8,234.1,392,237.6,392"/>
	</g>
	<g>
		<g>
			<path class="st3" d="M439.5,323.3c0-2-0.8-4.3-2.7-6.3c-4.7-4.7-14.9-8.6-26.3-9.8c-3.5-0.4-7.1-0.4-10.6-0.4
				c-16.1,0-34.6,5.5-36.1,14.1c-0.4,2,0.4,3.9,1.6,5.5c4.7,5.9,16.5,10.2,30.2,11.4c16.5,1.2,33-2,40.8-7.9
				C440.6,326.8,439.5,325.6,439.5,323.3 M430.8,327.2c-4.7,5.1-17.3,8.2-31.8,7.5c-2.4,0-4.3-0.4-6.3-0.4
				c-9.4-1.2-16.5-4.3-19.6-8.2c-1.6-2-2-3.9-1.6-5.5c0.8-7.9,14.9-11.8,28.3-12.2c15.7-0.4,32.6,3.9,33.4,13
				C432.8,322.9,432.4,325.2,430.8,327.2"/>
			<path class="st2" d="M391.5,346.4c-14.1-1.6-25.5-6.7-30.6-13.4c-2.4-3.1-3.1-6.7-2.7-10.2c2-11,19.2-19.2,41.2-19.6
				c17.3-0.4,33.4,4.7,40.5,12.2c2.7,3.1,4.3,6.7,4.3,10.2c0,3.9-2,7.5-5.5,10.6c-8.2,7.9-26.3,11.8-44,10.6
				C393.5,346.8,392.7,346.8,391.5,346.4 M410,307.5c-3.5-0.4-7.1-0.4-10.6-0.4c-16.1,0.4-34.6,6.7-36.1,16.1
				c-0.4,2,0.4,4.3,1.6,6.3c4.3,6.3,16.5,11,30.2,12.2c16.5,1.2,33-2.7,40.5-9.8c2.4-2.4,3.5-4.7,3.5-7.1s-0.8-4.7-2.7-6.7
				C431.6,312.7,421.8,308.7,410,307.5"/>
			<path class="st2" d="M392.7,334.3c-9.4-1.2-16.5-3.9-19.2-7.5c-2-2-2-3.9-2-5.1c0.8-7.5,14.9-11,27.9-11
				c15.3-0.4,32.2,3.9,33,12.2c0,1.2,0,3.1-2,5.1c-4.7,4.7-17.3,7.5-31.4,7.1C396.7,334.6,394.7,334.6,392.7,334.3 M411.2,315
				c-3.1-0.4-7.1-0.8-11-0.4c-14.5,0.4-22.8,5.1-23.2,7.5c0,0.4,0.4,0.8,0.4,1.2c2,2.4,9.8,5.9,21.6,6.3c14.1,0.8,24.7-2.7,27.9-6.3
				c0.4-0.4,0.8-0.8,0.8-1.2C427.3,319.7,421.4,316.6,411.2,315"/>
			<path class="st3" d="M432.8,300.9l3.5-7.1c0,0,2-3.1,4.3-1.6c2,1.2,2.7,2,0.4,4.7c-2.4,2.4-5.1,4.3-5.1,4.3
				S430.8,305.6,432.8,300.9"/>
			<path class="st3" d="M382.1,295.8l-3.1-10.2c0,0-1.2-3.5,1.6-3.9c2.4-0.4,3.5-0.8,3.9,2.7c0.4,3.1,0,9,0,9
				S384.5,300.1,382.1,295.8"/>
			<path class="st3" d="M370.7,300.5l-5.1-11c0,0-2.4-3.5-4.7-2.4s-3.1,1.6-1.2,5.1c2,2.7,6.7,7.9,6.7,7.9S371.9,305.6,370.7,300.5"
				/>
		</g>
		<g>
			<path class="st4" d="M384.9,371.2c6.3-1.6,2.4-2.4,7.5-4.3c4.7-2,7.1-3.5,11-0.8c3.9,2.7,1.2,1.6,6.3,2.7
				c4.7,1.6,5.5-0.8,7.1,2.7c1.6,3.5,5.1,4.3,6.7,6.3c0.4,0.4,0.8,1.6,0.8,2.4l3.1-1.6c0,0-1.2-22.4-26.3-22.4
				c-24.7,0-26.3,21.2-26.3,21.2v3.9l2.4,0.4C377.8,378.6,380.2,372.7,384.9,371.2z"/>
			<path class="st4" d="M384.9,503.1c6.3,1.6,2.4,2.4,7.5,4.3c4.7,2,7.1,3.5,11,0.8c3.9-2.7,1.2-1.6,6.3-2.7
				c4.7-1.6,5.5,0.8,7.1-2.7c1.6-3.5,5.1-4.3,6.7-6.3c0.4-0.4,0.8-1.6,0.8-2.4l3.1,1.6c0,0-1.2,22.4-26.3,22.4
				c-24.7,0-26.3-21.2-26.3-21.2v-3.9l2.4-0.4C377.8,495.7,380.2,501.9,384.9,503.1z"/>
			<path class="st4" d="M373.5,386.1c0,0-8.6,51.4,0,101.7l26.3-28.7l-4.3-20l2.4-25.1L373.5,386.1z"/>
			<path class="st4" d="M430.4,380.2c0,0,0.4,13.4-16.9,34.6c-16.9,20.8-3.9,39.7-0.8,44.4c4.7,6.7,16.9,24,17.3,34.6l2.7-2
				C433.2,492.1,452.4,419.9,430.4,380.2z"/>
			<path class="st2" d="M415.9,492.5c0,2-2,3.9-3.9,1.6c-1.2-1.2-2.7,0-2.7-1.6c0-2,2-4.7,3.5-3.5
				C413.9,490.6,415.9,490.6,415.9,492.5z"/>
			<path class="st2" d="M395.9,390.8c0,2-2,3.9-3.9,1.6c-1.2-1.2-2.7,0-2.7-1.6c0-2,2-4.7,3.5-3.5
				C394.3,388.8,395.9,388.8,395.9,390.8z"/>
			<path class="st2" d="M408.4,480.7c-0.8,1.6-3.5,2.4-4.3-0.4c-0.8-2-2.4-1.2-1.6-2.7c0.8-1.6,2.7-2,3.5-0.4
				C406.9,479.6,409.2,479.2,408.4,480.7z"/>
			<path class="st2" d="M409.2,385.3c-1.2-1.2-1.2-3.9,1.6-4.3c2,0,1.6-2,3.1-0.8c1.2,1.2,1.2,3.1-0.8,3.5
				C411.2,384.1,410.8,386.9,409.2,385.3z"/>
			<path class="st2" d="M395.5,480.3c1.2,0.8,3.1,4.7,0.4,5.1c-1.6,0.4-2.7,1.2-4.3,0.4c-1.2-0.8-2.4-3.9-0.4-4.7
				C393.1,480.7,394.3,479.2,395.5,480.3z"/>
			<path class="st2" d="M392.3,375.9c1.2,0.8,3.1,4.7,0.4,5.1c-1.6,0.4-2.7,1.2-4.3,0.4c-1.2-0.8-2.4-3.9-0.4-4.7
				C390,376.3,390.8,375.1,392.3,375.9z"/>
			<path class="st2" d="M388.4,492.9c1.6,1.2,4.7,3.9,1.2,5.1c-2,0.8-2.4-0.4-3.9-1.2c-1.6-1.2-2.4-4.7-0.4-5.5
				C388,489.8,386.8,491.7,388.4,492.9z"/>
			<path class="st2" d="M403.7,375.9c0.8,2,1.2,5.9-2,4.7c-2-0.8-2-1.6-2.4-3.5c-0.8-2,0.8-5.1,3.1-4.7
				C404.9,373.1,402.9,373.9,403.7,375.9z"/>
			<path class="st2" d="M399.4,496.5c1.6-1.2,3.9-0.8,6.3,1.6c1.2,1.6-1.2,2-2.7,3.1c-1.6,1.2-4.7,0.8-4.7-1.2
				S397.8,497.6,399.4,496.5z"/>
			<path class="st2" d="M404.1,392c1.2-1.2,2.4-2.4,4.7-0.4c1.6,1.2-0.8,2.4-2,3.5s-4.7,3.5-4.7,1.6
				C401.8,394.7,402.9,393.6,404.1,392z"/>
			<path class="st2" d="M399.8,523.2c-9.4,0-21.6-2-30.2-15.7c-7.9-13-11.8-35.7-11.8-69.5s3.9-56.2,11.8-69.5
				c8.2-13.7,20.4-15.7,30.2-15.7c4.7,0,11,0.4,16.9,3.1l1.2,0.8l0,0c0.4,0,0.4,0.4,0.8,0.4c4.3,2.7,7.9,6.3,11,11
				c7.9,13,11.8,35.7,11.8,69.5s-3.9,56.2-11.8,69.5c-2.7,4.7-6.3,8.2-10.6,11c-0.4,0.4-0.8,0.4-1.2,0.8l0,0l-1.2,0.8
				C410.8,522.8,404.5,523.2,399.8,523.2z M398.6,463.9c-3.1,4.7-7.1,8.6-10.6,12.6c-3.1,3.5-6.3,6.7-8.2,10.2
				c-3.5,5.5-4.7,11-3.5,15.7c1.6,6.7,7.5,10.6,9.4,11.8l0,0c3.9,1.6,8.6,2.7,14.1,2.7c7.1,0,12.2-1.2,16.5-3.9l0,0
				c2.4-1.6,6.3-5.5,7.9-10.6c1.2-4.7,0-9.8-3.9-15.7c-2-3.1-5.1-6.7-8.6-9.8c-3.5-3.5-7.5-7.9-10.6-12.6l-1.2-2L398.6,463.9z
				 M368.8,386.1c-3.1,12.6-4.7,29.1-4.7,51.1s1.6,38.5,4.7,51.1l1.2,4.3l1.6-4.3c0.8-2,2-3.9,3.1-5.5c2.4-3.5,5.5-7.1,9-10.6
				c4.3-4.7,9-9.4,12.2-15.3l0.4-0.8l-0.4-0.8c-2.7-5.9-3.9-11.4-3.9-17.7v-0.4c0-6.3,1.6-12.2,3.9-18.1l0.4-0.8l-0.4-0.8
				c-3.5-5.9-7.9-10.6-12.2-14.9c-3.5-3.5-6.7-7.1-9-10.6c-1.2-2-2.4-3.9-3.1-5.5l-1.6-4.3L368.8,386.1z M428.1,386.9
				c-0.8,1.6-1.6,3.1-2.7,4.7c-2.4,3.5-5.9,7.1-9,10.6c-8.6,9-18.1,18.9-18.1,35c0,15.7,9.8,25.9,18.1,35c3.5,3.5,6.7,7.1,9,11
				c1.2,1.6,2,3.1,2.7,4.7l2,3.9l1.2-4.3c3.1-12.2,4.7-28.7,4.7-50.3s-1.6-37.7-4.7-50.3l-1.2-4.3L428.1,386.9z M399.8,358.2
				c-5.5,0-10.2,0.8-13.7,2.4l0,0c-1.2,0.8-7.9,4.7-9.8,11.8c-1.2,4.7,0,9.8,3.5,15.7c2,3.1,5.1,6.3,8.2,9.8
				c3.5,3.5,7.1,7.5,10.2,12.2l1.2,1.6l1.2-1.6c3.1-4.7,7.1-8.6,10.6-12.2c3.1-3.5,6.3-6.7,8.6-9.8c3.5-5.5,5.1-11,3.9-15.7
				c-1.2-5.1-5.5-9-7.9-10.6l0,0C411.6,359.4,406.5,358.2,399.8,358.2z"/>
		</g>
		<g>
			<path class="st5" d="M499.9,361.7c0,0-6.3,7.5-26.7,14.1c-17.3,5.5-18.1,12.2-21.2,20.8c-3.9,10.6-10.6,16.1-10.6,16.1l12.2,1.2
				l19.2-2l11.8-2.7l7.1-14.9l3.9-6.7l2.7-16.1L499.9,361.7z"/>
			<path class="st6" d="M483.1,406.1c0,0-16.1-0.8-18.9-7.1l23.2-0.4L483.1,406.1z"/>
			<path class="st6" d="M495.2,384.5c0,0-16.9,13-32.2,3.9c0,0,30.2-6.7,34.6-11.8L495.2,384.5z"/>
			<g>
				<path class="st2" d="M435.5,417.9c0,0,9.8-3.5,13.4-23.6c3.9-20.8,16.1-20.8,28.7-24.7c12.6-4.3,14.5-5.5,17.3-7.5
					c3.9-2.4,5.9-1.6,2,6.3c-3.9,7.9-16.1,15.3-34.2,20c0,0,18.9,4.3,34.6-11.8c15.3-16.1,7.1-26.7-4.3-19.6
					c-8.6,5.1-15.3,6.3-21.2,7.9c-7.5,2.4-23.6,4.3-28.7,27.5C439.5,412.8,439.5,412,435.5,417.9z"/>
				<path class="st2" d="M494.8,376.7c0,0,2.7,20.8-30.6,22c0,0,11.8,6.7,23.6,0c11.8-6.7,14.5-15.7,12.2-26.3L494.8,376.7z"/>
				<path class="st2" d="M485.8,395.9c0,0,3.1,14.9-27.1,14.5c0,0-15.7-2.7-23.2,7.9c0,0,7.1-3.1,22.8-3.1s36.9-2.4,33.4-25.9
					L485.8,395.9z"/>
			</g>
		</g>
		<g>
			<path class="st5" d="M299.3,361.7c0,0,6.3,7.5,26.7,14.1c17.3,5.5,18.1,12.2,21.2,20.8c3.9,10.6,10.6,16.1,10.6,16.1l-12.2,1.2
				l-19.2-2l-11.8-2.7l-7.1-14.9l-3.9-6.7l-2.7-16.5L299.3,361.7z"/>
			<path class="st6" d="M315.7,406.1c0,0,16.1-0.8,18.9-7.1l-23.2-0.4L315.7,406.1z"/>
			<path class="st6" d="M303.6,384.5c0,0,16.9,13,32.2,3.9c0,0-30.2-6.7-34.6-11.8L303.6,384.5z"/>
			<g>
				<path class="st2" d="M363.7,417.9c0,0-9.8-3.5-13.4-23.6c-3.9-20.8-16.1-20.8-28.7-24.7c-12.6-4.3-14.5-5.5-17.3-7.5
					c-3.9-2.4-5.9-1.6-2,6.3c3.9,7.9,16.1,15.3,34.2,20c0,0-18.9,4.3-34.6-11.8c-15.3-16.1-7.1-26.7,4.3-19.6
					c8.6,5.1,15.3,6.3,21.2,7.9c7.5,2.4,23.6,4.3,28.7,27.5C359.7,412.8,359.3,412,363.7,417.9z"/>
				<path class="st2" d="M304,376.7c0,0-2.7,20.8,30.6,22c0,0-11.8,6.7-23.6,0s-14.5-15.7-12.2-26.3L304,376.7z"/>
				<path class="st2" d="M313.4,395.9c0,0-3.1,14.9,27.1,14.5c0,0,15.7-2.7,23.2,7.9c0,0-7.1-3.1-22.8-3.1
					c-15.7,0-36.9-2.4-33.4-25.9L313.4,395.9z"/>
			</g>
		</g>
	</g>
</g>
</svg>
