<?xml version="1.0" encoding="utf-8"?>
<!-- Generator: Adobe Illustrator 24.2.1, SVG Export Plug-In . SVG Version: 6.00 Build 0)  -->
<svg version="1.1" id="Layer_1" xmlns="http://www.w3.org/2000/svg" xmlns:xlink="http://www.w3.org/1999/xlink" x="0px" y="0px"
	 viewBox="0 0 800 800" style="enable-background:new 0 0 800 800;" xml:space="preserve">
<style type="text/css">
	.st0{fill-rule:evenodd;clip-rule:evenodd;fill:#EBA700;}
	.st1{fill:#FFFFFF;}
</style>
<rect x="-0.4" y="-0.5" class="st0" width="801.5" height="801.5"/>
<g>
	<g>
		<path class="st1" d="M203.1,431.1l-6.9,3.6c-2.9,1.5-4.8,2.2-4.7,7.9c0.1,7.6,0.1,13.6,0.1,22.1c0,8.8,13.6,10.1,13.6,1.3
			c0-10.9-0.3-21.9-0.4-33.6C204.9,430.4,204.1,430.6,203.1,431.1z"/>
		<path class="st1" d="M263.9,417l-6.9,3.6c-2.9,1.5-4.8,2.2-4.7,7.9c0.1,7.6,0.2,10.8,0.2,19.4c0,8.8,13.6,10.1,13.6,1.3
			c0-10.9-0.3-19.1-0.4-30.9C265.7,416.3,264.9,416.5,263.9,417z"/>
		<g>
			<path class="st1" d="M345.9,386.9c-4.2-22.5-34.9-24.9-54.5-2.2c-9.3,10.8-12.6,12.3-25.6,14c-0.2-19.7-0.7-39.4-1.6-59.1
				c-0.4-8.2-12.8-9.2-12.6-0.9c0.7,22.6,1.3,42.6,1.4,61.7c-16,2.1-31.8,4.5-48.5,7.3c-0.6-25.8-1.5-51.5-2.8-77.3
				c-0.5-8.7-13.6-9.8-13.3-1c1,30.5,2.2,53.9,2.5,80.7c-12.2,2.1-25,4.5-38.7,7.1c-9.4,1.8-5,19.7,5.1,17.3c11.7-2.7,23-5.4,33.9-8
				c4.6-1.1,9.1-2.2,13.6-3.2c18.3-4.3,38.6-9.2,52.1-12.3c3.2-0.7,6.2-1.4,9-2c0.2,0,0.3-0.1,0.5-0.1c12-2.7,17.7-3.5,26.7,3.1
				c8,5.9,15.6,8,21.8,8c22.1,0,31.3-15.3,31.3-27.8C346.4,390.4,346.2,388.6,345.9,386.9z M320.2,409.6c-6.6,1.5-12.8-0.2-19.7-4.8
				c-4.8-3.2-6.6-8.6-2.8-13.5c15.3-20.3,35.5-12.7,35.5,2.3C333.1,401.3,328.2,407.8,320.2,409.6z"/>
		</g>
		<path class="st1" d="M611.5,369c-2-6.6-12.5-4.8-11.7,1.6c2,15.3-1.9,33.2-10.8,33.2c-6.2,0-8.7-7.2-9.8-21
			c-0.5-7.4-1.9-13.7-6.9-15.1c-8.1-2.3-11.5,10.2-16.3,23.4c-0.1,0.3-0.3,0.7-0.4,1c-2.4,6.6-4.8,12.6-7,12.6
			c-2.2,0-2.2-5.6-3.2-17c-1.3-13.8-8.7-19-15.2-19.2c-10.2-0.3-17.3,7-22,16.6c-2.9-9.1-8.1-16.6-17.5-16.6
			c-8.2,0-13.6,6-17.5,13.7c-1.3-7.8-4.2-13.1-9.8-13.1c-5.7,0-9.3,8.4-14.8,22.9c-2.4,6.6-4.8,12.6-7,12.6c-2.2,0-2.2-5.6-3.2-17
			c-1.3-13.8-8.7-19-15.2-19.2c-10.2-0.3-17.3,7-22,16.6c-2.9-9.1-8.1-16.6-17.5-16.6c-8.2,0-13.6,6-17.5,13.7
			c-7.4-18.8-13.9-13.4-12.5-9.6c3.2,8.8,5.5,20.9,3.7,39.4c-0.6,6.5,11.7,8.5,11.7,1.6c0-16.2,4.5-33.3,14.4-33.3
			c10.9,0,10.3,24.2,10.3,32.4c0,6.4,12.1,7.4,11.9,0.3c-0.5-18.4,7-33.4,13.8-33.4c8,0,9,14.8,9,27.4c0,6.2,3.4,10.3,9.5,10.3
			c8.3,0,13.6-9,18.6-20.7c2-4.9,4.6-10.9,6.4-16.2c3.1,11.2,1.5,27.8,1.6,31.6c0.1,6.5,11.7,8.5,11.7,1.6
			c0-16.2,4.5-33.3,14.4-33.3c10.9,0,10.3,24.2,10.3,32.4c0,6.4,12.1,7.4,11.9,0.3c-0.5-18.4,7-33.4,13.8-33.4c8,0,9,14.8,9,27.4
			c0,6.2,3.4,10.3,9.5,10.3c8.3,0,13.9-8.9,18.9-20.6c1.5-3.5,2.9-7.2,4.3-11c0.7,11.9,6.1,31.5,21.4,30.3
			c8.1-0.6,13.2-6.1,16.4-13.3c5.4,22.8,0.9,53.5-6.9,53.5c-7.4,0-7.1-12.3-2.5-22.8c4.1-9.3,0.4-16.2-9.5,0.5
			c-8.2,13.9-4,33,10.6,33c13.4,0,22.6-17.8,22.6-41.4C620.1,405.4,616.6,385.9,611.5,369z"/>
	</g>
</g>
</svg>
