<?xml version="1.0" encoding="utf-8"?>
<!-- Generator: Adobe Illustrator 24.2.1, SVG Export Plug-In . SVG Version: 6.00 Build 0)  -->
<svg version="1.1" id="Layer_1" xmlns="http://www.w3.org/2000/svg" xmlns:xlink="http://www.w3.org/1999/xlink" x="0px" y="0px"
	 viewBox="0 0 800 800" style="enable-background:new 0 0 800 800;" xml:space="preserve">
<style type="text/css">
	.st0{fill-rule:evenodd;clip-rule:evenodd;fill:#17310F;}
	.st1{fill:#FFFFFF;}
	.st2{fill:#5B8443;}
</style>
<rect x="-0.4" y="-0.5" class="st0" width="801.5" height="801.5"/>
<g>
	<g>
		<g>
			<g>
				<g>
					<g>
						<path class="st1" d="M119.5,367.6c0-3.6,0.5-9.3-3.4-10.8v-0.2h14.6v0.2c-3.9,1.5-3.4,7.2-3.4,10.8v33c0,3.5-0.5,9.2,3.4,10.7
							v0.2h-14.6v-0.2c3.9-1.4,3.4-7.2,3.4-10.7V367.6z"/>
						<path class="st1" d="M161.7,366.7c9.1,0,14.1,4.8,14.1,11c0,6-5.3,10.7-10.8,12l9.8,12.3c2.9,3.5,7.2,7.1,11,9.5h-6.3
							c-3.6,0-5.9-0.9-7.9-3.4l-8.3-10.3l-6.3-9.6c5.5-0.8,11.8-3.3,11.8-9.8c0-4.9-4.2-7.8-8.8-7.6c-1.6,0.1-3.1,0.3-4.6,0.5V402
							c0,3.1-0.4,8.1,3.1,9.3v0.2h-13v-0.2c3.5-1.2,3-6.3,3-9.3v-25.7c0-3.1,0.5-8.1-3-9.4v-0.2H161.7z"/>
						<path class="st1" d="M195.8,376.3c0-3.1,0.5-8.1-3-9.4v-0.2h13v0.2c-3.4,1.3-3,6.3-3,9.4V402c0,3.1-0.4,8,3,9.3v0.2h-13v-0.2
							c3.4-1.2,3-6.3,3-9.3V376.3z"/>
						<path class="st1" d="M244,374.8c-2.7-2.7-6.9-4.3-10.7-4.3c-3.9,0-8.8,1.5-8.8,6.2c0,9.3,23.5,9.2,23.5,21.8
							c0,7.3-7.6,14.1-18.3,14.1c-4.2,0-8.3-0.6-12.2-2l-2-8.5c4,3.5,9.6,5.7,14.9,5.7c3.9,0,9.8-2.3,9.8-7.1
							c0-10.6-23.5-8.7-23.5-23.2c0-8.6,8.8-11.9,17.1-11.9c3.4,0,6.9,0.5,10.2,1.5V374.8z"/>
						<path class="st1" d="M352.9,385.3v15.3c0,3.5-0.5,9.2,3.4,10.7v0.2h-14.3v-0.2c3.9-1.5,3.4-7.2,3.4-10.7v-33.1
							c0-3.5,0.5-9.2-3.4-10.7v-0.2h14.3v0.2c-3.9,1.5-3.4,7.2-3.4,10.8v12.1H381v-12.1c0-3.6,0.5-9.3-3.4-10.8v-0.2h14.3v0.2
							c-4,1.5-3.5,7.2-3.5,10.7v33.1c0,3.5-0.5,9.2,3.5,10.7v0.2h-14.3v-0.2c4-1.5,3.4-7.2,3.4-10.7v-15.3H352.9z"/>
						<path class="st1" d="M414.6,405.8l8.7,0.8c4.5,0.4,9.2-1,12.6-4h0.2l-3.1,8.9h-28.4v-0.2c3.5-1.2,3.1-6.3,3.1-9.3v-25.7
							c0-3.1,0.4-8.1-3.1-9.4v-0.2h24.3c1.2,0,2.3,0.1,3.2-0.3h0.2v8H432c-2.1-2.5-4.9-2.7-8-2.7c-2.4,0-7.2,0.1-9.4,0.5v12.7h10.5
							c1.1,0,2.2,0,3-0.4h0.2v7.2h-0.2c-1.1-2-4-1.9-6.1-1.9h-7.5V405.8z"/>
						<path class="st1" d="M461.5,366.7c9.1,0,14.1,4.8,14.1,11c0,6-5.3,10.7-10.8,12l9.8,12.3c2.9,3.5,7.2,7.1,11,9.5h-6.3
							c-3.6,0-5.9-0.9-7.9-3.4l-8.3-10.3l-6.3-9.6c5.5-0.8,11.8-3.3,11.8-9.8c0-4.9-4.2-7.8-8.8-7.6c-1.6,0.1-3.1,0.3-4.6,0.5V402
							c0,3.1-0.4,8.1,3.1,9.3v0.2h-13v-0.2c3.5-1.2,3-6.3,3-9.3v-25.7c0-3.1,0.5-8.1-3-9.4v-0.2H461.5z"/>
						<path class="st1" d="M494.2,376.3c0-3.1,0.5-8.1-3-9.4v-0.2h13v0.2c-3.4,1.3-3,6.3-3,9.4V402c0,3.1-0.4,8,3,9.3v0.2h-13v-0.2
							c3.4-1.2,3-6.3,3-9.3V376.3z"/>
						<path class="st1" d="M533.2,402.7c0,3.9-0.1,6.5,3.5,8.7v0.2h-13.5v-0.2c3.4-1.3,3-6.3,3-9.3v-30.4h-6c-2.9,0-6,0.8-8.1,2.7
							h-0.2l2.4-8.1h0.2c0.8,0.3,1.7,0.3,2.6,0.5h27.1c1.2,0,2.3-0.1,3.1-0.5h0.2l-2.2,8.1h-0.2c-0.9-2.4-3.6-2.7-5.9-2.7h-6.1
							V402.7z"/>
						<path class="st1" d="M561.4,394.7l-3.5,9.6c-1.4,3.8-1.9,5.8,1.4,7v0.2h-12.5v-0.2c4-2,5.1-5.8,6.6-9.7l11.4-28.4
							c1-2.5,2.3-5.3-1-6.3v-0.2h10.8l14.2,35c1.6,3.9,2.8,7.7,6.7,9.7v0.2h-14v-0.2c3.3-1.5,2.8-2.3,1-7l-3.7-9.6H561.4z
							 M569.9,372.5l-6.8,17.2h13.4L569.9,372.5z"/>
						<path class="st1" d="M637.4,374.6h-0.2c-2.8-3.1-8-4.1-12.1-4.1c-10.6,0-18.8,7-18.8,17.9c0,11,8.7,19.3,19.5,19.3
							c3.1,0,6.4-0.4,9.5-1.3v-9.8c0-3.1-0.1-6.5-3.1-7.7v-0.2h10.4v0.2c-0.3,0.8-0.3,1.9-0.3,2.9v15.7c0,1-0.1,2.1,0.3,3.1
							c-5.5,1-10.8,2-16.3,2c-17.5,0-27.8-9.5-27.8-23.3c0-14.7,11.7-23.8,28.2-23.8c3.6,0,7.2,0.4,10.7,1.2V374.6z"/>
						<path class="st1" d="M663.2,405.8l8.7,0.8c4.5,0.4,9.2-1,12.6-4h0.2l-3.1,8.9h-28.4v-0.2c3.5-1.2,3.1-6.3,3.1-9.3v-25.7
							c0-3.1,0.4-8.1-3.1-9.4v-0.2h24.3c1.2,0,2.3,0.1,3.2-0.3h0.2v8h-0.2c-2.1-2.5-4.9-2.7-8-2.7c-2.4,0-7.2,0.1-9.4,0.5v12.7h10.5
							c1.1,0,2.2,0,3-0.4h0.2v7.2h-0.2c-1.1-2-4-1.9-6.1-1.9h-7.5V405.8z"/>
					</g>
				</g>
				<g>
					<g>
						<path class="st1" d="M290,411.7v0.2h13v-0.2c-2.6-1-3-2.9-3.1-5.6c-2.7,1.5-5.4,2.1-8.1,4.1
							C291.5,410.9,290.9,411.4,290,411.7z"/>
						<path class="st1" d="M293,402.8c0,1,0,1.7,0,2.9c2.2-1.1,4.5-2.2,7-3.2c0-0.1,0,0.3,0,0.3l0,0c-2-1.3-4.3-2.4-7-3.2V402.8z"/>
						<path class="st1" d="M268.4,399.8c-2.4,0.7-4.7,1.5-7,2.5v0.1c0,3.1,0.4,8-3,9.3v0.2h13v-0.2c-3.4-1.3-3-6.3-3-9.3V399.8z"/>
						<path class="st1" d="M261.5,376.6v22.7c2.2-0.9,4.5-1.7,7-2.3v-7H293v6.9c2.5,0.8,4.9,1.8,7,3.1v-23.4c0-3.1-0.4-8,3.1-9.3
							v-0.2h-13v0.2c3.5,1.3,3,6.3,3,9.4v8.5h-24.6v-8.5c0-3.1-0.4-8.1,3-9.4v-0.2h-13v0.2C261.9,368.6,261.5,373.5,261.5,376.6z"/>
					</g>
				</g>
				<g>
					<path class="st1" d="M318.7,426.5c0-0.3-0.4-0.6-0.7-0.6c-2.1,0-8,7.2-12.3,13.9c-9.8,11.5-19.2,19.1-25.8,20.8
						c-0.3-8.9-5.1-14.4-13.9-16.2c0.6-2,1.3-3.4,2.4-5.3c13.2-3,28.6-11.2,40.4-21.4c0.2,1.5,0.2,2.3,0.2,3.4
						c0,4.4-1.5,9.6-3.9,13.5c-0.2,0.3-0.3,0.5-0.3,0.7c0,0.3,0.2,0.6,0.6,0.6c0.6,0,0.8-0.3,1.7-2.1c2.6-5,3.4-8,3.4-12.5
						c0-1.7-0.1-2.8-0.4-4.8c4.2-4.1,6-7.1,6-10c0-2.8-2.1-4.6-5.4-4.6c-2,0-4.2,0.5-8.3,2c-5.2-4.1-12.6-6.3-20.9-6.3
						c-21.5,0-41,13.4-41,28.1c0,8.6,7.5,14.2,19.1,14.2c0.4,0,1.1,0,1.9-0.1c-0.4,1.9-0.6,2.9-0.7,4c-0.3,0-0.6,0-0.8,0
						c-4.3,0-11.6,2-16.7,4.6c-11.9,6.2-19.3,16.9-19.3,28.1c0,13.1,10,22,24.9,22c8.6,0,17.5-2.4,25.5-6.9
						c11.5-6.4,17.2-13.6,21.6-27.8c3.6-11.7,4.7-14.2,9.9-22.6C311.7,436.6,318.7,428.4,318.7,426.5z M275.4,461.4
						c-6.1,0-10.4-4.2-10.4-10.3c0-1.7,0.2-3.2,0.7-5.1c7.8,1.6,12.5,7.2,12.6,15.2C277.2,461.3,276.4,461.4,275.4,461.4z
						 M248.3,497c-12.3,0-20.5-6.9-20.5-17.1c0-16.9,15.4-32.8,33-34.2c0.1,10.5,5.9,17.3,14.9,17.3c0.9,0,1.5-0.1,2.6-0.3
						c-0.7,7.6-3.6,13.2-9.5,18.6c-4.9,4.5-11,7.1-16.3,7.1c-7,0-11.4-4.2-11.4-10.9c0-8.4,8.7-18.3,16-18.3c1.9,0,3.4,0.6,4.9,1.9
						c0.3,0.3,0.5,0.4,0.8,0.4c0.3,0,0.6-0.4,0.6-0.6c0-1.6-3.8-3.3-6.4-3.3c-9.4,0-18.6,9.4-18.6,18.9c0,7.7,5.8,13.3,13.9,13.3
						c13.5,0,26.7-13.1,27.7-27.5c6.1-1.8,12.4-6.3,20.8-14.9c-1.9,2.7-3.1,4.6-5.8,9.1C276.8,486.7,265,497,248.3,497z
						 M260.4,438.5c-11.5,0-18.3-4.8-18.3-12.7c0-13.3,19.6-26.3,39.7-26.3c7.7,0,14.5,1.8,19,5.2c-21.5,9-34.5,20.4-38.7,33.8
						H260.4z M309.8,414.9c-1.1-3.8-3.1-7-5.8-9.5c2.7-1.3,4.9-1.9,6.9-1.9c2.3,0,3.7,1.2,3.7,3.2
						C314.5,408.9,312.8,411.9,309.8,414.9z M269.4,437.5c7-12.3,20.5-25.1,33.1-31.5c3,2.6,5.2,6.1,6.1,10
						C297.2,426,282,434.3,269.4,437.5z"/>
					<path class="st1" d="M374.5,449.8c0-0.9,0.1-1.7,0.3-2.7c4.5-4.3,6.6-7,6.6-8.6c0-0.7-0.5-1.2-1.2-1.2c-2.5,0-5.4,4-6.6,9.1
						c-1.3,1.7-2.1,2.7-5,6.2l-4.1,5c-0.4-0.1-0.6-0.1-0.9-0.1c-4,0-8.6,5.8-8.9,11.1c-3.7,4.3-7,7-8.6,7c-1,0-1.8-0.9-1.8-2.2
						c0-1.5,1.7-5.3,4.8-10.5l9.6-16l-0.6,0.1c-1.6,0.2-2.4,0.3-3.6,0.3c-1,0-1.7-0.1-2.7-0.3l-0.2,0l-1.8,3.4c0-0.1,0-0.3,0-0.4
						c0-2.1-1.4-3.4-3.5-3.4c-2.5,0-6.1,1.2-10.3,3.5c-5.8,3.2-10,7-12.3,10.9c-8.7,12-12.7,14.6-14.5,14.6c-1.1,0-1.8-0.7-1.8-2.1
						c0-2.7,0-2.7,29.4-51.8l0.4-0.7l-0.8,0.3c-1.4,0.5-2.1,0.6-3.6,0.6c-1.1,0-1.5-0.1-2.7-0.4l-0.2-0.1l-0.1,0.2
						c-4.1,7.2-11.2,19.4-16.1,27.5c-10.4,17.3-10.5,17.5-10.5,21.4c0,3.7,2.3,6.3,5.5,6.3c3.1,0,7.3-3.7,13.2-11.5
						c-0.2,0.9-0.3,1.9-0.3,2.8c0,5.1,2.9,8.7,6.9,8.7c3.4,0,6.1-2.3,12.1-10.3c-0.4,1.2-0.6,2.3-0.6,3.7c0,3.9,2.4,6.7,5.8,6.7
						c2.5,0,5.1-1.8,9.1-6.5c0.5,4,3.6,6.5,8.1,6.5c8.6,0,15.9-5.5,15.9-12c0-1.8-0.4-3.4-1.4-5.7
						C374.8,453.5,374.5,452.6,374.5,449.8z M373.4,456.4c0.1,1.2,0.1,2.2,0.1,3.1c0,7.6-6.3,15.9-12.1,15.9c-2.8,0-5-2-5-4.7
						c0-2.5,2.2-5,4.8-5.6c3.7-0.8,5.3-2.2,5.3-4.5c0-0.9-0.2-1.5-0.9-2.1c2.1-2.5,4.1-5,6.8-8.4l0.9-1.2c-0.1,1-0.1,1.8-0.1,3
						C373.3,453,373.3,454.4,373.4,456.4z M328.7,475.8c-1.8,0-2.7-1.1-2.7-3.2c0-7.6,14.1-24.5,20.3-24.5c1.3,0,2.1,0.9,2.1,2.3
						c0,1.7-1.3,5.4-7.3,13.4C334.5,472.8,331.4,475.8,328.7,475.8z"/>
					<path class="st1" d="M400.6,449.8c0-0.9,0.1-1.7,0.3-2.7c4.5-4.3,6.6-7,6.6-8.6c0-0.7-0.5-1.2-1.2-1.2c-2.5,0-5.4,4-6.6,9.1
						c-1.3,1.7-2.1,2.7-5,6.2l-4.1,5c-0.4-0.1-0.6-0.1-0.9-0.1c-4.2,0-8.9,6.3-8.9,11.7c0,4.7,3.2,7.8,8.2,7.8
						c8.6,0,15.9-5.5,15.9-12c0-1.8-0.4-3.4-1.4-5.7C400.9,453.5,400.6,452.6,400.6,449.8z M399.4,456.4c0.1,1.2,0.1,2.2,0.1,3.1
						c0,7.6-6.3,15.9-12.1,15.9c-2.8,0-5-2-5-4.7c0-2.5,2.2-5,4.8-5.6c3.7-0.8,5.3-2.2,5.3-4.5c0-0.9-0.2-1.5-0.9-2.1
						c2.1-2.5,4.1-5,6.8-8.4l0.9-1.1c-0.1,1-0.1,1.8-0.1,3C399.3,453,399.3,454.4,399.4,456.4z"/>
					<path class="st1" d="M538.1,437.5c1.1-2.1,2.4-4.2,4.1-6.8c1.4-2.3,2.8-4.6,4.1-6.6l0-0.1c0.4-0.7,0.8-1.5,1.3-2.1l0.4-0.6
						l-0.7,0.1c-1.7,0.3-2.4,0.4-3.3,0.4c-0.8,0-1.5-0.1-3.2-0.4l-0.2,0L521.2,454c-1,1.6-1.9,3.3-2.9,5c-0.2,0.2-0.4,0.5-0.8,0.8
						c-2.8,4-6.3,6.7-8.7,6.7c-1.9,0-3-1.6-3-4.1c0-1.1,0.2-2.1,0.7-3.8l0.5-0.4c0.9-0.5,1.6-1,2.5-1.5c0.3-0.2,0.7-0.4,1-0.6
						c5.1-3.3,7.5-5.7,7.5-7.5c0-0.9-0.9-1.7-1.9-1.7c-3.3,0-7.9,4.8-10.6,11.1c-1.1,0.9-2,1.7-3,2.8c1.9-3.4,2.7-5.8,2.7-8.2
						c0-3.3-1.9-5.7-4.5-5.7c-3.1,0-7.8,5.9-11.3,10.9l-0.8,1.1c-0.2,0.2-0.4,0.4-0.6,0.7c-2.6,4-7.4,7.4-10.4,7.4
						c-0.8,0-1.3-0.1-1.9-0.4c3.7-5.1,6.2-10.9,6.2-14.5c0-3.2-1.9-5.2-4.8-5.2c-3.3,0-7.8,1.9-12.5,5.3c-3.1,2.2-5.5,4.4-7.3,6.7
						c-0.2,0.2-0.5,0.6-1,1.1c-3.5,4.3-7.1,7-9.5,7c-1.4,0-2.2-0.6-3.1-2.1c5.1-7,8.6-13.5,8.6-16.2c0-1.2-0.6-1.9-1.5-1.9
						c-3.8,0-8.9,8.6-8.9,15.1c0,0.8,0.1,1.7,0.3,2.8c-4.9,7.2-9.4,11.1-12.8,11.1c-1.5,0-2.4-0.9-2.4-2.3c0-1.7,0.9-3.8,3.6-8.1
						l11.4-18.4l-0.7,0.1c-1.2,0.2-1.8,0.2-3,0.2c-0.9,0-1.7-0.1-2.7-0.1l-1.1-0.1l-6,10.3c-6.4,10.6-13.2,18.3-16.2,18.3
						c-1.1,0-1.9-0.8-1.9-2.1c0-1.4,0.9-3.4,2.8-6.5l12.3-20.1l-1.1,0.1c-1.4,0.2-2.1,0.3-2.9,0.3c-1,0-1.7-0.1-3.1-0.3l-0.2,0
						l-8.9,15c-2.4,4-3.2,6.1-3.2,8.5c0,3.6,2.6,6.6,5.7,6.6c3.2,0,6.2-2.5,11.2-9.5c-0.3,1.1-0.4,1.9-0.4,3c0,3.7,2.8,6.6,6.6,6.6
						c4.1,0,7.4-2.7,13.6-11.2c1.1,1.6,2.3,2.3,3.9,2.3c2.1,0,4.7-1.4,7.6-4.3c-0.4,1.3-0.7,2.7-0.7,4.1c0,5,3.6,9.2,8,9.2
						c4,0,8.7-3.5,13.2-9.8c0.8,0.4,1.8,0.6,2.8,0.6c2.7,0,5.8-1.6,8.7-4.7c1-0.9,2.2-2.3,2.8-3.3c0.2-0.2,0.4-0.4,0.6-0.7
						c4.5-6.7,9-11.2,10.4-11.2c0.5,0,0.9,0.5,0.9,1.2c0,1.7-2.2,6-6.4,12.9l-8.9,14.5l0.6,0c0.5,0,0.9-0.1,1.3-0.1
						c0.7-0.1,1.3-0.1,1.9-0.1c0.7,0,1.3,0.1,2.1,0.1c0.3,0,0.7,0.1,1.1,0.1l0.2,0l0.1-0.2c6.4-10.9,7.9-13.2,11.8-16.7
						c-0.3,1.1-0.4,2-0.4,2.9c0,2.8,1.8,4.9,4.3,4.9c2,0,4.1-1.1,6.4-3.2l-4.2,7.3c-1,1.8-1.4,2.5-2,3.4l-1,1.7l0.6-0.1
						c1.5-0.2,2.2-0.3,3.4-0.3c1.3,0,1.8,0.1,2.7,0.3l0.2,0l0.8-1.3l0.1-0.2c4.8-9.3,5.2-10.3,13.3-23.3L538.1,437.5z M476.8,448
						c2.3,0,3.6,1.4,3.6,4c0,1.3-0.2,2.3-0.6,3.3c-0.2-0.4-0.6-0.6-1.2-0.6c-2.7,0-6.3,4.8-6.3,8.4c0,1.3,0.4,2.3,1.4,3.5
						c-4.3,5.9-8.4,9.1-12,9.1c-1.9,0-3.2-1.4-3.2-3.4C458.6,464.1,470.7,448,476.8,448z"/>
					<path class="st1" d="M563.1,449.8c0-0.9,0.1-1.7,0.3-2.7c4.5-4.3,6.6-7,6.6-8.6c0-0.7-0.5-1.2-1.2-1.2c-2.5,0-5.4,4-6.6,9.1
						c-1.3,1.7-2.1,2.7-5,6.2l-4.1,5c-0.4-0.1-0.6-0.1-0.9-0.1c-4.1,0-8.6,5.9-8.9,11.3c-3.7,4.2-6.9,6.9-8.6,6.9
						c-1.2,0-1.4-0.4-1.4-1.1c0-0.6,0.1-1.2,1.1-2.9c2-4.1,2.6-6,2.6-7.3c0-2.3-1.5-4.1-5.1-5.8c1.8-1,4.2-3.2,6.7-6.1
						c2.7-3.1,3.8-3.9,5.5-3.9c0.6,0,1.3,0.2,1.3,1c0,0.7-0.6,1.7-1.3,2.2c-2.7,1.6-3.6,2.7-3.6,4.4c0,1.3,1.1,2.4,2.6,2.4
						c2.8,0,6.3-4.3,6.3-7.9c0-2.4-1.8-4.1-4.3-4.1c-2.5,0-4.3,1-6.6,3.7c-4.7,5.4-5.9,6.7-8.2,7.8c-0.9-0.3-2.1-0.5-3.1-0.5
						c-1.3,0-2,0.4-2,1.2c0,0.8,0.9,1.4,2.1,1.4c1,0,1.9-0.2,3.3-0.8c1.2,0.7,1.4,1.2,1.4,1.8c0,0.7-0.2,1.4-1,3
						c-2.6,5.3-2.9,6.1-2.9,7.7c0,2.8,2.9,5.3,6,5.3c2.5,0,5.5-2,9.3-6.3c0.6,3.9,3.6,6.3,8.1,6.3c8.6,0,15.9-5.5,15.9-12
						c0-1.8-0.4-3.4-1.4-5.7C563.4,453.5,563.1,452.6,563.1,449.8z M546.6,467c0.9-0.9,2-1.7,3.2-2c3.7-0.8,5.3-2.2,5.3-4.5
						c0-0.9-0.2-1.5-0.9-2.1c2.1-2.5,4.1-5,6.8-8.4l0.9-1.1c-0.1,1-0.1,1.8-0.1,3c0,1.1,0,2.5,0.1,4.5c0.1,1.2,0.1,2.2,0.1,3.1
						c0,7.6-6.3,15.9-12.1,15.9c-2.8,0-5-2-5-4.7c0-1,0.4-2.1,1-3C546.2,467.5,546.4,467.3,546.6,467z"/>
				</g>
			</g>
		</g>
		<g>
			<path class="st2" d="M440.5,254.4c-0.8-1.1-1.5-1.8-2-2.1V235h-17.4c-0.3-0.3-1.2-1.2-1.3-1.3c-0.2-0.2-0.4-0.4-0.7-0.6h21.3
				V254.4z"/>
			<path class="st2" d="M360.2,233h21.1c-0.2,0.2-0.5,0.4-0.7,0.6c-0.1,0.1-1,1-1.3,1.3h-17.2v17.1c-0.5,0.3-1.1,1-2,2V233z"/>
			<path class="st2" d="M408.4,312.6c-2.9,0-5.8-1-8-2.9l-0.2-0.1l-0.2,0.1c-2.2,1.9-5.1,2.9-8,2.9c-3.4,0-6.5-1.3-8.9-3.7
				c-2.3-2.3-3.6-5.4-3.6-8.7v-0.1c0-3.2,1.9-6.4,2.1-6.8l0.1-0.3l-0.1-0.2c-0.6-0.6-1.3-1.2-1.8-1.9l-0.1-0.2l-0.3,0.2
				c-0.4,0.2-3.7,2-6.8,2.1h0c-3.4,0-6.5-1.3-8.8-3.6c-2.4-2.4-3.7-5.5-3.7-8.9c0-2.9,1-5.8,2.9-8l0.1-0.2l-0.1-0.2
				c-1.9-2.2-2.9-5.1-2.9-8c0-3.4,1.3-6.5,3.7-8.9c2.3-2.3,5.4-3.6,8.7-3.6l0.1,0c3.2,0,6.4,1.9,6.8,2.1l0.5,0.3l0.1-0.2
				c0.5-0.6,1.1-1.2,1.8-1.8l0.2-0.1l-0.3-0.5c-0.2-0.4-2-3.7-2.1-6.8v-0.1c0-3.3,1.3-6.4,3.6-8.7c2.4-2.4,5.5-3.7,8.9-3.7
				c2.9,0,5.8,1,8,2.9l0.2,0.1l0.2-0.1c2.2-1.9,5.1-2.9,8-2.9c3.4,0,6.5,1.3,8.9,3.7c2.4,2.4,3.6,5.5,3.6,8.8c0,3-1.7,6.1-2,6.7
				l-0.1,0.2l0.2,0.1c0.7,0.6,1.4,1.3,2,2l0.1,0.2l0.2-0.1c0.6-0.3,3.7-2,6.7-2l0.1,0c3.3,0,6.4,1.3,8.7,3.6
				c2.4,2.4,3.7,5.5,3.7,8.9c0,2.9-1,5.8-2.9,8l-0.1,0.2l0.1,0.2c1.9,2.2,2.9,5.1,2.9,8c0,3.4-1.3,6.5-3.7,8.9
				c-2.3,2.3-5.4,3.6-8.7,3.6c-2.8,0-5.5-1.3-6.6-1.9l-0.2-0.1l-0.1,0.2c-0.6,0.7-1.3,1.4-2.1,2.1l-0.2,0.1l0.1,0.2
				c0.6,1.1,1.9,3.8,1.9,6.5c0,3.3-1.3,6.4-3.6,8.8C415,311.3,411.8,312.6,408.4,312.6z M401.3,284.1c0.2,0.2,0.4,0.4,0.6,0.7
				l0.1,0.1c0.2,0.2,0.3,0.4,0.5,0.6l0.1,0.1c0.2,0.2,0.3,0.4,0.4,0.6c0.2,0.3,0.3,0.5,0.5,0.7c0.3,0.5,0.7,1.1,1,1.7
				c0.1,0.2,0.2,0.4,0.3,0.6l0.1,0.2c0.1,0.2,0.2,0.4,0.2,0.6c0.2,0.5,0.4,1,0.5,1.4c0.1,0.4,0.2,0.8,0.3,1.3
				c0.1,0.4,0.2,0.9,0.2,1.3c0.1,0.8,0.2,1.6,0.2,2.4c0,0.3,0,0.6,0,0.9c0,0.5-0.1,0.9-0.1,1.4c0,0.3-0.1,0.6-0.1,0.8
				c0,0.2-0.2,0.7-0.2,0.7c0,0.2-0.2,0.6-0.2,0.6c-0.2,0.6-0.3,1.1-0.5,1.5l-0.1,0.3c-0.1,0.1-0.1,0.3-0.2,0.4l-0.3,0.7
				c-0.1,0.2-0.2,0.4-0.3,0.6c0,0-0.3,0.5-0.4,0.7l-0.2,0.3c-0.1,0.1-0.4,0.6-0.4,0.6c-0.1,0.2-0.3,0.4-0.4,0.6l-0.1,0.1
				c-0.1,0.2-0.2,0.3-0.4,0.5l-0.2,0.2c-0.1,0.2-0.2,0.3-0.4,0.4l-0.2,0.2l0.1,0.3c1.8,1.5,4.2,2.3,6.5,2.3c2.8,0,5.4-1.1,7.4-3.1
				c1.9-1.9,3-4.5,3-7.2c0-2-0.9-4.1-1.4-5.2l-0.1-0.3L417,295c-2.7,2-5.6,3.4-8.8,4.3c0.1-0.3,0.1-0.7,0.2-1c0-0.4,0.1-0.8,0.1-1.2
				c2.7-0.9,5.3-2.2,7.6-3.9c0.7-0.5,1.4-1.1,2.1-1.8c0.4-0.3,0.7-0.7,1.1-1.1c0.6-0.7,1.2-1.4,1.8-2.1c3.5-4.5,5.3-9.9,5.3-15.6
				c0-1.3-0.1-2.5-0.3-3.8l0-0.2l-0.2,0c-0.5-0.1-1.1-0.1-1.6-0.1c-0.6,0-1.2,0-1.8,0.1l-0.3,0l0,0.3c0.2,1.2,0.3,2.5,0.3,3.7
				c0,5-1.6,9.6-4.7,13.5c-0.6,0.7-1.2,1.4-1.8,2c-0.6,0.6-1.3,1.2-2,1.8c-1.8,1.4-3.7,2.4-5.7,3.2c-0.1-0.3-0.1-0.7-0.2-1
				c-0.1-0.4-0.2-0.7-0.3-1c1.8-0.7,3.5-1.7,5.1-2.9l0.2-0.2l-0.2-0.2c-2.1-2.9-4.5-5.7-7.1-8.4l-0.4-0.4l-0.5-0.5l-0.8-0.8
				l-3.7-3.7l-3.7,3.7l-0.8,0.8l-0.5,0.5l-0.4,0.4c-2.5,2.6-4.8,5.3-6.9,8.1l-0.2,0.2l0.2,0.2c3.5,2.9,8,4.5,12.6,4.5
				c0.9,0,1.8-0.1,2.7-0.2l0.3,0l-0.1-0.3c-0.2-0.5-0.4-1-0.6-1.5c-0.1-0.3-0.3-0.6-0.4-0.9c-0.2-0.3-0.3-0.6-0.5-0.9
				c-0.2-0.3-0.4-0.6-0.5-0.8l-0.1-0.1c-0.2-0.3-0.4-0.6-0.6-0.8l-0.2-0.3l-0.2,0.3c-0.8,1.1-1.5,2.2-2.1,3.4
				c-0.7-0.1-1.4-0.2-2.1-0.4c0.9-2,2.1-3.9,3.6-5.5l0.8-0.8L401.3,284.1z M383.3,294.7c-0.5,0.9-1.6,3.3-1.6,5.5
				c0,2.8,1.1,5.4,3,7.3c2,2,4.6,3.1,7.4,3.1c2.5,0,4.9-0.9,6.8-2.6l0.2-0.2l-0.2-0.2c-1.9-2.2-3.2-4.9-3.8-7.6l0-0.2l-0.2,0
				c-4-0.8-7.9-2.6-11.2-5.2l-0.3-0.2L383.3,294.7z M397.5,300.6c0.6,1.9,1.5,3.7,2.9,5.4l0.2,0.3l0.2-0.3c0.2-0.2,0.3-0.4,0.5-0.6
				l0.1-0.1c0.2-0.2,0.3-0.4,0.4-0.5l0.1-0.2c0.1-0.2,0.2-0.4,0.3-0.5l0.1-0.1c0.1-0.2,0.3-0.5,0.4-0.7c0.1-0.2,0.2-0.5,0.3-0.7
				l0.1-0.1c0.1-0.2,0.2-0.4,0.3-0.6l0-0.1c0.1-0.3,0.2-0.5,0.3-0.8l0.2-0.6l-0.4,0c-0.9,0.1-1.8,0.1-2.7,0.1c-0.9,0-1.9,0-2.9-0.1
				l-0.4,0L397.5,300.6z M376.1,280.1c0.9,2.8,2.2,5.4,4,7.8c0.5,0.7,1.1,1.4,1.7,2.1c0.3,0.3,0.6,0.6,0.9,0.9
				c0.6,0.6,1.3,1.2,2,1.8c4.6,3.6,10.1,5.5,15.9,5.5c1.1,0,2.2-0.1,3.3-0.2l0.2,0l0-0.2c0.1-0.5,0.1-1,0.1-1.5c0-0.6,0-1.3-0.1-1.9
				l0-0.3l-0.3,0c-1.1,0.2-2.1,0.2-3.2,0.2c-5,0-9.9-1.7-13.8-4.9c-0.6-0.5-1.3-1.1-1.9-1.7l-0.1-0.1c-0.6-0.6-1.1-1.2-1.6-1.9
				c-1.4-1.8-2.5-3.9-3.3-6c0.3-0.1,0.7-0.2,1-0.3c0.3-0.1,0.7-0.2,1-0.3c0.7,1.9,1.7,3.8,3,5.4l0.2,0.2l0.2-0.2
				c2.8-2,5.5-4.3,8-6.8l0.4-0.4l0.5-0.5l0.8-0.8l3.7-3.7l-3.7-3.7l-0.8-0.8l-0.5-0.5l-0.4-0.4c-2.5-2.4-5.1-4.7-7.8-6.7l-0.2-0.2
				l-0.2,0.2c-2.8,3.5-4.3,7.7-4.3,12.2c0,0.7,0,1.4,0.1,2.2l0,0.3l0.3-0.1c0.5-0.2,1-0.4,1.5-0.6c0.5-0.3,1.1-0.6,1.6-0.9
				c0.3-0.2,0.5-0.3,0.7-0.5l0.2-0.1c0.2-0.2,0.5-0.3,0.7-0.5l0.3-0.2l-0.3-0.2c-0.9-0.7-1.9-1.3-2.9-1.8c0.1-0.7,0.2-1.4,0.4-2.1
				c1.8,0.8,3.5,2,5,3.4l0.8,0.8l-0.8,0.8c-0.2,0.2-0.4,0.4-0.6,0.6l-0.7,0.5c-0.2,0.1-0.3,0.2-0.5,0.4l-0.2,0.1
				c-0.2,0.1-0.4,0.3-0.6,0.4l-0.1,0.1c-0.2,0.1-0.4,0.3-0.6,0.4c-0.3,0.2-0.5,0.3-0.7,0.4c-0.5,0.3-1,0.5-1.5,0.7l-0.2,0.1
				c-0.4,0.2-0.8,0.3-1.2,0.5c-0.4,0.1-0.8,0.3-1.3,0.4c-0.4,0.1-0.8,0.2-1.3,0.3c-0.9,0.2-1.9,0.2-2.8,0.2c-0.1,0-0.3,0-0.4,0
				c-0.5,0-1-0.1-1.4-0.1c-0.3,0-0.6-0.1-0.8-0.1c-0.2,0-0.4-0.1-0.5-0.1c-0.4-0.1-0.9-0.2-1.3-0.3c-0.3-0.1-0.4-0.1-0.6-0.2
				l-0.5-0.2l-0.3-0.1c-0.4-0.1-0.7-0.3-1.1-0.5c-0.2-0.1-0.3-0.1-0.4-0.2l-0.3-0.2l-0.4-0.2l-0.7-0.4c-0.1-0.1-0.3-0.2-0.4-0.3
				l-0.3-0.2c-0.2-0.1-0.4-0.2-0.5-0.4c0,0-0.5-0.4-0.6-0.5l-0.5-0.4l-0.2-0.2l-0.2,0.2c-1.7,1.9-2.6,4.3-2.6,6.8
				c0,2.8,1.1,5.4,3.1,7.4c1.9,1.9,4.5,3,7.2,3c2.5,0,5.3-1.5,5.6-1.7l0.3-0.1l-0.2-0.3c-2-2.7-3.5-5.7-4.3-9c0.3,0.1,0.7,0.1,1,0.1
				C375.2,280.1,375.7,280.1,376.1,280.1z M435.4,273.7c-2.2,1.8-4.7,3.1-7.3,3.7l-0.2,0l0,0.2c-0.8,4.1-2.5,8.1-5,11.5l-0.2,0.3
				l0.3,0.1c1.1,0.5,3.1,1.4,5,1.4h0c2.8,0,5.4-1.1,7.3-3c2-2,3.1-4.6,3.1-7.4c0-2.5-0.9-4.9-2.6-6.8l-0.2-0.2L435.4,273.7z
				 M406.3,276.9l0.5,0.5l0.4,0.4c2.7,2.6,5.5,5,8.4,7.1l0.2,0.2l0.2-0.2c2.8-3.5,4.4-7.9,4.4-12.3c0-1.1-0.1-2.1-0.3-3.2l-0.1-0.3
				l-0.3,0.1c-0.5,0.2-1,0.3-1.5,0.6c-0.6,0.3-1.3,0.6-1.9,1c-0.3,0.2-0.6,0.4-0.9,0.6l-0.1,0.1c-0.3,0.2-0.5,0.4-0.8,0.6l-0.3,0.2
				l0.3,0.2c1.1,0.9,2.3,1.6,3.6,2.2c-0.1,0.7-0.2,1.4-0.4,2.1c-2.1-0.9-4.1-2.1-5.8-3.7l-0.8-0.8l0.8-0.8c0.2-0.2,0.4-0.4,0.7-0.6
				l0.1-0.1c0.2-0.2,0.4-0.3,0.6-0.5l0.1-0.1c0.2-0.2,0.4-0.3,0.6-0.4c0.3-0.2,0.5-0.4,0.7-0.5c0.3-0.2,0.5-0.3,0.7-0.5
				c0.1-0.1,0.2-0.1,0.3-0.2c0.7-0.4,1.3-0.7,2-1c0.5-0.2,1-0.4,1.4-0.5c0.4-0.1,0.8-0.2,1.3-0.3c0.4-0.1,0.9-0.2,1.3-0.2
				c0.8-0.1,1.6-0.2,2.4-0.2c0.3,0,0.7,0,1,0c0.5,0,0.9,0.1,1.4,0.1c0.3,0,0.6,0.1,0.8,0.1l0.7,0.1l0.4,0.1c0.1,0,0.7,0.2,0.7,0.2
				c0.2,0.1,0.4,0.1,0.6,0.2c0,0,0.6,0.2,0.7,0.3l0.3,0.1c0.2,0.1,0.7,0.3,0.7,0.3s0.5,0.3,0.6,0.3l0.1,0.1c0.2,0.1,0.4,0.2,0.6,0.3
				l0.2,0.1c0.2,0.1,0.7,0.4,0.7,0.4c0.2,0.1,0.4,0.3,0.6,0.4c0.3,0.2,0.4,0.3,0.6,0.5l0.1,0.1c0.2,0.2,0.4,0.3,0.5,0.4l0.2,0.2
				l0.3-0.1c1.5-1.8,2.3-4.2,2.3-6.5c0-2.8-1.1-5.4-3.1-7.4c-1.9-1.9-4.5-3-7.2-3c-2.1,0-4.2,0.9-5.3,1.5l-0.3,0.1l0.2,0.3
				c2,2.6,3.5,5.5,4.5,8.7c-0.3-0.1-0.7-0.1-1-0.2c-0.4,0-0.8-0.1-1.3-0.1c-0.9-2.7-2.3-5.2-4.1-7.5c-0.6-0.7-1.2-1.4-1.8-2.1
				c-0.3-0.3-0.7-0.7-1-1c-0.7-0.6-1.4-1.2-2.1-1.7c-4.5-3.3-9.8-5.1-15.3-5.1c-1.1,0-2.3,0.1-3.5,0.2l-0.2,0l0,0.2
				c0,0.4,0,0.8,0,1.1c0,0.7,0.1,1.5,0.2,2.3l0,0.3l0.3,0c1.1-0.2,2.2-0.2,3.3-0.2c4.8,0,9.4,1.5,13.2,4.5c0.7,0.5,1.3,1.1,2,1.7
				c0.7,0.6,1.3,1.3,1.8,2c1.4,1.7,2.5,3.6,3.3,5.7c-0.3,0.1-0.7,0.1-1,0.2c-0.4,0.1-0.7,0.2-1.1,0.3c-0.8-1.8-1.8-3.5-3-5l-0.2-0.2
				l-0.2,0.2c-2.9,2.1-5.6,4.5-8.3,7l-0.4,0.4l-0.5,0.5l-0.8,0.8l-3.7,3.7l3.7,3.7l0,0L406.3,276.9z M392.5,248.2
				c-2.8,0.9-5.4,2.3-7.7,4.1c-0.7,0.6-1.4,1.2-2.1,1.8c-0.3,0.3-0.5,0.5-0.8,0.8c-0.6,0.7-1.2,1.4-1.8,2.1
				c-3.5,4.5-5.3,9.9-5.3,15.6c0,1,0.1,2,0.2,3l0,0.2l0.2,0c0.3,0,0.7,0,1,0c0.8,0,1.6-0.1,2.4-0.2l0.3,0l0-0.3
				c-0.1-1-0.2-1.9-0.2-2.8c0-4.9,1.6-9.6,4.6-13.4c0.5-0.6,1-1.3,1.6-1.8l0.1-0.2c0.6-0.6,1.2-1.1,1.8-1.6c1.8-1.4,3.8-2.6,5.9-3.4
				c0.1,0.3,0.2,0.7,0.2,1c0.1,0.3,0.2,0.7,0.3,1c-1.9,0.7-3.7,1.8-5.3,3.1l-0.2,0.2l0.2,0.2c2,2.7,4.3,5.4,6.7,7.8l0.4,0.4l0.5,0.5
				l0.8,0.8l3.7,3.7l3.7-3.7l0.8-0.8l0.5-0.5l0.4-0.4c2.5-2.6,4.9-5.4,7-8.2l0.2-0.2l-0.2-0.2c-3.5-2.7-7.6-4.1-12-4.1
				c-0.9,0-1.8,0.1-2.7,0.2l-0.3,0l0.1,0.3c0.2,0.5,0.4,1,0.6,1.5c0.1,0.3,0.3,0.5,0.4,0.8c0.2,0.3,0.3,0.6,0.5,0.9
				c0.2,0.3,0.3,0.5,0.5,0.7l0.1,0.2c0.2,0.2,0.3,0.5,0.5,0.7l0.2,0.3l0.2-0.3c0.8-1,1.4-2,2-3.1c0.7,0.1,1.4,0.2,2.1,0.4
				c-0.9,1.9-2,3.7-3.5,5.3l-0.8,0.8l-0.8-0.8c-0.2-0.2-0.4-0.4-0.6-0.6l-0.5-0.7c-0.1-0.2-0.3-0.3-0.4-0.5l-0.1-0.2
				c-0.1-0.2-0.3-0.4-0.4-0.6l-0.1-0.1c-0.1-0.2-0.3-0.4-0.4-0.7c-0.4-0.7-0.8-1.5-1.1-2.2l-0.1-0.3c-0.2-0.4-0.3-0.8-0.4-1.2
				c-0.1-0.4-0.3-0.8-0.4-1.3c-0.1-0.4-0.2-0.8-0.3-1.3c-0.2-0.9-0.2-1.8-0.2-2.7c0-0.2,0-0.4,0-0.5c0-0.5,0.1-1,0.1-1.4
				c0-0.3,0.1-0.6,0.1-0.8c0-0.2,0.1-0.4,0.1-0.5c0.1-0.6,0.3-1.3,0.5-1.9l0.1-0.4l0.1-0.4c0.2-0.5,0.4-1.1,0.7-1.6l0.1-0.2
				c0.1-0.1,0.1-0.3,0.2-0.4l0.4-0.6c0.1-0.1,0.4-0.6,0.4-0.6c0.1-0.2,0.3-0.4,0.4-0.6c0,0,0.4-0.5,0.5-0.6l0.4-0.5l0.2-0.2
				l-0.2-0.2c-1.9-1.7-4.3-2.6-6.8-2.6c-2.8,0-5.4,1.1-7.4,3.1c-1.9,2-3,4.5-3,7.3c0,2.4,1.4,5.2,1.7,5.7l0.2,0.3l0.3-0.2
				c2.7-2,5.7-3.5,8.9-4.5c-0.1,0.3-0.1,0.7-0.1,1C392.6,247.4,392.5,247.8,392.5,248.2z M372.7,268.9c-2.1,0.5-4.1,1.6-6,3
				l-0.3,0.2l0.3,0.2c0.2,0.2,0.4,0.3,0.7,0.5l0.1,0.1c0.2,0.2,0.4,0.3,0.6,0.4l0.2,0.1c0.2,0.1,0.5,0.3,0.7,0.4l0.1,0.1
				c0.2,0.1,0.4,0.2,0.6,0.3l0.2,0.1c0.2,0.1,0.4,0.2,0.6,0.3l0.1,0.1c0.2,0.1,0.5,0.2,0.8,0.3l0.1,0c0.3,0.1,0.5,0.2,0.7,0.2
				l0.7,0.2l0.1-0.4c-0.1-0.9-0.1-1.7-0.1-2.5c0-1.1,0.1-2.2,0.2-3.3l0-0.4L372.7,268.9z M428.2,269.4c0.1,1.1,0.2,2.1,0.2,3.1
				c0,0.7,0,1.5-0.1,2.3l0,0.4l0.4-0.1c1.8-0.6,3.6-1.5,5.2-2.8l0.3-0.2l-0.3-0.2c-0.2-0.2-0.4-0.3-0.6-0.5l-0.1-0.1
				c-0.2-0.2-0.4-0.3-0.5-0.4l-0.2-0.1c-0.1-0.1-0.3-0.2-0.5-0.3l-0.2-0.1c-0.2-0.1-0.4-0.2-0.7-0.4c-0.2-0.1-0.5-0.2-0.7-0.3
				l-0.1-0.1c-0.2-0.1-0.4-0.2-0.6-0.2l-0.2-0.1c-0.2-0.1-0.3-0.1-0.5-0.2l-0.6-0.2L428.2,269.4z M372.4,253.9c-2.7,0-5.3,1.1-7.2,3
				c-2,2-3.1,4.6-3.1,7.4c0,2.4,0.8,4.7,2.3,6.5l0.2,0.2l0.2-0.2c2.5-2.1,5.4-3.6,8.4-4.1l0.2,0l0-0.2c0.9-3.8,2.5-7.3,4.8-10.5
				l0.2-0.3l-0.3-0.2C377.7,255.3,375,253.9,372.4,253.9L372.4,253.9z M408.4,234.3c-2.4,0-4.7,0.8-6.5,2.3l-0.2,0.2l0.2,0.2
				c2,2.4,3.5,5.2,4.1,8.1l0,0.2l0.2,0c3.9,0.8,7.5,2.4,10.7,4.7l0.3,0.2l0.1-0.3c0.5-0.9,1.5-3.2,1.5-5.3c0-2.7-1-5.3-3-7.3
				C413.9,235.4,411.2,234.3,408.4,234.3z M400.3,238.9c-0.2,0.2-0.3,0.4-0.5,0.7l-0.1,0.2c-0.1,0.2-0.3,0.4-0.4,0.5l-0.1,0.2
				c-0.3,0.5-0.6,0.9-0.8,1.4l0,0.1c-0.1,0.3-0.2,0.5-0.3,0.7c-0.2,0.6-0.4,1.1-0.6,1.7l-0.2,0.7l0.4,0c1-0.1,2-0.2,2.9-0.2
				c0.9,0,1.9,0,2.8,0.1l0.4,0l-0.1-0.4c-0.6-2-1.6-4-2.9-5.7l-0.2-0.3L400.3,238.9z"/>
			<g>
				<path class="st2" d="M399.9,326.9c-0.3-0.1-26.5-11.4-36.5-31.7h1.2c8.6,15.7,27.4,25.4,35.2,28.8l0.3,0.1l0.1-0.1
					c0.2-0.1,0.4-0.2,0.8-0.3c18.9-8,29.2-19.9,34.5-28.6h1.3c-10,20.2-36.2,31.6-36.5,31.7l-0.2,0.1L399.9,326.9z"/>
				<path class="st2" d="M400,333.9c-0.1,0-11.7-4.4-23.1-13.2c-10.4-8.1-22.8-21.6-22.8-40.7v-53.4h92.7V280c0,14.7-8,28.7-23,40.5
					c-11.3,8.8-22.4,13.2-22.9,13.4l-0.4,0.2L400,333.9z M356.5,280c0,33.1,39.3,49.6,43.8,51.4l0.1,0l0.1,0
					c4.5-1.9,43.8-19.5,43.8-51.4v-50.9h-87.7V280z"/>
			</g>
		</g>
	</g>
	<g>
		<g>
			<path class="st2" d="M259.9,540.6c0,4.3-3.6,7.4-7.8,7.4c-4.2,0-7.7-3-7.7-7.3c0-4,3.5-7.4,7.9-7.3
				C256.8,533.4,259.9,536.8,259.9,540.6z M246.8,540.5c0,3,2.1,6,5.4,6c3.2,0,5.3-2.3,5.3-5.5c0-3.1-2-6.1-5.3-6.1
				C248.9,535,246.8,537.3,246.8,540.5z"/>
			<path class="st2" d="M269.1,533.8c2.7,0,4.8,1.3,4.8,3.7c0,2.4-2.3,4-4.7,4c-0.5,0-1.1-0.1-1.5-0.3c1.8-0.1,3.8-1.2,3.8-3.3
				c0-1.9-1.3-2.6-3-2.6c-0.5,0-1,0-1.5,0.1v9.5c0,1.2,0,2,1.1,2.7v0.1h-4.2v-0.1c1.1-0.4,1-1.9,1-2.9v-8c0-1,0.1-2.5-0.9-2.9v-0.1
				H269.1z"/>
			<path class="st2" d="M282.3,545c0,1.2,0,2,1.1,2.7v0.1h-4.2v-0.1c1.1-0.4,0.9-1.9,0.9-2.9v-9.4h-1.9c-0.9,0-1.9,0.2-2.5,0.8h-0.1
				l0.7-2.5h0.1c0.3,0.1,0.5,0.1,0.8,0.1h8.4c0.4,0,0.7,0,1-0.1h0.1l-0.7,2.5H286c-0.3-0.7-1.1-0.8-1.8-0.8h-1.9V545z"/>
			<path class="st2" d="M290.5,536.8c0-1,0.1-2.5-0.9-2.9v-0.1h4v0.1c-1.1,0.4-0.9,2-0.9,2.9v8c0,1-0.1,2.5,0.9,2.9v0.1h-4v-0.1
				c1.1-0.4,0.9-1.9,0.9-2.9V536.8z"/>
			<path class="st2" d="M308.5,536.4c-1.2-0.7-2.5-1.2-3.9-1.2c-2.9,0-4.9,2.1-4.9,5.2c0,3.1,2.1,5.9,5.4,5.9c1.6,0,3.2-0.6,4.5-1.3
				h0.1l-1.1,2.5c-1,0.5-2.1,0.6-3.2,0.6c-5,0-8.1-2.8-8.1-7.3c0-4.4,3.1-7.3,7.4-7.3c1.3,0,2.6,0.2,3.8,0.5V536.4z"/>
			<path class="st2" d="M316.7,542.5l-1.1,3c-0.4,1.2-0.6,1.8,0.4,2.2v0.1h-3.9v-0.1c1.2-0.6,1.6-1.8,2.1-3l3.5-8.8
				c0.3-0.8,0.7-1.6-0.3-2v-0.1h3.3l4.4,10.8c0.5,1.2,0.9,2.4,2.1,3v0.1h-4.3v-0.1c1-0.5,0.9-0.7,0.3-2.2l-1.1-3H316.7z
				 M319.3,535.6l-2.1,5.3h4.2L319.3,535.6z"/>
			<path class="st2" d="M336.7,546.2c1.4,0.1,2.7-0.4,3.7-1.3h0.1l-1.1,2.8h-8.7v-0.1c1.1-0.4,1-1.9,1-2.9v-8c0-1,0.1-2.5-1-2.9
				v-0.1h4v0.1c-1.1,0.4-0.9,2-0.9,2.9v9.2L336.7,546.2z"/>
			<path class="st2" d="M350.2,546.2c1.4,0.1,2.7-0.4,3.7-1.3h0.1l-1.1,2.8h-8.7v-0.1c1.1-0.4,1-1.9,1-2.9v-8c0-1,0.1-2.5-1-2.9
				v-0.1h4v0.1c-1.1,0.4-0.9,2-0.9,2.9v9.2L350.2,546.2z"/>
			<path class="st2" d="M362.8,545c0,1.3,0,1.9,1.1,2.7v0.1h-4.1v-0.1c1-0.5,0.9-1.9,0.9-2.9v-3.1l-3.5-5.6c-0.6-0.9-1-1.6-2-2.2
				h1.9c0.7,0,1.3,0.1,1.6,0.6l3.4,5.5l2.6-3.9c0.4-0.5,0.8-1.5-0.3-2.1v-0.1h3.7l-5.2,7.8V545z"/>
			<path class="st2" d="M384.3,533.8c2.7,0,4.8,1.3,4.8,3.7c0,2.4-2.3,4-4.7,4c-0.5,0-1.1-0.1-1.5-0.3c1.8-0.1,3.8-1.2,3.8-3.3
				c0-1.9-1.3-2.6-3-2.6c-0.5,0-1,0-1.5,0.1v9.5c0,1.2,0,2,1.1,2.7v0.1h-4.2v-0.1c1.1-0.4,1-1.9,1-2.9v-8c0-1,0.1-2.5-0.9-2.9v-0.1
				H384.3z"/>
			<path class="st2" d="M402.2,546.3c-0.9,1.2-2.7,1.7-4.1,1.7c-1.4,0-2.9-0.4-3.8-1.5c-1.1-1.2-1.1-2.6-1.1-4.2v-5.6
				c0-1,0.1-2.5-0.9-2.9v-0.1h4v0.1c-1.1,0.4-0.9,1.9-0.9,2.9v5.6c0,2.8,1.2,4.1,3.4,4.1c1.2,0,2.4-0.5,3.1-1.5
				c0.5-0.6,0.4-1.2,0.4-1.9v-6.4c0-1,0.1-2.5-0.9-2.9v-0.1h4l0,0.1c-1.1,0.4-1,1.9-1,2.9v8c0,1-0.1,2.5,1,2.9v0.1h-3.1V546.3z"/>
			<path class="st2" d="M414.5,533.8c2.8,0,4.4,1.5,4.4,3.4c0,1.9-1.6,3.3-3.4,3.7l3,3.8c0.9,1.1,2.2,2.2,3.4,3h-1.9
				c-1.1,0-1.8-0.3-2.5-1.1l-2.6-3.2l-1.9-3c1.7-0.3,3.7-1,3.7-3c0-1.5-1.3-2.4-2.7-2.3c-0.5,0-1,0.1-1.4,0.2v9.5c0,1-0.1,2.5,1,2.9
				v0.1h-4v-0.1c1.1-0.4,0.9-1.9,0.9-2.9v-8c0-1,0.1-2.5-0.9-2.9v-0.1H414.5z"/>
			<path class="st2" d="M426.6,545.9l2.7,0.3c1.4,0.1,2.9-0.3,3.9-1.2h0.1l-1,2.8h-8.8v-0.1c1.1-0.4,1-1.9,1-2.9v-8
				c0-1,0.1-2.5-1-2.9v-0.1h7.5c0.4,0,0.7,0,1-0.1h0.1v2.5H432c-0.7-0.8-1.5-0.8-2.5-0.8c-0.7,0-2.2,0-2.9,0.1v3.9h3.2
				c0.3,0,0.7,0,0.9-0.1h0.1v2.2h-0.1c-0.3-0.6-1.2-0.6-1.9-0.6h-2.3V545.9z"/>
			<path class="st2" d="M446.3,536.7c0-1,0.1-2.5-0.9-2.8v-0.1h5.2c4.8,0,7.8,2.6,7.8,6.8c0,4.2-3.2,7.1-7.9,7.1h-5.1v-0.1
				c1.1-0.7,0.9-1.7,0.9-3V536.7z M448.5,546c0.5,0.1,1,0.1,1.5,0.1c3.2,0,6-1.6,6-5.3c0-3.7-2.1-5.6-5.6-5.6
				c-0.6,0-1.3,0.1-1.9,0.2V546z"/>
			<path class="st2" d="M463.2,536.8c0-1,0.1-2.5-0.9-2.9v-0.1h4v0.1c-1.1,0.4-0.9,2-0.9,2.9v8c0,1-0.1,2.5,0.9,2.9v0.1h-4v-0.1
				c1.1-0.4,0.9-1.9,0.9-2.9V536.8z"/>
			<path class="st2" d="M481.3,536.4c-1.2-0.7-2.5-1.2-3.9-1.2c-2.9,0-4.9,2.1-4.9,5.2c0,3.1,2.1,5.9,5.4,5.9c1.6,0,3.2-0.6,4.5-1.3
				h0.1l-1.1,2.5c-1,0.5-2.1,0.6-3.2,0.6c-5,0-8.1-2.8-8.1-7.3c0-4.4,3.1-7.3,7.4-7.3c1.3,0,2.6,0.2,3.8,0.5V536.4z"/>
			<path class="st2" d="M488.6,540.9v3.8c0,1-0.1,2.5,0.9,2.9v0.1h-4v-0.1c1.1-0.4,0.9-1.9,0.9-2.9v-8c0-1,0.1-2.5-0.9-2.9v-0.1h4
				v0.1c-1.1,0.4-0.9,1.9-0.9,2.9v2.6h7.6v-2.6c0-1,0.1-2.5-0.9-2.9v-0.1h4v0.1c-1.1,0.4-1,1.9-1,2.9v8c0,1-0.1,2.5,1,2.9v0.1h-4
				v-0.1c1.1-0.4,0.9-1.9,0.9-2.9v-3.8H488.6z"/>
			<path class="st2" d="M508.4,533.8c2.8,0,4.4,1.5,4.4,3.4c0,1.9-1.6,3.3-3.4,3.7l3,3.8c0.9,1.1,2.2,2.2,3.4,3h-1.9
				c-1.1,0-1.8-0.3-2.5-1.1l-2.6-3.2l-1.9-3c1.7-0.3,3.7-1,3.7-3c0-1.5-1.3-2.4-2.7-2.3c-0.5,0-1,0.1-1.4,0.2v9.5c0,1-0.1,2.5,1,2.9
				v0.1h-4v-0.1c1.1-0.4,0.9-1.9,0.9-2.9v-8c0-1,0.1-2.5-0.9-2.9v-0.1H508.4z"/>
			<path class="st2" d="M532.5,540.6c0,4.3-3.6,7.4-7.8,7.4c-4.2,0-7.7-3-7.7-7.3c0-4,3.5-7.4,7.9-7.3
				C529.4,533.4,532.5,536.8,532.5,540.6z M519.4,540.5c0,3,2.1,6,5.4,6c3.2,0,5.3-2.3,5.3-5.5c0-3.1-2-6.1-5.3-6.1
				C521.5,535,519.4,537.3,519.4,540.5z"/>
			<path class="st2" d="M537.2,536.8c0-1,0.1-2.5-0.9-2.9v-0.1h4v0.1c-1.1,0.4-0.9,2-0.9,2.9v8c0,1-0.1,2.5,0.9,2.9v0.1h-4v-0.1
				c1.1-0.4,0.9-1.9,0.9-2.9V536.8z"/>
			<path class="st2" d="M555.3,536.4c-1.2-0.7-2.5-1.2-3.9-1.2c-2.9,0-4.9,2.1-4.9,5.2c0,3.1,2.1,5.9,5.4,5.9c1.6,0,3.2-0.6,4.5-1.3
				h0.1l-1.1,2.5c-1,0.5-2.1,0.6-3.2,0.6c-5,0-8.1-2.8-8.1-7.3c0-4.4,3.1-7.3,7.4-7.3c1.3,0,2.6,0.2,3.8,0.5V536.4z"/>
			<path class="st2" d="M321.9,561.6L321.9,561.6c-0.9-1-2.5-1.3-3.8-1.3c-3.3,0-5.8,2.2-5.8,5.6c0,3.4,2.7,6,6,6c1,0,2-0.1,2.9-0.4
				v-3c0-1,0-2-1-2.4V566h3.2v0.1c-0.1,0.3-0.1,0.6-0.1,0.9v4.9c0,0.3,0,0.7,0.1,1c-1.7,0.3-3.3,0.6-5.1,0.6c-5.4,0-8.6-3-8.6-7.2
				c0-4.5,3.6-7.4,8.7-7.4c1.1,0,2.2,0.1,3.3,0.4V561.6z"/>
			<path class="st2" d="M333.2,571.6c1.4,0.1,2.7-0.4,3.7-1.3h0.1l-1.1,2.8h-8.7V573c1.1-0.4,1-1.9,1-2.9v-8c0-1,0.1-2.5-1-2.9v-0.1
				h4v0.1c-1.1,0.4-0.9,2-0.9,2.9v9.2L333.2,571.6z"/>
			<path class="st2" d="M344.5,567.9l-1.1,3c-0.4,1.2-0.6,1.8,0.4,2.2v0.1h-3.9V573c1.2-0.6,1.6-1.8,2.1-3l3.5-8.8
				c0.3-0.8,0.7-1.6-0.3-2v-0.1h3.3l4.4,10.8c0.5,1.2,0.9,2.4,2.1,3v0.1h-4.3V573c1-0.5,0.9-0.7,0.3-2.2l-1.1-3H344.5z M347.2,561
				l-2.1,5.3h4.2L347.2,561z"/>
			<path class="st2" d="M366.6,561.7c-0.8-0.8-2.1-1.3-3.3-1.3c-1.2,0-2.7,0.5-2.7,1.9c0,2.9,7.3,2.9,7.3,6.8c0,2.3-2.4,4.4-5.7,4.4
				c-1.3,0-2.6-0.2-3.8-0.6l-0.6-2.6c1.2,1.1,3,1.8,4.6,1.8c1.2,0,3-0.7,3-2.2c0-3.3-7.3-2.7-7.3-7.2c0-2.7,2.7-3.7,5.3-3.7
				c1.1,0,2.1,0.1,3.2,0.5V561.7z"/>
			<path class="st2" d="M380.2,561.7c-0.8-0.8-2.1-1.3-3.3-1.3c-1.2,0-2.7,0.5-2.7,1.9c0,2.9,7.3,2.9,7.3,6.8c0,2.3-2.4,4.4-5.7,4.4
				c-1.3,0-2.6-0.2-3.8-0.6l-0.6-2.6c1.2,1.1,3,1.8,4.6,1.8c1.2,0,3-0.7,3-2.2c0-3.3-7.3-2.7-7.3-7.2c0-2.7,2.7-3.7,5.3-3.7
				c1.1,0,2.1,0.1,3.2,0.5V561.7z"/>
			<path class="st2" d="M394.8,562.1c0-1,0.1-2.5-0.9-2.8v-0.1h5.2c4.8,0,7.8,2.6,7.8,6.8c0,4.2-3.2,7.1-7.9,7.1h-5.1V573
				c1.1-0.7,0.9-1.7,0.9-3V562.1z M397,571.4c0.5,0.1,1,0.1,1.5,0.1c3.2,0,6-1.6,6-5.3c0-3.7-2.1-5.6-5.6-5.6
				c-0.6,0-1.3,0.1-1.9,0.2V571.4z"/>
			<path class="st2" d="M414,571.3l2.7,0.3c1.4,0.1,2.9-0.3,3.9-1.2h0.1l-1,2.8h-8.8V573c1.1-0.4,1-1.9,1-2.9v-8c0-1,0.1-2.5-1-2.9
				v-0.1h7.5c0.4,0,0.7,0,1-0.1h0.1v2.5h-0.1c-0.7-0.8-1.5-0.8-2.5-0.8c-0.7,0-2.2,0-2.9,0.1v3.9h3.2c0.3,0,0.7,0,0.9-0.1h0.1v2.2
				h-0.1c-0.3-0.6-1.2-0.6-1.9-0.6H414V571.3z"/>
			<path class="st2" d="M432.6,561.7c-0.8-0.8-2.1-1.3-3.3-1.3c-1.2,0-2.7,0.5-2.7,1.9c0,2.9,7.3,2.9,7.3,6.8c0,2.3-2.4,4.4-5.7,4.4
				c-1.3,0-2.6-0.2-3.8-0.6l-0.6-2.6c1.2,1.1,3,1.8,4.6,1.8c1.2,0,3-0.7,3-2.2c0-3.3-7.3-2.7-7.3-7.2c0-2.7,2.7-3.7,5.3-3.7
				c1.1,0,2.1,0.1,3.2,0.5V561.7z"/>
			<path class="st2" d="M438.8,562.2c0-1,0.1-2.5-0.9-2.9v-0.1h4v0.1c-1.1,0.4-0.9,2-0.9,2.9v8c0,1-0.1,2.5,0.9,2.9v0.1h-4V573
				c1.1-0.4,0.9-1.9,0.9-2.9V562.2z"/>
			<path class="st2" d="M457.6,561.6L457.6,561.6c-0.9-1-2.5-1.3-3.8-1.3c-3.3,0-5.8,2.2-5.8,5.6c0,3.4,2.7,6,6,6c1,0,2-0.1,2.9-0.4
				v-3c0-1,0-2-1-2.4V566h3.2v0.1c-0.1,0.3-0.1,0.6-0.1,0.9v4.9c0,0.3,0,0.7,0.1,1c-1.7,0.3-3.3,0.6-5.1,0.6c-5.4,0-8.6-3-8.6-7.2
				c0-4.5,3.6-7.4,8.7-7.4c1.1,0,2.2,0.1,3.3,0.4V561.6z"/>
			<path class="st2" d="M465.4,570.3c0,1.2,0,2,1.1,2.7v0.1h-3.7V573c1.1-0.7,1.1-1.5,1.1-2.7v-8.4c0-1.2,0-2-1.1-2.7v-0.1h3.1v0
				c0.1,0.3,0.2,0.4,0.3,0.5l0.3,0.4l7.7,9.8v-8c0-1.2,0-2-1.1-2.7v-0.1h3.7v0.1c-1.1,0.6-1.1,1.5-1.1,2.7v11.9
				c-1.5-0.5-2.2-1.2-3.1-2.4l-7.3-9.2V570.3z"/>
			<path class="st2" d="M488.9,561.7c-0.8-0.8-2.1-1.3-3.3-1.3c-1.2,0-2.7,0.5-2.7,1.9c0,2.9,7.3,2.9,7.3,6.8c0,2.3-2.4,4.4-5.7,4.4
				c-1.3,0-2.6-0.2-3.8-0.6l-0.6-2.6c1.2,1.1,3,1.8,4.6,1.8c1.2,0,3-0.7,3-2.2c0-3.3-7.3-2.7-7.3-7.2c0-2.7,2.7-3.7,5.3-3.7
				c1.1,0,2.1,0.1,3.2,0.5V561.7z"/>
		</g>
		<rect x="391.7" y="505.4" class="st2" width="17.5" height="1.9"/>
	</g>
</g>
</svg>
