<?xml version="1.0" encoding="utf-8"?>
<!-- Generator: Adobe Illustrator 24.2.1, SVG Export Plug-In . SVG Version: 6.00 Build 0)  -->
<svg version="1.1" id="Layer_1" xmlns="http://www.w3.org/2000/svg" xmlns:xlink="http://www.w3.org/1999/xlink" x="0px" y="0px"
	 viewBox="0 0 800 800" style="enable-background:new 0 0 800 800;" xml:space="preserve">
<style type="text/css">
	.st0{fill-rule:evenodd;clip-rule:evenodd;fill:#FFFFFF;}
	.st1{fill:url(#SVGID_1_);}
	.st2{fill:url(#SVGID_2_);}
	.st3{fill:#595959;}
</style>
<rect x="-0.4" y="-0.5" class="st0" width="801.5" height="801.5"/>
<g>
	
		<linearGradient id="SVGID_1_" gradientUnits="userSpaceOnUse" x1="46.7467" y1="668.3611" x2="85.096" y2="668.3611" gradientTransform="matrix(3.0094 0 0 -3.0094 -2.0094 2411.6257)">
		<stop  offset="0" style="stop-color:#FF9B57"/>
		<stop  offset="1" style="stop-color:#F2853B"/>
	</linearGradient>
	<path class="st1" d="M237.2,478.2l-3.9,20c0,0.7-1.1,1.4-1.8,1.1c-0.7,0-1.4-1.1-1.1-1.8l3.9-20c0-0.7,1.1-1.4,1.8-1.1l0,0
		C236.9,476.4,237.2,477.5,237.2,478.2z M186.4,443.5L186.4,443.5c-0.4-0.7-1.4-0.7-2.1-0.4l-16.8,11.5c-0.7,0.4-0.7,1.4-0.4,2.1
		l0,0c0.4,0.7,1.4,0.7,2.1,0.4l16.8-11.5C186.8,445,187.1,443.9,186.4,443.5z M248.3,463.6c-33.6-1.8-60.5-29.3-60.5-63.3
		s26.8-61.9,60.5-63.3v16.8h5.7v-66.2h-5.7v43.7c-7.2,0.4-14.3,1.8-20.8,4.3l-16.8-40.1l-5.4,2.1l16.8,40.4
		c-6.4,2.9-12.5,7.2-17.5,11.8l-31.1-31.1l-3.9,3.9l30.8,30.8c-4.7,5.4-8.9,11.1-11.8,17.5l-40.1-16.5l-2.1,5.4l40.1,16.8
		c-2.5,6.4-3.9,13.6-4.3,20.8h-43.3v5.7h43.7c0.4,7.2,1.8,14.3,4.3,20.8l-40.1,16.8l2.1,5.4l40.4-16.8c2.9,6.4,7.2,12.5,11.8,17.5
		l-30.8,30.8l3.9,3.9l30.8-30.8c5.4,4.7,11.1,8.9,17.5,11.8l-16.8,40.4l5.4,2.1l16.8-40.1c6.4,2.5,13.6,3.9,20.8,4.3v43.7h5.7v-66.2
		h-5.7v16.8H248.3z M207.9,465L207.9,465c-0.7-0.4-1.4-0.4-2.1,0.4l-11.1,16.8c-0.4,0.7-0.4,1.4,0.4,2.1c0.7,0.4,1.4,0.4,2.1-0.4
		l11.5-16.8C208.9,466.1,208.6,465.4,207.9,465z M234.3,322.6c0,0.7,1.1,1.4,1.8,1.1c0.7,0,1.4-1.1,1.1-1.8l-3.9-20
		c0-0.7-1.1-1.4-1.8-1.1l0,0c-0.7,0-1.4,1.1-1.1,1.8L234.3,322.6z M167.8,346.2l16.8,11.5c0.7,0.4,1.4,0.4,2.1-0.4
		c0.4-0.7,0.4-1.4-0.4-2.1l-16.8-11.5c-0.7-0.4-1.4-0.4-2.1,0.4S167.1,345.5,167.8,346.2z M206.1,335.1c0.4,0.7,1.4,0.7,2.1,0.4l0,0
		c0.7-0.4,0.7-1.4,0.4-2.1l-11.5-16.8c-0.4-0.7-1.4-0.7-2.1-0.4c-0.7,0.4-0.7,1.4-0.4,2.1L206.1,335.1z M173.2,386.3
		c0.7,0,1.4-0.4,1.8-1.1l0,0c0-0.7-0.4-1.4-1.1-1.8l-20-3.9c-0.7,0-1.4,0.4-1.8,1.1c0,0.7,0.4,1.4,1.1,1.8L173.2,386.3z M153.8,421
		l20-3.9c0.7,0,1.4-1.1,1.1-1.8c0-0.7-1.1-1.4-1.8-1.1l-20,3.9c-0.7,0-1.4,1.1-1.1,1.8l0,0C152.4,420.6,153.1,421,153.8,421z"/>
	<g>
		
			<linearGradient id="SVGID_2_" gradientUnits="userSpaceOnUse" x1="76.8743" y1="672.2255" x2="220.6293" y2="672.2255" gradientTransform="matrix(3.0094 0 0 -3.0094 -2.0094 2411.6257)">
			<stop  offset="0" style="stop-color:#F2853B"/>
			<stop  offset="1" style="stop-color:#EA3F68"/>
		</linearGradient>
		<path class="st2" d="M287.3,373.4h27.2v1.8h-11.1v28.3h-5v-28.3h-11.1V373.4L287.3,373.4z M365.7,388.8l-10.4-15.4h-5.4l12.2,17.9
			v12.5h5v-13.2l11.8-17.2h-2.9L365.7,388.8z M345.3,403.8v-30.4h-5v14h-15.4v-14h-5v30.4h5v-14.7h15.4v14.7H345.3z M288.7,403.8
			h-5.4l-4.7-10h-12.9l-4.7,10h-2.5l14.7-31.1h1.4L288.7,403.8z M278,391.6l-5.4-12.2l-5.7,12.2H278z M258,403.8l-19.3-17.5l15-12.9
			h-3.2l-16.1,13.2V373h-5v30.4h5v-15.4l16.8,15.4h6.8V403.8z M534.2,372.7l14.3,31.1h-5.4l-4.7-10h-12.9l-4.7,10h-2.5l14.7-31.1
			H534.2z M537.4,391.6l-5.4-12.2l-5.7,12.2H537.4z M558.2,403.8h-5.4v-30.4h10.4c1.8,0,3.6,0.4,4.7,0.7c1.4,0.4,2.5,1.1,3.6,1.8
			c1.1,0.7,1.4,1.4,2.1,2.5c0.4,1.1,0.7,2.1,0.7,3.2s0,1.8-0.4,2.5c-0.4,0.7-0.7,1.4-1.4,2.1c-0.7,0.7-1.4,1.1-2.5,1.8
			c-1.1,0.4-1.8,0.7-2.9,1.1l11.1,14.7h-6.1l-10.7-14.3h-3.6v14.3H558.2z M558.2,387.7h2.9c1.1,0,2.1,0,3.2-0.4
			c1.1-0.4,1.8-0.7,2.5-1.4c0.7-0.7,1.4-1.1,1.8-2.1c0.4-0.7,0.7-1.8,0.7-2.9s0-1.8-0.4-2.5c-0.4-0.7-0.7-1.4-1.4-1.8
			c-0.7-0.7-1.1-1.1-2.1-1.4c-0.7-0.4-1.8-0.4-2.5-0.4h-4.7V387.7L558.2,387.7z M602.9,385.6c-0.7,1.1-1.4,1.8-2.1,2.5
			c-1.1,0.7-2.1,1.1-3.2,1.4c-1.1,0.4-2.5,0.4-3.6,0.4c-0.7,0-1.1,0-1.8,0c-0.7,0-1.1,0-1.8,0c-0.7,0-1.1,0-1.4,0
			c-0.4,0-0.7,0-1.1-0.4v14h-5V373h9.7c1.4,0,3.2,0.4,4.3,0.7c1.4,0.4,2.5,1.1,3.6,1.8c1.1,0.7,1.8,1.8,2.5,2.9
			c0.7,1.1,0.7,2.1,0.7,3.6S603.3,384.5,602.9,385.6z M598.3,382.3c0-1.1,0-1.8-0.4-2.9c-0.4-0.7-0.7-1.4-1.4-2.1
			c-0.7-0.7-1.4-1.1-2.1-1.4c-0.7-0.4-1.8-0.4-2.5-0.4h-3.6v12.5c0.7,0,1.1,0.4,1.8,0.4c0.7,0,1.4,0.4,2.1,0.4c1.1,0,2.1,0,2.9-0.4
			c0.7-0.4,1.4-0.7,2.1-1.4c0.7-0.7,1.1-1.1,1.1-2.1C597.9,383.8,598.3,383.1,598.3,382.3z M641.6,403.8h-5v-30.4h10.4
			c1.8,0,3.6,0.4,4.7,0.7c1.4,0.4,2.5,1.1,3.6,1.8c1.1,0.7,1.4,1.4,2.1,2.5c0.4,1.1,0.7,2.1,0.7,3.2s0,1.8-0.4,2.5
			c-0.4,0.7-0.7,1.4-1.4,2.1c-0.7,0.7-1.4,1.1-2.5,1.8c-1.1,0.4-1.8,0.7-2.9,1.1l11.1,14.7h-6.1l-10.7-14.3h-3.6L641.6,403.8
			L641.6,403.8z M641.6,387.7h2.9c1.1,0,2.1,0,3.2-0.4c1.1-0.4,1.8-0.7,2.5-1.4s1.4-1.1,1.8-2.1c0.4-0.7,0.7-1.8,0.7-2.9
			s0-1.8-0.4-2.5c-0.4-0.7-0.7-1.4-1.4-1.8c-0.7-0.7-1.1-1.1-2.1-1.4c-0.7-0.4-1.8-0.4-2.5-0.4h-4.7L641.6,387.7L641.6,387.7z
			 M609,403.8h21.1V402H614v-13.6h10.7v-1.8H614v-10.7h16.1v-1.8H609V403.8z M436.2,395.6L436.2,395.6l-20-22.2h-2.9v30.4h2.1v-24
			h0.4l21.5,24.7h1.1v-31.1h-2.1V395.6z M397.5,388.8l11.1,14.7h-6.1l-10.7-14.3h-3.6v14.3h-5V373h10.4c1.8,0,3.6,0.4,4.7,0.7
			c1.4,0.4,2.5,1.1,3.6,1.8s1.4,1.4,2.1,2.5c0.4,1.1,0.7,2.1,0.7,3.2s0,1.8-0.4,2.5c-0.4,0.7-0.7,1.4-1.4,2.1s-1.4,1.1-2.5,1.8
			C399.7,388.4,399,388.8,397.5,388.8z M397.5,385.9c0.7-0.7,1.4-1.1,1.8-2.1c0.4-0.7,0.7-1.8,0.7-2.9s0-1.8-0.4-2.5
			c-0.4-0.7-0.7-1.4-1.4-1.8c-0.7-0.7-1.1-1.1-2.1-1.4c-0.7-0.4-1.8-0.4-2.5-0.4h-4.7v12.5h2.9c1.1,0,2.1,0,3.2-0.4
			C395.7,387,396.8,386.6,397.5,385.9z M508.5,387h-15.4v-14h-5v30.4h5v-14.3h15.4v14.7h5v-30.4h-5V387z M446.9,403.8H468V402h-16.1
			v-13.6h10.7v-1.8h-10.7v-10.7H468v-1.8h-21.1V403.8z"/>
		<g>
			<path class="st3" d="M232.9,427.4c-1.1-0.7-2.1-1.4-2.9-2.5c-0.7-1.1-1.1-2.5-1.1-3.6c0-1.4,0.4-2.5,1.1-3.6s1.4-1.8,2.9-2.5
				c1.1-0.7,2.5-1.1,3.9-1.1c1.1,0,2.1,0.4,3.2,0.7c1.1,0.4,1.8,1.1,2.5,1.8l-1.8,1.1c-1.1-1.1-2.1-1.8-3.6-1.8
				c-1.1,0-1.8,0.4-2.5,0.7s-1.4,1.1-1.8,1.8c-0.4,0.7-0.7,1.4-0.7,2.5c0,1.1,0.4,1.8,0.7,2.5c0.4,0.7,1.1,1.4,1.8,1.8
				c0.7,0.4,1.8,0.7,2.5,0.7c1.4,0,2.9-0.7,3.6-1.8l1.8,1.4c-0.7,0.7-1.4,1.4-2.5,1.8c-1.1,0.4-2.1,0.7-3.2,0.7
				C235.4,428.1,234,427.8,232.9,427.4z"/>
			<path class="st3" d="M254.7,427.4c-1.1-0.7-2.1-1.4-2.9-2.5c-0.7-1.1-1.1-2.5-1.1-3.6s0.4-2.5,1.1-3.6c0.7-1.1,1.4-1.8,2.9-2.5
				c1.1-0.7,2.5-1.1,3.9-1.1s2.9,0.4,3.9,1.1c1.1,0.7,2.1,1.4,2.9,2.5c0.7,1.1,1.1,2.5,1.1,3.6c0,1.4-0.4,2.5-1.1,3.6
				c-0.7,1.1-1.4,1.8-2.9,2.5c-1.1,0.7-2.5,1.1-3.9,1.1S255.8,427.8,254.7,427.4z M261.2,425.3c0.7-0.4,1.4-1.1,1.8-1.8
				c0.4-0.7,0.7-1.4,0.7-2.5c0-1.1-0.4-1.8-0.7-2.5c-0.4-0.7-1.1-1.4-1.8-1.8c-0.7-0.4-1.4-0.7-2.5-0.7c-1.1,0-1.8,0.4-2.5,0.7
				c-0.7,0.4-1.4,1.1-1.8,1.8c-0.4,0.7-0.7,1.4-0.7,2.5c0,1.1,0.4,1.8,0.7,2.5c0.4,0.7,1.1,1.4,1.8,1.8c0.7,0.4,1.4,0.7,2.5,0.7
				C259.8,426,260.5,425.6,261.2,425.3z"/>
			<path class="st3" d="M285.5,424.9h-7.2l-1.4,3.2h-2.9l6.4-14h2.5l6.4,14h-2.9L285.5,424.9z M284.4,422.8l-2.5-6.1l-2.5,6.1H284.4
				z"/>
			<path class="st3" d="M301.3,427.4c-1.1-0.7-2.1-1.4-2.9-2.5c-0.7-1.1-1.1-2.5-1.1-3.6c0-1.4,0.4-2.5,1.1-3.6
				c0.7-1.1,1.4-1.8,2.9-2.5c1.1-0.7,2.5-1.1,3.9-1.1c1.1,0,2.1,0.4,3.2,0.7c1.1,0.4,1.8,1.1,2.5,1.8l-1.8,1.1
				c-1.1-1.1-2.1-1.8-3.6-1.8c-1.1,0-1.8,0.4-2.5,0.7s-1.4,1.1-1.8,1.8c-0.4,0.7-0.7,1.4-0.7,2.5c0,1.1,0.4,1.8,0.7,2.5
				c0.4,0.7,1.1,1.4,1.8,1.8c0.7,0.4,1.8,0.7,2.5,0.7c1.4,0,2.9-0.7,3.6-1.8l1.8,1.4c-0.7,0.7-1.4,1.4-2.5,1.8
				c-1.1,0.4-2.1,0.7-3.2,0.7C303.8,428.1,302.3,427.8,301.3,427.4z"/>
			<path class="st3" d="M333.1,413.8v14h-2.5v-6.1h-7.2v6.1h-2.5v-14h2.5v5.7h7.2v-5.7H333.1z"/>
			<path class="st3" d="M344.6,413.8h2.5v14h-2.5V413.8z"/>
			<path class="st3" d="M371,413.8v14h-2.1l-7.9-9.7v9.7h-2.5v-14h2.1l7.9,9.7v-9.7H371z"/>
			<path class="st3" d="M391.8,421h2.5v5.7c-0.7,0.7-1.4,1.1-2.5,1.4c-1.1,0.4-1.8,0.4-2.9,0.4c-1.4,0-2.9-0.4-3.9-1.1
				c-1.1-0.7-2.1-1.4-2.9-2.5c-0.7-1.1-1.1-2.5-1.1-3.6c0-1.4,0.4-2.5,1.1-3.6s1.4-1.8,2.9-2.5c1.1-0.7,2.5-1.1,3.9-1.1
				c1.1,0,2.1,0.4,3.2,0.7c1.1,0.4,1.8,1.1,2.5,1.8l-1.8,1.1c-1.1-1.1-2.5-1.4-3.9-1.4c-1.1,0-1.8,0.4-2.5,0.7
				c-0.7,0.4-1.4,1.1-1.8,1.8c-0.4,0.7-0.7,1.4-0.7,2.5c0,1.1,0.4,1.8,0.7,2.5c0.4,0.7,1.1,1.4,1.8,1.8c0.7,0.4,1.8,0.7,2.5,0.7
				c1.1,0,2.1-0.4,2.9-0.7L391.8,421L391.8,421z"/>
			<path class="st3" d="M432.6,428.1l-1.8-1.8c-1.4,1.1-2.9,1.8-4.7,1.8c-1.1,0-1.8,0-2.5-0.4c-0.7-0.4-1.4-0.7-1.8-1.4
				c-0.4-0.7-0.7-1.1-0.7-1.8c0-0.7,0.4-1.8,0.7-2.1c0.4-0.4,1.4-1.4,2.5-1.8c-0.7-0.7-1.1-1.1-1.1-1.4c-0.4-0.4-0.4-1.1-0.4-1.4
				c0-1.1,0.4-1.8,1.1-2.5c0.7-0.7,1.8-1.1,2.9-1.1c1.1,0,2.1,0.4,2.9,0.7c0.7,0.7,1.1,1.4,1.1,2.1c0,0.7-0.4,1.4-0.7,1.8
				c-0.4,0.7-1.1,1.1-2.1,1.8l2.9,2.9c0.4-0.7,0.7-1.4,0.7-2.5l2.1,0.7c-0.4,1.1-0.7,2.1-1.4,3.2l1.8,1.8L432.6,428.1z M429.4,425.3
				l-3.6-3.6c-0.7,0.4-1.4,0.7-1.8,1.4c-0.4,0.4-0.4,0.7-0.4,1.4s0.4,1.1,0.7,1.4c0.4,0.4,1.1,0.7,2.1,0.7
				C427.6,426.4,428.7,426,429.4,425.3z M425.4,416c-0.4,0.4-0.4,0.7-0.4,1.1s0,0.7,0.4,1.1c0,0.4,0.4,0.7,1.1,1.1
				c0.7-0.4,1.4-0.7,1.8-1.1c0.4-0.4,0.4-0.7,0.4-1.1c0-0.4,0-0.7-0.4-1.1c-0.4-0.4-0.7-0.4-1.1-0.4
				C426.1,415.6,425.8,415.6,425.4,416z"/>
			<path class="st3" d="M463,427.4c-1.1-0.7-2.1-1.4-2.9-2.5c-0.7-1.1-1.1-2.5-1.1-3.6c0-1.4,0.4-2.5,1.1-3.6
				c0.7-1.1,1.4-1.8,2.9-2.5c1.1-0.7,2.5-1.1,3.9-1.1c1.1,0,2.1,0.4,3.2,0.7c1.1,0.4,1.8,1.1,2.5,1.8l-1.8,1.4
				c-1.1-1.1-2.1-1.8-3.6-1.8c-1.1,0-1.8,0.4-2.5,0.7c-0.7,0.4-1.4,1.1-1.8,1.8c-0.4,0.7-0.7,1.4-0.7,2.5c0,1.1,0.4,1.8,0.7,2.5
				c0.4,0.7,1.1,1.4,1.8,1.8c0.7,0.4,1.8,0.7,2.5,0.7c1.4,0,2.9-0.7,3.6-1.8l1.8,1.4c-0.7,0.7-1.4,1.4-2.5,1.8
				c-1.1,0.4-2.1,0.7-3.2,0.7C465.5,428.1,464.1,427.8,463,427.4z"/>
			<path class="st3" d="M484.8,427.4c-1.1-0.7-2.1-1.4-2.9-2.5c-0.7-1.1-1.1-2.5-1.1-3.6s0.4-2.5,1.1-3.6c0.7-1.1,1.4-1.8,2.9-2.5
				c1.1-0.7,2.5-1.1,3.9-1.1c1.4,0,2.9,0.4,3.9,1.1c1.1,0.7,2.1,1.4,2.9,2.5c0.7,1.1,1.1,2.5,1.1,3.6c0,1.4-0.4,2.5-1.1,3.6
				s-1.4,1.8-2.9,2.5c-1.1,0.7-2.5,1.1-3.9,1.1C487.3,428.5,485.9,427.8,484.8,427.4z M491.3,425.3c0.7-0.4,1.4-1.1,1.8-1.8
				c0.4-0.7,0.7-1.4,0.7-2.5c0-1.1-0.4-1.8-0.7-2.5c-0.4-0.7-1.1-1.4-1.8-1.8c-0.7-0.4-1.4-0.7-2.5-0.7s-1.8,0.4-2.5,0.7
				c-0.7,0.4-1.4,1.1-1.8,1.8c-0.4,0.7-0.7,1.4-0.7,2.5c0,1.1,0.4,1.8,0.7,2.5c0.4,0.7,1.1,1.4,1.8,1.8c0.7,0.4,1.4,0.7,2.5,0.7
				S490.6,425.6,491.3,425.3z"/>
			<path class="st3" d="M519.2,413.8v14H517l-7.9-9.7v9.7h-2.5v-14h2.1l7.9,9.7v-9.7H519.2z"/>
			<path class="st3" d="M531.4,427.8c-1.1-0.4-1.8-0.7-2.5-1.1l1.1-2.1c0.7,0.4,1.4,0.7,2.1,1.1c0.7,0.4,1.8,0.4,2.5,0.4
				c1.1,0,1.8,0,2.5-0.4c0.4-0.4,0.7-0.7,0.7-1.4c0-0.4,0-0.7-0.4-1.1c-0.4-0.4-0.7-0.4-1.1-0.7c-0.4,0-1.1-0.4-1.8-0.4
				c-1.1-0.4-1.8-0.4-2.5-0.7c-0.7-0.4-1.1-0.7-1.8-1.1c-0.4-0.7-0.7-1.4-0.7-2.1c0-0.7,0.4-1.4,0.7-2.1c0.4-0.7,1.1-1.1,1.8-1.4
				c0.7-0.4,1.8-0.7,3.2-0.7c0.7,0,1.8,0,2.5,0.4c0.7,0.4,1.4,0.4,2.1,1.1l-0.7,2.1c-0.7-0.4-1.4-0.7-1.8-0.7
				c-0.7-0.4-1.4-0.4-1.8-0.4c-1.1,0-1.8,0-2.1,0.4c-0.4,0.4-0.7,0.7-0.7,1.4c0,0.4,0,0.7,0.4,1.1c0.4,0.4,0.7,0.4,1.1,0.7
				c0.4,0,1.1,0.4,1.8,0.4c1.1,0.4,1.8,0.4,2.5,0.7c0.7,0.4,1.1,0.7,1.8,1.1c0.4,0.4,0.7,1.4,0.7,2.1s-0.4,1.4-0.7,2.1
				c-0.4,0.7-1.1,1.1-1.8,1.4c-0.7,0.4-1.8,0.7-3.2,0.7C533.5,428.1,532.4,428.1,531.4,427.8z"/>
			<path class="st3" d="M551.7,426.7c-1.1-1.1-1.8-2.5-1.8-4.7v-7.9h2.5v7.9c0,2.9,1.1,4.3,3.6,4.3c2.5,0,3.6-1.4,3.6-4.3v-7.9h2.5
				v7.9c0,2.1-0.7,3.6-1.8,4.7c-1.1,1.1-2.5,1.8-4.7,1.8C554.6,428.1,553.2,427.8,551.7,426.7z"/>
			<path class="st3" d="M573.9,413.8h2.5v11.8h7.5v2.1h-10V413.8z"/>
			<path class="st3" d="M594.7,416.3H590v-2.1h11.8v2.1h-4.7v11.8h-2.5V416.3z"/>
			<path class="st3" d="M611.5,413.8h2.5v14h-2.5V413.8z"/>
			<path class="st3" d="M638,413.8v14h-2.1l-7.9-9.7v9.7h-2.5v-14h2.1l7.9,9.7v-9.7H638z"/>
			<path class="st3" d="M658.7,421h2.5v5.7c-0.7,0.7-1.4,1.1-2.5,1.4c-1.1,0.4-1.8,0.4-2.9,0.4c-1.4,0-2.9-0.4-3.9-1.1
				c-1.1-0.7-2.1-1.4-2.9-2.5c-0.7-1.1-1.1-2.5-1.1-3.6c0-1.4,0.4-2.5,1.1-3.6c0.7-1.1,1.4-1.8,2.9-2.5c1.1-0.7,2.5-1.1,3.9-1.1
				c1.1,0,2.1,0.4,3.2,0.7c1.1,0.4,1.8,1.1,2.5,1.8l-1.8,1.4c-1.1-1.1-2.5-1.4-3.9-1.4c-1.1,0-1.8,0.4-2.5,0.7
				c-0.7,0.4-1.4,1.1-1.8,1.8c-0.4,0.7-0.7,1.4-0.7,2.5c0,1.1,0.4,1.8,0.7,2.5c0.4,0.7,1.1,1.4,1.8,1.8c0.7,0.4,1.8,0.7,2.5,0.7
				c1.1,0,2.1-0.4,2.9-0.7L658.7,421L658.7,421z"/>
		</g>
	</g>
</g>
</svg>
