<?xml version="1.0" encoding="utf-8"?>
<!-- Generator: Adobe Illustrator 24.2.1, SVG Export Plug-In . SVG Version: 6.00 Build 0)  -->
<svg version="1.1" id="Layer_1" xmlns="http://www.w3.org/2000/svg" xmlns:xlink="http://www.w3.org/1999/xlink" x="0px" y="0px"
	 viewBox="0 0 800 800" style="enable-background:new 0 0 800 800;" xml:space="preserve">
<style type="text/css">
	.st0{fill-rule:evenodd;clip-rule:evenodd;fill:#2C82FF;}
	.st1{fill:#FFFFFF;}
	.st2{opacity:0.63;fill:#FFFFFF;enable-background:new    ;}
</style>
<rect x="-0.4" y="-0.5" class="st0" width="801.5" height="801.5"/>
<g>
	<g>
		<path class="st1" d="M287.1,560c0,4.5-3.5,8-7.7,8h-6.3v-15.7h6.3C283.9,552,287.1,555.5,287.1,560z M283.6,560
			c0-2.8-1.7-4.5-4.2-4.5h-2.4v8.7h2.8C281.8,564.6,283.6,562.8,283.6,560z"/>
		<path class="st1" d="M303.8,552v15.7h-3.5V552H303.8z"/>
		<path class="st1" d="M326.2,565.3h-5.9l-0.7,2.4h-3.8l5.2-15.7h4.5l5.2,15.7h-3.8L326.2,565.3z M325.1,562.1l-1.7-5.9l-1.7,5.9
			H325.1z"/>
		<path class="st1" d="M358.3,560.4c0,4.9-3.5,7.7-7.7,7.7c-4.9,0-8.7-3.8-8.7-8.4s3.5-8.4,8.4-8.4c3.1,0,5.6,1.4,7,3.5l-3.1,1.7
			c-0.7-1-2.1-1.7-3.8-1.7c-2.8,0-4.5,2.1-4.5,4.9s1.7,4.5,4.9,4.5c2.1,0,3.5-1,4.2-2.4h-4.5v-3.1h8V560.4z"/>
		<path class="st1" d="M383.4,552v15.7h-2.8l-6.3-8.7v8.7h-3.5V552h2.8l6.3,8.7V552H383.4z"/>
		<path class="st1" d="M396.4,560c0-4.5,3.8-8.4,8.4-8.4c4.5,0,8.4,3.5,8.4,8.4c0,4.5-3.8,8.4-8.4,8.4
			C399.9,568.1,396.4,564.6,396.4,560z M409.3,560c0-2.8-2.1-4.9-4.5-4.9c-2.4,0-4.5,1.7-4.5,4.9c0,2.8,2.1,4.9,4.5,4.9
			C407.2,564.6,409.3,562.8,409.3,560z"/>
		<path class="st1" d="M424.3,564.2l3.1-1.7c0.7,1.4,1.4,2.1,3.5,2.1c1.7,0,2.1-0.7,2.1-1.4c0-1-1-1.4-3.1-2.1
			c-2.4-0.7-4.5-1.7-4.5-4.9s2.4-4.9,5.2-4.9c2.4,0,4.5,1.4,5.9,3.5l-3.1,1.7c-0.7-1-1.4-1.7-2.8-1.7c-1,0-1.7,0.7-1.7,1
			c0,0.7,0.3,1.4,2.8,2.1s5.2,1.4,5.2,4.9c0,3.1-2.4,4.9-5.9,4.9C427.5,568.1,425.4,566.7,424.3,564.2z"/>
		<path class="st1" d="M459.9,555.5h-4.2v12.2h-3.5v-12.2h-4.2V552h11.9V555.5z"/>
		<path class="st1" d="M475.6,552v15.7h-3.5V552H475.6z"/>
		<path class="st1" d="M488.6,560c0-4.5,3.5-8.4,8.4-8.4c2.8,0,5.6,1.4,6.6,3.8l-3.1,1.7c-0.7-1.4-2.1-2.1-3.8-2.1
			c-2.8,0-4.5,1.7-4.5,4.9c0,2.8,1.7,4.9,4.5,4.9c1.7,0,3.1-0.7,3.8-2.1l3.1,1.7c-1.4,2.1-3.8,3.8-6.6,3.8
			C491.7,568.1,488.6,564.6,488.6,560z"/>
		<path class="st1" d="M515.5,564.2l3.1-1.7c0.7,1.4,1.4,2.1,3.5,2.1c1.7,0,2.1-0.7,2.1-1.4c0-1-1-1.4-3.1-2.1
			c-2.4-0.7-4.5-1.7-4.5-4.9s2.4-4.9,5.2-4.9c2.4,0,4.5,1.4,5.9,3.5l-3.1,1.7c-0.7-1-1.4-1.7-2.8-1.7c-1,0-1.7,0.7-1.7,1
			c0,0.7,0.3,1.4,2.8,2.1c2.4,0.7,5.2,1.4,5.2,4.9c0,3.1-2.4,4.9-5.9,4.9C518.3,568.1,516.2,566.7,515.5,564.2z"/>
	</g>
	<path class="st1" d="M440.4,416.5c3.5-7.7,5.6-15.7,4.9-23.4c-0.3-7.7-2.4-15.4-6.6-21.7c-3.8-6.3-9.4-11.9-15.7-15.4
		s-13.6-5.6-21-5.6c-7.3,0-14.7,2.1-21,5.6s-11.9,9.1-15.7,15.4s-5.9,14-6.3,21.7c-0.3,7.7,1.7,15.7,5.2,23.4l0,0
		c1,2.1,0,4.5-2.1,5.6c-1.7,0.7-3.8,0.3-4.9-1c-6.6-7.3-10.8-17.1-12.2-27.2c-1.4-10.1,0.3-21,4.9-30.7c4.5-9.4,11.9-17.8,21-23.7
		c4.5-2.8,9.4-5.2,14.7-6.6c5.2-1.4,10.5-2.1,16.1-2.4c5.2,0,10.8,0.7,16.1,2.1c5.2,1.4,10.1,3.5,14.7,6.6
		c9.1,5.6,16.8,14,21.3,23.4s6.3,20.3,5.2,30.7c-1.4,10.1-5.2,19.9-11.9,27.6c-1.4,1.7-4.2,2.1-5.9,0.3
		C439.7,420.3,439.3,418.3,440.4,416.5L440.4,416.5z"/>
	<path class="st2" d="M421.2,274c1.4-1.7,1.7-4.2,1-5.9c-3.5-7.3-11.2-12.6-20.3-12.6c-8.7,0-16.4,5.2-20.3,12.6
		c-1,2.1-0.7,4.2,1,5.9c3.1,3.5,9.1,8.4,19.2,8.4C412.1,282.4,418.4,277.2,421.2,274z"/>
	<path class="st1" d="M470.8,357.5c-7.7-12.6-18.2-22.7-30-29.7c-11.9-7-25.1-10.5-38.4-10.5c-13.3,0-26.9,3.5-38.4,10.5
		c-11.9,7-22,17.1-30,29.7l0,0c-1,1.7-3.8,2.4-5.6,1.4c-1.4-1-2.1-2.8-1.7-4.2c3.5-16.1,13.3-31.1,27.2-41.9
		c13.6-10.5,31.1-16.4,48.9-16.4c17.5,0,34.9,5.9,48.9,16.4c13.6,10.5,23.7,25.5,27.2,41.9c0.3,2.1-1,4.2-3.1,4.9
		C473.2,359.9,471.5,359.2,470.8,357.5L470.8,357.5z"/>
	<path class="st1" d="M452.9,234.5c4.2,7.7,6.3,17.1,5.9,26.2c-0.3,9.4-3.1,18.5-8.4,26.9c-5.2,8-12.2,15-20.6,19.6
		c-2.1,1-4.2,2.4-6.6,3.1l-3.5,1.4c-1,0.3-2.4,0.7-3.5,1c-2.4,0.7-4.9,1-7,1.4c-2.4,0.3-4.9,0.3-7.3,0.3s-4.9,0-7.3-0.3
		s-4.9-0.7-7-1.4c-1-0.3-2.4-0.7-3.5-1l-3.5-1.4c-2.4-0.7-4.5-2.1-6.6-3.1c-8.4-4.5-15.7-11.5-20.6-19.6s-8-17.5-8.4-26.9
		c-0.3-9.4,1.7-18.5,5.9-26.2c1-2.1,3.8-3.1,6.3-1.7c1.7,1,2.8,3.1,2.1,4.9l0,0c-1.7,7.3-1.7,14.7-0.3,21.7c1.4,7,4.5,13.3,8.4,18.5
		c4.2,5.2,9.4,9.8,15.4,12.6c5.9,2.8,12.2,4.5,18.9,4.5c6.6,0,12.9-1.7,18.9-4.5c5.9-2.8,11.2-7.3,15.4-12.6
		c4.2-5.2,7-11.5,8.4-18.5c1.4-7,1.4-14.3-0.3-21.7l0,0c-0.7-2.4,1-4.9,3.5-5.6C450.2,231.7,451.9,232.8,452.9,234.5z"/>
	<path class="st2" d="M425,377c2.1,2.8,0.7,7.3-2.4,8.4c-2.8,1-5.9,1.4-9.1,1.4h-22.7c-3.1,0-6.3-0.3-9.1-1.4
		c-3.1-1-4.5-5.6-2.4-8.7c5.2-7.7,13.6-12.6,22.7-12.6l0,0C411.7,364.1,420.1,369.4,425,377z"/>
	<g>
		<path class="st1" d="M275.9,511.5c-1.7,0.3-4.2,0.7-5.9,0.7c-1.4,0-2.8,0-4.2-0.3l-18.9-22c-1.7,1-3.1,2.1-4.9,3.1v18.5
			c-1.4,0.3-2.8,0.3-4.2,0.3s-2.8,0-4.2-0.3v-70.9c1.4-0.3,2.8-0.3,4.2-0.3s2.8,0,4.2,0.3v43.3c8.7-5.6,16.4-12.9,22-23.1
			c1.7-0.3,2.8-0.3,4.2-0.3s3.1,0.3,4.9,0.7c-5.6,10.1-12.2,17.8-19.6,23.7L275.9,511.5z"/>
		<path class="st1" d="M320.6,488.8h-37c0.7,9.4,7,16.4,16.1,16.4c8.4,0,11.9-3.1,14.7-5.2c2.1,1,4.2,3.8,4.5,5.9
			c-3.8,3.5-10.1,7.3-19.6,7.3c-14.7,0-24.8-10.5-24.8-26.9c0-15.7,10.5-27.2,24.1-27.2c12.9,0,22,9.4,22,22.7
			C320.9,484.6,320.9,486,320.6,488.8z M312.2,481.5c0-7-3.5-14.3-13.3-14.3c-8.7,0-14.3,6.6-15,14.3H312.2z"/>
		<path class="st1" d="M376.1,486c0,17.5-12.6,27.2-25.5,27.2c-4.9,0-8.7-0.7-12.6-2.1v20.6c-1.4,0.3-2.8,0.3-4.2,0.3
			s-2.8,0-4.2-0.3v-64.6c4.5-3.8,11.9-7.7,20.6-7.7C364.6,459.5,376.1,468.9,376.1,486z M367.4,486c0-11.2-7-18.5-17.5-18.5
			c-4.5,0-8.7,1.4-12.2,3.5v31.1c2.8,1.7,7,2.8,12.2,2.8C360.4,504.9,367.4,497.9,367.4,486z"/>
		<path class="st1" d="M429.2,480.1v31.4c-1.4,0.3-2.8,0.3-4.2,0.3c-1.4,0-2.8,0-4.2-0.3v-28.3c0-8.4-2.8-15.7-14.7-15.7
			c-4.5,0-9.4,1.4-13.3,3.8v40.2c-1.4,0.3-2.8,0.3-4.2,0.3c-1.4,0-2.8,0-4.2-0.3v-70.9c1.4-0.3,2.8-0.3,4.2-0.3c1.4,0,2.8,0,4.2,0.3
			v22.7c4.2-2.4,8.7-3.8,14.7-3.8C422.9,459.5,429.2,469.6,429.2,480.1z"/>
		<path class="st1" d="M483.3,488.8h-37c0.7,9.4,7,16.4,16.1,16.4c8.4,0,11.9-3.1,14.7-5.2c2.1,1,4.2,3.8,4.5,5.9
			c-3.8,3.5-10.1,7.3-19.6,7.3c-14.7,0-24.8-10.5-24.8-26.9c0-15.7,10.5-27.2,24.1-27.2c12.9,0,22,9.4,22,22.7
			C483.7,484.6,483.3,486,483.3,488.8z M474.6,481.5c0-7-3.5-14.3-13.3-14.3c-8.7,0-14.3,6.6-15,14.3H474.6z"/>
		<path class="st1" d="M520.4,468.5c-2.8-0.7-5.9-1-9.1-1c-4.2,0-8,0.7-10.8,2.4v41.6c-1.4,0.3-2.8,0.3-4.2,0.3
			c-1.4,0-2.8,0-4.2-0.3v-45.4c4.2-3.5,11.9-7,19.9-7c3.8,0,7.3,0.7,10.8,1.7C522.8,463.7,522.1,466.8,520.4,468.5z"/>
		<path class="st1" d="M567.2,479v29c-4.5,2.4-13.3,4.9-21.3,4.9c-15.4,0-21.3-7-21.3-16.4c0-10.5,8.7-16.1,20.6-16.1
			c5.6,0,10.1,1,14,2.4V479c0-7.7-4.9-11.9-13.6-11.9c-5.9,0-11.2,2.1-14.3,4.5c-2.4-1-3.8-3.5-4.2-5.9c3.1-3.1,10.5-7,18.9-7
			C557.7,459.5,567.2,465.1,567.2,479z M546.2,505.6c5.2,0,9.4-0.7,12.9-2.1v-12.6c-3.8-2.1-8.7-2.8-14-2.8c-7,0-11.9,2.1-11.9,8
			C533.3,501.7,537.5,505.6,546.2,505.6z"/>
	</g>
</g>
</svg>
