<?xml version="1.0" encoding="utf-8"?>
<!-- Generator: Adobe Illustrator 24.2.1, SVG Export Plug-In . SVG Version: 6.00 Build 0)  -->
<svg version="1.1" id="Layer_1" xmlns="http://www.w3.org/2000/svg" xmlns:xlink="http://www.w3.org/1999/xlink" x="0px" y="0px"
	 viewBox="0 0 800 800" style="enable-background:new 0 0 800 800;" xml:space="preserve">
<style type="text/css">
	.st0{fill-rule:evenodd;clip-rule:evenodd;fill:#FFD000;}
</style>
<rect x="-0.4" y="-0.5" class="st0" width="801.5" height="801.5"/>
<g>
	<g>
		<g>
			<path d="M645.2,402.3c-4.1-0.3-5.2-1.4-5.2-3.5s1.7-3.5,4.8-3.5c3.5,0,4.8,1.7,4.8,4.8h10.7v-0.3c0-7.9-4.8-12.8-15.5-12.8
				c-9,0-15.5,3.5-15.5,12.1v0.7c0,6.9,4.5,9.7,15.2,10.4c4.5,0.3,5.5,1.4,5.5,3.8c0,2.1-1.4,3.8-4.8,3.8c-3.8,0-5.2-1.7-5.2-4.1
				h-11v0.3c0,7.3,5.2,12.4,15.9,12.4c10.7,0,16.2-4.8,16.2-12.4v-0.7C660.7,404.7,654.5,403,645.2,402.3z"/>
			<path d="M423.5,411.6v-35.9h11v35.9c0,0-0.3,2.4,2.8,4.5l-7.3,9.3C430.1,425.4,423.5,420.9,423.5,411.6z"/>
			<path d="M496.7,386.8c-11.7,0-16.9,7.6-16.9,18.3v2.4c0,10.7,5.2,18.3,16.9,18.3c10.7,0,15.9-5.5,15.9-13.1v-1.4h-10.4
				c0,3.1-1.7,5.2-5.2,5.2c-4.1,0-5.9-3.1-5.9-8.6v-2.4c0-5.5,1.7-8.6,5.9-8.6c3.5,0,5.2,2.1,5.2,5.9h10.4v-1.7
				C512.6,392.3,507.4,386.8,496.7,386.8z"/>
			<path d="M532.6,386.8c-11.7,0-17.3,7.6-17.3,18.3v2.4c0,10.7,5.5,18.3,17.3,18.3c12.1,0,17.3-7.6,17.3-18.3v-2.4
				C550.3,394.4,544.7,386.8,532.6,386.8z M538.9,407.5c0,5.5-1.7,8.6-6.2,8.6c-4.5,0-6.2-3.1-6.2-8.6v-2.4c0-5.5,2.1-8.6,6.2-8.6
				c4.5,0,6.2,3.1,6.2,8.6V407.5z"/>
			<path d="M570.3,386.8c-11.7,0-17.3,7.6-17.3,18.3v2.4c0,10.7,5.5,18.3,17.3,18.3c12.1,0,17.3-7.6,17.3-18.3v-2.4
				C587.5,394.4,582.4,386.8,570.3,386.8z M576.5,407.5c0,5.5-1.7,8.6-6.2,8.6c-4.5,0-6.2-3.1-6.2-8.6v-2.4c0-5.5,2.1-8.6,6.2-8.6
				c4.5,0,6.2,3.1,6.2,8.6V407.5z"/>
			<path d="M611.7,386.8c-5.2,0-8.6,2.4-10.7,5.5l-2.1-4.5H591v10.4v40.7h11v-17.3c2.1,2.4,5.2,4.1,9.7,4.1c10,0,13.8-7.6,13.8-18.3
				v-2.4C625.5,394.4,622.1,386.8,611.7,386.8z M614.5,407.5c0,5.5-1.7,8.6-5.9,8.6c-3.5,0-5.5-2.1-6.2-3.5v-12.8
				c1-1.4,3.1-3.5,6.2-3.5c4.1,0,5.9,3.1,5.9,8.6V407.5z"/>
			<path d="M463.9,392.6h12.4v-0.7c0-9-3.5-14.2-10.7-16.2l-6.2,8.6C462.6,385.4,463.9,387.8,463.9,392.6z"/>
			<path d="M458.4,395.7c-2.4-0.3-4.5-0.7-5.9-1.4l-5.9,8.6c2.1,0.7,4.8,1,7.9,1.4c7.3,0.7,9.7,2.4,9.7,6.2v0.3
				c0,2.4-2.1,5.5-7.3,5.5h-0.7c-5.2,0-7.3-2.4-7.6-7.9h-5.9l-5.2,7.6c2.4,6.6,8.6,9.7,19,9.7c13.1,0,20.4-5.5,20.4-15.2v-0.7
				C476.7,401.3,471.9,397.5,458.4,395.7z"/>
			<path d="M327.2,386.8c-11.7,0-17.6,7.9-17.6,18.6v1.7c0,10.7,5.5,18.6,18,18.6c7.6,0,12.8-2.8,15.2-6.9l-6.9-4.5
				c-1.7,1.7-4.5,3.1-7.6,3.1c-4.1,0-7.6-1.7-7.9-6.9h24.2v-4.8C344.5,394.7,338.9,386.8,327.2,386.8z M320.6,403.3
				c0.3-5.9,2.4-8.3,6.2-8.3c4.8,0,5.9,2.8,6.2,8.3H320.6z"/>
			<path d="M401.8,386.8c-9.7,0-13.8,3.8-15.2,8.6l8.3,3.1c1-2.4,2.4-3.5,5.9-3.5c3.8,0,5.9,1.7,5.9,5.5L398,402
				c-7.9,1-13.5,3.8-13.5,11.7v0.7c0,5.9,3.1,11,11.4,11c5.2,0,9-2.1,11.7-4.8l1.4,3.8h8.6V414v-13.5
				C417.3,391.9,413.9,386.8,401.8,386.8z M406.3,414c-1,1.4-3.5,2.8-6.6,2.8c-3.1,0-4.5-1.7-4.5-3.8v-0.3c0-2.1,1-3.8,4.5-4.5
				l6.2-1v6.9H406.3z"/>
			<path d="M376.6,423l-6.2,1.4c1.7,2.1,1.7,4.1,1.7,5.2v0.3l0,0c-0.7,2.4-3.1,3.5-7.3,3.5s-6.2-1.4-6.2-4.1c0-1.7,1.4-3.1,3.1-4.5
				l0,0c3.5-1.7,4.5-3.5,4.5-5.2c10.7-0.7,15.5-7.3,15.9-16.6c0-2.8-0.7-5.5-1.4-7.6l4.1-4.8L380,385l-5.9,3.5
				c-2.4-1.4-5.9-2.1-9.7-2.1c-11.7,0-17.3,6.9-17.3,16.6c0,7.3,3.1,12.8,9.3,15.2c3.8,2.1,1.4,3.1,0.3,3.5
				c-6.2,1.7-9.3,5.2-9.7,9.3c0,5.5,5.5,9.7,17.3,9.7c11.4,0,16.9-3.5,17.3-9C382.8,426.5,376.6,423,376.6,423z M364.8,394.7
				c4.1,0,6.2,3.1,6.2,8.6c0,5.5-2.1,8.6-6.2,8.6c-4.1,0-6.2-3.1-6.2-8.6C358.6,397.8,360.3,394.7,364.8,394.7z"/>
		</g>
		<g>
			<polygon points="292.7,415.4 292.7,377.1 280.9,377.1 280.9,424.7 305.4,424.7 312,415.4 			"/>
		</g>
	</g>
	<g>
		<g>
			<path d="M219.8,391.9h12.4v-0.7c0-8.6-3.5-13.8-10.7-15.9l-6.2,8.6C218.1,385,219.5,387.5,219.8,391.9z"/>
			<path d="M214.3,395.4c-2.8-0.3-4.5-0.7-5.9-1.4l-5.9,8.3c2.1,0.7,4.8,1,7.9,1.4c7.3,0.7,9.7,2.4,9.7,6.2v0.3
				c0,2.4-2.1,5.2-7.3,5.2h-0.7c-5.2,0-7.3-2.4-7.6-7.6h-5.9l-5.2,7.6c2.4,6.6,8.6,9.3,19,9.3c13.1,0,20.4-5.2,20.4-14.8v-0.7
				C232.6,400.6,227.4,396.8,214.3,395.4z"/>
			<polygon points="174.6,415.4 174.6,376.8 163.2,376.8 163.2,424.7 186.7,424.7 192.9,415.4 			"/>
		</g>
		<path d="M251.6,455.5H141.1V345h110.5V455.5z M147.3,448.9h98.1v-97.7h-98.1V448.9z"/>
	</g>
</g>
</svg>
