<?xml version="1.0" encoding="utf-8"?>
<!-- Generator: Adobe Illustrator 24.2.1, SVG Export Plug-In . SVG Version: 6.00 Build 0)  -->
<svg version="1.1" id="Layer_1" xmlns="http://www.w3.org/2000/svg" xmlns:xlink="http://www.w3.org/1999/xlink" x="0px" y="0px"
	 viewBox="0 0 800 800" style="enable-background:new 0 0 800 800;" xml:space="preserve">
<style type="text/css">
	.st0{fill-rule:evenodd;clip-rule:evenodd;fill:#324951;}
	.st1{fill:#D2DDD5;}
	.st2{fill:#EBBA3D;}
</style>
<rect x="-0.4" y="-0.5" class="st0" width="801.5" height="801.5"/>
<g>
	<g id="XMLID_95_">
		<path id="XMLID_98_" class="st1" d="M182.2,497.7l-1.4,5.5h-16.6v-30h6.3v24.5H182.2z"/>
		<path id="XMLID_96_" class="st1" d="M204.3,495.1l6.4,1.4l-2,6.7h-21v-30h21l2.1,6.8l-6.4,1.4l-0.8-2.6h-9.6v6.9h8.2l1,2.8l-1,2.8
			h-8.2v6.4h9.6L204.3,495.1z"/>
	</g>
	<path id="XMLID_91_" class="st2" d="M164.2,511.4h47.3l-1.7,5.6h-47.3L164.2,511.4z"/>
	<path id="XMLID_89_" class="st1" d="M233.9,478.7V517h-6.3v-38.3h-10.9l1.2-5.5h25.5l1.2,5.5H233.9z"/>
	<path id="XMLID_86_" class="st1" d="M270.9,517l-3.2-14.3h-10.4v14.2h-6.3v-43.7h18.8c1.4,0,2.5,0.2,3.2,0.6c0.7,0.4,1.3,1.4,1.8,3
		l2.9,10.6l-2.8,11.1c-0.3,1.1-0.7,2-1.1,2.6l4.1,15.8H270.9z M268.7,497.1c0.2-0.1,0.4-0.4,0.6-0.7c0.2-0.3,0.3-0.7,0.4-1.1
		l1.7-7.9l-1.7-6.9c-0.2-0.9-0.5-1.5-0.9-1.8h-11.4v18.4H268.7z"/>
	<path id="XMLID_83_" class="st1" d="M307.4,505h-14.5l-2.9,12h-6.6l11.1-43.8h11.1l11.1,43.8h-6.6L307.4,505z M306.1,499.4
		l-4.9-20.6h-2l-4.9,20.6H306.1z"/>
	<path id="XMLID_81_" class="st1" d="M352.7,473.2v37.5l-1.3,6.3h-5.6l-16.4-32l-0.1-0.2V517h-6.3v-37.5l1.3-6.3h5.3l16.8,31.8
		v-31.8H352.7z"/>
	<path id="XMLID_79_" class="st1" d="M388.2,504l-2.3,9.1c-0.4,1.5-1,2.5-1.9,3c-0.9,0.6-1.9,0.8-3,0.8h-18.1l-2-6.7l6.4-1.4
		l0.8,2.5h11.9c0.3-0.2,0.5-0.6,0.7-1.2c0.2-0.6,0.4-1.4,0.6-2.3l0.8-3.8l-0.7-2.4c-0.3-1-0.6-1.7-1-1.9l-15.5-5.7
		c-0.9-0.3-1.6-0.8-2-1.4c-0.4-0.6-0.8-1.3-1-2.2l-1.6-5.2l2.5-8.7c0.5-1.5,1.1-2.4,1.8-2.8c0.8-0.4,1.6-0.6,2.6-0.6h18.3l2.1,6.8
		l-6.4,1.4l-0.8-2.6h-11.6c-0.3,0.2-0.5,0.5-0.6,0.9c-0.2,0.4-0.4,1.1-0.6,2.1l-0.9,3.6l0.5,1.9c0.1,0.5,0.3,0.9,0.4,1.3
		c0.2,0.4,0.4,0.7,0.6,0.9l15.3,5.4c0.9,0.3,1.6,0.8,2.1,1.4c0.5,0.6,0.8,1.3,1.1,2.1L388.2,504z"/>
	<path id="XMLID_75_" class="st1" d="M423.7,503.9l-2.3,9c-0.4,1.6-1,2.7-1.9,3.2c-0.8,0.6-1.9,0.8-3.1,0.8h-20.8v-43.8H416
		c0.9,0,1.8,0.2,2.5,0.6c0.8,0.4,1.4,1.3,1.8,2.8l2.5,8.6l-1.8,6.3c-0.1,0.4-0.2,0.7-0.3,1.1c-0.1,0.3-0.3,0.6-0.5,0.9
		c0.4,0.6,0.7,1.3,0.9,2.2L423.7,503.9z M401.9,491.5h12.6c0.3-0.1,0.5-0.4,0.6-0.9c0.2-0.5,0.4-1,0.6-1.7l1-3.8l-1.1-3.9
		c-0.3-0.9-0.4-1.5-0.6-1.8c-0.1-0.3-0.3-0.6-0.6-0.7h-12.6V491.5z M417.4,503.9l-1.1-4.2c-0.2-0.9-0.4-1.5-0.6-1.8
		c-0.2-0.3-0.3-0.6-0.5-0.7h-13.3v14.2h13.3c0.3-0.1,0.5-0.4,0.6-0.9c0.2-0.5,0.3-1,0.5-1.7L417.4,503.9z"/>
	<path id="XMLID_72_" class="st1" d="M460.6,495.1l-3.6,16.6c-0.5,2.1-1.1,3.5-2,4.2c-0.9,0.7-2,1-3.3,1h-13c-1.3,0-2.5-0.3-3.3-1
		c-0.9-0.7-1.6-2.1-2-4.2l-3.6-16.6l3.8-17.1c0.5-2,1.1-3.3,2-3.9s2-0.8,3.3-0.8h13c1.3,0,2.4,0.3,3.3,0.8s1.5,1.9,1.9,3.9
		L460.6,495.1z M454.3,495.1l-3.1-14c-0.3-1.4-0.6-2.2-1.1-2.4h-10c-0.4,0.2-0.8,1-1.1,2.4l-3.1,14l2.8,13.2c0.2,1,0.4,1.7,0.7,2.1
		c0.3,0.5,0.5,0.8,0.7,0.9h10c0.2-0.2,0.4-0.5,0.7-0.9c0.3-0.5,0.5-1.2,0.7-2.1L454.3,495.1z"/>
	<path id="XMLID_69_" class="st1" d="M488.2,517l-3.2-14.3h-10.4v14.2h-6.3v-43.7h18.8c1.4,0,2.5,0.2,3.2,0.6c0.7,0.4,1.3,1.4,1.8,3
		l2.9,10.6l-2.8,11.1c-0.3,1.1-0.7,2-1.1,2.6l4.1,15.8H488.2z M486,497.1c0.2-0.1,0.4-0.4,0.6-0.7c0.2-0.3,0.3-0.7,0.4-1.1l1.7-7.9
		l-1.7-6.9c-0.2-0.9-0.5-1.5-0.9-1.8h-11.4v18.4H486z"/>
	<path id="XMLID_66_" class="st1" d="M532.9,495.1l-3.6,16.6c-0.5,2.1-1.1,3.5-2,4.2c-0.9,0.7-2,1-3.3,1h-20.4v-43.8h20.4
		c1.3,0,2.4,0.3,3.3,0.8c0.9,0.6,1.5,1.9,1.9,3.9L532.9,495.1z M526.6,495.1l-3.1-14c-0.3-1.4-0.6-2.2-1.1-2.4h-12.6v32.7h12.6
		c0.2-0.2,0.4-0.5,0.7-0.9c0.3-0.5,0.5-1.2,0.7-2.1L526.6,495.1z"/>
	<path id="XMLID_64_" class="st1" d="M559.9,508.9l6.4,1.4l-2,6.7h-23.6v-43.8h23.6l2.1,6.8l-6.4,1.4l-0.8-2.6h-12.2V492h10.8l1,2.8
		l-1,2.8h-10.8v13.7h12.2L559.9,508.9z"/>
	<path id="XMLID_62_" class="st1" d="M601.6,473.1v31.4c-0.5,1.8-0.9,3.4-1.3,4.8c-0.4,1.4-0.8,2.8-1.2,4c-0.5,1.4-1,2.4-1.7,2.9
		c-0.7,0.5-1.7,0.8-3,0.8h-14.3c-1.3,0-2.3-0.3-3-0.8c-0.7-0.5-1.2-1.5-1.7-2.9c-0.4-1.3-0.8-2.6-1.2-4c-0.4-1.4-0.8-3-1.3-4.8
		v-31.4h6.3v30.4c0.3,1.3,0.6,2.4,0.8,3.2c0.2,0.8,0.5,1.6,0.7,2.4c0.4,1.3,0.8,2,1.1,2.3h11c0.3-0.3,0.6-1,1.1-2.3
		c0.3-0.8,0.5-1.6,0.7-2.4c0.2-0.8,0.5-1.9,0.8-3.2v-30.4H601.6z"/>
	<path id="XMLID_59_" class="st1" d="M631.3,517l-3.2-14.3h-10.4v14.2h-6.3v-43.7h18.8c1.4,0,2.5,0.2,3.2,0.6c0.7,0.4,1.3,1.4,1.8,3
		l2.9,10.6l-2.8,11.1c-0.3,1.1-0.7,2-1.1,2.6l4.1,15.8H631.3z M629.1,497.1c0.2-0.1,0.4-0.4,0.6-0.7c0.2-0.3,0.3-0.7,0.4-1.1
		l1.7-7.9l-1.7-6.9c-0.2-0.9-0.5-1.5-0.9-1.8h-11.4v18.4H629.1z"/>
	<path id="XMLID_1_" class="st2" d="M319,265.5v37.7h2.6c30.4,0,55.2,24.7,55.2,55.2v76.1H424v-76.1c0-30.4,24.7-55.2,55.2-55.2h2.6
		v-37.7H319z M400.5,324.6L386.1,311h28.7L400.5,324.6z M400.6,331.9l14.8,14H386L400.6,331.9z M414.8,305.7H386l14.4-13.8
		L414.8,305.7z M404.2,288.2l14.5-13.9v27.8L404.2,288.2z M382.1,302.1v-27.8l14.5,13.9L382.1,302.1z M424,270.8h21.1L424,300.1
		V270.8z M400.4,284.6L386,270.8h28.8L400.4,284.6z M376.8,300.1l-21.1-29.4h21.1V300.1z M347.9,300.1l-21.1-29.4h21.1V300.1z
		 M353.2,276.3l21.1,29.4h-21.1V276.3z M396.7,328.3l-14.6,14v-27.9L396.7,328.3z M382.1,358.4v-3.6l14.7,14.3l-14.7,14.1
		L382.1,358.4L382.1,358.4z M399.9,413.9l15.1,15.3h-30.8L399.9,413.9z M382.1,423.9v-28.1l14.1,14.3L382.1,423.9z M403.7,410.2
		l15-14.6v29.8L403.7,410.2z M400,406.5L385.7,392h29.1L400,406.5z M386,386.7l14.5-14l14.3,14H386z M385.9,351.2h29.5l-14.9,14.3
		L385.9,351.2z M404.4,328.3l14.3-13.7v27.3L404.4,328.3z M447.6,276.3v29.4h-21.1L447.6,276.3z M452.9,270.8H474l-21.1,29.4V270.8z
		 M324.3,276.3l18.2,25.3c-5.8-2.1-11.9-3.3-18.2-3.6V276.3z M364.4,315.6c-1.7-1.7-3.4-3.2-5.3-4.7h17.7v22.7
		C373.8,327,369.7,320.9,364.4,315.6z M418.7,383.1l-14.4-14l14.4-13.8v3.1V383.1z M436.4,315.6c-5.3,5.3-9.5,11.4-12.4,18V311h17.7
		C439.8,312.4,438.1,314,436.4,315.6z M458.3,301.6l18.2-25.3V298C470.2,298.3,464.1,299.5,458.3,301.6z"/>
</g>
</svg>
