<?xml version="1.0" encoding="utf-8"?>
<!-- Generator: Adobe Illustrator 24.2.1, SVG Export Plug-In . SVG Version: 6.00 Build 0)  -->
<svg version="1.1" id="Layer_1" xmlns="http://www.w3.org/2000/svg" xmlns:xlink="http://www.w3.org/1999/xlink" x="0px" y="0px"
	 viewBox="0 0 800 800" style="enable-background:new 0 0 800 800;" xml:space="preserve">
<style type="text/css">
	.st0{fill-rule:evenodd;clip-rule:evenodd;fill:#7C559C;}
	.st1{fill:#FFFFFF;}
	.st2{fill:#3F1B5A;}
</style>
<rect x="-0.4" y="-0.5" class="st0" width="801.5" height="801.5"/>
<g>
	<g>
		<g>
			<path class="st1" d="M244.1,376.6C244.1,376.2,244.1,376.2,244.1,376.6c21.8-14.6,42.9-35.8,50.7-65.4c0.7-2.6,6.8-24.4-0.7-36.1
				c-2.6-4.2-6.8-6.8-11.7-7.2c-10.7-1.3-30.2,4.2-42,56.9c-3.9,17.6-6.5,31.9-8.1,44.2l0,0c-24.4,15.3-48.5,21.5-48.8,21.8
				c-3.3,1-5.5,4.2-4.6,7.5c1,3.3,4.2,5.2,7.5,4.6c1.6-0.3,21.1-5.5,43.6-17.9L244.1,376.6L244.1,376.6z M252.9,327.1
				c7.8-34.5,18.9-46.8,26.7-47.2c0.3,0,0.7,0,1,0c1.3,0.3,2.3,0.7,2.9,2c3.3,4.9,1.6,17.9-1,26c-5.9,21.5-19.8,38.4-35.8,50.7
				c0,0-0.3,0-0.3-0.3C248,349.2,250.3,338.8,252.9,327.1z"/>
			<path class="st1" d="M465.9,401.3c0.7-1.3,1.3-2.3,2-3.6c15-28.6,25.4-61.1,29.9-82.3c4.2-18.9,2.6-32.5-4.6-40
				c-6.2-6.5-14-6.2-16.3-5.9c-2.3,0-7.2,0.7-13,5.9c-12.7,11.4-19.8,36.4-21.5,75.1c-0.7,20.5,2.3,37.7,8.8,51.1c0,0,0,0,0,0.3
				c-11.4,19.2-24.1,32.9-35.5,33.2c-2,0-2.9-0.7-4.2-2c-5.9-7.5-6.8-30.2-4.2-55c0-0.3,0-0.7,0-1.3l1-12c0.3,0,0.3,0,0.7,0
				c6.5-0.7,13.3-2,20.2-3.9c1.6-0.3,3.3-1.6,3.9-3.3c0.7-1.3,1-2.9,0.7-4.6c-1-3.3-4.2-5.2-7.5-4.6c-5.2,1.3-10.1,2.3-15.3,2.9
				c0.3-2.3,0.7-4.2,1.3-6.5l0,0c3.3-12.7,5.5-23.4,6.8-29.6c0.7-3.3-1.3-6.2-4.6-6.8c-3.6-0.7-7.5,1.6-8.1,5.2
				c-1.6,7.2-4.6,18.2-6.8,31.6l0,0c-0.7,2.6-1.3,4.9-2,7.5c-13.3,0.3-25-2-34.5-4.9c2.3-10.7,4.9-21.5,7.5-31.9
				c1.6-5.9,3.6-12,5.5-18.5l2-6.5c1-3.3-1-6.8-4.2-7.8c-3.3-1-6.8,1-7.8,4.2c-2,6.8-4.9,16.9-8.1,28.6c-2.3,7.5-4.2,15-6.5,22.1
				l0,0l-1.3,4.9c-7.5-3.3-11.7-6.2-12-6.2c-2.9-2-6.8-1.3-8.8,1.6c-1.3,2-1.3,4.6-0.3,6.5c0.3,0.7,1,1.6,2,2
				c0.7,0.3,6.2,4.2,15.6,8.1l-1.6,5.2l0,0c-9.1,28.3-17.9,49.8-28,50.7c-1.3,0-2-0.3-2.3-1c-5.9-6.5-3.6-32.5,0-52
				c0.3-3.6-2-6.8-5.2-7.8c-3.3-1-6.8,1-8.1,4.2c-7.8,21.8-26.7,64.1-47.5,69c-3.6,1-5.2,0-6.2-1c-2-2-5.9-8.5-4.9-30.9
				c0.3-3.6-3.6-5.9-6.8-4.2l-5.5,2.9c-1.6,31.6,5.5,38.4,8.5,41.6c3.3,3.3,8.8,6.5,17.9,4.2c16.9-4.2,30.9-23.1,41-42
				c0.3,0,0.3,0,0.3,0c0.3,10.1,2,19.2,6.5,24.4c3.3,3.9,7.8,5.5,12.7,5.2c9.4-0.7,17.6-8.1,25-21.5c0-0.3,0.3,0,0.3,0
				c-1.6,18.2-1,33.5,4.2,40.7c2.9,3.9,6.8,5.9,11.7,5.9h0.3c12.4-0.3,23.7-13,35.1-39c0.3,0,0.3,0,0.3,0
				c0.3,13.3,2.3,24.4,7.2,30.6c3.6,4.6,8.5,6.8,14.3,6.8c14.3-0.3,28.6-11.7,42.6-34.2l0,0C460.7,410.4,463.3,406.2,465.9,401.3
				L465.9,401.3z M392.4,372c-10.7,35.8-22.4,64.1-32.9,64.1l0,0c-0.7,0-1,0-1.6-1c-4.9-6.8-4.2-29.6,0-57.2l0,0l3.3-17.9
				c9.4,2.6,20.8,4.9,33.5,4.9L392.4,372z M459.1,386.7c-2.9-9.8-4.6-22.1-3.9-36.1c2-55.9,16.3-68.6,21.5-68.6h0.3h1
				c0,0,3.6-0.3,6.2,2.3c2.3,2.6,5.5,9.4,1.3,28.6c-5.2,23.4-14.6,50.7-26,73.8C459.4,386.7,459.4,386.7,459.1,386.7z"/>
			<path class="st1" d="M311.1,337.9c6.2,0,11.1-5.2,11.1-11.4s-5.2-11.1-11.4-11.1s-11.1,5.2-11.1,11.4
				C300,333,304.9,337.9,311.1,337.9z"/>
			<path class="st1" d="M596,311.2c-18.2-13-35.1-10.7-36.1-10.7c-2.9,0.3-4.9,2.9-4.6,5.9c0.7,2.9,3.3,4.9,6.5,4.6
				c0.3,0,13.7-1.6,27.6,8.5c7.2,5.2,11.1,11.1,10.7,17.2c0,2-0.7,3.6-1.3,5.2c-4.9-8.5-13.7-17.9-29.9-25c-1.6-0.7-3.3-0.7-4.9-0.3
				c-1.3,0.7-2.3,1.6-2.6,2.9c-0.3,1-1.6,5.2,0.7,14.3c2,8.8,8.5,20.5,17.9,25c4.6,2,9.1,2.3,13.7,1c0,0,0.3,0,1.6-0.7
				c4.6,16.9,1.3,34.2-12.4,47.5c-15,15-41,15.6-55,2c-4.2-4.2-6.5-10.1-6.5-10.1c-2.6-5.5-3.9-12-4.2-19.5
				c-0.7-12.7,1.6-22.4,6.5-27.3c3.6-3.6,8.1-4.2,9.1-4.2c0.3,0,0.3,0,0.3,0h0.7c0,0,3.9,0,5.5,3.3c1.6,2.6,3.9,10.7-7.5,32.9
				c-2,3.6-4.2,7.2-6.5,10.1c2.9,5.5,8.1,11.7,17.6-4.6c11.7-20.2,13-35.5,7.2-45.2c-4.2-7.2-12-9.1-15.9-9.1c-2,0-11.1,0-18.9,7.5
				c-7.8,7.8-11.4,20.2-10.7,37.1c0.7,10.7,2.9,19.8,6.8,27.3c0,0.3,0,0.3-0.3,0.7c-8.8,5.9-18.5,8.5-27.6,6.2
				c-5.5-1.3-10.4-4.2-14.3-8.8l-2.6,5.5c-2,3.9-0.7,8.8,3.3,10.7c3.3,2,6.8,3.6,10.7,4.6c12.7,3.3,26.3,0,38.1-8.5l1-0.3
				c9.8,9.1,22.1,13.7,34.5,13.7c13,0,26-4.9,35.8-15c17.2-17.2,22.1-42,15-63.4c3.9-4.2,6.5-9.4,6.5-15.3
				C612,327.8,606.4,318.7,596,311.2z M584,350.2c-5.9-2.9-10.7-12-12.4-19.2c-0.3-1-0.3-1.6-0.3-2.3c11.1,6.8,16.9,14.6,19.8,21.5
				C588.6,351.2,586.3,351.5,584,350.2z"/>
		</g>
	</g>
	<g>
		<path class="st2" d="M252.2,480h-12v-11.4c0-2-1.6-3.6-3.6-3.6h-1.3c-2,0-3.6,1.6-3.6,3.6V480h-3.3c-2,0-3.6,1.6-3.6,3.6v0.3
			c0,2,1.6,3.6,3.6,3.6h3.3v29.6c0,9.4,5.2,14.6,14.6,14.6c2.6,0,4.9-0.3,7.2-1.3c1.3-0.7,2.3-2,2.3-3.6c0-1.3-0.7-2.3-1.3-2.9
			c-1-0.7-2-1-2.9-0.7s-2.3,0.3-3.3,0.3c-5.2,0-7.8-2.6-7.8-7.8v-28.6h12c2,0,3.6-1.6,3.6-3.6v-0.3C255.8,481.6,254.2,480,252.2,480
			z"/>
		<path class="st2" d="M338.1,480c-2,0-3.6,1.3-3.9,2.9l-11.7,35.8l-12-36.1c-0.7-1.6-2.3-2.9-3.9-2.9h-1c-2,0-3.6,1.3-3.9,2.9
			l-12,36.1l-11.7-35.8c-0.7-1.6-2.3-2.9-3.9-2.9h-0.3c-1.3,0-2.6,0.7-3.6,1.6c-0.7,1-1,2.6-0.7,3.9l15,42.9
			c0.7,1.6,2.3,2.9,3.9,2.9h1.3c2,0,3.3-1.3,3.9-2.9l12-35.1l12,35.1c0.7,1.6,2.3,2.9,3.9,2.9h1.3c1.6,0,3.3-1,3.9-2.9l15.3-42.9
			c0.3-1.3,0.3-2.6-0.7-3.9C340.7,480.7,339.4,480,338.1,480z"/>
		<path class="st2" d="M364.5,480c-2.3,0-4.2,2-4.2,4.2v42.6c0,2.3,2,4.2,4.2,4.2c2.3,0,4.2-2,4.2-4.2v-42.6
			C368.7,482,366.7,480,364.5,480z"/>
		<path class="st2" d="M417.5,478.7c-6.8,0-12.4,2.9-16.6,8.5v-2.9c0-2.3-2-4.2-4.2-4.2s-4.2,2-4.2,4.2v42.6c0,2.3,2,4.2,4.2,4.2
			c2.3,0,4.2-2,4.2-4.2v-24.7c0-8.8,5.9-15,14.3-15c8.1,0,13.3,5.5,13.3,14.3v25.4c0,2.3,2,4.2,4.2,4.2c2.3,0,4.2-2,4.2-4.2v-27.3
			C437.3,486.8,429.5,478.7,417.5,478.7z"/>
		<path class="st2" d="M542,501.5L542,501.5c-6.5-2-12.4-3.9-12.4-8.1V493c0-3.9,3.6-6.5,9.1-6.5c3.9,0,7.8,1,11.7,3.3
			c1.6,1,3.9,0.3,5.2-1.3c0.7-1,0.7-2,0.3-2.9c-0.3-1-1-2-2-2.3c-4.9-2.3-10.4-3.9-15.3-3.9c-10.4,0-17.6,6.2-17.6,15v0.3
			c0,9.8,9.8,12.7,16.9,14.6c6.8,2,12,3.6,12,8.1v0.3c0,4.2-3.9,7.5-9.8,7.5c-4.6,0-9.8-1.6-14.3-4.6c-1.6-1-3.9-0.7-5.2,1
			c-0.7,1-1,2-0.7,2.9c0.3,1,1,2,1.6,2.6c5.5,3.6,12,5.5,18.2,5.5c11.1,0,18.2-6.2,18.2-15.6v-0.3C558.6,507,550.5,503.7,542,501.5z
			"/>
		<path class="st2" d="M501.4,490.1l-0.3-0.7c-4.2-7.2-10.7-10.7-19.2-10.7c-14,0-24.4,11.4-24.4,26.7s11.1,26.7,25.4,26.7
			c7.5,0,13.3-2.3,18.5-7.2c0.7-0.7,1.3-1.6,1.3-2.9c0-1-0.3-2-1.3-2.9c-1.3-1.3-3.6-1.3-4.9,0c-3.9,3.6-8.1,4.9-13.3,4.9
			c-7.8,0-14-4.9-16.3-12.4c4.9,0.7,9.4,0.7,13.7,0.7l0,0c3.9-0.3,9.4-1,14-3.3c4.9-2.3,7.5-5.5,8.5-9.8
			C503.7,495.9,502.4,492.4,501.4,490.1L501.4,490.1z M494.9,497.9c-0.3,1.6-2,3.3-4.6,4.6c-7.2,3.6-18.2,2.9-24.4,2
			c0-1,0-2,0.3-2.6c1.3-8.8,7.8-15,15.6-15c6.5,0,10.1,3.6,12,6.5l0,0C494.6,494,495.2,495.9,494.9,497.9z"/>
	</g>
</g>
</svg>
