<?xml version="1.0" encoding="utf-8"?>
<!-- Generator: Adobe Illustrator 24.2.1, SVG Export Plug-In . SVG Version: 6.00 Build 0)  -->
<svg version="1.1" id="Layer_1" xmlns="http://www.w3.org/2000/svg" xmlns:xlink="http://www.w3.org/1999/xlink" x="0px" y="0px"
	 viewBox="0 0 800 800" style="enable-background:new 0 0 800 800;" xml:space="preserve">
<style type="text/css">
	.st0{fill-rule:evenodd;clip-rule:evenodd;fill:#253DFF;}
	.st1{fill-rule:evenodd;clip-rule:evenodd;fill:#FFFFFF;}
</style>
<rect x="-0.4" y="-0.5" class="st0" width="801.5" height="801.5"/>
<g>
	<path class="st1" d="M544.7,489.4c4.4,5.2,11.5,8.5,18.9,6.7c1.1-0.4,2.2-0.7,2.6-1.9c1.5-2.2,0-5.2-4.4-5.9l-6.3-0.7
		c-7.8-1.1-16.3-3.7-19.6-11.9c-3.3-8.5,0-18.9,7.8-24.1c11.5-7,27-4.8,36.3,2.6c1.5,1.1,3.3,3,3.3,3c0.7,0.7,0.7,1.1,0.7,1.1
		l-0.4,0.7l-9.3,9.6l-0.7,0.4c0,0-7-5.9-13.7-5.9c-3,0-6.3,0.4-6.3,4.1c0.4,5.2,11.9,4.1,17.8,5.9c5.6,1.5,11.1,5.2,13,10.7
		c3,8.2-0.4,17.4-7.8,22.6c-12.2,8.5-30.4,5.9-40.4-3.3c-1.1-1.1-2.6-2.6-2.6-2.6c-0.4-0.4-0.4-1.1,0-1.9l9.6-9.6l1.1-0.4
		C543.6,489.1,544.3,489.1,544.7,489.4z"/>
	<path class="st1" d="M588.8,465c0,0-0.7,0-1.1-0.7v-0.4v-12.6c0,0-0.4-1.1,1.1-1.1c2.6,0,5.9,0.4,7.4-1.1c1.1-1.1,1.1-2.6,1.1-4.1
		v-9.6l0.4-0.7c0.4-0.4,0.4-0.4,0.7-0.4h14.8h0.4l0.7,0.7v0.4v14.5h10.4l0.7,0.4l0.4,0.7v12.6c-0.4,1.1-0.7,1.1-0.7,1.1h-0.4h-10.4
		V495h9.3c1.1,0.4,1.1,0.7,1.1,0.7v0.4v12.6c-0.4,1.1-0.7,1.1-0.7,1.1h-0.4h-9.3c-6.3,0-12.6-1.9-15.9-7.8c-1.9-3.3-2.6-7-2.6-10.7
		v-27.4h-7V465z"/>
	<path class="st1" d="M192.3,510.5H176c-1.1-0.4-1.1-0.7-1.1-0.7v-0.4v-58.5l0.4-0.7l0.7-0.4h16.3c0,0,0.4,0,1.1,0.7v0.4v5.6
		c5.9-10,24.1-11.5,31.1,0.7c0.4,0.4,0.4,1.5,0.7,0.7c3.7-6.3,11.1-10,18.2-9.6c5.2,0,10.4,2.2,13.7,6.7c3.7,5.2,4.8,11.5,4.8,17.8
		v36.7c-0.4,1.1-0.7,1.1-0.7,1.1h-0.4h-16.3c-1.1-0.4-1.1-0.7-1.1-0.7v-0.4c0-11.9,0-23.7,0-35.6c0-0.4,0-1.1,0-1.5
		c0-0.4,0-0.7,0-1.1s0-0.7,0-0.7c0-0.4,0-0.4,0-0.7c-0.4-1.5-1.1-3.3-3-4.1c-1.9-1.1-3.7-0.7-5.6-0.4c-3.3,0.7-5.9,3.3-5.9,7v37.8
		c-0.4,1.1-0.7,1.1-0.7,1.1h-0.4h-16.3c-1.1-0.4-1.1-0.7-1.1-0.7v-0.4c0-11.9,0-23.7,0-35.6c0-0.4,0-1.1,0-1.5s0-0.7,0-1.5
		c0-0.4,0-0.7,0-1.1c0-0.4,0-0.4,0-0.7c-0.4-1.9-1.5-3.7-3-4.4c-4.4-2.2-11.5,0.7-11.5,6.7v37.8c-0.4,1.1-0.7,1.1-0.7,1.1
		L192.3,510.5z"/>
	<path class="st1" d="M431.3,465c0,0-0.7,0-1.1-0.7v-0.4v-12.6c0,0,0-0.4,0.7-1.1h0.4h7v-5.6c0-5.9,2.2-12.2,7.4-15.6
		c3.3-1.9,7.4-2.6,11.1-2.6h10.7h0.4c1.1,0.7,0.7,1.1,0.7,1.1v12.6c0,0,0,0.4-0.7,1.1h-0.4h-10.4v8.5h10.4c0,0,0.4,0,1.1,0.7v0.4
		v12.6c0,0,0,0.4-0.7,1.1h-0.4h-10.4v44.5c-0.4,1.1-0.7,1.1-0.7,1.1h-0.4h-16.3c-1.1-0.4-1.1-0.7-1.1-0.7v-0.4v-44.5h-7.4V465z"/>
	<path class="st1" d="M355,510.5h-16.3c-1.1-0.4-1.1-0.7-1.1-0.7v-0.4v-58.5c0-0.4,0-0.7,0.7-1.1h0.4H355c0,0,0.4,0,1.1,0.7v0.4v5.6
		c3-5.2,8.9-8.2,15.6-8.2h0.4c5.6,0,11.5,2.2,14.8,7c3.7,4.8,4.4,11.5,4.4,17.4v36.7c-0.4,1.1-0.7,1.1-0.7,1.1h-0.4h-16.3
		c-1.1-0.4-1.1-0.7-1.1-0.7v-0.4c0-11.9,0-23.7,0-35.6c0-0.4,0-1.1,0-1.5c0-0.4,0-0.7,0-1.1s0-0.7,0-0.7c0-0.4,0-0.4,0-0.7
		c-0.4-1.5-1.1-3-2.2-4.1c-2.2-1.5-5.6-1.1-7.8-0.4c-3,0.7-5.6,3.3-5.6,6.7v37.8c-0.4,1.1-0.7,1.1-0.7,1.1L355,510.5z"/>
	<path class="st1" d="M304.6,485.7h-6.7c-0.4,0-1.1,0-1.5,0s-0.7,0-1.1,0s-0.7,0-0.7,0c-0.4,0-0.4,0-0.7,0c-2.2,0.7-4.1,2.2-4.1,4.4
		c0,1.9,0,3.7,1.1,5.2c2.2,2.6,6.7,1.9,9.3,1.1s4.8-2.6,4.8-5.9v-4.8H304.6z M327.6,495l0.7,0.4l0.4,0.7v12.6
		c-0.4,1.1-0.7,1.1-0.7,1.1h-0.4c-5.9,0-11.9,0.7-16.3-2.2c-2.2-1.5-3.7-3.7-4.4-5.9c-1.1,3-3.7,5.6-6.7,7
		c-3.7,1.9-7.8,2.6-11.9,2.6c-7.8-0.4-15.6-4.4-17.8-12.6c-2.2-8.9,1.9-19.3,11.5-23c4.4-1.9,9.3-2.2,14.1-2.2h7.8
		c0-3,0-6.7-2.2-8.5c-4.4-3.7-11.5-1.9-14.8,1.5c-1.5,1.1-2.6,3-2.6,3l-0.7,0.4l-0.7,0.4l-9.6-8.5c-1.1-1.5,1.5-4.1,3.7-6.3
		c5.6-5.2,13.3-7,21.1-7c8.9,0,18.2,2.2,23,10c2.2,3.7,3,8.2,3,12.6v24.5h3.7V495z"/>
	<path class="st1" d="M500.2,462.7c-3,0-5.9,1.5-7.4,4.1c-1.1,1.9-1.5,4.1-1.5,6.3h17.8v-0.4c0-0.7,0-1.5-0.4-2.2
		C508,466.5,505.1,462.7,500.2,462.7L500.2,462.7z M491,485.4c0,3.3,1.1,7,4.1,8.9c5.2,3.3,12.2,2.2,17-1.1c1.5-1.1,2.6-2.2,4.1-3.7
		l1.1-0.4c0,0,0.4,0,1.1,0.4l8.2,10.4c0,0,0.7,1.1-0.7,2.2c-13.3,14.1-40.8,13-50-4.4c-4.1-7.4-4.8-16.3-3.7-24.1
		c1.5-11.1,8.5-21.9,20.4-24.8c11.9-3,25.2,0.7,31.5,11.1c3.3,5.6,4.8,12.2,4.8,18.9v5.2l-0.4,0.7l-0.7,0.4H491V485.4z"/>
	<path class="st1" d="M413.2,424.6c4.8,0,10.4,2.6,10.7,9.3c0,4.1-0.4,8.2-4.1,10.4c-6.7,4.4-17.8,0.7-17.8-7.4
		c0-4.1,0.4-8.5,4.8-10.7C409.1,425,411.3,424.6,413.2,424.6z M421.3,510.5H405c-1.1-0.4-1.1-0.7-1.1-0.7v-0.4v-58.5l0.4-0.7
		l0.7-0.4h16.3h0.4c1.1,0.7,0.7,1.1,0.7,1.1v58.2l-0.4,0.7L421.3,510.5z"/>
	<polygon class="st1" points="380.6,259.7 350.2,259.7 403.9,353.1 434.3,353.1 	"/>
	<polygon class="st1" points="403.5,360.5 433.9,360.5 418.7,386.8 388.3,386.8 	"/>
	<polygon class="st1" points="481.3,360.5 511.7,360.5 496.5,386.8 466.2,386.8 	"/>
	<polygon class="st1" points="342.8,330.8 358.7,356 340.9,386.8 310.5,386.8 	"/>
	<polygon class="st1" points="458.4,259.7 428,259.7 481.7,353.1 512.1,353.1 	"/>
	<polygon class="st1" points="421.3,262.7 405.8,288.6 459.5,382 475,356 	"/>
	<polygon class="st1" points="328.7,288.6 328.7,288.6 343.9,262.7 398,356 382.4,382 343.9,314.9 304.2,381.6 289,355.3 	"/>
</g>
</svg>
