<?xml version="1.0" encoding="utf-8"?>
<!-- Generator: Adobe Illustrator 24.2.1, SVG Export Plug-In . SVG Version: 6.00 Build 0)  -->
<svg version="1.1" id="Layer_1" xmlns="http://www.w3.org/2000/svg" xmlns:xlink="http://www.w3.org/1999/xlink" x="0px" y="0px"
	 viewBox="0 0 800 800" style="enable-background:new 0 0 800 800;" xml:space="preserve">
<style type="text/css">
	.st0{fill-rule:evenodd;clip-rule:evenodd;fill:#004D36;}
	.st1{fill:#FBBC85;}
	.st2{fill:#FFFFFF;}
	.st3{fill:url(#SVGID_1_);}
</style>
<rect x="-0.4" y="-0.5" class="st0" width="801.5" height="801.5"/>
<g>
	<g>
		<g>
			<g>
				<path class="st1" d="M297.1,316.1h33.7h0c-9-0.4-16.5-10.3-16.9-22l0,0C313.6,305.8,306.1,315.8,297.1,316.1L297.1,316.1z"/>
				<path class="st1" d="M297.1,316.1h33.7h0c-9-0.4-16.5-10.3-16.9-22l0,0C313.6,305.8,306.1,315.8,297.1,316.1L297.1,316.1z"/>
			</g>
			<g>
				<path class="st1" d="M301.9,203h31.8l37.2,86.7l-11.2,26.4l-44.4-104.2C313.2,207,307.9,203.4,301.9,203L301.9,203z"/>
				<path class="st1" d="M301.9,203h31.8l37.2,86.7l-11.2,26.4l-44.4-104.2C313.2,207,307.9,203.4,301.9,203L301.9,203z"/>
			</g>
			<g>
				<path class="st1" d="M503,287.1c0,16.3-16.4,29.6-36.6,29.6c-2.1,0-4.2-0.1-6.3-0.4c12.2-2.4,21.5-14.5,21.5-29.2
					c0-14.5-9.1-26.5-21.2-29.1c-0.1,0-0.2,0-0.3-0.1c-0.9-0.2-1.8-0.3-2.6-0.4c10.8-2.4,18.9-13.6,18.9-27.1
					c0-13.6-8.4-24.9-19.3-27.2c1.8-0.3,3.7-0.4,5.7-0.4c18.2,0,33,12.4,33,27.6c0,13.4-11.5,24.6-26.8,27.1
					C488,258.7,503,271.5,503,287.1z"/>
				<path class="st1" d="M503,287.1c0,16.3-16.4,29.6-36.6,29.6c-2.1,0-4.2-0.1-6.3-0.4c12.2-2.4,21.5-14.5,21.5-29.2
					c0-14.5-9.1-26.5-21.2-29.1c-0.1,0-0.2,0-0.3-0.1c-0.9-0.2-1.8-0.3-2.6-0.4c10.8-2.4,18.9-13.6,18.9-27.1
					c0-13.6-8.4-24.9-19.3-27.2c1.8-0.3,3.7-0.4,5.7-0.4c18.2,0,33,12.4,33,27.6c0,13.4-11.5,24.6-26.8,27.1
					C488,258.7,503,271.5,503,287.1z"/>
			</g>
			<g>
				<path class="st1" d="M438.2,316.1h-32.9V203h32.9l0,0c-5.7,0.5-10.3,5.4-10.4,10.4v92.3C427.7,310.8,432.3,315.4,438.2,316.1
					L438.2,316.1z"/>
				<path class="st1" d="M438.2,316.1h-32.9V203h32.9l0,0c-5.7,0.5-10.3,5.4-10.4,10.4v92.3C427.7,310.8,432.3,315.4,438.2,316.1
					L438.2,316.1z"/>
			</g>
		</g>
	</g>
	<g>
		<g>
			<path class="st2" d="M239.7,380.6h-0.1l-13.5,32.9h-5.8l-13.4-32.8h-0.1v32.8h-6.7v-44h9.2l13.9,34h0.1l13.7-34h9.4v44h-6.7
				V380.6z"/>
			<path class="st2" d="M258.9,413.5l17.5-44h8l17.4,44h-7.1l-3.9-10.3h-21.1l-4,10.3H258.9z M280.4,376.2l-8.2,20.9h16.4
				L280.4,376.2z"/>
			<path class="st2" d="M321.3,413.5h-6.8v-44h16.2c10.8,0,14.7,6.7,14.7,13.6c0,5.6-2.8,10.3-8.5,12.3l9.5,18.1h-7.5l-8.7-16.7h-9
				V413.5z M338.5,383.3c0-3.3-1.5-7.4-8.5-7.4h-8.7v14.7h8.7C336.5,390.6,338.5,386.7,338.5,383.3z"/>
			<path class="st2" d="M354.6,369.5h7.8l11.8,19.7l11.9-19.7h7.7l-16.3,26.2v17.7h-6.8v-17.6L354.6,369.5z"/>
			<path class="st2" d="M461.8,381.1c0,2.4-1.1,7.2-6.2,9.5c6.6,2.1,8.2,7.1,8.2,10.6c0,7.1-5,12.3-15.3,12.3h-17v-44h16.5
				C456.2,369.5,461.8,373.9,461.8,381.1z M455,381.8c0-3.3-2.2-6.1-8-6.1h-8.9v12.4h8.5C452.5,388.1,455,385.2,455,381.8z
				 M457,400.7c0-3.6-2.7-6.5-8.8-6.5h-10v13.1h10.4C454.2,407.3,457,404.5,457,400.7z"/>
			<path class="st2" d="M506.5,375.8h-20.8V388h18.9v6.3h-18.9v13h21v6.3h-27.8v-44h27.6V375.8z"/>
			<path class="st2" d="M518.6,375.9v-6.4h34.2v6.4H539v37.6h-6.8v-37.6H518.6z"/>
			<path class="st2" d="M565.8,413.5v-44h6.8V388h21.3v-18.5h6.8v44h-6.8v-19h-21.3v19H565.8z"/>
			<path class="st2" d="M292.3,455.6h-20.8v12.2h18.9v6.3h-18.9v13h21v6.3h-27.8v-44h27.6V455.6z"/>
			<path class="st2" d="M314.4,486.9h19.5v6.4h-26.2v-44h6.8V486.9z"/>
			<path class="st2" d="M353.6,486.9h19.5v6.4h-26.2v-44h6.8V486.9z"/>
			<path class="st2" d="M386,493.3v-44h6.8v44H386z"/>
			<path class="st2" d="M430.1,448.7c12.2,0,22.1,9.7,22.1,22.5c0,13-10.1,22.6-22.3,22.6c-12.2,0-22-9.5-22-22.4
				C407.9,458.6,417.9,448.7,430.1,448.7z M430,487.4c8.4,0,15-7.2,15-16.1c0-9-6.6-16.1-15-16.1c-8.5,0-15,7.2-15,16.1
				C415,480.2,421.5,487.4,430,487.4z"/>
			<path class="st2" d="M461.1,455.7v-6.4h34.2v6.4h-13.7v37.6h-6.8v-37.6H461.1z"/>
			<path class="st2" d="M506.3,455.7v-6.4h34.2v6.4h-13.7v37.6H520v-37.6H506.3z"/>
		</g>
	</g>
	<g>
		<g>
			<linearGradient id="SVGID_1_" gradientUnits="userSpaceOnUse" x1="453.7871" y1="579.4446" x2="578.3249" y2="438.4527">
				<stop  offset="4.469701e-03" style="stop-color:#FFEFCF"/>
				<stop  offset="9.385519e-02" style="stop-color:#FBBB76"/>
				<stop  offset="0.2994" style="stop-color:#FFEFCF"/>
				<stop  offset="0.4469" style="stop-color:#FBBB76"/>
				<stop  offset="0.6525" style="stop-color:#FFEFCF"/>
				<stop  offset="0.7201" style="stop-color:#FBBB76"/>
				<stop  offset="0.8089" style="stop-color:#FFEFCF"/>
			</linearGradient>
			<path class="st3" d="M481.6,542.2c-0.9-3.3-3.9-5.8-7.5-5.8c-4.3,0-7.8,3.5-7.8,7.8c0,4.3,3.5,7.8,7.8,7.8c3.6,0,6.6-2.5,7.5-5.8
				h6.8v5.5h4v-5.5h3.2v5.5h4v-9.5H481.6z M474.1,548.1c-2.1,0-3.8-1.7-3.8-3.8c0-2.1,1.7-3.8,3.8-3.8c2.1,0,3.8,1.7,3.8,3.8
				C478,546.3,476.2,548.1,474.1,548.1z"/>
		</g>
		<g>
			<path class="st1" d="M316.2,548.9c0,1.8-0.6,3.2-1.9,4.4c-1.3,1.1-2.8,1.7-4.7,1.7h-8.9v-21h8.3c1.8,0,3.3,0.6,4.5,1.7
				c1.2,1.1,1.9,2.5,1.9,4.2c0,1.7-0.7,3.2-2,4.2C315.3,545.2,316.2,546.8,316.2,548.9z M304.9,537.9v4.6h4.1c1.3,0,2.3-1,2.3-2.3
				s-0.9-2.3-2.3-2.3H304.9z M309.7,551.1c1.4,0,2.4-1.1,2.4-2.5c0-1.4-1-2.5-2.4-2.5h-4.8v5H309.7z"/>
			<path class="st1" d="M337.9,555l-4.2-7.3h-3.2v7.3h-4.1v-21h8.4c2,0,3.6,0.7,5,2c1.4,1.4,2,3,2,4.9c0,2.6-1.6,5-4.1,6.1l4.7,7.9
				H337.9z M330.5,537.9v6.2h4.3c1.6,0,2.9-1.4,2.9-3.1s-1.3-3.1-2.9-3.1H330.5z"/>
			<path class="st1" d="M362,555.4c-3,0-5.6-1.1-7.8-3.2c-2.1-2.1-3.2-4.7-3.2-7.8c0-3.1,1.1-5.6,3.2-7.8c2.1-2.1,4.7-3.2,7.8-3.2
				c3,0,5.6,1.1,7.8,3.2c2.1,2.1,3.2,4.7,3.2,7.8c0,3.1-1.1,5.6-3.2,7.8C367.6,554.4,365,555.4,362,555.4z M362,551.4
				c1.9,0,3.5-0.6,4.8-1.9c1.3-1.3,2-2.9,2-5c0-2-0.7-3.7-2-5c-1.3-1.3-2.9-2-4.8-2c-1.9,0-3.5,0.7-4.8,2c-1.3,1.3-2,2.9-2,5
				c0,2,0.7,3.7,2,5C358.4,550.8,360.1,551.4,362,551.4z"/>
			<path class="st1" d="M399.7,555H395l-7.5-9.9v9.9h-4.1v-21h4.1v9.3l7.2-9.3h4.8l-7.8,10.2L399.7,555z"/>
			<path class="st1" d="M413.4,551.1h8.9v4h-13v-21h12.9v4h-8.7v4.5h8v3.9h-8V551.1z"/>
			<path class="st1" d="M444.2,555l-4.2-7.3h-3.2v7.3h-4.1v-21h8.4c2,0,3.6,0.7,5,2c1.4,1.4,2,3,2,4.9c0,2.6-1.6,5-4.1,6.1l4.7,7.9
				H444.2z M436.8,537.9v6.2h4.3c1.6,0,2.9-1.4,2.9-3.1s-1.3-3.1-2.9-3.1H436.8z"/>
			<path class="st1" d="M313.9,597.1l-1.3-3.8h-8.4l-1.3,3.8h-4.5l7.4-21h5.1l7.4,21H313.9z M305.5,589.4h5.8l-2.9-8.6L305.5,589.4z
				"/>
			<path class="st1" d="M324.6,592.3l3.5-2.1c0.8,2.1,2.4,3.2,4.8,3.2c2.3,0,3.4-0.9,3.4-2.2c0-0.8-0.3-1.3-1-1.7
				c-0.7-0.4-1.8-0.9-3.5-1.4c-1.9-0.6-3-1-4.4-2c-1.3-1-2-2.4-2-4.3c0-1.9,0.7-3.4,2-4.5c1.4-1.1,3-1.7,4.9-1.7
				c3.4,0,6.1,1.7,7.5,4.7l-3.5,2c-0.8-1.8-2.2-2.7-4-2.7c-1.7,0-2.8,0.9-2.8,2.1c0,0.7,0.3,1.2,0.8,1.6c0.6,0.4,1.6,0.8,3.2,1.3
				l1.4,0.5c0.3,0.1,0.8,0.3,1.4,0.5c0.6,0.2,1,0.4,1.3,0.6c0.6,0.4,1.6,1.1,2,1.9c0.5,0.7,0.8,1.8,0.8,3c0,2-0.7,3.5-2.1,4.6
				c-1.4,1.1-3.2,1.7-5.5,1.7C328.6,597.5,325.7,595.5,324.6,592.3z"/>
			<path class="st1" d="M347.1,592.3l3.5-2.1c0.8,2.1,2.4,3.2,4.8,3.2c2.3,0,3.4-0.9,3.4-2.2c0-0.8-0.3-1.3-1-1.7
				c-0.7-0.4-1.8-0.9-3.5-1.4c-1.9-0.6-3-1-4.4-2c-1.3-1-2-2.4-2-4.3c0-1.9,0.7-3.4,2-4.5c1.4-1.1,3-1.7,4.9-1.7
				c3.4,0,6.1,1.7,7.5,4.7l-3.5,2c-0.8-1.8-2.2-2.7-4-2.7c-1.7,0-2.8,0.9-2.8,2.1c0,0.7,0.3,1.2,0.8,1.6c0.6,0.4,1.6,0.8,3.2,1.3
				l1.4,0.5c0.3,0.1,0.8,0.3,1.4,0.5c0.6,0.2,1,0.4,1.3,0.6c0.6,0.4,1.6,1.1,2,1.9c0.5,0.7,0.8,1.8,0.8,3c0,2-0.7,3.5-2.1,4.6
				c-1.4,1.1-3.2,1.7-5.5,1.7C351.2,597.5,348.3,595.5,347.1,592.3z"/>
			<path class="st1" d="M381.2,597.5c-3,0-5.6-1.1-7.8-3.2c-2.1-2.1-3.2-4.7-3.2-7.8c0-3.1,1.1-5.6,3.2-7.8c2.1-2.1,4.7-3.2,7.8-3.2
				c3,0,5.6,1.1,7.8,3.2c2.1,2.1,3.2,4.7,3.2,7.8c0,3.1-1.1,5.6-3.2,7.8C386.8,596.4,384.3,597.5,381.2,597.5z M381.2,593.4
				c1.9,0,3.5-0.6,4.8-1.9c1.3-1.3,2-2.9,2-5c0-2-0.7-3.7-2-5c-1.3-1.3-2.9-2-4.8-2s-3.5,0.7-4.8,2c-1.3,1.3-2,2.9-2,5
				c0,2,0.7,3.7,2,5C377.7,592.8,379.3,593.4,381.2,593.4z"/>
			<path class="st1" d="M402.9,594.3c-2.1-2.1-3.1-4.7-3.1-7.8c0-3.1,1-5.7,3.1-7.8c2.1-2.1,4.7-3.2,7.8-3.2c3.8,0,7.2,1.9,9,5
				l-3.6,2.1c-1.1-1.9-3.1-3-5.5-3c-2,0-3.7,0.6-5,1.9c-1.2,1.3-1.9,2.9-1.9,5c0,2,0.6,3.7,1.9,5c1.3,1.3,2.9,1.9,5,1.9
				c2.4,0,4.5-1.1,5.5-3l3.6,2.1c-1.8,3-5.2,5-9,5C407.6,597.5,405,596.4,402.9,594.3z"/>
			<path class="st1" d="M428.1,576h4.1v21h-4.1V576z"/>
			<path class="st1" d="M455.3,597.1l-1.3-3.8h-8.4l-1.3,3.8H440l7.4-21h5.1l7.4,21H455.3z M447,589.4h5.8l-2.9-8.6L447,589.4z"/>
			<path class="st1" d="M480,576v4h-5.7v17.1h-4.1V580h-5.6v-4H480z"/>
			<path class="st1" d="M492.1,593.1h8.9v4h-13v-21h12.9v4h-8.7v4.5h8v3.9h-8V593.1z"/>
			<path class="st1" d="M481.6,542.2c-0.9-3.3-3.9-5.8-7.5-5.8c-4.3,0-7.8,3.5-7.8,7.8c0,4.3,3.5,7.8,7.8,7.8c3.6,0,6.6-2.5,7.5-5.8
				h6.8v5.5h4v-5.5h3.2v5.5h4v-9.5H481.6z M474.1,548.1c-2.1,0-3.8-1.7-3.8-3.8c0-2.1,1.7-3.8,3.8-3.8c2.1,0,3.8,1.7,3.8,3.8
				C478,546.3,476.2,548.1,474.1,548.1z"/>
		</g>
	</g>
</g>
</svg>
