<?xml version="1.0" encoding="utf-8"?>
<!-- Generator: Adobe Illustrator 24.2.1, SVG Export Plug-In . SVG Version: 6.00 Build 0)  -->
<svg version="1.1" id="Layer_1" xmlns="http://www.w3.org/2000/svg" xmlns:xlink="http://www.w3.org/1999/xlink" x="0px" y="0px"
	 viewBox="0 0 800 800" style="enable-background:new 0 0 800 800;" xml:space="preserve">
<style type="text/css">
	.st0{fill-rule:evenodd;clip-rule:evenodd;}
	.st1{fill:#FFFFFF;}
</style>
<rect x="-0.4" y="-0.5" class="st0" width="801.5" height="801.5"/>
<g>
	<path class="st1" d="M344.7,402.3h-21.3v-62.1v-23.8V291v-0.3v-9.3l15.9-4.8l3,3l2.3,2.3l12.3,12.3l10.6,10.6l21.3,21.2l11.5,11.4
		l11.5-11.4v-42.2l-11.5-3.5l-11.5,3.5v24.1l-21.3-21.2v-18.7l21.3-6.4l11.5-3.5l11.5,3.5l21.3,6.4v22.2v14.5v30v39.2v27.7v0.7
		h-21.3v-19.6v-26.8l-11.5,11.4l-11.5-11.4v26.8v19.6h-21.3v-0.7v-27.7v-39.2l-22.9-22.9V402.3z M477.3,340.3v-23.8V291v-0.3v-9.3
		l-15.9-4.8l-3,3l-2.3,2.3l-10.2,10.1v30l10.2-10.1v90.5h21.3V340.3z"/>
	<g>
		<path class="st1" d="M173.2,481.9v-35.3h5.6l11.4,15.9l11.3-15.9h5.5v35.3h-5.5v-26.8l-9.8,13.3h-3.2l-9.8-13.3v26.8H173.2z"/>
		<path class="st1" d="M220.6,481.9l15.4-35.5h5.3l15.4,35.5h-5.9l-3.8-8.8h-16.7l-3.8,8.8H220.6z M232.2,468.3h12.9l-6.4-14.8
			L232.2,468.3z"/>
		<path class="st1" d="M262.9,446.6h28.9v5.1h-11.7v30.2h-5.5v-30.2h-11.6V446.6z"/>
		<path class="st1" d="M304.3,446.6h28.9v5.1h-11.7v30.2h-5.5v-30.2h-11.6V446.6z"/>
		<path class="st1" d="M365.1,481.9l15.4-35.5h5.3l15.4,35.5h-5.9l-3.8-8.8h-16.7l-3.8,8.8H365.1z M376.7,468.3h12.9l-6.4-14.8
			L376.7,468.3z"/>
		<path class="st1" d="M414.8,481.9v-35.3h5.6v30.2h18.7v5.1H414.8z"/>
		<path class="st1" d="M445.4,446.6h28.9v5.1h-11.7v30.2h-5.5v-30.2h-11.6V446.6z"/>
		<path class="st1" d="M488.1,481.9v-35.3h16.1c3.6,0,6.5,0.9,8.5,2.8c2.1,1.9,3.1,4.3,3.1,7.3c0,4.8-2.8,8.6-7.7,9.7l11.1,15.5
			h-6.7L501.9,467h-8.3v14.9H488.1z M493.6,462.1h10.2c4,0,6.4-1.9,6.4-5.2c0-3.2-2.4-5.1-6.4-5.1h-10.2V462.1z"/>
		<path class="st1" d="M532.9,481.9v-35.3h5.5v35.3H532.9z"/>
		<path class="st1" d="M559.4,477.4c-3.5-3.5-5.3-7.9-5.3-13.2c0-5.3,1.8-9.7,5.3-13.1c3.5-3.5,8-5.2,13.3-5.2
			c3.6,0,6.8,0.8,9.6,2.4v5.6c-2.9-1.9-6-2.8-9.5-2.8c-3.7,0-6.8,1.3-9.3,3.7c-2.5,2.5-3.7,5.6-3.7,9.4c0,3.8,1.3,7,3.7,9.4
			c2.5,2.5,5.6,3.7,9.4,3.7c4,0,7.4-1.1,10.1-3.2v5.6c-2.9,1.9-6.3,2.8-10.3,2.8C567.4,482.6,562.9,480.9,559.4,477.4z"/>
		<path class="st1" d="M598.1,481.9v-35.3h5.5v13.9H622v-13.9h5.5v35.3H622v-16.3h-18.4v16.3H598.1z"/>
	</g>
	<g>
		<path class="st1" d="M258.6,532.1v-23.7h10.8c2.4,0,4.3,0.6,5.7,1.9c1.4,1.3,2.1,2.9,2.1,4.9c0,3.3-1.9,5.8-5.2,6.5l7.5,10.4H275
			l-7.1-10h-5.6v10H258.6z M262.3,518.7h6.8c2.7,0,4.3-1.3,4.3-3.5c0-2.2-1.6-3.5-4.3-3.5h-6.8V518.7z"/>
		<path class="st1" d="M289.2,532.1v-23.7h16.9v3.4h-13.1v5.9h10.7v3.4h-10.7v7.5h13.6v3.4H289.2z"/>
		<path class="st1" d="M315.3,532.1l10.4-23.9h3.6l10.4,23.9h-4l-2.6-5.9h-11.2l-2.5,5.9H315.3z M323.1,522.9h8.7l-4.3-10
			L323.1,522.9z"/>
		<path class="st1" d="M349.2,532.1v-23.7h3.8v20.3h12.6v3.4H349.2z"/>
		<path class="st1" d="M389.9,532.1v-23.7h16.9v3.4h-13.1v5.9h10.7v3.4h-10.7v7.5h13.6v3.4H389.9z"/>
		<path class="st1" d="M416.4,530v-4c1,0.8,2.2,1.6,3.8,2.2c1.6,0.6,3.3,0.9,4.9,0.9c3.1,0,5.5-1.3,5.5-3.5c0-0.9-0.5-1.7-1.1-2.2
			c-0.3-0.2-0.7-0.5-1.2-0.7c-1.1-0.5-1.7-0.7-3.3-1.1l-0.5-0.1c-1.3-0.4-2.4-0.7-3.1-1c-0.7-0.3-1.5-0.7-2.4-1.2
			c-1.7-1.1-2.4-2.6-2.4-4.8c0-3.9,3.3-6.5,8.6-6.5c2.8,0,5.4,0.6,7.6,2v3.7c-2.4-1.5-4.9-2.2-7.5-2.2c-3.3,0-4.8,1.3-4.8,3
			c0,1,0.6,1.6,1.4,2.1c0.4,0.3,1.5,0.6,2.1,0.8l2.7,0.8c1.8,0.5,2.8,0.9,4.3,1.8c2.1,1.1,3.2,2.8,3.4,5.5c0,2.2-0.9,3.9-2.6,5.2
			c-1.7,1.3-3.9,1.9-6.5,1.9C421.6,532.5,418.7,531.7,416.4,530z"/>
		<path class="st1" d="M442.7,508.3h19.4v3.4h-7.9v20.3h-3.7v-20.3h-7.8V508.3z"/>
		<path class="st1" d="M466.7,532.1l10.4-23.9h3.6l10.4,23.9h-4l-2.6-5.9h-11.2l-2.5,5.9H466.7z M474.5,522.9h8.7l-4.3-10
			L474.5,522.9z"/>
		<path class="st1" d="M495.7,508.3h19.4v3.4h-7.9v20.3h-3.7v-20.3h-7.8V508.3z"/>
		<path class="st1" d="M524.9,532.1v-23.7h16.9v3.4h-13.1v5.9h10.7v3.4h-10.7v7.5h13.6v3.4H524.9z"/>
	</g>
</g>
</svg>
