<?xml version="1.0" encoding="utf-8"?>
<!-- Generator: Adobe Illustrator 24.2.1, SVG Export Plug-In . SVG Version: 6.00 Build 0)  -->
<svg version="1.1" id="Layer_1" xmlns="http://www.w3.org/2000/svg" xmlns:xlink="http://www.w3.org/1999/xlink" x="0px" y="0px"
	 viewBox="0 0 800 800" style="enable-background:new 0 0 800 800;" xml:space="preserve">
<style type="text/css">
	.st0{fill-rule:evenodd;clip-rule:evenodd;fill:#1E4079;}
	.st1{fill:#FFFFFF;}
	.st2{fill:#F48120;}
</style>
<rect x="-0.4" y="-0.5" class="st0" width="801.5" height="801.5"/>
<g>
	<polygon class="st1" points="236.5,425.9 234.1,421.6 230.1,417.6 226.2,406.1 226.2,395.4 229.7,390.7 231.7,385.5 242.4,375.2 
		269.3,373.3 293.1,368.1 313.3,379.6 327.5,403 322.8,416.8 313.3,432.3 283.2,446.5 274.1,450.5 262.6,452.5 252.7,447.3 
		247.9,440.6 247.9,437.4 240.8,430.3 	"/>
	<g>
		<path class="st2" d="M248.3,412.9c3.2,0,5.5-3.6,5.5-7.9s-2.4-7.9-5.5-7.9c0.8,0.8,1.2,1.6,1.2,2.8c0,2.4-2,4-4,4
			c-0.8,0-1.6-0.4-2.4-0.8c0,0.4,0,1.2,0,1.6C242.8,409.3,245.2,412.9,248.3,412.9"/>
		<path class="st2" d="M282,397c0.8,0.8,1.2,1.6,1.2,2.8c0,2.4-2,4-4,4c-0.8,0-1.6-0.4-2.4-0.8c0,0.4,0,1.2,0,1.6
			c0,4.4,2.4,7.9,5.5,7.9c3.2,0,5.5-3.6,5.5-7.9C287.5,400.6,285.2,397,282,397"/>
		<path class="st2" d="M327.5,396.6c0-3.2-1.2-23.8-19.4-38.8c0,0-1.2,0.8-2.4,2.4c-22.6-17.4-45.1-13.9-45.1-13.9s0,2.4,0.4,5.1
			c-13.1-2.8-24.5-0.4-24.5-0.4s0,0,0,0.4c0.4,1.6,2,9.9,6.7,15.8c1.6,1.6,3.2,3.2,5.5,4.4c-3.2-0.4-5.5-0.8-7.5-2
			c-0.4,0.4-0.8,1.2-1.2,1.6c-1.2,1.6-5.1,5.9-8.3,13.5c-0.4,0.8-0.8,1.6-0.8,2.4h1.2l2-0.4c0,0,1.2-5.5,7.9-7.5
			c1.6-0.4,3.6-0.8,5.5-0.8c7.5,0,13.9,3.6,17.8,9.1c5.1-7.9,14.3-13.5,24.5-13.5c11.9,0,21.8,6.7,26.5,17l-10.3-0.8
			c-19-4-30.9-0.4-35.2,1.2c-0.8,0.4-2,0.4-4,0.8c-1.2,0-2.8,0.4-4.4,0c-1.6,0-3.2-0.4-5.1-0.8c-3.2-1.6-10.3-3.6-25.7-1.6h-0.4
			l-3.2,0.4l-6.7,0.8c-0.8,0-1.6,0.8-1.6,1.6v6.3c0,0.8,0.4,1.2,1.2,1.2l1.2,0.4c0,0.4,0,0.8,0,1.2v0.4l1.2,9.1
			c0.8,5.9,5.5,10.7,11.9,12.3c1.2,0.4,2.4,0.4,3.6,0.4l4,0.4l0,0c1.6,0,2.8-0.4,4.4-0.8c0.8,0,1.2-0.4,2-0.4c1.2-0.4,2-0.8,3.2-1.6
			c4-2.4,6.7-5.9,8.3-9.5c0-0.4,0.4-0.4,0.4-0.8c0-0.4,0.4-0.4,0.4-0.8c0.8-2,1.2-3.6,1.6-5.1c0-0.4,0.4-0.8,0.4-1.2
			c0.4-0.8,1.2-1.2,2,1.2c0.4,1.2,0.8,2.8,1.2,4.4c0,0.4,0.4,0.4,0.4,0.8v0.4c2.8,6.3,8.3,12.7,18.2,13.1l0,0l0,0h1.6h9.5
			c7.9-0.4,14.7-5.9,15.4-12.7l1.2-9.5h0.4l4.8-1.2h0.8l2-0.4l2.8-0.4l-0.8,0.8l-2.8,2l-1.2,0.8c0,0.4,0,0.4,0,0.8
			c0,16.2-13.1,29.3-29.3,29.3c-0.4,0-0.4,0-0.8,0c-0.8,0-1.6,0-2.4,0c-0.8,7.9-6.7,14.7-14.3,16.6c-1.6,0.4-3.6,0.8-5.1,0.8
			c-7.1,0-13.5-4-16.6-9.5c-1.6-2.8-2.8-6.3-2.8-10.3c0-2,0.4-3.6,0.8-5.1c-0.8,0-1.2,0.4-2,0.4c-1.2,0.4-2.4,0.4-3.6,0.4l0,0
			l-4-0.4c-0.8,0-1.6,0-2.4-0.4c2.4,4.4,5.5,7.9,9.1,11.5c2,9.9,10.7,17,21.4,17c4.8,0,9.1-1.6,13.1-4.4
			c16.6-0.4,30.9-9.1,39.6-21.8c8.3-0.8,17.4-8.7,18.2-18.6C338.6,400.6,333.5,396.6,327.5,396.6 M228.9,412.5
			c-0.4-0.8-0.4-1.6-0.8-2L227,401c-0.4-2,0-3.2,1.2-4.8c0.4-0.8,1.2-1.2,2-1.6c0.8-0.4,1.6-0.8,2-0.8c4.4-0.4,6.3-0.8,9.5-0.8
			c11.1,0,15,2.4,15,2.4l0,0c1.6,0.8,2.4,2.8,2,4.4v0.4l0,0c0,0.8-1.6,17.8-16.2,18.6l-3.6-0.4c-2.4,0-4.4-0.8-6.3-2
			c-0.4-0.4-0.4-0.4-0.8-0.8l0,0C230.9,415.6,229.7,414.4,228.9,412.5C228.9,412.9,228.9,412.9,228.9,412.5 M327.5,396.6
			C327.1,396.6,327.1,396.6,327.5,396.6L327.5,396.6L327.5,396.6z M308.9,400.2l-1.2,10.3c-0.4,4.8-5.1,8.3-10.7,8.7l-11.1,0.4
			c-0.4,0-1.2,0-1.6,0s-1.2-0.4-1.6-0.4c-4-1.2-6.7-3.6-8.3-6.3c0-0.4-0.4-0.4-0.4-0.8c-3.2-4.8-3.6-10.7-3.6-11.1
			c0-2.4,0.4-4,2-4.8c0.8-0.4,12.3-5.9,33.7-1.6C307.7,394.6,308.9,397.4,308.9,400.2"/>
		<path class="st2" d="M259,439.4c-0.4,0.8,0,1.6,0.4,2c1.2,0.8,2.8,1.2,4.4,1.2c4.8,0.4,10.3-0.8,13.9-6.3c0.4-0.8,0.4-2-0.8-2.4
			c-0.8-0.4-2-0.4-2.4,0.8c-3.2,5.5-9.9,6.7-13.5,4.8C260.6,438.6,259.4,438.6,259,439.4"/>
		<path class="st2" d="M260.6,422.4h-2.8c-0.8,0-0.8,0.8-0.4,1.2l1.2,0.8c0,1.2,1.2,2,2.4,2c0.8,0,1.2-0.8,1.2-1.2
			C262.6,423.5,261.8,422.4,260.6,422.4"/>
		<path class="st2" d="M265.8,425.9c1.2,0.4,2-0.4,2.4-1.6v-0.4l1.2-0.8c0.4-0.4,0.4-1.2-0.4-1.2h-2.4l0,0c-1.2,0-2,1.2-1.6,2.4
			C265,425.5,265.4,425.9,265.8,425.9"/>
	</g>
	<path class="st1" d="M196.1,377.2c-7.1,0-12.3,2.8-16.2,8.3c-2.4-5.5-7.1-8.3-14.3-8.3c-6.3,0-11.5,2.4-15.4,7.1l-0.4-5.9h-13.5
		v53.5h14.3v-38c2-3.2,4.8-5.1,8.7-5.1c2.8,0,5.1,0.8,6.3,2c1.2,1.2,2,3.6,2,6.7v34.1h14.3v-36.8c1.6-4,4.8-5.9,8.7-5.9
		c3.2,0,5.1,0.8,6.3,2c1.2,1.6,1.6,3.6,1.6,6.7v34.1h14.3v-34.1c0-6.7-1.6-11.9-4.4-15.4C206,378.8,201.6,377.2,196.1,377.2"/>
	<path class="st1" d="M375.8,377.2c-6.3,0-11.5,2.4-15.4,7.1L360,378h-13.5v53.5h14.3v-37.6c2-3.6,5.1-5.1,9.1-5.1
		c3.2,0,5.1,0.8,6.7,2c1.2,1.2,2,3.6,2,6.7v34.1h14.3V397c0-6.7-1.6-11.5-4.4-15C385.7,378.8,381.4,377.2,375.8,377.2"/>
	<path class="st1" d="M479.6,377.2c-4.8,0-9.1,1.2-13.1,3.6c-4,2.4-6.7,5.5-8.7,9.9c-2,4.4-3.2,9.1-3.2,14.3v1.2
		c0,7.9,2.4,14.3,7.5,19.4c4.8,4.8,11.5,7.1,19,7.1c4.4,0,8.3-0.8,12.3-2.4c3.6-1.6,6.7-4,8.7-7.1l-7.1-7.9c-3.2,4-7.5,5.9-13.1,5.9
		c-3.6,0-6.3-1.2-8.7-3.2c-2.4-2-3.6-4.8-4.4-8.3h34.1v-5.9c0-8.3-2-15-6.3-19.8C492.6,379.2,486.7,377.2,479.6,377.2 M489.1,399.8
		h-19.8c0.4-3.6,1.6-6.3,3.6-8.3c1.6-2,4-2.8,6.7-2.8c3.2,0,5.5,0.8,7.1,2.8c1.6,1.6,2.4,4.4,2.4,7.5V399.8z"/>
	<path class="st1" d="M554.8,395.8c0-5.9-2-10.7-5.9-13.9c-4-3.2-9.1-5.1-15.8-5.1c-4.4,0-8.3,0.8-11.9,2.4s-6.3,3.6-7.9,6.3
		c-2,2.8-2.8,5.5-2.8,8.7h14.3c0-2,0.8-3.6,2-4.8c1.2-1.2,3.2-1.6,5.5-1.6c2.8,0,4.8,0.8,5.9,2.4c1.2,1.6,2,3.6,2,5.9v3.2h-6.7
		c-7.9,0-13.9,1.6-18.2,4.8c-4.4,3.2-6.3,7.5-6.3,13.1c0,4.8,1.6,8.3,5.1,11.5c3.6,3.2,7.9,4.4,13.1,4.4c5.5,0,9.9-2,13.5-5.9
		c0.4,2,0.8,3.6,1.6,4.8h14.3v-0.8c-1.6-2.8-2-6.3-2-11.5v-23.8H554.8z M540.2,416.4c-0.8,1.6-2,2.8-4,4c-1.6,0.8-3.6,1.6-5.9,1.6
		c-2.4,0-4-0.4-5.1-1.6c-1.2-1.2-2-2.8-2-4.4v-0.8c0.4-5.1,4.4-7.5,11.5-7.5h5.1v8.7H540.2z"/>
	<path class="st1" d="M597.2,401.8c-2.4-0.8-5.5-1.6-9.1-2.4c-3.6-0.8-5.9-1.6-7.5-2.4c-1.6-0.8-2.4-2.4-2.4-4s0.8-3.2,2-4
		c1.2-1.2,3.2-1.6,5.5-1.6c2.8,0,4.8,0.8,6.3,2c1.2,1.2,2,3.2,2,5.1h14.3c0-5.1-2-9.1-5.9-12.3c-4-3.2-9.5-4.8-16.2-4.8
		c-6.3,0-11.5,1.6-15.4,4.8c-4,3.2-5.9,7.1-5.9,11.9c0,8.3,6.3,13.5,19,16.2c4,0.8,6.7,1.6,8.3,2.8c1.6,1.2,2.8,2.4,2.8,4
		s-0.8,3.2-2,4c-1.6,1.2-3.6,1.6-6.3,1.6c-2.8,0-5.1-0.8-7.1-2c-1.6-1.2-2.8-3.2-2.8-5.9h-13.5c0,3.2,0.8,6.3,3.2,9.1
		c2,2.8,4.8,5.1,8.3,6.7c3.6,1.6,7.5,2.4,11.9,2.4c6.7,0,11.9-1.6,16.2-4.4c4.4-3.2,6.3-7.1,6.3-11.9
		C608.7,409.3,604.7,404.5,597.2,401.8"/>
	<path class="st1" d="M664.5,403.7c0-8.3-2-15-6.3-19.8c-4.4-4.8-9.9-6.7-17.4-6.7c-4.8,0-9.1,1.2-13.1,3.6c-4,2.4-6.7,5.5-8.7,9.9
		c-2,4.4-3.2,9.1-3.2,14.3v1.2c0,7.9,2.4,14.3,7.5,19.4c4.8,4.8,11.5,7.1,19,7.1c4.4,0,8.3-0.8,12.3-2.4c3.6-1.6,6.7-4,8.7-7.1
		l-7.1-7.9c-3.2,4-7.5,5.9-13.1,5.9c-3.6,0-6.3-1.2-8.7-3.2c-2.4-2-3.6-4.8-4.4-8.3h34.1v-5.9H664.5z M650.2,399.8h-19.8
		c0.4-3.6,1.6-6.3,3.6-8.3c1.6-2,4-2.8,6.7-2.8c3.2,0,5.5,0.8,7.1,2.8c1.6,1.6,2.4,4.4,2.4,7.5V399.8z"/>
	<path class="st1" d="M432.5,399.4l18.6-21.4h-17l-13.9,16.2l-2.8,3.6v-42.4h-14.3v76h14.3v-16.2l5.9-5.1c4.4,2,12.3,8.3,14.3,21.4
		h14.3C451.9,431.5,452.7,411.3,432.5,399.4"/>
</g>
</svg>
