<?xml version="1.0" encoding="utf-8"?>
<!-- Generator: Adobe Illustrator 24.2.1, SVG Export Plug-In . SVG Version: 6.00 Build 0)  -->
<svg version="1.1" id="Layer_1" xmlns="http://www.w3.org/2000/svg" xmlns:xlink="http://www.w3.org/1999/xlink" x="0px" y="0px"
	 viewBox="0 0 800 800" style="enable-background:new 0 0 800 800;" xml:space="preserve">
<style type="text/css">
	.st0{fill-rule:evenodd;clip-rule:evenodd;}
	.st1{fill:#FFFFFF;}
</style>
<rect x="-0.4" y="-0.5" class="st0" width="801.5" height="801.5"/>
<g>
	<path class="st1" d="M266.2,477L266.2,477l0.1-43.8c0.5-10.4,3.1-27.8,15-27.8l-0.5-3.8c0,0-35-5.6-36.4,34l0,0v0.5
		c0,0.6,0,1.3,0,1.9l0,0v25.1l-0.1-0.1c0,0,0,0.7,0.1,1.8v3.8l0.1,0c0.1,9.1-0.5,26.5-6.5,30.4c-1.3,0.8-2.4,1.1-3.3,0.9
		c4.2,7,13,5.6,13,5.6c-15.6,4.8-17-9.5-17.1-13.5c-0.4-2.7-0.6-5.8-0.6-9v-77.4h-0.1v-5.8c0-10.7-5.8-18.2-13.5-19.1
		c-7.7-0.9-12.5,3-12.5,3c4.7,3.3,4.1,11.6,4.1,11.6v13h0.1v25.1c-0.7,6.5-2.8,20.3-7.5,24.8c-1.3,1.3-2.4,1.9-3.3,1.9
		c1.1,2.5,3.5,3.5,3.5,3.5c-5.3,1.6-6.3-4.4-6.5-7.8c-0.1-0.7-0.2-1.5-0.2-2.3v-26.5h-0.1v-5.8c0-10.7-5.8-18.2-13.5-19.1
		c-7.7-0.9-12.5,3-12.5,3c4.7,3.3,4.1,11.6,4.1,11.6v13h0.1v24.7c0,11.1,5.8,18.9,13.5,19.9c0.8,0.1,1.7,0.1,2.4,0.1l0,0
		c0,0,12.7,0.9,20-15.3v12.3c0,1.4,0.1,3,0.2,4.7v8.3c0,0,1,18.2,15.5,23.7l-0.2,0c0.2,0.1,0.4,0.1,0.6,0.2c1.9,0.7,4.1,1.1,6.4,1.3
		C263.9,514.5,266.1,484.3,266.2,477z M180.7,468.1c-2.4-2-3.9-5.7-3.4-6.8c0.4-1.2,2.4,1.8,5.2,3.4c4,2.3,6.7,1.8,6.6,3.9
		C188.9,470.2,183.9,470.8,180.7,468.1z M222.5,501.2c-1,0.9-5-2.7-6.9-7.1c-2-4.4-2.4-10.7-1.1-10.3c2.1,0.7,2.9,4.8,4.6,9.3
		C220.9,497.6,224.6,499.5,222.5,501.2z M227.7,502.6c-0.3,0.6-0.9,0.8-1.5,0.5c-0.6-0.3-0.8-0.9-0.5-1.5c0.3-0.6,0.9-0.8,1.5-0.5
		C227.7,501.4,228,502.1,227.7,502.6z M252.3,501c-0.6,0.1-1.2-0.4-1.2-1c-0.1-0.6,0.4-1.2,1-1.2c0.6-0.1,1.2,0.4,1.2,1
		C253.4,500.4,253,500.9,252.3,501z M254.6,496.3c-1.6-1.7,1.2-4.4,3.2-10.9c1.4-4.6,1.2-9.4,2.3-8.8c1.1,0.5,2.3,5.2,1.5,9.8
		C260.6,492.3,255.8,497.6,254.6,496.3z"/>
	<path class="st1" d="M372,415.2c3.4-2.7,8.1-4.4,13.4-5.4c19.5-2.8,46.4,3,87.5,12.9c21.7,5.2,43.8,10,64.8,11.7
		c-0.3-3.2-0.9-5.4-1.6-6.8c-23.9-2-53-8.2-85.8-17c-16.9-4.5-31.7-7.2-44.3-8.4c-34-3.8-57.6,1.5-60.1,14.3
		c-2,5.3,0.2,15.7,11.3,16.6c11.9,1,14.1-4.2,14.1-4.2c-3.6-3.3-4.1-6.2-3.6-8.3c0.1-2.1,1.2-12.9,14.4-15.8
		C382.3,404.9,374.2,407.8,372,415.2z M363.2,428.8c-1.3,0.3-4-3.8-3.4-9.2c0.4-3.7,3.9-7.4,5.2-6.9c2.1,0.8-1,2.7-1.5,7.2
		C363.1,423.6,364.4,428.5,363.2,428.8z M368.2,410.4c-0.5,0.5-1.3,0.5-1.7,0c-0.5-0.5-0.5-1.3,0-1.7c0.5-0.5,1.3-0.5,1.7,0
		C368.7,409.2,368.7,409.9,368.2,410.4z"/>
	<path class="st1" d="M631.4,385.9c5.1-15.7,5.2-35.3-2.8-52.7c-9.2-19.7-26.9-10.2-26.9-10.2c1.3,1.3,2.4,2.7,3.5,4.1
		c4.1,5.7,9.6,17.5,4.8,35.9c-3.3,12.9-11.3,19-16.1,13.4c1.9,7.6,10.3,5.2,10.3,5.2c-11.7,7.1-13.3-6.3-13.4-13.1
		c-0.2-0.9-0.3-1.9-0.4-2.9v-49.7c0-42.4-40.2-42.9-40.2-42.9l-0.7,2.2c15,6.1,18.4,19.2,19.1,27V339c-3,30.4-16.8,55.8-27.6,61.5
		c-3.2,1.7-5.8,2.1-7.9,1.7c3.8,4,9.1,3.9,9.1,3.9c-12.1,2.2-16.2-7.9-17.3-11.9c-0.2-0.4-0.3-0.8-0.4-1c-1.4-6-2.5-14.3-3-25.6
		c-7.7,2.2-11.5-0.6-11.5-0.6c4.5-0.8,8.6-2.5,11.3-3.8c0,0,0,0.1,0,0c7.7-4.2,25-15.5,31.7-33.3c3.3-7.7,3.8-16.1,3.8-20.5
		c0-6-2.3-24.7-22.2-24.7c-9.2,0-17.5,3.5-23.4,13.7c-6.5,9.4-13.4,27.1-13.7,59.8c-0.1,9.2,0.6,17,1.8,23.5
		c-1.1,3.7-2.5,6.9-4.3,8.8c-1.3,1.4-2.4,2-3.3,2c1,3,3.3,3.5,3.3,3.5c-4.7,0.7-5.9-4.5-6.2-7.7c-0.2-1.2-0.4-2.5-0.4-3.8v-26.5v-2
		v-0.5c0-8.5-3.4-15.1-8.5-18.1c-5.4,3.8-10.4,3.2-10.4,3.2c2.4-1.4,4.7-3.2,6.4-4.8c0,0,0,0,0,0c6.5-6.2,11.9-14.8,12.6-26.4v-9.2
		c0-11.1-5.8-18.9-13.5-19.9c-0.8-0.1-1.7-0.1-2.4-0.1l0,0c0,0-12.7-1.1-20.1,15.8v-16.2c0,0,0.1-8.4,3.2-18.2
		c-7.2-2.9-13.2-7.3-13.2-7.3l14,4.4c0,0,0,0,0,0c6.7,2.1,13.7,4.5,20.9,7.1c50.7,18.4,56.9-1.9,56.4-10.4
		c-0.4-7.1-12.1-23.8-48.1-24.8c-20.7-0.6-34.9,6.7-43.7,17.2c-13.7-5.2-47-17-71.5-17.9c-32.9-1.3-31,23.3-18.7,26.5
		c0,0,8.6,3.2,13.8-1.7c-1.8-0.3-5.1-4.2-5.3-8.4c-0.7-4.1-0.1-10.7,9.5-13.6c0,0-5.4,2.3-6.5,7.3c1-0.8,2.2-1.5,3.7-2
		c12.3-4.6,31.7,2.8,45.3,6.5c8.6,2.4,18.7,6,25.9,8.8c-5.1,8.5-7.5,18.8-7.5,29.7v57.7c-0.5,8.4-2.2,26.4-8,32.5
		c-1.2,1.3-2.2,1.9-3,2c1.1,2.7,2.7,3.5,2.7,3.5c-3.4,0.4-5-3.5-5.7-6.7c-0.4-1.4-0.6-3.1-0.7-4.9v-94.5c0-11.1-5.8-18.9-13.5-19.9
		c-0.8-0.1-1.7-0.1-2.4-0.1l0,0c0,0-16.3-1.5-22.7,23.3c-2.4-5.9-6.4-10.2-11.2-10.8c-0.8-0.1-1.7-0.1-2.4-0.1l0,0
		c0,0-2.3-0.2-5.5,0.9l0,0c0,0-0.7,0.2-1.7,0.7c-0.1,0.1-0.3,0.1-0.4,0.2c0,0,0,0,0,0c0,0,0,0,0,0c-1.5,0.7-2.4,1.4-2.4,1.4
		c0,0,0,0,0,0c-3.5,2.5-8,7.4-10.4,16.7c0,0-1.3,6.4-4.5,13.8c-5.8-17.4-16-22.9-27.6-22.9c-5.2,0-10.1,1.1-14.5,3.9
		c-3.3,2.3-13.2,11.2-9,33.4c0,0-1.3-2.6-2.3-6.6c-0.5-1.6-2-5-3.5-1.8c-2.2,9.1-3.5,20.8-3.5,35.8c0,1.5,0,2.9,0,4.3
		c-0.7,9.4-2.5,23.6-7.5,28.7c-1.1,1.1-1.9,1.7-2.7,1.9c1.9,2.3,4.8,0.9,4.8,0.9c-5.2,4.1-7.3,0.3-8.1-4.4c-0.3-1.3-0.5-2.9-0.6-4.5
		v-78.5c0-11.1-5.8-18.9-13.5-19.9c-0.8-0.1-1.7-0.1-2.4-0.1l0,0c0,0-21.7-2-24.9,36.8c-2.3-2.8-5.4-4.6-8.8-5
		c-0.8-0.1-1.7-0.1-2.4-0.1l0,0c0,0-18.5-1.3-23.7,27.8c-2.4-3.6-5.9-5.9-9.9-6.4c-7.7-0.9-12.5,3-12.5,3c4.7,3.3,4.1,11.6,4.1,11.6
		v40.5c0,0,0.6,8.2-4.1,11.6c0,0,4.9,3.9,12.5,3c7.7-0.9,13.5-8.4,13.5-19.1V344c0.6-5.6,2.6-21.3,7.7-26.2c0.5-0.5,1-0.9,1.5-1.2
		c-0.3-0.1-0.6-0.2-0.9-0.3c-4.9-0.8-8.6,7.7-8.6,7.7c1.2-6.3,4.9-9,4.9-9c3.7-2.2,6.2-0.4,7.5,1.1c1.3,0.8,1.9,3.3,2.1,6.3v31.8
		c0,0,0.2,8.6-2.4,13.1c0,0,3.2,2.9,10.8,2c7.7-0.9,13.5-8.7,13.5-19.9v-29c0-0.1,0-0.2,0-0.2c0.5-9.5,2.1-28.2,7.7-34.1
		c0.7-0.8,1.4-1.3,2-1.6c-0.4-0.3-0.9-0.6-1.5-0.7c-5.1-0.8-8.8,8.2-8.8,8.2c1.2-6.3,5.1-9,5.1-9c4.6-2.7,7.3,0.5,8.4,2
		c0.9,1.2,1.4,3.4,1.5,6v73.6v0.4v7c0,0-0.9,22.3,15,20.8c9.5-0.9,15.8-8.9,19.2-15.2c1-1.7,2-3.7,2.8-6c0.4-1,0.6-1.6,0.6-1.6l0,0
		c0.1-0.4,0.3-0.8,0.4-1.2c4.6,27.9,16.7,36.1,30.8,36.1c18.1,0,32.8-13.5,32.8-64.7c0-10.5-0.6-19.3-1.8-26.8
		c-6.3,9.8-13.9,15.3-17.6,17.6c0.1,2.9,0.1,6,0.1,9.2c0,46.2-6.1,58.4-13.6,58.4c-7.5,0-13.6-12.2-13.6-58.4c0-2,0-5.2,0-7.1
		c-3.7-3.6-4-8.3-4-8.3c1.3,2.1,2.8,3.6,4.1,4.6c3.2,2.8,7.9,4.3,14.8,3.2c3.8-0.6,7.2-1.9,10.3-3.6c10.1-6.2,15.9-16.8,18.3-22
		c0,0,0,0,0-0.1c2.8-6.3,4.3-12,5.3-15c0,0,2.7-11.1,6.7-12.1c0,0,0,0,0,0c0.5-0.1,0.9-0.1,1.3,0.1c0-0.1,0-0.2-0.1-0.2
		c-3.1-8.2-9.1,4.6-9.1,4.6s1.6-9,7-8.8c4,0.1,4.9,6.2,5.1,9.5c0.2,1.1,0.4,2.3,0.4,3.6v75.2h0.1v14.2c0,0,0.6,8.6-4.1,12
		c0,0,4.9,4,12.5,3.1c7.7-0.9,13.5-8.7,13.5-19.9v-12.6h-0.1v-54l0.1,0.1c0,0,0.2-29.7,7.9-37.7c1-1.1,1.9-1.7,2.7-1.9
		c-3.2-5.9-9.2,4.5-9.2,4.5s1.8-8.6,8.2-8c2.5,0.3,3.7,3.1,4.2,6.2c0.3,1.1,0.6,2.6,0.6,4.1v89.6v0.4v7c0,0-0.9,22.3,15,20.8
		c9.5-0.9,15.8-8.9,19.2-15.2c0.8-1.4,1.6-3,2.3-4.8v10c0,0,0.2,8.6-2.4,13.1c0,0,3.2,2.9,10.8,2c7.7-0.9,13.5-8.7,13.5-19.9v-23.5
		c-1.6,0.2-2.6,0-2.6,0l2.6-1.7v-0.1c2.4-1.7,4.6-3.2,6.5-4.5c5.3-3.6,7.3-0.3,7.6,5v3.7v2v27.5v1.5c0,0-0.9,22.3,15,20.8
		c9.5-0.9,15.8-8.9,19.2-15.2c0.3-0.5,0.6-1,0.9-1.6c8.5,27.1,27.3,25.2,27.3,25.2l0-0.1c6.9-0.2,12.6-4,16.5-7.5
		c2.2-1.6,4.4-3.7,6.7-6.4c8.3-9.8,13.5-22.6,16.7-34.4c0.7,9.5,4.8,24.5,24.8,21.7c11.4-1.6,17.9-10,21.3-20.2
		c-0.9,20.3-8.4,41-24,50.6c-7.4,4.6-17,7.1-28.5,8c-2.4-5.3-6.3-8.5-10.8-9.1c-7.7-0.9-12.5,3.6-12.5,3.6
		c4.4,2.2,4.1,14.2,4.1,14.2v48.7c-1.7,30.6-16.4,56.2-27.5,62c-2.6,1.4-4.8,1.8-6.6,1.7c3.8,4.7,9.7,4.5,9.7,4.5
		c-10.4,1.9-14.9-5.4-16.6-10c-0.4-0.7-0.7-1.4-0.9-2.1c-2.2-8.1-3.5-21.1-3.5-41c0-37.1,3.2-51.6,10.2-53.7
		c0.3,0.1,0.4,0.1,0.4,0.1s1-0.3,2.2,0.1c-2.8-3-7.3-2-7.3-2c7.7-3.7,10.4,2.3,11.4,7c0.4,1.1,0.8,2.5,1,4.2c1.4,8.5,0,18-6.9,25
		c0,0,7.7,7.8,16.8,1.1c9.1-6.7,9.5-20.8,6.2-29.6c-2.9-7.7-11.4-12.5-20.6-12.1c0,0,0,0,0,0c-6.8,0-13.1,1.8-18.3,6.5
		c-6.9,5.9-18.4,21.8-18.8,61.4c0,4.4,0.1,8.5,0.4,12.2c-0.5,8.6-2.3,26.1-8,32c-1.3,1.4-2.4,2-3.2,2c1.1,3,2.9,3.9,2.9,3.9
		c-5.7,0.7-6.2-10.6-6.2-10.6s0,0,0,0c-0.1-1.4-0.2-2.9-0.2-4.4l0,0v-95.6c0-11.1-5.8-18.9-13.5-19.9c-0.8-0.1-1.7-0.1-2.4-0.1l0,0
		c0,0-13.2-1.2-20.5,16.7c-0.6-10.4-6.2-19.8-13.4-20.7c-7.7-0.9-12.5,3.1-12.5,3.1c4.7,3.5,4.1,14.8,4.1,14.8v55.5
		c-3.4,30.1-16.9,52.3-27,57.6c-2.7,1.4-5,1.9-6.8,1.8c3.7,5.2,10,5,10,5c-9.5,1.7-14-4.1-16.1-8.7c-0.1-0.2-0.3-0.4-0.4-0.6
		c-2.1-5.9-3.7-15.2-4.3-29.5c-7.1,1.7-10.6-0.8-10.6-0.8c4-0.7,7.7-2.1,10.4-3.4c0,0,0,0,0-0.1c7.7-4,25-14.6,31.8-31.8
		c3.3-7.4,3.8-15.6,3.8-19.8c0-5.7-2.3-23.8-22.2-23.8c-6.8,0-13.1,1.9-18.3,6.8c-6.9,6.2-18.4,22.7-18.8,64
		c-0.1,9.9,0.7,18.1,2.1,24.8c-1,4.5-2.7,7.7-4.6,8.6c1.9,2.6,3.9,3.2,3.9,3.2c-3.8,1.6-6.6-2.2-8.5-5.9c-3-5.3-5.7-18.1-6.2-42.7
		c-0.8-33.8,3.3-53.3,7.1-64c3.2-7.4,6.4-11.9,6.4-11.9c-7.5-13.8-19.9-10.1-19.9-10.1c-2.9,10-18.3,17.6-23.2,18.4
		c-5.1,0.8-10-5.8-10-5.8c-2.9,0.5-5.1,3.7-4.5,4.6c1.9,2.8,3.7,5.1,5.6,6.8c0,7.2,0,27.2,0,35.1c0,9.6,0.5,50.7-43.7,49.2
		c0,0,0.5,0.8,1.4,1.9c4.1,5.5,18.5,20.3,35.2,8c6.9-5.1,10.4-13.9,12.1-23.6c1.2-5.9,1.8-13.1,1.8-21.6v-43.1
		c-2-1.4-2.6-3.4-2.6-3.4c1.1,1.2,2.4,1.9,3.5,2.4c5.5,2,10.4,0.6,13.6-1c0.8-0.6,1.3-1.3,1.6-2c2.3-6.5,5-10.5,5-10.5
		c-0.9,3.1-2.1,7.3-2.9,10.1c0.1,0,0.1-0.1,0.1-0.1c-0.1,0.3-0.2,0.6-0.3,1c-2.2,7.3-9.5,35.2-6.2,79.2
		c3.6,48.4,32.1,47.2,37.8,26.8c8.6,23.2,25.5,21.5,25.5,21.5l0-0.1c9-0.2,16-6.8,19.1-10.4c0.9-0.9,1.9-1.9,2.8-3
		c7.9-9.2,13.1-21.3,16.4-32.5v22.5h0.1v14.2c0,0,0.6,8.6-4.1,12c0,0,4.9,4,12.5,3.1c7.7-0.9,13.5-8.7,13.5-19.9v-12.6h-0.1V482
		l0.1,0.1c0,0,0.2-29.7,7.9-37.7c0.8-0.9,1.5-1.4,2.2-1.7c-3.3-4.5-8.8,5.1-8.8,5.1s1.8-8.6,8.2-8c1.7,0.2,2.8,1.7,3.5,3.6
		c0.9,1.2,1.3,3.4,1.5,5.9V545v0.4v7c0,0-0.9,22.3,15,20.8c11.1-1,17.4-11.4,20.2-17.5c2.1-4.1,3.9-9.4,5-16.4
		c8.2,24.7,26.4,23,26.4,23l0-0.1c9.3-0.2,16.5-7.1,19.4-10.4c0.8-0.8,1.7-1.6,2.5-2.6c8.5-9.5,13.6-22,16.7-33.4v14.2
		c0,0,0.2,8.6-2.4,13.1c0,0,3.2,2.9,10.8,2c7.7-0.9,13.5-8.7,13.5-19.9V502c0.6-8.9,2.4-28.2,8.2-34.3c0.8-0.8,1.4-1.3,2.1-1.7
		c-3.3-3.5-8.5,5.5-8.5,5.5s1.8-8.6,8.2-8c1.6,0.2,2.7,1.4,3.4,3.1c0.8,1.2,1.3,3.4,1.4,5.9v22c0,0-0.9,22.3,15,20.8
		c8.1-0.7,13.8-6.6,17.4-12.2c3.1-4.3,6.4-10.2,9.5-18.4c1.3-3.3,2.3-6.5,3.2-9.4c0,0,0,0,0,0c3.5-10.4,8.7-30.1,1.4-39.8
		c-9-11.9-29.7-5.2-25.2,10.9c0,0,3.4-4,7.7-5c2.4-0.8,18.9-5.4,18.3,18.7c0,0-0.8-17.3-12.5-17.8c4.9,3,10.1,12.3,4.7,32.3
		c-1.2,4-3.1,8.8-6.1,14.5c-4.1,7.6-6.6,9.7-8.4,9.6c0,0,0,0,0,0c-0.3,0-0.6,0-0.8-0.1c0,9,5.8,5.4,5.8,5.4c-7.5,7-7.8-5.2-7.7-9.3
		c-0.3-2-0.3-4.5-0.3-7.1l0,0V472c0-11.1-5.8-18.9-13.5-19.9c-0.8-0.1-1.7-0.1-2.4-0.1l0,0c0,0-13.5-1.2-20.8,17.3l0.1-27.8
		c0-2.5-0.2-4.8-0.6-6.9c14.2-1.1,27.5-4.4,39.5-10.9C620,414.8,627.8,399.5,631.4,385.9z M547.6,328.4c0.9-1.6,1.7-4.2,2.3-6.1
		c2-6.3,1.1-9.8,3-10c1.1-0.1,1.2,7.1-0.6,13.3c-0.3,1.1-1.6,4.1-2,5.1C546.4,337.4,544.3,333,547.6,328.4z M517.8,345
		c-0.6,0.4-1.5,0.2-1.9-0.4c-0.4-0.6-0.2-1.5,0.4-1.9c0.6-0.4,1.5-0.2,1.9,0.4C518.6,343.8,518.4,344.6,517.8,345z M524.9,289
		c9.5-4.6,11.4,5.9,11.8,10c1.3,6.3,1.1,14.2,1.1,14.2s0.3,8.4-1.2,17.3l0,0c0,0-1.9,14.2-15.5,24.4c0-1.8,0-3.7,0-5.7
		c0-36.5,2.7-52.8,8.4-57.1c0.7-0.5,1.4-0.8,2.2-0.8c0.4,0,0.7,0,1,0.2C530,287.9,524.9,289,524.9,289z M515.1,326.1
		c0.4-4.9,2.5-9.9,3.7-9.9c1.1,0,0.4,5.8-0.1,10.7c-0.7,6.9,0,11.2-1.9,12.2C515.3,339.8,514.6,332.4,515.1,326.1z M480.6,317
		c1.9-6.3,1-10.8,2.8-11.9c1.2-0.7,2,6.5,0.1,12.9c-1.9,6.3-6.1,11.3-6.9,10.1C475.3,325.8,478.8,323.3,480.6,317z M527.1,248.1
		c0.5-0.2,1.2,0,1.4,0.5c0.2,0.5,0,1.2-0.5,1.4c-0.5,0.2-1.2,0-1.4-0.5C526.3,249,526.5,248.3,527.1,248.1z M525.3,261.2
		c1.6-3.4,2-8.5,3.2-8.4c1.4,0.1,2.6,5,0.2,10c-1.7,3.4-6.2,5.7-7.3,4.8C519.6,266.1,523.3,265.4,525.3,261.2z M468.8,241
		c11.2-6.2,23.6-4.8,32.8-2.9c7.4,1.6,13.7,5.7,15.4,11c1.1-8.1-7.2-13-7.2-13c4.9,1.7,9.2,5.8,9.3,12.7c0.1,5.1-2.5,8.5-4.6,10.4
		c-4.3,4.8-13.1,5.8-26.6,2.9c-6.5-1.4-15.9-5.1-29.7-9.3C460.7,248.2,463.9,243.7,468.8,241z M358.5,253.4
		c-1.1,0.6-4.2-2.5-4.7-7.2c-0.3-3.2,1.9-7,3.1-6.9c2,0.3-0.3,2.5,0.1,6.5C357.4,249,359.4,252.9,358.5,253.4z M359.2,236.7
		c-0.3,0.5-1,0.6-1.5,0.3c-0.5-0.3-0.6-1-0.3-1.5c0.3-0.5,1-0.6,1.5-0.3C359.4,235.6,359.5,236.2,359.2,236.7z M177.2,387.8
		c-0.8,0.1-1.6-0.4-1.8-1.2c-0.1-0.8,0.4-1.6,1.2-1.8c0.8-0.1,1.6,0.4,1.8,1.2C178.6,386.8,178,387.6,177.2,387.8z M187.6,380.5
		c-1.4,3.9-6,6-6.9,4.7c-1.2-1.8,1.4-2.7,3.6-6.7c1.6-2.8,1.8-6.3,2.7-5.6C188,373.7,188.6,377.5,187.6,380.5z M219.3,362.9
		c-3.6,3.2-9.3,3.6-9.7,2.3c-0.7-2.6,3.6-1.8,7.2-5c3.6-3.2,3.8-7.1,5.9-6.5C224.1,354,222.9,359.7,219.3,362.9z M257.7,389
		c-0.6,1.3-6-0.9-8.6-5c-2.5-4.1-2-9.7-0.7-9.9c2.7-0.3,1.2,3.9,3.7,8C254.7,386.2,258.6,387,257.7,389z M262,388.1
		c-0.4,0.4-1.1,0.5-1.6,0c-0.4-0.4-0.5-1.1,0-1.6c0.4-0.4,1.1-0.5,1.6,0C262.4,386.9,262.5,387.6,262,388.1z M295.4,302
		c-0.6,0.2-1.2-0.2-1.4-0.8c-0.2-0.6,0.2-1.2,0.8-1.4c0.6-0.2,1.2,0.2,1.4,0.8C296.3,301.2,296,301.8,295.4,302z M296.1,296.9
		c-1.3,0-1.8-5.4,1.1-11.2c2-4,6.6-7.1,7.5-6.2c1.5,1.5-2,2.7-4.5,7.6C298.2,291.2,297.2,296.9,296.1,296.9z M309.1,329.7
		c-4,0.5-7.5-1.4-6.8-2.6c0.9-1.5,3.1-0.1,7.6,0c3.2,0,7.2-0.5,7.1,0.4C316.8,328.5,312.2,329.3,309.1,329.7z M323.8,317.9
		c-1.2,0.7-2.4,1.3-3.6,1.8c-16.7,6.1-23.1-11.5-19.3-24.4c1.1-4.4,2.4-7.5,3.8-9.7c1.7-2.9,6.8-9.6,16.7-5.4c0,0,3.1,1.5,4,3.4
		c0,0-7.8-4.9-13.3-1.7C317.7,283.1,322.2,291.8,323.8,317.9z M373.8,381.7c-2.1,4.4-7.1,6.9-8,5.9c-1.7-2.1,2.6-3.1,4.7-7.5
		c2.1-4.4,0.7-8,2.9-8.3C374.8,371.6,375.9,377.4,373.8,381.7z M405.1,387.4c-4.2-1.4-7.1-5.7-6.2-6.6c1.7-1.8,3.1,2,7.3,3.4
		c4.2,1.4,7.3-0.3,7.9,1.7C414.4,387.2,409.3,388.8,405.1,387.4z M417,384.6c-0.6-0.1-1-0.6-1-1.2c0.1-0.6,0.6-1,1.2-1
		c0.6,0.1,1,0.6,1,1.2C418.1,384.2,417.6,384.6,417,384.6z M448.3,286.2c-0.5,0.3-1.2,0.1-1.5-0.5c-0.3-0.5-0.1-1.2,0.5-1.5
		c0.5-0.3,1.2-0.1,1.5,0.5C449,285.2,448.8,285.9,448.3,286.2z M450.2,271.8c-1.1,5.4-0.8,8.9-2.4,9.5c-1.2,0.5-1.2-5.4-0.4-10.3
		c0.6-3.8,2.7-7.7,3.6-7.6C452,263.5,451,268,450.2,271.8z M466.3,311.1c0,0-1.9,22.5-14.2,33.5v-18.3c0.5-9.2,2.2-25.5,7.6-31.1
		c1.8-1.8,3.1-2.3,4.1-1.9c-0.2-0.5-0.5-1-0.8-1.5c-2.4-3.9-7.5,1.6-7.5,1.6c1.6-3.6,4.4-6.2,7.5-4.1c2.9,2,3.1,8.3,3.1,9.2
		c0.1,0.5,0.1,1,0.1,1.5V311.1z M584.5,309c-2.7-0.4-1.2-3.4-4.1-10.6c-2.1-5-6.7-10.4-5.2-10.8c1.4-0.4,6.7,4.4,9,9.2
		C587.9,304.4,586.5,309.3,584.5,309z M629,348.2c1.1,0,1.9,1,1.9,2.1c0,1.1-1,1.9-2.1,1.9c-1.1,0-1.9-1-1.9-2.1
		C627,349,627.9,348.2,629,348.2z M616.6,326c1.4-0.4,6.8,3.6,9.2,7.8c3.9,6.7,2.7,11.4,0.7,11.2c-2.7-0.2-2.2-4.2-5.3-10.6
		C619,329.9,615.2,326.5,616.6,326z M528.4,464.9c-0.6,0.1-1.1-0.3-1.3-0.9s0.3-1.1,0.9-1.3c0.6-0.1,1.1,0.3,1.3,0.9
		C529.4,464.3,529,464.8,528.4,464.9z M520.5,446.5c0.7-1.1,5.4,1.3,7.3,5.3c1.9,4,2,7.8,0.7,7.9c-2.5,0-1.8-2.4-3.7-6.4
		C522.9,449.3,519.5,448.3,520.5,446.5z M382.1,485.6c0.9-1.6,1.7-4.2,2.3-6.1c2-6.3,1.1-9.8,3-10c1.1-0.1,1.2,7.1-0.6,13.3
		c-0.3,1.1-1.6,4.1-2,5.1C380.9,494.6,378.9,490.2,382.1,485.6z M352.1,499.4c-0.6,0.4-1.5,0.2-1.9-0.4c-0.4-0.6-0.2-1.5,0.4-1.9
		c0.6-0.4,1.5-0.2,1.9,0.4C352.9,498.1,352.7,498.9,352.1,499.4z M360.5,448.8c8.6-4.2,11,3.9,11.6,8.6c1.3,6.1,1.1,13.8,1.1,13.8
		s0.3,8.1-1.2,16.7l0,0c0,0-1.9,13.2-15.5,22.9c0-1.6,0-3.2,0-4.8c0-35.2,2.7-50.9,8.4-55.1c0.7-0.5,1.4-0.7,2.2-0.8c0,0,0,0,0,0
		C364.3,447.9,360.5,448.8,360.5,448.8z M349.2,480.5c0.3-4.9,2.4-10,3.5-10c1.1,0,0.5,5.8,0,10.7c-0.6,6.9,0.1,11.2-1.8,12.2
		C349.5,494.1,348.8,486.7,349.2,480.5z M317.8,454.6c-0.7,0.2-1.5-0.2-1.7-0.9c-0.2-0.7,0.2-1.5,0.9-1.7c0.7-0.2,1.5,0.2,1.7,0.9
		C318.9,453.6,318.5,454.4,317.8,454.6z M318.3,448.5c-1.5,0.3-0.3-6.6,1.6-12.2c1.6-4.4,4.8-8.4,5.9-8.1c1.1,0.3-1.1,5.4-2.7,9.7
		C320.7,444,320.4,448.1,318.3,448.5z M412.9,571.5c-3,1.1-6.8,0.4-7.6-0.5c-0.8-0.9,2.8-1.1,5.6-2.7c4-2.2,4.9-4.8,6.8-3.6
		C419,565.5,416.9,570.1,412.9,571.5z M446.6,565.3c-3.6-2.5-5.3-7.6-4.1-8c1.9-0.7,2.4,2.8,6,5.3c3.6,2.5,7.5,1.4,7.1,3.8
		C455.3,567.7,450.2,567.9,446.6,565.3z M460,566c-0.4,0.4-1.1,0.4-1.5-0.1c-0.4-0.4-0.4-1.1,0.1-1.5c0.4-0.4,1.1-0.4,1.5,0.1
		C460.5,565,460.4,565.7,460,566z M493.1,491c-0.7,0.4-1.5,0.1-1.8-0.5c-0.4-0.7-0.1-1.5,0.5-1.8c0.7-0.4,1.5-0.1,1.8,0.5
		C494,489.8,493.7,490.6,493.1,491z M495,472.9c-1.1,6.9-0.7,11.2-2.6,12c-1.5,0.6-1.7-6.8-0.9-13c0.7-4.9,3.1-9.8,4.2-9.7
		C496.9,462.3,495.8,468.1,495,472.9z M558,535.8c-2.6,3.5-7.7,4.8-8.4,3.6c-1.3-2.3,2.9-2.3,5.5-5.8c2.6-3.5,1.9-7.1,4-7
		C560.4,526.8,560.6,532.3,558,535.8z M623.6,438.6c-1.4,1.8-2.8-1.7-6.5-2.7c-3.7-1-6.5,0.8-7-1c-0.3-1.2,4.1-3.1,7.8-2.1
		C621.7,433.8,624.4,437.6,623.6,438.6z M601.1,507c0.4-0.5,1-0.5,1.5-0.2c0.5,0.4,0.5,1,0.2,1.5c-0.4,0.5-1,0.5-1.5,0.2
		C600.8,508.1,600.8,507.5,601.1,507z M584,502.8c1.7-1.1,2.9,2.3,6.9,4.2c4,1.8,7.6,0,7.6,2.5c0,1.3-5,2.4-9,0.5
		C585.5,508.2,582.9,503.5,584,502.8z"/>
	<path class="st1" d="M240.8,210.3c0.4,0.3,0.9,0.5,1.5,0.7c0.5,0.1,1.1,0.2,1.7,0.2c0.6,0,1.2,0,1.8-0.1c0.6-0.1,1.3-0.2,1.9-0.3
		c0.6-0.1,1.2-0.2,1.8-0.3c0.6-0.1,1.2-0.1,1.7-0.2c0.5,0,1,0,1.4,0c0.4,0,0.7,0.1,0.9,0.3c0.2,0.1,0.4,0.3,0.5,0.5
		c0.1,0.3,0.2,0.6,0.1,0.9c-0.1,0.3-0.3,0.7-0.6,1c-0.4,0.4-0.8,0.7-1.4,1c-0.6,0.3-1.3,0.7-2,1c-1.1,0.4-2.1,0.8-3.1,1
		c-1,0.2-2,0.2-3.1,0.1l-1.2-0.2l1.3,3l0.5,0c1-0.1,2.1-0.2,3.1-0.5c1.1-0.2,2.2-0.6,3.4-1.1c0.5-0.2,1.1-0.5,1.6-0.7
		c0.5-0.3,1-0.6,1.5-0.9c0.5-0.3,0.9-0.7,1.3-1.1c0.4-0.4,0.7-0.9,1-1.3c0.3-0.5,0.4-1,0.4-1.6c0-0.6-0.1-1.1-0.3-1.7
		c-0.2-0.6-0.6-1-1.1-1.4c-0.4-0.3-0.9-0.5-1.5-0.7c-0.5-0.1-1.1-0.2-1.7-0.2c-0.6,0-1.2,0-1.9,0.1c-0.6,0.1-1.3,0.1-1.9,0.2
		c-0.6,0.1-1.3,0.2-1.9,0.3c-0.6,0.1-1.2,0.2-1.7,0.2c-0.5,0-1,0-1.4,0c-0.4,0-0.7-0.1-0.9-0.2c-0.2-0.1-0.3-0.2-0.4-0.4
		c-0.1-0.3-0.1-0.5-0.1-0.8c0.1-0.3,0.3-0.6,0.5-0.9c0.3-0.3,0.7-0.7,1.3-1c0.5-0.3,1.2-0.7,2-1c0.6-0.3,1.2-0.5,1.8-0.6
		c0.5-0.1,1-0.2,1.5-0.3c0.4-0.1,0.8-0.1,1.2-0.1c0.4,0,0.7,0,1,0l1.1,0.1l-1.2-2.9l-0.5,0.1c-0.5,0.1-0.9,0.1-1.4,0.2
		c-0.5,0.1-0.9,0.2-1.4,0.3c-0.5,0.1-1,0.2-1.5,0.4c-0.5,0.2-1,0.3-1.6,0.6c-0.5,0.2-1,0.4-1.5,0.7c-0.5,0.3-1,0.6-1.4,0.9
		c-0.4,0.3-0.9,0.7-1.2,1c-0.4,0.4-0.7,0.8-0.9,1.2c-0.2,0.5-0.4,1-0.4,1.5c0,0.5,0.1,1.1,0.3,1.6C240,209.5,240.3,210,240.8,210.3z
		"/>
	<path class="st1" d="M268.2,207.2c0.6,0.6,1.3,1,2.1,1.2c0.6,0.2,1.3,0.3,2.1,0.3c0.2,0,0.5,0,0.7,0c1-0.1,2.1-0.3,3.3-0.7
		c1.2-0.4,2.3-0.9,3.1-1.4c0.9-0.6,1.6-1.2,2.1-1.8c0.5-0.7,0.8-1.4,1-2.2c0.1-0.8,0.1-1.6-0.2-2.4l-3.4-10.2l-2.5,0.8l3.4,10.3
		c0.1,0.4,0.1,0.7,0,1.1c-0.1,0.4-0.3,0.8-0.6,1.2c-0.3,0.4-0.8,0.8-1.4,1.2c-0.6,0.4-1.4,0.7-2.2,1c-0.9,0.3-1.7,0.5-2.4,0.5
		c-0.7,0.1-1.3,0-1.8-0.1c-0.5-0.1-0.9-0.3-1.2-0.6c-0.3-0.3-0.5-0.6-0.6-0.9l-3.4-10.3l-2.5,0.8l3.4,10.2
		C267.2,205.9,267.7,206.6,268.2,207.2z"/>
	<path class="st1" d="M298,201.2l-1.4-5.5l5.7-1.4c1.2-0.3,2.1-0.6,2.9-1c0.8-0.4,1.5-0.9,1.9-1.5c0.5-0.6,0.8-1.2,0.9-2
		c0.1-0.7,0.1-1.4-0.1-2.2c-0.2-0.8-0.5-1.5-0.9-2c-0.4-0.6-1-1-1.7-1.3c-0.7-0.3-1.5-0.4-2.4-0.4c-0.9,0-1.9,0.2-3.1,0.4l-8.3,2.1
		l3.9,15.5L298,201.2z M299.7,187c0.9-0.2,1.8-0.4,2.5-0.5c0.7-0.1,1.2-0.1,1.7,0c0.4,0.1,0.7,0.2,0.9,0.5c0.3,0.3,0.4,0.7,0.6,1.3
		c0.1,0.5,0.1,0.9,0.1,1.2c-0.1,0.3-0.2,0.6-0.4,0.8c-0.2,0.2-0.4,0.4-0.7,0.6c-0.3,0.2-0.7,0.4-1,0.5c-0.4,0.1-0.8,0.3-1.2,0.4
		l-6.1,1.5l-1.3-5L299.7,187z"/>
	<polygon class="st1" points="334.6,193.5 334.1,191 323.4,192.9 322.6,188.4 332.6,186.6 332.2,184.1 322.1,185.9 321.5,182.2 
		332.1,180.3 331.6,177.8 318.3,180.2 321.1,195.9 	"/>
	<path class="st1" d="M348.3,191.6l-0.7-6.2l5.3-0.6c0.2,0,0.4-0.1,0.7-0.1c0.1,0,0.2,0,0.3,0l5.4,5.7l3.3-0.4l-5.9-6.1
		c0.9-0.4,1.5-0.9,2-1.5c0.6-0.9,0.8-1.9,0.7-3.2c-0.1-0.8-0.3-1.5-0.6-2.1c-0.4-0.6-0.9-1.1-1.5-1.4c-0.6-0.3-1.4-0.5-2.3-0.6
		c-0.9-0.1-1.9-0.1-3,0.1l-7.9,0.9l1.8,15.9L348.3,191.6z M350.7,177.8c1.1-0.1,2.1-0.2,2.9-0.2c0.7,0,1.3,0,1.8,0.2
		c0.4,0.1,0.7,0.3,0.8,0.5c0.2,0.3,0.3,0.7,0.4,1.2l0,0c0.1,0.5,0,0.9-0.1,1.2c-0.1,0.3-0.4,0.5-0.7,0.7c-0.4,0.2-1,0.4-1.7,0.6
		c-0.8,0.2-1.7,0.3-2.9,0.4l-3.8,0.4l-0.5-4.5L350.7,177.8z"/>
	<path class="st1" d="M391.7,188.5l0-5.6l5.9,0c1.2,0,2.2-0.1,3.1-0.3c0.9-0.2,1.6-0.6,2.2-1c0.6-0.5,1-1,1.3-1.7
		c0.3-0.6,0.4-1.4,0.4-2.2v0c0-0.8-0.2-1.6-0.4-2.2c-0.3-0.7-0.7-1.2-1.4-1.7c-0.6-0.4-1.3-0.7-2.2-1c-0.9-0.2-1.9-0.3-3.1-0.3
		l-8.6,0.1l0.1,16L391.7,188.5z M396.7,175c1,0,1.8,0,2.6,0.1c0.7,0.1,1.2,0.2,1.6,0.4c0.4,0.2,0.6,0.4,0.8,0.7
		c0.2,0.3,0.3,0.8,0.3,1.4c0,0.5-0.1,0.9-0.2,1.2c-0.1,0.3-0.3,0.5-0.5,0.7c-0.2,0.2-0.5,0.3-0.8,0.4c-0.4,0.1-0.7,0.2-1.1,0.2
		c-0.4,0-0.8,0.1-1.2,0.1l-6.3,0l0-5.2L396.7,175z"/>
	<path class="st1" d="M418.4,182.6l5.3,0.3c0.2,0,0.4,0,0.7,0c0.1,0,0.2,0,0.3,0l4.4,6.5l3.4,0.2l-4.8-7c0.9-0.2,1.7-0.6,2.2-1.2
		c0.7-0.7,1.1-1.8,1.2-3c0-0.8-0.1-1.5-0.3-2.1c-0.2-0.7-0.7-1.2-1.3-1.7c-0.6-0.4-1.3-0.8-2.1-1c-0.8-0.2-1.8-0.4-3-0.4l-8-0.4
		l-0.9,16l2.7,0.1L418.4,182.6z M418.8,175.4l3.9,0.2c1.1,0.1,2.1,0.2,2.9,0.3c0.7,0.1,1.3,0.3,1.7,0.5c0.4,0.2,0.6,0.4,0.7,0.7
		c0.1,0.3,0.2,0.7,0.2,1.2c0,0.5-0.1,0.9-0.3,1.2c-0.2,0.2-0.4,0.4-0.8,0.6c-0.4,0.2-1.1,0.2-1.8,0.3c-0.8,0-1.8,0-2.9-0.1l-3.8-0.2
		L418.8,175.4z"/>
	<polygon class="st1" points="455.9,189.6 445.1,188.3 445.6,183.7 455.8,184.9 456.1,182.4 445.9,181.2 446.3,177.5 457,178.8 
		457.3,176.2 443.9,174.6 442,190.5 455.6,192.1 	"/>
	<polygon class="st1" points="471.4,183.5 476.3,195.5 478.2,195.9 487.1,186.5 485.1,197.2 487.7,197.7 490.7,182 488.3,181.5 
		477.9,192.5 472.2,178.4 469.8,178 466.8,193.7 469.4,194.2 	"/>
	<rect x="494.7" y="191.8" transform="matrix(0.247 -0.969 0.969 0.247 191.3462 632.5745)" class="st1" width="16" height="2.7"/>
	<path class="st1" d="M516,203.9c0.5,0.7,1.2,1.3,2.1,1.8c0.9,0.5,1.9,1,3.1,1.4c1.2,0.4,2.4,0.6,3.4,0.7c0.2,0,0.4,0,0.6,0
		c0.8,0,1.5-0.1,2.2-0.3c0.8-0.3,1.5-0.7,2.1-1.2c0.5-0.6,1-1.2,1.2-2l3.2-10.2l-2.5-0.8l-3.3,10.3c-0.1,0.4-0.3,0.7-0.6,0.9
		c-0.3,0.3-0.7,0.5-1.2,0.6c-0.5,0.1-1.1,0.2-1.8,0.1c-0.7,0-1.5-0.2-2.4-0.5c-0.9-0.3-1.7-0.6-2.3-1c-0.6-0.4-1.1-0.8-1.4-1.2
		c-0.3-0.4-0.5-0.8-0.6-1.2c-0.1-0.4-0.1-0.7,0-1.1l3.3-10.3l-2.5-0.8l-3.2,10.2c-0.3,0.8-0.3,1.6-0.2,2.4
		C515.1,202.5,515.5,203.2,516,203.9z"/>
	<polygon class="st1" points="546.8,204.1 549.1,216.9 550.9,217.6 561.6,210.2 557.4,220.3 559.8,221.3 565.9,206.5 563.7,205.6 
		551.3,214.2 548.5,199.3 546.3,198.4 540.2,213.2 542.6,214.2 	"/>
	<path class="st1" d="M307.8,599.7L296,612.8l2.5,0.6l2.9-3.2l9.1,2.3l1,4.3l2.5,0.6l-4-17.2L307.8,599.7z M303.1,608.4l5.1-5.6
		l1.7,7.4L303.1,608.4z"/>
	<polygon class="st1" points="337.1,618.6 327.5,604.3 325.4,603.9 322.5,619.3 324.8,619.8 327,607.8 336.6,622 338.7,622.4 
		341.6,607 339.4,606.6 	"/>
	<polygon class="st1" points="349.4,610.4 356.1,611.2 354.4,624.6 356.7,624.9 358.4,611.5 365,612.4 365.3,610.2 349.7,608.2 	"/>
	
		<rect x="366.4" y="617.6" transform="matrix(7.963017e-02 -0.9968 0.9968 7.963017e-02 -272.3498 942.5856)" class="st1" width="15.7" height="2.3"/>
	
		<rect x="389.1" y="615.1" transform="matrix(4.134354e-02 -0.9991 0.9991 4.134354e-02 -245.0829 984.0862)" class="st1" width="2.3" height="9.3"/>
	<path class="st1" d="M419.4,613.8c-0.8-0.6-1.8-1-2.9-1.2c-1.1-0.2-2.2-0.3-3.5-0.3l-8,0.1l0.2,15.7l8.1-0.1c0.8,0,1.6-0.1,2.4-0.2
		c0.8-0.1,1.5-0.3,2.1-0.6c0.7-0.3,1.3-0.6,1.8-1c0.5-0.4,1-0.9,1.4-1.5c0.4-0.6,0.7-1.3,0.9-2.1c0.2-0.8,0.3-1.7,0.3-2.6
		c0-1.5-0.3-2.7-0.7-3.7C420.9,615.2,420.2,614.4,419.4,613.8z M419.3,622.8c-0.3,0.7-0.7,1.3-1.3,1.7c-0.6,0.4-1.2,0.7-2,0.9
		c-0.8,0.2-1.8,0.3-2.8,0.3l-5.7,0.1l-0.2-11.2l5.7-0.1c0.7,0,1.3,0,1.9,0.1c0.6,0.1,1.1,0.2,1.6,0.4c0.5,0.2,0.9,0.4,1.3,0.7
		c0.4,0.3,0.7,0.6,1,1c0.3,0.4,0.5,0.9,0.6,1.4c0.2,0.6,0.2,1.2,0.2,2C419.7,621.1,419.6,622,419.3,622.8z"/>
	<path class="st1" d="M436.9,611.2l-7,16.2l2.6-0.2l1.7-4l9.3-0.7l2.3,3.7l2.6-0.2l-9.4-15L436.9,611.2z M435.2,620.9l3-7l4,6.4
		L435.2,620.9z"/>
	
		<rect x="456.3" y="609.2" transform="matrix(0.9925 -0.1224 0.1224 0.9925 -72.0897 60.6351)" class="st1" width="2.3" height="15.7"/>
	<path class="st1" d="M482.8,613c0.5-0.9,0.7-1.9,0.5-3.1c-0.1-0.8-0.4-1.4-0.7-2c-0.4-0.6-0.9-1-1.5-1.3c-0.6-0.3-1.4-0.5-2.3-0.5
		c-0.8,0-1.9,0-3,0.2l-7.7,1.3l2.7,15.4l2.3-0.4l-1.1-6.2l5.4-0.9c0.2,0,0.4-0.1,0.6-0.1c0.1,0,0.2,0,0.3-0.1l5.7,5.4l2.9-0.5
		l-6.2-5.7C481.7,614.3,482.3,613.7,482.8,613z M480.1,612.4c-0.4,0.3-1,0.5-1.7,0.7c-0.8,0.2-1.7,0.4-2.9,0.6l-4,0.7l-0.8-4.8
		l4-0.7c1.1-0.2,2.1-0.3,2.9-0.4c0.8-0.1,1.4,0,1.9,0.1c0.4,0.1,0.7,0.3,0.9,0.5c0.2,0.3,0.4,0.7,0.5,1.2v0c0.1,0.5,0.1,1,0,1.3
		C480.7,611.9,480.5,612.2,480.1,612.4z"/>
	<polygon class="st1" points="503,600.6 499.1,608.8 491.9,603.3 489.1,603.9 498.4,611.1 499.9,617.5 502.2,616.9 500.7,610.6 
		505.8,600 	"/>
	<path class="st1" d="M278.4,277.3c0.6,8.2,5.3,8.8,5.3,8.8l0.9-2c-6.2-6.1,5.4-14.5,15-16.8c9.6-2.3,21-2.5,26.4,0.5
		c5.4,3,3,8.4,3,8.4l1.6,1.3c0,0,1.9-0.5,1.8-7.3c-0.1-8.4,1.5-24.9,1.5-24.9c-15.8,22.7-31.1-17.5-31.1-17.5
		c-6.2,42.2-29.2,25.5-29.2,25.5S277.8,269.1,278.4,277.3z M302.7,251l3.1,5.6l2.2-6.4l1.7,0l-4.1,11.2l-5.6-9.8L302.7,251z"/>
</g>
</svg>
