<?xml version="1.0" encoding="utf-8"?>
<!-- Generator: Adobe Illustrator 24.2.1, SVG Export Plug-In . SVG Version: 6.00 Build 0)  -->
<svg version="1.1" id="Layer_1" xmlns="http://www.w3.org/2000/svg" xmlns:xlink="http://www.w3.org/1999/xlink" x="0px" y="0px"
	 viewBox="0 0 800 800" style="enable-background:new 0 0 800 800;" xml:space="preserve">
<style type="text/css">
	.st0{fill-rule:evenodd;clip-rule:evenodd;fill:#048652;}
	.st1{fill:#FFFFFF;}
</style>
<rect x="-0.4" y="-0.5" class="st0" width="801.5" height="801.5"/>
<g>
	<path class="st1" d="M226.7,350.8h-0.4c-1.9,0-3.7-0.4-4.8-0.4c-1.1-0.4-1.9-0.7-2.6-1.9s-1.1-2.2-1.1-4.1
		c-0.4-1.9-0.4-4.5-0.4-7.4v-39.9l44.7,58.9v0.4h6.7V299c0-3,0-5.2,0.4-7.1s0.7-3,1.5-3.7s1.5-1.5,3-1.9s3-0.4,5.2-0.7h0.4v-4.5
		h-26.4v4.5h0.4c1.9,0,3.7,0.4,4.8,0.4c1.1,0.4,1.9,0.7,2.6,1.9s1.1,2.2,1.1,4.1c0.4,1.9,0.4,4.5,0.4,7.4v36.5l-41.3-54.8H201v4.5
		h0.4c1.9,0,3.7,0.4,4.8,0.7s1.9,1.1,2.6,1.9c0.7,1.1,1.1,2.2,1.1,4.1c0.4,1.9,0.4,4.1,0.4,6.7v38.7c0,3,0,5.2-0.4,7.1
		c-0.4,1.5-0.7,3-1.5,3.7s-1.5,1.5-3,1.9c-1.5,0.4-3,0.4-5.2,0.7h-0.4v4.1h26.4v-4.5H226.7z"/>
	<path class="st1" d="M285.5,318.3c1.5,0,2.6-0.4,3.4-1.1c0.7-0.7,1.5-1.9,2.2-3.7c0.4-1.1,0.7-2.2,1.1-3c0.4-0.7,0.7-1.5,1.1-1.9
		s1.1-0.7,1.9-0.7c0.7,0,1.5-0.4,2.6-0.4c6.3,0,9.3,3.7,9.3,11.2v3.7l-13.4,6c-3,1.1-5.2,2.6-7.4,3.7c-1.9,1.1-3.7,2.6-4.8,3.7
		c-1.1,1.5-2.2,2.6-2.6,4.1c-0.7,1.5-0.7,3-0.7,4.5c0,3.7,1.1,6.3,3.7,8.6c2.2,2.2,5.6,3.4,9.7,3.4c3.7,0,7.1-1.1,10.1-2.6
		c2.6-1.9,4.8-4.1,6.7-6.7c0,3,0.7,5.2,2.2,6.7c1.5,1.9,3.7,3,6.7,3c2.2,0,4.5-0.4,6.7-1.5c2.2-1.1,3.7-2.2,4.5-3.7v-0.4l-1.9-3.4
		c0,0-1.5,2.6-4.8,2.6c-2.6,0-3.7-3.4-3.7-10.4v-21.2c0-5.6-1.5-9.7-4.1-11.9c-2.6-2.2-7.4-3.4-13.8-3.4c-6,0-10.8,0.7-14.2,2.6
		c-3.4,1.9-5.2,4.5-5.2,7.4C280.3,316.5,282.2,318.3,285.5,318.3z M307.1,334.4c0,2.2-0.4,4.1-0.7,6c-0.7,1.9-1.5,3.4-2.6,4.8
		c-1.1,1.5-2.2,2.6-3.7,3.4s-3,1.1-4.5,1.1c-2.2,0-3.7-0.7-5.2-1.9s-1.9-3-1.9-4.8c0-1.5,0.4-2.6,1.1-3.7s1.9-2.6,3-3.7
		c1.5-1.1,3.4-2.6,6-4.1c2.2-1.1,5.2-2.6,8.6-3.7L307.1,334.4L307.1,334.4z"/>
	<path class="st1" d="M333.6,343.7c0,3.7,1.1,7.1,3.4,8.9c2.2,2.2,5.6,3,10.1,3c3.4,0,6-0.7,8.6-1.9c2.2-1.1,4.1-3.4,4.8-5.6v-0.4
		l-3-2.2l-0.4,0.4c-1.1,1.5-2.2,2.6-3,3.4c-1.1,0.7-2.2,0.7-3.7,0.7c-1.1,0-2.2,0-3-0.4c-0.7-0.4-1.5-0.7-1.9-1.9
		c-0.4-0.7-0.7-1.9-1.1-3.4c-0.4-1.5-0.4-3.4-0.4-5.6v-29.4h22.3c1.1,0.4,1.5,0,2.2,0.7c0.4,0.7,0.7,1.9,0.7,3.4s0.4,3.4,0.4,6v14.2
		c0,4.1,0.4,7.1,0.7,9.7c0.4,2.6,1.5,4.5,2.6,6c1.5,1.9,3.4,3.4,6,4.1c2.6,1.1,5.2,1.5,7.8,1.5c3.4,0,7.1-1.1,10.1-2.6
		c3-1.9,5.6-4.5,8.2-8.2l0.4,2.2l0,0c0,1.1,0,1.9,0.4,2.6v0.4l0,0c1.9,7.1,10.4,6,10.4,6h17.1l0,0H452v-4.5h-0.4
		c-1.9,0-3.4-0.4-4.1-0.4c-0.7-0.4-1.5-0.7-1.9-1.5c-0.4-0.7-0.7-1.9-0.7-3.4s-0.4-3.4-0.4-6v-3c0-2.6,0-4.8,0.4-7.1
		s0.7-4.5,1.1-6.3c0.7-3.4,2.2-6,3.7-8.2c1.5-2.2,3.4-3,4.8-3c0.4,0,1.1,0,1.5,0.4l1.5,0.7c0.7,0.4,1.1,0.7,1.9,0.7
		c0.7,0.4,1.5,0.4,2.6,0.4c1.9,0,3.4-0.4,4.5-1.5c1.1-1.1,1.5-2.2,1.5-4.1s-0.7-3.4-1.9-4.5c-1.1-1.1-3-1.5-5.2-1.5
		c-1.9,0-3.4,0.4-5.2,1.1c-1.5,0.7-3.4,1.5-4.8,2.6s-3,2.6-4.1,4.1c-1.1,1.5-1.9,3-2.6,4.5l-1.1-11.2l-17.5,3.7v4.1h0.4
		c1.9,0,3.7,0,4.8,0.4c1.1,0.4,1.9,0.7,2.2,1.9c0.4,1.1,0.7,3,0.7,5.2s0,6,0,10.1v9.7l0,0c0,0,0,0,0,0.4v1.1c0,0.4,0,0.7,0,1.1
		c-0.4,3.7-1.5,9.7-8.6,9.7c-11.9,0-10.4-11.5-10.4-11.5l-0.4,0.4c0-1.9,0-4.5,0-7.1v-28.7h-19v4.5h0.4c1.9,0.4,3.4,0.4,4.1,0.7
		c1.1,0.4,1.5,0.7,2.2,1.5c0.4,0.7,0.7,1.9,0.7,3.4s0.4,3.4,0.4,6v3.4c0,1.5,0,7.4,0,8.6c0,0.7,0,1.9-0.4,2.6c0,0.7-0.4,1.5-0.4,1.9
		c0,0.7-0.4,1.1-0.7,1.9c-3,7.1-7.1,10.8-12.7,10.8c-3.4,0-6-1.5-7.4-4.5c-1.5-3-2.2-7.8-2.2-14.9v-25.3h-35.8v-12.7h-3.7v0.4
		c-1.1,2.6-2.6,4.8-4.1,6.7c-1.9,1.9-4.5,3.7-7.8,6h-0.4v4.5h5.6v34.3H333.6z"/>
	<path class="st1" d="M471.4,353c2.2,2.2,5.6,3.4,9.7,3.4c3.7,0,7.1-1.1,10.1-2.6c2.6-1.9,4.8-4.1,6.7-6.7
		c0.4,9.7,10.8,8.6,10.8,8.6h17.1l0,0h18.6v-4.5H544c-1.9,0-3.4-0.4-4.5-0.4c-1.1-0.4-1.9-0.7-2.2-1.5c-0.4-0.7-0.7-1.9-1.1-3.4
		c-0.4-1.5-0.4-3.4-0.4-5.6v-58.5c0-3.4-3-6-6.3-5.2l-12.7,2.6v4.1h0.4c3,0,4.8,0.4,6,0.7c1.1,0.4,1.5,1.1,1.9,2.6
		c0,0.7,0.4,2.2,0.4,4.5s0,5.2,0,8.6v41c0,1.5,0,2.6,0,3.7c-0.7,3.4-3,6.7-8.2,6.7c-7.1,0-9.3-4.1-10.1-7.4c0-1.1-0.4-2.6-0.4-4.1
		v-21.2c0-5.6-1.5-9.7-4.1-11.9c-2.6-2.2-7.4-3.4-13.8-3.4c-6,0-10.8,0.7-14.2,2.6c-3.4,1.9-5.2,4.5-5.2,7.4c0,3.4,1.9,5.2,5.2,5.2
		c1.5,0,2.6-0.4,3.4-1.1c0.7-0.7,1.5-1.9,2.2-3.7c0.4-1.1,0.7-2.2,1.1-3c0.4-0.7,0.7-1.5,1.1-1.9c0.4-0.4,1.1-0.7,1.9-0.7
		c0.7,0,1.5-0.4,2.6-0.4c6.3,0,9.3,3.7,9.3,11.2v3.7l-13.4,6c-3,1.1-5.2,2.6-7.4,3.7c-1.9,1.1-3.7,2.6-4.8,3.7
		c-1.1,1.5-2.2,2.6-2.6,4.1s-0.7,3-0.7,4.5C467.7,348.1,469.2,350.8,471.4,353z M479.2,338.8c0.7-1.1,1.9-2.6,3-3.7
		c1.5-1.1,3.4-2.6,6-4.1c2.2-1.1,5.2-2.6,8.6-3.7v6.7c0,2.2-0.4,4.1-0.7,6c-0.7,1.9-1.5,3.4-2.6,4.8c-1.1,1.5-2.2,2.6-3.7,3.4
		c-1.5,0.7-3,1.1-4.5,1.1c-2.2,0-3.7-0.7-5.2-1.9c-1.5-1.1-1.9-3-1.9-4.8C478.5,341.4,478.9,340.3,479.2,338.8z"/>
	<path class="st1" d="M348.9,440.5L348.9,440.5l-3.4-3.7v0.4c-2.2,2.6-4.8,4.5-7.1,5.6s-4.5,1.9-7.1,1.9s-4.8-0.4-6.7-1.5
		c-1.9-1.1-3.7-2.6-5.2-4.5c-1.5-1.9-2.6-4.1-3.4-6.7c-0.7-2.6-1.1-5.6-1.1-8.9c0-0.7,0-1.5,0-2.2c0-0.4,0-1.1,0.4-1.5h30.9
		c1.9,0,2.2-0.4,2.6-0.4c0.4-0.4,0.7-1.1,0.7-2.2c0-6.3-1.9-11.2-5.2-14.5s-8.2-5.2-14.5-5.2c-3.7,0-7.4,0.7-10.8,1.9
		c-3.4,1.5-6,3.4-8.6,5.6c-2.2,2.2-4.1,5.2-5.6,8.6c-1.1,3.4-1.9,7.1-1.9,10.8s0.7,7.4,1.9,10.4c1.1,3.4,3,6,5.2,8.2
		c2.2,2.2,4.8,4.1,8.2,5.2c3,1.1,6.7,1.9,10.4,1.9C336.6,450.6,343.6,447.2,348.9,440.5z M328,402.5c3,0,5.6,0.7,7.4,2.6
		c1.9,1.5,2.6,3.7,2.6,6.7c0,0.4,0,0.7,0,1.1c0,0.4-0.4,0.4-0.4,0.4c-0.4,0-0.7,0.4-1.5,0.4c-0.7,0-1.9,0-3,0h-16.8
		C317.6,406.3,321.7,402.5,328,402.5z"/>
	<path class="st1" d="M433,444.6c-0.7-0.4-1.5-0.7-2.2-1.5c-0.4-0.7-0.7-1.9-0.7-3.4c0-1.5-0.4-3.4-0.4-6v-12.7c0-1.5,0-2.6,0-3.7
		c0-1.1,0-1.9,0.4-2.6c0-0.7,0.4-1.5,0.4-1.9c0.4-0.4,0.4-1.1,0.7-1.9c1.1-2.6,3-4.5,5.2-6c2.2-1.5,4.8-2.2,7.4-2.2
		c1.9,0,3.4,0.4,4.8,1.1c1.1,0.7,2.2,1.5,3,3c0.7,1.5,1.5,3.4,1.9,6c0.4,2.6,0.7,5.6,0.7,8.9v12.7c0,2.2,0,4.1-0.4,5.6
		c0,1.5-0.4,2.2-1.1,3c-0.4,0.7-1.1,1.1-2.2,1.5c-1.1,0.4-2.2,0.4-4.1,0.4h-0.4v4.1h25.7V445h-0.4c-1.9,0-3-0.4-4.1-0.4
		c-0.7-0.4-1.5-0.7-1.9-1.5c-0.4-0.7-0.7-1.9-0.7-3.4c0-1.5-0.4-3.4-0.4-6v-16c0-4.1-0.4-7.4-0.7-9.7c-0.4-2.2-1.1-4.5-2.2-6
		c-1.5-1.9-3.4-3-5.6-4.1c-2.6-1.1-5.2-1.5-8.2-1.5c-3.7,0-7.4,0.7-10.8,2.6c-3,1.5-6,3.7-8.2,6.7l-1.1-9.3l-16,3.7v4.1h0.4
		c1.5,0,2.6,0,3.4,0c0.7,0,1.5,0.4,1.9,0.4c0.4,0.4,0.7,0.7,1.1,1.1c0.4,0.4,0.4,1.1,0.7,1.9c0.4,1.5,0.4,6.3,0.4,13.8v10.8l0,0l0,0
		v1.5c0,0.4,0,0.7,0,1.1c-0.4,3.7-1.9,9.3-8.9,9.3c-8.2,0-10.1-4.8-10.8-8.2c0-0.7,0-1.5,0-2.6v-43.2c0-3.7-3.4-6.7-7.1-6l-11.9,2.2
		v4.1h0.4c3,0,4.8,0.4,6,0.7c1.1,0.4,1.5,1.1,1.9,2.6c0,0.7,0.4,2.2,0.4,4.5s0,5.2,0,8.6v25.7l0,0c0,0,0,0,0,0.4v1.5
		c0,0.4,0,0.7,0,1.1c-0.4,3.7-1.9,9.3-8.6,9.3c-8.6,0-10.1-5.6-10.4-8.9c0-0.7,0-1.1,0-1.9c0-0.4,0-0.7,0-0.7l0,0V385
		c0-3.7-3.4-6.3-6.7-5.6l-12.3,2.2v4.1h0.4c3,0,4.8,0.4,6,0.7c1.1,0.4,1.5,1.1,1.9,2.6c0,0.7,0.4,2.2,0.4,4.5s0,5.2,0,8.6v32
		c0,2.2,0,4.1-0.4,5.2c-0.4,1.1-0.7,2.2-1.1,3c-0.7,0.7-1.5,1.1-2.6,1.5c-1.1,0.4-2.6,0.4-4.5,0.7h-0.4v4.5H436V445h-0.4
		C435.3,445,433.8,445,433,444.6z"/>
	<path class="st1" d="M519.1,440.5L519.1,440.5l-3.4-3.7l-0.4,0.4c-2.2,2.6-4.8,4.5-7.1,5.6c-2.2,1.1-4.5,1.9-7.1,1.9
		c-2.6,0-4.8-0.4-6.7-1.5c-1.9-1.1-3.7-2.6-5.2-4.5s-2.6-4.1-3.4-6.7s-1.1-5.6-1.1-8.9c0-0.7,0-1.5,0-2.2c0-0.4,0-1.1,0.4-1.5h30.9
		c1.9,0,2.2-0.4,2.6-0.4c0.4-0.4,0.7-1.1,0.7-2.2c0-6.3-1.9-11.2-5.2-14.5s-8.2-5.2-14.5-5.2c-3.7,0-7.4,0.7-10.8,1.9
		c-3.4,1.5-6,3.4-8.6,5.6c-2.2,2.2-4.1,5.2-5.6,8.6c-1.1,3.4-1.9,7.1-1.9,10.8s0.7,7.4,1.9,10.4c1.1,3.4,3,6,5.2,8.2
		s4.8,4.1,8.2,5.2c3,1.1,6.7,1.9,10.4,1.9C506.8,450.6,513.5,447.2,519.1,440.5z M498.2,402.5c3,0,5.6,0.7,7.4,2.6
		c1.9,1.5,2.6,3.7,2.6,6.7c0,0.4,0,0.7,0,1.1c0,0.4-0.4,0.4-0.4,0.4c-0.4,0-0.7,0.4-1.5,0.4c-0.7,0-1.9,0-3,0h-16.8
		C487.8,406.3,491.5,402.5,498.2,402.5z"/>
	<path class="st1" d="M579.8,353c10.4-2.2,23.8-25.3,5.2-52.9c0,0-4.1-6-10.1-10.4c0,0,1.1,10.1-10.4,28.3
		c-8.6,13.8-8.6,28.3-3.4,30.5c0,0,9.3-9.7,14.9-36.1c0,0,4.5,17.9-8.9,39.5c-11.5,16.8-33.5,26.8-53.3,28.7
		c-27.2,2.6-54.4-4.1-80.8-9.3c-23.5-4.5-48.1-8.6-72.3-8.6c-20.1,0-41.7,6-57,19.4c-13.4,11.5-20.5,28.3-23.5,46.9l-11.2-37.2
		c-0.7-2.2-1.1-3.7-1.5-5.2s-0.4-2.6-0.4-3.4s0-1.1,0.4-1.5c0-0.4,0.4-0.7,1.1-1.1c0.4-0.4,1.5-0.4,2.6-0.7c1.1,0,2.6-0.4,4.5-0.4
		h0.4v-4.8H246v4.8h0.4c0.7,0,1.5,0,2.2,0.4c0.7,0.4,1.5,0.7,2.2,1.5c0.7,0.7,1.5,1.5,2.2,2.6c0.7,1.1,1.5,2.6,2.2,4.5
		c-0.4,1.5-1.1,3.4-1.9,5.6c-0.7,2.2-1.9,4.5-2.6,7.1l-11.2,31.7l-14.2-42.8c-0.4-1.5-0.7-2.6-1.1-3.7c-0.4-1.1-0.4-1.9-0.4-2.6
		c0-1.5,0.4-2.2,1.5-3c1.1-0.4,3.4-0.7,6.7-0.7h0.4V375h-32v4.8h0.4c1.9,0,3.4,0.4,4.8,0.7c1.1,0.4,2.2,1.1,3.4,2.6
		c1.1,1.1,1.9,2.6,3,4.8c0.7,2.2,1.9,4.5,3,7.4l17.1,47.3c1.1,0,2.6,0,4.1,0c1.9,0,3.7,0,5.6,0.4l17.1-45.8l17.9,53.3h1.9l4.5,0.4
		c1.5-21.6,8.6-48.8,25.3-63.3s40.2-17.9,61.8-17.1c25,0.7,49.2,6,73.8,10.8c25.3,5.2,52.1,10.4,77.9,6
		c20.5-3.7,40.6-14.9,51.4-32.8C575.3,353.7,577.2,353.7,579.8,353z"/>
	<path class="st1" d="M586.5,358.2L586.5,358.2c0,0-15.3,1.1-16.8,15.6c0,0,5.6,5.6,13.4,4.8c2.6,0,5.6-0.7,9.3-3.4
		c11.5-7.8,8.9-20.9,8.9-20.9c-6,2.6-12.7,3.4-12.7,3.4C588,358.2,587.3,358.2,586.5,358.2z"/>
	<path class="st1" d="M260.6,498.6c-3.4,13-11.5,19.4-23.5,19.4c-7.8,0-14.2-2.6-18.3-8.2c-4.1-5.6-6.3-13.4-6.3-23.5
		c0-5.2,0.7-10.1,1.5-14.2c1.1-4.1,2.6-7.4,4.8-10.4c2.2-3,4.5-4.8,7.8-6.7c3-1.5,6.3-2.2,10.4-2.2c5.6,0,10.4,1.5,14.5,4.8
		c4.1,3,6.7,7.4,8.2,13v0.4h4.1l-1.1-22.7h-3.4l-1.9,5.6c-3.7-2.2-7.4-4.1-10.8-5.2c-3.4-1.1-7.1-1.5-10.8-1.5
		c-5.6,0-10.4,1.1-14.9,3c-4.5,1.9-8.6,4.5-11.9,8.2c-3.4,3.4-6,7.8-7.4,12.7c-1.9,4.8-2.6,10.1-2.6,16c0,5.6,0.7,10.8,2.6,15.3
		c1.9,4.5,4.1,8.6,7.4,11.5c3,3.4,7.1,5.6,11.5,7.4c4.5,1.9,9.3,2.6,14.9,2.6c9.3,0,17.5-2.6,24.2-8.2l2.2,7.4h4.1v-24.6H260.6
		L260.6,498.6z"/>
	<path class="st1" d="M317.2,477.8c-2.6-2.2-5.6-4.1-8.6-5.6c-3.4-1.5-6.7-1.9-10.4-1.9s-7.1,0.7-10.4,1.9c-3.4,1.1-6.3,3-8.6,5.6
		c-2.6,2.2-4.5,5.2-6,8.2c-1.5,3.4-2.2,7.1-2.2,10.8c0,4.1,0.7,7.4,2.2,10.8c1.5,3.4,3.4,6.3,6,8.6c2.6,2.2,5.2,4.1,8.6,5.6
		c3.4,1.5,6.7,1.9,10.4,1.9s7.1-0.7,10.4-1.9c3.4-1.5,6.3-3.4,8.6-5.6c2.6-2.2,4.5-5.2,6-8.6c1.5-3.4,2.2-7.1,2.2-10.8
		c0-3.7-0.7-7.4-2.2-10.4C321.7,483,319.8,480.4,317.2,477.8z M312.7,505.7c-0.7,2.6-1.9,4.8-3.4,6.7c-1.5,1.9-3,3.4-4.8,4.5
		c-1.9,1.1-4.1,1.5-6.3,1.5s-4.5-0.4-6.3-1.5s-3.4-2.6-4.8-4.1c-1.5-1.9-2.2-4.1-3-6.7c-0.7-2.6-1.1-5.6-1.1-8.9c0-3,0.4-6,1.1-8.6
		c0.7-2.6,1.9-4.8,3-6.7c1.5-1.9,3-3.4,4.8-4.1c1.9-1.1,4.1-1.5,6.3-1.5s4.5,0.4,6.3,1.5s3.7,2.6,4.8,4.5c1.5,1.9,2.6,4.1,3.4,6.7
		c0.7,2.6,1.1,5.6,1.1,8.6C313.8,500.1,313.5,503.1,312.7,505.7z"/>
	<path class="st1" d="M369.7,471.8c-1.1-1.1-3-1.5-5.2-1.5c-1.9,0-3.4,0.4-5.2,1.1c-1.5,0.7-3.4,1.5-4.8,2.6s-3,2.6-4.1,4.1
		c-1.1,1.5-2.2,3-3,4.8l-1.5-11.5l-17.5,3.7v4.1h0.4c1.9,0,3.7,0,4.8,0.4c1.1,0.4,1.9,0.7,2.2,1.9c0.4,1.1,0.7,3,0.7,5.2s0,6,0,10.1
		v11.2c0,2.2,0,4.5-0.4,6c0,1.5-0.4,2.6-1.1,3c-0.4,0.7-1.5,1.1-2.2,1.5c-1.1,0.4-2.6,0.4-4.5,0.4H328v4.1h26.4v-3.7h-0.4
		c-1.9,0-3.4-0.4-4.1-0.7c-1.1-0.4-1.5-0.7-2.2-1.5c-0.4-0.7-0.7-1.9-1.1-3.4c0-1.5-0.4-3.7-0.4-6.3v-3c0-2.6,0-4.8,0.4-7.4
		c0.4-2.2,0.7-4.5,1.1-6.3c1.1-3.4,2.2-6,4.1-8.2c1.5-2.2,3.4-3.4,4.8-3.4c0.4,0,1.1,0,1.5,0.4l1.5,0.7c0.7,0.4,1.1,0.7,1.9,0.7
		c0.7,0.4,1.5,0.4,2.6,0.4c1.9,0,3.4-0.4,4.5-1.5c1.1-0.7,1.5-2.2,1.5-3.7C371.6,474.4,370.8,472.9,369.7,471.8z"/>
	<path class="st1" d="M431.5,518.4c-1.1-0.4-1.9-0.7-2.2-1.5c-0.4-0.7-0.7-1.9-1.1-3.4c0-1.5-0.4-3.7-0.4-6.3v-16
		c0-4.1-0.4-7.4-0.7-9.7c-0.4-2.2-1.1-4.5-2.2-6c-1.5-1.9-3.4-3-5.6-4.1c-2.6-1.1-5.2-1.5-8.2-1.5c-3.7,0-7.4,0.7-10.8,2.6
		c-3.4,1.5-6,4.1-8.6,6.7l-1.1-9.7l-16,3.7v3.7h0.4c1.5,0,2.6,0,3.4,0s1.5,0.4,2.2,0.4c0.4,0.4,0.7,0.7,1.1,1.1s0.4,1.1,0.7,1.9
		c0.4,1.5,0.7,6.3,0.7,13.8v12.7c0,2.2,0,4.5-0.4,5.6c0,1.5-0.4,2.2-1.1,3c-0.4,0.7-1.1,1.1-2.2,1.5c-1.1,0.4-2.6,0.4-4.1,0.7h-0.4
		v4.1h25.7v-2.6h-0.4c-1.9,0-3.4-0.4-4.5-0.7c-1.1-0.4-1.9-0.7-2.2-1.5c-0.4-0.7-0.7-1.9-1.1-3.4c0-1.5-0.4-3.7-0.4-6.3v-13
		c0-1.5,0-3,0-3.7c0-1.1,0-1.9,0.4-2.6c0-0.7,0.4-1.5,0.4-1.9c0.4-0.7,0.4-1.1,0.7-1.9c1.5-2.6,3-4.5,5.6-6c2.2-1.5,4.8-2.2,7.8-2.2
		c1.9,0,3.7,0.4,4.8,1.1c1.5,0.7,2.6,1.9,3.4,3.4s1.5,3.4,1.9,6s0.7,5.6,0.7,9.3v12.7c0,2.2,0,4.1-0.4,5.6c0,1.5-0.4,2.6-1.1,3
		c-0.4,0.7-1.1,1.1-2.2,1.5c-1.1,0.4-2.6,0.4-4.1,0.4h-0.4v4.1h25.7v-3.7h-0.4C433.8,518.7,432.3,518.7,431.5,518.4z"/>
	<path class="st1" d="M450.2,492.7h31.3c1.9,0,2.2-0.4,2.6-0.4c0.4-0.4,0.7-0.7,0.7-1.9c0-6.3-1.9-11.2-5.2-14.9
		c-3.4-3.4-8.6-5.2-14.5-5.2c-3.7,0-7.4,0.7-10.8,1.9c-3.4,1.5-6,3.4-8.6,5.6c-2.2,2.2-4.1,5.2-5.6,8.6c-1.1,3.4-1.9,7.1-1.9,10.8
		s0.7,7.4,1.9,10.8c1.1,3.4,3,6,5.2,8.2c2.2,2.2,4.8,4.1,8.2,5.2c3,1.1,6.7,1.9,10.4,1.9c8.2,0,14.9-3.4,20.5-10.1l0.4-0.4l-3.4-3
		l-0.4,0.4c-2.2,2.6-4.8,4.5-7.1,5.6c-2.2,1.1-4.8,1.9-7.4,1.9c-2.6,0-4.8-0.4-6.7-1.5c-1.9-1.1-3.7-2.6-5.2-4.5
		c-1.5-1.9-2.6-4.1-3.4-6.7c-0.7-2.6-1.1-5.6-1.1-8.9c0-0.7,0-1.9,0-2.6C450.2,493.4,450.2,493,450.2,492.7z M463.6,475.5
		c3,0,5.6,0.7,7.4,2.6s2.6,4.1,2.6,6.7c0,0.4,0,1.1,0,1.1c0,0.4-0.4,0.4-0.7,0.7c-0.4,0-0.7,0.4-1.5,0.4c-0.7,0-1.9,0-3,0h-17.1
		C452.8,479.6,456.9,475.5,463.6,475.5z"/>
	<path class="st1" d="M529.1,471.8c-1.1-1.1-3-1.5-5.2-1.5c-1.9,0-3.4,0.4-5.2,1.1c-1.5,0.7-3.4,1.5-4.8,2.6s-3,2.6-4.1,4.1
		c-1.1,1.5-2.2,3-3,4.8l-1.5-11.5l-17.5,3.7v4.1h0.4c1.9,0,3.7,0,4.8,0.4c1.1,0.4,1.9,0.7,2.2,1.9c0.4,1.1,0.7,3,0.7,5.2s0,6,0,10.1
		v11.2c0,2.2,0,4.5-0.4,6c0,1.5-0.4,2.6-1.1,3c-0.4,0.7-1.1,1.1-2.2,1.5s-2.6,0.4-4.5,0.4h-0.4v4.1h26.4v-3.7h-0.4
		c-1.9,0-3.4-0.4-4.1-0.7c-1.1-0.4-1.5-0.7-2.2-1.5c-0.4-0.7-0.7-1.9-1.1-3.4c0-1.5-0.4-3.7-0.4-6.3v-3c0-2.6,0-4.8,0.4-7.4
		c0.4-2.2,0.7-4.5,1.1-6.3c1.1-3.4,2.2-6,4.1-8.2c1.5-2.2,3.4-3.4,4.8-3.4c0.4,0,1.1,0,1.5,0.4l1.5,0.7c0.7,0.4,1.1,0.7,1.9,0.7
		c0.7,0.4,1.5,0.4,2.6,0.4c1.9,0,3.4-0.4,4.5-1.5c1.1-0.7,1.5-2.2,1.5-3.7C531,474.4,530.3,472.9,529.1,471.8z"/>
	<path class="st1" d="M555.2,426.4c-1.1-1.5-3-2.6-4.8-4.1s-4.5-3-7.1-4.5c-1.5-1.1-3-1.9-4.1-2.6s-2.2-1.5-3-2.2
		c-0.7-0.7-1.1-1.5-1.5-2.2c-0.4-0.7-0.4-1.5-0.4-2.6c0-1.9,0.7-3.4,1.9-4.5c1.1-1.1,3-1.5,4.8-1.5c0.4,0,1.1,0,1.1,0
		c2.2,0.4,6.7,1.5,7.4,6.7c0,0,0,2.6-0.7,3.7c0,0,7.1,2.2,7.4-4.8c0.7-7.8-9.7-11.5-17.1-10.4c-1.5,0.4-3.4,0.7-4.8,1.1
		c-1.9,0.7-3.4,1.9-4.5,3c-1.5,1.5-2.2,3-3,4.8c-0.7,1.9-1.1,4.1-1.1,6s0.4,3.4,0.7,4.8c0.7,1.5,1.5,2.6,2.6,3.7
		c1.1,1.1,2.6,2.2,4.1,3.7c1.5,1.1,3.4,2.2,5.6,3.7c2.2,1.5,4.1,2.6,5.6,3.7c1.5,0.7,2.6,1.9,3.4,2.6c0.7,0.7,1.1,1.5,1.5,1.9
		c0.4,0.7,0.4,1.5,0.4,2.2c0,2.2-0.7,4.1-2.2,5.2c-1.5,1.1-3.4,1.9-5.6,1.9c-1.1,0-3,0-4.1-0.7c0,0-9.7-3-5.6-13.4
		c0,0-7.8-1.1-7.8,7.1c-0.4,6.7,7.8,12.3,18.6,11.9c4.8,0,8.9-1.5,11.9-4.1c3-2.6,4.5-6.3,4.5-11.2c0-1.9-0.4-3.4-0.7-4.8
		C557.5,429,556.3,427.5,555.2,426.4z"/>
	<path class="st1" d="M595.4,426.4c-1.1-1.5-3-2.6-4.8-4.1s-4.5-3-7.1-4.5c-1.5-1.1-3-1.9-4.1-2.6s-2.2-1.5-3-2.2
		c-0.7-0.7-1.1-1.5-1.5-2.2c-0.4-0.7-0.4-1.5-0.4-2.6c0-1.9,0.7-3.4,1.9-4.5c1.1-1.1,3-1.5,4.8-1.5c0.4,0,1.1,0,1.1,0
		c2.2,0.4,6.7,1.5,7.4,6.7c0,0,0,2.6-0.7,3.7c0,0,7.1,2.2,7.4-4.8c0.7-7.8-9.7-11.5-17.1-10.4c-1.5,0.4-3.4,0.7-4.8,1.1
		c-1.9,0.7-3.4,1.9-4.5,3c-1.5,1.5-2.2,3-3,4.8c-0.7,1.9-1.1,4.1-1.1,6s0.4,3.4,0.7,4.8c0.4,1.5,1.5,2.6,2.6,3.7
		c1.1,1.1,2.6,2.2,4.1,3.7c1.5,1.1,3.4,2.2,5.6,3.7c2.2,1.5,4.1,2.6,5.6,3.7c1.5,0.7,2.6,1.9,3.4,2.6c0.7,0.7,1.1,1.5,1.5,1.9
		c0.4,0.7,0.4,1.5,0.4,2.2c0,2.2-0.7,4.1-2.2,5.2c-1.5,1.1-3.4,1.9-5.6,1.9c-1.1,0-3,0-4.1-0.7c0,0-9.7-3-5.6-13.4
		c0,0-7.8-1.1-7.8,7.1c-0.4,6.7,7.8,12.3,18.6,11.9c4.8,0,8.9-1.5,11.9-4.1c3-2.6,4.5-6.3,4.5-11.2c0-1.9-0.4-3.4-0.7-4.8
		C597.7,429,596.6,427.5,595.4,426.4z"/>
</g>
</svg>
