<?xml version="1.0" encoding="utf-8"?>
<!-- Generator: Adobe Illustrator 24.2.1, SVG Export Plug-In . SVG Version: 6.00 Build 0)  -->
<svg version="1.1" id="Layer_1" xmlns="http://www.w3.org/2000/svg" xmlns:xlink="http://www.w3.org/1999/xlink" x="0px" y="0px"
	 viewBox="0 0 800 800" style="enable-background:new 0 0 800 800;" xml:space="preserve">
<style type="text/css">
	.st0{fill-rule:evenodd;clip-rule:evenodd;fill:#FFFFFF;}
	.st1{fill:#FD0023;}
	.st2{fill:#00006C;}
</style>
<rect x="-0.4" y="-0.5" class="st0" width="801.5" height="801.5"/>
<g>
	<g>
		<rect x="202.9" y="385.2" class="st1" width="27.6" height="27.6"/>
		<rect x="175.6" y="358" class="st1" width="27.6" height="27.6"/>
		<rect x="148.1" y="330.4" class="st1" width="27.6" height="27.6"/>
		<rect x="175.6" y="412.8" class="st1" width="27.6" height="27.6"/>
		<rect x="148.1" y="440" class="st1" width="27.6" height="27.6"/>
		<rect x="148.1" y="385.2" class="st1" width="27.6" height="27.6"/>
	</g>
	<g>
		<g>
			<g>
				<polygon class="st2" points="275.7,357.3 306.8,393 319.6,393 319.6,331.4 304.4,331.4 304.4,368.2 273.2,331.4 260.5,331.4 
					260.5,393 275.7,393 				"/>
				<path class="st2" d="M349.6,394.4c12,0,19.5-6,23-14.5l-13.1-2.8c-2.1,3.5-5.3,5.3-9.9,5.3c-5.3,0-8.8-4.2-9.9-8.8h34v-3.9
					c0-3.5-0.7-7.1-2.1-9.9c-3.2-8.1-10.6-14.5-21.9-14.5c-3.2,0-6.4,0.7-9.5,1.8c-8.5,3.5-15.2,11-15.2,22.6
					c0,7.8,3.2,13.8,7.1,17.7C336.6,391.6,342.6,394.4,349.6,394.4z M350,357.6c5,0,8.1,3.2,9.2,7.4h-19.1
					C341.1,360.8,345,357.6,350,357.6z"/>
				<path class="st2" d="M391,393l8.8-13.4l8.8,13.4h17l-15.2-22.3l7.8-12h13.1V376c0,11.7,6.7,18.4,18.4,18.4
					c4.2,0,8.5-1.1,12.7-3.5l-3.5-11.7c-1.4,0.7-4.6,1.8-6.7,1.8c-4.2,0-6-2.1-6-6.7v-15.9H460V347h-13.8v-13.8H431V347h-22.3
					l-8.8,14.1l-8.8-14.5h-17l15.2,24L374,393H391z"/>
				<path class="st2" d="M485.4,383.4c-2.8,0-5.7-0.7-6.7-2.5h-15.9c1.8,9.5,10.3,13.4,21.6,13.4c11,0,20.9-4.6,20.9-15.6
					c0-7.8-5.7-12.4-12.7-13.8l-11-2.1c-2.5-0.4-3.5-1.4-3.5-3.2c0-2.5,2.5-3.5,5.3-3.5c2.8,0,5,1.1,6.4,2.8h14.9
					c-1.8-8.5-10.3-13.1-20.9-13.1s-19.8,5.7-19.8,15.6c0,8.1,6,12,13.4,13.4l9.5,1.8c3.2,0.7,4.6,1.8,4.6,3.5
					C491.4,382.4,488.3,383.4,485.4,383.4z"/>
				<path class="st2" d="M542.4,379.5c-1.4,0.7-4.6,1.8-6.7,1.8c-4.2,0-6-2.1-6-6.7v-15.9h13.8V347h-13.8v-13.8h-14.9V347h-8.5v11.7
					h8.5V376c0,11.7,6.7,18.4,18.4,18.4c4.2,0,8.5-1.1,12.7-3.5L542.4,379.5z"/>
				<path class="st2" d="M571,345.6c-7.8,0-13.8,2.8-18,6.7c-4.2,3.9-7.4,9.9-7.4,17.7c0,8.1,3.9,14.9,8.8,18.7
					c4.6,3.5,9.9,5.7,16.6,5.7c3.5,0,6.7-0.7,9.5-1.8c8.5-3.2,15.6-11,15.6-22.6c0-3.5-0.7-7.1-2.1-10.3
					C590.8,351.6,582,345.6,571,345.6z M571,382c-6.4,0-11.3-5.3-11.3-12s5-12,11.3-12s11,5.7,11,12C582.3,376.7,577.4,382,571,382z
					"/>
				<path class="st2" d="M647.4,354.4c-3.9-5-9.2-8.8-17.7-8.8c-5.7,0-10.6,1.8-14.5,5V347h-14.5v61.9h14.9v-19.5
					c3.9,3.5,8.5,5,14.5,5c6.7,0,12.4-2.8,15.9-6.7c3.9-3.9,6.7-10.3,6.7-17.7C652.4,364,650.2,358,647.4,354.4z M626.5,382
					c-6.4,0-11.3-5.3-11.3-12c0-6.4,5-12,11.3-12c6.7,0,11,5.3,11,12C637.9,376.7,633.3,382,626.5,382z"/>
				<path class="st1" d="M289.9,455.6c-2.5,0-4.6-0.4-6.7-1.4c-6-2.5-10.6-8.5-10.6-17c0-2.5,0.4-5,1.4-7.1c2.5-6,7.8-11,16.3-11
					c6,0,10.6,2.5,13.1,6.4c0.7,1.1,1.4,2.5,1.8,3.5h16.3c-1.4-7.1-5-13.1-11-17.3c-5.7-4.2-12.4-6.4-20.2-6.4
					c-9.9,0-18,4.2-23.3,9.5c-5.3,5.3-9.5,13.1-9.5,23c0,9.9,4.2,17.7,9.5,23c5.3,5.3,13.4,9.2,23.3,9.2c3.9,0,7.4-0.7,11-1.8
					c10.6-3.2,18-11.3,20.2-23h-15.9C303,451,297.6,455.6,289.9,455.6z"/>
				<path class="st1" d="M342.6,430.5v-8.8h-14.9V468h14.9v-14.5c0-11.7,5.3-17.3,15.9-17.3h2.8l0.7-14.9c-1.1-0.4-2.1-0.4-3.2-0.4
					C350.7,420.9,345.4,425.5,342.6,430.5z"/>
				<path class="st1" d="M388.2,420.6c-7.8,0-13.8,2.8-18,6.7c-4.2,3.9-7.4,9.9-7.4,17.7c0,8.1,3.9,14.9,8.8,18.7
					c4.6,3.5,9.9,5.7,16.6,5.7c3.5,0,6.7-0.7,9.5-1.8c8.5-3.2,15.6-11,15.6-22.6c0-3.5-0.7-7.1-2.1-10.3
					C407.6,426.6,399.1,420.6,388.2,420.6z M388.2,456.6c-6.4,0-11.3-5.3-11.3-12s5-12,11.3-12c6.4,0,11,5.7,11,12
					C399.5,451.3,394.5,456.6,388.2,456.6z"/>
				<path class="st1" d="M500.3,456.3c-4.2,0-6-2.1-6-6.7v-15.9h13.8V422h-13.8v-13.8h-14.9V422h-8.5v11.7h8.5V451
					c0,11.7,6.7,18.4,18.4,18.4c4.2,0,8.5-1.1,12.7-3.5l-3.5-11.7C505.6,455.2,502.4,456.3,500.3,456.3z"/>
				<path class="st1" d="M522.2,399.7c-4.6,0-8.5,3.9-8.5,8.5c0,5,3.9,8.1,8.5,8.1c5,0,8.5-3.5,8.5-8.1
					C530.7,403.2,526.8,399.7,522.2,399.7z"/>
				<rect x="514.8" y="421.6" class="st1" width="14.9" height="46.3"/>
				<path class="st1" d="M453.6,423.7c-3.5-2.1-7.8-3.2-12.4-3.2c-7.1,0-13.1,2.8-17,6.7c-3.9,3.9-7.1,9.9-7.1,17.7
					c0,8.1,3.5,14.9,8.5,18.7c4.2,3.5,9.2,5.7,15.9,5.7c3.2,0,6.4-0.7,9.2-1.8c1.1-0.4,2.1-1.1,3.2-1.8v2.8h14.1v-47H454v2.1H453.6z
					 M443.7,456.6c-7.1,0-12.4-5.3-12.4-12s5.3-12,12.4-12c4.2,0,7.8,2.1,9.9,5.3V451C451.5,454.5,448,456.6,443.7,456.6z"/>
				<path class="st1" d="M572.1,423.7c-3.5-2.1-7.8-3.2-12.4-3.2c-7.1,0-13.1,2.8-17,6.7c-3.9,3.9-7.1,9.9-7.1,17.7
					c0,8.1,3.5,14.9,8.5,18.7c4.2,3.5,9.2,5.7,15.9,5.7c3.2,0,6.4-0.7,9.2-1.8c1.1-0.4,2.1-1.1,3.2-1.8v2.8h14.1v-47h-14.1v2.1
					H572.1z M562.2,456.6c-7.1,0-12.4-5.3-12.4-12s5.3-12,12.4-12c4.2,0,7.8,2.1,9.9,5.3V451C570,454.5,566.4,456.6,562.2,456.6z"/>
			</g>
		</g>
	</g>
</g>
</svg>
