<?xml version="1.0" encoding="utf-8"?>
<!-- Generator: Adobe Illustrator 24.2.1, SVG Export Plug-In . SVG Version: 6.00 Build 0)  -->
<svg version="1.1" id="Layer_1" xmlns="http://www.w3.org/2000/svg" xmlns:xlink="http://www.w3.org/1999/xlink" x="0px" y="0px"
	 viewBox="0 0 800 800" style="enable-background:new 0 0 800 800;" xml:space="preserve">
<style type="text/css">
	.st0{fill-rule:evenodd;clip-rule:evenodd;fill:#FFFFFF;}
	.st1{fill:#E61F25;}
	.st2{fill:#361047;}
	.st3{fill:#FBE172;}
	.st4{fill:#FAE072;}
	.st5{fill:#EDE1B9;}
	.st6{fill:#8C6F56;}
	.st7{fill:#E32227;}
	.st8{fill:#FFFFFF;}
	.st9{fill:#361347;}
	.st10{fill:#EBC31D;}
	.st11{fill:#F7D842;}
	.st12{fill:#CDA92C;}
	.st13{fill:#3ABCBA;}
	.st14{fill:#27A8A1;}
	.st15{fill:none;}
	.st16{fill:#D2C39E;}
</style>
<rect x="-0.4" y="-0.5" class="st0" width="801.5" height="801.5"/>
<g>
	<g id="XMLID_161_">
		<g id="XMLID_159_">
			<g>
				<path id="XMLID_43_" class="st1" d="M286.6,526v2.6c0,1.9,0,3.4,0,5.2c0,1.1-0.4,1.9-0.4,2.6s-0.4,1.9-1.1,2.6
					c-0.4,0.4-0.7,0.7-1.1,1.1c0,0-0.4,0.4-0.7,0.4l-0.7,0.4c-0.4,0.4-0.7,0.4-1.5,0.4c-0.4,0-1.1,0.4-1.5,0.4
					c-1.1,0-1.9,0.4-2.6,0.4H275c0,0.4,0,0.7,0,1.1c0,1.1,0,1.9,0,3s0,1.9,0,3l0.4,9.4v1.5v1.5c0,1.1,0,2.2,0,3
					c0,0.7-0.4,1.1-1.1,1.1c-0.7,0-1.1-0.4-1.1-1.1l0,0c0-1.1,0-1.9,0-3v-1.5v-1.5v-6.4V550c0-1.1,0-2.2,0-3c0-1.1,0-2.2,0-3
					c0-1.1,0-2.2,0-3v-3.4c0-1.1,0-1.9,0-3v-3.4c0-1.1,0-2.2,0-3c0-1.1,0-2.2,0-3c0-1.1,0-2.2,0-3c0-1.1,0-2.2,0-3v-3l0,0
					c0-0.4,0.4-1.1,0.7-1.1l0,0l0,0h0.4h0.4c0.4,0,0.4,0,0.7,0s1.1,0,1.5,0c0.7,0,1.9,0.4,2.6,0.7c0.4,0,0.7,0.4,1.1,0.7
					c0.4,0.4,0.7,0.4,1.1,0.7s0.7,0.7,1.1,1.1c0.4,0.4,0.7,0.7,1.1,1.1s0.4,0.7,0.7,1.1c0.4,0.4,0.4,0.7,0.7,1.1
					c0.4,0.7,0.7,1.9,0.7,2.6C286.3,524.5,286.6,525.3,286.6,526z M285.1,526.4c0-0.7,0-1.5-0.4-2.6c0-0.4,0-0.7-0.4-1.1
					c0,0,0-0.4,0-0.7l-0.4-0.4c-0.4-0.7-0.7-1.5-1.1-2.2c-0.4-0.7-1.1-1.1-1.5-1.5c-0.4-0.4-0.7-0.4-1.1-0.7l-1.1-0.4
					c-0.7,0-1.5-0.4-2.2-0.4h-1.1c0,0,0,0-0.4,0c0,0.7,0,1.5,0,2.2c0,1.1,0,1.9,0,3c0,1.1,0,1.9,0,3c0,1.1,0,2.2,0,3
					c0,1.1,0,2.2,0,3v3c0,1.1,0,2.2,0,3v3c0.7,0,1.5,0,1.9,0c0.7,0,1.5,0,2.2,0s1.5-0.4,2.2-0.7s1.1-0.7,1.5-1.5
					c0.4-0.7,0.7-1.5,0.7-2.2c0.4-0.7,0.4-1.5,0.4-2.6c0-1.5,0.4-3.4,0.4-5.2v-0.7H285.1z"/>
				<path class="st1" d="M274.3,568c-0.4,0-1.1-0.4-1.5-0.4c-0.4-0.4-0.7-1.1-0.7-1.5l0,0c0-0.4,0-1.1,0-1.5s0-1.1,0-1.5v-1.5v-1.5
					v-6.4v-3c0-0.4,0-0.7,0-1.1c0-0.7,0-1.5,0-1.9c0-1.1,0-2.2,0-3s0-1.1,0-1.5s0-1.1,0-1.5v-3.4c0-1.1,0-1.9,0-3v-4.1
					c0-0.4,0-1.1,0-1.5s0-1.1,0-1.5s0-1.1,0-1.5s0-1.1,0-1.5c0-1.1,0-1.9,0-3c0-1.1,0-2.2,0-3v-3.4c0-1.1,0.7-1.9,1.5-1.9l0,0h1.5
					c0.4,0,1.1,0,1.5,0c1.1,0,1.9,0.4,3,0.7c0.4,0,0.7,0.4,1.5,0.7c0.4,0.4,1.1,0.4,1.5,0.7c0.4,0.4,0.7,0.7,1.1,1.1
					c0.4,0.4,0.7,0.7,1.1,1.1c0.4,0.7,0.7,1.1,0.7,1.5s0.4,0.7,0.7,1.5s0.7,1.9,0.7,2.6s0.4,1.9,0.4,2.6v0.4v2.6c0,1.9,0,3.4,0,5.2
					c0,0.4,0,0.7,0,0.7c0,0.7,0,1.1-0.4,1.9c0,1.1-0.4,1.9-1.1,3c-0.4,0.4-0.7,0.7-1.1,1.5c0,0-0.4,0.4-0.7,0.7l-0.7-0.4
					c-0.4,0.4-1.1,0.4-1.5,0.7c-0.4,0-1.1,0.4-1.5,0.4c-1.1,0-1.9,0.4-2.6,0.4h-1.1c0,0,0,0,0,0.4s0,1.1,0,1.5s0,1.1,0,1.5
					s0,1.1,0,1.5s0,1.1,0,1.5l0.4,12.3c0,0.4,0,1.1,0,1.5s0,1.1,0,1.5c0,0.7,0,1.1-0.4,1.5C275.8,567.6,275,568,274.3,568
					C274.6,568,274.3,568,274.3,568z M274.3,554.1v5.2v1.5v1.5c0,0.4,0,1.1,0,1.5s0,1.1,0,1.5l0,0l0,0c0,0,0,0,0.4,0h0.4
					c0,0,0,0,0-0.4s0-1.1,0-1.5s0-1.1,0-1.5v-1.5V559L274.3,554.1z M274.3,527.9L274.3,527.9c0,0.7,0,1.5,0,1.9s0,1.1,0,1.5v3
					c0,1.1,0,2.2,0,3v3.4c0,0.4,0,1.1,0,1.5s0,0.7,0,1.1l0,0v-0.4v-0.7h3c0.7,0,1.5,0,2.6-0.4l0,0c0.4,0,0.7,0,0.7-0.4
					c-0.4,0-0.7,0-1.1,0c-0.7,0-1.9,0-2.6,0c-0.4,0-0.7,0-1.1,0s-0.7,0-1.1,0h-0.7v-10.1c0-0.4,0-1.1,0-1.5
					C274.3,529,274.3,528.7,274.3,527.9L274.3,527.9z M282.5,540.6c-0.4,0-0.7,0.4-1.1,0.4C281.8,541,282.1,541,282.5,540.6
					L282.5,540.6L282.5,540.6z M276.1,539.5C276.1,539.5,276.5,539.5,276.1,539.5c1.1,0,2.2,0,3.4,0l0,0c0.7,0,1.5-0.4,1.9-0.4l0,0
					c0.4,0,0.7-0.4,1.1-1.1c0.4-0.4,0.7-1.1,0.7-1.9c0-0.4,0.4-1.1,0.4-1.5s0-0.7,0-0.7c0-1.5,0.4-3,0.4-4.9v-0.4V526
					c0-0.4,0-0.4,0-0.7s0-1.1,0-1.5s0-0.7-0.4-1.1l0,0l0,0c0,0,0,0,0-0.4l-0.4-0.4c-0.4-0.7-0.7-1.5-1.1-1.9s-0.7-1.1-1.5-1.5
					c-0.4-0.4-0.7-0.4-0.7-0.4l-1.1-0.4c-0.7,0-1.5-0.4-2.2-0.4h-0.4c0,0.4,0,0.7,0,1.5c0,0.7,0,1.9,0,3v0.4c0,0.4,0,0.7,0,1.1
					c0,0.7,0,1.5,0,1.9c0,1.1,0,2.2,0,3s0,1.1,0,1.5s0,1.1,0,1.5L276.1,539.5L276.1,539.5z M274.3,515.6L274.3,515.6v3.4
					c0,1.1,0,1.9,0,3v0.4v-0.4v-0.4c0-1.1,0-1.9,0-3c0-0.4,0-1.1,0-1.5s0-0.4,0-0.7V515.6h1.1h0.4h1.1c0.4,0,0.7,0,1.1,0
					c-0.4,0-0.7,0-1.1-0.4c-0.4,0-0.7,0-1.5,0h-0.7l0,0h-0.4V515.6z"/>
			</g>
			<g>
				<path id="XMLID_40_" class="st1" d="M309.8,549.2c0,1.1,0,2.6,0,3.7v3.4c0,1.1,0,1.9,0,3c0,0.7,0,1.5,0,2.2c0,1.5,0,2.6,0,3.4
					v1.1c0,0.4-0.4,1.1-1.1,1.1c-0.7,0-1.1-0.4-1.1-1.1c0,0,0-0.4,0-1.1s0-1.9,0-3.4c0-0.7,0-1.5,0-2.2s0-1.9,0-3V553
					c0-1.1,0-2.2,0-3.7c0-1.1,0-2.6,0-3.7v-1.9c0-0.4,0-1.1,0-1.5c-0.4,0-0.4,0-0.4,0l0,0c0,0,0,0-0.4,0h-0.4c-0.4,0-0.4,0-0.7,0
					h-0.4H305h-1.1c-0.4,0-0.7,0-1.1,0h-0.4H302c-0.7,0-1.1,0-1.9,0h-0.7H299h-0.4c-0.4,0-0.4,0-0.7,0h-0.4c0,0.4,0,0.7,0,1.1
					c0,0.7,0,1.5,0,1.9c0,0.7,0,1.1,0,1.9v1.9c0,2.6,0,4.9,0,6.7l0.4,5.2c0,1.5,0.4,2.6,0.4,3.4v1.1c0,0.7-0.4,1.1-1.1,1.5
					c-0.7,0-1.1-0.4-1.5-1.1l0,0c0,0,0-0.4,0-1.1v-3.4c0-1.5,0-3.4,0-5.2s0-4.1,0-6.7c0-0.7,0-1.1,0-1.9v-1.9c0-0.7,0-1.1,0-1.9
					s0-1.5,0-2.2c0-1.5,0-3,0-4.5c0-1.5,0.4-3,0.4-4.5s0.4-3,0.7-4.9c0-0.7,0.4-1.5,0.4-2.2s0.4-1.5,0.4-2.2c0-0.4,0.4-0.7,0.4-1.1
					l0.4-1.9c0-0.4,0.4-0.7,0.4-1.1l0.4-1.1c0.4-0.7,0.7-1.5,1.5-2.2c0.4-0.4,0.7-0.7,1.1-1.1c0.4,0,0.4-0.4,0.7-0.4h0.4h0.4h0.4
					c0.4,0,1.1,0,1.5,0.4s1.1,0.7,1.1,1.1c0.4,0.4,0.7,0.7,0.7,1.1c0.4,0.4,0.4,0.7,0.7,1.1c0.7,1.5,0.7,3.4,1.1,4.9
					c0.4,3.4,0.4,6.4,0.7,9.7c0,3,0,6.4,0,9c0,1.5,0,2.6,0,4.1C309.8,546.6,309.8,548.1,309.8,549.2z M308,539.5c0-0.7,0-1.5,0-2.6
					v-2.2c0-0.7,0-1.5,0-2.2c0-1.5,0-3-0.4-4.9c0-0.7,0-1.5,0-2.2c0-0.4,0-0.7,0-1.1l-0.4-1.1c0-0.7-0.4-1.5-0.4-2.2
					s-0.4-1.5-0.7-2.2s-0.7-1.1-1.1-1.9c-0.4-0.4-0.4-0.4-0.7-0.4s-0.4,0-0.7,0l0,0l0,0l0,0h-0.4c-0.4,0-0.4,0.4-0.7,0.4
					c-0.4,0.4-0.7,1.1-1.1,1.9c-0.4,0.7-0.7,1.5-1.1,2.2c0,0.4-0.4,0.7-0.4,1.1s0,0.7-0.4,1.1l-0.4,2.2c0,0.7-0.4,1.5-0.4,2.2
					l-0.4,4.5c-0.4,2.6-0.4,4.9-0.7,7.1h0.4c0.4,0,0.4,0,0.7,0h0.4h0.4h0.7c0.7,0,1.1,0,1.9,0h0.4c0.4,0,0.4,0,0.4,0h1.1
					c0.4,0,0.7,0,1.1,0h0.7c0.4,0,0.4,0,0.7,0h0.4h0.4l0,0L308,539.5L308,539.5z"/>
				<path class="st1" d="M296.7,568L296.7,568c-1.1,0-2.2-0.7-2.2-1.9v-0.4V556c0-1.1,0-1.9,0-3c0-1.1,0-2.2,0-3.7l0,0
					c0-0.7,0-1.1,0-1.9v-4.1c0-0.7,0-1.5,0-2.2c0-1.5,0-2.6,0-4.1l0,0c0-0.7,0-1.5,0.4-2.2c0-0.7,0-1.5,0-2.2c0-1.5,0.4-3.4,0.7-4.9
					c0-0.7,0.4-1.5,0.4-2.6c0-0.7,0.4-1.5,0.4-2.2c0-0.4,0-0.4,0-0.7v-0.4l0.4-1.1c0-0.4,0.4-0.7,0.4-1.1l0.4-1.5
					c0.4-1.1,1.1-1.9,1.5-2.6c0.4-0.4,0.7-0.7,1.5-1.1c0.4,0,0.7-0.4,1.1-0.4h0.4l0,0h0.4h0.7c0.7,0,1.5,0,1.9,0.4l0,0
					c0.4,0.4,1.1,0.7,1.5,1.1l0,0c0,0,0,0.4,0.4,0.4c0.4,0.4,0.4,0.7,0.7,1.1c0.4,0.4,0.4,0.7,0.7,1.5c0.7,1.9,0.7,3.4,1.1,5.2
					c0.4,2.6,0.4,5.2,0.4,7.5c0,0.7,0,1.5,0,1.9v0.4c0,3,0,6,0,8.6c0,1.5,0,2.6,0,4.1c0,1.1,0,2.6,0,3.7l0,0c0,1.1,0,2.6,0,3.7v6
					c0,0.7,0,1.5,0,2.2c0,1.5,0,2.6,0,3.4v1.1c0,1.1-0.7,1.9-1.9,1.9c-1.1,0-1.9-0.7-1.9-1.9l0,0c0,0,0-0.4,0-1.1s0-1.5,0-2.2v-1.1
					c0-0.7,0-1.5,0-2.2s0-1.9,0-3v-3c0-1.1,0-2.2,0-3.7c0-0.7,0-1.1,0-1.9s0-1.1,0-1.9v-2.6l0,0l0,0l0,0l0,0l0,0l0,0h-0.4h-1.5
					c-0.4,0-0.7,0-1.1,0H302c-0.7,0-1.1,0-1.9,0l0,0h-1.5c0,0,0,0-0.4,0v0.4c0,0.4,0,0.7,0,1.1s0,0.7,0,1.1l0,0c0,0.7,0,1.1,0,1.9
					v1.9c0,2.6,0,4.5,0,6.7l0.4,5.2c0,0.7,0,1.1,0,1.5c0,0.7,0,1.1,0,1.5v1.1C298.6,566.8,297.9,567.6,296.7,568L296.7,568z
					 M296.4,565.7l0.4,0.4l0.4-0.4v-1.1c0-0.4,0-1.1,0-1.5s0-1.1,0-1.9l-0.4-5.2c0-0.7,0-1.5,0-2.2c0,0.7,0,1.5,0,2.2v9.7H296.4z
					 M308.3,565.7L308.3,565.7C308.7,565.7,308.7,565.7,308.3,565.7v-1.1c0-0.7,0-1.9,0-3.4c0-0.7,0-1.5,0-2.6v-1.9
					c0,0.7,0,1.1,0,1.9s0,1.5,0,2.2v1.1c0,1.1,0,1.9,0,2.2C308.3,565.3,308.3,565.7,308.3,565.7z M297.9,525.7
					c0,0.4-0.4,1.1-0.4,1.5c-0.4,1.5-0.4,3-0.7,4.5c0,0.7,0,1.5,0,2.2s0,1.5-0.4,2.2l0,0c0,1.5,0,3,0,4.1c0,0.7,0,1.1,0,1.9v-0.4
					c0-0.4,0-0.4,0-0.7v-0.7h1.1l0,0h0.4h1.5c0.7,0,1.5,0,1.9,0h1.1c0.4,0,0.4,0,0.7,0h0.4h2.2c0.4,0,0.7,0,0.7,0s0.4,0,0.7,0h0.4
					h0.4l0,0h0.7c0-0.4,0-0.4,0-0.7l-1.1,0.4h-0.4h-0.7H305c-0.4,0-0.7,0-1.1,0H302c-0.7,0-1.5,0-1.9,0h-1.5c-0.4,0-0.4,0-0.4,0l0,0
					h-1.1v-1.1c0-2.2,0.4-4.9,0.7-7.1l0.4-4.5c0-0.4,0-0.7,0-1.1C297.9,526,297.9,526,297.9,525.7z M306.8,542.5L306.8,542.5
					L306.8,542.5z M298.6,538.4L298.6,538.4h1.9c0.7,0,1.1,0,1.9,0h2.2c0.4,0,0.4,0,0.7,0h1.5h0.4l0,0l0,0V538c0-0.4,0-0.7,0-1.5
					V532c0-0.4,0-1.1,0-1.5c0-1.1,0-2.2,0-3c0-0.7,0-1.5,0-2.2l0,0c0-0.4,0-0.7,0-1.1l-0.4-1.1c0-0.7-0.4-1.5-0.4-2.2l0,0
					c0-0.7-0.4-1.5-0.7-2.2c-0.4-0.7-0.7-1.1-0.7-1.5l-0.4-0.4c0,0,0,0-0.4,0l0,0h-0.4l0,0l0,0c0,0,0,0-0.4,0.4s-0.7,0.7-1.1,1.5
					c-0.4,0.7-0.7,1.5-0.7,1.9v0.4c0,0.4,0,0.4-0.4,0.7l0,0c0,0.4,0,0.7-0.4,1.1l-0.4,2.2c0,0.4,0,0.7,0,1.1s0,0.7,0,1.1l-0.4,4.5
					C298.6,534.3,298.6,536.5,298.6,538.4z M303.1,514.8L303.1,514.8c0.7,0,1.1,0,1.5,0.4h0.4c0.4,0,0.4,0.4,0.7,0.7
					c0.4,0.4,0.7,1.1,1.1,1.9c0.4,0.7,0.4,1.1,0.7,1.9c0-0.7-0.4-1.1-0.4-1.9c0-0.4-0.4-0.7-0.4-1.1c0-0.4-0.4-0.4-0.4-0.7
					c0,0,0-0.4-0.4-0.4c-0.4-0.4-0.7-0.7-1.1-0.7C304.2,514.8,303.8,514.4,303.1,514.8L303.1,514.8c0-0.4-0.4-0.4-0.4-0.4
					s-0.4,0-0.4,0.4H302c-0.4,0-0.7,0.4-1.1,0.7c-0.4,0.4-0.7,1.1-1.1,2.2l-0.4,1.1c0-0.4,0.4-0.7,0.7-1.1c0.4-0.7,0.7-1.5,1.5-1.9
					c0.4-0.4,0.4-0.4,0.7-0.7C302.3,515.2,302.7,515.2,303.1,514.8L303.1,514.8z"/>
			</g>
			<g>
				<path id="XMLID_38_" class="st1" d="M338.3,515.6l-0.4,6.4v3l-0.4,3l-0.7,12.7L336,553l-0.4,6.4c0,0.4,0,1.1,0,1.5v0.7v0.7
					c0,1.1-0.4,2.2-0.4,3l0,0c0,0.4-0.7,0.7-1.1,0.7c-0.4,0-0.7-0.4-0.7-0.7l-0.4-1.1l-0.4-1.1l-0.4-2.2l-0.4-2.2l0-1.1l-0.4-2.2
					l-0.4-2.2l-0.4-2.2l-0.4-2.2c0-0.7-0.4-1.5-0.4-2.2s0-1.5-0.4-2.2v-1.1c0-0.4,0-0.7,0-1.1c0-0.7-0.4-1.5-0.4-2.2l-0.4-2.2
					l-0.4-1.1v1.1c0,0.7-0.4,1.5-0.4,2.2s-0.4,1.5-0.4,2.2l-0.4,2.2c-0.4,1.5-0.4,3-0.7,4.1l-0.4,2.2c0,0.7,0,1.5-0.4,2.2l-0.7,4.1
					c0,0.7-0.4,1.5-0.4,2.2l-0.4,2.2l-0.4,2.2c0,0.7-0.4,1.5-0.4,2.2s-0.7,1.1-1.1,0.7c-0.4,0-0.7-0.4-0.7-0.7v-3.4v-3V556l-0.4-3
					l-1.9-25.1l-0.4-3.4l-0.4-3l-0.4-6.4c0-0.4,0.4-1.1,0.7-1.1c0.7,0,1.1,0.4,1.1,0.7l0.4,6.4l0.4,3.4v3l0.7,12.7l0.7,12.7l0.4,3.7
					l0.7-3.7c0-0.7,0.4-1.5,0.4-2.2l1.9-10.5l0.4-2.2c0-0.7,0.4-1.5,0.4-2.2l0.4-1.9c0-0.4,0-0.4,0-0.7v-0.4c0-0.4,0.4-0.7,0.4-1.1
					c0-0.4,0.4-0.4,0.7,0l0,0l0,0l0,0l0,0v0.4l0.4,0.4c0,0.4,0,0.4,0,0.4v0.7l0.4,1.9l0.4,2.2l0.4,2.2c0.4,0.7,0.4,1.5,0.4,2.2
					s0.4,1.5,0.4,2.2c0.4,0.7,0.4,1.5,0.4,2.2c0.4,0.7,0.4,1.5,0.4,2.2l0.4,2.2c0,0.7,0.4,1.5,0.4,2.2l0.4,2.2v1.1v-2.6l0.7-12.3
					l0.7-12.7v-3l0.4-3l0.4-6.4c0-0.7,0.4-1.1,1.1-1.1C337.9,514.4,338.3,514.8,338.3,515.6z"/>
				<path class="st1" d="M323.3,567.6h-0.4c-0.7,0-1.5-0.7-1.5-1.5l0,0l-0.4-9.4l-3-40.8c0-1.1,0.7-1.9,1.9-1.9s1.9,0.7,2.2,1.5
					l0.7,12.7l0.7,12.7l0.4,8.2l1.9-10.9c0-0.7,0.4-1.5,0.4-2.2l0.4-1.9v-0.4l0,0v-0.4v-0.4v-0.4v-0.4c0-0.4,0-0.4,0.4-0.7
					c0-0.4,0.4-0.4,0.7-0.7c0.4,0,0.7,0,1.1,0c0,0,0.4,0,0.4,0.4l0.4,0.4v0.7l0.4,0.7v0.4l0,0l0,0v0.7l0.4,1.9l0.7,4.1
					c0,0.4,0.4,1.1,0.4,1.9v0.4c0,0.4,0,0.7,0.4,1.1c0,0.4,0,0.7,0.4,1.1c0.4,0.7,0.4,1.5,0.4,2.2c0,0.4,0.4,0.7,0.4,1.1l0.4-6.7
					l1.5-25.1c0-0.4,0.4-1.1,0.7-1.5c0.4-0.4,0.7-0.4,1.5-0.4c0.4,0,1.1,0.4,1.5,0.7c0.4,0.4,0.4,0.7,0.4,1.5l-0.4,6.4v3l-0.4,3
					l-0.7,12.7l-1.1,18.7c0,0.4,0,1.1,0,1.5v1.5c0,1.1-0.4,2.2-0.4,3v0.4c-0.4,1.1-1.1,1.5-2.2,1.5c-0.7,0-1.5-0.7-1.5-1.5l-0.4-2.2
					l-0.4-2.2l-1.9-8.6l-0.4-2.2l-0.4-2.2c0-0.7-0.4-1.1-0.4-1.9c0-0.4,0-0.7,0-1.1s0-0.7,0-1.1l0,0V544c0-0.4,0-0.4,0-0.7l0,0
					l-0.4,1.9c-0.4,1.1-0.4,2.6-0.7,4.1l-0.4,2.2c0,0.7,0,1.5-0.4,2.2l-0.7,4.1c0,0.4,0,0.7-0.4,1.1c0,0.4,0,0.7,0,1.1l-0.4,1.9
					l-0.4,2.2c0,0.4,0,0.7-0.4,1.1c0,0.4,0,0.7,0,1.1s-0.4,1.1-0.7,1.1C324,567.2,323.7,567.6,323.3,567.6z M322.9,565.7
					L322.9,565.7L322.9,565.7c0.4-0.4,0.4-0.7,0.4-1.1c0-0.4,0-0.7,0.4-1.1l0.4-2.2l0.4-2.2c0-0.4,0-0.7,0-1.1c0-0.4,0-0.7,0.4-1.1
					l0.7-4.1c0-0.7,0.4-1.5,0.4-1.9l0.4-2.2c0-1.5,0.4-3,0.7-4.1v-1.5l-1.5,7.5c0,0.4,0,0.7-0.4,1.1c0,0.4,0,0.7,0,1.1l-1.9,12
					l-0.4-6L322.9,565.7z M334.5,564.6v0.7c0-1.1,0.4-1.9,0.4-3v-1.5c0-0.4,0-1.1,0-1.5l0.4-6L336,541l0.7-12.7l0.4-3v-3l0.4-6.4
					l0,0l0,0l-0.7,9.4v3L336,541L334.5,564.6z M330.4,544.4c0,0.4,0,0.7,0,1.1s0,0.7,0,1.1c0,0.7,0,1.1,0.4,1.9l0.4,2.2l0.4,2.2
					l1.9,8.2l0.4,1.9l-1.5-10.5c0-0.7,0-1.1-0.4-1.9v-0.4l-0.4-2.2c0-0.4,0-0.4,0-0.7s0-0.7-0.4-1.1l0,0
					C331.2,545.9,331.2,545.1,330.4,544.4L330.4,544.4c0.4-0.4,0-0.7,0-1.1s-0.4-0.7-0.4-1.1v-0.4c0,0,0,0,0-0.4c0,0.4,0,0.4,0,0.7
					v0.4v0.4l0,0L330.4,544.4z M319.9,515.2L319.9,515.2l0.7,10.5v-1.1l-0.4-3L319.9,515.2L319.9,515.2z M319.6,515.2L319.6,515.2
					L319.6,515.2z"/>
			</g>
			<g>
				<path id="XMLID_35_" class="st1" d="M355.1,514.1L355.1,514.1c0.7,0,1.1,0,1.5,0s1.1,0.4,1.9,0.7c0.4,0,0.7,0.4,1.1,0.7
					c0.4,0.4,0.7,0.7,0.7,1.1c0.4,0.7,0.7,1.9,1.1,2.6c0.4,1.1,0.4,1.9,0.4,3c0,1.1,0,2.2,0,3.4s0,2.6,0,3.7v4.1c0,1.5,0,3,0,4.5
					v2.2c0,0.7,0,1.5,0,2.2v4.9c0,0.7,0,1.5,0,2.6v1.1c0,0.4,0,0.7,0,1.1c0,0.7,0,1.9,0,2.6s-0.4,1.9-0.4,2.6s-0.4,1.9-0.4,2.6
					c-0.4,0.7-0.4,1.9-1.1,2.6c-0.4,0.4-0.4,0.7-1.1,1.1c-0.4,0.4-0.7,0.7-1.1,1.1c-1.1,0.4-2.2,0.7-3,0.7c-0.4,0-1.1,0-1.5,0
					s-1.1-0.4-1.5-0.4s-0.4-0.4-0.7-0.4s-0.4-0.4-0.7-0.4c-0.4-0.4-0.7-1.1-1.1-1.5c-0.4-0.4-0.4-1.1-0.4-1.5s-0.4-0.7-0.4-1.5
					s-0.4-1.9-0.4-2.6c0-1.9,0-3.4,0-5.2c0-1.5,0-3.4,0-4.9c0-3.4,0-6.4,0-9.7c0-3,0-6,0-8.6s0-5.2,0.4-7.5c0-1.1,0.4-2.2,0.4-3
					c0.4-1.1,0.7-1.9,1.1-2.6c0.4-0.4,0.7-0.7,0.7-1.1c0.4-0.4,0.7-0.7,1.1-0.7c0.7-0.4,1.5-0.4,1.9-0.7
					C354,514.4,354.4,514.1,355.1,514.1L355.1,514.1z M355.1,516.7L355.1,516.7c-0.4,0-0.7,0-1.1,0c-0.4,0-0.7,0-1.1,0.4
					c-0.4,0.4-0.7,0.4-1.1,1.1c-0.4,0.4-0.7,1.1-0.7,1.9c-0.4,0.7-0.4,1.9-0.4,2.6c-0.4,1.9-0.4,4.5-0.4,7.1c0,2.6,0,5.6,0,8.6
					s0,6.4,0,9.7v4.9c0,1.5,0,3.4,0.4,5.2c0,0.7,0.4,1.5,0.4,2.6c0,0.7,0.4,1.5,0.7,2.2c0.4,0.4,0.4,0.7,0.7,0.7c0,0,0.4,0,0.4,0.4
					c0,0,0.4,0,0.4,0.4c0.7,0.4,1.5,0.4,2.2,0.4l0,0l0,0l0,0h0.4c0.4,0,0.4,0,0.7,0s0.7,0,1.1-0.4c0.4,0,0.7-0.4,0.7-0.4l0.4-0.4
					l0.4-0.4c0.4-0.7,0.7-1.5,0.7-2.2c0.4-0.7,0.4-1.5,0.4-2.6c0.4-1.5,0.4-3.4,0.4-5.2c0-0.7,0-1.5,0-2.6v-2.6c0-1.5,0-3.4,0-4.9
					V541c0-0.7,0-1.5,0-2.2c0-1.5,0-3,0-4.5v-4.1c0-1.1,0-2.6,0-3.7c0-1.1,0-2.2-0.4-3.4c0-1.1-0.4-1.9-0.4-3
					c-0.4-0.7-0.4-1.5-0.7-1.9s-0.7-0.7-1.1-1.1c-0.4,0-0.7-0.4-1.1-0.4C355.9,516.7,355.5,516.7,355.1,516.7L355.1,516.7z"/>
				<path class="st1" d="M354.4,567.6L354.4,567.6c-0.4,0-0.7,0-0.7,0c-0.4,0-0.4,0-0.7,0l0,0h-0.4c-0.4,0-0.7-0.4-1.1-0.4
					c-0.4,0-0.7-0.4-0.7-0.4c-0.4-0.4-0.7-0.4-0.7-0.7c-0.4-0.4-0.7-1.1-1.1-1.5c-0.4-0.4-0.4-1.1-0.7-1.5c0-0.4-0.4-1.1-0.4-1.5
					c0-0.7-0.4-1.9-0.4-2.6l0,0c0-1.9,0-3.4,0-5.2c0-1.5,0-3.4,0-4.9c0-3.4,0-6.4,0-9.7c0-3,0-6,0-8.6c0-2.2,0-4.9,0.4-7.5
					c0-1.1,0.4-2.2,0.4-3.4c0.4-1.1,0.7-2.2,1.1-3c0.4-0.4,0.7-0.7,1.1-1.1l0,0c0.4-0.4,0.7-0.7,1.1-0.7c0.7-0.4,1.5-0.4,2.2-0.7
					h0.4c0.4,0,0.7,0,0.7,0h0.7c0.4,0,0.7,0,1.1,0c0.7,0,1.5,0.4,2.2,0.7c0.4,0,0.7,0.4,1.1,0.7l0,0c0.4,0.4,0.4,0.4,0.7,0.7
					c0,0,0,0.4,0.4,0.4l0,0c0.4,0.7,0.7,1.9,1.1,3c0.4,1.1,0.4,2.2,0.4,3.4c0,1.1,0,2.2,0,3.4v7.9c0,1.5,0,2.6,0,4.1v0.4v2.2
					c0,0.7,0,1.5,0,2.2v4.9c0,0.7,0,1.9,0,2.6v1.1c0,0.4,0,0.7,0,1.5s0,1.9,0,2.6c0,0.4,0,0.7,0,1.5c0,0.4,0,0.7,0,1.1v0.4
					c0,0.7-0.4,1.5-0.4,2.6l0,0c-0.4,0.7-0.4,1.9-1.1,3c-0.4,0.4-0.7,1.1-1.1,1.5c-0.4,0.4-1.1,0.7-1.5,1.1
					C357,567.6,355.9,567.6,354.4,567.6L354.4,567.6z M353.2,565.7c0.4,0,0.4,0,0.7,0s0.4,0,0.7,0c0.7,0,1.9-0.4,2.6-0.7
					c0.4,0,0.7-0.4,1.1-0.7s0.7-0.7,0.7-1.1c0.4-0.7,0.7-1.5,0.7-2.2l0,0l0,0l0,0c-0.4,0.7-0.4,1.9-1.1,2.2c0,0,0,0.4-0.4,0.4
					c0,0.4-0.4,0.4-0.4,0.4c-0.4,0.4-0.7,0.4-1.1,0.7c-0.4,0.4-0.7,0.4-1.5,0.4l0,0h-0.4h-0.7c-1.1,0-1.9,0-2.6-0.4l0,0
					c0,0-0.4,0-0.4-0.4c0,0-0.4,0-0.4-0.4c-0.4-0.4-0.4-0.4-0.7-0.7c0,0,0,0,0-0.4l0,0c-0.4-0.7-0.7-1.5-0.7-2.6c0-0.4,0-0.4,0-0.7
					c0,0.4,0,0.4,0,0.7s0,0.7,0.4,1.1c0,0.7,0.4,1.1,0.4,1.5s0.4,0.7,0.7,1.1l0.4,0.4l0,0l0,0c0,0,0.4,0,0.4,0.4h0.4
					C352.1,565.3,352.5,565.3,353.2,565.7C352.9,565.7,353.2,565.7,353.2,565.7z M352.9,563.1c0.4,0,0.7,0.4,1.9,0.4h0.7l0,0h0.4
					h0.4c0.4,0,0.4-0.4,0.4-0.4l0,0l0,0l0,0c0,0,0,0,0-0.4l0,0c0.4-0.4,0.4-1.1,0.7-1.9s0.4-1.5,0.4-2.2c0.4-1.5,0.4-3.4,0.4-4.9
					c0-0.7,0-1.5,0-2.6v-2.6c0-1.9,0-3.4,0-4.9v-2.2c0-0.7,0-1.5,0-2.2l0,0c0-1.5,0-3,0-4.1v-4.1c0-0.7,0-1.1,0-1.9s0-1.1,0-1.9
					c0-1.1,0-2.2-0.4-3.4c0-1.1-0.4-1.9-0.4-2.6s-0.4-1.1-0.7-1.9c-0.4-0.4-0.4-0.4-0.7-0.7c-0.4,0-0.4,0-0.7,0h-0.4
					c0,0-0.4,0-0.7,0h-0.7h-0.4h-0.4c-0.4,0-0.4,0-0.7,0s-0.7,0.4-0.7,0.7c-0.4,0.4-0.7,1.1-0.7,1.9c-0.4,0.7-0.4,1.9-0.4,2.6
					c-0.4,1.9-0.4,4.1-0.4,7.1c0,2.6,0,5.6,0,8.6s0,6.4,0,9.7v5.2c0,1.5,0,3.4,0.4,4.9c0,0.4,0,0.4,0,0.7s0,1.1,0.4,1.5
					c0,0.7,0.4,1.5,0.7,1.9c0,0,0,0,0,0.4l0.4,0.4l0,0C352.5,563.1,352.5,563.1,352.9,563.1L352.9,563.1L352.9,563.1L352.9,563.1z
					 M360.7,536.5c0,0.7,0,1.1,0,1.9l0,0c0,0.7,0,1.5,0,2.2v2.2c0,1.5,0,3.4,0,4.9v2.2c0,0.7,0,1.9,0,2.6c0,1.5,0,3.4-0.4,5.2
					c0,0.7,0,1.1-0.4,1.9c0-0.4,0.4-1.1,0.4-1.5v-0.4c0-0.4,0-0.7,0-1.1c0-0.4,0-0.7,0-1.1c0-0.7,0-1.9,0-2.6l0,0c0-0.4,0-0.7,0-1.1
					v-1.1c0-0.7,0-1.5,0-2.6v-4.9c0-0.7,0-1.5,0-2.2v-2.6C360.7,537.6,360.7,537.3,360.7,536.5z M351.4,516.3
					c-0.4,0.4-0.4,0.4-0.7,0.7c-0.4,0.7-0.7,1.5-1.1,2.6c-0.4,0.7-0.4,1.9-0.4,3c-0.4,2.6-0.4,5.2-0.4,7.1c0,2.2,0,4.1,0,6.4
					c0-2.2,0-4.5,0-6.4c0-3,0.4-5.2,0.4-7.1c0-1.1,0.4-1.9,0.4-3c0.4-1.1,0.7-1.9,1.1-2.2l0,0c0.4-0.4,0.7-0.7,1.5-1.1
					c0.4-0.4,0.7-0.4,1.5-0.4c0.4,0,0.7,0,0.7,0h0.7c0.4,0,0.4,0,0.7,0s1.1,0,1.5,0.4l0,0c0.4,0.4,0.7,0.7,1.1,1.1l0,0
					c0.4,0.7,0.7,1.5,0.7,2.2c0.4,1.1,0.4,2.2,0.4,3c0,1.1,0.4,2.2,0.4,3.4c0,0.7,0,1.1,0,1.9c0,0.4,0,0.4,0,0.7V526
					c0-1.1,0-2.2,0-3.4c0-1.1-0.4-1.9-0.4-3c0-1.1-0.4-1.9-0.7-2.2c0,0,0-0.4-0.4-0.4c0-0.4-0.4-0.4-0.4-0.7
					c-0.4-0.4-0.7-0.4-0.7-0.4c-0.7-0.4-1.1-0.4-1.5-0.4s-0.7,0-1.1,0H354h-0.4h-0.4c-0.4,0-1.1,0.4-1.5,0.4
					C351.7,515.9,351.7,515.9,351.4,516.3z"/>
			</g>
			<g>
				<path id="XMLID_33_" class="st1" d="M385,565.7c0,0.4-0.4,0.7-0.7,0.7s-0.7-0.4-0.7-0.7v-0.4l0,0c-0.4-1.1-0.4-1.9-0.7-3l-0.7-3
					l-0.4-1.5l-0.4-1.5c-0.4-1.1-0.4-1.9-0.7-3l-1.5-6.4c-0.4-1.1-0.4-2.2-0.7-3c-0.4-1.1-0.4-2.2-0.7-3l-0.4-1.5l-0.4-1.5
					c0-1.1-0.4-2.2-0.4-3.4c-0.4-1.1-0.4-2.2-0.7-3l-0.4-1.5l-0.4-1.5l-0.4-1.5l-0.4-1.5v3c0,1.1,0,2.2,0,3v3c0,1.1,0,2.2,0,3v3v6.4
					v6.4v3v9.4c0,0.7-0.4,1.1-1.1,1.1c-0.7,0-1.1-0.4-1.1-1.1v-3v-3v-3v-3.4l0.4-15.7v-3v-3.4v-3v-6.4c0-1.1,0-1.9,0-3v-3
					c0-0.7,0.7-1.1,1.1-1.1s1.1,0.4,1.1,1.1l1.1,6.4l0.7,3.4l0.4,1.5l0.4,1.5l0.4,1.5l0.4,1.5c0.4,1.1,0.4,2.2,0.7,3
					c0.4,1.1,0.4,1.9,0.7,3l0.4,1.5c0,0.4,0.4,1.1,0.4,1.5l0.7,3c0.4,1.1,0.4,2.2,0.7,3l1.1,6.4c0.4,1.1,0.4,2.2,0.7,3v0.4
					l-0.7-41.2c0-0.7,0.4-1.1,1.1-1.1c0.7,0,1.1,0.4,1.1,1.1L385,565.7L385,565.7z"/>
				<path class="st1" d="M372.7,568c-1.1,0-2.2-0.7-2.2-2.2v-3v-3l0.4-22.1v-15.7c0-0.4,0-1.1,0-1.5s0-1.1,0-1.5v-3
					c0-1.1,1.1-2.2,2.2-2.2c1.1,0,1.9,0.7,2.2,1.5l1.5,6.4l1.1,6.4l0.7,3c0,0.7,0.4,1.9,0.7,3c0,0.4,0.4,1.1,0.4,1.5
					c0,0.7,0.4,1.1,0.4,1.9l0.4,1.5c0,0.4,0,0.7,0.4,0.7c0,0.4,0,0.4,0,0.7l0.7,3c0,0.4,0.4,1.1,0.4,1.5s0,0.4,0,0.7l-0.7-29.9
					c0-1.1,0.7-1.9,1.9-1.9c0.4,0,1.1,0,1.5,0.4s0.7,0.7,0.7,1.5l0,0l0.4,50.1c0,1.1-0.7,1.9-1.9,1.9c-0.7,0-1.5-0.7-1.9-1.5v-0.4
					v-0.4c0-0.4,0-0.7,0-0.7c0-0.7-0.4-1.1-0.4-1.9l-1.5-6.4c-0.4-1.1-0.4-1.9-0.7-3l-1.5-6.4c0-0.7-0.4-1.1-0.4-1.9
					c0-0.4-0.4-0.7-0.4-1.5v-0.4c0-0.7-0.4-1.9-0.7-2.6l-0.4-1.9l-0.4-1.5c0-0.4,0-1.1-0.4-1.5c0-0.4,0-1.1-0.4-1.5
					c0-0.4-0.4-1.1-0.4-1.5v-0.4v1.5c0,1.1,0,2.2,0,3v3v6.4v6.4v3v9.4C374.9,567.2,374.2,568,372.7,568z M373.4,515.6L373.4,515.6
					l-0.4,3.4c0,0.7,0,1.1,0,1.5s0,1.1,0,1.5v15.7l-0.4,22.1v3v3c0,0.4,0,0.4,0.4,0.4s0.4-0.4,0.4-0.4v-9.4v-3V547v-9.4
					c0-1.1,0-1.9,0-3v-3c0-0.4,0-1.1,0-1.5s0-1.1,0-1.5l0.4-10.1l2.6,11.6l0.4,1.1c0,0.4,0.4,1.1,0.4,1.5s0,1.1,0.4,1.5
					c0,0.7,0,1.1,0.4,1.5c0,0.4,0,1.1,0.4,1.5l0.4,1.5l0.4,1.5c0.4,0.7,0.4,1.9,0.7,2.6v0.4c0,0.4,0.4,0.7,0.4,1.5
					c0,0.7,0.4,1.1,0.4,1.9l1.5,6c0,0.4,0,0.7,0.4,1.1c0-0.4,0-0.7,0-1.1l-1.1-6.4c0-0.4-0.4-1.1-0.4-1.5s0-1.1-0.4-1.5l-0.7-3
					c0-0.4,0-0.4,0-0.7s0-0.4,0-0.7l-0.4-1.5c0-0.7-0.4-1.1-0.4-1.9c0-0.4-0.4-0.7-0.4-1.5c-0.4-1.1-0.7-2.2-0.7-3l-0.7-3l-1.1-6.4
					L373.4,515.6C373.8,515.6,373.8,515.6,373.4,515.6z M382.8,557.9l0.4,1.5l0.7,3c0,0.7,0.4,1.1,0.4,1.9v0.4v-1.5L382.8,557.9z
					 M383.9,515.6L383.9,515.6C383.5,515.6,383.5,515.6,383.9,515.6l0.4,37.8L383.9,515.6L383.9,515.6z"/>
			</g>
			<g>
				<path id="XMLID_30_" class="st2" d="M429.2,526v2.6c0,1.9,0,3.4,0,5.2c0,1.1-0.4,1.9-0.4,2.6s-0.4,1.9-1.1,2.6
					c-0.4,0.4-0.7,0.7-1.1,1.1c0,0-0.4,0.4-0.7,0.4l-0.7,0.4c-0.4,0.4-0.7,0.4-1.5,0.4c-0.4,0-1.1,0.4-1.5,0.4
					c-1.1,0-1.9,0.4-2.6,0.4H418c0,0.4,0,0.7,0,1.1c0,1.1,0,1.9,0,3s0,1.9,0,3l0.4,9.4v1.5v1.5c0,1.1,0,2.2,0,3
					c0,0.7-0.4,1.1-1.1,1.1c-0.7,0-1.1-0.4-1.1-1.1l0,0c0-1.1,0-1.9,0-3v-1.5v-1.5v-6.4V550c0-1.1,0-2.2,0-3c0-1.1,0-2.2,0-3
					c0-1.1,0-2.2,0-3v-3.4c0-1.1,0-1.9,0-3v-3.4c0-1.1,0-2.2,0-3c0-1.1,0-2.2,0-3c0-1.1,0-2.2,0-3c0-1.1,0-2.2,0-3v-3l0,0
					c0-0.4,0.4-1.1,0.7-1.1l0,0l0,0h0.4h0.4c0.4,0,0.4,0,0.7,0s1.1,0,1.5,0c0.7,0,1.9,0.4,2.6,0.7c0.4,0,0.7,0.4,1.1,0.7
					c0.4,0.4,0.7,0.4,1.1,0.7c0.4,0.4,0.7,0.7,1.1,1.1c0.4,0.4,0.7,0.7,1.1,1.1c0.4,0.4,0.4,0.7,0.7,1.1c0.4,0.4,0.4,0.7,0.7,1.1
					c0.4,0.7,0.7,1.9,0.7,2.6C429.2,524.5,429.2,525.3,429.2,526z M427.7,526.4c0-0.7,0-1.5-0.4-2.6c0-0.4,0-0.7-0.4-1.1
					c0,0,0-0.4,0-0.7l-0.4-0.4c-0.4-0.7-0.7-1.5-1.1-2.2c-0.4-0.7-1.1-1.1-1.5-1.5s-0.7-0.4-1.1-0.7l-1.1-0.4
					c-0.7,0-1.5-0.4-2.2-0.4h-1.1c0,0,0,0-0.4,0c0,0.7,0,1.5,0,2.2c0,1.1,0,1.9,0,3c0,1.1,0,1.9,0,3c0,1.1,0,2.2,0,3
					c0,1.1,0,2.2,0,3v3c0,1.1,0,2.2,0,3v3c0.7,0,1.5,0,1.9,0c0.7,0,1.5,0,2.2,0s1.5-0.4,2.2-0.7s1.1-0.7,1.5-1.5
					c0.4-0.7,0.7-1.5,0.7-2.2c0.4-0.7,0.4-1.5,0.4-2.6c0-1.5,0.4-3.4,0.4-5.2v-0.7H427.7z"/>
				<path class="st2" d="M417.2,568c-0.4,0-1.1-0.4-1.5-0.4c-0.4-0.4-0.7-1.1-0.7-1.5l0,0c0-0.4,0-1.1,0-1.5s0-1.1,0-1.5v-1.5v-1.5
					v-6.4v-3c0-0.4,0-0.7,0-1.1c0-0.7,0-1.5,0-1.9c0-1.1,0-2.2,0-3s0-1.1,0-1.5s0-1.1,0-1.5v-3.4c0-1.1,0-1.9,0-3v-4.1
					c0-0.4,0-1.1,0-1.5s0-1.1,0-1.5s0-1.1,0-1.5s0-1.1,0-1.5c0-1.1,0-1.9,0-3c0-1.1,0-2.2,0-3l0,0v-3c0-1.1,0.7-1.9,1.5-1.9h0.4h1.1
					c0.4,0,1.1,0,1.5,0c1.1,0,1.9,0.4,3,0.7c0.4,0,0.7,0.4,1.5,0.7c0.4,0.4,1.1,0.4,1.5,0.7c0.4,0.4,0.7,0.7,1.1,1.1
					c0.4,0.4,0.7,0.7,1.1,1.1c0.4,0.4,0.7,1.1,0.7,1.5s0.4,0.7,0.7,1.5s0.7,1.9,0.7,2.6s0.4,1.9,0.4,2.6v0.4l0,0v2.6
					c0,1.9,0,3.4,0,5.2c0,0.4,0,0.7,0,0.7c0,0.7,0,1.1-0.4,1.9c0,1.1-0.4,1.9-1.1,3c-0.4,0.4-0.7,0.7-1.1,1.5c0,0-0.4,0.4-0.7,0.7
					l-0.7,0.4l0,0c-0.4,0.4-1.1,0.4-1.5,0.7c-0.4,0-1.1,0.4-1.5,0.4c-1.1,0-1.9,0.4-2.6,0.4h-1.1c0,0,0,0,0,0.4s0,1.1,0,1.5
					s0,1.1,0,1.5s0,1.1,0,1.5s0,1.1,0,1.5l0.4,12.3c0,0.4,0,1.1,0,1.5s0,1.1,0,1.5c0,0.7,0,1.1-0.4,1.5
					C418.3,567.6,418,568,417.2,568L417.2,568z M417.2,554.1v5.2v1.5v1.5c0,0.4,0,1.1,0,1.5s0,1.1,0,1.5l0,0l0,0c0,0,0,0,0.4,0h0.4
					c0,0,0,0,0-0.4s0-1.1,0-1.5s0-1.1,0-1.5v-1.5V559L417.2,554.1z M417.2,527.9L417.2,527.9c0,0.7,0,1.5,0,1.9s0,1.1,0,1.5v3
					c0,1.1,0,2.2,0,3v3.4c0,0.4,0,1.1,0,1.5s0,0.7,0,1.1l0,0v-0.4c0-0.4,0.4-0.7,0.7-0.7h1.9c0.7,0,1.5,0,2.6-0.4l0,0
					c0.4,0,0.7,0,0.7-0.4c-0.4,0-0.7,0-1.1,0c-0.7,0-1.9,0-2.6,0c-0.4,0-0.7,0-1.1,0c-0.4,0-0.7,0-1.1,0c-0.4,0-0.7-0.4-0.7-0.7
					v-9.4c0-0.4,0-1.1,0-1.5C417.2,529,417.2,528.7,417.2,527.9L417.2,527.9z M425.1,540.6c-0.4,0-0.7,0.4-1.1,0.4
					C424.3,541,424.7,541,425.1,540.6L425.1,540.6L425.1,540.6z M419.1,539.5L419.1,539.5c0.4,0,0.7,0,1.1,0c0.7,0,1.5,0,2.2,0l0,0
					c0.7,0,1.5-0.4,1.9-0.4l0,0c0.4,0,0.7-0.4,1.1-1.1c0.4-0.4,0.7-1.1,0.7-1.9c0-0.4,0.4-1.1,0.4-1.5s0-0.7,0-0.7
					c0-1.5,0.4-3.4,0.4-4.9l0,0v-2.6c0-0.4,0-0.4,0-0.7s0-1.1,0-1.5s0-0.7-0.4-1.1v-0.4c0,0,0,0,0-0.4l-0.4-0.4
					c-0.4-0.7-0.7-1.5-1.1-1.9c-0.4-0.4-0.7-1.1-1.5-1.5c-0.4-0.4-0.7-0.4-0.7-0.4l-1.1-0.4c-0.7,0-1.5-0.4-2.2-0.4h-0.4
					c0,0.4,0,0.7,0,1.5c0,0.7,0,1.9,0,3l0,0c0,0.4,0,0.7,0,1.1c0,0.7,0,1.5,0,1.9c0,1.1,0,2.2,0,3s0,1.1,0,1.5s0,1.1,0,1.5V539.5z
					 M416.8,515.6L416.8,515.6v3.4c0,1.1,0,1.9,0,3v0.4v-0.4v-0.4c0-1.1,0-1.9,0-3c0-0.4,0-1.1,0-1.5s0-0.4,0-0.7s0.4-0.7,0.7-0.7
					h0.4h1.1c0.4,0,0.7,0,1.1,0c-0.4,0-0.7,0-1.1-0.4c-0.4,0-0.7,0-1.5,0h-1.1C417.2,515.6,417.2,515.6,416.8,515.6L416.8,515.6z"/>
			</g>
			<g>
				<path id="XMLID_27_" class="st2" d="M452.4,549.2c0,1.1,0,2.6,0,3.7v3.4c0,1.1,0,1.9,0,3c0,0.7,0,1.5,0,2.2c0,1.5,0,2.6,0,3.4
					v1.1c0,0.4-0.4,1.1-1.1,1.1c-0.7,0-1.1-0.4-1.1-1.1c0,0,0-0.4,0-1.1s0-1.9,0-3.4c0-0.7,0-1.5,0-2.2s0-1.9,0-3V553
					c0-1.1,0-2.2,0-3.7c0-1.1,0-2.6,0-3.7v-1.9c0-0.4,0-1.1,0-1.5c-0.4,0-0.4,0-0.4,0l0,0c0,0,0,0-0.4,0H449c-0.4,0-0.4,0-0.7,0
					h-0.4h-0.4h-1.1c-0.4,0-0.7,0-1.1,0h-0.4h-0.4c-0.7,0-1.1,0-1.9,0h-0.7h-0.4h-0.4c-0.4,0-0.4,0-0.7,0h-0.4c0,0.4,0,0.7,0,1.1
					c0,0.7,0,1.5,0,1.9c0,0.7,0,1.1,0,1.9v1.9c0,2.6,0,4.9,0,6.7l0.4,5.2c0,1.5,0.4,2.6,0.4,3.4v1.1c0,0.7-0.4,1.1-1.1,1.5
					c-0.7,0-1.1-0.4-1.5-1.1l0,0c0,0,0-0.4,0-1.1v-3.4c0-1.5,0-3.4,0-5.2s0-4.1,0-6.7c0-0.7,0-1.1,0-1.9v-1.9c0-0.7,0-1.1,0-1.9
					s0-1.5,0-2.2c0-1.5,0-3,0-4.5c0-1.5,0.4-3,0.4-4.5s0.4-3,0.7-4.9c0-0.7,0.4-1.5,0.4-2.2s0.4-1.5,0.4-2.2c0-0.4,0.4-0.7,0.4-1.1
					l0.4-1.1c0-0.4,0.4-0.7,0.4-1.1l0.4-1.1c0.4-0.7,0.7-1.5,1.5-2.2c0.4-0.4,0.7-0.7,1.1-1.1c0.4,0,0.4-0.4,0.7-0.4h0.4h0.4h0.4
					c0.4,0,1.1,0,1.5,0.4c0.4,0.4,1.1,0.7,1.1,1.1c0.4,0.4,0.7,0.7,0.7,1.1c0.4,0.4,0.4,0.7,0.7,1.1c0.7,1.5,0.7,3.4,1.1,4.9
					c0.4,3.4,0.4,6.4,0.7,9.7c0,3,0,6.4,0,9c0,1.5,0,2.6,0,4.1C452.4,546.6,452.4,548.1,452.4,549.2z M450.9,539.5
					c0-0.7,0-1.5,0-2.6v-2.2c0-0.7,0-1.5,0-2.2c0-1.5,0-3-0.4-4.9c0-0.7,0-1.5,0-2.2c0-0.4,0-0.7,0-1.1l-0.4-1.1
					c0-0.7-0.4-1.5-0.4-2.2s-0.4-1.5-0.7-2.2s-0.7-1.1-1.1-1.9c-0.4-0.4-0.4-0.4-0.7-0.4s-0.4,0-0.7,0l0,0l0,0l0,0H446
					c-0.4,0-0.4,0.4-0.7,0.4c-0.4,0.4-0.7,1.1-1.1,1.9c-0.4,0.7-0.7,1.5-1.1,2.2c0,0.4-0.4,0.7-0.4,1.1s0,0.7-0.4,1.1l-0.4,2.2
					c0,0.7-0.4,1.5-0.4,2.2l-0.4,4.5c-0.4,2.6-0.4,4.9-0.7,7.1h0.4c0.4,0,0.4,0,0.7,0h0.4h0.4h0.7c0.7,0,1.1,0,1.9,0h0.4
					c0.4,0,0.4,0,0.4,0h1.1c0.4,0,0.7,0,1.1,0h0.7c0.4,0,0.4,0,0.7,0h0.4h0.4l0,0L450.9,539.5L450.9,539.5z"/>
				<path class="st2" d="M439.3,568c-1.1,0-2.2-0.7-2.2-1.9l0,0V556c0-1.1,0-1.9,0-3c0-1.1,0-2.2,0-3.7l0,0c0-0.7,0-1.1,0-1.9v-4.1
					c0-0.7,0-1.5,0-2.2c0-1.1,0-2.6,0-4.1v-0.4c0-0.7,0-1.5,0.4-2.6c0-0.7,0-1.5,0-2.2c0-1.5,0.4-3,0.7-4.9l0,0
					c0-0.7,0.4-1.5,0.4-2.6c0-0.7,0.4-1.5,0.4-2.2c0-0.4,0-0.4,0-0.7v-0.4l0.4-1.1c0-0.4,0.4-0.7,0.4-1.1l0.4-1.5
					c0.4-1.1,1.1-1.9,1.5-2.6c0.4-0.4,0.7-0.7,1.5-1.1c0.4,0,0.7-0.4,1.1-0.4c0,0,0,0,0.4,0l0,0h0.4h0.4c0.7,0,1.5,0,1.9,0.4l0,0
					c0.4,0.4,1.1,0.7,1.5,1.1l0,0c0,0,0,0.4,0.4,0.4c0.4,0.4,0.4,0.7,0.7,1.1c0.4,0.4,0.4,0.7,0.7,1.5c0.7,1.9,0.7,3.4,1.1,5.2
					c0.4,2.6,0.4,5.2,0.4,7.5c0,0.7,0,1.5,0,1.9l0,0c0,3,0,6,0,9c0,1.5,0,2.6,0,4.1c0,1.1,0,2.6,0,3.7l0,0c0,1.1,0,2.6,0,3.7v6
					c0,0.7,0,1.5,0,2.2c0,1.5,0,2.6,0,3.4v1.1c0,1.1-0.7,1.9-1.9,1.9s-1.9-0.7-1.9-1.9l0,0c0,0,0-0.4,0-1.1s0-1.5,0-2.2v-1.1
					c0-0.7,0-1.5,0-2.2s0-1.9,0-3v-3c0-1.1,0-2.2,0-3.7c0-0.7,0-1.1,0-1.9s0-1.1,0-1.9v-2.6l0,0l0,0c0,0,0,0-0.4,0l0,0h-0.4h-0.4
					h-1.5c-0.4,0-0.7,0-1.1,0h-1.1c-0.7,0-1.1,0-1.9,0l0,0h-1.5c0,0,0,0-0.4,0v0.4c0,0.4,0,0.7,0,1.1s0,0.7,0,1.1l0,0
					c0,0.7,0,1.1,0,1.9v1.9c0,2.6,0,4.9,0,6.7l0.4,5.2c0,0.7,0,1.1,0,1.5c0,0.7,0,1.1,0,1.5v1.1l0,0
					C441.5,566.8,440.8,567.6,439.3,568L439.3,568z M438.9,565.7l0.4,0.4l0.4-0.4v-1.1l0,0c0-0.4,0-1.1,0-1.5s0-1.1,0-1.9l-0.4-5.2
					c0-0.7,0-1.5,0-2.2c0,0.7,0,1.5,0,2.2v9.7H438.9z M451.3,565.7L451.3,565.7L451.3,565.7v-1.1c0-0.7,0-1.9,0-3.4
					c0-0.7,0-1.5,0-2.6v-1.9c0,0.7,0,1.1,0,1.9s0,1.5,0,2.2v1.1c0,1.1,0,1.9,0,2.2C451.3,565.3,451.3,565.7,451.3,565.7z
					 M440.4,525.7c0,0.7-0.4,1.1-0.4,1.5c-0.4,1.5-0.4,3-0.7,4.5c0,0.7,0,1.5,0,2.2s0,1.5-0.4,2.6v0.4c0,1.5,0,2.6,0,4.1
					c0,0.7,0,1.1,0,1.9v-0.4c0-0.4,0-0.4,0-0.7s0.4-0.7,0.7-0.7h0.4l0,0h0.4h1.5c0.7,0,1.5,0,1.9,0h1.1c0.4,0,0.4,0,0.7,0
					c0,0,0,0,0.4,0h1.9c0.4,0,0.7,0,0.7,0s0.4,0,0.7,0h0.4h0.4c0.4,0,0.7,0,0.7,0.4l0,0c0-0.4,0-0.7,0-1.1l-0.4,0.4h-0.4
					c0,0,0,0-0.4,0l0,0h-0.4H449l0,0h-1.1c-0.4,0-0.7,0-1.1,0h-1.9c-0.7,0-1.5,0-1.9,0h-1.5c-0.4,0-0.4,0-0.4,0l0,0h-0.4
					c-0.4,0-0.4,0-0.7-0.4c0-0.4-0.4-0.4-0.4-0.7c0-2.2,0.4-4.9,0.7-7.1l0.4-4.5c0-0.4,0-0.7,0-1.1C440.4,526,440.4,526,440.4,525.7
					z M449.4,542.5L449.4,542.5L449.4,542.5z M449.4,541.8L449.4,541.8L449.4,541.8z M449.4,541.8L449.4,541.8L449.4,541.8z
					 M449.4,541.8L449.4,541.8L449.4,541.8z M449.4,541.8L449.4,541.8L449.4,541.8z M449.4,541.8L449.4,541.8L449.4,541.8z
					 M450.5,541L450.5,541L450.5,541z M450.9,539.5L450.9,539.5L450.9,539.5z M449.4,538.8L449.4,538.8L449.4,538.8z M441.2,538.4
					L441.2,538.4h1.9l0,0c0.7,0,1.1,0,1.9,0h1.9l0,0c0.4,0,0.4,0,0.7,0h1.5h0.4l0,0l0,0V538c0-0.4,0-0.7,0-1.5V532
					c0-0.4,0-1.1,0-1.5c0-1.1,0-1.9,0-3c0-0.7,0-1.5,0-2.2l0,0c0-0.4,0-0.7,0-1.1L449,523c0-0.7-0.4-1.5-0.4-2.2l0,0
					c0-0.7-0.4-1.5-0.7-2.2s-0.7-1.1-0.7-1.5l-0.4-0.4c0,0,0,0-0.4,0H446l0,0l0,0l0,0c0,0-0.4,0-0.4,0.4c-0.4,0.4-0.7,0.7-1.1,1.5
					c-0.4,0.7-0.7,1.5-0.7,1.9v0.4c0,0.4,0,0.4-0.4,0.7l0,0c0,0.4,0,0.7-0.4,1.1l-0.4,2.2c0,0.4,0,0.7,0,1.1s0,0.7,0,1.1l-0.4,4.5
					C441.5,534.3,441.2,536.5,441.2,538.4z M446,514.8c0.4,0,0.7,0,1.1,0.4c0,0,0,0,0.4,0s0.4,0.4,0.7,0.7s0.7,1.1,1.1,1.9
					c0.4,0.7,0.4,1.1,0.7,1.9c0-0.7-0.4-1.1-0.4-1.9c0-0.4-0.4-0.7-0.4-1.1c0-0.4-0.4-0.4-0.4-0.7c0,0,0-0.4-0.4-0.4
					c-0.4-0.4-0.7-0.7-1.1-0.7C447.2,514.8,446.4,514.4,446,514.8L446,514.8c-0.4-0.4-0.4-0.4-0.7-0.4c0,0-0.4,0-0.4,0.4l0,0
					c-0.4,0-0.7,0.4-1.1,0.7c-0.4,0.4-0.7,1.1-1.1,2.2l-0.4,1.1c0-0.4,0.4-0.7,0.7-1.1c0.4-0.7,0.7-1.5,1.5-1.9
					c0.4-0.4,0.4-0.4,0.7-0.7C445.3,515.2,445.7,515.2,446,514.8L446,514.8z"/>
			</g>
			<g>
				<path id="XMLID_21_" class="st2" d="M476.7,541.4c0,1.5,0,2.6,0,4.1c0,1.1,0,2.6,0,4.1c0,1.5-0.4,2.6-0.4,4.1
					c-0.4,1.1-0.4,2.6-0.7,4.1l-0.7,1.9c-0.4,0.7-0.4,1.1-0.7,1.9c-0.7,1.1-1.5,2.6-2.6,3.4c-1.1,1.1-2.6,1.5-4.1,1.9
					c-0.7,0-1.5,0.4-2.2,0c-0.4,0-0.7,0-1.1,0c0,0-0.4,0-0.7,0c0,0,0,0-0.4,0l0,0h0h-0.4c-0.4,0-0.7-0.4-0.7-0.7v-6.4
					c0-1.9,0-4.1,0-6.4v-3v-3v-3v-3v-3v-3v-3v-3c0-1.1,0-1.9,0-3c0-1.1,0-2.2,0-3v-3c0-1.1,0-1.9,0-3c0-0.4,0-0.7,0.4-0.7l0,0l0,0
					l0,0h0.4c0.4,0,0.4,0,0.7,0h0.7c0,0,0.4,0,0.7,0s0.7,0,1.1,0c0.4,0,0.7,0,1.1,0.4c0.4,0,0.7,0.4,1.1,0.4
					c0.4,0.4,0.7,0.4,1.1,0.7c0.7,0.4,1.1,1.1,1.5,1.5c0.4,0.7,0.7,1.1,1.1,1.9l0.7,1.9c0,0.4,0.4,0.7,0.4,1.1
					c0,0.4,0.4,0.7,0.4,1.1l0.4,1.1c0,0.4,0.4,0.7,0.4,1.1l0.4,1.1v0.4v0.4l0.4,1.1c0,0.4,0,0.7,0,1.1c0,0.7,0.4,1.5,0.4,1.9
					c0,0.7,0.4,1.1,0.4,1.9c0,1.1,0.4,2.6,0.4,4.1l0.4,1.9v0.7v0.4v-1.5H476.7z M474.9,549.2c0-1.1,0-2.6,0-3.7c0-1.5,0-2.6,0-4.1
					v-1.1v-0.4v-0.4c0-0.7,0-1.1,0-1.9c0-1.1-0.4-2.6-0.4-3.7c0-0.7,0-1.1-0.4-1.9c0-0.7-0.4-1.1-0.4-1.9l-0.4-1.9v-0.4v-0.4
					c0-0.4,0-0.7-0.4-0.7c-0.4-1.1-0.7-2.6-1.5-3.7l-0.7-1.5c-0.4-0.7-0.7-1.1-1.1-1.5c-0.7-1.1-1.5-1.9-2.6-2.2
					c-0.4-0.4-1.1-0.4-1.5-0.4h-0.7c0,0,0,0-0.4,0c0,0.7,0,1.5,0,2.2v3v3c0,1.1,0,1.9,0,3v3v3c0,1.1,0,1.9,0,3v3v3v3v3v3
					c0,1.9,0,4.1,0,6.4v5.6c0.4,0,0.4,0,0.7,0c0.7,0,1.1,0,1.9,0c1.1-0.4,2.2-0.7,3-1.5c0.7-0.7,1.5-1.9,2.2-3
					c0.4-0.4,0.4-1.1,0.7-1.5c0.4-0.7,0.4-1.1,0.7-1.9c0.4-1.1,0.7-2.6,0.7-3.7L474.9,549.2z"/>
				<path class="st2" d="M465.5,568c-0.4,0-0.4,0-0.7,0s-0.7,0-1.1,0c0,0-0.4,0-0.7,0h-0.4l0,0l0,0h-0.4h-0.4
					c-0.7-0.4-1.1-0.7-1.1-1.5v-6.4c0-1.1,0-1.9,0-3s0-2.2,0-3v-3v-3v-3v-3v-3v-3v-3v-6.4c0-1.1,0-2.2,0-3.4v-3c0-0.4,0-1.1,0-1.5
					s0-1.1,0-1.5c0-0.7,0.4-1.1,0.7-1.5c0,0,0.4-0.4,0.7-0.4l0,0l0,0h0.4h0.4l0,0h0.4h0.4c0.7-0.4,1.1,0,1.9,0l0,0
					c0.4,0,0.7,0,1.1,0.4c0.4,0,0.7,0.4,1.1,0.7l0,0c0.4,0,0.7,0.4,0.7,0.7c0.7,0.4,1.1,1.1,1.9,1.9c0.4,0.7,0.7,1.1,1.1,1.9
					l0.7,1.9c0,0.4,0.4,0.7,0.4,1.1l0,0c0,0.4,0.4,0.4,0.4,0.7l0.4,0.7l0,0v0.4c0,0.4,0,0.4,0,0.7l0.7,3c0,0,0,0.4,0,0.7v0.4
					c0.4,0.7,0.4,1.5,0.4,2.2c0,0.4,0,0.7,0,0.7c0,0.4,0,0.7,0,1.1s0,0.7,0,1.1c0,0.7,0.4,1.9,0.4,2.6l0.4,1.9l0,0v0.7v0.4v1.1
					c0,1.5,0,2.6,0,4.1c0,1.5,0,2.6,0,4.1c0,1.1-0.4,2.6-0.4,3.7v0.4c-0.4,1.5-0.4,3-0.7,4.1l-0.7,1.9c-0.4,0.7-0.7,1.5-1.1,2.2
					c-0.7,1.5-1.5,2.6-2.6,3.7c-1.1,1.1-2.6,1.9-4.5,2.2C467,568,466.2,568,465.5,568z M463.6,565.7L463.6,565.7h0.4
					c0.4,0,0.7,0,0.7,0c0.7,0,1.5,0,2.2,0c1.5-0.4,2.6-0.7,3.7-1.9c0.7-0.7,1.5-1.5,1.9-2.6c-0.7,1.1-1.5,1.9-2.2,2.6
					c-1.1,0.7-2.2,1.5-3.4,1.9c-0.7,0-1.1,0-1.9,0h-0.4c0,0,0,0-0.4,0s-0.7-0.4-0.7-0.7v-5.6c0-1.1,0-2.2,0-3c0-1.1,0-2.2,0-3v-1.9
					v2.2c0,1.1,0,1.9,0,3c0,1.1,0,2.2,0,3V565.7L463.6,565.7C463.3,565.7,463.3,565.7,463.6,565.7L463.6,565.7L463.6,565.7z
					 M465.1,563.8L465.1,563.8c0.4,0,1.1,0,1.5,0c0.7,0,1.9-0.7,2.6-1.5s1.5-1.5,1.9-2.6c0-0.4,0.4-0.4,0.4-0.7s0.4-0.4,0.4-0.7
					c0.4-0.7,0.4-1.1,0.4-1.5c0.4-1.1,0.7-2.6,0.7-3.7l0.4-3.7c0-0.7,0-1.1,0-1.9s0-1.5,0-1.9c0-0.7,0-1.5,0-1.9c0-0.7,0-1.5,0-1.9
					v-1.9l0,0c0-0.7,0-1.1,0-1.9c0-1.5-0.4-2.6-0.4-3.7c0-0.7,0-1.1-0.4-1.9l0,0c0-0.7-0.4-1.1-0.4-1.9l-0.4-2.2v-0.4l0,0
					c0,0,0,0,0-0.4s0-0.4-0.4-0.7l0,0c-0.4-1.1-0.7-2.2-1.5-3.4l-0.7-1.5c-0.4-0.4-0.7-0.7-1.1-1.5c-0.7-0.7-1.5-1.5-2.2-1.9
					c-0.4,0-0.7-0.4-1.1-0.4l0,0c0,0.4,0,1.1,0,1.5v3.4v12.3c0,0.4,0,1.1,0,1.5s0,1.1,0,1.5v3v6.4v6c0,1.1,0,2.2,0,3
					c0,1.1,0,2.2,0,3L465.1,563.8z M474.9,549.2L474.9,549.2L474.9,549.2z M463.3,520.1v2.2c0,1.1,0,2.2,0,3v6.4v3v3.4v-0.4
					c0-0.4,0-1.1,0-1.5s0-1.1,0-1.5v-12.3V520.1z M465.9,515.6c0.4,0,0.7,0.4,1.1,0.4c1.1,0.7,2.2,1.5,3,2.6
					c0.4,0.4,0.7,1.1,1.1,1.5l0.7,1.5c0.4,0.7,0.7,1.9,1.1,2.6l-0.4-0.7l0,0c0-0.4,0-0.4-0.4-0.7v-0.4l0,0c0-0.4,0-0.4-0.4-0.7
					l-0.7-1.9c-0.4-0.4-0.7-1.1-1.1-1.5c-0.4-0.4-0.7-1.1-1.5-1.1l0,0c0,0-0.4-0.4-0.7-0.4h-0.4l0,0c-0.4,0-0.4-0.4-0.7-0.4
					C467,515.9,466.6,515.9,465.9,515.6L465.9,515.6L465.9,515.6z M463.3,515.9L463.3,515.9L463.3,515.9L463.3,515.9L463.3,515.9z"
					/>
			</g>
			<g>
				<path id="XMLID_18_" class="st2" d="M504.4,565.3c0,0.7-0.4,1.1-1.1,1.1c-0.7,0-1.1-0.4-1.1-1.1l-1.1-41.9v0.7
					c-0.4,1.5-0.7,3-0.7,4.5l-0.4,2.2l-1.9,10.9l-0.4,2.2l-0.4,2.2c0,0.7-0.4,1.5-0.4,2.2l-0.4,2.2c0,0.7-0.7,1.1-1.5,1.1
					c-0.4,0-1.1-0.4-1.1-1.1s-0.4-1.5-0.4-2.2s-0.4-1.5-0.4-2.2c-0.4-1.5-0.4-3-0.7-4.5c0-0.7-0.4-1.5-0.4-2.2s-0.4-1.5-0.4-2.2
					s-0.4-1.5-0.4-2.2l-0.4-2.2c-0.4-1.5-0.7-3-0.7-4.5l-0.4-2.2v1.5l-0.4,6.4c0,2.2,0,4.1,0,6.4v6.4v3v3v6.4v6.4
					c0,0.7-0.4,1.1-1.1,1.1c-0.7,0-1.1-0.4-1.1-1.1l0.4-12.3v-3.4l0.4-9.4c0-1.9,0-4.1,0-6.4v-6.4c0-2.2,0-4.1,0-6.4v-3v-3
					c0-0.7,0.7-1.1,1.1-1.1c0.7,0,1.1,0.4,1.1,1.1l0.7,4.5c0.4,1.5,0.4,3,0.7,4.5l0.7,4.5c0.4,1.5,0.4,3,0.7,4.5l0.4,2.2
					c0,0.7,0.4,1.5,0.4,2.2l0.4,2.2c0,0.7,0.4,1.5,0.4,2.2l0.4,2.6v-0.4l0.4-2.2l1.9-8.6l0.4-2.2l0.4-2.2c0.4-1.5,0.7-3,0.7-4.5
					l0.7-4.5l0.7-4.1v-0.4l0,0c0-0.4,0.4-0.7,1.1-0.7c0.4,0,0.7,0.4,0.7,0.7L504.4,565.3z"/>
				<path class="st2" d="M503.3,567.6c-0.4,0-0.7,0-1.1-0.4c-0.4-0.4-0.7-0.7-0.7-1.5l-0.7-33.3l-1.5,9.7l-0.4,2.2l-0.4,2.2
					c0,0.7-0.4,1.5-0.4,2.2l-0.4,2.2c-0.4,1.1-1.5,1.9-2.6,1.9l0,0c-0.7-0.4-1.5-1.1-1.9-1.9c0-0.7-0.4-1.5-0.4-2.2
					s-0.4-1.5-0.4-2.2c-0.4-1.5-0.4-3-0.7-4.5l0,0c0-0.7-0.4-1.5-0.4-2.2l0,0c0-0.7-0.4-1.5-0.4-2.2c0-0.4,0-0.7-0.4-1.1
					c0-0.4,0-0.7,0-1.1l-0.4-1.1c0,1.9,0,4.1,0,6l-0.4,18.7v6.4c0,1.1-0.7,2.2-2.2,2.2c-1.1,0-1.9-1.1-1.9-2.2l0.7-25.1
					c0-1.1,0-1.9,0-3c0-1.1,0-2.2,0-3v-6.4c0-2.2,0-4.1,0-6.4v-3v-3c0-1.1,1.1-2.2,2.2-2.2s1.9,0.7,2.2,1.9l0.7,4.5
					c0,0.7,0.4,1.5,0.4,2.2s0.4,1.5,0.4,2.2l0.7,4.5c0.4,1.5,0.4,3,0.7,4.5l0.4,2.2c0,0.7,0.4,1.5,0.4,2.2l0.4,2.2v0.4l1.5-7.1
					l0.4-2.2l1.1-6.4l0.7-4.5l0.7-4.1l0,0l0,0l0,0c0-0.4,0.4-0.7,0.7-1.1s0.7-0.4,1.5-0.4c0.7,0,1.5,0.7,1.5,1.9l1.9,50.1
					c0,0.4,0,1.1-0.4,1.5C504.4,567.2,504,567.6,503.3,567.6L503.3,567.6z M501.8,527.2l1.1,38.5c0,0,0,0,0,0.4h0.4l0,0L501.8,527.2
					z M488,537.6c0,0.7,0,1.9,0,2.6l-0.7,25.1v0.4c0,0,0.4,0,0.4-0.4V559l0.4-18.7C488,539.5,488,538.8,488,537.6z M489.4,525.3
					c0.4,0,0.7,0.4,0.7,0.7l1.9,9c0,0.4,0,0.7,0.4,1.1c0,0.4,0,0.7,0,1.1c0,0.7,0.4,1.5,0.4,2.2s0.4,1.5,0.4,2.2
					c0.4,1.5,0.4,3,0.7,4.5c0,0.7,0.4,1.5,0.4,2.2l0,0c0,0.7,0.4,1.5,0.4,2.2c0,0,0,0.4,0.4,0.4c0,0,0.4,0,0.4-0.4l0.4-2.2
					c0-0.7,0.4-1.5,0.4-2.2l0.4-2.2l0.4-2.2l1.5-9.7l-0.4,0.7l-1.9,8.6l-0.7,2.6c0,0.4-0.4,0.7-0.7,0.7l0,0c-0.4,0-0.7-0.4-0.7-0.7
					l-0.4-2.6c-0.4-0.7-0.4-1.5-0.4-2.2l-0.4-2.2c0-0.7-0.4-1.5-0.4-2.2l-0.4-2.2c-0.4-1.5-0.4-3-0.7-4.5l-0.7-4.5
					c0-0.7-0.4-1.5-0.4-2.2s-0.4-1.5-0.4-2.2l-0.7-4.5c0,0,0,0-0.4,0c0,0-0.4,0-0.4,0.4v3v3c0,1.9,0,4.1,0,6.4v6.4
					c0,0.4,0,0.7,0,0.7c0-0.4,0-0.7,0-0.7l0.4-7.9C488.3,526,488.7,525.7,489.4,525.3L489.4,525.3z M501,522.7L501,522.7
					c0.4,0,0.7,0.4,0.7,0.7l-0.4-7.1l-0.7,3.7l-0.4,3C500.3,522.7,500.7,522.7,501,522.7z M501.4,515.6L501.4,515.6L501.4,515.6z"/>
			</g>
			<g>
				<path id="XMLID_15_" class="st2" d="M526.9,565.3c0,0.7-0.4,1.1-1.1,1.1h-0.4H525h-0.7c-0.4,0-1.1,0-1.5,0c-0.7,0-1.1,0-1.9,0
					c-0.4,0-0.7,0-0.7,0s-0.7,0-1.1,0c-0.7,0-1.1,0-1.5,0s-0.7,0-1.1,0c-0.4,0-0.4,0-0.4,0c-0.7,0-1.1-0.4-1.5-1.1
					c0-0.7,0.4-1.1,1.1-1.5h0.4c0,0,0,0,0.4,0h1.1c0.4,0,1.1,0,1.5,0s0.4,0,0.7,0v-6.4c0-1.1,0-2.2,0-3.7c0-1.1,0-2.6,0-4.1
					c0-0.7,0-1.5,0-2.2s0-1.5,0-2.2l-0.4-2.2c0-0.7,0-1.5,0-2.2s0-1.5,0-2.2s0-1.5,0-2.2l-0.4-2.2c0-0.4,0-0.7,0-1.1v-1.1
					c0-0.7,0-1.5,0-2.2s0-1.5,0-1.9v-1.1c0-0.4,0-0.7,0-1.1v-1.5c0-0.7,0-1.1,0-1.5s0-1.1,0-1.5c0-1.1,0-1.9,0-2.2
					c0-0.7,0-1.1,0-1.5h-0.4c-0.4,0-0.4,0-0.7,0s-0.4,0-0.7,0s-0.7,0-1.1,0s-0.4,0-0.4,0c-0.7,0-1.1-0.4-1.5-1.1
					c0-0.7,0.4-1.1,1.1-1.5l0,0c0,0,0,0,0.4,0h1.1c0.4,0,0.4,0,0.7,0h0.7c0.7,0,1.1,0,1.9,0s1.1,0,1.9,0h0.7c0.4,0,0.4,0,0.7,0
					c0.4,0,0.4,0,0.7,0h0.4c0.4,0,0.4,0,0.4,0c0.7,0,1.5,0.4,1.5,1.1s-0.4,1.5-1.1,1.5H525h-0.4h-0.4h-0.7c-0.4,0-0.4,0-0.7,0H522
					c-0.4,0-0.4,0-0.7,0v0.4c0,0.4,0,0.7,0,1.5s0,1.5,0,2.2c0,0.4,0,1.1,0,1.5v1.5c0,0.7,0,1.1,0,1.9c0,0.4,0,0.7,0,1.1s0,0.7,0,1.1
					c0,0.7,0,1.1,0,1.9s0,1.5,0,2.2v1.1c0,0.4,0,0.7,0,1.1c0,0.7,0,1.5,0,2.2s0,1.5,0,2.2s0.4,1.5,0.4,2.2s0,1.5,0,2.2s0,1.5,0,2.2
					c0,0.7,0,1.5,0,2.2s0,1.5,0,2.2c0,1.5,0,3,0,4.1c0,1.1,0,2.6,0,3.7c0,3,0,5.6,0,6.7h0.7c0.7,0,1.1,0,1.5,0c0.4,0,0.4,0,0.7,0
					h0.4c0.4,0,0.4,0,0.4,0C526.5,563.8,526.9,564.6,526.9,565.3z"/>
				<path class="st2" d="M515.6,568c-0.4,0-1.1,0-1.5-0.4s-0.7-0.7-0.7-1.5c-0.4-1.1,0.7-2.2,1.9-2.6c0,0,0,0,0.4,0h1.9
					c0,0,0.4,0,0.7,0s0.4,0,0.7,0v-9.7c0-0.7,0-1.1,0-1.9s0-1.5,0-2.2s0-1.5,0-2.2s0-1.5,0-2.2l-0.4-2.6c0-0.7,0-1.5,0-2.2
					s0-1.5,0-2.2s0-1.5,0-2.2l-0.4-2.2V529c0-0.7,0-1.5,0-2.2V526v-0.4v-0.4c0,0,0,0,0-0.4v-1.1c0-0.4,0-0.4,0-0.7s0-0.4,0-0.7l0,0
					c0-0.4,0-1.1,0-1.1l0,0c0-0.7,0-1.9,0-2.2l0,0c0-0.4,0-0.4,0-0.7c-0.4,0-0.7,0-0.7,0c-0.4,0-0.7,0-0.7,0c-0.4,0-0.4,0-0.4,0H516
					c-1.1,0-2.2-0.7-2.2-1.9c0-0.4,0-1.1,0.4-1.5s0.7-0.7,1.5-0.7h4.9c0.7,0,1.1,0,1.5,0l0,0h0.7h0.4c0.4,0,0.4,0,0.7,0h0.4
					c0,0,0,0,0.4,0c0.4,0,0.4,0,0.4,0c0.7,0,1.1,0,1.5,0.4s0.7,0.7,0.7,1.5s0,1.1-0.4,1.9c-0.4,0.4-0.7,0.7-1.1,0.7s-0.7,0-1.1,0
					h-0.4h-0.4l0,0H522c0,0.4,0,0.4,0,0.7l0,0c0,0.7,0,1.5,0,2.2l0,0c0,0.4,0,0.7,0,1.5v1.5l0,0c0,0.4,0,1.1,0,1.5s0,0.4,0,0.7
					c0,0,0,0,0,0.4s0,0.7,0,0.7c0,0.7,0,1.5,0,2.2c0,0.4,0,0.7,0,1.1s0,0.7,0,1.1v2.2c0,0.4,0,0.7,0,1.1s0,0.7,0,1.1
					c0,0.7,0,1.5,0,2.2c0,0.4,0,0.4,0,0.7s0,1.1,0,1.5s0,0.7,0,1.1s0,0.7,0,1.1v0.4c0,0.7,0,1.5,0,1.9c0,0.7,0,1.5,0,2.2
					s0,1.5,0,2.2s0,1.5,0,2.2s0,1.5,0,1.9c0,0.7,0,1.1,0,1.9s0,1.1,0,1.9v2.2c0,1.5,0,2.6,0,3.4c0.4,0,0.4,0,0.7,0
					c0.4,0,0.4,0,0.7,0h0.4h0.4h0.4c0.4,0,0.4,0,0.4,0c1.1,0,2.2,1.1,2.2,2.2s-0.7,2.2-1.9,2.2l0,0h-2.6c-0.4,0-1.1,0-1.9,0h-0.4
					h-0.4c-0.4,0-0.4,0-0.7,0c0,0,0,0-0.4,0s-1.1,0-1.5,0s-0.7,0-0.7,0c-0.4,0-0.4,0-0.7,0C516,568,516,568,515.6,568
					C516,568,515.6,568,515.6,568z M515.6,565.3C515.6,565.3,515.3,565.7,515.6,565.3c-0.4,0.4-0.4,0.4-0.4,0.4l0,0c0,0,0,0,0.4,0
					s0.4,0,0.7,0s0.4,0,0.7,0s1.1,0,1.5,0s1.1,0,1.5,0h0.4c0.7,0,1.1,0,1.9,0l0,0h3l0.4-0.4c0,0,0-0.4-0.4-0.4c0,0,0,0-0.4,0
					c0,0,0,0-0.4,0h-0.7h-0.4c-0.4,0-0.4,0-0.7,0s-0.4,0-0.7,0l0,0h-0.7c-0.4,0-0.7-0.4-0.7-0.7c0-0.7,0-2.2,0-4.1v-0.4v4.9
					c0,0.4-0.4,0.7-0.7,0.7c0,0,0,0-0.4,0s-0.7,0-1.5,0c-0.4,0-0.4,0-0.7,0H515.6L515.6,565.3z M520.5,538.4L520.5,538.4
					c0,1.1,0,1.9,0,2.2c0,0.7,0,1.5,0,1.9v1.1c0-0.4,0-0.4,0-0.7v-0.4c0-0.4,0-0.7,0-1.1s0-0.7,0-1.1c0-0.4,0-0.7,0-1.5
					C520.5,539.1,520.5,538.8,520.5,538.4L520.5,538.4z M520.1,527.9c0,0.4,0,1.1,0,1.9v4.1v1.1c0,0,0,0,0-0.4s0-0.7,0-1.1v-2.2
					c0-0.4,0-0.7,0-1.1s0-0.7,0-1.1C520.1,529,520.1,528.3,520.1,527.9z M520.1,521.9C520.1,522.3,520.1,522.3,520.1,521.9
					L520.1,521.9c0-0.4,0-1.1,0-1.5c0-0.7,0-1.9,0-2.2s0-0.7,0-1.1v-0.4v-0.4c0-0.4,0.4-0.7,0.7-0.7h3c0,0,0.4,0,0.7,0h0.4
					c0,0,0,0,0.4,0l0,0l0,0v-0.4l0,0H525c0,0,0,0-0.4,0c0,0,0,0-0.4,0c0,0,0,0-0.4,0c0,0-0.4,0-0.7,0c-0.4,0-0.4,0-0.7,0H522h-0.7
					c-0.4,0-1.1,0-1.9,0h-4.1l0,0c0,0,0,0,0,0.4s0.4,0.4,0.4,0.4h0.4c0,0,0,0,0.4,0s0.4,0,0.7,0s0.7,0,1.1,0s0.4,0,0.4,0l0,0
					c0.4,0,0.7,0,0.7,0c0.4,0,0.4,0.4,0.4,0.7v0.4c0,0.4,0,0.7,0,1.1c0,0.7,0,1.5,0,2.2C520.1,521.2,520.1,521.6,520.1,521.9z
					 M523.9,517.1L523.9,517.1L523.9,517.1z M523.9,517.1L523.9,517.1L523.9,517.1z"/>
			</g>
		</g>
		<g id="XMLID_155_">
			<g id="XMLID_158_">
				<path id="XMLID_170_" class="st2" d="M321.8,589.3c0,1.1,0.4,2.2,1.9,2.6c0,0,0.4,0,0.7,0c0.7,0,1.9-0.4,3-1.5
					c0,0,0.4,1.5,0.4,2.2c0,0.4,0,0.4,0,0.4c-0.4,0.4-1.5,1.5-3.4,1.5c0,0-4.1,0-4.9-5.2v-0.4c0-5.6,4.5-6.7,5.6-6.7c0,0,0,0,0.4,0
					c0.7,0,1.1,0.4,1.1,0.4c0.4,0.4,0.4,3,0.4,3s-0.7-0.4-1.9-0.4s-2.2,0.4-3,1.9C322.2,587.8,321.8,588.5,321.8,589.3z"/>
				<path id="XMLID_172_" class="st2" d="M339,593.8c0,0.4,0,0.4-0.4,0.7c-0.7,0.4-1.1,0.4-1.5,0.4s-0.4,0-0.7-0.4
					c-0.7-0.4-1.1-1.9-1.1-3v-0.4l-2.2,0.4c-0.4,2.2-0.4,3-1.1,3c-1.1,0-1.5-0.4-1.5-0.7c0,0,0-0.4,0-0.7c0-0.7,0.4-1.9,0.4-1.9l0,0
					c-0.4,0-0.4-0.4-0.4-0.7c0,0,0,0,0-0.4s0-0.4,0.4-0.7h0.4c0.4-1.1,0.7-2.2,0.7-3c0.4-1.9,0.4-3,0.7-3.4s0.4-0.7,1.5-0.7
					c0.7,0,1.1,0,1.5,0.4s0.7,1.9,0.7,1.9s0.7,2.2,1.1,4.1h0.4c0.4,0,0.7,0,0.7,0.4s0,0.7-0.4,0.7c0,0-0.4,0.4-0.4,0.7
					C338.3,592.3,339,593,339,593.8z M334.9,589.3c-0.4-1.1-0.4-1.9-0.7-2.6c-0.4,0.7-0.4,1.9-0.7,3L334.9,589.3z"/>
				<path id="XMLID_175_" class="st2" d="M348.7,593.4c0,0.7,0,1.1-0.4,1.1s-2.6,0.4-4.1,0.4c-0.7,0-1.1,0-1.5,0
					c-0.7,0-0.7-0.4-1.1-0.4c-0.4-0.4-0.4-1.1-0.4-1.5s0-0.4,0-0.4s0-5.2,0-5.6c0-1.5-0.4-2.2-0.4-3c0-0.4,0-0.7,0.4-0.7
					s0.7,0,1.1,0c0.7,0,0.7,0,1.1,0.4c0.7,0.4,0.4,2.2,0.4,8.6c0,0.4,0.4,0.4,1.1,0.4c1.1,0,2.6-0.4,3.4-0.4l0,0
					C348.7,591.9,348.7,592.7,348.7,593.4z"/>
				<path id="XMLID_177_" class="st2" d="M358.8,593.4c0,0.7,0,1.1-0.4,1.1s-2.6,0.4-4.1,0.4c-0.7,0-1.1,0-1.5,0
					c-0.7,0-0.7-0.4-1.1-0.4c-0.4-0.4-0.4-1.1-0.4-1.5s0-0.4,0-0.4s0-5.2,0-5.6c0-1.5-0.4-2.2-0.4-3c0-0.4,0-0.7,0.4-0.7
					s0.7,0,1.1,0c0.7,0,0.7,0,1.1,0.4c0.7,0.4,0.4,2.2,0.4,8.6c0,0.4,0.4,0.4,1.1,0.4c1.1,0,2.6-0.4,3.4-0.4l0,0
					C358.8,591.9,358.8,592.7,358.8,593.4z"/>
				<path id="XMLID_182_" class="st2" d="M383.9,588.2L383.9,588.2c-0.7,5.6-4.9,6.7-6.4,6.7c-0.4,0-0.4,0-0.7,0h-0.4
					c-0.4,0-0.7-0.4-0.7-0.7c-0.4-0.4-0.4-1.1-0.4-1.5v-0.4c0,0,0-5.2,0-5.6c0-1.5-0.4-2.2-0.4-3c0-0.4,0-0.7,0.4-0.7s0.7,0,0.7,0
					c0.4,0,0.7,0,0.7,0.4c0.4,0,0.7,0,1.5,0h0.4C379.4,582.5,383.9,582.9,383.9,588.2z M381.3,588.2c0-1.5-1.1-2.6-2.6-2.6
					c-0.4,0-0.7,0-0.7,0v1.5c0,0.7,0,1.9,0,3c0,0.7,0,1.1,0,1.9h0.4C379.8,591.5,381.3,590,381.3,588.2z"/>
				<path id="XMLID_188_" class="st2" d="M394,592.7c0,0.4-0.4,1.1-0.7,1.1c-0.4,0.4-1.5,0.7-1.5,0.7s-1.9,0.4-3,0.4
					c-0.4,0-1.1,0-1.1,0s0,0-0.4,0l-0.4-0.4c-0.4-0.4-0.4-1.1-0.4-1.5s0-0.4,0-0.4c0-1.1,0-2.6,0-3.7c0-0.7,0-1.1,0-1.9
					c0-1.5-0.4-2.2-0.4-3c0-0.4,0-0.7,0.7-0.7c0.4,0,0.7,0,1.1,0c0.7,0,0.7,0,1.1,0.4c0,0,0,0,0.4,0.4c0.4,0,0.4,0,0.7,0
					c0.7,0,1.5-0.4,2.2-0.4c0.4,0,0.7,0,1.1,0c0.4,0,0.4,0.4,0.4,0.4c0,0.4-0.4,1.1-0.7,1.1c-0.7,0.7-3,0.7-3.7,0.7v2.2
					c1.1-0.4,2.2-0.4,3.4-0.4c0.4,0,0.4,0,0.4,0.4c0,0,0,0,0,0.4c-0.4,1.5-1.9,1.9-3.4,1.9h-0.4v2.2c1.5-0.4,3-0.4,4.5-0.4
					C393.6,592.3,394,592.3,394,592.7z"/>
				<path id="XMLID_201_" class="st2" d="M404.1,593.4c0,0.7,0,1.1-0.4,1.1s-2.6,0.4-4.1,0.4c-0.7,0-1.1,0-1.5,0
					c-0.7,0-0.7-0.4-1.1-0.4c-0.4-0.4-0.4-1.1-0.4-1.5s0-0.4,0-0.4s0-5.2,0-5.6c0-1.5-0.4-2.2-0.4-3c0-0.4,0-0.7,0.4-0.7
					s0.7,0,1.1,0c0.7,0,0.7,0,1.1,0.4c0.7,0.4,0.4,2.2,0.4,8.6c0,0.4,0.4,0.4,1.1,0.4c1.1,0,2.6-0.4,3.4-0.4l0,0
					C403.8,591.9,404.1,592.7,404.1,593.4z"/>
				<path id="XMLID_203_" class="st2" d="M406.4,583.3c0-0.4,0-0.7,0.7-0.7c0.4,0,0.7,0,1.1,0c0.7,0,0.7,0,1.1,0.4s0.4,1.5,0.4,1.9
					c0,0,0,0.4,0,1.5c0,1.1,0,2.6,0,3.7c0,2.2,0.4,3,0.4,3.7c0,0.4,0,0.7-0.4,0.7c0,0-0.4,0.4-0.7,0.4h-0.4c-0.7,0-0.7-0.4-1.1-0.7
					c-0.4-0.4-0.4-1.1-0.4-1.9v-0.4c0,0,0-5.2,0-6C406.4,585.2,406.4,584,406.4,583.3z"/>
				<path id="XMLID_205_" class="st2" d="M421.3,584c0,0.7-0.4,1.9-0.4,1.9s-0.7,3-1.5,4.9l-0.4,1.1c-0.4,1.5-0.4,2.2-0.7,2.6
					s-0.4,0.7-1.5,0.7c-0.7,0-1.5,0-1.9-0.4s-1.1-1.9-1.1-1.9s-1.9-5.2-1.9-5.6c-0.7-1.9-1.1-2.6-1.1-3.4c0-0.4,0-0.4,0.4-0.7
					c0.7-0.4,1.1-0.4,1.5-0.4s0.4,0,0.7,0.4c0.7,0.4,1.1,2.2,1.1,2.2s1.1,4.1,1.9,6c0.4-0.7,1.5-4.5,1.5-4.9
					c0.7-2.6,0.4-3.7,1.5-3.7c1.1,0,1.5,0.4,1.5,0.7C421.3,583.7,421.3,583.7,421.3,584z"/>
				<path id="XMLID_207_" class="st2" d="M431.4,592.7c0,0.4-0.4,1.1-0.7,1.1c-0.4,0.4-1.5,0.7-1.5,0.7s-1.9,0.4-3,0.4
					c-0.4,0-1.1,0-1.1,0s0,0-0.4,0l-0.4-0.4c-0.4-0.4-0.4-1.1-0.4-1.5s0-0.4,0-0.4c0-1.1,0-2.6,0-3.7c0-0.7,0-1.1,0-1.9
					c0-1.5-0.4-2.2-0.4-3c0-0.4,0-0.7,0.7-0.7c0.4,0,0.7,0,1.1,0c0.7,0,0.7,0,1.1,0.4c0,0,0,0,0.4,0.4c0.4,0,0.4,0,0.7,0
					c0.7,0,1.5-0.4,2.2-0.4c0.4,0,0.7,0,1.1,0c0.4,0,0.4,0.4,0.4,0.4c0,0.4-0.4,1.1-0.7,1.1c-0.7,0.7-3,0.7-3.7,0.7v2.2
					c1.1-0.4,2.2-0.4,3.4-0.4c0.4,0,0.4,0,0.4,0.4c0,0,0,0,0,0.4c-0.4,1.5-1.9,1.9-3.4,1.9H427v2.2c1.5-0.4,3-0.4,4.5-0.4
					C431.4,592.3,431.4,592.3,431.4,592.7z"/>
				<path id="XMLID_209_" class="st2" d="M441.9,593.8C441.9,593.8,441.9,594.1,441.9,593.8c0,0.4-0.4,0.7-1.1,0.7
					c-0.4,0-0.4,0-0.4,0c-0.4,0-0.4,0-0.7,0c-0.4-0.4-1.1-1.9-1.1-1.9l-1.5-2.6h-0.4h-0.4c0,0,0,1.1,0,2.2c0,1.1,0,1.9-0.4,1.9
					s-0.4,0.4-0.7,0.4s-0.4,0-0.4,0c-0.4,0-0.7-0.4-0.7-0.7c-0.4-0.4-0.4-1.1-0.4-1.9v-0.4c0,0,0-5.2,0-5.6c0-1.5-0.4-2.2-0.4-3
					c0-0.4,0-0.7,0.4-0.7s0.7,0,0.7,0c0.4,0,0.7,0,0.7,0.4c0.4,0,1.1,0,1.9,0c0.4,0,0.7,0,0.7,0c0.7,0,3.4,0.4,3.4,3.7
					c0,0.4,0,0.7,0,1.1c-0.4,1.1-1.1,1.9-1.9,2.2c0.7,1.1,1.1,2.6,1.9,3.7C441.9,593.4,441.9,593.8,441.9,593.8z M436.7,587.8
					c1.1,0,2.6-0.4,2.6-1.9c0-0.7-0.7-1.5-1.9-1.5c-0.4,0-0.7,0-1.1,0L436.7,587.8L436.7,587.8z"/>
				<path id="XMLID_212_" class="st2" d="M465.9,592.7c0,0.4-0.4,1.1-0.7,1.1c-0.4,0.4-1.5,0.7-1.5,0.7s-1.9,0.4-3,0.4
					c-0.4,0-1.1,0-1.1,0s0,0-0.4,0l-0.4-0.4c-0.4-0.4-0.4-1.1-0.4-1.5s0-0.4,0-0.4c0-1.1,0-2.6,0-3.7c0-0.7,0-1.1,0-1.9
					c0-1.5-0.4-2.2-0.4-3c0-0.4,0-0.7,0.7-0.7c0.4,0,0.7,0,1.1,0c0.7,0,0.7,0,1.1,0.4c0,0,0,0,0.4,0.4c0.4,0,0.4,0,0.7,0
					c0.7,0,1.5-0.4,2.2-0.4c0.4,0,0.7,0,1.1,0c0.4,0,0.4,0.4,0.4,0.4c0,0.4-0.4,1.1-0.7,1.1c-0.7,0.7-3,0.7-3.7,0.7v2.2
					c1.1-0.4,2.2-0.4,3.4-0.4c0.4,0,0.4,0,0.4,0.4c0,0,0,0,0,0.4c-0.4,1.5-1.9,1.9-3.4,1.9h-0.4v2.2c1.5-0.4,3-0.4,4.5-0.4
					C465.9,592.3,465.9,592.3,465.9,592.7z"/>
				<path id="XMLID_214_" class="st2" d="M477.1,593.8c0,0.4,0,0.4-0.4,0.7c-0.7,0.4-1.1,0.4-1.5,0.4s-0.4,0-0.7-0.4
					c-0.7-0.4-1.1-1.9-1.1-3v-0.4l-2.2,0.4c-0.4,2.2-0.4,3-1.1,3c-1.1,0-1.5-0.4-1.5-0.7c0,0,0-0.4,0-0.7c0-0.7,0.4-1.9,0.4-1.9l0,0
					c-0.4,0-0.4-0.4-0.4-0.7c0,0,0,0,0-0.4s0-0.4,0.4-0.7h0.4c0.4-1.1,0.7-2.2,0.7-3c0.4-1.9,0.4-3,0.7-3.4s0.4-0.7,1.5-0.7
					c0.7,0,1.1,0,1.5,0.4s0.7,1.9,0.7,1.9s0.7,2.2,1.1,4.1h0.4c0.4,0,0.7,0,0.7,0.4s0,0.7-0.4,0.7c0,0-0.4,0.4-0.4,0.7
					C476.3,592.3,477.1,593,477.1,593.8z M473,589.3c-0.4-1.1-0.4-1.9-0.7-2.6c-0.4,0.7-0.4,1.9-0.7,3L473,589.3z"/>
				<path id="XMLID_217_" class="st2" d="M478.2,583.7c0.4,0,0.4,0,0.7,0c0,0,1.1,0,2.2-0.4c1.5-0.4,3.7-0.7,4.1-0.7c0,0,0,0,0.4,0
					s0.4,0,0.4,0.4s0.4,1.5,0.4,1.9c-0.7,0-3,0.7-3,0.7s0,2.6,0.4,4.5c0,2.2,0.4,3,0.4,3.7c0,0.4,0,0.7-0.4,0.7c0,0-0.4,0.4-0.7,0.4
					h-0.4c-0.7,0-0.7-0.4-1.1-0.7c-0.4-0.4-0.4-1.1-0.4-1.9v-0.4v-6l-1.9,0.4c0,0,0,0-0.4,0c0,0-0.4,0-0.7-0.4
					C477.8,585.9,477.8,584.8,478.2,583.7C477.8,584,477.8,583.7,478.2,583.7C477.8,583.7,478.2,583.7,478.2,583.7z"/>
			</g>
			<g id="XMLID_157_">
				<circle class="st3" cx="366" cy="588.2" r="2.6"/>
			</g>
			<g id="XMLID_156_">
				<circle class="st3" cx="450.5" cy="588.2" r="2.6"/>
			</g>
		</g>
	</g>
	<g id="XMLID_168_">
		<g id="XMLID_397_">
			<g id="XMLID_398_">
				<circle id="XMLID_399_" class="st4" cx="403.8" cy="371.9" r="125"/>
			</g>
		</g>
		<polygon id="XMLID_323_" class="st5" points="390.3,352 390.7,358.8 388.4,364 374.9,370 352.5,380.8 340.5,393.2 336.8,404 
			336,443.7 336.8,466.2 341.3,477.4 346.9,481.9 352.9,480 378.7,459.1 384.7,456.1 374.9,446 366.7,450.8 359.6,434.7 
			360.7,423.5 365.2,419.8 388.4,419.8 429.9,419.8 440.8,419.8 446.4,422 448.7,429.9 442.3,450.8 442.3,461.7 448.7,474.8 
			455,480.4 460.6,480 464.4,477 469.6,466.9 471.1,416 465.5,390.6 459.1,383.1 437.1,372.2 421.7,366.6 416.8,358.8 413.5,353.9 
			407.1,357.6 401.5,358 		"/>
		<polygon id="XMLID_181_" class="st6" points="386.9,269 376.4,269.7 370.4,271.2 368.2,280.9 368.2,303.4 370.8,305.6 
			383.5,301.5 396.6,292.2 404.1,279.4 408.6,285.8 419.5,297.4 434.1,305.6 438.2,306.8 441.9,295.2 440.4,277.6 439.3,271.6 
			432.6,269.3 417.6,270.1 		"/>
		<polygon id="XMLID_324_" class="st5" points="369.7,305.6 368.2,309.4 364.5,307.5 363.7,314.6 366.3,319.9 370.8,319.9 
			378.3,339.3 383.5,350.2 393.3,353.9 403.4,358.8 408.6,356.2 421.3,351.3 431.4,338.6 436.3,319.9 438.9,319.1 444.9,317.6 
			447.2,310.9 445.7,307.1 442.3,307.9 438.9,312.7 439.3,305.6 424.7,301.5 409.4,286.9 406,279.8 404.1,276.8 401.9,283.6 
			396.3,293.3 390.7,297.8 378.3,303.4 		"/>
		<path id="XMLID_326_" class="st7" d="M380.6,487.5l-21-52.8v-9.4c0,0,0-7.9,12.3-5.6h64.7c0,0,7.5-4.5,11.2,7.5l-10.5,35.9
			l-9,19.1l-3,7.1l-0.7,5.2c-25.4,4.1-43,0-43,0L380.6,487.5z"/>
		<path class="st8" d="M382.8,498.4L382.8,498.4c-1.1,0-1.9-1.1-1.9-1.9c0.7-11.2-3-18.7-8.6-31.1c-2.2-5.2-4.9-10.9-7.9-18
			c-4.9-11.2-5.6-19.8-3-25.1c1.9-3.7,4.9-4.5,5.2-4.5c1.1-0.4,1.9,0.4,2.2,1.5s-0.4,1.9-1.5,2.2c0,0-1.9,0.4-3,2.6
			c-1.5,3-2.2,9.4,3,22.1c3,7.1,5.6,12.7,7.9,17.6c5.6,12.3,9.7,20.6,9,32.9C384.7,497.6,383.9,498.4,382.8,498.4z"/>
		<polygon id="XMLID_325_" class="st5" points="363.7,450.8 364.1,450.8 373.4,446 377.9,443.7 378.3,441.1 386.5,442.6 
			400.8,444.8 400,451.6 384.7,453.8 378.7,459.1 368.2,468 		"/>
		<path class="st8" d="M342.4,480.4c-0.7,0-1.9-0.7-1.9-1.5c-6.7-41.9,0-87.6,0-87.9c0-1.1,1.1-1.9,2.2-1.5c1.1,0,1.9,1.1,1.5,2.2
			c0,0.4-6.7,45.3,0,86.8C344.3,479.3,343.5,480.4,342.4,480.4L342.4,480.4z"/>
		<polygon id="XMLID_304_" class="st6" points="381.3,367.4 376.8,370 375.7,366.6 377.6,346 380.2,343.8 386.5,351.3 393.3,353.9 
			389.9,362.1 386.2,366.6 		"/>
		<polygon id="XMLID_303_" class="st6" points="413.5,353.9 420.2,350.9 426.6,344.9 430.3,346 432.2,364.4 430.7,370 424,367 
			421,365.9 417.2,360.3 415.7,356.5 		"/>
		<path class="st8" d="M403.8,331.1L403.8,331.1c-1.1,0-1.9-0.7-1.9-1.9c0.4-24.3-7.9-34.4-7.9-34.8c-0.7-0.7-0.4-1.9,0.4-2.6
			c0.7-0.7,1.9-0.4,2.6,0.4c0.4,0.4,9.4,11.2,8.6,37C405.6,330,404.5,331.1,403.8,331.1z"/>
		<path class="st8" d="M387.7,352c-0.4,0-0.7,0-1.1-0.4c-8.6-7.9-13.1-20.2-15-28.8c-2.2-9.4-2.2-16.8-2.2-17.2
			c0-1.1,0.7-1.9,1.9-1.9s1.9,0.7,1.9,1.9c0,0.4,0.7,29.2,16.1,43c0.7,0.7,0.7,1.9,0,2.6C388.8,352,388.4,352,387.7,352z"/>
		<g id="XMLID_349_">
			<path class="st8" d="M378.3,370L378.3,370c-0.7,0-1.5-0.7-1.5-1.5l1.9-22.8c0-0.7,0.7-1.5,1.5-1.1c0.7,0,1.5,0.7,1.1,1.5
				l-1.9,22.8C379.4,369.2,379.1,370,378.3,370z"/>
			<path class="st8" d="M426.6,368.1c-0.7,0-1.5-0.7-1.5-1.5v-21.7c0-0.7,0.7-1.5,1.5-1.5c0.7,0,1.5,0.7,1.5,1.5v21.7
				C428.1,367.4,427.3,368.1,426.6,368.1z"/>
		</g>
		<g id="XMLID_338_">
			<path class="st8" d="M368.2,300.8c-0.4,0-0.7,0-1.1-0.4c-0.7-0.7-0.7-1.9,0-2.6c0,0,12.7-14.6,14.2-28.8c0-1.1,1.1-1.9,2.2-1.5
				c1.1,0,1.9,1.1,1.5,2.2c-1.9,15.3-14.6,30.3-15.3,31.1C369.3,300.8,369,300.8,368.2,300.8z"/>
			<path class="st8" d="M371.9,305.6c-0.7,0-1.1-0.4-1.5-0.7c-0.7-0.7-0.4-1.9,0.4-2.6c0.4,0,19.8-13.8,25.1-32.6
				c0.4-1.1,1.5-1.5,2.2-1.1c1.1,0.4,1.5,1.5,1.1,2.2c-6,19.8-25.8,34.1-26.6,34.4C372.7,305.3,372.3,305.6,371.9,305.6z"/>
			<path class="st8" d="M437.1,307.9c-0.4,0-0.4,0-0.7,0c-16.1-5.6-24.7-15.7-28.8-23.2c-4.5-8.2-5.2-15-5.2-15
				c0-1.1,0.7-1.9,1.5-1.9c1.1,0,1.9,0.7,1.9,1.5l0,0c0,0,0.7,6.4,4.9,13.8c5.6,10.1,14.6,17.2,26.9,21.3c1.1,0.4,1.5,1.5,1.1,2.2
				C438.6,307.1,437.8,307.9,437.1,307.9z"/>
			<path class="st8" d="M440.4,303.8c-0.4,0-0.7,0-0.7-0.4c-19.5-11.2-26.9-32.2-27.3-32.9c-0.4-1.1,0-1.9,1.1-2.2s1.9,0,2.2,1.1
				c0,0.4,7.5,20.6,25.4,31.1c0.7,0.4,1.1,1.5,0.7,2.6C441.5,303.4,440.8,303.8,440.4,303.8z"/>
			<path class="st8" d="M441.9,297c-0.4,0-1.1-0.4-1.5-0.7C427,282.1,427,270.1,427,269.3c0-1.1,0.7-1.9,1.9-1.9l0,0
				c1.1,0,1.9,0.7,1.9,1.9c0,0,0,11.2,12.3,24.3c0.7,0.7,0.7,1.9,0,2.6C442.7,296.7,442.3,297,441.9,297z"/>
		</g>
		<g id="XMLID_74_">
			<path id="XMLID_75_" class="st9" d="M368.6,306c-0.4,0-1.1-0.4-1.5-0.7c-0.7-0.7-0.4-1.9,0.4-2.6c0.4-0.4,29.6-23.2,27.3-39.7
				c0-1.1,0.7-1.9,1.5-1.9c1.1,0,1.9,0.7,1.9,1.5c2.2,18.7-27.7,41.9-28.8,43C369.3,305.6,369,306,368.6,306z"/>
		</g>
		<g id="XMLID_72_">
			<path id="XMLID_73_" class="st9" d="M368.2,298.9c-0.4,0-0.7,0-1.1-0.4c-0.7-0.7-1.1-1.9-0.4-2.6c4.5-6,15.7-23.9,12.7-32.9
				c-0.4-1.1,0.4-1.9,1.1-2.2c1.1-0.4,1.9,0.4,2.2,1.1c4.1,12.7-12.3,35.2-13.1,36.3C369.3,298.9,369,298.9,368.2,298.9z"/>
		</g>
		<g id="XMLID_70_">
			<path id="XMLID_71_" class="st9" d="M440.4,306c-0.4,0-0.7,0-1.1-0.4c-1.1-1.1-31.1-24.3-28.8-43c0-1.1,1.1-1.9,1.9-1.5
				c1.1,0,1.9,1.1,1.5,1.9c-1.9,16.5,27.3,39.7,27.3,39.7c0.7,0.7,0.7,1.9,0.4,2.6C441.5,305.6,440.8,306,440.4,306z"/>
		</g>
		<g id="XMLID_68_">
			<path id="XMLID_69_" class="st9" d="M440.8,298.9c-0.4,0-1.1-0.4-1.5-0.7c-0.7-1.1-17.2-23.6-13.1-36.3c0.4-1.1,1.5-1.5,2.2-1.1
				c1.1,0.4,1.5,1.5,1.1,2.2c-3,9,8.2,26.9,12.7,32.9c0.7,0.7,0.4,1.9-0.4,2.6C441.5,298.9,441.2,298.9,440.8,298.9z"/>
		</g>
		<g id="XMLID_63_">
			<g id="XMLID_64_">
				<path id="XMLID_65_" class="st9" d="M404.1,361L404.1,361c-0.4,0-1.1,0-1.1-0.4c-6-4.1-9.7-5.2-12.3-6.4c-5.2-1.9-7.9-3-13.1-12
					c-8.6-14.6-9.7-35.2-9.7-35.9s0.7-1.9,1.5-1.9c0.4,0,31.1-5.6,33.7-29.6c0-0.7,0.7-1.5,1.9-1.5c0.7,0,1.5,0.4,1.9,1.5
					s5.6,23.9,33.7,29.9c0.7,0,1.5,1.1,1.5,1.9c0,0.7-1.1,21.3-9.7,35.9c-5.2,9-8.2,10.1-13.1,12c-3,1.1-6.7,2.2-12.3,6.4
					C404.9,361,404.5,361,404.1,361z M371.2,307.5c0.4,4.9,2.2,21.3,9.4,32.9c4.9,8.2,7.1,9,11.2,10.5c3,1.1,6.7,2.2,12.3,6.4
					c5.6-3.7,9.7-5.2,12.3-6.4c4.5-1.5,6.4-2.2,11.2-10.5c6.7-11.6,9-28.1,9.4-32.9c-20.2-4.9-28.8-18.3-32.6-26.2
					C398.5,299.6,377.2,306,371.2,307.5z"/>
			</g>
		</g>
		<g id="XMLID_61_">
			<path id="XMLID_62_" class="st9" d="M409.4,332.6h-7.5c-0.4,0-1.1-0.4-1.1-0.4c-0.4-0.4-0.4-0.7-0.4-1.5
				c1.1-20.2-6.7-34.8-6.7-34.8c-0.4-0.7,0-1.9,0.7-2.6c0.7-0.4,1.9,0,2.6,0.7c0.4,0.7,7.5,14.6,7.1,34.8h5.6c1.1,0,1.9,0.7,1.9,1.9
				C411.2,331.8,410.5,332.6,409.4,332.6z"/>
		</g>
		<g id="XMLID_59_">
			<path id="XMLID_60_" class="st9" d="M405.6,343.8c-1.9,0-3.7-0.7-4.9-1.5c-0.7-0.7-1.1-1.9-0.4-2.6c0.7-0.7,1.5-1.1,2.6-0.4
				c0.4,0.4,4.1,2.6,7.9-2.2c0.7-0.7,1.9-0.7,2.6-0.4c0.7,0.7,0.7,1.9,0.4,2.6C410.9,343.1,407.9,343.8,405.6,343.8z"/>
		</g>
		<g id="XMLID_57_">
			<path id="XMLID_58_" class="st9" d="M369,307.9c-0.7,0-1.5-0.4-1.9-1.5s-8.6-30.7,8.6-45.3c0.4-0.4,0.7-0.4,1.1-0.4h54.6
				c0.4,0,0.7,0,1.1,0.4c16.8,14.6,9,44.2,8.6,45.3c-0.4,1.1-1.1,1.5-2.2,1.1s-1.5-1.1-1.1-2.2c0-0.4,7.5-28.1-7.1-41.2h-52.8
				c-14.6,13.1-7.1,40.8-7.1,41.2c0.4,1.1-0.4,1.9-1.1,2.2C369.3,307.9,369.3,307.9,369,307.9z"/>
		</g>
		<g id="XMLID_19_">
			<path id="XMLID_22_" class="st9" d="M404.1,276.8c-1.1,0-1.9-0.7-1.9-1.9v-12c0-1.1,0.7-1.9,1.9-1.9s1.9,0.7,1.9,1.9v12
				C406,275.7,405.2,276.8,404.1,276.8z"/>
		</g>
		<g id="XMLID_80_">
			<path id="XMLID_402_" class="st9" d="M380.2,494.2c-0.4-0.4-0.4-0.7-0.4-1.1c-1.9-11.2-8.6-22.8-8.6-22.8c-3-5.2-0.7-4.9,0-5.6
				s2.6,3,4.9,7.1c0.4,0.4,5.6,8.6,7.5,20.6c0,0.4,0.4,1.9,0.4,2.2L380.2,494.2z"/>
		</g>
		<g id="XMLID_79_">
			<path id="XMLID_401_" class="st9" d="M424.3,495c-0.4-0.4,0-1.5,0-2.2c1.9-12,7.5-20.2,7.5-20.6c0,0,5.2-8.2,5.2-15.3
				c0-1.1,0.7-1.9,1.9-1.9l0,0c1.1,0,1.9,0.7,1.9,1.9c0,8.2-5.6,17.2-6,17.6c0,0-5.2,8.2-7.1,19.1c0,0.4,0,0.7,0,0.7L424.3,495z"/>
		</g>
		<path class="st9" d="M441.9,451.6c-0.4,0-0.7,0-0.7-0.4c-0.7-0.4-1.1-1.5-0.7-2.6c5.2-10.5,6-17.6,5.6-21.7
			c-0.4-3-1.1-4.9-1.9-5.6h-80.1c-1.5,1.5-7.5,8.6,3,25.4c0.4,0.7,0.4,1.9-0.7,2.6c-0.7,0.4-1.9,0.4-2.6-0.7
			c-13.8-22.5-2.2-30.7-1.5-31.1c0.4-0.4,0.7-0.4,1.1-0.4h81.6c0.4,0,1.1,0.4,1.5,0.4c0.4,0.4,9,9.4-2.6,32.2
			C443,451.2,442.7,451.6,441.9,451.6z"/>
		<g id="XMLID_26_">
			<polygon id="XMLID_333_" class="st10" points="385,242 391.8,206.8 404.1,213.2 416.5,206.8 423.6,242 418.3,247.6 404.5,239.4 
				390.7,247.3 			"/>
			<path class="st8" d="M386.9,245.8C386.9,245.8,386.5,245.8,386.9,245.8c-1.5-0.4-1.9-1.1-1.9-2.2l7.1-35.9
				c0.4-1.1,1.1-1.5,2.2-1.5c1.1,0.4,1.5,1.1,1.5,2.2l-7.1,35.9C388.4,245,387.7,245.8,386.9,245.8z"/>
			<path id="XMLID_335_" class="st9" d="M418.3,249.5c-0.4,0-0.7,0-1.1-0.4l-12.7-7.9l-13.1,7.5c-0.7,0.4-1.5,0.4-2.2-0.4l-5.6-5.2
				c-0.4-0.4-0.7-1.1-0.7-1.9l6.7-35.2c0-0.7,0.4-1.1,1.1-1.5c0.4-0.4,1.1-0.4,1.5,0l11.6,5.6l11.6-6c0.4-0.4,1.1-0.4,1.5,0
				s0.7,0.7,1.1,1.5l7.1,35.2c0,0.7,0,1.1-0.4,1.5l-5.2,5.6C419.1,249.5,418.7,249.5,418.3,249.5z M404.5,237.5c0.4,0,0.7,0,1.1,0.4
				l12.3,7.5l3.7-3.7l-6.4-32.2l-10.1,5.2c-0.4,0.4-1.1,0.4-1.5,0l-10.5-5.2l-6,31.8l3.7,3.4l12.7-7.1
				C403.8,237.5,404.1,237.5,404.5,237.5z"/>
		</g>
		<g>
			<circle id="XMLID_14_" class="st11" cx="404.1" cy="207.6" r="4.1"/>
			<path class="st9" d="M404.1,213.6c-3.4,0-6-2.6-6-6c0-3.4,2.6-6,6-6s6,2.6,6,6C410.1,211,407.1,213.6,404.1,213.6z M404.1,205.7
				c-1.1,0-2.2,1.1-2.2,2.2s1.1,2.2,2.2,2.2c1.1,0,2.2-1.1,2.2-2.2S405.2,205.7,404.1,205.7z"/>
		</g>
		<g>
			<ellipse id="XMLID_13_" class="st12" cx="404.1" cy="197.9" rx="4.1" ry="6"/>
			<path class="st9" d="M404.1,205.7c-3.4,0-6-3.4-6-7.9s2.6-7.9,6-7.9s6,3.4,6,7.9C409.7,202.3,407.1,205.7,404.1,205.7z
				 M404.1,193.7c-0.7,0-2.2,1.5-2.2,4.1c0,2.6,1.1,4.1,2.2,4.1c0.7,0,2.2-1.5,2.2-4.1C406,195.2,404.9,193.7,404.1,193.7z"/>
		</g>
		<g>
			<circle id="XMLID_12_" class="st11" cx="404.1" cy="188.1" r="4.1"/>
			<path class="st9" d="M404.1,193.7c-3.4,0-6-2.6-6-6s2.6-6,6-6s6,2.6,6,6C409.7,191.1,407.1,193.7,404.1,193.7z M404.1,185.9
				c-1.1,0-2.2,1.1-2.2,2.2s1.1,2.2,2.2,2.2c1.1,0,2.2-1.1,2.2-2.2C406,186.6,405.2,185.9,404.1,185.9z"/>
		</g>
		<g>
			<circle id="XMLID_11_" class="st12" cx="404.1" cy="217.7" r="4.1"/>
			<path class="st9" d="M404.1,223.3c-3.4,0-6-2.6-6-6s2.6-6,6-6s6,2.6,6,6S407.1,223.3,404.1,223.3z M404.1,215.4
				c-1.1,0-2.2,1.1-2.2,2.2c0,1.1,1.1,2.2,2.2,2.2c1.1,0,2.2-1.1,2.2-2.2C406.4,216.6,405.2,215.4,404.1,215.4z"/>
		</g>
		<g>
			<ellipse id="XMLID_10_" class="st11" cx="404.1" cy="227.4" rx="4.1" ry="6"/>
			<path class="st9" d="M404.1,234.9c-3.4,0-6-3.4-6-7.9s2.6-7.9,6-7.9s6,3.4,6,7.9C409.7,231.5,407.1,234.9,404.1,234.9z
				 M404.1,223.3c-0.7,0-2.2,1.5-2.2,4.1c0,2.6,1.1,4.1,2.2,4.1c0.7,0,2.2-1.5,2.2-4.1C406,224.8,404.9,223.3,404.1,223.3z"/>
		</g>
		<g id="XMLID_154_">
			<polygon id="XMLID_328_" class="st13" points="372.3,426.5 443.8,426.5 447.5,428.7 436.3,437.4 410.9,446.7 395.1,446 
				374.2,437.4 			"/>
			<polygon id="XMLID_353_" class="st14" points="361.1,426.5 406.7,426.5 409.7,433.2 403.8,437.4 409.7,443.7 409.4,446.7 
				393.3,445.6 378.3,441.1 366.3,432.5 			"/>
			<path class="st9" d="M405.2,448.6h-0.4c-24.7-0.4-44.5-19.8-45.7-21c-0.4-0.4-0.7-1.5-0.4-1.9c0.4-0.7,1.1-1.1,1.9-1.1l0,0h86.4
				c0.7,0,1.5,0.4,1.5,1.1c0.4,0.7,0.4,1.5-0.4,1.9C447.5,428.7,431.1,448.6,405.2,448.6z M365.6,428.4c6.7,5.6,22.1,16.5,39.3,16.5
				h0.4c18.3,0,31.8-10.9,37.4-16.5H365.6z"/>
			<g id="XMLID_327_">
				<g id="XMLID_329_">
					<g>
						<path id="XMLID_9_" class="st8" d="M360.7,426.5c0,0,23.6-12.3,41.9-13.1c23.6-1.1,43.4,12.7,43.4,12.7h-15h-41.5L360.7,426.5
							z"/>
						<path class="st9" d="M360.7,428.4c-0.7,0-1.5-0.7-1.9-1.5s0-1.9,1.1-2.2s23.9-12.3,42.7-13.1c23.9-1.1,43.8,12.3,44.5,13.1
							c0.7,0.4,1.1,1.5,0.7,2.2c-0.4,0.7-1.1,1.1-1.9,1.1h-15h-41.5L360.7,428.4L360.7,428.4z M405.2,415.3c-0.7,0-1.9,0-2.6,0
							c-11.2,0.4-25.1,5.6-33.3,9.4l20.2-0.4h49.8C431.8,420.5,419.1,415.3,405.2,415.3z"/>
					</g>
				</g>
			</g>
			<g>
				<path id="XMLID_8_" class="st8" d="M397,413.8c0,0,8.2-1.9,13.8,5.6"/>
				<path class="st9" d="M410.9,421.6c-0.7,0-1.1-0.4-1.5-0.7c-4.9-6.4-11.6-5.2-11.6-5.2c-1.1,0.4-1.9-0.4-2.2-1.5s0.4-1.9,1.5-2.2
					c0.4,0,9.4-2.2,15.7,6.4c0.7,0.7,0.4,1.9-0.4,2.6C411.6,421.6,411.2,421.6,410.9,421.6z"/>
			</g>
		</g>
		<g>
			<circle id="XMLID_7_" class="st12" cx="404.1" cy="237.2" r="2.2"/>
			<path class="st9" d="M404.1,241.3c-2.2,0-4.1-1.9-4.1-4.1s1.9-4.1,4.1-4.1s4.1,1.9,4.1,4.1S406.4,241.3,404.1,241.3z
				 M404.1,236.8c-0.4,0-0.4,0.4-0.4,0.4c0,0.4,0.4,0.4,0.4,0.4c0.4,0,0.4-0.4,0.4-0.4C404.5,236.8,404.1,236.8,404.1,236.8z"/>
		</g>
		<path class="st9" d="M391.8,208.7c-0.4,0-0.4,0-0.7,0c-1.1-0.4-1.5-1.5-1.1-2.6l8.6-20.6c0.4-1.1,1.5-1.5,2.6-1.1
			c1.1,0.4,1.5,1.5,1.1,2.6l-8.6,20.6C393.3,208.3,392.5,208.7,391.8,208.7z"/>
		<path class="st9" d="M416.1,208.7c-0.7,0-1.5-0.4-1.9-1.1l-8.6-20.6c-0.4-1.1,0-1.9,1.1-2.6c1.1-0.4,1.9,0,2.6,1.1l8.6,20.6
			c0.4,1.1,0,1.9-1.1,2.6C416.5,208.7,416.1,208.7,416.1,208.7z"/>
		<path class="st9" d="M441.5,322.5c-0.4,0-0.7,0-0.7,0c-3.4-0.7-3.7-5.6-2.6-10.1c1.1-4.5,4.1-8.2,7.5-7.5
			c3.4,0.7,3.7,5.6,2.6,10.1c-0.7,2.2-1.5,4.1-2.6,5.2C443.8,322.1,442.3,322.5,441.5,322.5z M444.5,308.6c-0.7,0.4-1.9,1.9-2.6,4.9
			s-0.4,4.9,0,5.2c0.7-0.4,1.9-1.9,2.6-4.9l0,0C444.9,311.2,444.5,309,444.5,308.6z"/>
		<path class="st9" d="M368.2,322.5c-1.1,0-2.2-0.4-3.7-2.2c-1.1-1.5-1.9-3.4-2.6-5.2l0,0c-0.7-2.2-0.7-4.1-0.4-6
			c0.4-3,1.9-3.7,3-4.1c0.7-0.4,2.6-0.4,4.9,1.9c1.1,1.5,1.9,3.4,2.6,5.2c1.1,4.5,0.7,9.4-2.6,10.1
			C369,322.5,368.6,322.5,368.2,322.5z M365.6,308.6c-0.4,0.7-0.7,2.6,0,5.2l0,0c0.7,3,2.2,4.5,2.6,4.9c0.4-0.7,0.7-2.6,0-5.2
			C367.5,310.5,366,309,365.6,308.6z"/>
		<polygon id="XMLID_25_" class="st11" points="360.7,244.3 371.6,249.9 378.3,241.6 388.8,249.1 404.5,239.4 421,249.9 429.9,242 
			438.2,249.9 448.3,244.6 438.2,269 393.3,269 374.2,269 369,265.2 358.5,244.3 		"/>
		<g id="XMLID_16_">
			<path class="st8" d="M373.8,269.7c-0.7,0-1.5-0.4-1.5-1.1l-10.9-22.5c-0.4-0.7,0-1.9,0.7-2.6c0.7-0.4,1.9,0,2.6,0.7l10.9,22.5
				c0.4,0.7,0,1.9-0.7,2.6C374.6,269.7,374.2,269.7,373.8,269.7z"/>
			<g id="XMLID_55_">
				<path id="XMLID_56_" class="st9" d="M371.2,270.8c-0.7,0-1.9-0.4-1.9-1.5c0,0-6.7-17.2-13.1-24.3c-0.4-0.7-0.7-1.5-0.4-2.2
					s0.7-1.5,1.9-1.5c0.7,0,6-0.7,13.8,5.6l5.6-7.1c0.4-0.4,1.1-0.7,1.5-0.7c0.7,0,1.1,0,1.5,0.7l8.2,7.5l15-9.7
					c1.1-0.7,2.2-0.4,3,0.7c0.7,1.1,0.4,2.2-0.7,3l-16.5,10.5c-0.7,0.4-1.9,0.4-2.6-0.4l-7.5-7.1l-5.6,7.1c-0.4,0.4-1.1,0.7-1.5,0.7
					c-0.7,0-1.1,0-1.5-0.7c-2.6-2.2-4.9-3.7-6.7-4.9c5.6,8.6,10.1,20.2,10.5,21c0.4,1.1,0,2.2-1.1,3
					C371.6,270.5,371.2,270.8,371.2,270.8z"/>
			</g>
			<g id="XMLID_53_">
				<path id="XMLID_54_" class="st9" d="M437.4,270.8c-0.4,0-0.4,0-0.7,0c-1.1-0.4-1.9-1.9-1.1-3c0.4-0.7,4.9-12.3,10.5-21
					c-1.9,0.7-4.1,2.2-6.7,4.9c-0.4,0.4-1.1,0.7-1.5,0.7c-0.7,0-1.1-0.4-1.5-0.7l-5.6-7.1l-7.5,7.1c-0.7,0.7-1.9,0.7-2.6,0.4
					l-16.5-10.5c-1.1-0.7-1.5-1.9-0.7-3c0.7-1.1,1.9-1.5,3-0.7l15,9.7l8.2-7.5c0.4-0.4,1.1-0.7,1.5-0.7c0.7,0,1.1,0.4,1.5,0.7
					l5.6,7.1c7.9-6.4,13.1-5.6,13.8-5.6s1.5,0.7,1.9,1.5c0.4,0.7,0,1.5-0.4,2.2c-6.7,7.1-13.1,24.3-13.1,24.3
					C439.3,270.1,438.6,270.8,437.4,270.8z"/>
			</g>
			<rect x="371.2" y="267.1" class="st9" width="66.2" height="3.7"/>
		</g>
		<g id="XMLID_86_">
			<path id="XMLID_359_" class="st10" d="M383.5,366.6c0,0,16.5,26.6,42.7,1.1l7.9,3c0,0-12.3,23.9-29.9,24.3
				c0,0-17.2,2.2-28.8-25.4L383.5,366.6z"/>
			<path class="st8" d="M378.3,374.1c-0.7,0-1.1-0.4-1.5-0.7c-0.4-0.7-0.4-1.9,0.7-2.6l4.9-3c0.7-0.4,1.9-0.4,2.6,0.7
				c0.4,0.7,0.4,1.9-0.7,2.6l-4.9,3C379.1,373.7,378.7,374.1,378.3,374.1z"/>
			<path id="XMLID_360_" class="st9" d="M403,396.9c-4.1,0-19.5-1.9-29.6-26.6l-0.7-1.9l12-4.5l0.7,1.5c0,0,6.4,9.7,16.5,11.2
				c7.5,0.7,15-2.6,23.2-10.5l0.7-0.7l10.9,4.1l-1.1,1.9c-0.4,1.1-13.1,24.7-31.4,25.1C403.8,396.9,403.4,396.9,403,396.9z
				 M377.6,370.7c10.9,23.6,25.4,22.5,26.2,22.5l0,0c13.5-0.4,23.9-16.1,27.3-21.3l-4.5-1.9c-8.6,7.9-17.2,11.6-25.4,10.5
				c-9.7-1.1-16.1-8.6-18.3-11.6L377.6,370.7z"/>
		</g>
		<g id="XMLID_92_">
			<path id="XMLID_352_" class="st11" d="M439.7,373.7c0,0-12.3,28.8-36.3,28.8c-23.6,0-36.3-28.8-36.3-28.8l-6.4,3
				c0,0,14.2,19.8,17.2,26.9c3,6.7,14.6,9.4,18.3,10.1c2.6,0.7,5.2,1.5,6.4,1.9c0,0,0,0.4,0.4,0c0.4,0,0.4,0,0.4,0s3.7-1.5,6.4-2.2
				c3.7-1.1,15.3-3.4,18.3-10.1c3-6.7,17.2-26.9,17.2-26.9L439.7,373.7z"/>
			<path class="st8" d="M363.7,379.7c-0.7,0-1.5-0.4-1.5-1.1c-0.4-0.7,0-1.9,0.7-2.6l3.7-1.9c0.7-0.4,1.9,0,2.6,0.7
				c0.4,0.7,0,1.9-0.7,2.6l-3.7,1.9C364.5,379.7,364.1,379.7,363.7,379.7z"/>
			<path id="XMLID_356_" class="st9" d="M404.1,417.9c-0.4,0-0.4,0-0.7,0l0,0c-0.4,0-0.7,0-1.1-0.4c-1.5-0.4-3.7-1.1-6-1.9h-0.7
				c-4.9-1.1-15.7-3.7-18.7-11.2c-3-6.7-16.8-26.2-16.8-26.6c-0.4-0.4-0.4-1.1-0.4-1.5s0.4-1.1,1.1-1.1l6.4-3c0.4-0.4,1.1-0.4,1.5,0
				c0.4,0,0.7,0.4,1.1,1.1c0,0.4,12.3,27.7,34.4,27.7c22.1,0,34.4-27.3,34.4-27.7c0.4-0.4,0.7-0.7,1.1-1.1c0.4,0,1.1,0,1.5,0l6.4,3
				c0.4,0.4,0.7,0.7,1.1,1.1c0,0.4,0,1.1-0.4,1.5c0,0.4-14.2,19.8-16.8,26.6c-3,7.5-14.2,10.1-18.7,11.2H412
				c-2.6,0.7-6.4,2.2-6.4,2.2C404.5,417.9,404.1,417.9,404.1,417.9z M403.8,414.2L403.8,414.2c1.1-0.4,4.1-1.5,6.4-1.9h0.7
				c3.7-0.7,13.8-3.4,16.5-9c2.6-6,12.3-20.2,16.1-25.4l-2.6-1.1c-3.4,6.4-15.7,28.1-37,28.1c-21.3,0-33.7-21.7-37-28.1l-2.6,1.1
				c3.7,5.2,13.5,19.5,16.1,25.4c2.6,5.6,12.3,8.2,16.5,9h0.7C399.6,412.7,402.3,413.4,403.8,414.2
				C403.8,413.8,403.8,414.2,403.8,414.2z"/>
		</g>
		<g id="XMLID_93_">
			<circle id="XMLID_91_" class="st9" cx="367.1" cy="319.9" r="3.7"/>
			
				<rect x="366.3" y="319.9" transform="matrix(0.9999 -1.617585e-02 1.617585e-02 0.9999 -5.2712 5.9841)" class="st9" width="1.9" height="18"/>
			<ellipse id="XMLID_95_" class="st9" cx="367.5" cy="343.4" rx="4.9" ry="6.7"/>
			<rect x="366" y="344.9" class="st9" width="1.9" height="13.1"/>
			<circle id="XMLID_97_" class="st9" cx="367.5" cy="358.8" r="4.9"/>
		</g>
		<g id="XMLID_102_">
			<circle id="XMLID_127_" class="st9" cx="441.9" cy="319.9" r="3.7"/>
			<line id="XMLID_118_" class="st15" x1="441.9" y1="319.9" x2="442.3" y2="337.8"/>
			<ellipse id="XMLID_117_" class="st9" cx="442.3" cy="343.4" rx="4.9" ry="6.7"/>
			<rect x="440.8" y="344.9" class="st9" width="1.9" height="13.1"/>
			<circle id="XMLID_112_" class="st9" cx="442.3" cy="358.8" r="4.9"/>
		</g>
		<polygon id="XMLID_131_" class="st10" points="374.9,264.8 368.2,251.4 373.4,255.1 380.2,247.6 388.4,255.1 404.5,247.6 
			401.5,257 404.5,264.8 		"/>
		<path id="XMLID_128_" class="st11" d="M391,238.3l4.1-22.1c0,0,0,13.8,0,12.7c0-1.1,1.1-4.5,1.1-4.5l0.7,13.5l-5.2,4.1L391,238.3z
			"/>
		<path id="XMLID_138_" class="st11" d="M417.6,238.3l-4.1-22.1c0,0,0,13.8,0,12.7c0-1.1-1.1-4.5-1.1-4.5l-0.7,13.5l4.9,4.1
			L417.6,238.3z"/>
		<circle id="XMLID_146_" class="st10" cx="367.5" cy="343.8" r="3"/>
		<circle id="XMLID_148_" class="st10" cx="441.9" cy="343.8" r="3"/>
		<circle id="XMLID_178_" class="st10" cx="367.5" cy="358.8" r="2.6"/>
		<circle id="XMLID_180_" class="st10" cx="442.3" cy="358.8" r="2.6"/>
		
			<rect x="360.9" y="354.1" transform="matrix(0.1006 -0.9949 0.9949 0.1006 -15.4647 694.913)" class="st9" width="31.4" height="3.7"/>
		
			<rect x="429.5" y="340.8" transform="matrix(0.9949 -0.1005 0.1005 0.9949 -33.6471 45.1642)" class="st9" width="3.7" height="31.4"/>
		
			<rect x="376.2" y="355.9" transform="matrix(2.881026e-02 -0.9996 0.9996 2.881026e-02 16.0522 732.0686)" class="st9" width="17.2" height="3.7"/>
		
			<rect x="421.7" y="349.4" transform="matrix(0.9996 -2.886796e-02 2.886796e-02 0.9996 -10.1589 12.3776)" class="st9" width="3.7" height="17.2"/>
		<g>
			<polygon id="XMLID_6_" class="st10" points="336,444.8 361.1,439.2 363.7,444.8 336,450.8 			"/>
			<path class="st9" d="M334.1,453.4v-10.1l28.1-6l4.1,9L334.1,453.4z M337.9,446.3v2.2l22.8-5.2l-0.7-1.9L337.9,446.3z"/>
		</g>
		<polygon id="XMLID_322_" class="st9" points="404.1,296.3 402.6,291.4 404.5,286.9 406,291.4 		"/>
		<path class="st9" d="M346.1,483c-0.4,0-0.4,0-0.7,0c-1.9,0-3-0.7-4.1-2.2c-7.9-10.5-7.5-14.6-7.1-37.8c0.4-9,0.7-21.7,0.7-38.9
			c0-10.5,8.6-20.2,25.4-29.6c12.3-6.7,24.3-10.5,25.1-10.5c0.4,0,0.4,0,0.7,0s2.2-1.1,3.4-9.7c0-1.1,1.1-1.9,1.9-1.9
			c1.1,0,1.9,1.1,1.9,1.9c-0.7,6.7-2.2,10.9-4.5,12.3c-0.7,0.7-1.9,0.7-2.6,0.7c-1.9,1.1-13.1,4.9-23.9,10.5
			c-10.9,6-23.6,15-23.6,26.2c0,17.2-0.4,29.9-0.7,38.9c-0.7,23.2-0.7,26.2,6.4,35.6c0.4,0.4,0.7,0.7,1.5,0.7
			c7.1,0.7,25.4-16.5,31.4-22.1c2.6-2.6,3.4-3,3.7-3.4c4.1-2.2,7.5-3.7,10.5-4.5c1.9-0.7,3-1.1,4.1-1.9l0,0c0.7-0.4,1.9-1.1,2.2-1.5
			c-0.4-0.4-1.9-1.1-5.2-1.5c-6.7-1.1-9.4-0.7-10.9-0.4c-0.7,0.4-0.7,0.4-1.1,1.1c0,0.4,0,0.7-0.4,1.1c-4.1,7.9-12,8.2-16.5,8.2
			c-1.1,0-3,0-3.4,0.4c-0.4,0.7-1.5,1.1-2.6,0.4c-0.7-0.4-1.1-1.5-0.7-2.6c1.1-1.9,3.7-1.9,6.7-2.2c4.5,0,10.1-0.4,13.5-6.4l0,0
			c0.7-3.7,3.7-5.2,16.1-3.4c3.7,0.7,8.2,1.9,8.6,4.9c0.4,3-3.4,4.9-4.9,5.2c-1.1,0.7-3,1.1-4.5,1.9c-2.6,1.1-6,2.2-9.7,4.5
			c-0.4,0-1.5,1.5-3,2.6C367.5,471.4,353.6,483,346.1,483z M386.5,364L386.5,364L386.5,364z M386.5,364L386.5,364L386.5,364z
			 M386.5,364L386.5,364L386.5,364z"/>
		
			<rect x="441.2" y="320.6" transform="matrix(0.9999 -1.617585e-02 1.617585e-02 0.9999 -5.2735 7.1948)" class="st9" width="1.9" height="18"/>
		<polygon id="XMLID_76_" class="st5" points="408.2,445.2 407.5,445.2 418.3,440.7 426.6,440.7 428.5,440.3 430.3,441.8 
			431.1,442.2 432.2,445.2 441.9,450.8 450.2,463.9 462.1,472.2 459.1,481.9 438.9,467.3 430.7,457.9 420.6,455.3 414.2,451.9 
			409.7,450.8 407.5,449.7 406.4,448.6 406.7,447.1 		"/>
		<g id="XMLID_365_">
			<g id="XMLID_381_">
				<circle id="XMLID_395_" class="st9" cx="386.5" cy="311.6" r="6"/>
				<circle id="XMLID_394_" class="st8" cx="385" cy="310.1" r="1.9"/>
				<ellipse id="XMLID_393_" class="st8" cx="386.2" cy="313.9" rx="1.1" ry="0.7"/>
				<g id="XMLID_382_">
					<g id="XMLID_391_">
						<path id="XMLID_392_" class="st9" d="M386.5,305.6c2.2,0,4.1,1.5,4.1,1.5c0.4,0.4,0.4,0.7,0,0.7c-0.4,0.4-0.7,0.4-0.7,0
							c0,0-3-2.2-6.4,0c-0.4,0.4-0.7,0-0.7,0c-0.4-0.4,0-0.7,0-0.7C384.3,306,385.4,305.6,386.5,305.6z"/>
					</g>
					<g id="XMLID_389_">
						<path id="XMLID_390_" class="st9" d="M390.7,304.9L390.7,304.9c0.7,0.4,0.7,0.7,0.4,1.1l-1.1,1.5c-0.4,0.4-0.7,0.4-0.7,0.4
							c-0.4-0.4-0.4-0.7-0.4-0.7l1.1-1.5C390.3,304.9,390.3,304.9,390.7,304.9z"/>
					</g>
					<g id="XMLID_387_">
						<path id="XMLID_388_" class="st9" d="M387.7,304.1c0.4,0,0.7,0.4,0.7,0.7v1.9c0,0.4-0.4,0.7-0.7,0.7s-0.7-0.4-0.7-0.7v-1.9
							C387.3,304.5,387.3,304.1,387.7,304.1z"/>
					</g>
					<g id="XMLID_385_">
						<path id="XMLID_386_" class="st9" d="M382.8,304.9c0.4,0,0.4,0,0.4,0.4l1.1,1.5c0.4,0.4,0,0.7-0.4,0.7c-0.4,0.4-0.7,0-0.7-0.4
							l-1.1-1.5C382,305.6,382,304.9,382.8,304.9C382.4,304.9,382.8,304.9,382.8,304.9z"/>
					</g>
					<g id="XMLID_383_">
						<path id="XMLID_384_" class="st9" d="M385.4,304.1c0.4,0,0.7,0.4,0.7,0.7v1.9c0,0.4-0.4,0.7-0.7,0.7s-0.7-0.4-0.7-0.7v-1.9
							C384.7,304.5,385,304.1,385.4,304.1z"/>
					</g>
				</g>
			</g>
			<g id="XMLID_366_">
				<circle id="XMLID_380_" class="st9" cx="421.7" cy="311.6" r="6"/>
				<circle id="XMLID_379_" class="st8" cx="419.8" cy="310.1" r="1.9"/>
				<ellipse id="XMLID_378_" class="st8" cx="421.3" cy="313.9" rx="1.1" ry="0.7"/>
				<g id="XMLID_367_">
					<g id="XMLID_376_">
						<path id="XMLID_377_" class="st9" d="M421.7,305.6c2.2,0,4.1,1.5,4.1,1.5c0.4,0.4,0.4,0.7,0,0.7c-0.4,0.4-0.7,0.4-0.7,0
							c0,0-3-2.2-6.4,0c-0.4,0.4-0.7,0-0.7,0c-0.4-0.4,0-0.7,0-0.7C419.1,306,420.2,305.6,421.7,305.6z"/>
					</g>
					<g id="XMLID_374_">
						<path id="XMLID_375_" class="st9" d="M425.5,304.9C425.5,304.9,425.8,304.9,425.5,304.9c0.7,0.4,0.7,0.7,0.4,1.1l-1.1,1.5
							c-0.4,0.4-0.7,0.4-0.7,0.4c-0.4-0.4-0.4-0.7-0.4-0.7l1.1-1.5C425.1,304.9,425.1,304.9,425.5,304.9z"/>
					</g>
					<g id="XMLID_372_">
						<path id="XMLID_373_" class="st9" d="M422.8,304.1c0.4,0,0.7,0.4,0.7,0.7v1.9c0,0.4-0.4,0.7-0.7,0.7s-0.7-0.4-0.7-0.7v-1.9
							C422.1,304.5,422.5,304.1,422.8,304.1z"/>
					</g>
					<g id="XMLID_370_">
						<path id="XMLID_371_" class="st9" d="M417.6,304.9c0.4,0,0.4,0,0.4,0.4l1.1,1.5c0.4,0.4,0,0.7-0.4,0.7c-0.4,0.4-0.7,0-0.7-0.4
							l-1.1-1.5C416.8,305.6,416.8,304.9,417.6,304.9L417.6,304.9z"/>
					</g>
					<g id="XMLID_368_">
						<path id="XMLID_369_" class="st9" d="M420.2,304.1c0.4,0,0.7,0.4,0.7,0.7v1.9c0,0.4-0.4,0.7-0.7,0.7s-0.7-0.4-0.7-0.7v-1.9
							C419.8,304.5,419.8,304.1,420.2,304.1z"/>
					</g>
				</g>
			</g>
		</g>
		<path class="st9" d="M457.3,482.6c-4.9,0-9-4.5-14.2-10.5c-3.7-4.1-7.9-8.6-13.1-13.1c-1.9-1.5-5.6-2.2-8.2-3
			c-1.9-0.4-3.4-0.7-4.1-1.5c-1.1-0.7-3-1.5-3-1.9l0,0c-0.7,0-2.2-0.4-6-1.9c-0.4-0.4-1.1-0.7-1.1-1.1c0-0.4-1.1-3.7,0.4-6.4
			c0.7-1.1,1.9-2.2,4.9-2.2c2.2,0,3.7-0.7,4.9-1.1c2.6-0.7,5.6-1.9,10.1,1.1c0,0,0.4,0,0.4-0.4c0.7-0.4,1.9-1.1,3-0.7
			c0.7,0,1.1,0.7,1.5,1.5c2.2,4.5,8.2,7.1,12.7,9c3.4,1.1,5.6,2.2,6.7,3.7c0.4,0.7,0.4,1.9-0.7,2.6c-0.7,0.4-1.9,0.4-2.6-0.7
			c-0.4-0.7-3-1.5-4.9-2.2c-4.9-1.9-11.2-4.5-14.2-9.4c-0.7,0.7-2.2,1.1-3.4,0.4c-3.4-2.2-4.9-1.9-7.5-0.7c-1.5,0.4-3.4,1.1-6,1.1
			c-0.7,0-1.5,0.4-1.9,0.7c-0.4,0.7-0.4,1.5-0.4,2.2c3,1.1,3.7,1.1,4.1,1.1c1.1,0,1.5,0.4,4.9,2.2c0.4,0.4,1.9,0.7,3.4,1.1
			c3,0.7,7.1,1.9,9.4,3.7c5.6,4.5,9.7,9,13.8,13.5c4.9,5.2,8.6,9.4,11.6,9.4c1.5,0,3.4-1.5,5.2-4.1c6.7-9,6.4-10.5,5.6-29.9
			c-0.4-9.4-0.7-22.1-0.7-41.2c0-11.2-12.7-20.6-23.6-26.2c-10.9-6-21.7-9.4-23.9-10.1c-0.7,0-1.5,0-2.6-0.7
			c-2.6-1.9-4.1-5.6-4.5-12.3c0-1.1,0.7-1.9,1.9-1.9s1.9,0.7,1.9,1.9c0.7,9,3,9.7,3.4,9.7s0.7,0,0.7,0c0.4,0,12.7,3.7,25.1,10.5
			c16.8,9.4,25.4,19.1,25.4,29.6c0,19.1,0.4,31.8,0.7,40.8c0.7,19.8,0.7,22.5-6.4,32.2C463.3,480.8,460.6,482.6,457.3,482.6
			C457.6,482.6,457.6,482.6,457.3,482.6z M420.2,364L420.2,364L420.2,364z M420.2,364L420.2,364L420.2,364z M420.2,364L420.2,364
			L420.2,364z M420.2,364L420.2,364L420.2,364z"/>
		<g>
			<polygon id="XMLID_5_" class="st10" points="447.9,441.1 470,444.1 469.6,450.8 446.8,447.1 			"/>
			<path class="st9" d="M471.5,453.1l-26.9-4.5l1.5-9.7l25.4,3.4L471.5,453.1z M449,445.6l19.1,3v-3l-18.7-2.6L449,445.6z"/>
		</g>
		<g>
			<path id="XMLID_4_" class="st5" d="M362.2,451.9c0,0,5.6-1.5,10.1-4.5c1.5-1.1,7.5-4.5,6.4-5.6c-3.4-3.4-0.7-3.4,0-3.7
				c1.1-0.7,4.1,0.7,6,1.1c1.9,0.4,14.6-1.1,17.6-0.7c3,0.4,7.9,3,7.5,5.2c-0.4,2.6-10.9,7.1-13.1,8.2c-3,1.5-10.1,1.5-12,1.9
				c-1.9,0.7-6.4,3.4-9,6.7L362.2,451.9z"/>
			<path class="st9" d="M375.7,462.8l-16.8-11.2l3-0.7c0,0,5.6-1.5,9.7-4.1l0.7-0.4c3.4-1.9,4.5-3,5.2-3.7c-1.1-1.1-1.9-2.2-1.5-3.4
				s1.5-1.5,2.2-1.9h0.4c1.5-0.7,3,0,4.9,0.7c0.7,0.4,1.5,0.4,1.9,0.7c0.7,0,4.5,0,7.5-0.4c4.1-0.4,8.2-0.7,10.1-0.4
				c2.6,0.4,6.4,1.9,7.9,4.1c0.7,1.1,0.7,2.2,0.7,3c-0.4,2.2-3.7,4.5-12.7,8.6c-0.4,0.4-0.7,0.4-1.1,0.4c-1.9,1.1-5.6,1.5-8.6,1.5
				c-1.5,0-3,0.4-3.7,0.4c-1.9,0.4-6,3-8.6,6.4L375.7,462.8z M365.6,452.3l9.7,6.4c2.6-3,6.7-5.6,9-6.4c0.7-0.4,2.2-0.4,4.1-0.7
				c2.6-0.4,6-0.7,7.5-1.5c0.4,0,0.7-0.4,1.1-0.7c9.4-4.1,10.9-6,11.2-6.7c0-0.4,0-0.7-0.4-0.7c-1.1-1.5-4.1-2.6-6-3
				c-1.5,0-5.6,0-9.4,0.4c-4.5,0.4-7.1,0.7-8.2,0.4c-0.7,0-1.5-0.4-2.2-0.7s-2.2-0.7-2.6-0.7c0,0-0.4,0-0.7,0.4
				c0,0.4,0.4,0.7,1.1,1.1c0.4,0.4,0.7,1.1,0.4,1.5c-0.4,1.5-2.6,3.4-6.4,6l-0.7,0.4C370.8,450.5,367.8,451.6,365.6,452.3z"/>
		</g>
		<path id="XMLID_191_" class="st16" d="M386.5,449.7c0,0,11.2-1.5,13.5-3.4c0,0,1.9,0,1.5,0.7s-7.1,4.5-15,4.5l-4.5,1.1
			L386.5,449.7z"/>
		<path id="XMLID_192_" class="st16" d="M384.3,449c0,0,4.9-0.4,7.5-1.1c2.6-0.7,8.6-1.5,9-3s-2.6-1.5-3.4-0.4s-6,1.9-7.1,2.2
			C388.8,446.7,384.3,449,384.3,449z"/>
		<polygon id="XMLID_193_" class="st5" points="372.3,461.3 375.3,458.7 366.3,452.3 365.6,452.3 360.7,454.6 364.5,457.6 
			371.6,460.9 		"/>
		<g>
			<polygon id="XMLID_3_" class="st10" points="375.3,446.7 383.2,454.6 378.3,457.9 370.4,449.7 			"/>
			<path class="st9" d="M378.3,459.8c-0.4,0-1.1-0.4-1.5-0.7l-7.5-8.2c-0.4-0.4-0.4-1.1-0.4-1.5s0.4-1.1,0.7-1.5l4.5-3
				c0.7-0.4,1.9-0.4,2.2,0.4l7.9,7.9c0.4,0.4,0.7,0.7,0.4,1.5c0,0.4-0.4,1.1-0.7,1.5l-4.9,3.7C379.1,459.8,378.7,459.8,378.3,459.8z
				 M373.4,450.1l4.9,5.6l1.9-1.5l-5.2-5.2L373.4,450.1z"/>
		</g>
		<g id="XMLID_196_">
			<g>
				<path id="XMLID_2_" class="st5" d="M444.5,452.3c0,0-5.6-1.5-10.1-4.1c-1.5-1.1-7.5-4.5-6.7-5.6c1.9-2.6,0.7-3,0-3.7
					c-1.5-0.7-4.1,1.1-6,1.5s-16.1-1.1-19.1-0.7c-3,0.4-6.4,4.1-5.6,6.7c2.2,7.1,23.2,8.2,25.1,9c2.2,0.4,9,2.6,11.6,6L444.5,452.3z
					"/>
				<path class="st9" d="M434.4,462.1c-0.4,0-0.7,0-1.1-0.4c-2.6-3-9-4.9-10.9-5.6c-0.4,0-1.5-0.4-2.2-0.4
					c-10.9-1.5-22.1-3.7-23.9-9.4c-0.4-1.5,0-3,0.7-4.5c1.5-2.2,3.7-3.7,6-4.1c1.9-0.4,6,0,10.9,0.4c3,0.4,7.5,0.4,8.2,0.4
					c0.4,0,1.1-0.4,1.9-0.7c1.5-0.7,3.4-1.5,5.2-0.7c0.4,0.4,1.5,0.7,1.9,1.9s-0.4,2.2-1.1,3.4c0.4,0.4,1.9,1.5,5.2,3.7
					c0.4,0,0.4,0.4,0.7,0.4c4.5,2.6,9.7,4.1,9.7,4.1c0.4,0,0.7,0.4,1.1,1.1c0,0.4,0,1.1-0.4,1.5l-10.1,8.6
					C434.8,462.1,434.8,462.1,434.4,462.1z M404.5,440.7c-0.7,0-1.1,0-1.5,0c-1.5,0-3,1.5-3.7,2.6c-0.4,0.7-0.7,1.5-0.7,2.2
					c1.5,4.9,16.5,6.7,21.3,7.5c1.5,0.4,2.2,0.4,2.6,0.4c2.6,0.7,8.2,2.6,11.6,5.2l7.1-6c-2.2-0.7-5.2-1.9-7.9-3.7
					c0,0-0.4-0.4-0.7-0.4c-4.1-2.6-6.4-4.1-6.7-5.6c0-0.7,0-1.1,0.4-1.5c0.4-0.7,0.7-1.1,0.7-1.1s-0.4,0-0.4-0.4
					c-0.4-0.4-1.9,0.4-2.6,0.7s-1.5,0.7-2.2,0.7c-1.1,0.4-3.4,0-9-0.4C410.5,441.1,406.7,440.7,404.5,440.7z"/>
			</g>
			<g>
				<polygon id="XMLID_1_" class="st10" points="431.8,447.1 424.7,454.9 430.7,457.6 436.7,450.1 				"/>
				<path class="st9" d="M430.7,459.4c-0.4,0-0.4,0-0.7,0l-6.4-2.6c-0.7-0.4-1.1-0.7-1.1-1.5c0-0.7,0-1.1,0.4-1.5l7.5-7.5
					c0.7-0.7,1.5-0.7,2.2-0.4l4.5,3c0.4,0.4,0.7,0.7,0.7,1.1c0,0.4,0,1.1-0.4,1.5l-5.6,7.1C431.8,459.1,431.4,459.4,430.7,459.4z
					 M427.7,454.2l2.2,1.1l3.7-4.5l-1.5-1.1L427.7,454.2z"/>
			</g>
		</g>
		<polygon id="XMLID_184_" class="st5" points="434.4,458.7 437.1,460.6 444.5,454.2 441.5,452.7 		"/>
		<path id="XMLID_197_" class="st16" d="M419.5,450.5c0,0-11.2-1.5-13.5-3.4c0,0-1.9,0-1.5,0.7c0.4,0.7,7.1,4.5,15,4.5l4.5,1.1
			L419.5,450.5z"/>
		<path id="XMLID_194_" class="st16" d="M421.7,450.1c0,0-4.9-0.4-7.5-1.1c-2.6-0.7-8.6-1.5-9-3s2.6-1.5,3.4-0.4
			c0.7,0.7,6,1.9,7.1,2.2C416.8,448.2,421.7,450.1,421.7,450.1z"/>
		<path id="XMLID_198_" class="st9" d="M360.3,453.1c0,0-1.5-16.1-1.9-18l10.5,15L360.3,453.1z"/>
		<path id="XMLID_199_" class="st9" d="M447.9,454.2c0,0,1.1-17.6,1.5-19.5l-10.1,16.5L447.9,454.2z"/>
	</g>
</g>
</svg>
