<?xml version="1.0" encoding="utf-8"?>
<!-- Generator: Adobe Illustrator 24.2.1, SVG Export Plug-In . SVG Version: 6.00 Build 0)  -->
<svg version="1.1" id="Layer_1" xmlns="http://www.w3.org/2000/svg" xmlns:xlink="http://www.w3.org/1999/xlink" x="0px" y="0px"
	 viewBox="0 0 800 800" style="enable-background:new 0 0 800 800;" xml:space="preserve">
<style type="text/css">
	.st0{fill-rule:evenodd;clip-rule:evenodd;fill:#002E6D;}
	.st1{fill:#F5333F;}
	.st2{fill:#FFFFFF;}
	.st3{opacity:0.2;fill:#002E6D;}
	.st4{opacity:0.2;}
	.st5{fill:#002E6D;}
	.st6{opacity:0.2;fill:#FFFFFF;}
</style>
<rect x="-0.4" y="-0.5" class="st0" width="801.5" height="801.5"/>
<g>
	<g>
		<g>
			<g>
				<path class="st1" d="M277.6,585.7c1.1,0,2,0.2,2.8,0.4c0.7,0.2,1.3,0.6,1.8,1c0.4,0.5,0.8,1,0.9,1.7c0.2,0.7,0.3,1.5,0.3,2.4
					c0,0.2,0,0.3,0,0.5c0,1.1-0.2,2.1-0.5,3c-0.3,0.9-0.8,1.6-1.5,2.2c-0.7,0.6-1.6,1.2-2.8,1.6c-1.2,0.4-2.6,0.8-4.3,1
					c-0.5,0.1-1,0.2-1.5,0.2c-0.5,0.1-1.1,0.2-1.8,0.3c-0.7,0.1-1.4,0.2-2.2,0.3c-0.8,0.1-1.8,0.3-2.8,0.4c0.3-1.8,0.5-2.7,0.8-4.4
					c1.7-0.2,3.1-0.4,4.3-0.6c1.2-0.2,2.3-0.4,3.3-0.5c0.7-0.1,1.3-0.2,1.7-0.4c0.5-0.1,0.8-0.3,1.1-0.5c0.3-0.2,0.5-0.5,0.6-0.8
					c0.1-0.3,0.2-0.7,0.2-1.1c0-0.4,0-0.7-0.1-1c-0.1-0.3-0.2-0.5-0.3-0.6c-0.2-0.2-0.4-0.3-0.7-0.3c-0.3-0.1-0.7-0.1-1.2-0.1
					c-1.3,0-2-0.1-3.4-0.1c-1.2,0-2.2-0.2-3-0.4c-0.8-0.2-1.4-0.5-1.9-1c-0.5-0.4-0.8-1-0.9-1.7c-0.2-0.7-0.2-1.5-0.2-2.4
					c0-0.2,0-0.3,0-0.5c0-1,0.2-2,0.5-2.8c0.3-0.8,0.8-1.6,1.5-2.2c0.7-0.6,1.6-1.2,2.7-1.6c1.1-0.4,2.4-0.7,4-0.9
					c0.6-0.1,1.1-0.1,1.7-0.2c0.6-0.1,1.1-0.1,1.8-0.2c0.6-0.1,1.3-0.2,2.1-0.2c0.7-0.1,1.6-0.2,2.5-0.3c-0.3,1.7-0.5,2.6-0.8,4.3
					c-1.7,0.2-3.1,0.3-4.2,0.5c-1.2,0.1-2.2,0.3-3.1,0.4c-0.6,0.1-1.2,0.2-1.6,0.3c-0.4,0.1-0.8,0.3-1,0.5c-0.2,0.2-0.4,0.4-0.5,0.7
					c-0.1,0.3-0.1,0.6-0.2,1c0,0.4,0,0.7,0.1,0.9s0.2,0.4,0.3,0.6c0.2,0.1,0.4,0.3,0.7,0.3c0.3,0.1,0.7,0.1,1.2,0.1
					C275.3,585.7,276.1,585.7,277.6,585.7z"/>
				<path class="st1" d="M306.2,573.4c-0.4,1.7-0.5,2.6-0.9,4.3c-2.8,0.3-4.1,0.4-6.9,0.7c-0.1,5.9-0.1,11.8-0.2,17.7
					c-2.1,0.3-3.2,0.4-5.3,0.7c0.1-5.9,0.1-11.9,0.2-17.8c-2.5,0.3-5.1,0.6-7.6,0.9c0.4-1.8,0.5-2.7,0.9-4.5
					C293,574.7,299.6,574.1,306.2,573.4z"/>
				<path class="st1" d="M308.3,592.7c0,0.9-0.2,1.6-0.7,2c-0.5,0.5-1.2,0.8-2.2,0.9c-1,0.1-1.8,0-2.2-0.4c-0.4-0.4-0.7-1-0.7-1.9
					c0-0.9,0.2-1.6,0.7-2c0.5-0.5,1.2-0.8,2.2-0.9c1-0.1,1.7,0,2.2,0.4C308,591.2,308.3,591.8,308.3,592.7z"/>
				<path class="st1" d="M326.7,585.9c0,2.4,0,4.8-0.1,7.2c-2.1,0.2-3.1,0.3-5.2,0.5c0.1-7.2,0.1-14.3,0.2-21.5
					c3.1-0.2,6.1-0.5,9.2-0.7c3.1-0.2,5.4,0.2,6.7,1.1c1.3,0.9,2,2.5,2,4.7c0,0.5,0,0.7,0,1.2c0,2.2-0.7,3.8-2.1,5
					c-1.4,1.2-3.7,1.9-6.8,2.1C329.1,585.7,328.3,585.7,326.7,585.9z M334.2,578.1c0-0.6-0.1-1-0.2-1.4c-0.1-0.4-0.3-0.6-0.6-0.8
					c-0.3-0.2-0.7-0.3-1.1-0.4c-0.5,0-1.1,0-1.8,0c-1.5,0.1-2.2,0.2-3.7,0.3c0,2.4,0,3.7,0,6.1c1.5-0.1,2.2-0.2,3.7-0.3
					c0.7-0.1,1.3-0.1,1.8-0.3c0.5-0.1,0.9-0.3,1.1-0.5c0.3-0.2,0.5-0.5,0.6-0.9c0.1-0.4,0.2-0.9,0.2-1.4
					C334.2,578.3,334.2,578.2,334.2,578.1z"/>
				<path class="st1" d="M357.8,582.2c-3.2,0.2-6.4,0.3-9.6,0.5c0,1.8,0,2.7,0,4.6c3.9-0.2,7.8-0.4,11.7-0.6
					c-0.4,1.6-0.5,2.5-0.9,4.1c-5.4,0.3-10.8,0.6-16.1,1c0-7,0.1-14.1,0.1-21.1c5.6-0.3,11.2-0.6,16.8-0.8c-0.3,1.6-0.5,2.5-0.9,4.1
					c-3.5,0.2-7.1,0.3-10.6,0.5c0,1.7,0,2.5,0,4.2c3.5-0.2,7-0.4,10.4-0.5C358.3,579.8,358.1,580.6,357.8,582.2z"/>
				<path class="st1" d="M383.1,569.2c-0.4,1.6-0.5,2.4-0.9,4.1c-2.8,0.1-4.2,0.1-6.9,0.2c0,5.6,0,11.1,0,16.7
					c-2.1,0.1-3.2,0.1-5.3,0.2c0-5.6,0-11.2,0.1-16.8c-2.6,0.1-5.1,0.2-7.7,0.3c0.3-1.6,0.5-2.5,0.9-4.1
					C369.8,569.5,376.4,569.3,383.1,569.2z"/>
				<path class="st1" d="M401.3,581.2c-3.2,0-6.4,0-9.6,0c0,1.8,0,2.7,0,4.5c3.9,0,7.8,0,11.7,0c-0.3,1.6-0.5,2.4-0.9,4
					c-5.4,0-10.8,0-16.2,0.1c0-6.9,0-13.8,0-20.7c5.6-0.1,11.2-0.1,16.8-0.1c-0.3,1.6-0.5,2.4-0.8,4c-3.5,0-7.1,0-10.6,0
					c0,1.6,0,2.5,0,4.1c3.5,0,7,0,10.5,0C401.8,578.8,401.6,579.6,401.3,581.2z"/>
				<path class="st1" d="M424.7,576.5c0,1.5-0.3,2.7-1,3.6c-0.7,0.9-1.7,1.5-3.1,1.9c1.7,2.7,3.5,5.4,5.2,8.1
					c-2.3-0.1-3.5-0.1-5.9-0.2c-1.5-2.5-2.9-4.9-4.4-7.4c-1.5,0-2.2,0-3.7-0.1c0,2.4,0,4.9,0,7.3c-2.1,0-3.1,0-5.2-0.1
					c0-6.9,0-13.8,0-20.7c3.1,0,6.2,0.1,9.3,0.1c1.6,0,2.9,0.2,4,0.4c1.1,0.3,2,0.6,2.7,1.2c0.7,0.5,1.2,1.2,1.6,2
					c0.3,0.8,0.5,1.8,0.5,2.9C424.7,576,424.7,576.2,424.7,576.5z M419.4,575.9c0-0.5-0.1-1-0.2-1.4c-0.1-0.4-0.3-0.6-0.6-0.9
					c-0.3-0.2-0.7-0.4-1.1-0.4c-0.5-0.1-1-0.1-1.7-0.1c-1.6,0-2.3,0-3.9-0.1c0,2.3,0,3.5,0,5.8c1.6,0,2.4,0,3.9,0.1
					c0.7,0,1.3,0,1.7-0.1c0.5-0.1,0.8-0.2,1.1-0.4c0.3-0.2,0.5-0.5,0.6-0.8c0.1-0.4,0.2-0.8,0.2-1.4
					C419.4,576,419.4,576,419.4,575.9z"/>
				<path class="st1" d="M440.6,578.4c1.1,0.2,2.1,0.5,2.8,0.9c0.8,0.3,1.4,0.8,1.8,1.3c0.5,0.5,0.8,1.1,1,1.8
					c0.2,0.7,0.3,1.4,0.3,2.3c0,0.2,0,0.3,0,0.4c0,1.1-0.1,2-0.4,2.7c-0.3,0.7-0.8,1.3-1.5,1.8c-0.7,0.5-1.6,0.8-2.8,1
					c-1.2,0.2-2.6,0.2-4.3,0.1c-0.5,0-1,0-1.6-0.1c-0.5,0-1.1,0-1.8-0.1c-0.7,0-1.4-0.1-2.2-0.1c-0.8,0-1.8-0.1-2.8-0.1
					c0.3-1.6,0.5-2.3,0.8-3.9c1.7,0.1,3.2,0.2,4.4,0.2c1.2,0,2.3,0.1,3.3,0.1c0.7,0,1.3,0,1.8,0c0.5,0,0.8-0.1,1.1-0.3
					c0.3-0.1,0.5-0.3,0.5-0.6c0.1-0.3,0.1-0.6,0.1-1c0-0.4,0-0.7-0.1-0.9c-0.1-0.3-0.2-0.5-0.4-0.6c-0.2-0.2-0.4-0.3-0.7-0.4
					c-0.3-0.1-0.7-0.2-1.2-0.3c-1.4-0.3-2-0.4-3.4-0.7c-1.3-0.2-2.3-0.5-3.1-0.9c-0.8-0.3-1.4-0.7-1.9-1.2c-0.5-0.5-0.8-1-1-1.7
					c-0.2-0.6-0.3-1.4-0.3-2.3c0-0.2,0-0.3,0-0.5c0-0.9,0.1-1.8,0.4-2.5c0.3-0.7,0.8-1.3,1.5-1.8c0.7-0.5,1.6-0.8,2.7-1.1
					c1.1-0.2,2.5-0.3,4.1-0.3c0.6,0,1.2,0,1.7,0.1c0.6,0,1.2,0,1.8,0.1c0.6,0,1.3,0.1,2.1,0.1c0.7,0,1.6,0.1,2.5,0.2
					c-0.3,1.6-0.5,2.3-0.8,3.9c-1.7-0.1-3.1-0.2-4.3-0.2c-1.2,0-2.2-0.1-3.1-0.1c-0.6,0-1.2,0-1.6,0c-0.4,0.1-0.8,0.1-1,0.3
					c-0.2,0.1-0.4,0.3-0.5,0.6c-0.1,0.3-0.1,0.6-0.1,0.9c0,0.3,0,0.6,0.1,0.9c0.1,0.2,0.2,0.4,0.3,0.6c0.2,0.2,0.4,0.3,0.7,0.4
					c0.3,0.1,0.7,0.2,1.2,0.3C438.3,577.9,439,578.1,440.6,578.4z"/>
				<path class="st1" d="M449.8,570.2c3.5,0.2,7,0.4,10.6,0.6c2.4,0.1,4.2,0.7,5.3,1.6c1.1,0.9,1.7,2.3,1.7,4.1c0,0.1,0,0.2,0,0.3
					c0,2.2-0.9,3.6-2.8,4.2c1.1,0.4,2,1,2.6,1.9c0.6,0.8,0.9,1.9,0.9,3.2c0,0.2,0,0.3,0,0.5c0,2.1-0.6,3.5-2,4.3
					c-1.3,0.8-3.3,1.1-5.9,0.9c-3.4-0.3-6.9-0.5-10.3-0.7C449.8,584.2,449.8,577.2,449.8,570.2z M454.8,574.2c0,1.8,0,2.8,0,4.6
					c1.8,0.1,2.7,0.2,4.5,0.3c1.1,0.1,1.8-0.1,2.2-0.4c0.4-0.3,0.6-0.9,0.6-1.7c0-0.1,0-0.2,0-0.4c0-0.7-0.2-1.2-0.6-1.6
					c-0.4-0.3-1.1-0.5-2.1-0.6C457.6,574.4,456.7,574.3,454.8,574.2z M454.9,587.8c2,0.1,2.9,0.2,4.9,0.3c1.1,0.1,1.9,0,2.4-0.3
					c0.5-0.3,0.7-0.9,0.7-1.9c0-0.2,0-0.2,0-0.4c0-1-0.3-1.6-0.7-2c-0.5-0.4-1.3-0.6-2.5-0.7c-1.9-0.1-2.9-0.2-4.8-0.3
					C454.9,584.6,454.9,585.7,454.9,587.8z"/>
				<path class="st1" d="M471.2,571.5c2.1,0.1,3.2,0.2,5.3,0.4c0,4.3,0.1,8.6,0.1,12.9c0,0.9,0.1,1.7,0.2,2.4
					c0.1,0.6,0.3,1.2,0.7,1.6c0.3,0.4,0.8,0.7,1.3,0.9c0.5,0.2,1.3,0.3,2.1,0.4c0.9,0.1,1.6,0.1,2.1,0c0.6-0.1,1-0.3,1.3-0.7
					c0.3-0.3,0.5-0.8,0.7-1.4c0.1-0.6,0.2-1.4,0.2-2.4c0-4.3-0.1-8.7-0.1-13c2.1,0.2,3.2,0.3,5.3,0.5c0,4.4,0.1,8.7,0.1,13.1
					c0,1.6-0.1,2.9-0.4,4.1c-0.3,1.1-0.8,2-1.5,2.7c-0.7,0.7-1.7,1.1-2.9,1.4c-1.2,0.2-2.8,0.3-4.6,0.1c-1.9-0.2-3.4-0.5-4.7-1
					c-1.2-0.5-2.2-1.1-3-1.9c-0.7-0.8-1.3-1.8-1.6-2.9c-0.3-1.2-0.5-2.5-0.5-4.1C471.2,580.1,471.2,575.8,471.2,571.5z"/>
				<path class="st1" d="M512.5,582.9c0,1.6-0.3,2.9-1,3.8c-0.7,0.9-1.7,1.5-3,1.8c1.8,3.1,3.5,6.2,5.3,9.2
					c-2.3-0.3-3.5-0.5-5.8-0.8c-1.5-2.8-3-5.5-4.4-8.3c-1.5-0.2-2.2-0.3-3.6-0.4c0,2.6,0,5.1,0.1,7.7c-2.1-0.3-3.1-0.4-5.2-0.6
					c-0.1-7.3-0.1-14.5-0.2-21.8c3.1,0.3,6.2,0.6,9.2,0.9c1.5,0.2,2.9,0.4,4,0.8c1.1,0.4,2,0.9,2.7,1.5c0.7,0.6,1.2,1.4,1.6,2.3
					c0.3,0.9,0.5,2,0.5,3.2C512.5,582.4,512.5,582.6,512.5,582.9z M507.3,581.8c0-0.6-0.1-1.1-0.2-1.5c-0.1-0.4-0.3-0.7-0.6-1
					c-0.3-0.2-0.7-0.4-1.1-0.6c-0.5-0.1-1-0.2-1.7-0.3c-1.6-0.2-2.3-0.2-3.9-0.4c0,2.4,0,3.7,0.1,6.1c1.6,0.2,2.3,0.3,3.9,0.4
					c0.7,0.1,1.3,0.1,1.7,0.1c0.5,0,0.8-0.1,1.1-0.3c0.3-0.2,0.5-0.5,0.6-0.8c0.1-0.4,0.2-0.9,0.2-1.5
					C507.3,581.9,507.3,581.9,507.3,581.8z"/>
				<path class="st1" d="M526.2,599.5c-2-0.3-3.6-0.7-5-1.3c-1.3-0.6-2.4-1.3-3.2-2.2c-0.8-0.9-1.4-2-1.7-3.2
					c-0.3-1.3-0.5-2.8-0.5-4.5c0-1.2,0-1.9,0-3.1c0-1.7,0.1-3.1,0.5-4.2c0.3-1.2,0.9-2.1,1.8-2.8c0.8-0.7,2-1.2,3.4-1.4
					c1.4-0.2,3.1-0.2,5.2,0.1c0.7,0.1,1.3,0.2,1.9,0.2s1.1,0.1,1.7,0.2c0.6,0.1,1.1,0.2,1.7,0.2c0.6,0.1,1.2,0.2,1.9,0.3
					c-0.3,1.7-0.5,2.6-0.8,4.3c-1-0.2-1.9-0.3-2.6-0.4c-0.7-0.1-1.3-0.2-1.8-0.3c-0.5-0.1-1-0.1-1.3-0.2c-0.4,0-0.7-0.1-1-0.1
					c-1-0.1-1.9-0.2-2.6-0.1c-0.7,0.1-1.2,0.3-1.6,0.6c-0.4,0.3-0.6,0.9-0.8,1.5c-0.1,0.7-0.2,1.6-0.2,2.7c0,1.2,0,1.8,0,3
					c0,1.2,0.1,2.1,0.3,2.9c0.2,0.7,0.4,1.3,0.8,1.8c0.4,0.5,0.9,0.8,1.5,1c0.6,0.2,1.4,0.4,2.3,0.5c1.3,0.2,2,0.3,3.3,0.5
					c0-1.7,0-2.5,0-4.2c-1.4-0.2-2.2-0.3-3.6-0.5c0.3-1.7,0.5-2.5,0.9-4.2c2.7,0.4,5.3,0.8,8,1.2c0,3.2,0.1,6.4,0.1,9.6
					c0,0.6,0,1-0.1,1.4c-0.1,0.4-0.3,0.7-0.6,1c-0.3,0.2-0.7,0.4-1.2,0.5c-0.5,0.1-1.1,0-1.9-0.1C529.1,600,528.1,599.8,526.2,599.5
					z"/>
			</g>
			<path class="st2" d="M245.6,563.3c0.2-31.3,0.5-62.5,0.7-93.8c15.9,0,31.8,0,47.7,0c-1,7.4-2,14.7-3,22.1
				c-8.6,0.2-17.2,0.5-25.9,0.8c0,3.6-0.1,7.2-0.1,10.9c8.4-0.4,16.8-0.8,25.3-1.1c-1,7.4-2,14.7-3,22.1c-7.5,0.5-15,1.1-22.4,1.7
				c0,3.9-0.1,7.8-0.1,11.8c9.8-1,19.6-1.9,29.5-2.6c-1,7.4-2,14.9-3,22.3C276,559,260.8,561,245.6,563.3z M320.5,532.1
				c9.1-0.5,18.1-0.9,27.2-1.3c-1,7.4-2.1,14.9-3.1,22.3c-14.5,0.8-28.9,1.9-43.3,3.3c0.2-28.9,0.5-57.9,0.7-86.8c6.3,0,12.7,0,19,0
				C320.8,490.4,320.7,511.2,320.5,532.1z M374.7,551.8c-6.7,0.2-13.3,0.4-20,0.7c0.1-27.7,0.2-55.3,0.4-83c6.6,0,13.2,0,19.9,0
				C374.8,497,374.8,524.4,374.7,551.8z M404.1,516.1c0,2.7,0.1,4.9,0.4,6.6c0.3,1.7,0.8,3.1,1.6,4.2c0.8,1,1.9,1.8,3.3,2.2
				c1.4,0.4,3.2,0.7,5.5,0.7c0.7,0,1.6,0,2.4,0c0.9,0,1.9,0,3.1,0c1.2,0,2.6,0,4.3,0c1.7,0,3.8,0,6.3,0c-1,7.4-2,14.8-3,22.2
				c-2.1,0-3.8,0-5.1,0c-1.3,0-2.5,0-3.5,0c-1,0-1.9,0-2.8,0c-0.9,0-2.1,0-3.4,0c-4.6-0.1-9.2-0.5-13.7-1.9
				c-3.5-1.1-6.8-3.1-9.2-5.9c-2.7-3-4.3-7.1-5.2-11c-1.4-5.6-1.6-11.4-1.7-17.1c0-3.7,0-7.3,0-11c0.1-5.5,0.4-11,1.7-16.4
				c1-4,2.6-8,5.2-11.1c2.4-2.9,5.7-5.1,9.2-6.3c4.4-1.5,9-1.9,13.6-2c0.7,0,1.6,0,2.5,0c0.9,0,2,0,3.3,0c1.3,0,2.9,0,4.7,0.1
				c1.8,0,4,0.1,6.6,0.2c-1,7.4-2,14.7-2.9,22.1c-2.5-0.1-4.7-0.1-6.5-0.2c-1.8,0-3.8,0-6,0c-2.2,0-4,0.2-5.4,0.6
				c-1.4,0.4-2.5,1.1-3.3,2.2c-0.8,1-1.3,2.4-1.6,4.2c-0.3,1.8-0.4,4-0.4,6.6C404.1,508.7,404.1,512.4,404.1,516.1z M476.3,538.2
				c-6.1-0.4-12.3-0.7-18.4-1c-1,5.3-2.1,10.5-3.1,15.8c-6.7-0.3-13.3-0.6-20-0.9c6.9-27.5,13.6-55,20.3-82.6c8,0,16.1,0,24.1,0
				c7.2,28.9,14.3,57.9,21.3,86.9c-6.9-0.7-13.8-1.3-20.7-1.8C478.6,549.1,477.5,543.6,476.3,538.2z M461.9,517
				c3.4,0.1,6.8,0.2,10.1,0.4c-1.8-8.4-3.5-16.8-5.3-25.3C465.1,500.4,463.5,508.7,461.9,517z M524.3,515.3
				c0.1,14.6,0.2,29.2,0.4,43.8c-6.1-0.7-12.3-1.4-18.4-2.1c-0.2-29.2-0.5-58.3-0.7-87.5c5.2,0,10.3,0,15.5,0
				c7.7,15.2,15.2,30.5,22.5,45.9c-0.1-15.3-0.2-30.6-0.4-45.9c6.1,0,12.2,0,18.2,0c0.2,31.6,0.5,63.2,0.7,94.9
				c-5.2-0.8-10.3-1.6-15.5-2.4C539.3,546.4,531.9,530.8,524.3,515.3z M569.3,498.5c0.1-4.2,0.3-8.3,1.2-12.5
				c0.7-3.3,2.1-6.5,4.1-9.1c1.9-2.5,4.5-4.4,7.4-5.6c3.6-1.5,7.3-1.9,11-1.9c3.4-0.1,6.9,0,10.3,0c6.2,0,12.4,0.1,18.5,0.3
				c-0.9,8.9-1.9,17.7-2.8,26.6c-5.7-0.4-11.4-0.8-17.1-1.1c-2.8-0.2-5.6-0.4-8.4-0.5c-1.7-0.1-2.8,0.2-3.4,1
				c-0.6,0.7-0.8,1.9-0.8,3.6c0,1.9,0.2,3.1,0.7,3.6c0.5,0.5,1.5,1.1,3,1.7c2.9,1.1,5.8,2.2,8.6,3.3c3,1.1,5.9,2.8,8.3,4.9
				c2,1.8,4.1,4.4,5.2,6.9c1.4,2.9,2.3,6,2.7,9.2c0.6,4,0.7,8,0.8,12c0,0.8,0,1.2,0,1.9c-0.1,5-0.3,10-1.2,14.9
				c-0.7,3.4-2,6.8-4.3,9.3c-2,2.3-4.9,3.7-7.8,4.1c-4,0.6-8,0-11.9-0.7c-1.8-0.3-3.5-0.7-5-1c-1.5-0.3-3.2-0.6-4.9-0.9
				c-1.8-0.3-3.7-0.7-5.9-1.1c-2.6-0.5-5.2-1-7.8-1.6c0.9-7.9,1.7-15.9,2.6-23.8c4.1,0.7,8.1,1.3,12.2,1.9c3,0.4,6.1,0.9,9.1,1.3
				c1.8,0.3,2.9,0.1,3.5-0.6c0.6-0.7,0.9-2.1,0.9-4.1c0-2.1-0.3-3.5-0.8-4.2c-0.5-0.7-1.5-1.4-3.1-2c-2.4-1-3.6-1.5-6.1-2.6
				c-3.2-1.3-6.4-3-9.3-5c-2.2-1.5-4.4-4-5.8-6.3c-1.5-2.6-2.4-5.6-3-8.4c-0.7-3.7-0.8-7.7-0.9-11.6
				C569.3,499.5,569.3,499.2,569.3,498.5z M239.2,486.5c-0.8-3.5-2.2-7-4.4-9.8c-2.1-2.6-4.9-4.4-8-5.5c-3.9-1.3-7.9-1.6-11.9-1.7
				c-12,0-24,0-36,0c0.9,8.9,1.9,17.7,2.8,26.6c2.8-0.2,4.3-0.2,7.1-0.4c-0.1,26-0.1,52-0.2,78c6.4-1.3,12.7-2.6,19.1-3.9
				c0-9.3,0.1-18.5,0.1-27.8c2.6-0.4,3.8-0.5,6.4-0.9c4.1-0.6,8.4-1.6,12.1-3.7c3.1-1.7,6-4.1,8.1-7.1c2.2-3.1,3.7-6.7,4.6-10.5
				c1-4.5,1.5-9.1,1.5-13.7c0-2,0-3,0-4.9C240.5,496.4,240.3,491.4,239.2,486.5z M221.1,506c0,2.6-0.2,5.7-1.7,7.9
				c-1,1.5-3.1,2.4-6.1,2.7c-2.1,0.2-3.2,0.3-5.4,0.5c0-7.4,0.1-14.8,0.1-22.3c2.2-0.1,3.2-0.2,5.4-0.3c3-0.1,5,0.5,6.1,1.9
				c1.5,2.1,1.5,5.1,1.6,7.6C221.1,504.9,221.1,505.2,221.1,506z"/>
			<path class="st3" d="M223.3,505.9c0-0.8,0-1.2,0-1.9c0.1-3.1-0.2-6.7-2.1-9.1c-1.8-2.3-5-3-7.8-2.8c-2.4,0.1-3.6,0.2-5.9,0.3
				c0-0.8,0-1.1,0-1.9c2.5-0.1,5.1-0.2,7.6-0.3c2.8-0.2,6,0.5,7.8,2.8c1.8,2.4,2.1,6,2.1,9.1c0,0.8,0,1.1,0,1.9
				c0,3.2-0.3,6.8-2.2,9.4c-0.4,0.5-0.8,1-1.3,1.4C223,512.1,223.4,508.9,223.3,505.9z M192.5,568.5c0.1-25.8,0.1-51.6,0.2-77.4
				c-2.5,0.1-4.9,0.2-7.4,0.3c-0.7-6.4-1.3-12.8-2-19.2c-0.8,0-1.1,0-1.9,0c0.7,7.1,1.5,14.1,2.2,21.2c2.5-0.1,4.9-0.2,7.4-0.4
				c-0.1,25.9-0.1,51.8-0.2,77.7c4.9-1,9.8-2,14.7-2.9c0-0.8,0-1.1,0-1.9C201.2,566.8,196.9,567.6,192.5,568.5z M227.3,533.4
				c-3.6,1.9-7.4,2.7-11.3,3.3c-2.9,0.4-5.7,0.7-8.6,1.1c0,0.8,0,1.1,0,1.9c2.8-0.4,4.2-0.6,6.9-0.9c3.9-0.7,7.7-1.5,11.3-3.4
				c2.6-1.4,5-3.4,6.8-5.9C230.9,531.1,229.2,532.4,227.3,533.4z M264.6,490.2c8.2-0.2,16.3-0.5,24.5-0.7c0.1-0.7,0.1-1,0.2-1.7
				c-8.2,0.2-16.4,0.4-24.7,0.6C264.6,489.2,264.6,489.5,264.6,490.2z M468.3,479.3c-0.4,2-0.6,3-0.9,4.9
				c2.4,11.2,4.7,22.5,7.1,33.7c0.8,0,1.2,0.1,2,0.1C473.7,505.2,471,492.2,468.3,479.3z M547.4,523.9c-0.1-17.3-0.3-34.7-0.4-52
				c-0.7,0-1,0-1.7,0c0.1,16.1,0.3,32.3,0.4,48.4C546.4,521.7,546.7,522.4,547.4,523.9z M285.6,520.5c-7.1,0.5-14.2,1-21.3,1.5
				c0,0.7,0,1,0,1.7c7-0.6,14-1.1,21-1.6C285.4,521.5,285.5,521.2,285.6,520.5z M249.5,558.7c0.2-28.9,0.4-57.9,0.7-86.8
				c-0.7,0-1,0-1.7,0c-0.2,29.6-0.5,59.2-0.7,88.8c13.8-2,27.6-3.8,41.4-5.3c0.1-0.7,0.1-1,0.2-1.7
				C276.1,555.1,262.8,556.8,249.5,558.7z M422.6,487.9c-2.4,0-3.6,0-6,0c-2.5,0-4.5,0.2-6.1,0.7c-1.8,0.5-3.2,1.5-4.3,2.8
				c0.8-0.5,1.6-0.9,2.6-1.2c1.6-0.5,3.7-0.7,6.1-0.7c2.4,0,3.6,0,6,0c1.3,0,2.8,0,4.6,0.1c0.1-0.6,0.1-0.9,0.2-1.6
				C424.6,487.9,423.6,487.9,422.6,487.9z M607.2,490.9c-1.4-0.1-2.6-0.1-3.6-0.2c-2.8-0.2-5.6-0.3-8.4-0.4
				c-2.4-0.1-4.1,0.5-5.1,1.8c-0.2,0.2-0.3,0.5-0.5,0.8c1-0.6,2.3-0.8,3.9-0.8c2.8,0.1,5.6,0.3,8.4,0.4c1,0.1,2.2,0.1,3.6,0.2
				c3.9,0.2,7.7,0.4,11.6,0.7c0.1-0.8,0.1-1.2,0.2-2C613.9,491.2,610.5,491,607.2,490.9z M510.1,553.6c-0.2-27.3-0.4-54.6-0.7-81.9
				c-0.7,0-1,0-1.7,0c0.2,27.8,0.5,55.6,0.7,83.3c4.7,0.5,9.3,1,14,1.5c0-0.7,0-1,0-1.7C518.3,554.5,514.2,554,510.1,553.6z
				 M549.5,558.4c-8.3-18.2-17-36.3-25.8-54.2c0,2,0,3,0,5c8.3,16.8,16.3,33.7,24.1,50.7c4,0.6,8,1.2,11.9,1.8c0-0.7,0-1.1,0-1.8
				C556.3,559.4,552.9,558.9,549.5,558.4z M575,519.1c1.2,2,3.1,4.1,5,5.5c2.7,1.9,5.7,3.5,8.7,4.7c2.4,1,3.6,1.5,6.1,2.5
				c2,0.8,3.3,1.8,4.1,2.8c1,1.3,1.4,3.1,1.4,6c0,2.2-0.3,3.8-0.9,4.9c0.4-0.2,0.8-0.5,1.1-0.8c1-1.1,1.4-3,1.4-5.8
				c0-2.9-0.4-4.7-1.4-6c-0.8-1.1-2.1-2-4.1-2.8c-2.4-1-3.6-1.5-6.1-2.5c-3-1.2-6-2.8-8.7-4.7c-1.9-1.3-3.8-3.5-5-5.5
				c-1.3-2.2-2.2-5.1-2.6-7.5c-0.6-3.7-0.8-7.5-0.8-11.2c0-0.7,0-1.1,0-1.8c0.1-4,0.2-8.2,1.1-12c0.7-2.9,1.8-5.8,3.7-8.3
				c0,0,0-0.1,0.1-0.1c-0.6,0.6-1.2,1.2-1.7,1.9c-1.9,2.4-2.9,5.4-3.7,8.2c-1,3.8-1.1,7.9-1.1,11.9c0,0.7,0,1.1,0,1.8
				c0.1,3.8,0.3,7.5,0.8,11.2C572.8,514,573.8,516.9,575,519.1z M606.3,566.8c-3.8,0.6-7.5,0-11.3-0.6c-3.3-0.6-6.6-1.2-9.9-1.8
				c-1.7-0.3-3.6-0.7-5.9-1.1c-1.5-0.3-3.3-0.6-5.3-1c0.6-5.8,1.2-11.6,1.9-17.4c-0.5-0.1-1-0.2-1.5-0.2c-0.7,6.4-1.4,12.8-2.1,19.2
				c2,0.4,3.8,0.7,5.3,1c2.2,0.4,4.1,0.8,5.9,1.1c3.3,0.6,6.6,1.2,9.9,1.8c3.8,0.6,7.5,1.1,11.3,0.6c2.3-0.3,5.2-1.7,6.8-3.6
				c0.1-0.1,0.2-0.2,0.3-0.3C610.3,565.6,608.4,566.4,606.3,566.8z M483.3,551.2c-1.2-5.5-2.3-11-3.5-16.5
				c-7.4-0.4-14.7-0.8-22.1-1.1c-0.1,0.6-0.2,0.9-0.3,1.5c6.9,0.3,13.8,0.7,20.7,1.1c1.2,5.5,2.3,11,3.5,16.5
				c5.4,0.4,10.7,0.9,16.1,1.4c-0.2-0.7-0.2-1-0.4-1.7C492.6,551.9,487.9,551.5,483.3,551.2z M305.2,552.2
				c0.2-26.8,0.4-53.7,0.6-80.5c-0.7,0-1,0-1.7,0c-0.2,27.4-0.4,54.9-0.6,82.3c13-1.2,26-2.2,39.1-2.9c0.1-0.6,0.1-0.9,0.2-1.6
				C330.3,550.2,317.7,551.1,305.2,552.2z M358.6,548.8c0.1-25.7,0.2-51.5,0.3-77.2c-0.7,0-1,0-1.7,0c-0.1,26.3-0.2,52.5-0.3,78.8
				c5.2-0.2,10.4-0.4,15.5-0.5c0-0.6,0-0.9,0-1.5C367.8,548.4,363.2,548.6,358.6,548.8z M424.7,548.4c-1.3,0-2.4,0-3.4,0
				c-2.5,0-3.7-0.1-6.2-0.1c-4.4-0.2-8.7-0.5-12.9-1.8c-3.1-1-6-2.7-8.2-5.2c-2.5-2.9-3.9-6.5-4.8-10.2c-1.4-5.3-1.5-11.1-1.6-16.7
				c0-3.7,0-7.3,0-11c0.1-5.3,0.3-10.9,1.6-15.9c1-3.7,2.4-7.3,4.8-10.3c0.3-0.3,0.6-0.7,0.9-1c-0.9,0.7-1.8,1.6-2.6,2.5
				c-2.5,3-3.8,6.6-4.8,10.3c-1.4,5.1-1.5,10.6-1.6,15.9c0,3.7,0,7.3,0,11c0.1,5.6,0.2,11.4,1.6,16.7c1,3.6,2.3,7.2,4.8,10.1
				c2.2,2.5,5.1,4.3,8.2,5.2c4.2,1.3,8.6,1.6,13,1.8c2.5,0,3.7,0.1,6.2,0.1c0.9,0,2,0,3.4,0c0.9,0,1.9,0,3.2,0
				c0.1-0.6,0.1-0.9,0.2-1.5C425.7,548.4,425.2,548.4,424.7,548.4z M439.2,548.7c6.4-25.7,12.7-51.3,18.8-77c-0.5,0-0.8,0-1.3,0
				c-6.3,26.2-12.7,52.4-19.2,78.5c5.1,0.2,10.2,0.4,15.3,0.7c0.1-0.6,0.2-0.9,0.3-1.5C448.6,549,443.9,548.8,439.2,548.7z"/>
		</g>
	</g>
	<g>
		<path class="st2" d="M547.2,386c-2.7-1.8-5.8-2.7-8.9-2.7c-2.4,0-4.8,0.6-7,1.6c-0.4,0.2-0.8,0.4-44.1,28.4
			c-0.8,0.5-1.4,0.9-1.5,1c-2.3,1.4-4.9,2.1-7.7,2.1c-2.2,0-4.4-0.5-6.4-1.4l-24.4-10.9c0,0,0.1-0.1,0.1-0.1c2.4-2.1,5.3-5.5,5.3-10
			l0-11.6l69.6-31.2c0.3,0.1,0.6,0.1,0.9,0.1c0.8,0,1.5-0.2,2.2-0.5l4-1.8c2.4-1.1,4.2-3,5.1-5.4c0.9-2.4,0.9-5.1-0.2-7.4l-1.3-2.9
			c-1.6-3.5-5.1-5.8-8.9-5.8c-1.4,0-2.7,0.3-4,0.9l-4,1.8c-1.1,0.5-1.9,1.3-2.5,2.2l-66.3,29.7c-2.2-1.7-5.2-3.4-9.4-5
			c-6.8-2.5-15.7-4.3-25.5-5.1l2.5-17.9l5.1-3.5c6.1-4.3,11.7-9.3,16.4-15c4.2-5.1,7.6-10.6,10.4-16.5l0.3,5.9
			c3.8-6.5,16.3-28.6,13.7-48.8c7.7,7.7,16.9,16.8,27.2,26.8c0.8,0.8,1.5,1.4,2.2,2c-0.1,0.2-0.1,0.4-0.2,0.6l0,0l0,0l0,0
			c-0.3,0.8-1.1,2.6-0.1,4.6c0.5,1.2,1.6,2,2.8,2.4c0.5,0.2,1,0.2,1.5,0.2c0.7,0,1.4-0.1,2.2-0.4c0.7-0.2,1.4-0.6,2.1-1
			c4.9-3.1,7.5-8,7.4-14.2c-0.1-5.3-2-8.8-2.5-9.6l-41.6-72.9c0.7-6.4-1.5-13.3-6.2-19.1c-6.8-8.3-17.4-13-29.1-13
			c-4.9,0-27.1,2.4-41.7,20c1.8-0.3,11-1.8,11-1.8c-1.4,2.2-2.5,4.7-3.2,7.7c-2.1,9.3,1.1,19.9,9.5,31.4c6,8.3,10.1,15.4,10.5,22.2
			c-0.4,0-0.9,0-1.3,0c-15.4,0-29.6,2.7-42.1,8c-10.9,4.6-20.6,11.3-29,19.8c-12.7,13-19.9,27.9-23.6,38.2
			c-4.1,11.4-5.9,21.7-5.8,26.8l0.1,3.3l3.2,0.8c0.3,0.1,3,0.7,7.3,0.7c3.9,0,9.9-0.5,17-3.1c10.2,3.7,20.6,5.5,31,5.5
			c4.2,0,8.3-0.3,12.4-0.9l5.2,10.7c-9.1,0.9-17.4,2.6-23.8,4.9c-4.2,1.5-7.2,3.2-9.4,5l-66.3-29.7c-0.6-1-1.4-1.7-2.5-2.2l-4-1.8
			c-1.3-0.6-2.6-0.9-4-0.9h0c-3.8,0-7.3,2.3-8.9,5.8l-1.3,2.9c-1.1,2.4-1.1,5-0.2,7.4c0.9,2.4,2.7,4.4,5.1,5.4l4,1.8
			c0.7,0.3,1.5,0.5,2.2,0.5c0.3,0,0.6,0,0.9-0.1l69.6,31.2V394c0,4.6,2.9,8,5.3,10c0,0,0.1,0.1,0.1,0.1l-24.4,10.9
			c-2,0.9-4.2,1.4-6.4,1.4c-2.7,0-5.4-0.7-7.7-2.1c-0.1-0.1-0.7-0.4-1.5-1c-43.4-28-43.7-28.2-44.1-28.4c-2.2-1-4.6-1.6-7-1.6
			c-3.2,0-6.3,0.9-8.9,2.7c-7.6,5-11.2,9.4-11.2,13.6c0,3.3,1.6,6.6,4.9,10.1c2.8,2.9,6.5,5.7,9.7,8.1c8.4,6.1,27.5,14.9,35.4,18.3
			l0.2,0.1c6.5,2.9,13.3,4.3,20.4,4.3c9.5,0,16-2.7,16.2-2.8l0.1,0l0.1,0l52.2-23.4c5.9,0.9,12.3,1.3,18.8,1.3s12.9-0.5,18.8-1.3
			l52.2,23.4l0.1,0l0.1,0c0.3,0.1,6.8,2.8,16.2,2.8c7,0,13.9-1.5,20.4-4.3l0.2-0.1c7.8-3.5,27-12.2,35.4-18.3c3.3-2.4,7-5.2,9.7-8.1
			c3.3-3.5,5-6.8,4.9-10.1C558.4,395.4,554.8,391.1,547.2,386z"/>
		<g>
			<g>
				<path class="st1" d="M514.5,400.8l19.8,17.7c2.4-1.4,4.7-2.8,6.9-4.3l-19.9-17.8C519.1,397.8,516.8,399.3,514.5,400.8z"/>
				<path class="st1" d="M499.3,410.7l18.3,16.4c2.4-1.1,5-2.4,7.6-3.7l-19.1-17.1C503.8,407.8,501.5,409.3,499.3,410.7z"/>
			</g>
		</g>
		<g>
			<g>
				<path class="st1" d="M286.3,400.8l-19.8,17.7c-2.4-1.4-4.7-2.8-6.9-4.3l19.9-17.8C281.6,397.8,283.9,399.3,286.3,400.8z"/>
				<path class="st1" d="M301.4,410.7l-18.3,16.4c-2.4-1.1-5-2.4-7.6-3.7l19.1-17.1C297,407.8,299.3,409.3,301.4,410.7z"/>
			</g>
		</g>
		<path class="st3" d="M430,282c0,0,0,0.1,0.1,0.1C430,282.1,429.9,282.1,430,282z M415.4,195.4l9.5,16.3l2.7-0.7
			c6.9-1.9,12.8-6.2,16.7-12.1v0c0.5-0.2,0.9-0.5,1.4-0.7c-1.2-0.7-3-1.6-4.9-2.7l-2.8-3.4c-2.4-1.3-5.3-1.9-8-2.2
			c-0.2-0.1-0.4-0.1-0.4,0c0,0,0,0,0,0c-4-0.4-7.4,0-7.4,0c2.7,0.4,5,1,7,1.7c-1.3,7.5,7.6,10.5,14.6,7.7c0,0,0,0,0,0l0,0
			c0.2-0.1,0.4-0.2,0.5-0.2c-11.6,12.9-18,5.4-21.5-1.2c-0.4,1.1-0.7,3.5-0.4,4.9C419.2,200.5,415.4,195.4,415.4,195.4z
			 M415.7,174.3l-9.3-1.2c34.4-11.8,40.5,8.2,40.5,8.2c-5.7-5.7-16.1-10.8-28.7-8.9c2.6,1.2,4.2,2.6,4.6,5.3L415.7,174.3z
			 M400.3,202.3c-7.7-26.9,14.8-27.7,14.8-27.7s-17.2,6-9.2,29c0.5-4.9,2.5-9.7,2.5-9.7c-0.9,18.5,32.8,39.6,10.3,68.1
			c0,0,9.9-15.7,3.3-28.2C415.4,221.3,400.3,202.3,400.3,202.3z M394,330.5l6,28.5l0.6,4c0.4,0,0.8,0,1.1,0c0.5,0,1.1,0,1.6,0
			c-4,0.2-7.5,1.4-9.6,3.1l-5.8,0c2.4-1.5,7.8-5.1,7.8-5.1l-11.1-28.3c-10.7,1.9-22.8,1.8-36.3-0.9c-2.9-0.6-5.9-1.1-8.9-1.4
			c-6.4-0.8-18.6-2.6-18.6-2.6c3-22.3,20.8-36.4,20.8-36.4c-6.7,9.4-11.1,19.2-13.1,27.4c8.4,0,27.5-2.3,47.3-21c0,0,0,0,0,0l0,0
			l0,0c-4.7,10.5-9.7,18.5-13.8,24.2c19.2,1.5,29.9-11.2,34.4-21.5l0.2-0.2c1,4.4,1.4,9.2,1.5,13.2c7.9-2.9,23.3-13.5,32-30.1
			c0.5,2.4,0.4,8.4,0.3,9.3c7.9-12.5,14.2-26.4,16.1-35.4C450.4,278.9,433.6,318.6,394,330.5z M345.6,283.8l-2.3-4
			c35.8-39,74.5-26.4,74.5-26.4C373,250.8,351.2,275.5,345.6,283.8z"/>
		<g>
			<path class="st1" d="M495,281.6c-0.1,0-0.1,0-0.2,0c-0.1,0-0.2,0-0.3-0.1c-5-5.3-49-51.5-55.3-59.5c-4.6-5.7-7-9.3-8-11
				c-0.1-0.1-0.1-0.3,0-0.4c0.1-0.1,0.2-0.2,0.4-0.2c1.6,0.1,3.4-0.2,5.4-0.9c0.2-0.1,0.3,0,0.5,0.1c13,15.7,55.6,67,56.1,67.7
				c0,0.1,0.1,0.1,0.1,0.2c0.4,0.6,1.3,1.8,1.6,3.7C495.2,281.3,495.1,281.5,495,281.6z M497.9,270.8L455,199.8
				c-0.1-0.2-0.3-0.2-0.5-0.2c-2,0.5-3.8,1.2-5.3,1.9c-0.1,0-0.2,0.1-0.2,0.2c0,0.1,0,0.2,0,0.3l6.8,13l-9.5-11.5
				c-0.1-0.2-0.4-0.2-0.6-0.1c-1.1,0.8-2,1.5-2.9,2.3c-0.5,0.4-0.9,0.8-1.4,1.2c-0.2,0.1-0.2,0.4-0.1,0.6
				c11.1,14.4,52.1,68.1,52.7,68.9c0,0,0,0,0,0c0.4,0.5,3.5,4.8,1.1,9.7c-0.1,0.2,0,0.4,0.1,0.5c0.1,0.1,0.2,0.1,0.3,0.1
				c0.1,0,0.2,0,0.3-0.1C503.3,280.8,498,270.9,497.9,270.8z"/>
			<g>
				<path class="st4" d="M451.7,209.2c0,0-6.9-8.2-4.2-10c2.6-1.8,9.4,0.3,9.4,0.3c-3.2,0.7-4.7,0.9-6.1,2.6l7.2,16.3L451.7,209.2z
					 M494.4,274.9c-0.5-0.7-31.5-43.9-49.4-67.3c-0.6-0.8,0-2.2,1.3-4.1l-15.4,7c0.4,0.7,4.9,0,6.2,1.9c1.4,1.9,3.3,4.6,6,7.9
					c3.3,4.1,33.4,39,49.5,56.4l1.6,0.5c0,0,3.1,3.8,1.8,8.5C498.5,279.9,494.4,275,494.4,274.9z"/>
				<g>
					<path class="st5" d="M554,399.6c0,4.5-5.5,9.7-12.8,14.6l-19.9-17.8c6.4-4.1,11.3-7.3,11.9-7.5c3.7-1.8,8.2-1.5,11.6,0.8
						C549,392.5,554,396.5,554,399.6z M506.1,406.3l19.1,17.1c3-1.5,6-3.2,9-4.8l-19.8-17.7C511.7,402.6,508.9,404.5,506.1,406.3z
						 M273.3,345l4,1.8c0.5,0.2,1,0,1.3-0.4l0,0l69.6,31.2v-6.2c0-1.7,0.5-3.8,2-5.9l-66.7-29.9c0,0,0-0.1,0-0.1
						c0.2-0.5-0.1-1-0.6-1.2l-4-1.8c-2.7-1.2-5.8,0-7,2.7l-1.3,2.9C269.4,340.7,270.6,343.8,273.3,345z M488,418.1
						c-5.5,3.4-12.3,3.7-18.2,1.1l-26.9-12c-2.1,1.2-4.5,2.3-7.2,3.3c-2.7,1-5.7,1.8-8.8,2.5l46.4,20.8c0,0,15.3,6.4,33.1-1.5
						c2.6-1.2,6.7-2.9,11.3-5.1l-18.3-16.4C492.9,414.9,488,418,488,418.1z M267.6,388.9c-3.7-1.8-8.2-1.5-11.6,0.8
						c-4.2,2.8-9.2,6.8-9.2,9.9c0,4.5,5.5,9.7,12.8,14.6l19.9-17.8C273.1,392.3,268.2,389.2,267.6,388.9z M286.3,400.8l-19.8,17.7
						c2.9,1.7,6,3.3,9,4.8l19.1-17.1C291.9,404.5,289.1,402.6,286.3,400.8z M357.9,407.1l-26.9,12c-5.9,2.6-12.7,2.3-18.2-1.1
						c-0.1,0-4.9-3.2-11.4-7.4l-18.3,16.4c4.6,2.2,8.7,4,11.3,5.1c17.8,7.9,33.1,1.5,33.1,1.5l46.4-20.8c-3.2-0.7-6.1-1.6-8.8-2.5
						C362.4,409.3,360,408.2,357.9,407.1z M517.3,335.5l-66.7,29.9c1.5,2.1,2,4.2,2,5.9v6.2l69.6-31.2l0,0c0.3,0.4,0.8,0.6,1.3,0.4
						l4-1.8c2.7-1.2,3.9-4.4,2.7-7l-1.3-2.9c-1.2-2.7-4.4-3.9-7-2.7l-4,1.8c-0.5,0.2-0.7,0.7-0.6,1.2
						C517.3,335.5,517.3,335.5,517.3,335.5z M400.4,411.2c-26.4,0-47.8-7.7-47.8-17.2v-22.6v0c0-7.7,17.7-14.1,40.8-15.2l-9.4-19.6
						c-13,2.4-28.7,2.1-46-4.4c-13.5,5.2-23.2,2.8-23.2,2.8c-0.2-13.3,16-91.7,101.5-88.2c1.6-9.8-3.8-19.3-11-29.3
						c-19.9-27.5-2.3-39.6,2.7-42.4c-2.8,0.1-6,0.3-9.6,0.9c35-22,61.9,1.8,58.3,19.7l42.4,74.3c0,0,1.8,2.8,1.9,7.5
						c0.1,3.6-1,7.7-5.3,10.4c-0.4,0.2-0.8,0.4-1.2,0.6c-0.3,0.1-0.7,0.2-0.9,0.1c-0.3-0.1,0-0.9,0.1-1.2c0.7-1.7,1-3.2,1-4.5
						c-0.6-0.2-1.8-0.8-4-3c-7-6.8-24.9-24.5-38.4-38.1c3.3,7.9,8,25.2-1.9,46.5c-0.1-3.2-0.9-9.8-1.8-12.4
						c-1,9.1-5.6,30.7-27.6,48.5c1.1-2,2-4,2.4-6c0,0-4.4,4-12.2,8.3l-4,29.5c23,1.1,40.7,7.5,40.7,15.2c0,8.5-21.4,15.4-47.8,15.4
						c-6.7,0-13-0.4-18.8-1.2c7.2,2.6,16.8,4.3,27.4,4.4c19,0.3,34.9-4.3,39.2-10.8V394C448.2,403.5,426.8,411.2,400.4,411.2z
						 M494.8,281.2c-0.3-2-1.3-3.2-1.7-3.7c-0.5-0.7-46.9-56.6-56-67.7c-2.2,0.8-4,1.1-5.6,1c1.1,1.8,3.5,5.3,8,10.9
						C445.8,229.7,489.8,276,494.8,281.2z M454.7,200c-2.1,0.6-3.8,1.2-5.2,1.9l8.6,16.5l-12-14.6c-1.7,1.2-2.9,2.3-4.2,3.4
						c11.6,15,52.1,68.2,52.7,68.9c0,0,3.8,4.8,1.1,10.2c7.3-5.7,2-15.4,2-15.4L454.7,200z M394.4,309c0.2,5.4-0.7,9.5-1.7,12.6
						c3.8-1.5,23.8-5.5,35.2-28.3c0,2-0.5,8.1-1.3,10.9c12-15.1,19.1-33.7,20-46.8c2,3.4,4,7.4,5.3,12.8c2.5-21.2-11-38.8-24.1-52.7
						c-9.9-10.5-12.3-17.8-12.6-22c1.9,3.2,5.3,8,9.7,11.7c-1.6-2.5-1.8-5.4-1.8-5.4v-0.4c1.4,3.1,4.2,7.1,8.7,6
						c5.1-1.2,8.8-4.5,11-7.1c-6.1,2.4-14.3-2.4-13.2-9c-2.2-0.6-4.7-1.1-7.7-1.4c15.5-3.3,23.2,6.8,28.8,5.1
						c0.3-3.3,0-11.6-9.3-17.8c-6.1-4.1-14.8-8.1-31.7-4.4c8.3,0,11.6,3.2,12.8,4.9c-1.2-0.8-4.4-1.9-9.2-2.3
						c-4.8,2.3-18.9,11.2-6.1,33.6c-0.8-3.4,0-7.7,0.5-10.1c-0.9,18.7,32.9,35.2,10.8,63.2c7.1-11.5,3.7-22.5,0.6-28.6
						c7.8,27.8-18.3,36.9-24.2,38.5c10.2-6.6,16.3-12.8,19.2-18.8c-44.5-2.4-64.3,20.9-69.9,29.2c9.9-6.9,16.8-9.7,20.1-10.8
						c-22.3,13.9-36.9,37.4-40.6,54.3c8.4,0.2,27.9-2.7,51.9-28.1c-8.5,13.3-17.2,22-25.3,27.7C377.1,334.2,389.1,321.1,394.4,309z
						 M388,366.1l27.6,0c-2.5-1.6-6.4-2.7-11-3l1.4-33.6c-2.9,1.4-6.2,2.7-9.7,3.9l3.8,25.7l-7-24.7c-1.4,0.4-2.8,0.8-4.2,1.1
						c4.5,10.9,8,22.5,9.6,27.5C394.2,363.5,390.5,364.6,388,366.1z"/>
					<path d="M440.6,194.1c-0.3-0.1-0.6-0.2-0.9-0.3L440.6,194.1z"/>
				</g>
				<path d="M406.8,173.4c1.1-0.3,2.1-0.5,3.1-0.8c-0.9,0-1.8,0-2.9,0.1L406.8,173.4z"/>
			</g>
		</g>
		<path class="st2" d="M441.9,196.3c-0.2,0.8-1.2,1.3-2.3,1.1c-1.3-0.2-2.3-1.1-2.2-2.1l2-0.4c-1.3-0.7-2.8-1.4-4.5-2.1
			c-1.6,4.3,5.1,8.1,8.3,4.1C442.7,196.7,442.3,196.5,441.9,196.3z"/>
		<path class="st6" d="M278.8,333.5c0.6,0.2,1.1,0.5,1.4,0.8c-0.5,0-1,0-1.5,0c-0.5,0-1.1,0.1-1.6,0.3c-0.5,0.1-1.1,0.4-1.5,0.6
			c-0.5,0.3-0.9,0.6-1.3,1c-0.1,0.1-0.2,0.2-0.3,0.3c-0.1,0.1-0.2,0.2-0.2,0.3c-0.1,0.1-0.1,0.2-0.2,0.3l-0.2,0.4
			c-0.3,0.5-0.5,0.9-0.7,1.2c-0.4,0.7-0.7,1.1-0.7,1.1s0.1-0.5,0.3-1.3c0.1-0.4,0.2-0.8,0.4-1.4l0.1-0.4c0-0.1,0.1-0.3,0.2-0.4
			c0.1-0.1,0.1-0.3,0.2-0.4c0.1-0.1,0.2-0.3,0.3-0.4c0.4-0.6,0.9-1.1,1.5-1.5c0.6-0.4,1.3-0.7,2-0.8
			C277.5,333.2,278.2,333.3,278.8,333.5z M522,333.5c-0.6,0.2-1.1,0.5-1.4,0.8c0.5,0,1,0,1.5,0c0.5,0,1.1,0.1,1.6,0.3
			c0.5,0.1,1.1,0.4,1.5,0.6c0.5,0.3,0.9,0.6,1.3,1c0.1,0.1,0.2,0.2,0.3,0.3c0.1,0.1,0.2,0.2,0.2,0.3c0.1,0.1,0.1,0.2,0.2,0.3
			l0.2,0.4c0.3,0.5,0.5,0.9,0.7,1.2c0.4,0.7,0.7,1.1,0.7,1.1s-0.1-0.5-0.3-1.3c-0.1-0.4-0.2-0.8-0.4-1.4l-0.1-0.4
			c0-0.1-0.1-0.3-0.2-0.4c-0.1-0.1-0.1-0.3-0.2-0.4c-0.1-0.1-0.2-0.3-0.3-0.4c-0.4-0.6-0.9-1.1-1.5-1.5c-0.6-0.4-1.3-0.7-2-0.8
			C523.2,333.2,522.5,333.3,522,333.5z M349.1,367.3l-65.8-29.5c-0.3-0.1-0.6,0-0.7,0.3l-0.5,1.2l66.4,29.8
			C348.6,368.5,348.8,367.9,349.1,367.3z M451.6,367.3l65.8-29.5c0.3-0.1,0.6,0,0.7,0.3l0.5,1.2L452.3,369
			C452.1,368.5,451.9,367.9,451.6,367.3z M362.5,409.3l-33.5,15c-2.5,1.1-5.2,1.7-8,1.7c-3.8,0-7.4-1.1-10.6-3.1
			c-13.5-8.8-27.2-17.6-40.7-26.4l-2.3-1.5c-2.2-1.4-6.3-3-9.4-2.3c0.3-0.1,0.7-0.2,1-0.3c3.9-1,6.8-0.7,9.4,1l2.3,1.5
			c13.6,8.8,27.2,17.6,40.7,26.4c5,3.3,11.3,3.8,16.8,1.3l32-14.4C360.9,408.6,361.7,409,362.5,409.3z M542.8,392.7
			c-3.1-0.8-7.2,0.8-9.4,2.3l-2.3,1.5c-13.6,8.8-27.2,17.6-40.7,26.4c-3.2,2.1-6.8,3.1-10.6,3.1c-2.8,0-5.4-0.6-8-1.7l-33.5-15
			c0.8-0.3,1.5-0.7,2.2-1l32,14.4c5.5,2.5,11.8,2,16.8-1.3c13.5-8.8,27.2-17.6,40.7-26.4l2.3-1.5c2.7-1.7,5.6-2,9.4-1
			C542.2,392.5,542.5,392.6,542.8,392.7z M445.5,385.2v8.8c0,3.3-4.6,6.9-12.3,9.7c-7.4,2.7-17,4.3-27.4,4.8
			c9.4-0.6,18-2.2,24.8-4.7c7.5-2.8,12-6.4,12-9.7v-7C443.8,386.5,444.7,385.9,445.5,385.2z M420.7,358.8
			c11.7,2.3,19.3,6.2,19.3,10.6c0,7-19.2,12.7-43,12.7c-10.5,0-20.1-1.1-27.6-3c7.9,2.7,19.5,4.5,32.4,4.5c23.8,0,43-5.9,43-13.1
			C444.9,365.4,435,360.9,420.7,358.8z"/>
	</g>
</g>
</svg>
