<?xml version="1.0" encoding="utf-8"?>
<!-- Generator: Adobe Illustrator 24.2.1, SVG Export Plug-In . SVG Version: 6.00 Build 0)  -->
<svg version="1.1" id="Layer_1" xmlns="http://www.w3.org/2000/svg" xmlns:xlink="http://www.w3.org/1999/xlink" x="0px" y="0px"
	 viewBox="0 0 800 800" style="enable-background:new 0 0 800 800;" xml:space="preserve">
<style type="text/css">
	.st0{fill-rule:evenodd;clip-rule:evenodd;fill:#A3B9D6;}
	.st1{fill:#202632;}
</style>
<rect x="-0.4" y="-0.5" class="st0" width="801.5" height="801.5"/>
<g>
	<g>
		<g>
			<g>
				<path class="st1" d="M362.4,352.7c2.6,0,4.9,0.4,7.1,1.5c2.3,1.1,4.1,2.6,5.6,4.1c1.5,1.9,2.6,3.8,3.8,6
					c0.8,2.3,1.5,4.5,1.5,6.8s-0.4,4.9-1.1,6.8c-0.8,2.3-1.9,4.1-3.4,6c-1.5,1.9-3.4,3-5.3,4.1c-2.3,1.1-4.5,1.5-7.1,1.5h-9.8v8.3
					h-12.4v-54.5h12.4v9.4H362.4z M362,378.6c1.5,0,3-0.8,3.8-2.3c0.8-1.5,1.5-3,1.5-5.3c0-2.3-0.8-4.1-1.9-5.3
					c-1.1-1.5-2.6-1.9-4.1-1.9h-8.6v14.7H362z"/>
				<rect x="386.8" y="341.8" class="st1" width="12.4" height="11.3"/>
				<path class="st1" d="M426,398.5c-3.4,0-6.4-0.4-9-1.5s-4.9-2.6-6.8-4.5c-1.9-1.9-3.4-4.1-4.1-6.8c-1.1-2.6-1.5-5.3-1.5-7.9
					s0.4-5.3,1.5-7.9s2.3-4.9,4.1-6.8c1.9-1.9,4.1-3.4,6.8-4.5c2.6-1.1,5.6-1.9,9-1.9c3.4,0,6.4,0.8,9,1.9c2.6,1.1,4.9,2.6,6.8,4.5
					c1.9,1.9,3.4,4.1,4.1,6.8c1.1,2.6,1.5,5.3,1.5,7.9s-0.4,5.3-1.5,7.9s-2.3,4.9-4.1,6.8c-1.9,1.9-4.1,3.4-6.8,4.5
					C432.3,397.8,429.3,398.5,426,398.5z M416.9,377.5c0,3,0.8,5.6,2.6,7.5c1.5,1.9,3.8,3,6.4,3c1.1,0,2.6-0.4,3.4-0.8
					c1.1-0.4,1.9-1.1,2.6-2.3c0.8-0.8,1.5-1.9,1.9-3.4c0.4-1.1,0.8-2.6,0.8-4.1c0-3-0.8-5.6-2.6-7.5c-1.5-1.9-3.8-3-6.4-3
					c-1.1,0-2.6,0.4-3.4,0.8c-1.1,0.4-1.9,1.1-3,2.3s-1.5,1.9-1.9,3.4C417.3,374.5,416.9,376,416.9,377.5z M429.3,353.8l-7.9-2.3
					l4.1-10.2h11.3L429.3,353.8z"/>
				<path class="st1" d="M492.9,397.8h-12.4v-22.6c0-2.6-0.4-4.5-1.5-5.6c-1.1-1.1-2.3-1.9-4.1-1.9c-0.8,0-1.9,0-2.6,0.4
					c-0.8,0.4-1.9,0.8-2.6,1.5c-0.8,0.8-1.5,1.5-2.3,2.3c-0.8,0.8-1.1,1.9-1.5,3v22.9h-12.4v-40.6h10.9v6.8c1.5-2.3,3.8-4.1,6.4-5.6
					c2.6-1.1,6-1.9,9.4-1.9c2.6,0,4.9,0.4,6.4,1.5c1.5,1.1,2.6,2.3,3.8,3.8c0.8,1.5,1.5,3,1.9,4.9c0.4,1.9,0.4,3.4,0.4,5.3v25.9
					H492.9z"/>
				<path class="st1" d="M562.5,398.5c-3.4,0-6.8-0.4-10.2-1.5c-3.4-1.1-6-2.6-8.3-4.9l4.5-7.5c2.6,1.5,4.9,3,7.1,3.8
					c2.3,0.8,4.5,1.5,6.8,1.5c1.5,0,2.6-0.4,3.8-0.8c0.8-0.4,1.1-1.5,1.1-2.6c0-1.1-0.4-1.9-1.5-2.6c-1.1-0.8-3-1.5-5.6-1.9
					c-2.6-0.8-4.9-1.5-6.8-2.3c-1.9-0.8-3.4-1.5-4.5-2.3c-1.1-0.8-1.9-1.9-2.6-3c-0.8-1.1-0.8-2.6-0.8-4.1c0-1.9,0.4-3.8,1.1-5.6
					c0.8-1.5,1.9-3,3.4-4.1s3-2.3,5.3-2.6c1.9-0.8,4.1-1.1,6.4-1.1c3,0,6,0.4,8.6,1.1c2.6,0.8,5.3,2.3,7.5,4.5L573,370
					c-2.3-1.5-4.5-2.6-6-3.4c-1.9-0.8-3.4-1.1-5.3-1.1c-1.5,0-2.6,0.4-3.4,0.8s-1.5,1.5-1.5,2.6c0,1.1,0.4,1.9,1.5,2.6
					c1.1,0.4,3,1.1,5.6,1.9c3,0.8,5.3,1.5,7.1,2.3c1.9,0.8,3.4,1.5,4.9,2.6c1.1,1.1,2.3,1.9,2.6,3.4c0.4,1.1,0.8,2.6,0.8,4.5
					c0,4.1-1.5,7.1-4.5,9.4C571.9,397,567.7,398.5,562.5,398.5z"/>
				<path class="st1" d="M365,459.1c-3,0-5.6-0.8-7.9-1.9c-2.3-1.1-4.1-3-5.3-5.6v6.8h-10.5v-56h12.4v22.2c1.5-2.3,3-4.1,5.3-5.3
					c2.3-1.1,4.9-1.9,7.9-1.9c2.6,0,4.9,0.4,7.1,1.5c2.3,1.1,4.1,2.6,5.6,4.5c1.5,1.9,2.6,4.1,3.8,6.8c0.8,2.6,1.1,5.3,1.1,8.3
					c0,3-0.4,5.6-1.5,8.3c-1.1,2.6-2.3,4.9-4.1,6.8c-1.5,1.9-3.8,3.4-6,4.5C369.9,458.3,367.7,459.1,365,459.1z M361.3,448.6
					c1.5,0,2.6-0.4,3.8-0.8s2.3-1.1,3-2.3c0.8-0.8,1.5-1.9,1.9-3.4c0.4-1.1,0.8-2.6,0.8-4.1s-0.4-2.6-0.8-4.1
					c-0.4-1.1-1.1-2.3-1.9-3.4c-0.8-1.1-1.9-1.9-3-2.3s-2.3-0.8-3.8-0.8c-1.9,0-3.8,0.8-5.3,1.9c-1.5,1.5-3,3-3.8,4.9v8.3
					c0.8,1.9,1.9,3,3.4,4.1C358.3,448.2,359.8,448.6,361.3,448.6z"/>
				<path class="st1" d="M409.4,459.1c-3.4,0-6.4-0.4-9-1.5c-2.6-1.1-4.9-2.6-6.8-4.5c-1.9-1.9-3.4-4.1-4.1-6.8
					c-1.1-2.6-1.5-5.3-1.5-7.9s0.4-5.3,1.5-7.9c1.1-2.6,2.3-4.9,4.1-6.8c1.9-1.9,4.1-3.4,6.8-4.5c2.6-1.1,5.6-1.9,9-1.9
					c3.4,0,6.4,0.8,9,1.9c2.6,1.1,4.9,2.6,6.8,4.5c1.9,1.9,3.4,4.1,4.1,6.8c1.1,2.6,1.5,5.3,1.5,7.9s-0.4,5.3-1.5,7.9
					s-2.3,4.9-4.1,6.8c-1.9,1.9-4.1,3.4-6.8,4.5C415.8,458.3,412.8,459.1,409.4,459.1z M400.4,438c0,3,0.8,5.6,2.6,7.5
					c1.5,1.9,3.8,3,6.4,3c1.1,0,2.6-0.4,3.4-0.8c1.1-0.4,1.9-1.1,2.6-2.3c0.8-0.8,1.5-1.9,1.9-3.4c0.4-1.1,0.8-2.6,0.8-4.1
					c0-3-0.8-5.6-2.6-7.5c-1.5-1.9-3.8-3-6.4-3c-1.1,0-2.6,0.4-3.4,0.8c-1.1,0.4-1.9,1.1-3,2.3c-0.8,0.8-1.5,1.9-1.9,3.4
					C400.8,435.4,400.4,436.5,400.4,438z M412.8,414.3l-7.9-2.3l4.1-10.2h11.3L412.8,414.3z"/>
				<path class="st1" d="M463.6,458.3L453,442.2l-4.1,4.5v11.7h-12.4v-56h12.4v32.3l13.5-16.5h13.2l-14.7,17.3l15.8,22.9
					L463.6,458.3L463.6,458.3z"/>
				<path class="st1" d="M480.5,413.2v-11.3h12.4v11.3H480.5z M480.5,458.3v-40.2h12.4v40.2H480.5z"/>
				<path class="st1" d="M538.8,458.3h-12.4v-22.6c0-2.6-0.4-4.5-1.5-5.6c-1.1-1.1-2.3-1.9-4.1-1.9c-0.8,0-1.9,0-2.6,0.4
					c-0.8,0.4-1.9,0.8-2.6,1.5c-0.8,0.8-1.5,1.5-2.3,2.3c-0.8,0.8-1.1,1.9-1.5,3v22.9h-12.4v-40.2h10.9v6.8c1.5-2.3,3.8-4.1,6.4-5.6
					c2.6-1.1,6-1.9,9.4-1.9c2.6,0,4.9,0.4,6.4,1.5c1.5,1.1,2.6,2.3,3.8,3.8c0.8,1.5,1.5,3,1.9,4.9c0.4,1.9,0.4,3.4,0.4,5.3v25.6
					H538.8z"/>
				<path class="st1" d="M500,357.2h12.4v22.6c0,2.6,0.4,4.5,1.5,5.6c1.1,1.1,2.3,1.9,4.1,1.9c0.8,0,1.9,0,2.6-0.4
					c0.8-0.4,1.9-0.8,2.6-1.5c0.8-0.8,1.5-1.5,2.3-2.3c0.8-0.8,1.1-1.9,1.5-3v-22.9h12.4v40.2h-10.9v-6.8c-1.5,2.3-3.8,4.1-6.4,5.6
					c-2.6,1.1-6,1.9-9.4,1.9c-2.6,0-4.9-0.4-6.4-1.5c-1.5-1.1-2.6-2.3-3.8-3.8c-0.8-1.5-1.5-3-1.9-4.9c-0.4-1.9-0.4-3.4-0.4-5.3
					v-25.6H500z"/>
				<path class="st1" d="M638.4,357.2v22.9c-0.4,1.1-0.8,1.9-1.5,3c-0.8,0.8-1.5,1.5-2.3,2.3c-0.8,0.8-1.5,1.1-2.6,1.5
					c-0.8,0.4-1.9,0.4-2.6,0.4c-1.5,0-3-0.8-4.1-1.9c-1.1-1.1-1.5-3-1.5-5.6v-22.6h-28.2v-12.8h-11.7v43.2c0,1.9,0.4,3.8,0.8,4.9
					c0.8,1.5,1.5,2.6,2.3,3.4c1.1,0.8,2.3,1.5,3.4,1.9c1.5,0.4,2.6,0.8,4.5,0.8c2.3,0,4.5-0.4,6.4-0.8c2.3-0.8,4.1-1.1,5.6-1.9
					l-2.3-9.8c-0.8,0.4-1.5,0.8-2.6,1.1c-1.1,0.4-1.9,0.4-3,0.4s-1.9-0.4-2.6-0.8c-0.8-0.8-1.1-1.5-1.1-3V367H611v16.2
					c0,1.5,0,3.4,0.4,5.3c0.4,1.9,0.8,3.4,1.9,4.9c0.8,1.5,2.3,2.6,3.8,3.8c1.5,1.1,3.8,1.5,6.4,1.5c3.4,0,6.8-0.8,9.4-1.9
					c2.6-1.1,4.9-3,6.4-5.6v6.8h10.9v-40.6H638.4z"/>
			</g>
			<path class="st1" d="M386.8,357.2v16.2c0,5.3-2.3,19.6-20.7,22.6v11.7c32-3,33.1-30.5,33.1-34.2v-16.2L386.8,357.2L386.8,357.2z"
				/>
		</g>
	</g>
	<g>
		<polygon class="st1" points="195.4,343.6 222.1,343.6 266.9,400.8 253.7,417.7 		"/>
		<polygon class="st1" points="240.6,343.6 266.9,343.6 289.1,372.2 275.9,389.1 		"/>
		<polygon class="st1" points="150.7,343.6 177.4,343.6 199.6,372.2 186.4,389.1 		"/>
		<polygon class="st1" points="150.7,458 208.6,383.9 222.1,400.8 177.4,458 		"/>
		<polygon class="st1" points="240.6,458 298.5,383.9 311.6,400.8 266.9,458 		"/>
		<polygon class="st1" points="195.4,458 231.2,412.5 244.3,429.4 222.1,458 		"/>
	</g>
</g>
</svg>
