<?xml version="1.0" encoding="utf-8"?>
<!-- Generator: Adobe Illustrator 24.2.1, SVG Export Plug-In . SVG Version: 6.00 Build 0)  -->
<svg version="1.1" id="Layer_1" xmlns="http://www.w3.org/2000/svg" xmlns:xlink="http://www.w3.org/1999/xlink" x="0px" y="0px"
	 viewBox="0 0 800 800" style="enable-background:new 0 0 800 800;" xml:space="preserve">
<style type="text/css">
	.st0{fill-rule:evenodd;clip-rule:evenodd;fill:#AADCD9;}
	.st1{fill:#FFFFFF;}
	.st2{fill:#AADCD9;}
	.st3{fill:#82131F;}
	.st4{fill:#D44F4A;}
	.st5{fill:#EFC2B6;}
</style>
<rect x="-0.4" y="-0.5" class="st0" width="801.5" height="801.5"/>
<g>
	<g>
		<ellipse class="st1" cx="400.4" cy="400.2" rx="241" ry="212.7"/>
		<g>
			<path class="st2" d="M535.9,365.7h-41.8c-8.6,0-15.5-6.2-15.5-13.9c0-7.2,6.1-13.1,14-13.8c-1.6-5,0.3-10.4,4.7-12.7
				c1.8-1,3.9-1.2,5.8-0.9c-26.1-21.3-62.1-34.5-101.9-34.5c-52.3,0-98.1,22.8-123.3,56.9c4.7,1.2,8.7,4.3,11.1,8.4
				c4.4-3.7,10.5-4.8,15.7-2.2c6.2,3.2,8.9,10.8,6.6,17.7c10.9,0.9,19.5,9.2,19.5,19.2c0,10.7-9.7,19.3-21.6,19.3h-52.1
				c0.2,13.3,3,26,8.1,37.9h272.1c5.3-12.3,8.1-25.5,8.1-39.2C545.5,393.1,542.1,378.8,535.9,365.7z"/>
			<g>
				<circle class="st3" cx="312.4" cy="455.1" r="21.7"/>
				<circle class="st4" cx="311.4" cy="454.1" r="15.6"/>
				<path class="st1" d="M300.6,457c-2.6-2.6-1.6-8.3,2.2-12.1c3.8-3.8,9-4.4,11.6-1.8s-3.1,3.1-6.9,6.9
					C303.7,453.9,303.2,459.6,300.6,457z"/>
			</g>
			<g>
				<path class="st1" d="M403.1,520.2c-2.3,0-4.8-0.1-7.4-0.2l-1.4,0c-6.6-0.2-9.6-0.9-10.8-2.3c-1.2-1.4-1-4.1-0.4-8.4
					c0.5-4,1.4-6.4,2.5-9c0.3-0.8,0.6-1.6,0.9-2.4l0.5-1.5l-1.6,0c-2.2,0-5,0.6-6.5,0.9l-0.6,0.1L378,498c-1,3.5-2,6.4-3,8.7
					c-4.1,9.7-5.7,11.8-13.3,11.8c-1.4,0-2.9-0.1-4.6-0.1c-1,0-2.1-0.1-3.1-0.1c-7.6-0.2-14.7-0.5-17.5-3.5c-1-1-1.4-2.4-1.2-4.2
					c0.6-9.3,1.7-16,10.3-16.5l0.5,0l2.5-2.7c3.8-4.3,5.3-10.9,5.6-25.5l0-1.6l-2.8,0.9c-0.1-4.2,0.7-12.5,1.5-19.3
					c0-0.4-0.1-0.8-0.3-1.1c-0.3-0.3-0.7-0.5-1.2-0.5c-0.3,0-0.7,0.1-0.9,0.3l-0.4,0.3c0.5-11.3,4.1-30.7,5.7-38.9l0.3-1.3H356
					c1-6.2,1.8-13.5,2.6-21.7l0.1-1.4l-1.4,0.1c-0.3,0-0.5,0-0.8,0c-2.6,0-5.3-1.3-6.7-2.4c-2.7-2.1-9-8.7-14.2-17.7l-1.1-1.8
					l-1.1,2.4c-3.8-6.4-4.8-14.1-5-17.2c-0.1-1-0.9-1.7-1.8-1.7c-0.2,0-0.3,0-0.5,0.1c-0.6-16.2,7-28.8,13.7-36.5
					c5.8-7.2,12.9-13,20.9-17.1l0.1,0l0.1,0c0.8-0.5,19.3-12.8,40.4-14.2l0.1,0c0,0,0.6-0.1,1.2-0.1c0.3,0,0.5,0,0.7,0
					c-0.1,0.1-0.3,0.3-0.5,0.5l-4.3,4.2l3.6-0.6c0,0,4.1-0.7,9.3-0.7c4.9,0,9.3,0.6,12.8,1.8c0,0,0,0,0,0c-0.1,0.2-0.5,0.7-2.1,1.6
					l-2.4,1.4l2.7,0.7c14.7,3.8,26.3,11.2,35.5,22.6c6.6,7.7,14.3,20.3,13.7,36.5c-0.2,0-0.3-0.1-0.5-0.1c-1,0-1.8,0.8-1.8,1.7
					c-0.2,3.1-1.2,10.8-5,17.2l-1.1-2.4l-1.1,1.8c-5.2,9-11.5,15.7-14.2,17.7c-1.6,1.2-3.6,2-5.5,2.3l-1.3,0.2l0.4,1.3
					c1.8,5.7,4.2,11,6.9,15.8c3.4,5.4,9.2,12.5,17.9,16.5c-0.1,0.1-0.1,0.1-0.2,0.2c-0.4,0.3-0.7,0.8-0.7,1.3c0,0.5,0.2,1,0.5,1.3
					c1.3,1.3,4.6,4.2,9.2,5.4c-0.2,0.1-0.4,0.3-0.6,0.4l-1.4,0.7l1.1,1.1c8.5,8,13.5,18.3,15,30.4l0.5,4.2l1.6-3.9
					c5.7-13.5,1.7-35.9-8.8-50.1c-2.6-3.3-5-7.7-4.5-8.8c0.1-0.2,0.7-0.2,0.8-0.2c0.8,0,2.4,0.3,5.3,1.6c16.3,7,29.3,33.2,28,56.1
					c-1,17.5-10.4,29.7-26.2,34.4l-0.6,0.2l-0.2,0.5c-1.9,5.4-5.3,9-10.3,10.5c-13.2,4-33.9,6.9-34.1,6.9c0,0-0.9,0.1-2.1,0.1
					c0,0,0,0,0,0c-3.6,0-9.8-1-11.6-7.8c-0.4-1.7-0.6-3.4-0.4-5.3l0.1-1.3l-1.3,0.1c-2.2,0.2-5.6,0.6-8.1,1l-0.8,0.1l-0.2,0.8
					c-0.6,3.1-0.1,5.7,0.4,8.5c0.5,2.9,1.1,5.8,0.6,9.8C416.7,518.4,413,520.2,403.1,520.2z"/>
				<path class="st5" d="M509.1,443c0,9.9-0.4,21.1-6.3,17.6c-3.4-2,4.7-19-3.2-20.2c-9.8-1.5-1.6-15.4,2.4-15.4
					C506,425,509.1,433.1,509.1,443z"/>
				<g>
					<path class="st5" d="M457.6,454.9c0,0-4.3,20.1,8.9,30.9l-19.5-8.7l-1.8-14L457.6,454.9z"/>
					<path class="st5" d="M438.5,437c0,0-4.7,23.2,17.1,17.4l-2.4,4.5l-27.9,14L438.5,437z"/>
					<path class="st5" d="M369.3,422.5c0,0,8.4,28.2,22.4,18.7c0,0,8.4-4,5.4-21.1l4.6,8.7l1.1,16.1l-9.2,22.7l-18.4-14.8
						L369.3,422.5z"/>
					<path class="st5" d="M468.9,440.2c2.1-8-1.3-19.6-9.7-27.2c-8.4-7.6-18.8-19.1-24.1-13.1s8,5.8,9.2,30.3
						C445.1,444.7,465.6,453.1,468.9,440.2z"/>
					<path class="st5" d="M401.4,324.8c-2.9-13.4,6.2-27.2,17.7-27.2c11.5,0,18.4,11.3,18.4,26.4c0,15.1-9.5,18.7-20.2,13
						C407.2,331.6,403.3,333.5,401.4,324.8z"/>
					<path class="st5" d="M387.7,382c0,0,6.6,1.8,7.6,13.7c1.1,11.9,11.3,18.7,16.9,15.8c5.5-2.9,14-8.4,7.6-24
						c-6.3-15.5-19.5-10-19.5-10S390.1,376.4,387.7,382z"/>
					<g>
						<path class="st4" d="M410.1,372.2l-11.2-8.5l-14.7,6.2l-13.7-3.7l2.5,10.6l9.9,10.6l11.6,5.6l0.4-0.1c0,0,0,0,0,0
							c-0.7-3.2-1.8-6-4-8.4c-2.6-2.8-0.7-7.1,3-7.3c4.2-0.2,8.7-0.5,12.8,0.1c0.3-0.1,0.6-0.1,1-0.1c1.1,0,2,0.4,2.7,0.9
							c3.3,1,6.2,2.8,8.4,6l4-3.6l2.7-13.4L410.1,372.2z"/>
						<path class="st3" d="M413,334.9c1.1,1.9-11.6-7.4-27.7,0.4c-0.4,0.2-1-0.1-0.8-0.5c0.9-1.7,3.8-5.1,13.3-5.9c0,0,0,0,0,0
							C410.8,328.6,413.1,335.1,413,334.9z"/>
						<g>
							<path class="st3" d="M426.5,349.6c-0.4,1.1-0.7,2.2-1.6,2.2c-0.9,0-1.6-1-1.6-2.2c0-1.2,0.7-2.2,1.6-2.2
								C425.8,347.4,427.1,347.8,426.5,349.6z"/>
							<path class="st3" d="M421.9,357.6c-0.4,1.3-0.8,2.4-1.8,2.4s-1.8-1.1-1.8-2.4s0.8-2.4,1.8-2.4S422.6,355.6,421.9,357.6z"/>
							<path class="st3" d="M428.4,356.2c-0.3,0.9-0.5,1.6-1.2,1.6s-1.2-0.7-1.2-1.6s0.5-1.6,1.2-1.6S428.8,354.8,428.4,356.2z"/>
						</g>
						<g>
							<path class="st3" d="M372.6,348.8c0.4,1.1,0.7,2.2,1.6,2.2c0.9,0,1.6-1,1.6-2.2s-0.7-2.2-1.6-2.2
								C373.3,346.6,372,347,372.6,348.8z"/>
							<path class="st3" d="M377.2,356.8c0.4,1.3,0.8,2.4,1.8,2.4c1,0,1.8-1.1,1.8-2.4c0-1.3-0.8-2.4-1.8-2.4
								C377.9,354.3,376.5,354.8,377.2,356.8z"/>
							<path class="st3" d="M370.7,355.4c0.3,0.9,0.5,1.6,1.2,1.6s1.2-0.7,1.2-1.6s-0.5-1.6-1.2-1.6S370.2,354,370.7,355.4z"/>
						</g>
						<path class="st3" d="M415.9,329.6c0,0,4.6-1.6,10.1,1.9c0,0,3.7,2.7,0.5,2.6C423.3,334,415.9,329.6,415.9,329.6z"/>
					</g>
					<g>
						<path class="st3" d="M370.7,328.5c1.5-0.9,3.4-1.9,5.9-2.6c5.5-1.6,8.5,1.4,10.1,2.7c0.2,0.2,2.4-1,2.3-1.3
							c-1-2.7-5.7-8.6-14-6.3c-3.7,1-5.8,2.7-7,4.5C366.7,327.4,368.9,329.6,370.7,328.5z"/>
						<path class="st3" d="M410.6,328.8c1.6-1.3,5.2-4.5,10.8-2.9c2.5,0.7,4.4,1.6,5.9,2.6c1.9,1.2,4-1.1,2.8-2.9
							c-1.2-1.8-3.3-3.5-7-4.5c-8.3-2.3-13.1,3.6-14,6.3C408.8,327.6,410.3,329,410.6,328.8z"/>
						<path class="st3" d="M406.3,499.1c-7.1-1.8-12.8,0.4-11.7,2.6c0,0,6.5-1.7,15.4,0.5C410.1,502.1,413.4,500.9,406.3,499.1z"/>
						<path class="st3" d="M484.5,397.8c-15.5-6.7-3,9.2-3,9.2c9.9,13.4,14.4,35.4,8.6,49c-1.3-10.5-5.5-21.7-15.3-31.1
							c0.7-0.4,1.3-0.9,1.6-1.3c0.3-0.3,0.1-0.8-0.3-0.9c-4.8-1-8.3-4.1-9.6-5.4c-0.3-0.3-0.2-0.7,0.1-0.9c0.4-0.3,0.7-0.6,0.9-0.8
							c0.3-0.3,0.2-0.8-0.2-0.9c-9-3.8-14.9-11.2-18.1-16.3c-2.1-3.7-4.7-8.9-6.8-15.6c2.3-0.3,4.5-1.4,6-2.5
							c2.8-2.1,9.2-8.9,14.5-18.1l0.5,1.1c0.3,0.5,1,0.6,1.3,0.1c4.3-6.8,5.3-15.1,5.5-18.3c0-0.6,0.7-0.9,1.2-0.5
							c0.5,0.3,1.1,0,1.2-0.5c0.8-16.4-6.5-29.2-13.9-37.8c-9.5-11.7-21.6-19.2-36.1-23c4.5-2.5,1.9-3.6,1.9-3.6
							c-10-3.4-22.7-1.1-22.7-1.1l1.7-1.6c3.5-3.2-2.3-2.4-2.3-2.4c-21.3,1.4-39.7,13.5-41,14.4c-8.1,4.2-15.2,9.9-21.2,17.4
							c-7.4,8.6-14.7,21.5-13.9,37.8c0,0.6,0.7,0.9,1.2,0.5h0c0.5-0.3,1.1,0,1.2,0.5c0.2,3.2,1.2,11.5,5.5,18.3
							c0.3,0.5,1,0.5,1.3-0.1l0.5-1.1c5.3,9.1,11.7,15.9,14.5,18.1c2,1.5,5.2,2.9,8.3,2.6c-0.7,7.3-1.6,15.5-2.8,22.9h0
							c-1.5,7.7-5.6,29.4-5.7,40.6c0,0.3,0.4,0.4,0.7,0.2l1.6-1.1c0.3-0.2,0.7,0,0.7,0.3c-0.4,3.3-1.8,15.7-1.5,20.5
							c0,0.2,0.3,0.4,0.6,0.3l2.1-0.7c-0.3,13.4-1.6,20.6-5.3,24.8c-0.9,1-1.6,1.7-2.2,2.4c-12.8,0.6-12.7,9.6-13.2,17.6
							c-0.6,9.1,13.2,8.6,24.7,9c11.6,0.4,13.7,0.3,19-12.3c1-2.4,2-5.5,3-8.8c1.5-0.3,4.2-0.9,6.2-0.9c-1.3,3.7-2.8,6.4-3.4,11.7
							c-1.1,9.3-1,11.5,12.3,11.9c13.4,0.4,23.1,1.1,24.2-7.6c1-8-2.1-12.3-1-18.2c2.3-0.3,5.8-0.7,8.1-1c-0.2,1.9,0,3.9,0.4,5.7
							c2.7,10.5,14.9,8.5,14.9,8.5s20.8-2.9,34.2-7c6.4-1.9,9.5-6.7,11-11.2C531.4,477,512.3,409.8,484.5,397.8z M344.6,364.6
							c-3.1-4.1-5.3-8-6.9-11.8c-2.4,4.8-2.7-4.1-2.7-9.3c-0.2-0.9-0.3-1.9-0.4-2.8l-0.1,0.1c-0.8,1.2-1.3,1.6-1.7,1.7
							c-1,0.1-0.6-2.9-0.6-2.9c0-0.3,0-0.6,0.1-0.9c0.5-5.6,2.7-11.5,4.5-15.7c1.8-4.9,3.9-7.8,3.9-7.8
							c7.3-11.2,16.4-18.2,25.4-22.5c4.3-2.5,10-5.5,16-7.9c3.5-1.4,7.2-2.6,10.8-3.3c0,0,2.7-0.7,4-0.4c0.6,0.1,0.9,0.5,0.5,1.3
							c-0.1,0.2-0.3,0.4-0.5,0.6c-0.4,0.4-0.9,1-1.7,1.6l-0.8,0.8c0.1,0,0.2,0,0.3,0c0.4-0.1,1.2-0.2,2.2-0.3
							c1.1-0.2,2.4-0.4,3.8-0.6c4-0.5,8.9-1.1,12.3-1.1c0.9,0,1.6,0.1,2.2,0.2c2.1,0.3,2.4,1.3-0.8,3.2c12.9,2.6,30.2,9.6,42.5,28.3
							c0,0,2,2.7,3.7,7.3c1.9,4.2,4.1,10.3,4.7,16.1c0,0.4,0.1,0.7,0.1,1.1c0,0,0.4,3.1-0.7,2.9c-0.4-0.1-0.9-0.5-1.7-1.7l-0.1-0.1
							c-0.1,0.9-0.2,1.7-0.4,2.6c0,5.1-0.3,14.4-2.8,9.4c-1.6,3.8-3.8,7.8-6.9,11.9c-19.1,25.4-14.2-2.9-13.4-9.9
							c1-8.7,3.6-45.2-10.1-53.5c0,0,9.4,24.4,4.5,55.1c-3.3,4.7-9.9,10.5-21.4,10.6c-11,0.2-12-8.7-12-12.3
							c0.8-0.2,1.5-0.6,2.2-1.1l9.3-7.4c1.7-1.3,2.3-3.4,1.3-5.1c-2.1-3.7-7.9-4.3-14.8-4.3s-12.7,0.5-14.8,4.3
							c-1,1.7-0.4,3.8,1.3,5.1l9.3,7.4c0.6,0.5,1.4,0.9,2.2,1.1c0,3.5-0.9,12.4-12,12.3c-10.9-0.2-17.4-5.4-20.9-10
							c-5.1-31,4.4-55.8,4.4-55.8c-13.6,8.3-11.1,44.8-10.1,53.5C358.8,361.7,363.7,390,344.6,364.6z M416.5,379.9
							c-6.4-7.2-13.7-5.3-16.3-4.2c-1.8-0.7-3.7-0.9-5.6-0.4c-2.3,0.2-7.2,1.3-12,6.7c-3.3-3.7-4.7-8-5.2-10.4
							c4.9,1.6,10.4,1.8,15.7-0.8c2.8-1.4,4.5-3.4,5.6-5.7c1.1,2.3,2.8,4.3,5.6,5.7c5.4,2.7,11,2.4,16,0.7
							C419.6,373.4,418.6,376.7,416.5,379.9z M398.4,395.1c-0.1-0.3-0.1-0.5-0.2-0.8c-0.2-1-0.4-2.1-0.6-3.2c-0.1-0.5-0.2-1-0.2-1.5
							c0-0.2-0.1-0.4-0.1-0.6c-0.8-6.8-3.6-7.9-5.8-7.6c-0.1,0-0.2,0-0.2,0c0-0.1,0.1-0.1,0.1-0.2c1.6-2.1,4.8-4.6,9.5-1.9
							c2.9,1.6,4.7,4.9,6,8.4c0,0,0,0.1,0,0.1c0.6,1.6,1,3.2,1.4,4.8c0.6,2.4,0.9,4.6,1.2,5.9c0.1,0.7,0.2,1.1,0.3,1.3
							c0.5,0.9,2.1,2.8,2.2-0.6c0-1.3-0.2-3.4-0.8-6.7c-0.1-0.4-0.2-0.8-0.2-1.2c-0.4-1.7-0.9-3.2-1.4-4.7c0,0,0-0.1,0-0.1
							c-1.4-3.5-3.3-6.4-5.5-8.4c2.5-1.1,7.2-0.1,11,4.6c0.4,0.5,0.8,1,1.1,1.6c0.2,0.4,0.5,0.8,0.7,1.2c0.2,0.4,0.5,0.9,0.7,1.4
							c0.2,0.4,0.3,0.7,0.5,1.1c3.1,8.2,1.8,20.2-6,21.6C404.9,410.9,400.5,404,398.4,395.1z M460,499.7c-4.7,1.1-7.8,2-10.9,2.5
							c0.2-0.1,0.3-0.2,0.5-0.4c0,0-5.5,1.2-5.9-2.8c-0.4-4,1.3-5.4,1.3-5.4s1.8-2.5-1-0.9c-2.6,1.6-5.7,8-0.8,10.2
							c-0.9,0.1-1.9,0.1-2.9,0.1c-2-0.3-4.4-1.4-4.4-4.4c0.1-5.3,2.5-6.9,2.5-6.9s2.7-3-1.1-1.3c-3.1,1.5-7.2,7.5-4.5,11.5
							c-5.2-3.1-4.3-11.5,4.6-17.4c11.2-7.4,26,1.5,26,1.5s7.3,4.8,4,0.1c-2.5-3.4-8.5-7.9-16-9.8c-1.4-1.8-3.7-6.1-1.9-12.6
							c3-2.5,5.8-5.5,8-8.9c0.4-0.6-0.2-1.2-0.8-0.9c-4.7,3.1-14.7,9-26.6,11.9c5.2-12.2,9.7-25,8.4-31.3c-0.1-0.3-0.5-0.3-0.6,0
							c-1.3,3.4-5.7,15.2-7.9,20.4c-2.6,6.1-12,26.2-13.6,30.1c-1.6,3.9-4.7,11.7-3.2,20.3c1.1,6.3-0.8,9.1-5.8,9.8
							c-0.6-0.3-1.4-1.3-1.3-4.7c0.1-6.1-2.3-6.6-3-0.1c-0.4,3.6-1.6,4.6-2.6,4.8c-0.2,0-0.4,0-0.6-0.1l-0.1-0.2
							c0,0-0.1,0.1-0.2,0.1c-0.1,0-0.1,0-0.2,0c-0.2-0.1-0.3-0.1-0.3-0.1l0.1,0.1c-0.3,0-0.7,0-1-0.1c-0.4-0.5-0.7-1.6-0.6-3.9
							c0.1-6.1-2.3-6.6-3-0.1c-0.2,2-0.7,3.1-1.2,3.7c-5.1-0.3-7.3-1.1-5.3-7.7c2.8-9.2,4-14.3,4.3-23.6c0.4-9.3,5.8-19.9,8.5-26.4
							c2.5-6.1,7.9-24.7-3.4-37.1c-0.2-0.2-0.6-0.1-0.6,0.3c0.9,4.7,4.1,22.8-0.4,33.8c-1.4,3.5-2.7,6.5-3.7,9.4
							c-1.7-0.6-7.8-3.5-14.3-17c-2.3,7.6-6.2-13.4-7.4-20.5c-0.2-0.9-0.5-1.8-0.7-2.7c-0.2-0.9-1.5-0.7-1.5,0.2
							c-0.1,2.3,0.1,5.1,0.4,8c0.3,6.1,1.2,15.9,3.9,24.6c0.2,0.8,1.3,0.7,1.6,0l0.6-2.1c1.4,3,3,5.8,4.8,8.3
							c-0.2,3.7-0.7,12.5-1.9,17.5c-1.4,6-6,26.1-10.7,31.1c-2,2.1-5.6,2.8-9.6,2.9c-1.4-0.6-3.6-2-3.7-4.6c-0.1-3.8-1.2-4.9-2-3.3
							c0,0-2.8,4.9,0.6,7.8c-1.4-0.1-2.7-0.2-3.9-0.3c-1.3-0.7-3.4-2.3-3.4-5.5c0-4.6-1-6-1.8-4c0,0-2.6,5.5-0.1,9
							c-5-0.3-5.9-1.6-4.4-9.9c1.5-8.5,14.4-5.9,14.4-5.9c4.6,1.1,9.5-1.4,0.5-3.2c3.3-3.5,7.5-10.8,5.9-24.2
							c-0.9-7.3-1.5-19.6-1.2-34.1c-5.6,4.9-0.5-17.2,1.5-25c0.4-3.8,0.8-7.6,1.3-11.4c1-6.3,2.5-16.2,3.1-26l-0.1,0
							c0.3-2.5,0.3-5.5-0.2-9.2c1,1,2.2,2,3.4,3c2,7.6,8.1,24.1,25.1,27.2c0.3,2.6,0.7,4.9,1.4,6.8c-12.9-1.3-20.9-12-20.9-12
							c-1.4-2.4-6.6-6.3,1.2,5.9c6.5,10.2,17.1,12.2,22.8,12.5c4.5,6.3,11.3,7.2,15.6,6.3c7.4-1.6,14.7-13.6,6.5-28.7
							c5.4-6.1,8-13.6,9.1-18.1c1.4-1.1,2.7-2.2,3.9-3.4c-0.7,5.7-0.5,9.8,0.4,12.8h0c2,11.3,6.7,23.9,17.2,34.4l0-0.1
							c0.7,0.9,1.5,1.8,2.4,2.7c1.8,1.4,3.9,2.6,6.1,3c0.3,0.1,0.5,0.5,0.2,0.7c-0.4,0.3-0.9,0.8-1.6,1.1c2.2,1.7,5.1,3.5,8.2,3.9
							c0.3,0,0.5,0.5,0.3,0.7c-0.4,0.5-1.1,1.1-2.1,1.4c1.7,1.5,3.6,3.1,5.5,4.6c19,15.3,15.4,41.7,12,55.1c-1.3,4.1-3,7.8-3.8,9.8
							C476.1,496.9,469.5,497.5,460,499.7z M502,469.9c-4,6.6-8.9,10-13.6,11.8c1-4.2,1.9-9.4,2.1-15c14.8-15.9,6.2-45.1,0.4-53.5
							c-2.9-4.3-10.8-15.2,1.6-3.2C504.8,421.9,513.2,451.5,502,469.9z"/>
						<path class="st3" d="M497,395c-0.8-0.1-1.2,1-0.4,1.3c5.4,2.7,14.7,9.4,18,23.4c0.2,0.8,1.3,0.7,1.4-0.1
							c0.5-3.7,0.2-10-4.3-16.2C507.3,397.7,501.1,395.7,497,395z"/>
						<path class="st3" d="M517.6,398.4c-2.6-3.6-6.5-4.8-9-5.2c-0.5-0.1-0.7,0.6-0.3,0.8c3.3,1.7,9.1,5.8,11.1,14.4
							c0.1,0.5,0.8,0.4,0.9,0C520.6,406.1,520.4,402.3,517.6,398.4z"/>
					</g>
				</g>
			</g>
			<g>
				<path class="st3" d="M400.4,603.7c-127.1,0-230.6-91.3-230.6-203.5s103.4-203.5,230.6-203.5C527.5,196.7,631,288,631,400.2
					S527.5,603.7,400.4,603.7z M400.4,204.1c-122.7,0-222.5,87.7-222.5,195.6s99.8,195.6,222.5,195.6
					c122.7,0,222.5-87.7,222.5-195.6S523.1,204.1,400.4,204.1z"/>
			</g>
		</g>
	</g>
	<g>
		<g>
			<path class="st2" d="M590.1,455.4c-3,6.6-7.7,7.2-13.6-2.1c-3.3-5.2-9.7,3-13.1-1.1c-2.7-3.2-3.8-6.4-1.8-10.2
				c3.3-6.4,14.6-12.6,21.3-7.5C589,439.1,593.1,448.8,590.1,455.4z"/>
			<path class="st2" d="M602.8,438.5c-2.3,2.9-4.1,3.7-7,3.6c-2.7-0.1-4-5-1.9-7.6c2.3-2.9,4.6-4.7,7-3.6
				C603.4,432,604.9,435.9,602.8,438.5z"/>
			<path class="st2" d="M596.5,426.1c-2.7,4.6-5,6-9.2,6.4c-3.8,0.4-6.6-6.2-4.2-10.3c2.7-4.6,5.5-7.5,9.2-6.4S599,422,596.5,426.1z
				"/>
			<path class="st2" d="M580.2,419.6c0.3,4.6-0.7,6.8-3.5,9.1c-2.6,2.1-7.8-1.2-8.1-5.4c-0.3-4.6,0.3-8.1,3.5-9.1
				C575.3,413.2,579.9,415.4,580.2,419.6z"/>
			<path class="st2" d="M565.7,425.3c1.7,3.2,1.7,5.1,0.5,7.6c-1.2,2.4-6,1.7-7.6-1.3c-1.7-3.2-2.4-5.9-0.5-7.6
				C560.1,422.2,564.1,422.4,565.7,425.3z"/>
		</g>
		<g>
			<path class="st2" d="M212.7,455.4c3,6.6,7.7,7.2,13.6-2.1c3.3-5.2,9.7,3,13.1-1.1c2.7-3.2,3.8-6.4,1.8-10.2
				c-3.3-6.4-14.6-12.6-21.3-7.5C213.8,439.1,209.7,448.8,212.7,455.4z"/>
			<path class="st2" d="M200,438.5c2.3,2.9,4.1,3.7,7,3.6c2.7-0.1,4-5,1.9-7.6c-2.3-2.9-4.6-4.7-7-3.6S197.9,435.9,200,438.5z"/>
			<path class="st2" d="M206.3,426.1c2.7,4.6,5,6,9.2,6.4c3.8,0.4,6.6-6.2,4.2-10.3c-2.7-4.6-5.5-7.5-9.2-6.4
				C206.8,416.9,203.9,422,206.3,426.1z"/>
			<path class="st2" d="M222.6,419.6c-0.3,4.6,0.7,6.8,3.5,9.1c2.6,2.1,7.8-1.2,8.1-5.4c0.3-4.6-0.3-8.1-3.5-9.1
				C227.5,413.2,222.9,415.4,222.6,419.6z"/>
			<path class="st2" d="M237.2,425.3c-1.7,3.2-1.7,5.1-0.5,7.6c1.2,2.4,6,1.7,7.6-1.3c1.7-3.2,2.4-5.9,0.5-7.6
				C242.8,422.2,238.7,422.4,237.2,425.3z"/>
		</g>
	</g>
	<g>
		<g>
			<g>
				<path class="st3" d="M298.9,539.3l-5.8,11.8c-0.5-0.1-1.3-0.3-2.3-0.7c-1-0.3-2-0.8-2.9-1.2c-0.9-0.5-1.7-0.9-2.4-1.4
					c-0.6-0.5-1.1-1-1.4-1.6c-0.3-0.6-0.4-1.3-0.3-2.1c0.1-0.8,0.4-1.7,0.9-2.8l14.2-28.9c0.4-0.9,1-1.4,1.7-1.6
					c0.7-0.2,1.5-0.3,2.5-0.2c1.6,0.2,3.4,0.6,5.4,1.3c1.9,0.7,4,1.5,6,2.6c5.6,2.8,9.3,6,11,9.8c1.7,3.8,1.5,7.7-0.4,11.7
					c-1.2,2.5-3,4.4-5.2,5.5c-2.2,1.2-4.4,1.8-6.7,1.9c0.5,2.7,1,5.3,1.6,7.8c0.6,2.5,0.9,4.6,1,6.4c-1.1,1.2-2.4,2-3.8,2.2
					c-1.5,0.2-2.9,0-4.2-0.7c-0.9-0.4-1.6-0.9-2.2-1.5c-0.6-0.5-1-1.1-1.3-1.7c-0.3-0.6-0.5-1.3-0.7-2c-0.1-0.7-0.3-1.5-0.3-2.3
					l-1.1-10.8L298.9,539.3z M306.8,533.1c1.6,0.8,3,1,4.3,0.6c1.3-0.4,2.3-1.3,3.1-2.9c0.8-1.6,0.8-3,0.2-4.3
					c-0.6-1.3-2-2.5-4.2-3.5c-0.6-0.3-1.1-0.5-1.5-0.7c-0.4-0.1-0.8-0.3-1.3-0.4l-4.5,9.2L306.8,533.1z"/>
				<path class="st3" d="M339.3,570.1c-2.6-0.7-4.9-1.7-6.9-3.1c-2-1.3-3.7-2.9-4.9-4.8c-1.3-1.9-2.1-4.1-2.4-6.5
					c-0.3-2.5-0.1-5.1,0.7-8.1c0.8-2.9,1.9-5.3,3.5-7.1c1.5-1.8,3.2-3.2,5.1-4.1c1.9-0.9,3.9-1.4,6.1-1.5c2.1-0.1,4.3,0.1,6.3,0.7
					c2.3,0.6,4.3,1.6,6.1,2.8c1.7,1.2,3.1,2.6,4.2,4.2s1.7,3.4,2,5.3c0.3,1.9,0.2,3.9-0.4,5.9c-0.4,1.5-1.1,2.5-2.2,3.1
					c-1.1,0.6-2.4,0.8-3.9,0.6l-16.9-2c0.1,1.6,0.8,2.9,2.1,4.1c1.3,1.1,2.9,2,4.8,2.5c1.8,0.5,3.6,0.7,5.3,0.7
					c1.7,0,3.2-0.2,4.4-0.5c0.6,0.6,1,1.4,1.3,2.3c0.3,0.9,0.3,1.8,0,2.7c-0.5,2-1.9,3.2-4,3.7c-1.6,0.4-3.3,0.4-5.2,0.2
					C342.5,570.9,340.9,570.6,339.3,570.1z M344.5,543.8c-1.1-0.3-2-0.4-2.9-0.2c-0.9,0.1-1.6,0.4-2.2,0.8c-0.6,0.4-1.2,0.9-1.6,1.5
					c-0.4,0.6-0.8,1.3-1,2l11.8,1.2c0.1-0.9-0.1-1.9-0.7-3C347.3,545,346.1,544.2,344.5,543.8z"/>
				<path class="st3" d="M373.9,563.9c-0.1,1.2,0.1,2.1,0.8,2.6c0.7,0.6,1.7,1,3.1,1.1c0.7,0.1,1.4,0.1,2.1,0.1c0.7,0,1.4-0.1,2-0.2
					c0.3,0.5,0.6,1.1,0.8,1.8c0.2,0.6,0.3,1.4,0.2,2.3c-0.2,1.7-1,3-2.4,4c-1.4,0.9-3.8,1.2-7,0.8c-4-0.5-6.9-1.8-8.9-3.8
					c-1.9-2.1-2.6-5.1-2.2-9.2l3.5-29c0.5-0.1,1.2-0.1,2.2-0.2c0.9,0,1.9,0,3,0.1c2,0.2,3.5,0.8,4.5,1.6c1,0.8,1.4,2.4,1.1,4.6
					l-0.5,4.3l8.9,1.1c0.2,0.5,0.4,1.2,0.6,2c0.2,0.8,0.2,1.6,0.1,2.5c-0.2,1.6-0.7,2.7-1.5,3.3c-0.8,0.6-1.8,0.9-2.9,0.7l-6.2-0.7
					L373.9,563.9z"/>
				<path class="st3" d="M402.9,576.7c-0.5,0.1-1.2,0.3-2.1,0.4c-1,0.1-2,0.2-3,0.2c-1,0-1.9,0-2.7-0.2c-0.8-0.1-1.5-0.4-2-0.8
					c-0.6-0.4-1-1-1.3-1.7c-0.3-0.7-0.5-1.6-0.5-2.8l-0.3-20.5c0-1,0.2-1.9,0.5-2.7c0.4-0.8,0.9-1.4,1.6-2c0.7-0.6,1.6-1.1,2.7-1.6
					c1.1-0.5,2.2-0.9,3.4-1.3c1.2-0.4,2.5-0.7,3.8-0.9c1.3-0.2,2.6-0.3,4-0.4c2.2,0,3.9,0.4,5.2,1.2c1.3,0.8,1.9,2.2,2,4.1
					c0,0.6-0.1,1.3-0.2,1.9c-0.2,0.6-0.4,1.2-0.7,1.7c-1,0-1.9,0.1-2.9,0.2c-1,0.1-2,0.3-2.9,0.5c-1,0.2-1.8,0.4-2.7,0.6
					c-0.8,0.2-1.6,0.5-2.1,0.7L402.9,576.7z"/>
				<path class="st3" d="M438.5,574.9c-2.7,0.4-5.2,0.4-7.6,0c-2.4-0.4-4.5-1.2-6.4-2.5c-1.9-1.2-3.5-2.9-4.8-5
					c-1.3-2.1-2.2-4.7-2.6-7.7c-0.4-3-0.3-5.6,0.3-7.9c0.7-2.3,1.7-4.2,3-5.8c1.4-1.6,3-2.9,5-3.8c1.9-1,4-1.6,6.1-1.9
					c2.4-0.4,4.6-0.3,6.7,0.1c2.1,0.4,3.9,1.2,5.5,2.2c1.6,1.1,2.9,2.4,4,4c1,1.6,1.7,3.5,2,5.6c0.2,1.5,0,2.8-0.8,3.7
					c-0.7,0.9-1.9,1.6-3.3,2.1l-16.3,5c0.7,1.4,1.9,2.4,3.5,2.9c1.6,0.5,3.5,0.6,5.4,0.3c1.8-0.3,3.6-0.8,5.1-1.5
					c1.6-0.7,2.8-1.5,3.8-2.3c0.8,0.3,1.5,0.9,2.1,1.6c0.6,0.7,1,1.6,1.1,2.5c0.3,2-0.4,3.7-2.2,4.9c-1.3,1-2.9,1.7-4.6,2.3
					C441.8,574.3,440.1,574.7,438.5,574.9z M432.7,548.7c-1.1,0.2-2,0.5-2.7,1c-0.7,0.5-1.3,1-1.7,1.7c-0.4,0.6-0.7,1.3-0.8,2.1
					c-0.1,0.7-0.2,1.5-0.1,2.2l11.3-3.6c-0.3-0.9-0.9-1.7-1.9-2.5C435.7,548.7,434.4,548.4,432.7,548.7z"/>
				<path class="st3" d="M462.9,533c2.3-0.8,4.5-1.2,6.6-1.4c2.1-0.2,4,0,5.6,0.6c1.7,0.5,3.1,1.4,4.4,2.7c1.2,1.2,2.2,2.9,2.8,4.9
					l4.8,14.5c0.4,1.1,0.4,2.1,0,3.1c-0.4,0.9-0.9,1.8-1.6,2.6c-2.3,2.6-5.9,4.8-11,6.4c-2.3,0.8-4.4,1.2-6.4,1.4
					c-2,0.2-3.8,0-5.4-0.4c-1.6-0.4-3-1.2-4.1-2.3c-1.2-1.1-2-2.5-2.6-4.3c-1-3-0.8-5.6,0.4-7.7c1.2-2.2,3.7-4.1,7.3-5.7l8.2-3.7
					l-0.1-0.5c-0.4-1.3-1.3-2-2.5-2.1c-1.3-0.2-3,0.1-5,0.8c-1.6,0.5-3.2,1.2-4.6,2.1c-1.4,0.9-2.7,1.8-3.8,2.7
					c-0.7-0.2-1.4-0.6-2-1.3c-0.7-0.7-1.1-1.4-1.4-2.3c-0.4-1.1-0.4-2.1-0.1-3c0.3-0.8,1-1.7,1.9-2.5c1.1-0.9,2.5-1.7,4.1-2.5
					C459.8,534.1,461.4,533.5,462.9,533z M471.8,558.3c0.7-0.2,1.5-0.6,2.4-1c0.8-0.4,1.4-0.9,1.8-1.3l-1.7-5.2l-4.5,1.9
					c-1.2,0.5-2.1,1.1-2.7,1.8c-0.6,0.7-0.8,1.5-0.5,2.3c0.3,0.9,0.8,1.5,1.7,1.8C469,558.9,470.2,558.8,471.8,558.3z"/>
				<path class="st3" d="M502.8,541c0.5,1.1,1.3,1.6,2.2,1.7c0.9,0.1,2-0.2,3.2-0.8c0.6-0.3,1.2-0.7,1.8-1.1
					c0.6-0.4,1.1-0.9,1.5-1.3c0.6,0.3,1.2,0.6,1.7,1c0.5,0.4,1,1,1.4,1.8c0.8,1.5,0.9,3.1,0.2,4.7c-0.7,1.6-2.4,3.1-5.4,4.6
					c-3.6,1.8-6.7,2.4-9.5,1.8c-2.8-0.6-5.1-2.8-6.9-6.4l-13.3-26c0.4-0.3,1-0.8,1.7-1.4c0.8-0.6,1.6-1.1,2.5-1.6
					c1.8-0.9,3.3-1.3,4.6-1.2c1.3,0.1,2.5,1.2,3.5,3.2l2,3.9l8-4.1c0.5,0.3,1,0.8,1.6,1.3c0.6,0.6,1.1,1.2,1.5,2
					c0.7,1.4,0.9,2.6,0.6,3.6c-0.3,1-1,1.7-2,2.2l-5.5,2.8L502.8,541z"/>
			</g>
		</g>
		<g>
			<g>
				<path class="st3" d="M257.3,330.6c-0.2,0.5-0.6,1.2-1.1,2.1c-0.5,0.9-1.1,1.8-1.8,2.6c-0.6,0.8-1.3,1.5-1.9,2.1
					c-0.6,0.5-1.2,0.9-1.9,1.1c-0.7,0.2-1.4,0.2-2.1-0.1c-0.7-0.2-1.6-0.7-2.5-1.4l-25.6-19.5c-0.8-0.6-1.2-1.2-1.3-2
					c-0.1-0.7,0-1.6,0.3-2.5c0.5-1.6,1.3-3.2,2.3-4.9c1-1.7,2.1-3.4,3.3-5c3.8-5,7.8-8,11.9-9c4.2-1,8.1-0.1,11.7,2.7
					c1.8,1.4,3.2,2.9,4.2,4.5c1,1.7,1.6,3.4,1.8,5.3c0.2,1.9-0.1,3.9-0.8,6c-0.7,2.1-1.9,4.3-3.6,6.5l-2.9,3.9L257.3,330.6z
					 M242.1,314.5c1.2-1.5,1.7-3,1.6-4.3s-0.8-2.6-2.3-3.7c-1.4-1-2.8-1.4-4.1-1.1c-1.4,0.3-2.7,1.2-3.9,2.9
					c-0.4,0.6-0.8,1.1-1.1,1.5c-0.3,0.4-0.5,0.8-0.8,1.3l8.4,6.4L242.1,314.5z"/>
				<path class="st3" d="M280,306.1c-0.3,0.4-0.8,1-1.4,1.8c-0.6,0.8-1.3,1.5-2,2.2c-0.7,0.7-1.4,1.3-2.1,1.7
					c-0.7,0.4-1.3,0.7-2,0.8c-0.7,0.1-1.4,0-2.1-0.3c-0.7-0.3-1.4-0.9-2.2-1.7l-27.2-28.8c0.3-0.4,0.8-1,1.4-1.8
					c0.6-0.8,1.3-1.5,2-2.2c0.7-0.7,1.4-1.3,2.1-1.7c0.7-0.4,1.3-0.7,2-0.8c0.7-0.1,1.4,0,2.1,0.3c0.7,0.3,1.4,0.9,2.2,1.7
					L280,306.1z"/>
				<path class="st3" d="M276.8,265.7c2-1.4,4-2.4,6-3.1c2-0.7,3.8-1,5.6-1c1.8,0.1,3.4,0.5,4.9,1.4c1.5,0.9,2.9,2.2,4.1,4l8.5,12.7
					c0.7,1,0.9,2,0.8,3c-0.1,1-0.4,2-0.9,2.9c-1.5,3.1-4.4,6.2-8.9,9.2c-2,1.3-3.9,2.4-5.8,3.1c-1.9,0.7-3.6,1.1-5.3,1.1
					c-1.7,0-3.2-0.4-4.6-1.1c-1.4-0.8-2.6-1.9-3.7-3.5c-1.7-2.6-2.3-5.1-1.7-7.6c0.6-2.4,2.4-4.9,5.5-7.4l6.9-5.8l-0.3-0.4
					c-0.7-1.1-1.7-1.6-3-1.4c-1.3,0.2-2.8,0.9-4.6,2.1c-1.4,1-2.7,2-3.9,3.3c-1.2,1.2-2.1,2.4-2.9,3.6c-0.7,0-1.5-0.3-2.3-0.7
					c-0.8-0.5-1.5-1.1-2-1.8c-0.7-1-0.9-1.9-0.9-2.8c0.1-0.9,0.5-1.9,1.2-3c0.8-1.1,1.9-2.3,3.3-3.5
					C274.1,267.6,275.5,266.5,276.8,265.7z M292.2,287.6c0.6-0.4,1.3-1,2-1.6c0.7-0.7,1.1-1.2,1.4-1.7l-3-4.5l-3.9,3.1
					c-1,0.8-1.7,1.6-2.2,2.4c-0.4,0.8-0.4,1.6,0.1,2.4c0.5,0.8,1.2,1.2,2.1,1.3C289.6,289,290.8,288.6,292.2,287.6z"/>
				<path class="st3" d="M314.1,273.5c-0.9-0.9-1.9-1.8-3-2.9c-1.1-1.1-2.2-2.3-3.5-3.8c-1.3-1.4-2.7-3.1-4.2-5
					c-1.5-1.9-3.2-4.1-5-6.7c0.3-0.8,0.9-1.7,1.7-2.5c0.8-0.9,1.8-1.5,3-2c1.5-0.6,2.8-0.8,4-0.6c1.2,0.2,2.4,1.1,3.6,2.5l12.2,15.2
					l0.3-0.1c-0.1-1.6-0.3-3.4-0.5-5.3c-0.2-1.9-0.5-3.8-0.8-5.8c-0.3-2-0.6-3.9-0.9-5.9c-0.3-2-0.7-3.8-1.2-5.7
					c1.2-1.4,2.7-2.5,4.5-3.3c1.5-0.6,2.8-0.8,4-0.6c1.2,0.2,2.2,1.1,2.8,2.7c0.5,1.1,0.9,2.5,1.2,4.1c0.3,1.6,0.6,3.4,0.8,5.2
					c0.2,1.9,0.4,3.9,0.5,5.9c0.1,2.1,0.1,4.1,0.2,6.1c0,2,0,4-0.2,5.8c-0.1,1.8-0.3,3.5-0.5,5c-0.3,2.5-0.7,4.7-1.2,6.4
					c-0.5,1.7-1,3.1-1.6,4.3c-0.6,1.1-1.3,2-2.1,2.7c-0.8,0.7-1.7,1.2-2.7,1.6c-1.8,0.7-3.4,0.8-4.9,0.2c-1.5-0.6-2.8-1.7-3.7-3.3
					c0.9-1.6,1.8-3.3,2.6-5.2c0.8-1.8,1.5-3.7,2-5.5c-0.8,0.1-1.8-0.1-2.9-0.5C317.5,276.3,316,275.2,314.1,273.5z"/>
				<path class="st3" d="M337.9,238.1c-0.5-2.3-0.6-4.3-0.2-6.1c0.4-1.8,1.1-3.4,2.2-4.7c1.1-1.4,2.5-2.5,4.2-3.4
					c1.7-0.9,3.5-1.6,5.6-2.1c3.3-0.8,5.8-0.9,7.5-0.4c1.8,0.5,2.9,1.8,3.4,3.9c0.2,0.9,0.2,1.7,0,2.5c-0.2,0.8-0.5,1.4-0.9,1.9
					c-0.9,0-1.8,0-2.8,0c-0.9,0.1-2,0.2-3.2,0.5c-1.9,0.4-3.3,1.1-4.2,2c-0.9,0.9-1.2,2.1-0.8,3.7l0.5,2.1l10.9-2.5
					c0.4,0.4,0.8,1,1.2,1.6c0.4,0.7,0.7,1.5,0.9,2.3c0.4,1.6,0.3,2.8-0.2,3.6c-0.5,0.8-1.4,1.4-2.5,1.7l-7.6,1.8l4.9,21.1
					c-0.4,0.2-1.1,0.5-2,0.9c-0.9,0.4-1.9,0.7-2.9,0.9c-1,0.2-1.9,0.4-2.7,0.4c-0.8,0-1.5-0.1-2.1-0.3c-0.6-0.3-1.2-0.7-1.6-1.3
					c-0.4-0.6-0.8-1.5-1.1-2.6L337.9,238.1z"/>
				<path class="st3" d="M367.8,232c0.4-0.2,1.1-0.4,2.1-0.6c1-0.2,2-0.4,3-0.4c1-0.1,1.9-0.1,2.7,0c0.8,0.1,1.5,0.3,2.1,0.7
					c0.6,0.4,1,0.9,1.4,1.6c0.3,0.7,0.6,1.6,0.6,2.7l1.1,14.6c0.1,1.9,0.7,3.2,1.7,3.9c1,0.7,2.3,1,4,0.9c1-0.1,1.9-0.2,2.5-0.5
					c0.6-0.2,1.1-0.4,1.5-0.7l-1.7-23.8c0.4-0.2,1.1-0.4,2.1-0.6c1-0.2,2-0.4,3-0.4c1-0.1,1.9-0.1,2.7,0c0.8,0.1,1.5,0.3,2.1,0.7
					c0.6,0.4,1,0.9,1.4,1.6c0.3,0.7,0.6,1.6,0.6,2.7l1.5,20.7c0.2,2.3-0.7,4-2.5,5.3c-1.5,1.1-3.4,2-5.5,2.7
					c-2.2,0.7-4.5,1.1-7.1,1.3c-2.5,0.2-4.7,0.1-6.8-0.3c-2.1-0.4-3.9-1.1-5.5-2.1c-1.6-1-2.8-2.4-3.8-4.1c-0.9-1.7-1.5-3.9-1.7-6.4
					L367.8,232z"/>
				<path class="st3" d="M420.2,263.7c-0.5,0.1-1.3,0.1-2.2,0.2c-1,0.1-2,0.1-3,0c-1-0.1-1.9-0.2-2.7-0.4c-0.8-0.2-1.4-0.5-2-1
					c-0.5-0.4-0.9-1-1.1-1.8c-0.2-0.7-0.3-1.7-0.2-2.8l2.8-39.5c0.5-0.1,1.3-0.1,2.2-0.2c1-0.1,2-0.1,3,0c1,0.1,1.9,0.2,2.7,0.4
					c0.8,0.2,1.4,0.5,2,1c0.5,0.4,0.9,1,1.1,1.8c0.2,0.7,0.3,1.7,0.2,2.8L420.2,263.7z"/>
				<path class="st3" d="M452.5,269.6c-0.5,0-1.3-0.1-2.4-0.3c-1.1-0.2-2.1-0.4-3.1-0.7c-1-0.3-1.9-0.6-2.6-1
					c-0.7-0.4-1.3-0.8-1.7-1.4c-0.4-0.5-0.6-1.2-0.7-2c-0.1-0.8,0.1-1.7,0.4-2.9l9.2-30.8c0.3-0.9,0.7-1.5,1.4-1.9
					c0.7-0.4,1.5-0.6,2.4-0.6c1.6-0.1,3.4,0,5.4,0.4c2,0.3,3.9,0.8,5.8,1.3c6,1.8,10.2,4.5,12.7,8c2.4,3.5,3,7.5,1.7,11.9
					c-0.6,2.1-1.6,4-2.7,5.5c-1.2,1.5-2.6,2.7-4.3,3.6c-1.7,0.8-3.7,1.3-5.9,1.4c-2.2,0.1-4.7-0.3-7.3-1.1l-4.6-1.4L452.5,269.6z
					 M462.1,249.6c1.8,0.5,3.4,0.5,4.6,0c1.2-0.6,2.1-1.7,2.6-3.5c0.5-1.7,0.4-3.1-0.4-4.3c-0.8-1.2-2.1-2.1-4.1-2.7
					c-0.7-0.2-1.3-0.4-1.7-0.5c-0.5-0.1-0.9-0.2-1.5-0.3l-3,10.1L462.1,249.6z"/>
				<path class="st3" d="M488,247.1c0.5,0.1,1.2,0.3,2.1,0.6c0.9,0.3,1.9,0.7,2.8,1.2c0.9,0.5,1.7,0.9,2.3,1.4
					c0.6,0.5,1.1,1,1.4,1.7c0.3,0.6,0.4,1.3,0.4,2.1c-0.1,0.8-0.4,1.6-0.9,2.7l-6.8,13c-0.9,1.7-1.1,3-0.6,4.2
					c0.4,1.1,1.4,2.1,3,2.9c0.9,0.5,1.7,0.8,2.4,0.9c0.7,0.1,1.2,0.2,1.6,0.2l11-21.2c0.5,0.1,1.2,0.3,2.1,0.6
					c0.9,0.3,1.9,0.7,2.8,1.2c0.9,0.5,1.7,0.9,2.3,1.4c0.6,0.5,1.1,1,1.4,1.7c0.3,0.6,0.4,1.3,0.4,2.1c-0.1,0.8-0.4,1.6-0.9,2.7
					l-9.6,18.4c-1,2-2.7,3.1-4.9,3.2c-1.9,0.2-3.9,0-6.1-0.6c-2.2-0.6-4.5-1.4-6.8-2.6c-2.2-1.1-4.1-2.4-5.7-3.9
					c-1.6-1.4-2.8-3-3.6-4.7c-0.8-1.7-1.2-3.5-1.1-5.5c0.1-2,0.7-4.1,1.9-6.4L488,247.1z"/>
				<path class="st3" d="M539,276.9c2.1,1.8,3.8,3.7,5.2,5.7c1.3,2,2.2,4.2,2.5,6.4c0.4,2.2,0.2,4.4-0.5,6.8c-0.7,2.3-2,4.6-4,7
					c-1.9,2.2-3.8,3.9-5.9,5.1c-2,1.1-4.1,1.8-6.2,2c-2.1,0.2-4.2-0.1-6.3-0.9c-2.1-0.8-4.1-2-6.1-3.7c-1.5-1.3-2.7-2.7-3.6-4.2
					l-7.3,8.7c-0.4-0.2-1.1-0.5-2-1.1c-0.9-0.5-1.7-1.1-2.5-1.8c-0.8-0.6-1.4-1.3-1.9-1.9c-0.5-0.6-0.9-1.3-1-1.9
					c-0.2-0.7-0.1-1.4,0.1-2.1c0.2-0.7,0.7-1.5,1.5-2.4l21-25.1c0.8-0.9,1.6-1.5,2.5-1.8c0.9-0.3,1.9-0.3,3-0.2
					c1.7,0.2,3.5,0.8,5.4,1.7C535,274,537,275.3,539,276.9z M522.4,297c3.6,3,7.2,2.4,10.8-1.9c1.9-2.2,2.8-4.3,2.8-6.1
					c0-1.8-0.8-3.4-2.5-4.8c-0.7-0.6-1.3-1-2-1.3c-0.7-0.3-1.3-0.5-1.8-0.6l-9.6,11.5c0.2,0.6,0.6,1.1,0.9,1.7
					C521.3,296,521.8,296.5,522.4,297z"/>
				<path class="st3" d="M558,333.9c-2.8,2.1-5.7,2.7-8.8,1.8c-3.1-0.9-6.2-3.3-9.3-7.3c-1.2-1.5-2.1-3-2.9-4.5
					c-0.8-1.5-1.3-2.8-1.5-4.1c-0.3-1.3-0.2-2.4,0.1-3.5c0.3-1,0.9-1.9,1.8-2.6c0.9-0.7,1.7-1,2.6-1.1c0.9-0.1,1.7,0,2.5,0.2
					c0.2,1.5,0.6,3.1,1.2,4.8c0.6,1.7,1.5,3.4,2.9,5.2c0.9,1.1,1.7,1.9,2.5,2.2c0.8,0.3,1.4,0.3,2-0.1c0.5-0.4,0.7-0.9,0.7-1.6
					c0-0.7-0.4-1.6-0.9-2.7l-0.9-1.9c-1.8-3.6-2.6-6.7-2.5-9.2c0.1-2.5,1.5-4.8,3.9-6.6c1.3-1,2.8-1.7,4.3-1.9
					c1.5-0.2,3.1-0.1,4.6,0.4c1.5,0.5,3,1.3,4.6,2.5c1.5,1.2,2.9,2.6,4.3,4.4c1,1.3,1.9,2.7,2.6,4c0.7,1.3,1.2,2.6,1.4,3.8
					c0.3,1.2,0.3,2.3,0,3.2c-0.2,1-0.8,1.8-1.7,2.5c-0.8,0.6-1.7,1-2.5,1.2c-0.8,0.1-1.6,0.1-2.4,0c0-0.4-0.2-1-0.4-1.7
					c-0.2-0.7-0.5-1.5-0.9-2.3c-0.4-0.8-0.8-1.6-1.2-2.4s-0.9-1.5-1.3-2.1c-0.9-1.2-1.7-2-2.5-2.5c-0.8-0.4-1.4-0.4-2,0
					c-0.4,0.3-0.6,0.7-0.6,1.3c0,0.6,0.3,1.4,0.9,2.6l0.9,2c1.9,4.1,2.6,7.4,2.4,9.9C561.5,330.1,560.2,332.2,558,333.9z"/>
			</g>
		</g>
	</g>
</g>
</svg>
