<?xml version="1.0" encoding="utf-8"?>
<!-- Generator: Adobe Illustrator 24.2.1, SVG Export Plug-In . SVG Version: 6.00 Build 0)  -->
<svg version="1.1" id="Layer_1" xmlns="http://www.w3.org/2000/svg" xmlns:xlink="http://www.w3.org/1999/xlink" x="0px" y="0px"
	 viewBox="0 0 800 800" style="enable-background:new 0 0 800 800;" xml:space="preserve">
<style type="text/css">
	.st0{fill-rule:evenodd;clip-rule:evenodd;fill:#FFFFFF;}
	.st1{fill:#0A284D;}
	.st2{fill-rule:evenodd;clip-rule:evenodd;fill:#0A284D;}
	.st3{fill-rule:evenodd;clip-rule:evenodd;fill:#F58C13;}
</style>
<rect x="-0.4" y="-0.5" class="st0" width="801.5" height="801.5"/>
<g>
	<path class="st1" d="M220.9,481c4.5,0,7.8-1.2,9.9-3.5c2.1-2.3,3.2-5.1,3.2-8.4c0-2.9-1.1-5.4-3.2-7.7c-2.1-2.2-5.4-3.4-9.8-3.4
		h-12.6v23H220.9z M224.8,441.5c9.1,0,16.2,2.5,21.4,7.5c5.2,5,7.8,11.8,7.8,20.4c0,5.5-1.2,10.3-3.5,14.5
		c-2.3,4.2-5.7,7.5-10.2,9.8c-4.5,2.3-9.8,3.5-15.9,3.5h-16v27.5h-19v-83.2H224.8z"/>
	<path class="st1" d="M290.2,465.7c1.9,0,3.7,0.2,5.5,0.5v15.7c-0.6-0.1-1.5-0.1-2.7-0.1c-5.2,0-9.2,1.4-12,4.1
		c-2.8,2.7-4.2,6.6-4.2,11.5v27.4h-18.2v-58.5h16.6l1.2,7.9c1-2.8,2.7-4.9,5.1-6.3C283.9,466.4,286.8,465.7,290.2,465.7z"/>
	<path class="st1" d="M315,495.3c0,4.4,1.3,8,3.9,10.8c2.6,2.8,6,4.2,10.1,4.2c4.2,0,7.5-1.4,10.1-4.2c2.6-2.8,3.9-6.4,3.9-10.8
		s-1.3-8-3.8-10.8c-2.6-2.8-5.9-4.2-10.2-4.2c-4.2,0-7.6,1.4-10.2,4.2C316.3,487.3,315,490.9,315,495.3z M296.5,495.4
		c0-6.1,1.4-11.5,4.1-16.2c2.7-4.8,6.6-8.5,11.5-11.1c4.9-2.6,10.6-4,17-4c6.4,0,12.1,1.3,16.9,4c4.9,2.6,8.7,6.3,11.4,11.1
		c2.7,4.8,4.1,10.2,4.1,16.2c0,6-1.4,11.3-4.1,16c-2.7,4.7-6.6,8.4-11.5,11c-4.9,2.6-10.6,4-16.9,4c-6.4,0-12.1-1.3-17-4
		c-4.9-2.6-8.8-6.3-11.5-11C297.8,506.7,296.5,501.4,296.5,495.4z"/>
	<path class="st2" d="M391.9,524.8H374v-43.6h-10.8v-14.9H374v-8.4c0-7.9,2.1-13.7,6.3-17.3s10.1-5.5,17.7-5.5c1,0,32.8,0,32.8,0
		v15.3h-28.4v0c-4.3,0-7.7,1-8.8,2.9c-1.1,1.9-1.7,4.4-1.7,7.5v5.6h36.8v58.5h-18.2v-43.6h-18.7V524.8z"/>
	<rect x="438.9" y="435.7" class="st1" width="18.2" height="89"/>
	<path class="st1" d="M481.4,466.2l0.6,1.8c1.7,4.8,3.8,10.9,6.2,18.2c2.4,7.3,4.2,12.4,5.2,15.4c1-3,2.8-8.2,5.3-15.4
		c2.5-7.3,4.7-13.4,6.5-18.3l12.5-32.2H538l-34.7,89h-19.5l-23.2-58.5H481.4z"/>
	<path class="st1" d="M565.3,488.5c-0.1-2.9-1.2-5.3-3.4-7c-2.2-1.7-4.9-2.6-8.3-2.6c-3.4,0-6.1,0.9-8.3,2.6c-2.2,1.7-3.3,4.1-3.5,7
		H565.3z M584,505.9c-1.2,6.1-4.5,11.1-9.9,14.9c-5.4,3.8-11.9,5.6-19.4,5.6c-6.1,0-11.6-1.3-16.2-3.9c-4.7-2.6-8.3-6.3-10.9-11
		c-2.6-4.7-3.9-10.1-3.9-16.3c0-6.2,1.3-11.7,3.9-16.4c2.6-4.7,6.2-8.4,10.9-10.9c4.7-2.6,10-3.8,15.8-3.8c5.8,0,10.9,1.2,15.4,3.6
		c4.5,2.4,8,5.8,10.5,10.1c2.5,4.3,3.7,9.2,3.7,14.6c0,3-0.3,5.7-0.8,7.9h-41.5c0.2,3.5,1.4,6.2,3.8,8.3c2.4,2.1,5.5,3.1,9.3,3.1
		c2.9,0,5.3-0.5,7.4-1.6s3.5-2.5,4.3-4.2H584z"/>
	<polygon class="st1" points="626.8,481.1 615.8,481.1 615.8,524.8 597.6,524.8 597.6,481.1 586.9,481.1 586.9,466.2 597.6,466.2 
		597.6,451 615.8,451 615.8,466.2 626.8,466.2 	"/>
	<path class="st3" d="M436.5,307.6c2.5,0,4.6,2.1,4.6,4.6c0,2.5-2.1,4.6-4.6,4.6s-4.6-2.1-4.6-4.6
		C431.8,309.7,433.9,307.6,436.5,307.6z M385.5,346.8c2.5,0,4.6,2.1,4.6,4.6c0,2.5-2.1,4.6-4.6,4.6c-2.5,0-4.6-2.1-4.6-4.6
		C380.9,348.9,383,346.8,385.5,346.8z M379.2,401.4c-0.3,2.3-1.6,4.3-3.5,5.6c-1.9,1.3-4.3,1.6-6.5,1c-19.4-5.6-39.2-30.4-35.3-57.9
		c7.5-53.3,42-54.8,58.8-107.3c10.1,4.5,14,15.6,16.7,25.1c5.9-4.4,9.9-8.7,16.2-12.6c3.3,9.2,4.6,18.9,7.6,28.2
		c8.6,6.9,23.5,31.3,23.5,31.3l26.2,13.9c-0.3,20.4-21.6,39.3-50.4,39c-0.8-1.7-1.2-3.6-1.3-5.5c-0.4-7.7-1.2-15.8-6-22.2
		c-3.3-5.3-9.1-7.9-13.8-11.7c-1.8-5.6-1-12.3-5-16.9c-0.3-0.4-0.8-0.6-1.3-0.5c-0.7,0-1.6,0.1-2.4,0.2c-0.6,0-1.1,0.4-1.3,0.9
		c-2.7,5.4-4.6,11.5-9.6,15.2c-4.8,4.6-12.2,5.1-16.4,10.4c-5,5.6-3.5,13.8-7.3,20c-4.1,6,0.6,13.6,6.5,16.1
		c4.6,2.6,10.1,1.8,15.1,1.6C385.2,383.5,380.4,392.1,379.2,401.4z"/>
</g>
</svg>
