<?xml version="1.0" encoding="utf-8"?>
<!-- Generator: Adobe Illustrator 24.2.1, SVG Export Plug-In . SVG Version: 6.00 Build 0)  -->
<svg version="1.1" id="Layer_1" xmlns="http://www.w3.org/2000/svg" xmlns:xlink="http://www.w3.org/1999/xlink" x="0px" y="0px"
	 viewBox="0 0 800 800" style="enable-background:new 0 0 800 800;" xml:space="preserve">
<style type="text/css">
	.st0{fill-rule:evenodd;clip-rule:evenodd;fill:#262446;}
	.st1{fill:#FFFFFF;}
	.st2{fill-rule:evenodd;clip-rule:evenodd;fill:#07CED8;}
	.st3{opacity:0.4036;clip-path:url(#SVGID_2_);fill-rule:evenodd;clip-rule:evenodd;enable-background:new    ;}
	.st4{fill-rule:evenodd;clip-rule:evenodd;fill:#3548F4;}
	.st5{opacity:0.3976;clip-path:url(#SVGID_4_);fill-rule:evenodd;clip-rule:evenodd;enable-background:new    ;}
</style>
<rect x="-0.4" y="-0.5" class="st0" width="801.5" height="801.5"/>
<g>
	<path class="st1" d="M322.4,367.5c0-7.7,5.2-12.6,11.9-12.6c6.6,0,11.9,4.9,11.9,12.6s-5.2,12.6-11.9,12.6
		C328,380.1,322.4,375.2,322.4,367.5z M355.9,388.5c-2.1,2.1-4.2,3.1-6.6,3.1c-1.7,0-3.5-0.7-5.2-2.4c9.1-3.1,15-11.2,15-21.3
		c0-13.3-10.5-23.1-24.5-23.1c-14.3,0-24.5,9.8-24.5,23.1c0,11.9,8,20.6,19.9,22.7c7.3,7.7,12.2,10.1,19.2,10.1
		c4.9,0,9.4-2.1,12.6-5.6L355.9,388.5z"/>
	<path class="st1" d="M386.3,390.6c13.3,0,21-7.3,21-20.6v-24.5H395v24.1c0,7.7-3.1,10.5-8.4,10.5s-8.4-3.1-8.4-10.5v-24.1h-12.9
		V370C365.3,383.3,373,390.6,386.3,390.6z"/>
	<path class="st1" d="M429.3,371.7l5.6-14.3l5.6,14.3H429.3z M447.8,389.9h12.9l-19.6-44.4h-12.2L409,389.9h12.9l3.5-8.7h18.9
		L447.8,389.9z"/>
	<polygon class="st1" points="495.3,345.5 495.3,368.9 475.7,345.5 465.6,345.5 465.6,389.9 477.8,389.9 477.8,366.1 497.4,389.9 
		507.5,389.9 507.5,345.5 	"/>
	<polygon class="st1" points="527.8,389.9 540,389.9 540,355.3 553.6,355.3 553.6,345.5 514.2,345.5 514.2,355.3 527.8,355.3 	"/>
	<path class="st1" d="M580.9,390.6c13.3,0,21-7.3,21-20.6v-24.5h-12.2v24.1c0,7.7-3.1,10.5-8.4,10.5s-8.4-3.1-8.4-10.5v-24.1h-12.6
		V370C560.3,383.3,568,390.6,580.9,390.6z"/>
	<polygon class="st1" points="660.9,389.9 660.9,345.5 650.8,345.5 635.4,371 619.7,345.5 609.5,345.5 609.5,389.9 621.1,389.9 
		621.1,366.8 632.6,385.3 637.8,385.3 649.4,366.1 649.4,389.9 	"/>
	<path class="st1" d="M341.2,444.7c-2.1,1-4.2,1.4-6.6,1.4c-7.3,0-12.2-5.2-12.2-12.6c0-7.3,4.9-12.6,12.6-12.6
		c4.2,0,7.7,1.4,10.5,4.9l7.7-7c-4.2-5.2-10.8-8-18.9-8c-14,0-24.1,9.4-24.1,22.7c0,13.3,10.1,22.7,24.1,22.7
		c6.3,0,13.3-2.1,18.2-5.6v-18.2h-10.8v12.2H341.2z"/>
	<polygon class="st1" points="359.8,455.2 392.9,455.2 392.9,445.4 372.3,445.4 372.3,411.9 359.8,411.9 	"/>
	<path class="st1" d="M478.9,428c0,3.8-2.4,6.3-7.7,6.3h-7v-12.6h7C476.4,421.7,478.9,423.8,478.9,428z M478.9,455.2h13.3l-9.4-13.6
		c5.2-2.4,8.4-7.3,8.4-13.6c0-9.8-7.3-16.1-19.2-16.1H452v43.3h12.2v-11.5h6.6L478.9,455.2z"/>
	<polygon class="st1" points="510.3,445.8 510.3,437.8 529.5,437.8 529.5,428.7 510.3,428.7 510.3,421.3 532,421.3 532,411.9 
		498.1,411.9 498.1,455.2 533,455.2 533,445.8 	"/>
	<polygon class="st1" points="447.8,455.2 427.9,455.2 431.7,438.1 423.7,438.1 423.7,421.7 411.8,446.1 419.5,446.1 415.7,455.2 
		397.1,455.2 416.4,411.9 428.6,411.9 	"/>
	<path class="st2" d="M297.2,400.7c0,21-12.9,41.2-32.5,50.3c-18.2,8.7-41.2,6.3-57.3-6.6c-16.1-12.6-24.5-33.9-20.6-54.5
		c3.8-21.3,21-39.5,42.6-44.4c18.2-4.2,38.4,1.7,51.7,15l1.4,1.4l-11.9,11.9c-6.6-6.6-15.4-11.5-25.2-12.6
		c-16.4-1.4-33.5,8.4-39.8,24.5c-3.5,9.1-3.5,19.9,0.3,29c4.9,11.5,15.7,20.6,27.9,23.1c15,3.1,31.4-3.5,40.2-16.4
		c4.2-6.3,6.6-14,6.6-21.3v-1.7h17.1C297.2,399.3,297.2,400,297.2,400.7z"/>
	<g>
		<g>
			<defs>
				<path id="SVGID_1_" d="M297.2,400.7c0,21-12.9,41.2-32.5,50.3c-18.2,8.7-41.2,6.3-57.3-6.6c-16.1-12.6-24.5-33.9-20.6-54.5
					c3.8-21.3,21-39.5,42.6-44.4c18.2-4.2,38.4,1.7,51.7,15l1.4,1.4l-11.9,11.9c-6.6-6.6-15.4-11.5-25.2-12.6
					c-16.4-1.4-33.5,8.4-39.8,24.5c-3.5,9.1-3.5,19.9,0.3,29c4.9,11.5,15.7,20.6,27.9,23.1c15,3.1,31.4-3.5,40.2-16.4
					c4.2-6.3,6.6-14,6.6-21.3v-1.7h17.1C297.2,399.3,297.2,400,297.2,400.7z"/>
			</defs>
			<clipPath id="SVGID_2_">
				<use xlink:href="#SVGID_1_"  style="overflow:visible;"/>
			</clipPath>
			<path class="st3" d="M155,409.1c0,16.1-13.6,23.8-13.6,0c0-29.7,24.1-54.1,54.1-54.1c29.7,0,54.1,24.1,54.1,54.1
				c0,1.4-13.6,1.4-13.6,0c0-22.4-18.2-40.5-40.5-40.5S155,386.7,155,409.1z"/>
		</g>
	</g>
	<path class="st4" d="M195.2,361.6c-9.8,0-19.6,3.8-26.6,10.5c-11.9,11.2-15.7,30-8.4,45.1c7.3,15,24.5,24.5,41.6,21.3
		c17.5-2.8,31.8-18.9,32.5-37c0.3-12.2-5.6-24.8-15.4-32.1c-6.6-4.9-14.7-7.7-23.1-7.7C195.6,361.6,195.6,361.6,195.2,361.6z
		 M195.6,344.5c23.4,0,46.1,16.1,53.5,39.8c5.6,18.9,0.3,40.2-12.9,54.5l0,0c11.9,1.7,24.5-2.4,32.8-10.8l1.4-1.4l11.9,11.9
		c-10.5,10.5-24.5,17.1-39.1,17.5c-8.4,0.3-16.8-1.4-24.5-4.9c-16.8,7.7-37.4,6.3-53.1-3.8c-12.2-8-21.3-21-24.5-35.3
		c-3.8-17.8,1.7-37.4,14.7-50.7c10.1-10.5,24.5-16.4,39.1-16.8C195.2,344.5,195.2,344.5,195.6,344.5z"/>
	<g>
		<g>
			<defs>
				<path id="SVGID_3_" d="M195.2,361.6c-9.8,0-19.6,3.8-26.6,10.5c-11.9,11.2-15.7,30-8.4,45.1c7.3,15,24.5,24.5,41.6,21.3
					c17.5-2.8,31.8-18.9,32.5-37c0.3-12.2-5.6-24.8-15.4-32.1c-6.6-4.9-14.7-7.7-23.1-7.7C195.6,361.6,195.6,361.6,195.2,361.6z
					 M195.6,344.5c23.4,0,46.1,16.1,53.5,39.8c5.6,18.9,0.3,40.2-12.9,54.5l0,0c11.9,1.7,24.5-2.4,32.8-10.8l1.4-1.4l11.9,11.9
					c-10.5,10.5-24.5,17.1-39.1,17.5c-8.4,0.3-16.8-1.4-24.5-4.9c-16.8,7.7-37.4,6.3-53.1-3.8c-12.2-8-21.3-21-24.5-35.3
					c-3.8-17.8,1.7-37.4,14.7-50.7c10.1-10.5,24.5-16.4,39.1-16.8C195.2,344.5,195.2,344.5,195.6,344.5z"/>
			</defs>
			<clipPath id="SVGID_4_">
				<use xlink:href="#SVGID_3_"  style="overflow:visible;"/>
			</clipPath>
			<polygon class="st5" points="225.6,402.5 225.6,416.1 256,416.1 259.8,409.1 259.8,402.5 			"/>
		</g>
	</g>
	<polygon class="st2" points="293,408.8 189.3,408.8 189.3,392 297.2,392 297.2,398.6 	"/>
</g>
</svg>
