<?xml version="1.0" encoding="utf-8"?>
<!-- Generator: Adobe Illustrator 24.2.1, SVG Export Plug-In . SVG Version: 6.00 Build 0)  -->
<svg version="1.1" id="Layer_1" xmlns="http://www.w3.org/2000/svg" xmlns:xlink="http://www.w3.org/1999/xlink" x="0px" y="0px"
	 viewBox="0 0 800 800" style="enable-background:new 0 0 800 800;" xml:space="preserve">
<style type="text/css">
	.st0{fill-rule:evenodd;clip-rule:evenodd;fill:#FFFFFF;}
	.st1{fill:#6D6E6E;}
	.st2{fill:#48C1C4;}
</style>
<rect x="-0.4" y="-0.5" class="st0" width="801.5" height="801.5"/>
<g>
	<g>
		<path class="st1" d="M273.4,518.7l-7.1,14.4l-7.1-14.4h-4.4v21.7h3.4v-16.3l6.8,13.9h2.4l6.8-13.9v16.1h3.4v-21.7h-4.1V518.7z"/>
		<path class="st1" d="M320.2,533.5h9.2c0.5-5.9-1.9-9.7-7.6-9.7c-4.9,0-8.3,3.4-8.3,8.3c0,4.9,3.4,8.3,8.5,8.3c2.9,0,5.3-1,6.8-2.7
			l-1.9-2c-1.2,1.2-2.9,1.9-4.6,1.9c-0.3,0-2,0-3.2-1c-2.4-2-2.5-7-0.2-8.8c1.2-1,2.7-1,3.1-1c2.7,0,4.4,1.5,4.6,4.2h-6.1
			c-0.2,0.2-0.3,0.7-0.3,1.4C319.9,532.8,320.1,533.3,320.2,533.5z"/>
		<path class="st1" d="M378.1,517.4v9.3c-1.2-1.9-3.2-3.1-5.8-3.1c-4.6,0-7.8,3.4-7.8,8.3c0,5.1,3.2,8.5,8,8.5c2.7,0,4.6-1,5.8-3.1
			v2.9h3.6v-22.9H378.1z M373,537.6c-3.1,0-5.1-2.2-5.1-5.4c0-3.2,2-5.4,5.1-5.4c3.1,0,5.1,2.2,5.1,5.4S376.1,537.6,373,537.6z"/>
		<path class="st1" d="M430.1,524.1c0-1.5,1.4-2.2,3.6-2.2c1.7,0,4.1,0.5,6.3,2l1.5-3.2c-2-1.4-4.8-2.2-7.6-2.2c-4.8,0-8,2.4-8,6.1
			c0,7.6,11.7,5.1,11.7,9.9c0,1.7-1.5,2.7-4.1,2.7c-2.4,0-5.1-1.2-7.3-3.2l-1.5,3.2c2.2,2,5.4,3.4,8.8,3.4c4.8,0,8.2-2.4,8.2-6.3
			C441.8,526.4,430.1,528.9,430.1,524.1z"/>
		<path class="st1" d="M488.2,523.8c-2.5,0-4.6,1-5.8,3.1V524h-3.6v22.4h3.6v-8.8c1.2,1.9,3.2,3.1,5.8,3.1c4.8,0,7.8-3.4,7.8-8.3
			C496.2,527.2,492.9,523.8,488.2,523.8z M487.5,537.4c-2.9,0-5.1-2.2-5.1-5.4c0-3.1,2-5.3,5.1-5.3c2.9,0,5.1,2.2,5.1,5.3
			C492.4,535.2,490.4,537.4,487.5,537.4z"/>
		<path class="st1" d="M546.1,540.4v-10.9c0-3.6-2.4-5.8-6.6-5.8c-3.1,0-4.8,0.7-7.1,2l1.5,2.5c1.7-1.2,3.2-1.7,4.9-1.7
			c2.5,0,3.9,1.2,3.9,3.2v4.6c-0.2,1.9-2.2,3.1-4.8,3.1c-2,0-3.2-1-3.2-2.4c0-1.5,1-2.2,3.4-2.2h2v-2.5h-2.5c-3.9,0-6.3,1.9-6.3,4.9
			c0,2.9,2.2,5.1,5.8,5.1c2.4,0,4.2-0.7,5.4-2.2v2h3.6V540.4z"/>
	</g>
	<g>
		<g>
			<path class="st1" d="M172,460.8l-9.2-15.8h-0.5c-0.5,0-1.2,0-1.9,0h-12.7v10.2c0,3.1-2.4,5.4-5.4,5.4h-3.1v-51.3h21.2
				c13.4,0,20.7,6.1,20.7,17.5c0,8-3.4,13.8-10,16.5l-0.8,0.3l11.4,17.2L172,460.8L172,460.8z M147.7,437.9h12.7
				c8.3,0,12.6-3.7,12.6-10.7c0-6.8-4.4-10.5-12.6-10.5h-12.7V437.9z"/>
		</g>
		<g>
			<path class="st1" d="M227.8,460.8v-51.3H265v1.7c0,3.1-2.4,5.4-5.4,5.4h-23.3v14.8h22.2v7.3h-22.2v14.9h24.1
				c3.1,0,5.4,2.4,5.4,5.4v1.7H227.8z"/>
		</g>
		<g>
			<polygon class="st1" points="326.3,460.8 306.1,409.5 315.1,409.5 331.3,452.6 347.7,409.5 356.4,409.5 335.8,460.8 			"/>
		</g>
		<g>
			<path class="st1" d="M399.2,460.8v-51.3h3.1c3.1,0,5.4,2.4,5.4,5.4v45.9H399.2z"/>
		</g>
		<g>
			<polygon class="st1" points="470.7,460.8 450.5,409.5 459.5,409.5 475.6,452.6 492.1,409.5 500.8,409.5 480.2,460.8 			"/>
		</g>
		<g>
			<polygon class="st1" points="578.5,460.8 574,449.6 557.6,449.6 560.7,442.5 570.9,442.5 560.5,417.3 549.8,442.5 549.8,442.5 
				546.9,449.8 546.8,450.1 542.2,460.8 533.5,460.8 555.9,409.5 565.5,409.5 587.7,460.8 			"/>
		</g>
		<g>
			<path class="st1" d="M630.3,460.8v-51.3h8.5v43.8h17.3c3.1,0,5.4,2.4,5.4,5.4v2L630.3,460.8L630.3,460.8z"/>
		</g>
	</g>
	<path class="st2" d="M412.3,492.2h-23.8c-0.8,0-1.5-0.7-1.5-1.5l0,0c0-0.8,0.7-1.5,1.5-1.5h23.8c0.8,0,1.5,0.7,1.5,1.5l0,0
		C413.8,491.5,413.1,492.2,412.3,492.2z"/>
	<g>
		<path class="st2" d="M355,316.6c1.2-0.5,2.5-0.8,3.7-1.2c-12.4-13.2-14.4-31.1-14.8-37.5c5.4,0.2,18.9,1.7,30.9,9.5
			c0.2-1.4,0.3-2.5,0.5-3.9l0.3-1.9c-16.1-9.7-33.6-9.2-34.5-9.2l-2.4,0.2v2.4c0,1-0.7,24.5,14.6,42.3L355,316.6z"/>
		<path class="st2" d="M445.7,316.6c-1.2-0.5-2.5-0.8-3.7-1.2c12.4-13.2,14.4-31.1,14.8-37.5c-5.4,0.2-18.9,1.7-30.9,9.5
			c-0.2-1.4-0.3-2.5-0.5-3.9l-0.3-1.9c16.1-9.7,33.6-9.2,34.5-9.2l2.4,0.2v2.4c0,1,0.7,24.5-14.6,42.3L445.7,316.6z"/>
		<path class="st2" d="M462.2,332.2c-0.3-0.3-7.3-7.6-18-11.7c-1.9-0.7-3.7-1.4-5.9-1.7c-2.4-0.5-4.8-0.8-7.3-0.8
			c-3.9-0.2-7.6,0.3-11.4,1.4l0,0l-2.7,4.6c-0.5,0.8-1.2,1.9-1.9,2.7c5.1-2.5,10.4-3.7,15.8-3.6c0.5,0,0.8,0,1.4,0
			c2.5,0.2,5.1,0.7,7.3,1.4c8,2.4,13.9,7,16.8,9.5c-3.9,3.4-13.4,10.5-25.6,10.9c-8.2,0.2-16.1-2.7-23.9-8.7c-0.2,0-0.2-0.2-0.3-0.2
			c0.2,0,0.2,0.2,0.3,0.2c10.7-1,20-3.7,27.9-8.5c-1-0.2-2-0.3-2.9-0.3l-7.1-0.5c-4.9,2-10.5,3.2-16.5,3.9l0,0c-0.5,0-1,0.2-1.5,0.2
			c2.5-3.1,4.8-6.1,6.8-9.3c5.9-9.7,8.8-19.9,8.5-30.2c0-0.5,0-0.8,0-1.2c-0.2-2-0.3-4.1-0.7-6.1c-3.6-20.7-18.2-34.6-18.9-35.3
			l-1.9-1.7l-1.9,1.7c-0.7,0.7-15.5,14.6-18.9,35.3c-0.3,2-0.5,4.1-0.7,6.1c0,0.3,0,0.8,0,1.2c-0.3,10.4,2.5,20.5,8.5,30.2
			c1.9,3.2,4.2,6.3,6.8,9.3c-0.5,0-1-0.2-1.5-0.2l0,0c-6.1-0.7-11.5-2-16.5-3.9l-7.1,0.5c-1,0-2,0.2-2.9,0.3
			c7.8,4.8,17.2,7.6,27.9,8.5c0.2,0,0.2-0.2,0.3-0.2c-0.2,0-0.2,0.2-0.3,0.2c-7.6,5.9-15.6,8.8-23.9,8.7
			c-12.1-0.3-21.7-7.5-25.6-10.9c2.9-2.5,9-7.1,16.8-9.5c2.4-0.7,4.8-1.2,7.3-1.4c0.5,0,0.8,0,1.4,0c5.3-0.2,10.7,1,15.8,3.6
			c-0.7-0.8-1.2-1.9-1.9-2.7l-2.7-4.6l0,0c-3.7-1-7.5-1.5-11.4-1.4c-2.5,0-4.9,0.3-7.3,0.8c-2,0.5-4.1,1-5.9,1.7
			c-10.7,4.1-17.7,11.4-18,11.7l-1.7,1.9l1.7,1.9c0.5,0.5,13.1,13.9,31.2,14.4c0.3,0,0.7,0,1,0c10.4,0,20.2-4.2,29.6-12.6h0.2
			c9.3,8.3,19.2,12.6,29.6,12.6c0.3,0,0.7,0,1,0c18.2-0.5,30.6-13.8,31.2-14.4l1.7-1.9L462.2,332.2z M412.4,291.8
			c-5.6,6.3-9.5,13.8-12.1,22.6l0,0l0,0c-2.4-8.8-6.5-16.5-12.1-22.6c0,0.8,0,1.9,0,3.1l0.3,6.1c4.6,7.1,7.5,15.6,8.5,25.6
			c-8.2-10-12.6-20.5-13.1-31.4c0-1.2-0.2-2.4,0-3.6c0-1.2,0.2-2.5,0.3-3.7c1.7-16.3,11.7-28.9,16-33.5c4.1,4.6,14.1,17,16,33.5
			c0.2,1.2,0.2,2.4,0.3,3.7c0,1.2,0,2.4,0,3.6c-0.5,10.9-4.9,21.4-13.1,31.4c1-10,3.9-18.5,8.5-25.6l0.3-6.1
			C412.4,293.7,412.4,292.8,412.4,291.8z"/>
		<circle class="st2" cx="368.8" cy="260.9" r="4.1"/>
		<circle class="st2" cx="432" cy="260.9" r="4.1"/>
		<circle class="st2" cx="334.8" cy="315.1" r="4.1"/>
		<circle class="st2" cx="465.9" cy="315.1" r="4.1"/>
	</g>
</g>
</svg>
