<?xml version="1.0" encoding="utf-8"?>
<!-- Generator: Adobe Illustrator 24.2.1, SVG Export Plug-In . SVG Version: 6.00 Build 0)  -->
<svg version="1.1" id="Layer_1" xmlns="http://www.w3.org/2000/svg" xmlns:xlink="http://www.w3.org/1999/xlink" x="0px" y="0px"
	 viewBox="0 0 800 800" style="enable-background:new 0 0 800 800;" xml:space="preserve">
<style type="text/css">
	.st0{fill-rule:evenodd;clip-rule:evenodd;fill:#FFFFFF;}
</style>
<rect x="-0.4" y="-0.5" class="st0" width="801.5" height="801.5"/>
<g>
	<path d="M266.5,355.3c-0.4,1.7-2.1,10.7-3,22.2c-1.3,11.5-0.6,32.9,0.4,34.3c1.7,2.6,7.9,3.6,9,0.6c0.6-1.5,6.6-20.9,15.4-32.2
		c7.7-10.2,12.6-15.4,13.9-13.7c0.6,0.9,0.2,6,0.4,10.5c0,4.3,4.9,3,6.2,2.1c6.8-3.6,22.4-17.7,23.3-18.8c1.1-1.3-0.9-2.1-1.9-1.3
		c-1.1,0.9-22.6,17.7-22.4,15.8c0.2-1.9,2.6-15.1-5.1-16.9c-14.7-3.6-26.2,22-26.2,22s3.2-20.9,1.7-23.3
		C275.5,351.9,267.4,353.6,266.5,355.3z"/>
	<path d="M325.8,353.4c0,0-2.1,13.4-3.2,29.2c-0.4,13-0.2,37.1,15.1,40.7c5.8,1.3,11.3-1.3,19.2-10c14.5-15.4,26.5-42.9,28.2-47.4
		c2.1-5.3-1.9-4.9-3.2-2.3c-1.1,1.9-12.6,27.5-25,41c-11.9,12.8-17.7,4.5-18.8-8.7c-1.1-16.6,0.6-39.3,0.9-41.4
		C339.5,348.7,326.7,346.3,325.8,353.4z M341.2,330.3c0-8.5-15.8-10-15.1,3.4c0.2,3.6,3.6,9,7.3,9.2
		C338.2,343.1,341.2,334.2,341.2,330.3z"/>
	<path d="M383.4,425.1c-8.1-4.3,12.2-21.1,27.7-29.4C416.1,405.2,392.8,430.2,383.4,425.1z M446.8,363.2c-1.7,3.8-9,16.4-30.7,24.7
		c-7.9-9.4-25.6-9.8-29.9-13.4c-9.6-8.3,24.7-21.1,24.7-21.1c5.8,1.3,0.6-9.6-6-9.2c-14.1,1.3-36.9,22.6-27.5,32.9
		c2.3,2.3,6.6,4.1,11.5,5.3c18.3,5.1,19.6,8.5,19.6,8.5c-27.3,13-45.7,32.4-23.5,45.9c13.2,8.1,43.3-20.1,33.9-44.4
		c26.9-11.5,30.1-26,30.7-27.5C451.1,362.6,448.7,359.1,446.8,363.2z"/>
	<path d="M541.1,364.9c-1.9,3.4-23.9,45.4-36.7,44.2c-9.2-0.6-29.4-30.9-29.4-30.9s26.5-18.3,28.6-30.3c0.6-4.5-7.3-19.4-18.6-10.5
		c-10.2,7.9-21.1,34.1-23,39c-3.8,7.3-7,15.4-8.5,23.3c-0.9-13.4,1.7-30.3,4.3-43.3c0,0,26.2-66.6,27.5-84.5
		c1.5-17.9-6.8-27.7-12.8-20.1c-7.7,9.8-29.9,82.3-31.1,137.4c-0.2,4.7,0.4,19.2,2.1,29c1.3,6.4,2.8,14.1,9,15.6
		c3.4,0.4,5.8-1.7,4.1-4.7c-0.2-0.6-0.6-2.8-1.3-6.2c0.4-3,0.9-6.4,1.5-10c1.9-9.6,5.3-20.1,10.7-26.9c4.5,5.8,12.4,16.4,20.5,23.9
		c6,5.3,12.2,8.1,17.1,8.3c17.1,0.4,38.8-47.8,40.1-51.4C546.4,363,542.8,361.5,541.1,364.9z"/>
	<path d="M200.7,456.5c7.9,0,14.3,2.3,19.4,6.9c5.1,4.6,7.6,10.5,7.6,17.5c0,7-2.6,12.9-7.8,17.6c-5.2,4.7-11.7,7.1-19.6,7.1h-17.2
		v-49.1H200.7z M193.9,496.4h7c4.7,0,8.5-1.4,11.6-4.4c3-2.9,4.6-6.5,4.6-10.9c0-4.4-1.5-8-4.6-10.9c-3-2.9-6.9-4.3-11.6-4.3h-7
		V496.4z"/>
	<polygon points="257.6,505.6 257.6,456.5 293.7,456.5 293.7,465.9 268.3,465.9 268.3,476 290.2,476 290.2,484.7 268.3,484.7 
		268.3,496.4 294.4,496.4 294.4,505.6 	"/>
	<polygon points="324.2,505.6 324.2,456.5 334.9,456.5 334.9,496.1 358.9,496.1 358.9,505.6 	"/>
	<rect x="387" y="456.5" width="11" height="49.1"/>
	<path d="M477.8,479c0.1,0.9,0.1,1.8,0.1,2.7c0,7-2.3,12.8-6.8,17.5c-4.5,4.7-10.3,7.1-17.4,7.1c-7.3,0-13.4-2.4-18.2-7.2
		c-4.9-4.8-7.4-10.8-7.4-17.9s2.5-13.1,7.5-18c5-4.9,11.2-7.4,18.5-7.4c2.4,0,4.7,0.3,6.9,0.8c2.2,0.5,3.9,1.1,5.3,1.9
		c1.4,0.7,2.6,1.5,3.6,2.2c1,0.7,1.8,1.4,2.2,1.9l0.6,0.8l-7.4,7.6c-0.1-0.1-0.2-0.3-0.4-0.6c-0.2-0.2-0.7-0.7-1.4-1.3
		c-0.7-0.6-1.5-1.1-2.3-1.6c-0.8-0.5-1.9-0.9-3.2-1.3c-1.4-0.4-2.8-0.6-4.2-0.6c-4.4,0-8,1.5-10.8,4.4s-4.3,6.6-4.3,11.1
		c0,4.4,1.4,8.1,4.3,11.1c2.9,3,6.5,4.5,10.8,4.5c3.4,0,6.3-0.9,8.6-2.7c2.3-1.8,3.8-4.2,4.4-7.3h-13.5V479H477.8z"/>
	<polygon points="539.9,484.9 518.5,484.9 518.5,505.6 507.8,505.6 507.8,456.5 518.5,456.5 518.5,475.4 539.9,475.4 539.9,456.5 
		550.6,456.5 550.6,505.6 539.9,505.6 	"/>
	<polygon points="603.3,465.9 603.3,505.6 592.6,505.6 592.6,465.9 578.3,465.9 578.3,456.5 617.6,456.5 617.6,465.9 	"/>
</g>
</svg>
