<?xml version="1.0" encoding="utf-8"?>
<!-- Generator: Adobe Illustrator 24.2.1, SVG Export Plug-In . SVG Version: 6.00 Build 0)  -->
<svg version="1.1" id="Layer_1" xmlns="http://www.w3.org/2000/svg" xmlns:xlink="http://www.w3.org/1999/xlink" x="0px" y="0px"
	 viewBox="0 0 800 800" style="enable-background:new 0 0 800 800;" xml:space="preserve">
<style type="text/css">
	.st0{fill-rule:evenodd;clip-rule:evenodd;fill:#E66B2B;}
	.st1{fill:#FFFFFF;}
</style>
<rect x="-0.4" y="-0.5" class="st0" width="801.5" height="801.5"/>
<g>
	<g>
		<path class="st1" d="M450.5,373.7c0-3.4-0.9-5.9-2.5-7.2c-0.9-0.8-2.1-1.1-3.4-1c-0.5,0-16.2-0.2-21.4-0.2c-6,0-9.1,4.9-9.2,5.1
			c-0.3,0.5-0.3,1.2,0.1,1.7l3.6,4.1c-0.8,0.1-1.6,0.2-2.6,0.5c-1.4-1.3-3.1-3.1-3.9-3.9c-0.3-0.3-0.7-0.3-1-0.1
			c-0.3,0.3-0.3,0.7-0.1,1c0.1,0.1,1.7,1.9,3.3,3.4c-0.9,0.3-1.7,0.6-2.7,1.1c-1.8,0.8-3.4,1.7-4.7,2.6c-0.7-0.6-1.8-1.6-3.6-3.1
			c-1.7-1.5-2.6-2.2-3.2-2.6c-0.5-0.4-0.8-0.6-1.3-1.2c-1.4-1.4-2.5-3.2-3.5-5.1c-0.2-0.4-0.6-0.5-1-0.3c-0.4,0.2-0.5,0.6-0.3,1
			c1,2.1,2.2,4,3.7,5.5c0.6,0.6,0.9,0.9,1.4,1.3c0.6,0.4,1.4,1.1,3.1,2.6c1.2,1,2.4,2.2,3.3,3c-1.7,1.4-2.9,2.9-3.5,4.5
			c-0.1,0.2-0.1,0.5-0.2,0.7l-23.3-27.4c-0.4-0.5-1.1-0.6-1.6-0.4l-20.4,8c0,0,0,0,0,0c-0.3,0.1-0.7,0.2-1,0.4
			c-2.5,1.1-4.1,3-4.6,5.6c-1.1,5.1,2.2,11.5,4.8,14.3c2.1,2.3,5.2,3.7,8.2,3.7c0,0,0.1,0,0.1,0c1.6,0,3.1-0.4,4.2-1.1c0,0,0,0,0,0
			c0,0,5.8-2.9,11.6-5.9c3.9-2,6.6-3.4,8.4-4.3c1.5-0.8,3.3-0.4,4.4,0.8l9.6,11.2c0.1,0.2,0.2,0.3,0.2,0.5c0.3,0.7,1,1.6,2.6,2.1
			c0.9,0.3,1.8,0.4,2.9,0.4c3.3,0,7.2-1.2,9.3-2.3c2.8-1.5,5-3.5,6.4-5.8c0.7-1.1,1.8-1.8,3.1-1.8h17.1c0,0,0,0,0,0
			c0.2,0,0.4,0,0.7,0c1.6,0,3-0.5,4-1.6C450.3,381.4,450.6,377.6,450.5,373.7z M367.1,387.1c-0.8,0.8-2,1.2-3.6,1.2
			c-2.3,0-4.6-1.1-6.2-2.8c-2.2-2.5-4.9-7.9-4.1-11.8c0.4-1.7,1.3-2.8,3-3.6c1-0.4,1.9-0.7,2.8-0.7c1.2,0,2.3,0.4,3.3,1.3
			c-0.6,0-1.2,0-1.8,0.1c-2.4,0.6-3.6,2.5-3.9,3.1c-0.8,1.6-1,3.5-0.4,5.4c0.6,1.8,1.7,3.1,3.2,3.9c0.9,0.5,1.9,0.6,2.7,0.6
			c1.1,0,2.1-0.3,2.6-0.5c0.7-0.3,1.1-1.1,0.9-1.8c-0.3-0.7-1.1-1.1-1.8-0.9c-0.5,0.2-1.8,0.6-3,0c-0.8-0.4-1.4-1.2-1.7-2.2
			c-0.3-1.1-0.3-2.3,0.2-3.2c0.1-0.1,0.8-1.4,2-1.7c1.5-0.4,3.8,0.7,4.9,3.3c0,0,0,0,0,0.1C367.7,381.6,367.7,386.3,367.1,387.1z
			 M370.3,385.7c0.1-1.8,0-4-0.5-6.3c2.1-1.2,6.9-3.7,10.9-5.2c0.4-0.1,0.6-0.6,0.4-0.9c-0.1-0.4-0.6-0.6-0.9-0.4
			c-3.9,1.4-8.5,3.8-10.8,5c-0.2-0.7-0.4-1.3-0.6-2c0,0,0,0,0,0c0,0,0,0,0,0c-0.6-1.8-1.4-3.5-2.5-5c-1.1-1.5-2.3-2.6-3.6-3.3
			l8.8-3.5c2.9-1.2,6.3-0.3,8.3,2.1l0,0c-1.1,0.5-2.6,1.2-3.8,1.4c-2.3,0.5-5.4,1.8-5.5,1.9c-0.4,0.2-0.5,0.6-0.4,1
			c0.1,0.3,0.4,0.4,0.7,0.4c0.1,0,0.2,0,0.3-0.1c0,0,3.1-1.4,5.2-1.8c1.5-0.3,3.3-1.1,4.5-1.7l1.6,1.9c3.1,3.6,2,9.1-2.2,11.3
			C377.1,382.2,373.5,384,370.3,385.7z M415.6,390.1c-2.8,1.4-7.7,2.5-10,1.7c-0.5-0.2-0.8-0.4-0.9-0.6c-0.5-1.1-1-2.4-0.4-4
			c0.6-1.7,2.3-3.3,5-4.9c-0.3,0.7-1.1,3,0.2,4.7c0.9,1.2,2.3,1.6,3.6,1.6c0.3,0,0.6,0,0.8-0.1c2.7-0.4,3.8-3,3.9-3.3
			c0.3-0.7-0.1-1.6-0.8-1.9c-0.7-0.3-1.6,0.1-1.9,0.8c0,0-0.5,1.3-1.7,1.5c-0.6,0.1-1.3,0-1.6-0.4c-0.4-0.5,0-1.7,0.2-2
			c0.9-2.5,4.8-3.8,7.9-4.2c0.2,0,0.3,0.1,0.5,0.1c0,0,0.1,0,0.1,0.1l1.1,1.3C422.7,383.6,420,387.8,415.6,390.1z M437.3,382.1
			h-12.6c0-0.9-0.1-1.8-0.5-2.7c0,0,0,0,0-0.1c0,0,0-0.1,0-0.1c0,0,0,0,0-0.1c0,0,0-0.1-0.1-0.1c-0.4-0.8-1-1.5-1.7-2l-2.4-2.8
			c1.5-0.3,3.5-0.5,5.3-0.2c3.4,0.5,7.3,0,7.5,0c0.4,0,0.7-0.4,0.6-0.8c0-0.4-0.4-0.7-0.8-0.6c0,0-3.9,0.4-7.2,0
			c-2.4-0.3-5,0.1-6.5,0.4l-1.7-1.9c1-1.1,3-2.9,6.1-2.9c3.2,0,10.3,0.1,15.4,0.1c-2.6,2.8-2.7,6.8-2.7,8.5
			C435.9,379.1,436.4,380.8,437.3,382.1z M446.2,381.5c-0.3,0.3-0.6,0.4-1,0.6c0.3-0.4,0.6-0.8,0.9-1.2c1-1.9,1.3-4.3,0.6-6
			c-0.5-1.3-1.3-2.1-2.3-2.6c-0.9-0.4-1.9-0.5-2.7-0.2c-1.5,0.5-2.5,2.2-2.5,4.1c0,0.8,0.7,1.4,1.5,1.4c0.8,0,1.4-0.7,1.4-1.5
			c0-0.7,0.3-1.2,0.5-1.3c0,0,0.2-0.1,0.6,0.1c0.5,0.2,0.7,0.8,0.8,1c0.4,0.9,0.2,2.4-0.5,3.5c-0.3,0.6-0.9,1.2-1.7,1.4
			c-1.1,0.2-2.2-0.7-2.6-1.1c-0.3-0.7-0.4-1.7-0.4-2.8c0.1-5.2,1.8-7.7,5.6-8.4c0,0,0,0,0,0c0.2,0,0.4-0.1,0.5-0.1
			c0.5,0,0.9,0.1,1.2,0.4c0.5,0.4,1.4,1.6,1.4,5C447.7,376.6,447.5,380.1,446.2,381.5z"/>
		<path class="st1" d="M398.6,365.4c0.4-0.1,1.6-0.3,1.9-1.2c0.3-0.8-0.3-1.9-0.7-2.1c-6.1-3.9-9.3-8.2-9.6-12.7
			c-0.2-3,1-5.7,2.3-7.8c0.1,0.9,0.3,1.9,0.8,2.9c1.3,2.9,3.8,5.1,7.5,6.5c9,3.3,8.2,9.8,8.2,10c-0.1,0.6,0.1,1.2,0.6,1.7
			c0.5,0.4,1.1,0.5,1.7,0.3c8.9-2.9,14.2-7.4,15.8-13.3c2.5-9.3-5.3-18.5-5.7-18.8c-0.5-0.6-1.3-0.8-2-0.5c-0.7,0.3-1.2,1-1.1,1.8
			c0,0.5,0.1,5.1-4.6,5.6c0,0-0.1,0-0.1,0c-1.4,0.2-4.8,0.3-6.4-1.8c-1.1-1.4-1.4-3.7-0.7-5.4c0.9-2.5,3.5-3.2,7.6-4.2
			c4.1-1,8.7-2.2,11.8-6.4c4.2-5.7,3.3-13.8,0.6-18.9c-4.4-8.4-15.1-12.6-25.7-10c-0.8,0.2-1.4,1-1.4,1.8c0,0.9,0.7,1.6,1.5,1.7
			c2.7,0.4,4.6,2.3,5.1,5.2c0.6,3-0.5,7.5-5.3,10.2c-2.2,1.3-3.6,1.9-5.6,2.7c-1.3,0.5-9.5,3.8-14.7,10.3
			c-5.4,6.8-5.5,14.6-5.5,15.8c0,7.5,3.4,12.7,4.9,15C386.4,363,395.8,366,398.6,365.4z M396.9,315.9c2.1-0.9,4.1-1.8,5.9-2.9
			c5.3-3.1,8.1-8.6,7-14c-0.4-2-1.3-3.8-2.6-5.2c7,0,13.3,3.3,16.2,8.8c2.2,4.3,2.8,10.8-0.3,15.1c-2.3,3.1-6.1,4.1-9.8,5
			c-4.2,1-8.5,2.1-10.1,6.4c-1.2,3-0.7,6.6,1.2,9c1.9,2.5,5.4,3.6,9.7,3.1c3.8-0.4,5.9-2.5,7-4.8c1.8,3,3.9,7.7,2.6,12.3
			c-1.1,4.2-4.9,7.5-11.1,10c-0.6-3.6-3.2-8.5-10.5-11.2c-2.8-1-4.6-2.5-5.5-4.5c-1.3-3.1,0.1-6.5,0.1-6.5c0.3-0.8,0.1-1.7-0.6-2.2
			c-0.3-0.2-0.7-0.4-1.1-0.4c-0.4,0-0.8,0.1-1.1,0.4c-0.3,0.3-7.8,6.5-7.3,15.1c0.2,3.2,1.4,6.2,3.7,9.1c-5-3-10.3-8.6-10.5-19
			C379.6,323.6,388.4,319.7,396.9,315.9z"/>
		<path class="st1" d="M384.4,310.9c1,0.4,2,0.6,3.1,0.6c3.7,0,7.8-2.4,10.6-6.5c0.5-0.7,0.3-1.9-0.4-2.5c-2.8-2.6-4.3-5.3-4.5-8.1
			c-0.2-3.9,2.4-6.8,2.4-6.9c0.5-0.5,0.6-1.2,0.4-1.9c-0.2-0.6-0.8-1.1-1.5-1.1c-0.4,0-8.8-0.7-13.4,5.9c-2.2,3.1-2.9,7-2,11.4
			C379.5,304.1,380.4,309.1,384.4,310.9z M384.1,292.6c1.9-2.6,4.7-3.7,6.9-4.1c-0.8,1.6-1.4,3.7-1.3,6.2c0.2,3.4,1.7,6.6,4.6,9.6
			c-2.8,3.2-6.3,4.3-8.3,3.4c-2.3-1-2.9-4.6-3.3-6.3C382.4,300,381.6,296,384.1,292.6z"/>
		<path class="st1" d="M402.1,368.5c-0.3,0.2-0.4,0.7-0.1,1c0.1,0.1,2.8,3.7,4.8,5.6c0.1,0.1,0.3,0.2,0.5,0.2s0.4-0.1,0.5-0.2
			c0.3-0.3,0.3-0.7,0-1c-1.9-1.9-4.6-5.4-4.6-5.4C402.9,368.3,402.4,368.3,402.1,368.5z"/>
		<path class="st1" d="M432.5,377.5c-3,0.2-5.5,0-5.5,0c-0.4,0-0.7,0.3-0.8,0.7c0,0.4,0.3,0.7,0.7,0.8c0.1,0,1.2,0.1,2.8,0.1
			c0.8,0,1.8,0,2.9-0.1c0.4,0,0.7-0.4,0.7-0.8C433.3,377.8,432.9,377.5,432.5,377.5z"/>
	</g>
	<g>
		<path class="st1" d="M206.4,358.5c2.2,1.5,2.8,4.1,1.4,6.2c-1.4,2.1-4,2.6-6.2,1.1c-2.2-1.5-2.7-4-1.3-6.2
			C201.6,357.5,204.2,357,206.4,358.5z"/>
		<path class="st1" d="M234.6,339.8c-0.2,0.3-0.6,0.4-1,0.3l-8-1.7l-0.4,0.4l-3,3.4c-0.4,0.4-0.3,1.1,0.1,1.4l4.2,3.7
			c0.4,0.4,0.5,1,0.1,1.4l-2.6,3c-0.4,0.4-1,0.5-1.4,0.1L204,335.8c-0.4-0.4-0.5-1-0.1-1.4l7-8c4.6-5.3,9.7-6.1,14.2-2.2
			c2.8,2.4,4,5.3,3.5,8.4c-0.1,0.6,0.3,1.1,0.9,1.2l7.4,1.1c0.8,0.1,1.2,1.1,0.6,1.7L234.6,339.8z M217,339.1
			c0.4,0.4,1.1,0.3,1.4-0.1l3-3.4c2.2-2.5,2.3-5,0-7c-2.2-2-4.6-1.5-6.8,1l-3,3.4c-0.4,0.4-0.3,1.1,0.1,1.4L217,339.1z"/>
		<path class="st1" d="M260.7,298.3c4.9,6,3.8,14.5-2.5,19.6c-6.3,5.2-14.8,4.5-19.7-1.5c-4.9-6-3.8-14.4,2.5-19.6
			C247.4,291.8,255.8,292.3,260.7,298.3z M243.3,312.6c3,3.6,8.2,4.1,11.7,1.3c3.5-2.8,4-8,1-11.6c-3-3.6-8.1-4.1-11.5-1.3
			C240.9,303.8,240.3,309,243.3,312.6z"/>
		<path class="st1" d="M291.8,288.9l-9.6,5.4c-0.4,0.2-0.6,0.6-0.5,1l0.6,4.2c0.1,0.4-0.1,0.8-0.5,1l-3.5,2
			c-0.6,0.4-1.4-0.1-1.5-0.8L274,275c0-0.4,0.2-0.8,0.5-1l4.2-2.4c0.4-0.2,0.8-0.2,1.1,0.1l21.4,16.3c0.6,0.4,0.5,1.3-0.1,1.7
			l-3.7,2.1c-0.4,0.2-0.8,0.2-1.1-0.1L293,289C292.7,288.8,292.2,288.7,291.8,288.9z M287.2,284.4l-5.6-4.5c-0.7-0.6-1.8,0-1.7,0.9
			l0.9,7.1c0.1,0.7,0.9,1.1,1.5,0.8l4.7-2.7C287.7,285.7,287.7,284.8,287.2,284.4z"/>
		<path class="st1" d="M311.4,257l10.7,10.9c0.6,0.6,1.7,0.3,1.7-0.6l1.7-15.2c0-0.4,0.3-0.7,0.7-0.9l4.8-1.6
			c0.5-0.2,1.1,0.1,1.3,0.6l8,23.3c0.2,0.5-0.1,1.1-0.6,1.3l-3.2,1.1c-0.5,0.2-1.1-0.1-1.3-0.6l-4-11.7c-0.4-1-1.9-0.9-2,0.2
			l-1.2,11.5c0,0.4-0.3,0.7-0.7,0.9l-2.5,0.9c-0.4,0.1-0.8,0-1.1-0.3l-8-8.3c-0.8-0.8-2.1,0-1.7,1l4,11.7c0.2,0.5-0.1,1.1-0.6,1.3
			l-3.2,1.1c-0.5,0.2-1.1-0.1-1.3-0.6l-8-23.3c-0.2-0.5,0.1-1.1,0.6-1.3l4.8-1.7C310.7,256.6,311.1,256.7,311.4,257z"/>
		<path class="st1" d="M357.1,245.1l4.5,24.3c0.1,0.6-0.3,1.1-0.8,1.2l-3.9,0.7c-0.6,0.1-1.1-0.3-1.2-0.8l-4.5-24.3
			c-0.1-0.6,0.3-1.1,0.8-1.2l3.9-0.7C356.5,244.2,357,244.5,357.1,245.1z"/>
		<path class="st1" d="M381.7,241.3l11.5,13.8c0.6,0.8,1.9,0.3,1.8-0.7l-0.6-13.1c0-0.6,0.4-1,1-1.1l3.7-0.2c0.6,0,1,0.4,1.1,1
			l1.2,24.7c0,0.6-0.4,1-1,1.1l-4,0.2c-0.3,0-0.6-0.1-0.8-0.4l-11.5-13.8c-0.6-0.8-1.9-0.3-1.8,0.7l0.6,13.1c0,0.6-0.4,1-1,1.1
			l-3.7,0.2c-0.6,0-1-0.4-1.1-1l-1.2-24.7c0-0.6,0.4-1,1-1.1l4-0.2C381.2,241,381.5,241.1,381.7,241.3z"/>
		<path class="st1" d="M436.9,256.2l3.2,0.4c0.6,0.1,1,0.6,0.9,1.1l-1,8.6c0,0.3-0.2,0.6-0.5,0.8c-3,1.5-7.2,2.3-10.7,1.9
			c-8-1-13.4-7.5-12.5-15.2c0.9-7.7,7.8-12.7,16.1-11.7c3.6,0.4,7.1,2.1,9.5,4.4c0.4,0.4,0.4,1.1,0,1.4l-2.4,2.4
			c-0.4,0.4-1,0.4-1.5,0c-1.7-1.7-4-2.8-6.2-3.1c-4.7-0.6-8.8,2.6-9.3,7.3c-0.6,4.7,2.7,8.7,7.4,9.3c1.4,0.2,3.1-0.1,4.7-0.6
			c0.4-0.1,0.6-0.5,0.7-0.9l0.6-5.3C435.9,256.6,436.4,256.2,436.9,256.2z"/>
		<path class="st1" d="M488.2,256.5l-2.3,16.3c-0.1,1,1.2,1.6,1.8,0.8l10.4-12.8c0.3-0.4,0.8-0.5,1.2-0.3l4,1.7
			c0.4,0.2,0.7,0.6,0.6,1.1l-2.3,16.3c-0.1,1,1.2,1.6,1.8,0.8l10.4-12.8c0.3-0.4,0.8-0.5,1.2-0.3l3.7,1.6c0.6,0.3,0.8,1.1,0.4,1.6
			l-17.4,19.4c-0.3,0.3-0.8,0.4-1.2,0.3l-4.3-1.9c-0.4-0.2-0.7-0.6-0.6-1.1l2.1-15.3c0.1-1-1.1-1.6-1.8-0.8l-9.9,11.9
			c-0.3,0.4-0.8,0.5-1.2,0.3l-4.3-1.9c-0.4-0.2-0.7-0.6-0.6-1l2.4-25.9c0.1-0.7,0.8-1.1,1.4-0.8l3.9,1.7
			C488,255.6,488.2,256,488.2,256.5z"/>
		<path class="st1" d="M538.1,282.5l-13.3,20.8c-0.3,0.5-0.9,0.6-1.4,0.3l-3.4-2.1c-0.5-0.3-0.6-0.9-0.3-1.4l13.3-20.8
			c0.3-0.5,0.9-0.6,1.4-0.3l3.4,2.1C538.3,281.4,538.4,282,538.1,282.5z"/>
		<path class="st1" d="M568.8,305.9l-2,2.4c-0.4,0.4-1,0.5-1.4,0.1l-4.7-3.9c-0.4-0.4-1.1-0.3-1.4,0.1l-12.5,15.1
			c-0.4,0.4-1,0.5-1.4,0.1l-3.1-2.5c-0.4-0.4-0.5-1-0.1-1.4l12.5-15.1c0.4-0.4,0.3-1.1-0.1-1.4l-4.7-3.9c-0.4-0.4-0.5-1-0.1-1.4
			l2-2.4c0.4-0.4,1-0.5,1.4-0.1l15.6,12.9C569.1,304.8,569.1,305.5,568.8,305.9z"/>
		<path class="st1" d="M584.8,322l-6.8,6c-0.4,0.4-0.5,1-0.1,1.4l6.6,7.6c0.4,0.4,1,0.5,1.4,0.1l6.8-6c0.4-0.4,1.1-0.3,1.4,0.1
			l2.6,3c0.4,0.4,0.3,1.1-0.1,1.4l-18.5,16.3c-0.4,0.4-1.1,0.3-1.4-0.1l-2.6-3c-0.4-0.4-0.3-1.1,0.1-1.4l6.4-5.6
			c0.4-0.4,0.5-1,0.1-1.4l-6.6-7.6c-0.4-0.4-1-0.5-1.4-0.1l-6.4,5.6c-0.4,0.4-1.1,0.3-1.4-0.1l-2.6-3c-0.4-0.4-0.3-1.1,0.1-1.4
			l18.5-16.3c0.4-0.4,1.1-0.3,1.4,0.1l2.6,3C585.2,321,585.2,321.6,584.8,322z"/>
		<path class="st1" d="M599.3,365.7c-2.2,1.5-4.8,1-6.3-1.2c-1.4-2.1-0.8-4.7,1.4-6.2c2.2-1.5,4.8-1,6.2,1.2
			C602,361.7,601.5,364.3,599.3,365.7z"/>
	</g>
	<g>
		<path class="st1" d="M351.3,465.5c0-10.4,0.1-20.8,0.1-31.2c-0.9-13.5-8.4-24.8-19.2-28.8c-1-0.4-13.6-4.7-23.5,2.7
			c-1.3,1-7.4,5.5-7.8,12.9c-0.5,7.5,4.8,15.6,9.8,15.8c0.1,0,2.6,0.1,3.7-1.4c1.5-2,0.1-6.2-3.8-10.4c1.7-0.3,5.7-0.8,9.5,1.5
			c4.9,2.9,6.2,8.3,6.5,10c2.6,11.3-6.4,20-2.6,24.1c1.1,1.2,2.9,1.6,4.1,1.2c2.8-0.9,4.3-6,3.7-13.2c1.4,1.8,2.8,3.6,4.2,5.4
			c0,0,0,0,0,0c2.7,4.6,2.5,9.4,2.4,11c-0.5,8.5-6.1,11.2-6,18.3c0.1,6.8,5,6.9,7.4,16.1c0.6,2.2,3.3,12.9-3,21
			c-4.3,5.5-10.7,7.1-13.2,7.5c5.2-6.2,5.7-10.3,5-13c-1-3.7-4.3-4.8-5.3-9.2c-0.9-3.6,0.2-7,1.4-9.4c-1.5,0.2-8.5,1.3-12.5,7.1
			c-4.6,6.7-3.5,17.1,3.5,24.5c-2-0.3-5.1-1.1-8.2-3.3c-8.1-5.8-8.5-16.4-8.5-18.8c0-7.4,3.3-13.1,5.7-17.5
			c3.8-6.7,7.6-9.6,8.8-16.9c0.2-1,0.5-3.3,0.2-6.2c-1-9.7-8.9-14.4-13.2-20.7c-3.4-5-6.3-13.7-2.6-29.4c-1.5,0.9-4.5,2.9-6.7,6.7
			c-2.8,4.7-2.6,9.5-2.5,11.4c0.3,8.9,0.1,39.6,0,81.8c0,2.2,0.4,15.2,10.7,23.4c5.5,4.4,11.3,5.3,13.6,5.7c15,2.3,30.7-3.1,36-18.3
			c2.8-8.2,2.2-17.1,2.2-25.6V465.5z"/>
		<path class="st1" d="M409.1,410.2c0,10.7,0,21.3,0,32c0,6.1,0,12.3,0,18.4c0,4.4-0.1,3.5-4.7,3.5c-3.6,0-7.1,0-10.7,0
			c-1,0-6,0.7-6.8,0c-1-0.9-0.1-8.1-0.1-9.4c0-13.4,0-26.9,0-40.3c0-4.4,0.6-4.2-4-4.2c-3.6,0-7.1,0-10.7,0c-0.7,0-5.6-0.6-6.1,0
			c-0.5,0.6,0,4.1,0,4.8c0,4.3,0,8.6,0,12.9c0,28,0,56,0,84.1c0,9.1-1.2,19.1,0,28.1c0.4,3.1-0.8,1.8,2.2,2.6c3,0.7,7,0,10.1,0
			c1.3,0,7.1,0.9,8.2,0c1.1-0.9,0.4-6.1,0.4-7.7c0-6.7,0-13.5,0-20.2c0-7.1,0-14.1,0-21.2c0-1.6-1.1-9.3,0-10.5
			c1.5-1.6,13.1,0,15.4,0c0.9,0,6.2-0.7,6.8,0c0.3,0.3,0,1.6,0.1,2.1c1,4.8,0,11.1,0,16c0,7.4,0,14.8,0,22.2c0,5.4-0.7,11.3,0,16.7
			c0.5,4,1.4,2.6,6.1,2.6c2.4,0,13.1,1.5,14.7-0.1c0.6-0.6,0-5,0-5.8c0-25.7,0-51.5,0-77.2c0-12.5,0-24.9,0-37.4c0-2.9,0.8-7.2,0-10
			c-0.8-2.6,0-1.9-4-1.9C420.3,410.2,414.7,410.2,409.1,410.2z"/>
		<path class="st1" d="M489.7,410.2c-5.5,0-11,0-16.6,0c-2.1,0-10.2-1.2-11.6,0.2c-1,1-0.9,5.7-1.1,7c-0.8,4.9-1.6,9.8-2.4,14.7
			c-4.7,29.1-9.5,58.1-14.2,87.2c-1.3,7.8-2.5,15.5-3.8,23.3c4.6,0,9.3,0,13.9,0c3.2,0,4.4,0.8,5.6-1.4c1.4-2.8,1.1-8.1,1.6-11.2
			c0.8-5.7,1.6-11.4,2.4-17.1c2.3-16.1,4.6-32.2,6.8-48.3c1.4-10.4,2.9-20.9,4.3-31.3c2.4,1.9,2.3,13.3,2.7,16.5
			c0.6,4.5,1.3,9.1,1.9,13.6c1.7,11.8,3.3,23.6,5,35.4c-2.5,0-4.9-0.1-7.4,0c-3.4,0.2-2.1-0.5-3.1,2c-1.9,4.5-1.6,11.1-2.2,16
			c3.5,0,13,1.5,15.2-0.4c0.5,3.6,1,7.1,1.5,10.7c0.5,3.3,0.2,12,2.1,14.7c2.2,3,16.6,0.9,20.9,0.9c-6.3-38.7-12.6-77.3-18.9-116
			C491.5,421.1,490.6,415.6,489.7,410.2z"/>
		<path class="st1" d="M568,410.2c0,26.4,0,52.8,0,79.3c-1.6-1.4-2-6.5-2.6-8.7c-1.8-7.1-3.6-14.1-5.4-21.2
			c-3.8-14.7-7.5-29.5-11.3-44.2c-0.9-3.4-0.3-4.3-3.1-5.1c-3-0.8-7.5,0-10.6,0c-3.4,0-8.6-1-11.9,0c-2.5,0.8-1.8,0.5-1.8,3.8
			c0,4.6,0,9.2,0,13.8c0,31.7,0,63.5,0,95.2c0,3.6-1.8,17.9,0.9,19.5c1.4,0.8,16.6,1,17.6-0.1c1-1,0-7.9,0-9.2c0-29.1,0-58.3,0-87.4
			c2.8,2.3,3.7,12.9,4.6,16.5c3.1,11.8,6.1,23.7,9.2,35.5c3,11.4,5.9,22.9,8.9,34.3c0.6,2.5,0.9,6.8,2.3,8.9c1.4,2,1.3,1.4,4.7,1.4
			c2.9,0,5.9,0,8.8,0c1.4,0,6.3,0.8,7.5,0c1.1-0.8,0.5-0.6,0.8-2.6c1-7.5,0-15.8,0-23.3c0-25.3,0-50.6,0-75.9c0-9.2,0.2-18.5,0-27.7
			c-0.1-2.9,0.6-2.2-1.6-3C580.4,408.6,572.8,410.2,568,410.2z"/>
		<path class="st1" d="M276,503.2c0,9.6,0,19.2,0,28.8c0,1.6,1.1,9.4,0,10.6c-1.4,1.4-11.5,0-13.5,0c-1.2,0-5.9,0.8-7,0
			c-0.6-0.5-0.1-0.8-0.4-1.7c-1.4-4.1,0-11.1,0-15.3c0-9.8,1.6-21.3-0.7-31c-0.7-2.9-1.9-5.5-4.5-7.1c-1.8-1.1-6.3-0.9-7.2-2
			c-0.7-0.9,0-5.6,0-6.6c0-3-0.4-6.2,0-9.2c0.4-3.2-0.7-2.1,2.7-2.9c3.2-0.8,5.9-1.7,7.7-4.8c2.8-4.8,1.9-12,1.9-17.4
			c0-5.7-0.2-12.9-6.6-15c-1.9-0.6-12.2-1.8-13.4-0.5c-0.5,0.5,0,3.8,0,4.5c0,4,0,7.9,0,11.9c0,24.3,0,48.6,0,72.9
			c0,4.8,0,9.5,0,14.3c0,2.3,0.8,6.4,0,8.5c-0.8,2.1-0.2,1.5-3.5,1.5c-2.9,0-5.8,0-8.8,0c-1.6,0-6.3,0.8-7.7,0
			c-2-1.1-0.8-8.5-0.8-11.1c0-10.3,0-20.6,0-30.9c0-24.2,0-48.4,0-72.7c0-3.9,0-7.9,0-11.8c0-1-0.6-4.8,0-5.6c0.8-1,5.1-0.3,6.6-0.3
			c6.1,0,12.2,0,18.2,0c11.2,0,24.1-0.1,31.5,9.8c7.1,9.6,7,27.6,4.4,38.9c-0.8,3.7-2.2,7.3-4.7,10.2c-2.2,2.7-5.9,3.9-7.9,6.2
			C274.2,478.9,276,492.4,276,503.2z"/>
	</g>
</g>
</svg>
