<?xml version="1.0" encoding="utf-8"?>
<!-- Generator: Adobe Illustrator 24.2.1, SVG Export Plug-In . SVG Version: 6.00 Build 0)  -->
<svg version="1.1" id="Layer_1" xmlns="http://www.w3.org/2000/svg" xmlns:xlink="http://www.w3.org/1999/xlink" x="0px" y="0px"
	 viewBox="0 0 800 800" style="enable-background:new 0 0 800 800;" xml:space="preserve">
<style type="text/css">
	.st0{fill-rule:evenodd;clip-rule:evenodd;fill:#FFFFFF;}
	.st1{fill:#231F20;}
	.st2{fill:#652D90;}
</style>
<rect x="-0.4" y="-0.5" class="st0" width="801.5" height="801.5"/>
<g id="XMLID_240_">
	<g id="XMLID_415_">
		<path id="XMLID_445_" class="st1" d="M107.6,394c-2.3,3-3.4,6.2-3.4,9.7c0,4.2,1.7,7.4,5.2,9.7c2,1.4,4.3,2.1,6.9,2.1
			c2.6,0,4.8-0.5,6.7-1.5c3.6-1.9,5.6-5,6-9.3c0-0.3,0.1-0.6,0.1-0.9c0-1.6-0.5-3.4-1.4-5.3c-0.9-1.9-2.4-3.6-4.4-5.2l-11.9-9.4
			c-2.6-2-3.9-4.7-3.9-7.9c0-3.2,1-5.9,3.1-8.2c2.1-2.2,4.9-3.3,8.4-3.3c1.8,0,3.7,0.2,5.8,0.7h2.6l0.1,8.1h-0.7
			c0-2.1-0.8-3.8-2.3-5c-1.5-1.2-3.3-1.8-5.6-1.8s-4.1,0.7-5.6,2.2c-1.5,1.5-2.3,3.4-2.3,5.7c0,2.3,1,4.2,2.9,5.8l12.2,9.7
			c4.9,3.8,7.3,8.5,7.3,13.9c0,4.1-1.6,7.5-4.8,10.5c-2.8,2.5-6.5,3.8-11.1,3.8c-2.8,0-5.3-0.5-7.5-1.6c-4.1-1.9-6.6-5.3-7.5-9.9
			c-0.1-0.7-0.2-1.6-0.2-2.7c0-1.1,0.3-2.6,0.9-4.4c0.6-1.9,1.8-3.8,3.6-5.7L107.6,394z"/>
		<path id="XMLID_442_" class="st1" d="M183.5,410.9h0.5v0.7h-14.9v-0.7h0.6c0.9,0,1.6-0.3,2.1-0.9c0.5-0.6,0.7-1.2,0.7-1.7
			s-0.1-1.1-0.3-1.6l-4.2-11.3h-17.9l-4.4,11.3c-0.2,0.5-0.3,1-0.3,1.6c0,0.5,0.2,1.1,0.7,1.7c0.5,0.6,1.2,0.9,2.1,0.9h0.6v0.7
			h-13.3v-0.7h0.6c1.1,0,2.2-0.4,3.2-1.1c1.1-0.7,1.9-1.7,2.6-3.1l15-35.6c1.6-3.6,2.4-5.8,2.4-6.8h0.6l17.7,42.4
			c0.6,1.4,1.5,2.4,2.5,3.1C181.2,410.6,182.3,410.9,183.5,410.9z M150.9,393.5h16.3l-7.9-21.3L150.9,393.5z"/>
		<path id="XMLID_439_" class="st1" d="M203.3,411.6h-16.2l0.1-0.7h0.8c1.1,0,2.1-0.4,2.9-1.2c0.8-0.8,1.2-1.8,1.3-2.9V370
			c0-1.1-0.5-2.1-1.3-2.9c-0.8-0.8-1.8-1.2-2.9-1.2h-0.8l-0.1-0.7h13.2c4.5,0,8.1,1,10.6,3c2.5,2,3.8,4.7,3.8,8
			c0,2.6-0.7,4.8-2.1,6.6c-1.4,1.7-3.1,2.9-5.2,3.5c3.5,0.5,6.2,2,8.3,4.3c2,2.3,3,5.3,3,8.8c0,3.6-1.4,6.5-4.1,8.7
			C212,410.5,208.2,411.6,203.3,411.6z M196.6,409.2h6.5c0,0,0.1,0,0.1,0c3.4,0,6-0.9,7.8-2.7c1.9-1.8,2.8-4.4,2.8-7.7
			c0-1.9-0.3-3.6-1-5c-0.6-1.4-1.4-2.6-2.4-3.4c-2.6-2.1-6.4-3.2-11.5-3.2h-0.1v-0.6c5.8,0,9.3-2.2,10.5-6.5c0.3-1,0.4-2.1,0.4-3.2
			c0-3-0.8-5.3-2.5-7c-1.7-1.6-4-2.4-7.2-2.4h-3.5V409.2z"/>
		<path id="XMLID_437_" class="st1" d="M238.9,367.3h-4.2v39.5c0,1.1,0.4,2.1,1.2,2.9c0.8,0.8,1.8,1.2,3,1.2h0.8l0.1,0.7h-14.5v-0.7
			h0.9c1.1,0,2.1-0.4,2.9-1.2c0.8-0.8,1.2-1.8,1.3-2.9v-36.7c0-1.1-0.5-2.1-1.3-2.9c-0.8-0.8-1.8-1.2-2.9-1.2h-0.9v-0.7h17.9
			c4,0,7.2,1.1,9.5,3.3c2.3,2.2,3.4,5.1,3.4,8.7c0,3.6-1.1,6.6-3.3,9.2s-4.8,3.9-8,3.9c0.7,0.3,1.4,0.9,2.4,1.8
			c0.9,0.9,1.7,1.8,2.4,2.8c3.8,5.4,6.3,8.8,7.4,10c1.1,1.3,2,2.1,2.4,2.6s1,0.9,1.6,1.4c0.6,0.4,1.1,0.8,1.7,1.1
			c1.3,0.6,2.6,0.9,4.1,0.9v0.7h-3.6c-1.9,0-3.7-0.3-5.3-1c-1.6-0.7-2.9-1.4-3.7-2.1c-0.8-0.7-1.5-1.4-2.1-2.1
			c-0.6-0.7-2.2-3-4.9-6.9c-2.7-3.9-4.3-6.1-4.7-6.7c-0.4-0.6-0.9-1.1-1.4-1.6c-1.4-1.5-2.8-2.3-4.2-2.3v-0.7c0.4,0,0.8,0.1,1.4,0.1
			c0.6,0,1.3,0,2.1-0.1c5.5-0.1,8.9-2.4,10.3-6.9c0.3-0.9,0.4-1.7,0.4-2.5c0-0.8,0-1.3,0-1.5c-0.1-3-0.9-5.3-2.3-7.1
			c-1.5-1.8-3.4-2.8-5.9-2.9C241.9,367.3,240.5,367.3,238.9,367.3z"/>
		<path id="XMLID_435_" class="st1" d="M269,410.9c1.1,0,2.1-0.4,2.9-1.2c0.8-0.8,1.2-1.8,1.3-2.9V370c0-1.1-0.5-2.1-1.3-2.9
			c-0.8-0.8-1.8-1.2-2.9-1.2h-0.9v-0.7h14.5v0.7h-0.9c-1.1,0-2.1,0.4-2.9,1.2c-0.8,0.8-1.2,1.8-1.3,2.9v36.7c0,1.1,0.4,2.1,1.3,2.9
			c0.8,0.8,1.8,1.2,3,1.2h0.9v0.7h-14.5v-0.7H269z"/>
		<path id="XMLID_433_" class="st1" d="M338,365.9c-1.1,0-2.1,0.4-2.8,1.2c-0.8,0.8-1.2,1.7-1.3,2.8v34.2c0,2.6,0.2,5,0.5,7.3
			l0.1,1.2h-0.6L297.9,374v33c0,1.1,0.4,2,1.2,2.8c0.8,0.8,1.7,1.2,2.8,1.2h1.3v0.7h-13.6v-0.7h1.3c1.1,0,2.1-0.4,2.8-1.2
			c0.8-0.8,1.2-1.7,1.2-2.9v-34.4c0-2.7-0.2-5.1-0.5-7.2l-0.1-1.1h0.7l36.1,38.5V370c0-1.1-0.5-2.1-1.3-2.9
			c-0.8-0.8-1.7-1.2-2.8-1.2h-1.3v-0.7h13.6v0.7H338z"/>
		<path id="XMLID_430_" class="st1" d="M388.6,410.9h0.5v0.7h-14.9v-0.7h0.6c0.9,0,1.6-0.3,2.1-0.9c0.5-0.6,0.7-1.2,0.7-1.7
			s-0.1-1.1-0.3-1.6l-4.2-11.3h-17.9l-4.4,11.3c-0.2,0.5-0.3,1-0.3,1.6c0,0.5,0.2,1.1,0.7,1.7c0.5,0.6,1.2,0.9,2.1,0.9h0.6v0.7
			h-13.3v-0.7h0.6c1.1,0,2.2-0.4,3.2-1.1c1.1-0.7,1.9-1.7,2.6-3.1l15-35.6c1.6-3.6,2.4-5.8,2.4-6.8h0.6l17.7,42.4
			c0.6,1.4,1.5,2.4,2.5,3.1C386.4,410.6,387.5,410.9,388.6,410.9z M356.1,393.5h16.3l-7.9-21.3L356.1,393.5z"/>
		<path id="XMLID_428_" class="st1" d="M467.7,422.9c-1.9,0.5-3.5,0.7-4.9,0.7c-1.4,0-2.7-0.1-3.8-0.3c-1.1-0.2-2.3-0.5-3.5-1
			c-1.3-0.5-2.4-1.1-3.5-1.8c-1.1-0.7-2.2-1.5-3.3-2.4c-2-1.6-3.9-3.4-5.5-5.3c-1.7-1.9-4.8-5.5-9.6-10.7c-4.7-5.2-7.9-8.7-9.4-10.4
			c-1.5-1.7-2.7-2.6-3.6-2.7v-0.7c2.6,0,4.3-0.1,5.1-0.2c0.9-0.1,1.8-0.3,2.7-0.6c1-0.3,1.8-0.7,2.4-1.2c2.6-1.7,3.9-4.5,3.9-8.3
			c0-3.2-0.7-5.8-2.2-7.7c-1.4-1.9-3.5-2.9-6.1-3h-8.2v39.5c0,1.1,0.4,2.1,1.2,2.9c0.8,0.8,1.8,1.3,3,1.3h0.8l0.1,0.7h-14.5v-0.7
			h0.9c1.1,0,2.1-0.4,2.9-1.2c0.8-0.8,1.3-1.8,1.3-2.9v-36.7c0-1.1-0.5-2.1-1.3-2.9c-0.8-0.8-1.8-1.2-2.9-1.2h-0.9v-0.7h17.9
			c3.9,0,7,1.1,9.4,3.3c2.4,2.2,3.5,5.1,3.5,8.7c0,3.6-1.1,6.7-3.2,9.3c-2.2,2.6-4.8,3.9-7.9,3.9h-0.1c1.5,1.6,3.2,3.4,5.1,5.6
			c7.6,8.4,12.5,13.7,14.7,15.9c2.2,2.2,4.1,3.9,5.7,5.3c1.7,1.4,3.1,2.4,4.4,3.1c2.6,1.4,5.2,2.1,7.7,2.1c0.5,0,1.1,0,1.6-0.1
			V422.9z"/>
		<path id="XMLID_425_" class="st1" d="M495.5,410.9h0.5v0.7h-14.9v-0.7h0.6c0.9,0,1.6-0.3,2.1-0.9c0.5-0.6,0.7-1.2,0.7-1.7
			s-0.1-1.1-0.3-1.6l-4.2-11.3h-17.9l-4.4,11.3c-0.2,0.5-0.3,1-0.3,1.6c0,0.5,0.2,1.1,0.7,1.7c0.5,0.6,1.2,0.9,2.1,0.9h0.6v0.7
			h-13.3v-0.7h0.6c1.1,0,2.2-0.4,3.2-1.1c1.1-0.7,1.9-1.7,2.6-3.1l15-35.6c1.6-3.6,2.4-5.8,2.4-6.8h0.6l17.7,42.4
			c0.6,1.4,1.5,2.4,2.5,3.1C493.2,410.6,494.3,410.9,495.5,410.9z M462.9,393.5h16.3l-7.9-21.3L462.9,393.5z"/>
		<path id="XMLID_423_" class="st1" d="M554.8,410.9h1.1v0.7h-14.4V411h1c0.7,0,1.4-0.3,1.9-0.9c0.5-0.6,0.8-1.2,0.7-2l-3-33.3
			l-13.9,30.9c-1.2,2.7-2,4.9-2.3,6.8h-0.7l-16.9-36.7l-2.8,32.4c-0.1,0.7,0.1,1.4,0.7,2c0.5,0.6,1.2,0.9,1.9,0.9h1v0.6h-12.8v-0.7
			h1.1c1.2,0,2.3-0.4,3.2-1.1c0.9-0.8,1.4-1.8,1.6-3l5-42.4h0.7l18.5,39.9l18.1-39.9h0.6l5.1,42.4c0.2,1.3,0.7,2.3,1.7,3
			C552.5,410.6,553.6,410.9,554.8,410.9z"/>
		<path id="XMLID_420_" class="st1" d="M565.6,371c4.7-4.4,10.8-6.7,18.4-6.7c7.5,0,13.6,2.2,18.4,6.7c4.7,4.4,7.1,10.3,7.1,17.4
			c0,7.2-2.4,13-7.1,17.4c-4.7,4.4-10.8,6.7-18.4,6.7c-7.5,0-13.7-2.2-18.4-6.7c-4.7-4.4-7.1-10.3-7.1-17.4
			C558.5,381.2,560.9,375.4,565.6,371z M569.2,404.5c3.7,4.1,8.6,6.1,14.7,6.1c6.1,0,11-2,14.7-6.1c3.7-4.1,5.6-9.4,5.6-16
			c0-6.6-1.9-12-5.6-16c-3.7-4.1-8.6-6.1-14.7-6.1c-6.1,0-11,2-14.7,6.1c-3.7,4.1-5.6,9.4-5.6,16
			C563.6,395.1,565.5,400.4,569.2,404.5z"/>
		<path id="XMLID_418_" class="st1" d="M649.3,371.2c0-1.1-0.4-2-1.1-2.7c-0.8-0.8-1.6-1.2-2.6-1.2H633v39.7c0,1.1,0.5,2.1,1.3,2.9
			c0.8,0.8,1.8,1.2,2.9,1.2h0.9v0.7h-14.5v-0.7h0.9c1.1,0,2.1-0.4,2.9-1.2c0.8-0.8,1.2-1.7,1.3-2.8v-39.7h-12.6
			c-1.1,0-2,0.5-2.7,1.2c-0.7,0.8-1.1,1.7-1.1,2.7v1.1l-0.7,0.1V364c0.7,0.3,1.8,0.5,3.4,0.8s3.1,0.4,4.5,0.4H642
			c2.2,0,4-0.2,5.4-0.5c1.4-0.3,2.3-0.6,2.6-0.7v8.3l-0.7-0.1V371.2z"/>
		<path id="XMLID_416_" class="st1" d="M687.5,410.9c1.1,0,2.1-0.4,2.9-1.2c0.8-0.8,1.2-1.8,1.3-2.9v-17.1h-27.1v17.1
			c0,1.1,0.4,2.1,1.3,2.9c0.8,0.8,1.8,1.2,3,1.2h0.9v0.7h-14.5v-0.7h0.9c1.1,0,2.1-0.4,2.9-1.2c0.8-0.8,1.2-1.8,1.3-2.9V370
			c0-1.1-0.5-2.1-1.3-2.9c-0.8-0.8-1.8-1.2-2.9-1.2h-0.9v-0.7h14.5v0.7h-0.9c-1.1,0-2.1,0.4-2.9,1.2s-1.2,1.8-1.3,2.9v17.7h27.1V370
			c0-1.6-0.8-2.8-2.1-3.6c-0.7-0.4-1.4-0.5-2.1-0.5h-0.9v-0.7h14.5v0.7h-0.9c-1.1,0-2.1,0.4-2.9,1.2c-0.8,0.8-1.2,1.8-1.3,2.9v36.7
			c0,1.1,0.5,2.1,1.3,2.9c0.8,0.8,1.8,1.2,2.9,1.2h0.9v0.7h-14.5v-0.7H687.5z"/>
	</g>
	<g id="XMLID_348_">
		<path id="XMLID_382_" class="st2" d="M527.5,330c-2.6-2.4-6.4-3.7-10.2-3.4c-6.4,0.5-11.6,3.3-18.1,7.4c1.4-2,2.6-4.3,3.6-7
			c2.3-6.5,0-14.3-5.1-17.5c-4.5-2.8-10-1.3-15,4c0,0,0,0,0,0c-0.1,0.1-0.1,0.2-0.2,0.3c0,0,0,0,0,0.1c0,0.1,0,0.2,0.1,0.4
			c0,0,0,0,0,0c0,0,0,0,0,0c0,0,0,0,0,0c0.1,0.1,0.2,0.2,0.3,0.2c0,0,0.1,0,0.1,0c0.1,0,0.3,0.1,0.4,0c0,0,0,0,0,0
			c0.1,0,5.7-1.1,10.1,2.5c2.8,2.3,4.2,7.6,3.1,12.4c-0.7,3.3-3.1,9.1-11.6,11.5c-0.2,0-0.4,0.1-0.6,0.1c-0.1,0-0.1,0-0.2,0
			c1.6-0.8,2.9-1.7,3.8-2.6c2.6-2.6,3.8-6.3,3.5-10.1c-0.9-9-9.2-9.9-9.3-9.9c-0.3,0-0.6,0.1-0.7,0.4c-0.1,0.3-0.1,0.6,0.1,0.8
			c0.2,0.2,4.8,4.8,2.7,12.2c-1.5,5.4-6.6,8.6-12.5,7.9c-0.8-0.3-1.6-0.6-2.3-1c0.4,0,0.8,0.1,1.2,0.1c3.3,0,6.1-1.3,7.8-3.1
			c2-2.2,3-5.2,2.5-7.9c-0.4-2.1-1.6-3.8-3.4-4.7c-1.9-0.9-3.6-1.1-5-0.6c-2.1,0.8-3,2.8-3,2.9c-0.2,0.4,0,0.8,0.4,0.9
			c0.4,0.2,0.8,0,0.9-0.4c0,0,0.7-1.5,2.2-2.1c1.1-0.4,2.4-0.2,3.9,0.5c1.4,0.7,2.3,2,2.6,3.6c0.4,2.3-0.4,4.8-2.1,6.6
			c-2.4,2.5-7.2,3.9-12.6,1.2c-3-2.3-4.9-4.7-5.7-5.9c3.7-2.2,6.9-6.2,7.2-13.6c0.4-7-3.5-14.6-9.9-19.2c-3.5-2.5-10.1-5.8-19.7-4.8
			c8-4.1,13.4-10.2,14.1-16.3c0.6-5.6-1-10.5-4.2-12.7c-2-1.4-4.3-1.5-6.5-0.5c-1.9,0.9-3.1,2.3-3.6,3.9c0,0.1,0,0.3-0.1,0.4
			c0,0.1,0,0.1,0,0.2c-0.4,2.6,1.2,5,1.2,5.1c0.2,0.3,0.7,0.4,1,0.2c0.3-0.2,0.4-0.7,0.2-1c0,0-1.1-1.7-1.1-3.6c0.8-0.1,2.5,0,3.9,1
			c1.4,1,2.2,2.8,2.5,5.2c0.8,7.3-3.2,14.1-10.2,17.8c-1.5,0.7-3.1,1.3-4.8,1.8c0,0,0,0,0,0c-1,0.3-2.1,0.7-3.1,1.1
			c3.3-2.9,6.2-6.6,6.8-11.5c1-8-3.8-11.6-4-11.7c-0.3-0.2-0.8-0.2-1,0.2c-0.2,0.3-0.2,0.8,0.2,1c0,0,4.3,3.3,3.4,10.4
			c-0.7,5.5-4.5,10.1-12.1,14.7c-2.5,1.3-4.7,2.7-6.8,4.1c4.6-6.6,6.9-14,6.3-21.1c0,0,0,0,0-0.1c0,0,0,0,0-0.1
			c0-0.4-0.1-0.8-0.1-1.2c-0.8-6-3.7-10.8-7.9-13.1c-6-3.2-10.5-1.5-12.7-0.2c-1.5,0.9-2.8,2.2-3.8,3.6c0-0.1,0-0.2,0-0.3
			c0,0,0,0,0-0.1c0.1-0.4,0.1-0.7,0.2-1.1c1.2-4.3,4.7-8.5,8.7-10.5c2.1-1.1,5.4-2,9-0.6c7.7,3.1,6.7,10.7,6.7,11
			c-0.1,0.4,0.2,0.8,0.6,0.8c0.4,0.1,0.8-0.2,0.8-0.6c0-0.1,1.2-9-7.6-12.5c-3.3-1.3-6.8-1.1-10.2,0.6c-1.3,0.7-2.6,1.6-3.7,2.6
			c1.2-1.6,2.7-3.1,4.3-4.3c3.7-2.8,7.6-4,11.1-3.6c9.4,1.3,12.3,8.8,12.4,9.1c0.1,0.3,0.4,0.5,0.7,0.5c0.3,0,0.6-0.3,0.7-0.6
			c0-0.1,2.1-10.9-8.8-15.1c-4.4-1.7-9.5-0.8-14.2,2.3c4.9-8.2,3.7-13.4,2.8-15.5c-1.2-2.8-3.7-4.5-6.7-4.7
			c-4.8-0.3-6.9,2.2-7.9,4.3c-0.9-2-3.1-4.6-7.9-4.3c-3,0.2-5.5,1.9-6.7,4.7c-0.9,2.1-2.1,7.3,2.8,15.5c-4.6-3.2-9.8-4-14.2-2.3
			c-10.9,4.2-8.8,15-8.8,15.1c0.1,0.3,0.3,0.5,0.7,0.6c0.3,0,0.6-0.2,0.7-0.5c0.1-0.3,3-7.8,12.4-9.1c3.5-0.5,7.4,0.8,11.1,3.6
			c1.6,1.2,3.1,2.7,4.3,4.3c-1.2-1-2.4-1.9-3.7-2.6c-3.4-1.7-7-1.9-10.2-0.6c-8.8,3.5-7.6,12.4-7.6,12.5c0.1,0.4,0.4,0.7,0.8,0.6
			c0.4-0.1,0.7-0.4,0.6-0.8c0-0.3-1-7.9,6.7-11c3.6-1.5,6.9-0.5,9,0.6c4,2,7.5,6.2,8.7,10.5c0.1,0.4,0.2,0.7,0.2,1.1c0,0,0,0,0,0.1
			c0,0.1,0,0.2,0,0.3c-1-1.4-2.2-2.7-3.8-3.6c-2.2-1.3-6.8-3-12.7,0.2c-4.2,2.3-7.1,7-7.9,13.1c-0.1,0.4-0.1,0.8-0.1,1.2
			c0,0,0,0,0,0c0,0,0,0,0,0.1c-0.5,7.1,1.7,14.5,6.3,21.1c-2.1-1.5-4.3-2.9-6.8-4.1c-7.6-4.6-11.5-9.2-12.1-14.7
			c-0.9-7.1,3.3-10.3,3.4-10.4c0.3-0.2,0.4-0.7,0.1-1c-0.2-0.3-0.7-0.4-1-0.2c-0.2,0.1-5,3.8-4,11.7c0.6,4.9,3.5,8.6,6.8,11.5
			c-1.1-0.4-2.1-0.8-3.1-1.1c0,0,0,0,0,0c-1.7-0.5-3.3-1.1-4.8-1.8c-7.1-3.7-11-10.5-10.2-17.8c0.3-2.4,1.1-4.2,2.5-5.2
			c1.4-1,3.1-1.1,3.9-1c0.1,1.9-1.1,3.6-1.1,3.6c-0.2,0.3-0.1,0.8,0.2,1c0.3,0.2,0.8,0.1,1-0.2c0.1-0.1,1.6-2.5,1.2-5.1
			c0-0.1,0-0.1,0-0.2c0-0.1,0-0.3-0.1-0.4c-0.4-1.7-1.6-3-3.6-3.9c-2.2-1.1-4.5-0.9-6.5,0.5c-3.2,2.2-4.8,7.1-4.2,12.7
			c0.6,6.1,6,12.2,14.1,16.3c-9.6-1-16.2,2.3-19.7,4.8c-6.4,4.6-10.3,12.2-9.9,19.2c0.4,7.4,3.6,11.4,7.2,13.6
			c-0.8,1.1-2.6,3.5-5.6,5.8c-5.5,2.7-10.3,1.4-12.7-1.1c-1.7-1.8-2.5-4.4-2.1-6.6c0.3-1.7,1.2-3,2.6-3.6c1.5-0.7,2.8-0.9,3.9-0.5
			c1.5,0.6,2.2,2,2.2,2.1c0.2,0.4,0.6,0.5,0.9,0.4c0.4-0.2,0.5-0.6,0.4-0.9c0-0.1-0.9-2.1-3-2.9c-1.5-0.6-3.2-0.4-5,0.6
			c-1.8,0.9-3,2.6-3.4,4.7c-0.5,2.7,0.5,5.7,2.5,7.9c1.7,1.8,4.5,3.1,7.8,3.1c0.4,0,0.8,0,1.3-0.1c-0.7,0.3-1.5,0.7-2.3,1
			c-5.9,0.7-11.1-2.5-12.6-7.9c-2.1-7.5,2.5-12,2.7-12.2c0.2-0.2,0.3-0.5,0.1-0.8c-0.1-0.3-0.4-0.4-0.7-0.4c-0.1,0-8.4,0.9-9.3,9.9
			c-0.4,3.8,0.9,7.5,3.5,10.1c0.9,0.9,2.1,1.9,3.8,2.6c-0.1,0-0.1,0-0.2,0c-0.2,0-0.4-0.1-0.6-0.1c-8.4-2.4-10.9-8.2-11.6-11.5
			c-1-4.8,0.3-10.1,3.1-12.4c4.4-3.6,10.1-2.6,10.1-2.5c0,0,0,0,0,0c0.1,0,0.3,0,0.4,0c0,0,0.1,0,0.1,0c0.1-0.1,0.2-0.1,0.3-0.2
			c0,0,0,0,0,0c0,0,0,0,0,0c0,0,0,0,0,0c0.1-0.1,0.1-0.2,0.1-0.4c0,0,0,0,0-0.1c0-0.1-0.1-0.2-0.2-0.4c0,0,0,0,0,0
			c-5-5.3-10.5-6.8-15-4c-5.1,3.1-7.4,11-5.1,17.5c1,2.7,2.1,5,3.6,7c-6.5-4.1-11.7-7-18.1-7.4c-3.8-0.3-7.6,1-10.2,3.4
			c-2.1,2-3.2,4.5-3.2,7.3c0,2,0.6,3.5,1.8,4.6c1.6,1.4,3.7,1.6,4.4,1.6c0.2,0,0.3,0,0.3,0c0.2,0,0.4-0.2,0.6-0.4
			c0.1-0.2,0.1-0.5,0-0.7c-0.1-0.2-1.9-4.2,1.2-8.2c1.7-2.1,6.1-2.8,11.7-1.8c-2.7,0.5-4.5,2-5.4,3.7c-1.3,2.3-0.9,4.9,0.9,6.4
			c1,0.8,2.1,1.1,3,1.1c1.7,0,3.1-1,3.9-1.7c0.3-0.3,0.3-0.7,0-1c-0.3-0.3-0.7-0.3-1,0c-0.1,0.1-2.4,2.5-4.9,0.5
			c-1.2-1-1.5-2.9-0.5-4.6c1.4-2.4,5.3-4.5,12.1-2.1c0,0,0,0,0,0c2.8,1.1,5.8,2.5,8.7,4.4c2.5,1.7,5.4,2.9,8.9,3.6c0,0,0,0,0.1,0
			c0,0,0.1,0,0.1,0c0,0,0.1,0,0.1,0c2.5,0.5,5.3,0.7,8.4,0.7c12.5,0,16.8-2.8,19-4.9c1.9-1.8,1.3-5,0.8-6.9c2.8,1.1,5.6,1.3,7.4,1.3
			c2.9,0,5.7-1.3,7.9-3.5c0,0,0.1-0.1,0.1-0.1c0,0,0,0,0,0c2.4-2.6,3.7-6.2,3.5-10c0-0.4-0.4-0.7-0.8-0.7c-0.4,0-0.7,0.4-0.7,0.8
			c0.2,3.4-0.9,6.4-2.9,8.7c-1.9-0.2-10.9-1.5-11.7-12c-0.5-6.4,2.2-12.7,7.1-16.6c5.3-4.2,12.6-5.1,20.6-2.5
			c1.9,0.7,3.7,1.5,5.4,2.4c-4.6-1.3-9.5-1.7-14,0.3c-10.8,4.8-9.2,15.6-9.2,15.7c0,0.3,0.3,0.6,0.6,0.6c0.3,0.1,0.6-0.1,0.8-0.4
			c0-0.1,5-9.9,18.1-8.7c4.3,0.4,9.6,2.5,14.7,5.8c-7-2.8-12.5-1.4-15.7,0c-6.6,3-11.2,9.9-11.5,17.2c-0.2,3.9,1,7.1,3.3,9.5
			c2.9,3,6.9,4.1,9.5,4.1c4.6,0,6.9-1.9,7-2c0.2-0.2,0.3-0.5,0.2-0.8c-0.1-0.3-0.4-0.5-0.7-0.5c-0.1,0-8.8-0.5-11-8.4
			c-1.3-4.4,1.5-10.4,6.2-13.6c3.6-2.4,7.9-3.1,12.4-2c-2.4,0.2-4.6,1-6.4,2.5c-3.1,2.6-4.5,6.7-3.6,10.5c1.4,6,8.6,6.7,11.5,6.7
			c0.7,0,1.1,0,1.2,0c0.3,0,0.6-0.3,0.7-0.6c0.1-0.3-0.1-0.6-0.4-0.8c0,0-3.7-1.8-4.6-4.9c-0.4-1.4-0.1-3,1-4.5
			c1.4-2.1,3.7-3.1,6.5-2.9c3.9,0.4,7.5,3.3,9,7.1c0,0,0,0,0,0c0.6,1.4,1,2.8,1.3,4.3c0,6.9-7,8.3-7.3,8.4c-0.4,0.1-0.7,0.5-0.6,0.8
			c0.1,0.3,0.4,0.6,0.7,0.6c0,0,0.1,0,0.1,0c0.1,0,5.7-1.1,7.8-6c2,4.9,7.7,6,7.8,6c0,0,0.1,0,0.1,0c0.3,0,0.6-0.2,0.7-0.6
			c0.1-0.4-0.2-0.8-0.6-0.8c-0.3-0.1-7.3-1.4-7.3-8.3c0.3-1.5,0.7-2.9,1.3-4.3c0,0,0,0,0,0c1.5-3.9,5.2-6.7,9-7.1
			c2.8-0.3,5.1,0.7,6.5,2.9c1,1.6,1.3,3.1,1,4.5c-0.8,3-4.5,4.9-4.6,4.9c-0.3,0.1-0.5,0.5-0.4,0.8c0.1,0.3,0.3,0.6,0.7,0.6
			c0.1,0,0.5,0,1.2,0c2.9,0,10.1-0.6,11.5-6.7c0.9-3.8-0.5-7.9-3.6-10.5c-1.8-1.5-4-2.4-6.4-2.5c4.5-1.1,8.8-0.5,12.4,2
			c4.7,3.2,7.5,9.2,6.2,13.6c-2.2,7.9-10.7,8.4-11,8.4c-0.3,0-0.6,0.2-0.6,0.5c-0.1,0.3,0,0.6,0.2,0.8c0.1,0.1,2.4,2,7,2
			c2.6,0,6.6-1.1,9.5-4.1c2.4-2.5,3.5-5.7,3.3-9.5c-0.3-7.3-4.9-14.3-11.5-17.2c-3.1-1.4-8.6-2.8-15.7,0c5.1-3.3,10.4-5.4,14.7-5.8
			c13.1-1.2,17.9,8.3,18.1,8.7c0.1,0.3,0.4,0.4,0.8,0.4c0.3,0,0.6-0.3,0.6-0.6c0-0.1,1.6-11-9.2-15.7c-4.5-2-9.5-1.6-14-0.3
			c1.7-0.8,3.5-1.6,5.4-2.4c8-2.6,15.3-1.7,20.6,2.5c4.9,3.9,7.6,10.2,7.1,16.6c-0.9,10.5-9.9,11.8-11.7,12c-2-2.3-3-5.4-2.9-8.7
			c0-0.4-0.3-0.7-0.7-0.8c-0.4-0.1-0.7,0.3-0.8,0.7c-0.2,3.9,1.1,7.4,3.5,10c0,0,0,0,0,0c0,0,0.1,0.1,0.1,0.1c2.1,2.2,5,3.5,7.9,3.5
			c1.8,0,4.6-0.2,7.4-1.3c-0.6,1.9-1.1,5.1,0.8,6.9c2.1,2.1,6.4,4.9,19,4.9c3.1,0,5.9-0.2,8.4-0.7c0,0,0.1,0,0.1,0c0,0,0.1,0,0.1,0
			c0,0,0,0,0.1,0c3.4-0.7,6.4-1.9,8.9-3.6c2.9-1.8,5.9-3.3,8.7-4.4c0,0,0,0,0,0c6.8-2.3,10.7-0.3,12.1,2.1c0.9,1.7,0.7,3.6-0.5,4.6
			c-2.5,2-4.8-0.4-4.9-0.5c-0.3-0.3-0.7-0.3-1,0c-0.3,0.3-0.3,0.7,0,1c0.7,0.8,2.2,1.7,3.9,1.7c1,0,2-0.3,3-1.1
			c1.8-1.5,2.2-4.1,0.9-6.4c-0.9-1.7-2.7-3.1-5.4-3.7c5.6-1,10-0.3,11.7,1.8c3.1,3.9,1.3,8,1.2,8.2c-0.1,0.2-0.1,0.5,0,0.7
			c0.1,0.2,0.3,0.3,0.6,0.4c0,0,0.1,0,0.3,0c0.8,0,2.9-0.1,4.4-1.6c1.2-1.1,1.8-2.6,1.8-4.6C530.7,334.5,529.6,332,527.5,330z
			 M445.6,274.7c-0.3-2.9-1.3-5-3.1-6.2c-1.6-1.1-3.3-1.3-4.4-1.3c0.4-1,1.3-1.8,2.6-2.5c1.7-0.8,3.5-0.7,5,0.4
			c2.2,1.5,4.3,5.3,3.6,11.4c-0.4,4.1-3.2,8.2-7.7,11.6C444.7,284.2,446.1,279.5,445.6,274.7z M336.9,276.4
			c-0.6-6.1,1.5-9.9,3.6-11.4c1.5-1.1,3.3-1.2,5-0.4c1.3,0.6,2.2,1.5,2.6,2.5c-1.1,0-2.9,0.2-4.4,1.3c-1.7,1.3-2.8,3.4-3.1,6.2
			c-0.5,4.9,0.9,9.6,3.9,13.4C340.2,284.6,337.3,280.5,336.9,276.4z M262.8,333.4c-2.7,3.4-2.3,6.9-1.8,8.6
			c-0.8-0.1-1.8-0.4-2.7-1.2c-0.9-0.8-1.3-2-1.3-3.5c0-2.4,0.9-4.5,2.7-6.2c2.1-2,5.1-3.1,8.2-3.1c0.3,0,0.6,0,0.9,0
			c4.8,0.3,8.8,2,13.4,4.7C273.7,329.8,265.7,329.8,262.8,333.4z M284.9,326.6c-2.1-5.9-0.1-12.9,4.5-15.7c1.2-0.8,2.6-1.1,4-1.1
			c2,0,4.1,0.8,6.2,2.3c-2.9-0.7-7-0.7-10.6,2.5c-2.5,2.3-3.8,5.7-3.7,9.6c0,2,0.4,4,1.1,6C285.9,329.1,285.4,327.9,284.9,326.6z
			 M286.8,324.2c-0.1-3.5,1.1-6.6,3.3-8.5c3.1-2.8,6.5-2.9,9.1-2.3c-2.1,0.2-4.8,1-7.1,2.9c-3.3,2.6-4.8,8.4-3.6,13.8
			c0.2,0.7,0.4,1.6,0.7,2.4C287.7,329.9,286.8,327,286.8,324.2z M299.3,337.7c-2.3-2.3-3.4-5.5-3-8.9c0.5-5.3,3.8-7.3,6-8.1
			c-1.4,2.2-3.3,6.3-1.7,12c1.2,4.4,4.6,7.6,8.8,8.7C304.1,341.4,301,339.5,299.3,337.7z M327.7,337.5c-1.7,1.7-5,3.9-13.9,4.4
			c0.3-0.1,0.6-0.2,0.9-0.3c0.1,0,0.1,0,0.2,0c0.2,0,0.3-0.1,0.4-0.2c2.7-1,5-2.3,6.9-3.8c0.1,0,0.1-0.1,0.2-0.1
			c0.1-0.1,0.2-0.2,0.3-0.3c2.6-2.1,4.4-4.2,5.4-5.5C328.6,333.6,329,336.2,327.7,337.5z M330.9,316.1c0.6,7.4,5,10.7,8.6,12.2
			c-3-0.3-5.9-1.5-8.1-3.5c-3.1-2.8-4.5-6.8-4-11.3c0.7-6.3,4.9-11.8,10.9-15C333.2,302.7,330.4,309.4,330.9,316.1z M325.9,313.4
			c-0.5,5,1.1,9.4,4.5,12.5c2.8,2.6,6.6,4,10.6,4c0.4,0,0.7,0,1.1-0.1c-1.6,1.1-3.4,1.7-5.2,1.7c-4.4,0-14.8-1.4-15.5-14.6
			c-0.3-6.6,3.3-13.6,9.3-18c4.8-3.5,10.6-5,17-4.7C336.4,295.3,327,303.3,325.9,313.4z M398.7,268.2c3.3-2,7.3-1.9,11.3,0.2
			c2.2,1.2,3.9,3.1,5.2,5.5c-1.4-1.6-3.1-2.8-5.2-3.5c-3.9-1.4-8-0.7-10.8,1.8c-3.8,3.4-3.3,6.9-2.5,8.9c-2-1-2.8-3.4-2.8-5.5
			C393.9,273,395.9,269.9,398.7,268.2z M405.7,249.5c2.9-2,5.9-3,8.8-3c1.4,0,2.8,0.2,4.1,0.7c6.8,2.6,8,7.9,8.1,11
			c-1.7-2.6-5.4-6.7-12.4-7.7c-3.9-0.5-8.2,0.8-12.1,3.8c-1.7,1.3-3.2,2.8-4.6,4.5c0.9-1.8,2-3.4,3.2-4.9c0,0,0,0,0,0c0,0,0,0,0,0
			c0.1-0.1,0.2-0.3,0.3-0.4c0,0,0.1,0,0.1-0.1c0.1-0.1,0.1-0.1,0.1-0.2C402.8,251.9,404.2,250.6,405.7,249.5z M400.9,229.5
			c2.5,0.2,4.5,1.6,5.5,3.9c1,2.2,1,4.9,0.1,8c-0.1-1.4-0.4-2.8-1-4.1c-1.1-2.5-3.1-4.2-5.2-4.7c-0.8-0.2-1.5-0.3-2.2-0.3
			c-1.6,0-2.9,0.4-3.8,0.8C395.1,231.5,396.8,229.2,400.9,229.5z M379.8,241.3c-0.9-3.1-0.9-5.8,0.1-8c1-2.3,3-3.7,5.5-3.9
			c0.2,0,0.4,0,0.6,0c3.7,0,5.3,2.1,5.9,3.6c-1.3-0.6-3.4-1.2-5.9-0.6c-2.1,0.5-4,2.3-5.2,4.7C380.2,238.5,379.9,239.9,379.8,241.3z
			 M384.1,254.5c-3.4-2.6-7.1-3.9-10.5-3.9c-0.6,0-1.1,0-1.7,0.1c-7,1-10.7,5.1-12.4,7.7c0.1-3.1,1.3-8.4,8.1-11
			c3.9-1.5,8.6-0.7,12.9,2.2c1.6,1.1,3,2.3,4.3,3.8c0.1,0.1,0.1,0.1,0.2,0.2c0,0,0.1,0,0.1,0.1c0.1,0.1,0.2,0.3,0.3,0.4c0,0,0,0,0,0
			c0,0,0,0,0,0c1.2,1.5,2.3,3.1,3.2,4.9C387.3,257.3,385.8,255.8,384.1,254.5z M386.6,253.2c-1.7-3.1-3.1-7.2-0.9-10.1
			c1.9-2.5,5.3-2.9,5.3-2.9c0.4,0,0.7-0.4,0.6-0.8c0-0.4-0.4-0.7-0.8-0.6c-0.2,0-4,0.5-6.3,3.4c-1.4,1.8-1.8,4-1.2,6.7
			c-0.3-0.5-0.7-1-1-1.5c-1.5-3.1-1.6-6.6-0.3-9.4c1-2.1,2.5-3.5,4.2-3.9c3.7-0.9,6.2,1.2,6.3,1.3c0,0,0.1,0,0.1,0c0,0,0,0,0.1,0.1
			c0,0,0.1,0,0.1,0c0.1,0,0.1,0,0.2,0c0.1,0,0.1,0,0.2,0c0,0,0.1,0,0.1,0c0,0,0,0,0.1-0.1c0,0,0.1,0,0.1,0c0.1-0.1,2.6-2.2,6.3-1.3
			c1.7,0.4,3.2,1.9,4.2,3.9c1.3,2.9,1.2,6.3-0.3,9.4c-0.3,0.5-0.6,1-1,1.6c0.6-2.7,0.2-4.9-1.2-6.7c-2.3-2.9-6.1-3.4-6.3-3.4
			c-0.4-0.1-0.8,0.2-0.8,0.6c0,0.4,0.2,0.8,0.6,0.8c0,0,3.4,0.4,5.3,2.9c2.3,2.9,0.8,7.1-0.9,10.1c-3.2,4-5.5,9.1-6.6,14.8
			C392.1,262.3,389.8,257.2,386.6,253.2z M376.3,268.5c4-2.1,8-2.2,11.3-0.2c2.8,1.7,4.8,4.7,4.8,7.4c0,2.2-0.8,4.5-2.8,5.5
			c0.8-2,1.3-5.5-2.5-8.9c-2.8-2.5-6.9-3.2-10.8-1.8c-2,0.7-3.7,1.9-5.1,3.5C372.4,271.5,374.1,269.6,376.3,268.5z M369,281.7
			c0.9-4.8,3.7-8.4,7.7-9.8c3.3-1.2,7-0.6,9.3,1.5c4.1,3.7,2.3,7.3,1.7,8.3c-3.2,0.3-4.8-1.5-4.9-1.6c-0.2-0.3-0.7-0.4-1-0.1
			c-0.3,0.2-0.4,0.7-0.1,1c0.1,0.1,2.1,2.6,6.4,2.1l0,0c0,0,0,0,0,0c0,0,0.1,0,0.1,0c2.6-0.3,4.1-1.9,4.9-3.9
			c0.8,1.9,2.3,3.5,4.9,3.9c0,0,0.1,0,0.1,0l0,0l0,0c4.2,0.5,6.3-2,6.4-2.1c0.2-0.3,0.2-0.8-0.1-1c-0.3-0.3-0.8-0.2-1,0.1
			c-0.1,0.1-1.6,1.9-4.9,1.6c-0.6-1-2.5-4.6,1.7-8.3c2.3-2.1,6-2.7,9.3-1.5c4,1.4,6.8,5,7.7,9.8c0.6,7.2-2,14.8-7,21.4
			c1.6-3.3,2.8-7,2.8-10.4c0.1-9.5-5.1-13.2-5.3-13.3c-0.3-0.2-0.8-0.1-1,0.2c-0.2,0.3-0.1,0.8,0.2,1c0,0,4.7,3.4,4.7,12.1
			c0,5.2-3,11.3-6.3,15.6c2.3-7,0.2-14-2.9-16.9c-2.1-2-4.7-2.6-7-1.6c-1.1,0.5-1.9,1.2-2.4,2.1c-0.5-0.9-1.4-1.7-2.4-2.1
			c-2.3-1-4.9-0.4-7,1.6c-3.1,2.9-5.2,9.9-2.9,16.9c-3.3-4.3-6.2-10.4-6.3-15.6c0-8.7,4.6-12.1,4.7-12.1c0.3-0.2,0.4-0.7,0.2-1
			c-0.2-0.3-0.7-0.4-1-0.2c-0.2,0.2-5.4,3.8-5.3,13.3c0,3.5,1.2,7.1,2.8,10.4C371,296.5,368.5,288.9,369,281.7z M363,317
			c-5.3,3.6-8.3,10.1-6.8,15.2c1.8,6.3,7.1,8.4,10.2,9.1c-1,0.4-2.4,0.7-4.3,0.7c-2.3,0-5.9-1-8.5-3.6c-2.1-2.2-3.1-5-2.9-8.5
			c0.3-6.8,4.5-13.2,10.6-16c2.2-1,4.5-1.5,7-1.5c3.5,0,7.1,1,10.7,3C371.1,312.7,365.5,315.4,363,317z M382.2,320.8
			c-3.3-0.3-6.1,0.9-7.8,3.5c-1.3,1.9-1.7,3.8-1.1,5.7c0.5,1.9,1.9,3.4,3.2,4.4c-3-0.2-7.8-1.2-8.8-5.5c-0.8-3.2,0.5-6.8,3.1-9
			c1.7-1.5,5.5-3.6,11.4-1.2c1.3,0.7,2.6,1.6,3.9,2.6c0,0,0.1,0,0.1,0c0.3,0.4,0.7,0.8,1,1.2C385.7,321.6,384,321,382.2,320.8z
			 M361.8,305.4c-10.3-1-15.9,4.4-18.3,7.5c0.2-3.2,1.5-8.9,8.4-12c8.6-3.8,19.1,1.6,24.3,5.4c6.9,5.7,11.3,12.2,13.7,17.7
			C383.3,313.8,370.4,306.2,361.8,305.4z M393.2,328.7c-1.2-4.5-3.8-10.4-8.5-16.1c-5.2-7.6-3.5-16.8,0.1-20.2
			c1.7-1.6,3.7-2.1,5.4-1.3c1.4,0.6,2.3,1.9,2.2,3.4c0,3.2-3,3.8-3.1,3.8c-0.4,0.1-0.6,0.5-0.6,0.8c0.1,0.4,0.5,0.6,0.8,0.6
			c1-0.2,2.7-1,3.6-2.6c0.9,1.6,2.6,2.4,3.6,2.6c0.4,0.1,0.8-0.2,0.8-0.6s-0.2-0.8-0.6-0.8c-0.1,0-3.1-0.7-3.1-3.8
			c0-1.5,0.9-2.7,2.2-3.4c1.7-0.8,3.8-0.3,5.4,1.3c3.6,3.4,5.3,12.7,0.1,20.2C397,318.3,394.3,324.1,393.2,328.7z M415.5,319.9
			c2.7,2.3,3.9,5.8,3.1,9c-1,4.2-5.8,5.3-8.8,5.5c1.2-1,2.6-2.5,3.2-4.4c0.5-1.9,0.1-3.8-1.1-5.7c-1.7-2.6-4.5-3.8-7.8-3.5
			c-1.7,0.2-3.4,0.8-5,1.8c0.3-0.4,0.7-0.8,1-1.2c0,0,0.1,0,0.1,0c1.3-1,2.6-1.9,3.9-2.6C410,316.3,413.8,318.4,415.5,319.9z
			 M425,314c6.1,2.7,10.3,9.1,10.6,16c0.1,3.4-0.8,6.3-2.9,8.5c-2.6,2.7-6.2,3.6-8.5,3.6c-1.9,0-3.3-0.4-4.3-0.7
			c3.1-0.7,8.4-2.8,10.2-9.1c1.4-5.1-1.5-11.6-6.8-15.2c-2.4-1.6-8.1-4.4-15.9-1.5C413.5,312.1,419.6,311.6,425,314z M434.4,300.9
			c7,3.1,8.3,8.9,8.4,12c-2.3-3.1-8-8.5-18.3-7.5c-8.6,0.8-21.5,8.4-28.2,18.6c2.4-5.5,6.8-12,13.8-17.7
			C415.3,302.5,425.8,297.1,434.4,300.9z M455.4,316.1c0.5-6.7-2.3-13.4-7.4-17.6c6,3.2,10.2,8.7,10.9,15c0.5,4.5-1,8.5-4,11.3
			c-2.2,2-5.1,3.2-8.1,3.5C450.4,326.8,454.8,323.5,455.4,316.1z M449.4,331.5c-1.8,0-3.6-0.6-5.2-1.7c0.4,0,0.7,0.1,1.1,0.1
			c3.9,0,7.7-1.4,10.6-4c3.4-3.1,5-7.5,4.5-12.5c-1.1-10.1-10.5-18.1-21.8-19.2c6.4-0.3,12.3,1.2,17.1,4.7c6,4.3,9.7,11.4,9.3,18
			C464.2,330,453.8,331.5,449.4,331.5z M458.6,337.5c-1.3-1.3-0.9-4-0.3-5.7c0.9,1.3,2.7,3.4,5.4,5.5c0.1,0.1,0.2,0.2,0.3,0.3
			c0.1,0,0.1,0.1,0.2,0.1c1.9,1.4,4.2,2.8,6.9,3.8c0.1,0.1,0.2,0.2,0.4,0.2c0.1,0,0.1,0,0.2,0c0.3,0.1,0.6,0.2,0.9,0.3
			C463.6,341.4,460.3,339.2,458.6,337.5z M485.7,332.6c1.5-5.6-0.3-9.8-1.7-12c2.2,0.8,5.5,2.8,6,8.1c0.3,3.4-0.8,6.6-3,8.9
			c-1.7,1.7-4.8,3.7-10.1,3.5C481.2,340.2,484.5,337.1,485.7,332.6z M496.9,310.8c4.6,2.8,6.6,9.9,4.5,15.7c-0.5,1.3-1,2.5-1.6,3.6
			c0.7-2,1.1-4,1.1-6c0.1-4-1.2-7.4-3.7-9.6c-3.6-3.3-7.7-3.2-10.6-2.5C490.2,309.4,493.8,309,496.9,310.8z M494.3,316.2
			c-2.3-1.9-4.9-2.7-7-2.9c2.5-0.5,5.9-0.5,9,2.3c2.2,2,3.3,5,3.3,8.5c-0.1,2.8-0.9,5.7-2.3,8.3c0.3-0.9,0.6-1.7,0.7-2.4
			C499.1,324.7,497.6,318.9,494.3,316.2z M527.9,340.8c-0.8,0.8-1.9,1.1-2.7,1.2c0.5-1.7,0.9-5.2-1.8-8.6c-1.5-1.9-4.4-2.8-8-2.8
			c-3.3,0-7.3,0.7-11.4,2.2c4.6-2.7,8.6-4.4,13.4-4.7c3.4-0.2,6.8,0.9,9.1,3c1.8,1.7,2.8,3.8,2.7,6.2
			C529.2,338.8,528.8,340,527.9,340.8z"/>
		<path id="XMLID_349_" class="st2" d="M530.7,463.1c0-2-0.6-3.5-1.8-4.6c-1.6-1.4-3.7-1.6-4.4-1.6c-0.2,0-0.3,0-0.3,0
			c-0.2,0-0.4,0.2-0.6,0.4c-0.1,0.2-0.1,0.5,0,0.7c0.1,0.2,1.9,4.2-1.2,8.2c-1.7,2.1-6.1,2.8-11.7,1.8c2.7-0.5,4.5-2,5.4-3.7
			c1.3-2.3,0.9-4.9-0.9-6.4c-1-0.8-2.1-1.1-3-1.1c-1.7,0-3.1,1-3.9,1.7c-0.3,0.3-0.3,0.7,0,1c0.3,0.3,0.7,0.3,1,0
			c0.1-0.1,2.4-2.5,4.9-0.5c1.2,1,1.5,2.9,0.5,4.6c-1.4,2.4-5.3,4.5-12.1,2.1c0,0,0,0,0,0c-2.8-1.1-5.8-2.5-8.7-4.4
			c-2.5-1.7-5.4-2.9-8.9-3.6c0,0,0,0-0.1,0c0,0-0.1,0-0.1,0c0,0-0.1,0-0.1,0c-2.5-0.5-5.3-0.7-8.4-0.7c-12.5,0-16.8,2.8-19,4.9
			c-1.9,1.8-1.3,5-0.8,6.9c-2.8-1.1-5.6-1.3-7.4-1.3c-2.9,0-5.7,1.3-7.9,3.5c0,0-0.1,0.1-0.1,0.1c0,0,0,0,0,0
			c-2.4,2.6-3.7,6.2-3.5,10c0,0.4,0.4,0.7,0.8,0.7c0.4,0,0.7-0.4,0.7-0.8c-0.2-3.4,0.9-6.4,2.9-8.7c1.9,0.2,10.9,1.5,11.7,12
			c0.5,6.4-2.2,12.7-7.1,16.6c-5.3,4.2-12.6,5.1-20.6,2.5c-1.9-0.7-3.7-1.5-5.4-2.4c4.6,1.3,9.5,1.7,14-0.3
			c10.8-4.8,9.2-15.6,9.2-15.7c0-0.3-0.3-0.6-0.6-0.6c-0.3-0.1-0.6,0.1-0.8,0.4c-0.2,0.4-5.1,9.9-18.1,8.7
			c-4.3-0.4-9.6-2.5-14.7-5.8c7,2.8,12.5,1.4,15.7,0c6.6-3,11.2-9.9,11.5-17.2c0.2-3.9-1-7.1-3.3-9.5c-2.9-3-6.9-4.1-9.5-4.1
			c-4.6,0-6.9,1.9-7,2c-0.2,0.2-0.3,0.5-0.2,0.8c0.1,0.3,0.4,0.5,0.6,0.5c0.4,0,8.8,0.5,11,8.4c1.3,4.4-1.5,10.4-6.2,13.6
			c-3.6,2.4-7.9,3.1-12.4,2c2.4-0.2,4.6-1,6.4-2.5c3.1-2.6,4.5-6.7,3.6-10.5c-1.4-6-8.6-6.7-11.5-6.7c-0.7,0-1.1,0-1.2,0
			c-0.3,0-0.6,0.3-0.7,0.6c-0.1,0.3,0.1,0.6,0.4,0.8c0,0,3.7,1.8,4.6,4.9c0.4,1.4,0.1,3-1,4.5c-1.4,2.1-3.7,3.1-6.5,2.9
			c-3.9-0.4-7.5-3.3-9-7.1c0,0,0,0,0,0c-0.6-1.4-1-2.8-1.3-4.3c0-6.9,7-8.3,7.3-8.3c0.4-0.1,0.7-0.5,0.6-0.8
			c-0.1-0.3-0.4-0.6-0.7-0.6c0,0-0.1,0-0.1,0c-0.1,0-5.7,1.1-7.8,6c-2-4.9-7.7-6-7.8-6c0,0-0.1,0-0.1,0c-0.3,0-0.6,0.2-0.7,0.6
			c-0.1,0.4,0.2,0.8,0.6,0.8c0.3,0.1,7.3,1.5,7.3,8.4c-0.3,1.5-0.7,2.9-1.3,4.3c0,0,0,0,0,0c-1.5,3.9-5.2,6.7-9,7.1
			c-2.8,0.3-5.1-0.7-6.5-2.9c-1-1.6-1.3-3.1-1-4.5c0.8-3,4.5-4.8,4.6-4.9c0.3-0.1,0.5-0.5,0.4-0.8c-0.1-0.3-0.3-0.6-0.7-0.6
			c-0.1,0-0.5,0-1.2,0c-2.9,0-10.1,0.6-11.5,6.7c-0.9,3.8,0.5,7.9,3.6,10.5c1.8,1.5,4,2.4,6.4,2.5c-4.5,1.1-8.8,0.5-12.4-2
			c-4.7-3.2-7.5-9.2-6.2-13.6c2.2-7.9,10.9-8.4,11-8.4c0.3,0,0.6-0.2,0.7-0.5c0.1-0.3,0-0.6-0.2-0.8c-0.1-0.1-2.4-2-7-2
			c-2.6,0-6.6,1.1-9.5,4.1c-2.4,2.5-3.5,5.7-3.3,9.5c0.3,7.3,4.9,14.3,11.5,17.2c3.1,1.4,8.6,2.8,15.7,0c-5.1,3.3-10.4,5.4-14.7,5.8
			c-13.1,1.2-18.1-8.6-18.1-8.7c-0.1-0.3-0.4-0.4-0.8-0.4c-0.3,0-0.6,0.3-0.6,0.6c0,0.1-1.6,11,9.2,15.7c4.5,2,9.5,1.6,14,0.3
			c-1.7,0.8-3.5,1.7-5.4,2.4c-8,2.6-15.3,1.7-20.6-2.5c-4.9-3.9-7.6-10.2-7.1-16.6c0.9-10.5,9.9-11.8,11.7-12c2,2.3,3,5.4,2.9,8.7
			c0,0.4,0.3,0.7,0.7,0.8c0.4,0.1,0.7-0.3,0.8-0.7c0.2-3.9-1.1-7.4-3.5-10c0,0,0,0,0,0c0,0-0.1-0.1-0.1-0.1c-2.1-2.2-5-3.5-7.9-3.5
			c-1.8,0-4.6,0.2-7.4,1.3c0.6-1.9,1.1-5.1-0.8-6.9c-2.1-2.1-6.4-4.9-19-4.9c-3.1,0-5.8,0.2-8.4,0.7c0,0-0.1,0-0.1,0
			c0,0-0.1,0-0.1,0c0,0,0,0-0.1,0c-3.4,0.7-6.4,1.9-8.9,3.6c-2.9,1.8-5.9,3.3-8.7,4.4c0,0,0,0,0,0c-6.7,2.3-10.7,0.3-12.1-2.1
			c-0.9-1.7-0.7-3.6,0.5-4.6c2.5-2,4.8,0.4,4.9,0.5c0.3,0.3,0.7,0.3,1,0c0.3-0.3,0.3-0.7,0-1c-0.7-0.8-2.2-1.7-3.9-1.7
			c-1,0-2,0.3-3,1.1c-1.8,1.5-2.2,4.1-0.9,6.4c0.9,1.7,2.7,3.1,5.4,3.7c-5.6,1-10,0.3-11.7-1.8c-3.1-3.9-1.3-8-1.2-8.2
			c0.1-0.2,0.1-0.5,0-0.7c-0.1-0.2-0.3-0.3-0.6-0.4c0,0-0.1,0-0.3,0c-0.8,0-2.9,0.1-4.4,1.6c-1.2,1.1-1.8,2.6-1.8,4.6
			c0,2.8,1.1,5.3,3.2,7.3c2.6,2.4,6.4,3.7,10.2,3.4c6.4-0.4,11.6-3.3,18.1-7.4c-1.4,2-2.6,4.3-3.6,7c-2.3,6.5,0,14.3,5.1,17.5
			c4.5,2.8,10,1.3,15-4c0,0,0,0,0,0c0.1-0.1,0.1-0.2,0.2-0.4c0,0,0,0,0-0.1c0-0.1,0-0.2-0.1-0.4c0,0,0,0,0,0c0,0,0,0,0,0
			c0,0,0,0,0,0c-0.1-0.1-0.2-0.2-0.3-0.2c0,0-0.1,0-0.1,0c-0.1,0-0.3-0.1-0.4,0c0,0,0,0,0,0c-0.1,0-5.7,1.1-10.1-2.5
			c-2.8-2.3-4.2-7.6-3.1-12.4c0.7-3.3,3.1-9.1,11.6-11.5c0.2,0,0.4-0.1,0.6-0.1c0.1,0,0.1,0,0.2,0c-1.6,0.8-2.9,1.7-3.8,2.6
			c-2.6,2.6-3.8,6.3-3.5,10.1c0.9,9,9.2,9.9,9.3,9.9c0.3,0,0.6-0.1,0.7-0.4c0.1-0.3,0.1-0.6-0.1-0.8c-0.2-0.2-4.8-4.8-2.7-12.2
			c1.5-5.4,6.6-8.6,12.6-7.9c0.8,0.3,1.6,0.6,2.3,1c-0.4,0-0.8-0.1-1.3-0.1c-3.3,0-6.1,1.3-7.8,3.1c-2,2.2-3,5.2-2.5,7.9
			c0.4,2.1,1.6,3.8,3.4,4.7c1.9,0.9,3.6,1.1,5,0.6c2.1-0.8,3-2.8,3-2.9c0.2-0.4,0-0.8-0.4-0.9c-0.4-0.2-0.8,0-0.9,0.4
			c0,0-0.7,1.5-2.2,2.1c-1.1,0.4-2.4,0.2-3.9-0.5c-1.4-0.7-2.3-2-2.6-3.6c-0.4-2.3,0.4-4.8,2.1-6.6c2.4-2.5,7.2-3.9,12.7-1.1
			c3,2.3,4.9,4.7,5.6,5.8c-3.7,2.2-6.9,6.2-7.2,13.6c-0.4,7,3.5,14.6,9.9,19.2c3.5,2.5,10.1,5.8,19.7,4.8
			c-8,4.1-13.4,10.2-14.1,16.3c-0.6,5.6,1,10.5,4.2,12.7c2,1.4,4.3,1.5,6.5,0.5c1.9-0.9,3.1-2.3,3.6-3.9c0-0.1,0-0.3,0.1-0.4
			c0-0.1,0-0.1,0-0.2c0.4-2.6-1.2-5-1.2-5.1c-0.2-0.3-0.7-0.4-1-0.2c-0.3,0.2-0.4,0.7-0.2,1c0,0,1.1,1.7,1.1,3.6
			c-0.8,0.1-2.5,0-3.9-1c-1.4-1-2.2-2.8-2.5-5.2c-0.8-7.3,3.2-14.1,10.2-17.8c1.5-0.7,3.1-1.3,4.8-1.8c0,0,0,0,0,0
			c1-0.3,2.1-0.7,3.1-1.1c-3.3,2.9-6.2,6.6-6.8,11.5c-1,8,3.8,11.6,4,11.7c0.3,0.2,0.8,0.2,1-0.2c0.2-0.3,0.2-0.8-0.1-1
			c-0.2-0.1-4.3-3.3-3.4-10.4c0.7-5.5,4.5-10.1,12.1-14.7c2.5-1.3,4.7-2.7,6.8-4.1c-4.6,6.6-6.9,14-6.3,21.1c0,0,0,0,0,0.1
			c0,0,0,0,0,0c0,0.4,0.1,0.8,0.1,1.2c0.8,6,3.7,10.8,7.9,13.1c6,3.2,10.5,1.5,12.7,0.2c1.5-0.9,2.8-2.2,3.8-3.6c0,0.1,0,0.2,0,0.3
			c0,0,0,0,0,0.1c-0.1,0.4-0.1,0.7-0.2,1.1c-1.2,4.3-4.7,8.5-8.7,10.5c-2.1,1.1-5.4,2-9,0.6c-7.7-3.1-6.7-10.7-6.7-11
			c0.1-0.4-0.2-0.8-0.6-0.8c-0.4-0.1-0.8,0.2-0.8,0.6c0,0.1-1.2,9,7.6,12.5c3.3,1.3,6.8,1.1,10.2-0.6c1.3-0.7,2.6-1.6,3.7-2.6
			c-1.2,1.6-2.7,3.1-4.3,4.3c-3.7,2.8-7.6,4-11.1,3.6c-9.4-1.3-12.3-8.8-12.4-9.1c-0.1-0.3-0.4-0.5-0.7-0.5c-0.3,0-0.6,0.3-0.7,0.6
			c0,0.1-2.1,10.9,8.8,15.1c4.4,1.7,9.5,0.8,14.2-2.3c-4.9,8.2-3.7,13.4-2.8,15.5c1.2,2.8,3.7,4.5,6.7,4.7c4.8,0.3,6.9-2.2,7.9-4.3
			c1,2,3.1,4.6,7.9,4.3c3-0.2,5.5-1.9,6.7-4.7c0.9-2.1,2.1-7.3-2.8-15.5c4.6,3.2,9.8,4,14.2,2.3c10.9-4.2,8.8-15,8.8-15.1
			c-0.1-0.3-0.3-0.5-0.7-0.6c-0.3,0-0.6,0.2-0.7,0.5c-0.1,0.3-3,7.8-12.4,9.1c-3.5,0.5-7.4-0.8-11.1-3.6c-1.6-1.2-3.1-2.7-4.3-4.3
			c1.2,1,2.4,1.9,3.7,2.6c3.4,1.7,7,1.9,10.2,0.6c8.8-3.5,7.6-12.4,7.6-12.5c-0.1-0.4-0.4-0.7-0.8-0.6c-0.4,0.1-0.7,0.4-0.6,0.8
			c0,0.3,1,7.9-6.7,11c-3.6,1.5-6.9,0.5-9-0.6c-4-2-7.5-6.2-8.7-10.5c-0.1-0.4-0.2-0.7-0.2-1.1c0,0,0,0,0-0.1c0-0.1,0-0.2,0-0.3
			c1,1.4,2.2,2.7,3.8,3.6c2.2,1.3,6.8,3,12.7-0.2c4.2-2.3,7.1-7,7.9-13.1c0.1-0.4,0.1-0.8,0.1-1.2c0,0,0,0,0-0.1c0,0,0,0,0-0.1
			c0.5-7.1-1.7-14.5-6.3-21.1c2.1,1.5,4.3,2.9,6.8,4.1c7.6,4.6,11.5,9.2,12.1,14.7c0.9,7.1-3.4,10.4-3.4,10.4
			c-0.3,0.2-0.4,0.7-0.2,1c0.2,0.3,0.7,0.4,1,0.2c0.2-0.1,5-3.8,4-11.7c-0.6-4.9-3.5-8.6-6.8-11.5c1.1,0.4,2.1,0.8,3.1,1.1
			c0,0,0,0,0,0c1.7,0.5,3.3,1.1,4.8,1.8c7.1,3.7,11,10.5,10.2,17.8c-0.3,2.4-1.1,4.2-2.5,5.2c-1.4,1-3.1,1.1-3.9,1
			c-0.1-1.9,1.1-3.6,1.1-3.6c0.2-0.3,0.1-0.8-0.2-1c-0.3-0.2-0.8-0.1-1,0.2c-0.1,0.1-1.6,2.5-1.2,5.1c0,0.1,0,0.1,0,0.2
			c0,0.1,0,0.3,0.1,0.4c0.4,1.7,1.6,3,3.6,3.9c2.2,1.1,4.5,0.9,6.5-0.5c3.2-2.2,4.8-7.1,4.2-12.7c-0.6-6.1-6-12.2-14.1-16.3
			c9.6,1,16.2-2.3,19.7-4.8c6.4-4.6,10.3-12.2,9.9-19.2c-0.4-7.4-3.6-11.4-7.2-13.6c0.8-1.1,2.7-3.5,5.7-5.9
			c5.4-2.7,10.2-1.4,12.6,1.2c1.7,1.8,2.5,4.4,2.1,6.6c-0.3,1.7-1.2,3-2.6,3.6c-1.5,0.7-2.8,0.9-3.9,0.5c-1.5-0.6-2.2-2.1-2.2-2.1
			c-0.2-0.4-0.6-0.5-0.9-0.4c-0.4,0.2-0.5,0.6-0.4,0.9c0,0.1,0.9,2.1,3,2.9c1.5,0.6,3.2,0.4,5-0.6c1.8-0.9,3-2.6,3.4-4.7
			c0.5-2.7-0.5-5.7-2.5-7.9c-1.7-1.8-4.5-3.1-7.8-3.1c-0.4,0-0.8,0-1.2,0.1c0.7-0.3,1.5-0.7,2.3-1c5.9-0.7,11.1,2.5,12.5,7.9
			c2.1,7.5-2.5,12-2.7,12.2c-0.2,0.2-0.3,0.5-0.1,0.8c0.1,0.3,0.4,0.4,0.7,0.4c0.1,0,8.4-0.9,9.3-9.9c0.4-3.8-0.9-7.5-3.5-10.1
			c-0.9-0.9-2.1-1.9-3.8-2.6c0.1,0,0.1,0,0.2,0c0.2,0,0.4,0.1,0.6,0.1c8.4,2.4,10.9,8.2,11.6,11.5c1,4.8-0.3,10.1-3.1,12.4
			c-4.5,3.6-10,2.6-10.1,2.5c0,0,0,0,0,0c-0.1,0-0.3,0-0.4,0c0,0-0.1,0-0.1,0c-0.1,0.1-0.2,0.1-0.3,0.2c0,0,0,0,0,0c0,0,0,0,0,0
			c0,0,0,0,0,0c-0.1,0.1-0.1,0.2-0.1,0.4c0,0,0,0,0,0.1c0,0.1,0.1,0.2,0.2,0.3c0,0,0,0,0,0c5,5.3,10.5,6.8,15,4
			c5.1-3.1,7.4-11,5.1-17.5c-1-2.7-2.1-5-3.6-7c6.5,4.1,11.7,7,18.1,7.4c3.8,0.3,7.6-1,10.2-3.4
			C529.6,468.4,530.7,465.9,530.7,463.1z M441.7,512.4c4.4,3.4,7.3,7.5,7.7,11.6c0.6,6.1-1.5,9.9-3.6,11.4c-1.5,1.1-3.3,1.2-5,0.4
			c-1.3-0.6-2.2-1.5-2.6-2.5c1.1,0,2.9-0.2,4.4-1.3c1.7-1.3,2.8-3.4,3.1-6.2C446.1,520.9,444.7,516.2,441.7,512.4z M344.6,512.4
			c-3,3.8-4.4,8.5-3.9,13.4c0.3,2.9,1.3,5,3.1,6.2c1.6,1.1,3.3,1.3,4.4,1.3c-0.4,1-1.3,1.8-2.6,2.5c-1.7,0.8-3.5,0.7-5-0.4
			c-2.2-1.5-4.3-5.3-3.6-11.4C337.3,520,340.2,515.8,344.6,512.4z M282.3,467.7c-4.6,2.7-8.6,4.4-13.4,4.7c-0.3,0-0.6,0-0.9,0
			c-3.1,0-6.1-1.1-8.2-3.1c-1.8-1.7-2.8-3.8-2.7-6.2c0-1.5,0.5-2.7,1.3-3.5c0.8-0.8,1.9-1.1,2.7-1.2c-0.5,1.7-0.9,5.2,1.8,8.6
			C265.7,470.7,273.7,470.7,282.3,467.7z M286.5,470.3c-0.7,2-1.1,4-1.1,6c-0.1,4,1.2,7.4,3.7,9.6c3.6,3.3,7.7,3.2,10.6,2.5
			c-2.1,1.5-4.2,2.3-6.2,2.3c-1.4,0-2.7-0.4-4-1.1c-4.6-2.8-6.6-9.9-4.5-15.7C285.4,472.6,285.9,471.4,286.5,470.3z M289.1,468
			c-0.3,0.9-0.6,1.7-0.7,2.4c-1.1,5.4,0.4,11.2,3.6,13.8c2.4,1.9,5,2.7,7.1,2.9c-2.5,0.6-6,0.5-9.1-2.3c-2.2-2-3.3-5-3.3-8.5
			C286.8,473.5,287.7,470.6,289.1,468z M309.4,459.2c-4.3,1.1-7.6,4.2-8.8,8.7c-1.5,5.6,0.3,9.8,1.7,12c-2.2-0.8-5.5-2.8-6-8.1
			c-0.3-3.4,0.8-6.6,3-8.9C301,461,304.1,459,309.4,459.2z M328.1,468.7c-0.9-1.3-2.7-3.4-5.4-5.5c-0.1-0.1-0.2-0.2-0.3-0.3
			c-0.1,0-0.1-0.1-0.2-0.1c-1.9-1.4-4.2-2.7-6.9-3.8c-0.1-0.1-0.2-0.2-0.4-0.2c-0.1,0-0.1,0-0.2,0c-0.3-0.1-0.6-0.2-0.9-0.3
			c8.9,0.5,12.2,2.7,13.9,4.4C329,464.3,328.6,466.9,328.1,468.7z M338.3,502c-6-3.2-10.2-8.7-10.9-15c-0.5-4.5,1-8.5,4-11.3
			c2.2-2,5.1-3.2,8.1-3.5c-3.6,1.5-8,4.8-8.6,12.2C330.4,491.1,333.2,497.8,338.3,502z M347.8,506.3c-6.4,0.3-12.2-1.2-17-4.7
			c-6-4.3-9.7-11.4-9.3-18c0.7-13.2,11.1-14.6,15.5-14.6c1.8,0,3.6,0.6,5.2,1.7c-0.4,0-0.7-0.1-1.1-0.1c-3.9,0-7.7,1.4-10.6,4
			c-3.4,3.1-5,7.5-4.5,12.5C327,497.2,336.4,505.1,347.8,506.3z M393.9,524.8c0-2.2,0.8-4.5,2.8-5.5c-0.8,2-1.3,5.5,2.5,8.9
			c2.8,2.5,6.9,3.2,10.8,1.8c2-0.7,3.7-1.9,5.2-3.5c-1.3,2.4-3,4.3-5.2,5.5c-4,2.1-8,2.2-11.3,0.2
			C395.9,530.5,393.9,527.5,393.9,524.8z M401.5,547.1c-0.1-0.1-0.1-0.1-0.1-0.2c0,0-0.1,0-0.1-0.1c-0.1-0.1-0.2-0.3-0.3-0.4
			c0,0,0,0,0,0c0,0,0,0,0,0c-1.2-1.5-2.3-3.1-3.2-4.9c1.3,1.7,2.8,3.2,4.6,4.5c4,3,8.3,4.4,12.1,3.8c6.9-1,10.6-5.1,12.4-7.7
			c-0.1,3.1-1.3,8.4-8.1,11c-1.3,0.5-2.7,0.7-4.1,0.7c-2.9,0-6-1-8.8-3C404.2,549.8,402.8,548.6,401.5,547.1z M394.4,567.3
			c0.9,0.4,2.2,0.8,3.8,0.8c0.7,0,1.4-0.1,2.2-0.3c2.1-0.5,4-2.3,5.2-4.7c0.6-1.3,0.9-2.7,1-4.1c0.9,3.1,0.9,5.8-0.1,8
			c-1,2.3-3,3.7-5.5,3.9C396.8,571.2,395.1,569,394.4,567.3z M380.8,563.2c1.1,2.5,3.1,4.2,5.2,4.7c2.5,0.6,4.6,0,5.9-0.6
			c-0.7,1.6-2.3,3.6-5.9,3.6c-0.2,0-0.4,0-0.6,0c-2.5-0.2-4.5-1.6-5.5-3.9c-1-2.2-1-4.9-0.1-8C379.9,560.5,380.2,561.9,380.8,563.2z
			 M388.6,541.5c-0.9,1.8-2,3.4-3.2,4.9c0,0,0,0,0,0c0,0,0,0,0,0c-0.1,0.1-0.2,0.3-0.3,0.4c0,0-0.1,0-0.1,0.1
			c-0.1,0.1-0.1,0.1-0.2,0.2c-1.3,1.4-2.7,2.7-4.3,3.8c-4.3,2.9-9,3.8-12.9,2.2c-6.8-2.6-8-7.9-8.1-11c1.7,2.6,5.4,6.8,12.4,7.7
			c0.6,0.1,1.1,0.1,1.7,0.1c3.4,0,7.1-1.4,10.5-3.9C385.8,544.7,387.3,543.2,388.6,541.5z M393.2,532.5c1.1,5.7,3.3,10.8,6.6,14.8
			c1.7,3.1,3.1,7.2,0.9,10.1c-1.9,2.5-5.3,2.9-5.3,2.9c-0.4,0-0.7,0.4-0.6,0.8c0,0.4,0.4,0.7,0.8,0.6c0.2,0,4-0.5,6.3-3.4
			c1.4-1.8,1.8-4,1.2-6.7c0.3,0.5,0.7,1,1,1.6c1.5,3.1,1.6,6.6,0.3,9.4c-1,2.1-2.5,3.5-4.2,3.9c-3.7,0.9-6.2-1.2-6.3-1.3
			c0,0-0.1,0-0.1,0c0,0,0,0-0.1-0.1c0,0-0.1,0-0.1,0c-0.1,0-0.1,0-0.2,0s-0.1,0-0.2,0c0,0-0.1,0-0.1,0c0,0,0,0-0.1,0.1
			c0,0-0.1,0-0.1,0c-0.1,0.1-2.6,2.2-6.3,1.3c-1.7-0.4-3.2-1.9-4.2-3.9c-1.3-2.9-1.2-6.3,0.3-9.4c0.3-0.5,0.6-1,1-1.5
			c-0.6,2.7-0.2,4.9,1.2,6.7c2.3,2.9,6.1,3.4,6.3,3.4c0.4,0.1,0.8-0.2,0.8-0.6c0-0.4-0.2-0.8-0.6-0.8c0,0-3.4-0.4-5.3-2.9
			c-2.3-2.9-0.8-7.1,0.9-10.1C389.8,543.3,392.1,538.2,393.2,532.5z M371.1,526.5c1.4,1.6,3.1,2.8,5.1,3.5c3.9,1.3,8,0.7,10.8-1.8
			c3.8-3.4,3.3-6.9,2.5-8.9c2,1,2.8,3.4,2.8,5.5c0,2.7-2,5.7-4.8,7.4c-3.3,2-7.3,1.9-11.3-0.2C374.1,530.8,372.4,528.9,371.1,526.5z
			 M376,497.4c-1.6,3.3-2.8,7-2.8,10.4c-0.1,9.5,5.1,13.2,5.3,13.3c0.3,0.2,0.8,0.1,1-0.2c0.2-0.3,0.1-0.8-0.2-1
			c0,0-4.7-3.4-4.7-12.1c0-5.2,3-11.3,6.3-15.6c-2.3,7-0.2,14,2.9,16.9c2.1,2,4.7,2.6,7,1.6c1.1-0.5,1.9-1.2,2.4-2.1
			c0.5,0.9,1.4,1.7,2.4,2.1c2.3,1,4.9,0.4,7-1.6c3.1-2.9,5.2-9.9,2.9-16.9c3.3,4.3,6.2,10.4,6.3,15.6c0,8.7-4.6,12.1-4.7,12.1
			c-0.3,0.2-0.4,0.7-0.2,1c0.2,0.3,0.7,0.4,1,0.2c0.2-0.1,5.4-3.8,5.3-13.3c0-3.5-1.2-7.1-2.8-10.4c5,6.6,7.5,14.2,7,21.4
			c-0.9,4.8-3.7,8.4-7.7,9.8c-3.3,1.2-7,0.6-9.3-1.5c-4.2-3.7-2.3-7.3-1.7-8.3c3.2-0.3,4.8,1.5,4.9,1.6c0.3,0.3,0.7,0.4,1,0.1
			c0.3-0.2,0.4-0.7,0.1-1c-0.1-0.1-2.1-2.6-6.4-2.1l0,0l0,0c0,0-0.1,0-0.1,0c-2.6,0.3-4.1,1.9-4.9,3.9c-0.8-1.9-2.3-3.5-4.9-3.9
			c0,0-0.1,0-0.1,0c0,0,0,0,0,0l0,0c-4.2-0.5-6.3,2-6.4,2.1c-0.2,0.3-0.2,0.8,0.1,1c0.3,0.2,0.8,0.2,1-0.1c0.1-0.1,1.6-1.9,4.9-1.6
			c0.6,1,2.5,4.6-1.7,8.3c-2.3,2.1-6,2.7-9.3,1.5c-4-1.4-6.8-5-7.7-9.8C368.5,511.6,371,504,376,497.4z M378.9,484.9
			c-3.6,2-7.2,3-10.7,3c-2.4,0-4.7-0.5-7-1.5c-6.1-2.7-10.3-9.1-10.6-16c-0.1-3.4,0.8-6.3,2.9-8.5c2.6-2.7,6.2-3.6,8.5-3.6
			c1.9,0,3.3,0.3,4.3,0.7c-3.1,0.7-8.4,2.8-10.2,9.1c-1.4,5.1,1.5,11.6,6.8,15.2C365.5,485.1,371.1,487.8,378.9,484.9z M387.2,477.9
			c-0.3,0.4-0.7,0.8-1,1.2c0,0-0.1,0-0.1,0c-1.3,1-2.6,1.9-3.9,2.6c-5.9,2.4-9.7,0.3-11.4-1.2c-2.7-2.3-3.9-5.8-3.1-9
			c1-4.2,5.8-5.3,8.8-5.5c-1.2,1-2.6,2.5-3.2,4.4c-0.5,1.9-0.1,3.8,1.1,5.7c1.7,2.6,4.5,3.8,7.8,3.5
			C384,479.5,385.7,478.8,387.2,477.9z M389.9,476.4c-2.4,5.5-6.8,12-13.7,17.7c-5.1,3.8-15.7,9.2-24.3,5.4c-6.9-3.1-8.2-8.8-8.4-12
			c2.3,3.1,8,8.4,18.3,7.5C370.4,494.2,383.3,486.7,389.9,476.4z M401.7,487.9c5.2,7.6,3.5,16.8-0.1,20.2c-1.7,1.6-3.7,2.1-5.4,1.3
			c-1.4-0.6-2.3-1.9-2.2-3.4c0-3.2,3-3.8,3.1-3.8c0.4-0.1,0.6-0.5,0.6-0.8s-0.4-0.6-0.8-0.6c-1,0.2-2.7,1-3.6,2.6
			c-0.9-1.6-2.6-2.4-3.6-2.6c-0.4-0.1-0.8,0.2-0.8,0.6c-0.1,0.4,0.2,0.8,0.6,0.8c0.1,0,3.1,0.7,3.1,3.8c0,1.5-0.9,2.7-2.2,3.4
			c-1.7,0.8-3.8,0.3-5.4-1.3c-3.6-3.4-5.3-12.7-0.1-20.2c4.7-5.7,7.4-11.6,8.5-16.1C394.3,476.4,397,482.2,401.7,487.9z
			 M404.1,481.8c-1.3-0.7-2.6-1.6-3.9-2.6c0,0-0.1,0-0.1,0c-0.3-0.4-0.7-0.8-1-1.2c1.5,0.9,3.2,1.6,5,1.8c3.3,0.3,6.1-0.9,7.8-3.5
			c1.3-1.9,1.7-3.8,1.1-5.7c-0.5-1.9-1.9-3.4-3.2-4.4c3,0.2,7.8,1.2,8.8,5.5c0.8,3.2-0.5,6.8-3.1,9C413.8,482,410,484.1,404.1,481.8
			z M407.4,484.9c7.8,2.9,13.5,0.1,15.9-1.5c5.3-3.6,8.3-10.1,6.8-15.2c-1.8-6.3-7.1-8.4-10.2-9.1c1-0.4,2.4-0.7,4.3-0.7
			c2.3,0,5.9,1,8.5,3.6c2.1,2.2,3.1,5,2.9,8.5c-0.3,6.8-4.5,13.2-10.6,16C419.6,488.9,413.5,488.3,407.4,484.9z M410.1,494.2
			c-6.9-5.7-11.3-12.2-13.8-17.7c6.6,10.2,19.6,17.8,28.2,18.6c10.3,1,16-4.5,18.3-7.5c-0.1,3.1-1.4,8.9-8.4,12
			C425.8,503.3,415.3,498,410.1,494.2z M446.8,472.2c3,0.3,5.9,1.5,8.1,3.5c3.1,2.8,4.5,6.8,4,11.3c-0.7,6.3-4.9,11.8-10.9,15
			c5.1-4.2,7.9-10.9,7.4-17.6C454.8,476.9,450.4,473.7,446.8,472.2z M464.9,483.6c0.3,6.6-3.3,13.6-9.3,18c-4.8,3.5-10.6,5-17.1,4.7
			c11.4-1.1,20.8-9.1,21.8-19.2c0.5-5-1.1-9.4-4.5-12.5c-2.8-2.6-6.6-4-10.6-4c-0.4,0-0.7,0-1.1,0.1c1.6-1.1,3.4-1.7,5.2-1.7
			C453.8,469,464.2,470.4,464.9,483.6z M472.5,458.5c-0.3,0.1-0.6,0.2-0.9,0.3c-0.1,0-0.1,0-0.2,0c-0.2,0-0.3,0.1-0.4,0.2
			c-2.7,1-5,2.3-6.9,3.8c-0.1,0-0.1,0.1-0.2,0.1c-0.1,0.1-0.2,0.2-0.3,0.3c-2.6,2.1-4.4,4.2-5.4,5.5c-0.6-1.8-1-4.4,0.3-5.7
			C460.3,461.2,463.6,459,472.5,458.5z M476.9,459.2c5.3-0.1,8.4,1.8,10.1,3.5c2.3,2.3,3.4,5.5,3,8.9c-0.5,5.3-3.9,7.4-6,8.1
			c1.4-2.2,3.3-6.3,1.7-12C484.5,463.4,481.2,460.3,476.9,459.2z M486.7,488.5c2.9,0.7,7,0.8,10.6-2.5c2.5-2.3,3.8-5.7,3.7-9.6
			c0-2-0.5-4-1.1-6c0.6,1.1,1.1,2.3,1.6,3.6c2.1,5.9,0.1,12.9-4.5,15.7C493.8,491.5,490.2,491,486.7,488.5z M498,470.4
			c-0.2-0.7-0.4-1.6-0.7-2.4c1.4,2.6,2.2,5.5,2.3,8.3c0.1,3.5-1.1,6.6-3.3,8.5c-3,2.8-6.4,2.8-9,2.3c2.1-0.3,4.7-1,7-2.9
			C497.6,481.6,499.1,475.8,498,470.4z M529.2,463.2c0,2.4-0.9,4.5-2.7,6.2c-2.3,2.1-5.7,3.3-9.1,3c-4.8-0.3-8.8-2-13.4-4.7
			c4.1,1.4,8.1,2.2,11.4,2.2c3.6,0,6.5-0.9,8-2.8c2.7-3.4,2.3-6.9,1.8-8.6c0.8,0.1,1.8,0.4,2.7,1.2
			C528.8,460.4,529.2,461.6,529.2,463.2z"/>
	</g>
	<g id="XMLID_290_">
		<path id="XMLID_346_" class="st1" d="M262.1,433.3h-0.2c-0.2,0-0.4,0.1-0.5,0.2c-0.1,0.1-0.2,0.3-0.2,0.5v5.7
			c0,1.2-0.4,2.2-1.1,2.9c-0.8,0.7-1.8,1.1-3.1,1.1c-1.5,0-2.7-0.3-3.6-1c-0.8-0.7-1.2-1.7-1.2-2.9v-5.7c0-0.3-0.1-0.5-0.4-0.6
			c-0.1-0.1-0.2-0.1-0.4-0.1H251v-0.1h4.2v0.1H255c-0.2,0-0.4,0.1-0.5,0.2c-0.1,0.1-0.2,0.3-0.2,0.5v5.6c0,1,0.3,1.9,0.8,2.5
			c0.5,0.6,1.2,0.9,2.1,0.9c0.9,0,1.6-0.3,2.1-0.9s0.8-1.4,0.8-2.3V434c0-0.3-0.2-0.5-0.4-0.6c-0.1-0.1-0.2-0.1-0.4-0.1H259v-0.1
			h3.1V433.3z"/>
		<path id="XMLID_344_" class="st1" d="M264.7,442.1c0-0.7,0.2-1.3,0.5-1.8h0.1c0,0.1,0,0.2,0,0.2c0,0.7,0.2,1.3,0.7,1.8
			c0.5,0.5,1.2,0.8,2,0.8c0.7,0,1.2-0.2,1.5-0.5c0.4-0.3,0.6-0.7,0.6-1.2c0-0.3-0.1-0.5-0.3-0.8c-0.2-0.2-0.5-0.5-0.9-0.8l-2.6-1.7
			c-1-0.6-1.4-1.4-1.4-2.4c0-0.1,0-0.2,0-0.3c0.1-0.8,0.4-1.4,0.9-1.9c0.5-0.5,1.3-0.7,2.2-0.7c0.5,0,1.2,0,2,0.1h0.9l-0.2,2.2h-0.1
			c0-0.5-0.2-0.9-0.6-1.2c-0.4-0.3-0.9-0.5-1.5-0.5c-0.8,0-1.3,0.2-1.7,0.7c-0.2,0.2-0.3,0.5-0.3,0.7s0,0.4,0.1,0.6
			c0.1,0.3,0.4,0.5,0.9,0.8l2.8,1.8c0.9,0.6,1.3,1.3,1.3,2.3c0,1-0.4,1.8-1.1,2.4c-0.7,0.6-1.7,0.8-2.8,0.8c-0.7,0-1.3-0.1-1.8-0.2
			c-0.6-0.2-1-0.4-1.2-0.7C264.8,442.6,264.7,442.4,264.7,442.1z"/>
		<path id="XMLID_341_" class="st1" d="M284.8,443.3h0.1v0.1h-4.7v-0.1h0.1c0.2,0,0.4-0.1,0.5-0.2c0.1-0.1,0.2-0.3,0.2-0.4
			c0-0.1,0-0.2-0.1-0.4l-0.7-1.8h-3.4l-0.8,1.8c0,0.1-0.1,0.2-0.1,0.4c0,0.1,0.1,0.2,0.2,0.4c0.1,0.1,0.3,0.2,0.5,0.2h0.1v0.1h-3.1
			v-0.1h0.1c0.2,0,0.5-0.1,0.7-0.2c0.2-0.1,0.4-0.3,0.6-0.6l3.4-7.7c0.5-1,0.7-1.6,0.7-1.9h0.1l4.4,9.6c0.1,0.3,0.3,0.5,0.6,0.6
			C284.4,443.3,284.6,443.3,284.8,443.3z M277.1,440h2.9l-1.4-3.6L277.1,440z"/>
		<path id="XMLID_339_" class="st1" d="M297.2,433.8v8.6c0,0.3,0.1,0.5,0.3,0.6c0.2,0.2,0.4,0.3,0.7,0.3h0.2l0,0.1h-4.5v-0.1h0.2
			c0.2,0,0.5-0.1,0.6-0.3c0.2-0.2,0.3-0.4,0.3-0.6v-8.7h-2c-0.5,0-0.8,0.2-1.1,0.4c-0.3,0.3-0.4,0.6-0.4,1.1v0.2h-0.1v-2.6
			c0.4,0.2,1,0.3,1.7,0.3h5.9c0.3,0,0.6,0,1-0.1c0.4-0.1,0.6-0.1,0.7-0.2v2.6h-0.1v-0.2c0-0.6-0.2-1-0.7-1.3
			c-0.2-0.1-0.5-0.2-0.8-0.2H297.2z"/>
		<path id="XMLID_336_" class="st1" d="M302.3,439.1c0-1.4,0.5-2.5,1.4-3.4c0.9-0.8,2.2-1.2,3.8-1.2c1.6,0,2.8,0.4,3.8,1.2
			c1,0.8,1.4,1.9,1.4,3.4c0,1.4-0.5,2.5-1.4,3.4c-1,0.8-2.2,1.2-3.8,1.2c-1.6,0-2.8-0.4-3.8-1.2
			C302.7,441.6,302.3,440.5,302.3,439.1z M304.5,439.1c0,1.2,0.3,2.2,0.8,2.9c0.5,0.7,1.3,1.1,2.1,1.1c0.9,0,1.6-0.4,2.1-1.1
			c0.5-0.7,0.8-1.7,0.8-2.9c0-1.2-0.3-2.2-0.8-2.9c-0.5-0.7-1.2-1.1-2.1-1.1c-0.9,0-1.6,0.4-2.1,1.1
			C304.8,436.9,304.5,437.8,304.5,439.1z"/>
		<path id="XMLID_333_" class="st1" d="M323.6,435.8c0.9,0.8,1.3,1.9,1.3,3.2s-0.4,2.5-1.3,3.2s-2.1,1.2-3.7,1.2h-5v-0.1h0.2
			c0.2,0,0.4-0.1,0.6-0.2c0.2-0.2,0.2-0.3,0.2-0.6v-7c0-0.2-0.1-0.4-0.3-0.5s-0.3-0.2-0.6-0.2H315v-0.1h5
			C321.5,434.7,322.7,435,323.6,435.8z M319.8,442.9c0.9,0,1.6-0.3,2.2-1c0.5-0.7,0.8-1.6,0.8-2.8c0-1.2-0.3-2.1-0.8-2.8
			c-0.5-0.7-1.3-1-2.2-1h-1.7v7.7H319.8z"/>
		<path id="XMLID_330_" class="st1" d="M336.6,443.3h0.1v0.1h-4.3v-0.1h0.1c0.2,0,0.3-0.1,0.4-0.2c0.1-0.1,0.1-0.2,0.1-0.3
			c0-0.1,0-0.2-0.1-0.3l-0.6-1.4h-3.1l-0.6,1.4c0,0.1-0.1,0.2-0.1,0.3c0,0.1,0,0.2,0.1,0.3c0.1,0.1,0.2,0.2,0.4,0.2h0.1v0.1h-2.9
			v-0.1h0.1c0.2,0,0.4-0.1,0.6-0.2c0.2-0.1,0.4-0.3,0.5-0.6l3-6.5c0.4-1,0.7-1.6,0.7-1.8h0.1l3.9,8.3c0.1,0.3,0.3,0.5,0.5,0.6
			C336.2,443.3,336.4,443.3,336.6,443.3z M329.6,440.6h2.6l-1.3-3.1L329.6,440.6z"/>
		<path id="XMLID_328_" class="st1" d="M346.5,434.8h-0.2c-0.3,0-0.5,0.1-0.7,0.2c-0.2,0.1-0.4,0.3-0.6,0.5l-2.6,4v3
			c0,0.2,0.1,0.4,0.3,0.6c0.2,0.2,0.4,0.2,0.6,0.2h0.2v0.1h-4.1v-0.1h0.2c0.2,0,0.4-0.1,0.6-0.2c0.2-0.2,0.2-0.3,0.3-0.6v-3l-2.6-4
			c-0.1-0.2-0.3-0.4-0.6-0.5c-0.2-0.1-0.5-0.2-0.7-0.2h-0.2v-0.1h4.5v0.1h-0.2c-0.2,0-0.3,0.1-0.4,0.2c-0.1,0.1-0.1,0.2-0.1,0.3
			c0,0.1,0,0.2,0.1,0.2l2,3.4l2-3.4c0-0.1,0-0.1,0-0.2c0-0.1,0-0.2-0.1-0.3c-0.1-0.1-0.2-0.2-0.4-0.2h-0.1v-0.1h3.1V434.8z"/>
		<path id="XMLID_325_" class="st1" d="M357.8,443.5h-4.6v-0.1h0.2c0.4,0,0.6-0.2,0.8-0.5c0.1-0.1,0.1-0.3,0.1-0.5v-8.2
			c0-0.3-0.1-0.5-0.3-0.6c-0.2-0.2-0.4-0.3-0.7-0.3h-0.2v-0.1h4.3c1.1,0,2,0.2,2.7,0.6c0.7,0.4,1,1,1,1.9c0,0.4-0.1,0.8-0.3,1.1
			c-0.3,0.6-0.8,1-1.5,1c0.8,0.1,1.4,0.4,1.9,0.8c0.5,0.5,0.7,1.1,0.7,1.9c0,0.9-0.4,1.6-1.1,2.1
			C360.1,443.2,359.1,443.5,357.8,443.5z M358.8,435.9c0-1.4-0.6-2.1-1.9-2.1h-0.4v9h0.7c0,0,0,0,0,0c0.7,0,1.2-0.2,1.6-0.6
			c0.4-0.4,0.6-1,0.6-1.8c0-0.8-0.2-1.4-0.7-1.8c-0.5-0.4-1-0.6-1.8-0.6v-0.1c0.5,0,0.9-0.2,1.3-0.5
			C358.7,437.1,358.8,436.6,358.8,435.9z"/>
		<path id="XMLID_323_" class="st1" d="M371.3,443.5h-6.9v-0.1h0.2c0.2,0,0.4-0.1,0.6-0.2c0.2-0.1,0.2-0.3,0.2-0.5v-7
			c0-0.2-0.1-0.4-0.2-0.5c-0.2-0.1-0.3-0.2-0.6-0.2h-0.2v-0.1h5.2c0.3,0,0.6,0,0.9-0.1c0.3,0,0.5-0.1,0.7-0.1v2.3H371v-0.1
			c0-0.4-0.1-0.8-0.4-1c-0.2-0.2-0.6-0.4-1-0.4h-2.1v3.6h1.7c0.3,0,0.6-0.1,0.8-0.3s0.3-0.5,0.3-0.8v-0.1h0.1v3.1h-0.1v-0.1
			c0-0.5-0.2-0.8-0.5-1c-0.2-0.1-0.4-0.2-0.6-0.2h-1.7v3.5h1.8c0.6,0,1.1-0.2,1.6-0.6c0.4-0.4,0.7-0.9,0.9-1.6h0.1L371.3,443.5z"/>
		<path id="XMLID_321_" class="st1" d="M374.3,442.3c0-0.6,0.1-1.2,0.4-1.6h0.1c0,0.1,0,0.1,0,0.2c0,0.6,0.2,1.1,0.6,1.6
			c0.4,0.5,1,0.7,1.8,0.7c0.5,0,1-0.1,1.3-0.4c0.3-0.3,0.4-0.5,0.4-0.9s-0.1-0.6-0.3-0.8c-0.2-0.2-0.5-0.4-0.8-0.7l-2.1-1.3
			c-0.9-0.5-1.3-1.3-1.3-2.1c0-0.1,0-0.2,0-0.3c0.1-0.7,0.3-1.2,0.8-1.6c0.5-0.4,1-0.6,1.7-0.6c0.7,0,1.3,0,2.1,0.1h0.8l-0.2,1.9
			h-0.1c0-0.5-0.2-0.8-0.5-1.1c-0.3-0.3-0.7-0.4-1.3-0.4s-0.9,0.1-1.2,0.3c-0.3,0.2-0.5,0.5-0.5,0.9c0,0.3,0.1,0.5,0.4,0.8
			c0.1,0.1,0.3,0.2,0.5,0.3l2.3,1.4c0.8,0.5,1.2,1.2,1.2,2c0,0.9-0.3,1.6-1,2.1s-1.5,0.7-2.5,0.7c-0.6,0-1.2-0.1-1.7-0.2
			c-0.5-0.1-0.8-0.3-1.1-0.6C374.4,442.7,374.3,442.5,374.3,442.3z"/>
		<path id="XMLID_319_" class="st1" d="M391,436.7v-0.1c0-0.4-0.1-0.8-0.4-1c-0.2-0.2-0.6-0.4-1-0.4H388v7.3c0,0.2,0.1,0.4,0.2,0.5
			c0.2,0.1,0.3,0.2,0.6,0.2h0.2v0.1h-4.1v-0.1h0.1c0.2,0,0.4-0.1,0.6-0.2s0.2-0.3,0.2-0.6v-7.3h-1.7c-0.4,0-0.8,0.1-1,0.4
			c-0.2,0.2-0.4,0.6-0.4,1v0.1h-0.1v-2.3c0.1,0,0.4,0.1,0.7,0.1c0.3,0,0.6,0.1,0.9,0.1h5.4c0.4,0,0.8,0,1.1-0.1
			c0.3-0.1,0.4-0.1,0.5-0.1v2.3H391z"/>
		<path id="XMLID_317_" class="st1" d="M393.5,442.3c0-0.6,0.1-1.2,0.4-1.6h0.1c0,0.1,0,0.1,0,0.2c0,0.6,0.2,1.1,0.6,1.6
			s1,0.7,1.8,0.7c0.5,0,1-0.1,1.3-0.4c0.3-0.3,0.4-0.5,0.4-0.9s-0.1-0.6-0.3-0.8c-0.2-0.2-0.5-0.4-0.8-0.7l-2.1-1.3
			c-0.9-0.5-1.3-1.3-1.3-2.1c0-0.1,0-0.2,0-0.3c0.1-0.7,0.3-1.2,0.8-1.6s1-0.6,1.7-0.6c0.7,0,1.3,0,2.1,0.1h0.8l-0.2,1.9h-0.1
			c0-0.5-0.2-0.8-0.5-1.1c-0.3-0.3-0.7-0.4-1.3-0.4s-0.9,0.1-1.2,0.3c-0.3,0.2-0.5,0.5-0.5,0.9c0,0.3,0.1,0.5,0.4,0.8
			c0.1,0.1,0.3,0.2,0.5,0.3l2.3,1.4c0.8,0.5,1.2,1.2,1.2,2c0,0.9-0.3,1.6-1,2.1c-0.6,0.5-1.5,0.7-2.5,0.7c-0.6,0-1.2-0.1-1.7-0.2
			c-0.5-0.1-0.8-0.3-1.1-0.6C393.5,442.7,393.5,442.5,393.5,442.3z"/>
		<path id="XMLID_315_" class="st1" d="M409.2,443.5h-6.9v-0.1h0.2c0.2,0,0.4-0.1,0.6-0.2s0.2-0.3,0.2-0.5v-7c0-0.2-0.1-0.4-0.2-0.5
			s-0.3-0.2-0.6-0.2h-0.2v-0.1h5.2c0.3,0,0.6,0,0.9-0.1c0.3,0,0.5-0.1,0.7-0.1v2.3h-0.1v-0.1c0-0.4-0.1-0.8-0.4-1
			c-0.2-0.2-0.6-0.4-1-0.4h-2.1v3.6h1.7c0.3,0,0.6-0.1,0.8-0.3c0.2-0.2,0.3-0.5,0.3-0.8v-0.1h0.1v3.1h-0.1v-0.1c0-0.5-0.2-0.8-0.5-1
			c-0.2-0.1-0.4-0.2-0.6-0.2h-1.7v3.5h1.8c0.6,0,1.1-0.2,1.6-0.6c0.4-0.4,0.7-0.9,0.9-1.6h0.1L409.2,443.5z"/>
		<path id="XMLID_313_" class="st1" d="M411.9,443.5v-0.1h0.2c0.2,0,0.4-0.1,0.6-0.2c0.2-0.1,0.2-0.3,0.2-0.5v-7
			c0-0.2-0.1-0.4-0.2-0.6c-0.2-0.2-0.3-0.2-0.6-0.2h-0.2v-0.1h4.1v0.1h-0.2c-0.2,0-0.4,0.1-0.6,0.2s-0.2,0.3-0.2,0.6v7.3h1.8
			c0.6,0,1.1-0.2,1.5-0.6c0.4-0.4,0.7-0.9,0.9-1.6h0.2l-0.6,2.7H411.9z"/>
		<path id="XMLID_311_" class="st1" d="M421.3,443.5v-0.1h0.2c0.2,0,0.4-0.1,0.6-0.2s0.2-0.3,0.2-0.5v-7c0-0.2-0.1-0.4-0.2-0.6
			c-0.2-0.2-0.3-0.2-0.6-0.2h-0.2v-0.1h4.1v0.1h-0.2c-0.2,0-0.4,0.1-0.6,0.2s-0.2,0.3-0.2,0.6v7.3h1.8c0.6,0,1.1-0.2,1.5-0.6
			c0.4-0.4,0.7-0.9,0.9-1.6h0.2l-0.6,2.7H421.3z"/>
		<path id="XMLID_309_" class="st1" d="M430.7,443.3h0.2c0.2,0,0.4-0.1,0.6-0.2c0.2-0.2,0.2-0.3,0.2-0.6v-7c0-0.2-0.1-0.4-0.2-0.6
			c-0.2-0.2-0.4-0.2-0.6-0.2h-0.2v-0.1h4.2v0.1h-0.2c-0.2,0-0.4,0.1-0.6,0.2s-0.3,0.3-0.3,0.5v7c0,0.2,0.1,0.4,0.3,0.6
			s0.4,0.2,0.6,0.2h0.2v0.1h-4.2V443.3z"/>
		<path id="XMLID_307_" class="st1" d="M443.9,434.7h4.1v0.1h-0.3c-0.2,0-0.4,0.1-0.6,0.2c-0.2,0.1-0.2,0.3-0.2,0.5v6.4
			c0,0.6,0,1.1,0.1,1.5l0,0.2H447l-6.8-6v4.9c0,0.2,0.1,0.4,0.2,0.5c0.2,0.1,0.3,0.2,0.6,0.2h0.2v0.1h-4.1v-0.1h0.2
			c0.2,0,0.4-0.1,0.6-0.2c0.2-0.1,0.2-0.3,0.2-0.5v-6.5c0-0.6,0-1.1-0.1-1.5l0-0.2l0.1,0l6.7,5.9v-4.8c0-0.2-0.1-0.4-0.2-0.5
			c-0.2-0.1-0.3-0.2-0.6-0.2h-0.2V434.7z"/>
		<path id="XMLID_305_" class="st1" d="M451.5,442.4c-0.9-0.8-1.3-1.9-1.3-3.4c0-1.4,0.4-2.6,1.3-3.4c0.9-0.8,2.1-1.2,3.6-1.2
			c0.7,0,1.4,0.1,2,0.2c0.7,0.1,1.2,0.3,1.6,0.5v2.3h-0.1c-0.4-1.6-1.5-2.4-3.1-2.4c-1,0-1.8,0.4-2.3,1.1c-0.5,0.7-0.8,1.7-0.8,3
			c0,1.3,0.2,2.3,0.7,2.9c0.5,0.7,1.2,1,2.1,1c0.5,0,0.9-0.1,1.3-0.3c0.4-0.2,0.7-0.6,0.8-1l0-1.8c0-0.2-0.1-0.3-0.2-0.4
			c-0.1-0.1-0.3-0.2-0.5-0.2h-0.2v-0.1h3.8v0.1h-0.2c-0.4,0-0.6,0.2-0.6,0.6v2c-0.3,0.4-0.9,0.8-1.7,1.2c-0.8,0.4-1.7,0.5-2.7,0.5
			C453.6,443.7,452.4,443.2,451.5,442.4z"/>
		<path id="XMLID_302_" class="st1" d="M477.9,443.3h0.1v0.1h-4.7v-0.1h0.1c0.2,0,0.4-0.1,0.5-0.2c0.1-0.1,0.2-0.3,0.2-0.4
			c0-0.1,0-0.2-0.1-0.4l-0.7-1.8h-3.4l-0.8,1.8c-0.1,0.1-0.1,0.2-0.1,0.4c0,0.1,0.1,0.2,0.2,0.4c0.1,0.1,0.3,0.2,0.5,0.2h0.1v0.1
			h-3.1v-0.1h0.1c0.2,0,0.5-0.1,0.7-0.2c0.2-0.1,0.4-0.3,0.6-0.6l3.4-7.7c0.5-1,0.7-1.6,0.7-1.9h0.1l4.4,9.6
			c0.1,0.3,0.3,0.5,0.6,0.6C477.5,443.3,477.7,443.3,477.9,443.3z M470.1,440h2.9l-1.4-3.6L470.1,440z"/>
		<path id="XMLID_300_" class="st1" d="M488.8,434.8h-0.2c-0.2,0-0.3,0.1-0.5,0.2c-0.1,0.1-0.2,0.3-0.2,0.4v4.9c0,1.1-0.3,1.9-1,2.5
			c-0.6,0.6-1.6,0.9-2.9,0.9c-1.3,0-2.3-0.3-3-0.9s-1.1-1.4-1.1-2.5v-4.9c0-0.2-0.1-0.3-0.2-0.4s-0.3-0.2-0.5-0.2h-0.2v-0.1h3.9v0.1
			h-0.2c-0.2,0-0.3,0.1-0.5,0.2c-0.1,0.1-0.2,0.3-0.2,0.4v4.8c0,0.9,0.2,1.6,0.6,2.1c0.4,0.5,1,0.8,1.8,0.8c0.8,0,1.4-0.2,1.8-0.7
			c0.4-0.5,0.7-1.1,0.7-2v-4.9c0-0.2-0.1-0.3-0.2-0.4c-0.1-0.1-0.3-0.2-0.5-0.2h-0.2v-0.1h2.7V434.8z"/>
		<path id="XMLID_298_" class="st1" d="M499.2,436.7v-0.1c0-0.4-0.1-0.8-0.4-1c-0.2-0.2-0.6-0.4-1-0.4h-1.7v7.3
			c0,0.2,0.1,0.4,0.3,0.5c0.2,0.1,0.3,0.2,0.6,0.2h0.2v0.1H493v-0.1h0.1c0.2,0,0.4-0.1,0.6-0.2c0.2-0.1,0.2-0.3,0.2-0.6v-7.3h-1.7
			c-0.4,0-0.8,0.1-1,0.4c-0.2,0.2-0.4,0.6-0.4,1v0.1h-0.1v-2.3c0.1,0,0.4,0.1,0.7,0.1c0.3,0,0.6,0.1,0.9,0.1h5.4
			c0.4,0,0.8,0,1.1-0.1c0.3-0.1,0.4-0.1,0.5-0.1v2.3H499.2z"/>
		<path id="XMLID_296_" class="st1" d="M511.5,443.3h0.2v0.1h-4v-0.1h0.1c0.2,0,0.4-0.1,0.6-0.2c0.2-0.1,0.2-0.3,0.2-0.6v-3.2h-3.9
			v3.2c0,0.2,0.1,0.4,0.2,0.6s0.3,0.2,0.6,0.2h0.2v0.1h-4.1v-0.1h0.2c0.2,0,0.4-0.1,0.6-0.2c0.2-0.2,0.2-0.3,0.2-0.6v-7
			c0-0.2-0.1-0.4-0.2-0.6c-0.2-0.2-0.3-0.2-0.6-0.2h-0.2v-0.1h4.1v0.1h-0.2c-0.2,0-0.4,0.1-0.6,0.2s-0.2,0.3-0.2,0.5v3.2h3.9v-3.2
			c0-0.3-0.1-0.5-0.4-0.7c-0.1-0.1-0.3-0.1-0.4-0.1h-0.1v-0.1h4v0.1h-0.2c-0.2,0-0.4,0.1-0.6,0.2c-0.2,0.1-0.2,0.3-0.2,0.6v7
			c0,0.3,0.1,0.5,0.4,0.7C511.2,443.3,511.3,443.3,511.5,443.3z"/>
		<path id="XMLID_293_" class="st1" d="M514,439.1c0-1.4,0.5-2.5,1.4-3.4c0.9-0.8,2.2-1.2,3.8-1.2c1.6,0,2.8,0.4,3.8,1.2
			c1,0.8,1.4,1.9,1.4,3.4c0,1.4-0.5,2.5-1.4,3.4c-1,0.8-2.2,1.2-3.8,1.2c-1.6,0-2.8-0.4-3.8-1.2C514.4,441.6,514,440.5,514,439.1z
			 M516.2,439.1c0,1.2,0.3,2.2,0.8,2.9c0.5,0.7,1.2,1.1,2.1,1.1c0.9,0,1.6-0.4,2.1-1.1c0.5-0.7,0.8-1.7,0.8-2.9
			c0-1.2-0.3-2.2-0.8-2.9c-0.5-0.7-1.3-1.1-2.1-1.1c-0.9,0-1.6,0.4-2.1,1.1C516.5,436.9,516.2,437.8,516.2,439.1z"/>
		<path id="XMLID_291_" class="st1" d="M530.3,435.3h-0.5v7.3c0,0.2,0.1,0.4,0.2,0.6c0.2,0.1,0.3,0.2,0.6,0.2h0.2v0.1h-4v-0.1h0.2
			c0.2,0,0.4-0.1,0.6-0.2c0.2-0.1,0.2-0.3,0.2-0.5v-7c0-0.2-0.1-0.4-0.2-0.5c-0.2-0.1-0.3-0.2-0.5-0.2h-0.2v-0.1h4.5
			c0.9,0,1.6,0.2,2.2,0.5c0.7,0.4,1,1,1,1.9c0,0.6-0.2,1.1-0.5,1.5s-0.9,0.7-1.5,0.8c0.3,0.1,0.5,0.3,0.8,0.5
			c0.3,0.2,0.5,0.5,0.6,0.8c0.3,0.6,0.6,1.1,1,1.5c0.3,0.5,0.6,0.8,0.8,0.9c0.2,0.1,0.5,0.2,0.8,0.2v0.1h-1.2
			c-0.8,0-1.4-0.1-1.9-0.3c-0.4-0.2-0.8-0.6-1.2-1.1c-0.5-0.8-0.9-1.5-1-2c-0.1-0.3-0.3-0.5-0.4-0.7c-0.2-0.1-0.3-0.2-0.5-0.2V439
			h0.4c0.8,0,1.3-0.5,1.5-1.5c0-0.1,0.1-0.3,0.1-0.4s0-0.3,0-0.4c0-0.2-0.1-0.4-0.2-0.6c-0.1-0.2-0.3-0.4-0.4-0.5
			c-0.3-0.2-0.6-0.3-0.9-0.3C530.6,435.3,530.5,435.3,530.3,435.3z"/>
	</g>
</g>
</svg>
