<?xml version="1.0" encoding="utf-8"?>
<!-- Generator: Adobe Illustrator 24.2.1, SVG Export Plug-In . SVG Version: 6.00 Build 0)  -->
<svg version="1.1" id="Layer_1" xmlns="http://www.w3.org/2000/svg" xmlns:xlink="http://www.w3.org/1999/xlink" x="0px" y="0px"
	 viewBox="0 0 800 800" style="enable-background:new 0 0 800 800;" xml:space="preserve">
<style type="text/css">
	.st0{fill-rule:evenodd;clip-rule:evenodd;fill:#EEBF3D;}
	.st1{fill:#FFFFFF;}
	.st2{fill:#EEBF3D;}
	.st3{fill:#313131;}
</style>
<rect x="-0.4" y="-0.5" class="st0" width="801.5" height="801.5"/>
<g>
	<g>
		<path class="st1" d="M533.1,371.3c3.4-12.8,14.3-51.8,2.6-66.4c-11.3-14.3,6.4-23.6,4.1-53.3s-33.4-27.4-70.5-22.9
			c-35.6-0.8-28.1,0.8-55.1-0.4c-26.3-1.1-43.1,0.4-60.8,1.1c-17.6,0.8-13.1-5.3-55.1-3.8c-40.9,1.5-40.9,19.5-36,45.8
			c4.1,21.4,1.5,44.3,1.5,44.3s1.9,16.9-2.3,44.3s8.3,40.1,14.3,46.1c4.1,4.1,20.3,5.3,38.3,5.6v0.4c0,0,0,0,0-0.4
			c3.8,0,7.1,0,10.9,0c7.9,0.4,17.3,2.3,15.4,7.9c-3.4,9.8-10.9,15.4-12.8,16.5c-3,1.5-14.6,15.4,14.3,6.8
			c28.5-8.6,33.8-16.1,38.6-21.8c1.9-2.3,5.6-5.6,8.3-9.8c12.4,0.8,24,2.3,35.6,2.3c20.3,0,71.6,2.3,94.9-2.3
			C542.9,407.3,530.1,384,533.1,371.3z"/>
		<g>
			<path class="st2" d="M436,284.7c-4.5,2.3-4.1,5.6-4.9,9.4c0,0,13.1,3,18,0.8c4.5-2.3,19.9-1.9,24.4-2.3c4.5-0.4,12,1.1,14.3-1.1
				c2.3-1.9-1.9-3.8-4.1-6c-2.3-1.9-7.9-4.5-21.8-4.1C447.6,281.7,440.5,282.4,436,284.7z"/>
			<path class="st2" d="M393.3,283.5c-10.9-1.1-15.4-1.1-17.3,2.6c-1.9,3.8-3.8,5.3-3.8,5.3s13.1,1.1,19.1,1.5c6,0,18.4-1.9,30,1.5
				c6,1.9,6.8,0,6.8,0s-1.9-10.1-13.9-11.3C402.3,281.7,404.1,284.7,393.3,283.5z"/>
			<path class="st2" d="M320.1,292.5c8.3-1.9,16.5-2.3,27-1.5c10.5,0.8,15.8,1.5,21,0.4c0,0,0-8.6-12.8-9
				c-12.8-0.4-14.6,1.9-24.4,0.4c-9.4-1.5-16.9,8.6-16.9,8.6S311.9,294.4,320.1,292.5z"/>
			<path class="st2" d="M344.1,276c2.6,2.6,7.5,4.5,16.5,3.8c8.6-0.4,12.8-2.6,25.9-2.6c13.1,0,13.9,1.1,14.6-3.4
				c0.8-4.5-5.3-7.5-15-8.3c-9.8-0.8-18-2.3-32.3-0.8c0,0-8.3,1.9-11.6,4.9C338.5,273,341.5,273.4,344.1,276z"/>
			<path class="st2" d="M407.9,273c7.5,2.6,2.6,5.3,12.8,5.3c10.1,0,18-1.5,27-0.4c9,1.1,15.4,0.4,19.5-3.8c3.8-4.1,6-4.1-3-7.1
				c-8.6-3-10.5-5.6-23.3-3.8c-12.8,1.9-16.9,1.5-19.9,1.5c-3-0.4-10.1,1.1-12.8,1.9C408.3,266.7,400,270.4,407.9,273z"/>
			<path class="st2" d="M369.3,341.3c-1.5-2.3-4.5-5.3-6.4-6.8c-1.9-1.5-4.9-3-7.1-3.8s-4.9-1.5-6-1.5c-1.1,0-2.6-0.4-2.6-0.4
				c-0.4,0-1.1-0.4-1.9-0.4c-0.8,0-3,0-4.9,0.4c-1.9,0.4-4.9,1.1-6.4,2.3c-1.5,0.8-4.1,2.6-5.6,3.8c-1.5,1.1-4.1,4.1-5.6,6.4
				c-1.5,2.3-3.4,5.6-3.8,7.5s-0.8,4.9-1.1,6.8c-0.4,1.9,0,4.9,0.4,6.8c0.4,1.9,1.5,4.9,2.3,6.4c0.8,1.5,2.6,4.1,3.8,5.6
				c1.1,1.5,3.4,3.8,4.9,5.3c1.5,1.5,4.5,3,6.4,3.8c1.9,0.8,5.3,1.5,7.1,1.9c1.9,0.4,5.3,0,7.5,0c1.9-0.4,5.3-1.5,7.1-2.3
				c1.9-1.1,4.5-2.6,6.4-4.1c1.5-1.1,4.1-3,5.3-4.5c1.1-1.1,3-3.4,3.8-5.3c0.8-1.5,1.5-4.1,1.9-6c0.4-1.9,0.8-4.5,0.8-5.6
				c0-1.5-0.8-4.9-1.5-7.5C373,347.7,371.1,343.5,369.3,341.3z M366.6,342.8c0.8,1.1,1.9,3,2.3,4.1s-1.1,2.6-3.8,3
				c-2.6,0.8-6.4,1.9-9,2.6c-2.6,0.8-3.8,0-2.6-1.1c1.1-1.5,3-3.4,4.1-4.5c1.1-1.1,3.4-3,4.5-4.1C364,341.7,365.9,341.7,366.6,342.8
				z M353.1,336.4c0.4-1.5,2.6-1.9,5.3-0.4c2.6,1.5,3,4.1,1.1,6c-1.9,1.9-4.9,4.9-6.8,6.4c-1.9,1.9-3,1.5-2.6,0
				c0.4-1.9,0.8-4.5,1.5-6C352,340.5,352.8,337.9,353.1,336.4z M346,332.7c2.6,0,4.5,1.5,4.1,3c-0.4,1.9-1.1,4.5-1.5,6.4
				s-1.1,4.5-1.5,6s-1.1,1.5-1.9,0c-0.8-1.5-1.1-4.1-1.5-5.6c-0.4-1.9-1.1-4.5-1.5-6.4S343.4,332.7,346,332.7z M344.5,355.2l0.4-0.4
				c0.4,0,0.4-0.4,0.4-0.8c0-0.4,0.4-0.4,0.8-0.4s0.8,0.4,0.8,0.8c0,0.4,0.4,0.4,0.4,0.8c0.4,0,0.4,0,0.4,0.4h0.4l0.4,0.4
				c0,0.4,0.4,0.4,0.4,0.8c0,0,0,0.4,0.4,0.8c0,0.4,0,0.8,0,0.8s0,0.4-0.4,0.8c0,0.4-0.4,0.4-0.4,0.8v0.4l-0.4,0.4
				c-0.4,0-0.8,0-0.8,0s-0.4,0-0.8-0.4c-0.4,0-0.8,0-0.8,0s-0.4,0-0.8,0s-0.4-0.4-0.4-0.4s0,0-0.4,0c0,0-0.4,0-0.4-0.4
				s-0.4-0.8-0.4-0.8s-0.4-0.4-0.4-0.8c0-0.4,0-0.8,0-0.8s0.4-0.4,0.8-0.4C344.1,355.5,344.5,355.5,344.5,355.2L344.5,355.2z
				 M333.6,336c2.3-1.5,4.9-1.1,5.3,0.4s1.1,4.1,1.9,6c0.4,1.5,1.1,4.5,1.5,6c0.4,1.9-0.8,1.9-2.6,0.4c-1.9-1.5-4.9-4.5-6.8-6.4
				C330.6,340.2,331.4,337.5,333.6,336z M323.5,346.9c0.4-1.1,1.1-2.6,2.3-3.8c0.8-1.1,2.6-1.1,3.8,0c1.1,1.1,3.4,3,4.5,4.1
				s3.4,3.4,4.9,4.5c1.5,1.1,1.1,1.9-0.8,1.5s-4.5-1.1-6.4-1.9c-1.5-0.4-4.1-1.1-6-1.9C323.9,349.2,323.1,348,323.5,346.9z
				 M321.6,357.4c0-2.6,1.1-4.5,3-4.1c1.5,0.4,4.5,1.1,6,1.5c1.5,0.4,4.5,1.1,6,1.5c1.5,0.4,1.9,1.5,0,1.9c-1.5,0.8-4.5,1.5-6,1.9
				c-1.5,0.4-4.5,1.1-6,1.5C323.1,361.9,322,360,321.6,357.4z M325.4,369.8c-1.5-2.3-0.8-4.9,1.9-5.6c2.3-0.8,6.4-1.9,9-2.6
				c2.6-0.8,3,0.4,1.1,2.3c-1.9,1.9-4.5,4.9-6.4,6.8C329.5,372.4,326.9,372,325.4,369.8z M341.5,371.7c-0.4,1.5-1.5,4.1-1.9,6
				c-0.4,1.5-2.6,1.9-5.3,0.8c-2.3-1.1-3.4-3.4-2.3-4.5c1.1-1.1,3-3.4,4.5-4.5c1.1-1.1,3.4-3.4,4.5-4.5c1.1-1.1,2.3-0.8,1.9,1.1
				C342.6,367.2,341.9,370.2,341.5,371.7z M346.8,381.4c-2.6,0-4.5-1.9-4.1-4.5c0.8-2.6,1.5-6.4,2.3-9c0.8-2.6,1.9-2.6,2.6,0
				c0.8,2.6,1.9,6.4,2.6,9C351.3,379.5,349.8,381.4,346.8,381.4z M358.8,378c-2.3,1.5-4.5,1.1-5.3-0.4c-0.4-1.5-1.1-4.5-1.9-6
				c-0.4-1.5-1.1-4.5-1.5-6c-0.4-1.9,0.4-2.3,1.9-1.1c1.5,1.1,3.4,3,4.5,4.5c1.1,1.1,3,3.4,4.1,4.5C361.8,374.3,361,376.5,358.8,378
				z M367.8,368.7c-1.5,2.3-4.1,3-5.6,1.1c-1.9-1.9-4.9-4.5-6.8-6.4c-1.9-1.9-1.1-2.6,1.1-2.3c2.6,0.8,6.8,1.5,9,2.3
				C368.1,364.2,369.3,366.4,367.8,368.7z M371.1,358.5c0,1.5,0,3,0,3c0,0.4-0.4,0.4-0.8,0.4c-0.4,0-1.5-0.4-2.6-0.8
				c-1.1-0.4-3.4-0.8-5.3-1.1c-1.9-0.4-4.9-1.1-6.8-1.9c-1.9-0.8-1.9-1.5,0-1.9c1.9-0.4,4.5-1.1,6-1.5c1.9-0.4,4.5-1.1,6-1.9
				c1.5-0.8,3-0.4,3,0.8C371.1,354.8,371.1,357,371.1,358.5z"/>
			<path class="st2" d="M483.3,344.3c0-1.9-0.8-4.5-1.5-6c-0.8-1.5-2.3-4.1-3-5.6c-0.8-1.5-2.3-3.4-3-4.5c-0.8-0.8-1.1-1.9-1.1-1.9
				s-1.1-1.1-3-2.3c-1.5-1.1-4.1-2.6-6-3.8c-1.5-1.1-4.5-2.3-6.4-2.6c-1.9-0.8-4.9-1.1-6.8-1.1c-1.9,0-4.9,0-7.1,0
				c-1.9,0-4.9,0.4-6.8,0.8c-1.9,0.4-4.9,1.5-6.8,2.3s-4.5,2.6-5.6,3.8c-1.5,1.1-2.6,2.3-2.6,2.6c0,0-0.8,0.8-1.5,1.5
				c-0.8,0.8-2.6,2.6-3.4,3.8c-1.1,1.5-2.6,3.8-3.4,5.6c-0.8,1.5-1.5,4.5-1.5,6c0,1.9-0.4,3.4-0.8,3.8c0,0.4-0.4,1.1-0.4,1.9
				s-1.5,1.9-3.4,2.3c-1.9,0.4-4.9,0.8-7.1,0.8c-1.9,0-5.3,0.4-7.1,1.1c-1.9,0.4-4.9,1.1-7.1,1.1c-1.5,0-4.1,0.4-6,0.8l0,0
				c0,0-0.4,0-0.8,0c-1.5,0-4.1,0-4.1,0.4c0,0.8,0.4,4.1,0.4,4.1s0.4,0,0.8,0c0.8,0.4,1.5,0.8,2.6,0.8c1.9,0,5.3-0.4,7.1-0.8
				c1.9-0.4,4.9-1.1,7.1-1.5c1.9-0.4,4.9-0.8,7.1-0.8c1.9,0,5.3-0.4,7.1-1.1c1.9-0.8,3.4-0.4,3.8,0.8c0,0.8,0.8,3,1.5,4.9
				c0.8,1.9,1.9,4.5,2.6,6.4s2.3,4.1,3.4,5.6c1.1,1.5,3.4,3.4,4.9,4.5c1.5,1.1,4.1,3,5.6,4.1c1.5,1.1,4.5,2.3,6,3
				c1.9,0.4,4.9,1.1,6.8,1.5c1.9,0.4,4.9,0.4,6.8,0s4.9-0.8,6.8-1.5c1.9-0.4,4.9-1.5,6.4-2.6c1.9-0.8,4.5-2.3,6-3.4
				c1.5-1.1,3.8-3,4.5-4.5c1.1-1.5,2.6-4.1,3.4-5.6c1.1-1.5,2.3-4.1,3-5.6c0.8-1.5,1.5-4.5,2.3-6c0.4-1.9,0.8-4.5,0.4-6.4
				C484,348.8,483.6,345.8,483.3,344.3z M474.3,333.4c1.1,1.1,2.3,3.8,3,5.3c0.8,1.5-0.4,3-2.3,3.4c-1.9,0.4-4.9,1.1-6.8,1.5
				c-1.9,0.4-4.9,1.1-6.4,1.9c-1.9,0.8-4.1,1.5-5.3,1.5c-1.1,0.4-1.9,0.4-1.9,0.4s0.4-0.4,0.4-0.8c0.4-0.4,1.9-1.9,3.4-3.4
				c1.5-1.5,4.1-3.8,5.6-4.9c1.5-1.5,4.1-3.8,5.6-5.3C471.3,332.3,473.1,332.3,474.3,333.4z M456.6,327.8c0.4-0.8,0.8-2.6,1.1-3.8
				s2.6-1.1,4.9,0.4c2.3,1.5,4.9,3,5.6,3.4c0.8,0.4,1.1,1.1,0.4,1.5c-0.4,0.4-1.9,1.9-3.4,3.4c-1.5,1.5-3.8,3.8-5.3,5.3
				c-1.5,1.5-3.8,3.8-5.3,5.3c-1.5,1.5-3,2.6-2.6,2.6c0,0,0.8-1.9,1.1-3.8c0.8-2.3,1.5-5.6,1.9-7.9
				C455.9,331.2,456.6,328.5,456.6,327.8z M445.8,320.3c1.5-0.4,4.5-0.4,6,0c1.9,0.4,2.6,1.5,2.3,3s-1.1,3.4-1.5,4.1
				c-0.4,0.8-0.8,3.4-1.1,5.3c-0.4,2.3-1.1,5.6-1.9,7.5c-0.8,1.9-1.1,3.8-1.1,3.8s-0.4-1.5-1.1-3.8c-0.8-1.9-1.5-5.6-1.9-7.5
				c-0.4-2.3-0.8-4.5-1.1-5.6c0-0.8-0.4-2.6-0.8-4.1C443.1,321.8,444.3,320.7,445.8,320.3z M451.8,351c0,0.4,0,0.8,0,0.8
				s-0.4,0.4-0.8,0.8s-0.4,0.8-0.4,0.8s0.4,0.4,0,0.4c0,0-0.4,0-0.8,0.4s-0.8,0.4-0.8,0.8c0,0-0.4,0-1.1,0c-0.4,0-1.1-0.4-1.1-0.4
				s-0.4-0.4-0.8-0.4c-0.4-0.4-0.8-0.4-0.8-0.4H445c0,0,0-0.4-0.4-0.8c0-0.4,0-0.8,0-0.8s0.4-0.4,0.4-0.8s-0.4-0.8-0.4-0.8
				c-0.4,0,0-0.4,0.4-0.8s0.8-0.8,0.8-0.8v-0.4c0,0,0.4,0,0.8,0c0.4,0,1.1,0,1.1-0.4s0.4-0.4,0.8,0s0.8,0.4,1.1,0
				c0-0.4,0.4-0.4,1.1,0c0.4,0.4,0.8,0.8,0.4,0.8c0,0.4-0.4,0.4-0.4,0.4s0.4,0.4,0.8,0.4c0.4,0.4,0.8,0.8,0.4,0.8
				C451.8,350.3,451.4,350.7,451.8,351z M428.9,327c0.8-0.8,3.4-1.9,5.6-3s4.1-1.1,4.5,0s0.8,2.6,1.1,3.8c0.4,0.8,1.1,3.4,1.9,5.6
				c0.4,2.3,1.5,6,1.9,7.9c0.8,2.3,1.1,4.1,0.8,4.1c0,0-1.5-1.1-3-2.6c-1.5-1.5-3.8-4.1-5.3-5.6c-1.5-1.5-3.8-4.1-5.3-5.6
				c-1.5-1.5-3-3-3.4-3C427.8,328.2,428.1,327.4,428.9,327z M420.3,338.3c0.8-1.5,1.9-3.8,3-5.3c1.1-1.5,3-1.1,4.5,0.4
				c1.5,1.5,3.8,3.8,5.3,5.3c1.5,1.5,3.8,3.8,5.6,5.3c1.5,1.1,3.4,2.6,3.4,3c0.4,0.4,0.8,0.8,0.8,0.8s-1.1-0.4-3-0.4
				c-1.5-0.4-4.1-1.1-5.6-1.5c-1.5-0.8-4.5-1.5-6-1.9s-4.5-1.5-6-1.9C420.3,341.3,419.5,339.8,420.3,338.3z M417.6,356.3
				c0-0.8-0.4-3-0.4-4.1c0-1.5,0-3.4,0.4-4.1c0-0.8,0.4-1.9,0-2.3c0-0.4,1.1-0.4,2.3,0c1.5,0.4,4.1,1.1,5.6,1.5
				c1.9,0.4,4.5,1.1,6.4,1.5c1.9,0.4,4.5,1.1,6,1.5c1.5,0.8,3,1.1,3,1.1s-1.9,0.4-4.1,0.8c-2.3,0.4-5.6,1.5-7.9,2.3
				s-5.6,1.9-7.9,2.6C419.9,357.4,418,357,417.6,356.3z M423.3,369c-1.1-1.5-2.3-3.8-3-5.3c-0.8-1.5,0.4-3,2.6-3.8
				c2.3-0.4,5.6-1.5,7.9-1.9s5.6-1.5,7.9-2.3c2.3-0.8,3.8-1.5,3.8-1.5s-1.1,1.5-3,3c-1.5,1.5-4.1,4.1-5.6,6
				c-1.5,1.5-4.1,4.1-5.6,5.6C426.6,370.2,424.4,370.5,423.3,369z M440.1,376.5c-0.8,2.3-2.6,3.4-4.1,2.3c-1.5-0.8-4.1-2.3-5.6-3.4
				c-1.5-1.1-1.5-3,0.4-4.5c1.5-1.5,4.1-4.1,6-5.6c1.5-1.5,4.1-4.1,5.6-6c1.5-1.9,2.6-3,2.6-3s-0.4,1.9-0.8,4.1
				c-0.4,2.3-1.5,5.6-1.9,7.9C442,370.9,440.9,374.7,440.1,376.5z M451.8,381.8c-1.9,0-4.5,0-6.4,0c-1.5,0-2.6-1.9-1.9-4.1
				c0.8-2.3,1.5-5.6,2.3-7.9s1.5-5.6,1.9-7.9s1.1-2.3,1.9,0c0.4,2.3,1.5,5.6,1.9,7.9c0.8,2.3,1.5,5.6,2.3,7.9
				C454.4,379.5,453.6,381.4,451.8,381.8z M466.8,375.8c-1.5,1.1-4.1,2.3-5.6,3.4c-1.5,0.8-3.4-0.4-3.8-2.6
				c-0.4-2.3-1.1-5.6-1.9-7.9c-0.4-2.3-1.5-5.6-2.3-7.9s-1.1-3.8-1.1-3.8s1.5,1.1,3,2.6c1.5,1.5,4.1,4.1,6,5.6
				c1.5,1.5,4.1,4.1,5.6,5.6C468.3,372.8,468.3,375,466.8,375.8z M476.9,363.8c-0.8,1.5-2.3,4.1-3.4,5.3c-1.1,1.5-3,1.1-4.5-0.4
				s-4.1-4.1-5.6-6c-1.5-1.5-4.1-4.1-6-5.6c-1.9-1.5-1.5-2.3,0.8-1.5c2.3,0.8,5.6,1.5,7.9,2.3c2.3,0.8,5.6,1.5,7.9,1.9
				C476.5,360.4,477.6,362.3,476.9,363.8z M479.1,355.2c0,1.5-1.9,2.3-4.1,1.5c-2.3-0.8-5.6-1.9-7.9-2.6s-5.6-1.5-7.9-1.9
				s-4.1-0.8-4.1-0.8s1.9-0.8,3.8-1.1c2.3-0.8,5.6-1.5,7.5-2.3c2.3-0.8,5.6-1.5,7.9-2.3c2.3-0.4,4.1-0.4,4.1,0.4s0,2.3,0,3.8
				C479.5,351.4,479.1,353.7,479.1,355.2z"/>
			<path class="st2" d="M498.3,306.8c0-0.8,4.1-11.6-3-11.3c-7.1,0.4-53.6,4.1-80.6,1.9c-26.6-1.9-55.5-3.4-70.9-0.8
				c0,0-7.5,1.1-16.9,0c-9.4-1.1-15.8-0.8-18,1.1c-1.1-1.1-3.4,3-1.9,12.4c0,0.4,0,0.4,0,0.8c-1.9,0-4.5,0.4-6,0c-1.9,0-4.5,0-6.8,0
				l0,0c0,0-0.4,0-0.8,0c-0.8,0-2.3-0.4-3-0.4s-1.1,0.4-1.5,0.8c0,1.1-0.4,3-0.4,3.8c0,0,0,0,0,0.4c0,0,0.4,0,0.8,0.4
				c0.8,0.8,1.9,1.1,3,1.1c2.3,0.4,5.6,0.4,7.9,0c2.3,0,4.9,0.4,7.1,0h0.4c0.8,5.3,0.8,8.6,0.8,8.6l-1.5,16.9l5.3-0.4
				c0,0,2.3,2.3,7.1-5.6c4.9-7.9,12.8-12.8,20.6-12.8c7.9,0,13.5,1.5,20.6,4.9c7.1,3.4,10.9,6,12,10.5c1.5,4.5,3.4,4.9,3.4,4.9
				s8.3,1.9,15.4,0.8c7.1-1.1,13.1-1.5,13.1-1.5s3,1.5,5.6-4.5c0.4-0.8,0.8-2.3,0.8-3.8c1.9-6.8,5.6-11.6,8.3-15
				c2.6-2.3,6.4-5.3,10.5-6.8c18.4-7.9,29.6-0.4,36,1.1c6,1.5,12.8,8.6,17.6,17.3c4.5,8.6,3,12,3,12s7.5,2.3,8.6-4.5
				c1.1-6.8,2.6-10.9,2.6-22.9C498.3,310.2,498.3,307.5,498.3,306.8C498.3,307.2,498.3,307.2,498.3,306.8z"/>
		</g>
	</g>
	<g>
		<g>
			<path class="st3" d="M245.1,498.4c-1.9-0.8-4.1-1.5-6.4-1.9s-4.1-1.1-6-1.9s-3.4-1.5-4.5-2.3c-1.1-0.8-1.5-1.9-1.5-3.8
				c0-1.1,0.4-2.3,1.1-3c0.8-0.8,1.5-1.9,2.6-2.6c1.1-0.8,2.3-1.5,3.8-1.9c1.5-0.8,3-1.1,4.1-1.5c1.5-0.4,2.6-0.8,4.1-1.1
				c1.1-0.4,2.3-0.4,3-0.4h0.8v-2.3c0-0.8-0.4-0.8-1.1-1.1c-0.4-0.4-1.1-0.4-1.5-0.8l-1.9-0.8c-0.8-0.4-1.1-0.4-1.5-0.8l0,0h-0.8
				c-1.1,0-2.6,0.4-4.1,0.8c-1.5,0.4-3,1.1-4.5,1.5c-1.5,0.8-3,1.5-4.1,2.6c-1.5,1.1-2.6,2.3-3.8,3.4c-1.1,1.1-1.9,2.6-2.6,3.8
				c-0.8,1.5-1.1,3-1.1,4.5c0,1.9,0.4,3.4,1.1,4.9c0.8,1.1,1.9,2.3,3,3.4c1.1,0.8,2.6,1.5,4.1,2.3c1.5,0.4,3,1.1,4.5,1.5h0.4
				c1.5,0.4,2.6,0.8,4.1,1.1c1.5,0.4,2.6,0.8,3.8,1.5c1.1,0.8,1.9,1.1,2.6,1.9c0.4,0.8,0.8,1.5,0.8,3c0,0.8-0.4,1.5-0.8,2.3
				c-0.8,0.8-1.5,1.1-2.3,1.9c-1.1,0.4-2.3,1.1-3.4,1.5c-1.1,0.4-2.6,1.1-3.8,1.5c-1.1,0.8-2.3,1.1-3.4,1.9c-1.1,0.8-1.9,1.9-1.9,3
				c-0.4,0.8-0.4,1.5,0,1.9c0.4,0.4,0.4,1.1,1.1,1.1c0.4,0.4,0.8,0.4,1.1,0.4c0.4,0,0.8,0,1.1,0l0,0c1.1,0,2.6-0.4,4.1-0.8
				c1.5-0.4,3-1.1,4.5-1.9s3-1.9,4.5-3c1.5-1.1,2.6-2.3,3.8-3.4c1.1-1.1,2.3-2.6,3-3.8c0.8-1.5,1.1-2.6,1.1-3.8
				c0-2.3-0.8-4.1-1.9-5.6C248.9,500.3,247,499.2,245.1,498.4z"/>
			<path class="st3" d="M296.9,519c1.5,0,2.3-0.8,2.6-1.5c0.4-0.8,0.8-1.5,0.8-2.3s0-1.9-0.4-4.1c-0.4-1.9-0.8-4.1-1.5-6.4
				c-0.8-2.6-1.5-5.3-2.6-8.3c-1.1-3-1.9-6-3-9s-2.3-6-3.4-8.6c-1.1-3-2.6-5.3-3.8-7.5s-2.6-4.1-3.8-5.3c-1.5-1.5-2.6-2.3-3.8-2.3
				l0,0c-0.8,0-1.5,0-1.9,0.4c-0.8,0.4-1.5,0.8-1.9,1.9c-1.5,1.9-3.4,4.5-4.5,7.5c-1.5,3-2.6,6.4-4.1,9.8c-1.1,3.4-2.3,7.1-3,10.9
				c-0.8,3.8-1.5,7.5-2.3,10.9s-1.1,6.8-1.5,9.4c-0.4,3-0.4,5.3-0.4,6.8c0,2.3,0.4,3,1.1,3.8c0.4,0,0.4,0.4,0.8,0.4
				c0.8,0,1.5-0.8,2.6-2.6c0.8-1.9,1.9-4.5,3.4-8.3c1.1-3.8,2.6-9,4.5-15c3.4,0.4,6.4,0.8,9.4,1.1c2.6,0.4,5.6,0.8,8.3,1.1
				c0.4,0.4,0.4,1.1,0.8,2.3c0.4,1.1,1.1,2.6,1.5,4.1c0.4,1.5,1.1,3,1.5,4.1c0.4,1.1,0.8,2.3,1.1,2.6l0,0c0,0.4,0.4,0.8,0.4,1.1
				c0.4,0.4,0.4,1.1,0.8,1.5c0.4,0.4,0.8,1.1,1.1,1.5C295.4,518.7,296.1,519,296.9,519L296.9,519z M284.9,492.8c-1.1,0-1.9,0-3.4,0
				c-1.5,0-3,0-4.5,0c-1.1,0-2.3-0.8-3.4-1.1c-0.8-0.4-1.1-1.5-1.1-2.6c0,0,0-0.4,0-1.1c0-0.4,0-0.8,0-1.1c0.4-0.8,0.8-2.3,1.1-3.4
				c0.4-1.5,1.1-3,1.5-4.5c0.8-1.5,1.1-3,1.9-4.1c0.4-0.4,0.4-1.1,0.8-1.1c0.8,1.1,1.1,2.3,1.9,3.8c0.8,1.9,1.9,3.8,2.6,5.6
				s1.5,3.8,1.9,5.6C284.9,489.8,284.9,491.3,284.9,492.8z"/>
			<path class="st3" d="M307.4,502.2c0.4,1.5,0.4,3.4,0.8,4.9c0.4,1.5,0.4,3.4,0.8,4.9c0.4,1.5,0.4,3,0.8,4.1c0.4,1.1,0.4,2.3,0.8,3
				c0.4,1.5,1.1,1.9,1.9,1.9c0.4,0,1.1,0,1.5,0l0,0c0.8,0,1.5-0.4,2.3-0.8c0.8-0.4,1.5-1.1,1.5-2.6c0-2.3,0-4.5-0.4-6.8
				c-0.4-2.3-0.8-4.5-0.8-6.4c-0.4-2.3-0.8-4.5-0.8-6.4c-0.4-1.9-0.4-3.8-0.4-6c1.9,0,3.4,0.4,4.9,1.5c1.9,1.1,3.8,2.3,5.3,3.8
				c1.9,1.5,3.4,3,4.9,4.9c1.5,1.9,3.4,3.4,5.3,4.9c1.9,1.5,3.8,2.6,5.6,3.8c1.9,1.1,4.1,1.5,6.4,1.5h0.4c1.1,0,1.5-0.4,2.3-0.8
				c0.4-0.4,0.8-1.1,1.1-1.9c0-0.8,0.4-1.1,0.4-1.9s0-1.1,0-1.9c0-3,0-6.4-0.4-9.4s-0.8-6.4-1.5-9.4c-0.4-3-1.1-6-1.5-9.4
				c-0.4-3-0.8-6-0.8-9l0,0c0-0.8-0.8-1.1-1.1-1.5c-0.4-0.4-1.1-0.4-1.5-0.8c-0.4,0-1.1,0-1.5-0.4c-0.4,0-0.8,0-1.1,0h-1.1v0.8
				c0,2.6,0,5.6,0.4,8.3c0.4,2.6,0.8,5.3,0.8,7.9c0.4,2.6,0.8,5.3,0.8,7.5c0.4,2.6,0.4,5.3,0.4,7.9c0,0.4,0,0.4,0,1.1
				c0,0.4,0,1.1,0,1.5s0,0.8,0,1.1c-1.5-0.4-2.6-1.1-3.8-2.3c-1.5-1.1-3-2.3-4.9-3.8c-1.5-1.5-3-3-4.5-4.5c-1.5-1.5-3.4-3-4.9-4.1
				c-1.5-1.1-3.4-2.3-5.3-3c-1.9-0.8-3.8-1.1-6-1.1h-0.4c0,0-0.4,0-0.8,0s-0.8,0-1.1,0s-0.8,0-0.8,0c-0.4,0-0.8,0-1.1,0h-0.4v0.4
				c0,0.4-0.4,1.1-0.4,1.9l-0.8,3c-0.4,1.1-0.4,2.3-0.4,3c0,1.1,0,1.5-0.4,2.3c0,0.8,0,1.9,0,3.4C307,499.2,307,500.7,307.4,502.2z"
				/>
			<path class="st3" d="M386.5,474c-1.1-1.9-3-3.4-4.9-4.5c-1.9-1.1-4.5-1.5-7.1-1.5h-0.4c-1.5,0-3,0-4.9,0.4s-3.8,0.8-5.3,1.5
				c-1.5,0.8-3,1.9-4.1,3c-1.1,1.5-1.9,3-1.9,4.9c0,0.8,0,1.9,0.4,3.8c0.4,1.5,0.4,3.4,1.1,5.6c0.4,2.3,0.8,4.5,1.5,6.8
				c0.4,2.6,1.1,4.9,1.9,7.5c0.8,2.3,1.1,4.9,1.9,7.1c0.8,2.3,1.1,4.5,1.9,6c0.8,1.9,1.1,3.4,1.9,4.1c0.4,1.1,1.1,1.9,2.3,1.9l0,0
				c2.3,0,4.1-0.8,6-1.9c1.9-1.1,3.4-2.6,4.9-4.5c1.5-1.9,2.6-4.1,3.8-6.4c1.1-2.3,1.9-4.9,2.6-7.1c0.8-2.3,1.5-4.9,1.9-6.8
				c0.4-2.3,0.8-4.1,0.8-6c0-2.6,0-4.9-0.8-7.5C388.4,478.2,387.6,475.9,386.5,474z M371.5,506.3c-1.1-1.1-1.9-2.6-2.6-4.5
				c-0.8-1.5-1.5-3.4-1.9-5.3s-1.1-3.8-1.5-5.6s-0.8-3.8-0.8-5.3c0-1.9,0-3.4,0-4.5c0,0,0-0.4,0-0.8s0-0.8,0-1.5c0-0.4,0-0.8,0-1.1
				v-0.4c1.5-0.8,2.6-1.5,4.1-1.9c1.5-0.4,3-0.8,4.9-0.8h0.4c1.9,0,3.4,0.4,4.5,1.1s1.9,1.5,2.6,2.6c0.8,1.1,1.1,2.6,1.1,4.1
				c0,1.5,0.4,3.4,0,4.9c0,2.3-0.4,4.5-0.8,6.4c-0.4,1.9-0.8,3.4-1.5,4.9c-0.8,1.5-1.5,3.4-2.6,4.9c-1.1,1.5-2.3,3-3.4,4.9
				C373,508.2,372.3,507.4,371.5,506.3z"/>
			<path class="st3" d="M436.4,515.7c1.9,0,3.4-0.4,4.5-1.5s2.3-2.3,3.4-3.8c0.8-1.5,1.9-3.4,2.3-5.3c0.8-1.9,1.1-4.1,1.5-6.4
				s0.8-4.5,1.1-6.4c0.4-2.3,0.4-4.1,0.8-6c0-1.9,0.4-3.8,0.4-5.3c0-1.5,0-2.6,0-3.4c0-0.4,0-0.8,0-1.5c0-0.8,0-1.5,0-2.6
				c0-0.8,0-1.9,0-2.6s0-1.1,0-1.5v-0.4v-0.4c0,0,0-0.4-0.4-0.4l-0.4-0.4l-0.4-0.4c-0.4-0.4-0.4-0.4-0.8-0.4l0,0l0,0H448l0,0
				c-1.1,0-2.3,0.8-3,1.9c-0.8,1.1-1.1,2.3-1.5,3.8c-0.4,1.5-0.8,3.4-0.8,5.3c0,1.9-0.4,4.1-0.4,6.4s-0.4,4.1-0.4,6.4
				s-0.4,4.1-0.4,6c-0.4,1.9-0.8,3.4-1.1,4.9c-0.4,1.1-0.8,2.3-1.5,3l-2.3,2.3l0,0c-0.4-0.4-0.4-0.4-0.4-0.8
				c-0.4-0.8-1.1-2.3-1.9-3.4c-0.8-1.5-1.1-3-1.9-4.5c-0.8-1.5-1.1-3-1.9-4.5c-0.8-1.5-1.1-3-1.5-4.5c-0.4-1.5-0.8-2.6-1.1-3.8
				c-0.4-1.1-0.8-1.9-0.8-2.3l0,0c-0.4-1.1-1.1-1.5-1.9-1.9c-0.4,0-1.1,0-1.5,0l0,0c-1.1,0-2.3,0.4-3,1.5c-0.8,0.8-1.5,1.9-1.9,3.4
				c-0.4,1.5-0.8,3-1.1,4.5c-0.4,1.9-0.4,3.4-0.8,5.3l-0.8,5.3c-0.4,1.9-0.8,3.4-1.1,4.9c-0.4,1.5-0.8,2.6-1.5,3.8
				c-0.4,0.8-1.1,1.5-1.5,1.9c-0.8-0.8-1.5-1.9-2.3-3.4c-0.8-1.9-1.9-4.1-2.6-6.4c-0.8-2.3-1.5-4.9-2.3-7.5
				c-0.8-2.6-1.5-4.9-1.9-7.1c-0.8-2.3-1.1-4.1-1.9-5.6c-0.4-0.8-1.1-2.6-2.6-2.6s-2.3,0.8-2.6,1.5s-0.4,1.5-0.8,2.3
				c0,1.5,0,3.4,0.4,6c0.4,2.6,0.8,5.3,1.1,7.9c0.8,3,1.5,5.6,2.3,8.6c0.8,3,1.9,5.6,3.4,8.3c1.1,2.6,2.6,4.5,4.5,6
				c1.9,1.5,3.8,2.3,6,2.3l0,0c1.1,0,2.6-0.8,3.4-2.3c0.8-1.1,1.9-2.6,2.6-4.5c0.8-1.9,1.5-3.8,2.3-6c0.8-2.3,1.1-4.1,1.5-6
				c0.4-1.9,0.8-3.4,1.1-4.9c0-0.8,0.4-1.5,0.4-1.5c0.4,0,0.8,0,1.5,1.1c0.4,0.8,1.1,1.9,1.5,3.4s1.1,3,1.5,4.5
				c0.4,1.9,1.1,3.4,1.9,4.9s1.5,2.6,2.6,3.8C433,514.9,434.5,515.7,436.4,515.7L436.4,515.7z"/>
			<path class="st3" d="M532.8,508.2c-0.4,0-0.8,0-1.1,0s-0.8,0-0.8,0c-1.5,0-2.6,0.4-4.1,0.8c-1.1,0.4-2.6,1.1-3.8,1.5
				c-1.1,0.4-2.6,1.1-3.8,1.5c-1.1,0.4-2.6,0.8-4.1,0.8h-0.4c-2.3,0-4.1-0.4-5.6-1.1c-1.5-0.8-3-1.9-4.1-3c-1.1-1.5-1.9-3-2.6-4.9
				c-0.8-1.9-0.8-3.8-0.8-6c0-1.1,0.4-2.3,0.4-3.4c0.4-1.5,0.8-2.6,1.5-4.1c0.8-1.5,1.5-3,2.3-4.5c0.8-1.5,1.9-2.6,2.6-3.8
				c1.1-1.1,2.3-1.9,3.4-2.6c1.1-0.8,2.3-1.1,3.4-1.1c0.8,0,1.1,0,1.5,0.4c0.4,0.4,1.1,0.8,1.5,1.5c0.4,0.8,1.1,1.1,1.5,1.9
				c0.8,0.8,1.5,0.8,3,0.8l0,0h0.8v-0.8c0-1.5-0.4-3-0.8-4.1c-0.4-1.1-1.1-2.3-2.3-3c-0.8-0.8-1.9-1.5-3.4-1.9
				c-1.1-0.4-2.6-0.4-3.8-0.4h-0.4c-1.9,0-3.4,0.4-5.3,1.1c-1.5,0.8-3,1.9-4.5,3.4s-2.6,3-3.8,4.5c-1.1,1.9-1.9,3.4-3,5.3
				c-0.8,1.9-1.5,3.8-1.9,5.3c-0.4,1.9-0.8,3.4-0.8,4.9c0,3.4,0.4,6.8,1.5,9.4c1.1,2.6,3,5.3,4.9,7.1c2.3,1.9,4.5,3.4,7.5,4.5
				c2.6,1.1,5.6,1.5,9,1.5h0.4c1.1,0,2.6-0.4,4.5-0.4c1.9-0.4,3.8-0.8,5.3-1.5c1.9-0.8,3.4-1.5,4.5-3c1.5-1.1,2.3-2.6,2.3-4.5
				c0-0.8-0.4-1.1-0.8-1.5C533.5,508.5,533.1,508.2,532.8,508.2z"/>
			<path class="st3" d="M580,504c-0.4-2.6-0.4-4.9-0.8-7.5c-0.4-2.6-0.4-4.9-0.8-7.5c-0.4-2.6-0.4-4.9-0.4-7.5c0-0.8,0-1.9,0.4-2.6
				c0-1.1,0.4-2.3,0.4-3c0-1.1,0-2.3,0-3c0-1.1-0.4-2.3-1.1-3l-0.4-0.4H577c-1.5,0-3,0.4-3.8,1.1s-1.5,1.5-1.9,2.6
				c-0.4,1.1-0.8,2.3-0.8,3.4c0,1.1,0,2.3,0,3.8c0,1.1,0,2.3,0.4,3.8c0,1.1,0,2.3,0,3s-0.4,1.5-0.8,1.9c0,0-0.4,0.4-1.1,0.4
				l-21.4,0.4c0,0,0-0.4-0.4-1.1c0-0.8,0-1.9,0-3s0-2.3,0-3.8c0-1.5,0-2.6,0-4.1c0-1.1,0-2.3-0.4-3.4s-0.4-1.9-1.1-2.6
				s-1.5-0.8-2.6-0.8c-0.8,0.4-1.9,1.1-3,2.3l-0.4,0.4v0.4c0,0,0,0.4,0,1.1c0,0.4,0,1.1,0,1.5c0,0.8,0,1.1,0,1.5s0,1.1,0,1.1l0,0
				l0,0c0.4,1.1,0.4,2.6,0.4,4.5c0,1.9,0.4,3.8,0.4,6c0,2.3,0,4.1,0.4,6.4c0,2.3,0.4,4.5,0.4,6.8c0.4,2.3,0.4,4.1,0.8,6.4
				c0.4,1.9,0.8,3.8,1.5,5.3c0.8,1.5,1.5,2.6,2.3,3.8c1.1,1.1,2.3,1.5,3.8,1.5l0,0c0.8,0,1.9-0.4,2.3-2.6c0-1.1,0-3,0-4.9
				c-0.4-1.9-0.4-4.1-1.1-6.8c-0.4-2.3-0.8-4.9-0.8-7.1l21.4-0.4c0,3,0,5.6,0.4,7.9c0.4,2.6,0.8,5.3,1.5,7.1
				c0.8,2.3,1.5,3.8,2.3,4.9c0.8,1.5,1.9,2.3,2.6,2.3h0.4c1.1,0,1.9-0.8,2.3-2.3c0.4-1.1,0.8-3.4,0.8-6
				C580.4,508.9,580.4,506.3,580,504z"/>
			<g>
				<path class="st3" d="M470.9,504c1.5,0.4,0-1.9,0.4-3.4c0-1.5-0.8-1.5-0.4-3.4c0-1.9,1.1-1.9,0.4-3.8c-0.4-1.1-0.8-2.3-1.9-3
					c-1.5-1.1-1.5-1.1-3-1.9c-1.5-1.1-1.9-3-3-1.9c-1.9,1.1,0,2.3-0.4,4.5c0,2.3,0,2.3,0,4.5c0,1.5-0.4,1.5,0,3.4
					c0.4,0.8,1.1,1.5,2.3,2.3c1.5,0.8,1.5,0.4,2.6,1.5C469.4,504,469.8,504,470.9,504z"/>
				<path class="st3" d="M474.3,503.3c-1.1-0.8,0.4-1.5,0.4-3c0-1.5,0-1.5,0-3c0-1.5,0-1.5,0.4-3c0.4-1.1,1.1-1.9,2.3-2.3
					c1.5-0.8,1.5-0.8,3-1.5c1.5-0.8,1.9-2.6,3-1.5c1.5,1.1,0,1.9,0,3.8c0,1.9-0.4,1.9-0.4,3.8c0,1.5,0.4,1.5-0.8,3
					c-0.4,0.8-1.1,1.5-2.3,1.9c-1.5,0.4-1.5,0-3,0.8C475.8,503.3,475.8,504.4,474.3,503.3z"/>
				<path class="st3" d="M472,488.3c1.5-0.4,0-1.5,0-3c0-1.5,0-1.5,0.4-3c0-1.5,0.4-1.5-0.4-3c-0.4-1.1-0.8-1.9-1.9-2.6
					c-1.5-0.8-1.5-0.8-3-1.9c-1.5-0.8-1.5-2.3-3-1.5c-1.9,1.1-0.4,1.9-0.4,3.8s0,1.9-0.4,3.8c0,1.5-0.4,1.5,0.4,2.6
					c0.4,0.8,1.1,1.5,2.3,2.3c1.5,0.8,1.5,0.4,2.6,1.1C470.5,487.9,470.9,488.7,472,488.3z"/>
				<path class="st3" d="M475.4,489c-1.5-0.4,0-1.9,0.4-3.4c0-1.5,0.4-1.5,0.4-3.4c0-1.9,0-1.9,0.8-3.4c0.4-1.1,1.1-1.9,2.3-2.6
					c1.5-0.8,1.5-0.8,3.4-1.5c1.5-0.8,1.9-2.6,3.4-1.1c1.5,1.5,0,2.3-0.4,4.1c-0.4,2.3-0.4,2.3-0.4,4.5c0,1.5,0,1.9-1.1,3
					c-0.4,0.8-1.5,1.5-2.6,1.9c-1.5,0.4-1.5,0-3,0.8C476.9,489,476.5,489.4,475.4,489z"/>
				<path class="st3" d="M473.9,518.3c-1.5-0.4,0.4-1.5,0.4-3s0-1.5,0-3c0-1.5,0-1.5,0.4-3.4c0.4-1.1,0.8-1.9,2.3-2.6
					c1.5-0.8,1.5-0.8,3.4-1.5c1.5-0.8,1.9-2.3,3.4-1.5c1.9,1.1,0,1.9,0,3.8c0,1.9,0,1.9,0,4.1c0,1.5,0.4,1.5-0.8,3
					c-0.4,0.8-1.1,1.5-2.6,1.9c-1.5,0.4-1.9,0.4-3,1.1C475.4,518.3,475,518.7,473.9,518.3z"/>
				<path class="st3" d="M470.9,519.4c1.5,0,0-1.9,0-3.4c0-1.5-0.4-1.5,0-3.4c0-1.9,0-1.9-0.8-3.4c-0.4-1.1-1.1-2.3-2.3-2.6
					c-1.5-0.8-1.5-0.8-3-1.5c-1.5-0.8-1.9-2.6-3-1.5c-1.5,1.5,0,2.3,0,4.1c0,2.3,0,2.3,0,4.5c0,1.5,0,1.5,0.8,3.4
					c0.4,0.8,1.5,1.5,2.6,1.9c1.5,0.8,1.5,0,3,1.1C469.4,519,469.4,519.4,470.9,519.4z"/>
				<path class="st3" d="M470.1,471.4c1.9,1.5,1.5,2.3,4.1,3c1.1,0.4,1.1-0.4,2.6-0.8c1.1-0.4,1.5,0,2.6-0.8c1.5-1.5,0-1.9-0.4-4.1
					c-0.4-1.1-0.8-2.3-1.1-3.8c-0.4-1.1-1.1-2.3-1.9-3.4c-1.9,0-1.1,1.1-2.3,2.6c-0.8,0.8-1.5,1.9-1.9,3.4
					C470.5,469.2,470.1,470.3,470.1,471.4"/>
			</g>
		</g>
		<g>
			<path class="st3" d="M306.3,556.6c-1.5-0.4-3-1.1-4.5-1.5c-1.5-0.4-3-0.8-4.1-1.1s-2.3-1.1-3-1.5c-0.8-0.4-1.1-1.1-0.8-2.3
				c0-0.8,0.4-1.5,0.8-1.9c0.4-0.8,1.1-1.1,1.9-1.5c0.8-0.4,1.5-1.1,2.6-1.5c1.1-0.4,1.9-0.8,3-1.1c1.1-0.4,1.9-0.4,2.6-0.8
				c0.8,0,1.5-0.4,2.3-0.4h0.8v-1.9c0-0.8-0.4-0.8-0.8-1.1c-0.4,0-0.8-0.4-1.1-0.8l-1.1-0.8c-0.4-0.4-0.8-0.4-1.1-0.4l0,0h-0.8
				c-0.8,0-1.9,0-3,0.4c-1.1,0.4-2.3,0.8-3,1.1c-1.1,0.4-1.9,1.1-3,1.9c-1.1,0.8-1.9,1.5-2.6,2.3c-0.8,0.8-1.5,1.9-1.9,2.6
				c-0.4,1.1-0.8,2.3-0.8,3c0,1.5,0,2.6,0.8,3.4c0.4,0.8,1.1,1.9,2.3,2.3c0.8,0.8,1.9,1.1,3,1.5c1.1,0.4,2.3,0.8,3.4,1.1h0.4
				c1.1,0.4,1.9,0.4,3,0.8c1.1,0.4,1.9,0.8,2.6,1.1c0.8,0.4,1.1,0.8,1.5,1.5c0.4,0.4,0.4,1.1,0.4,1.9c0,0.4-0.4,1.1-0.4,1.5
				c-0.4,0.4-1.1,0.8-1.5,1.1c-0.8,0.4-1.5,0.8-2.3,1.1c-0.8,0.4-1.9,0.8-2.6,1.1c-0.8,0.4-1.5,0.8-2.3,1.5s-1.1,1.5-1.5,2.3
				s-0.4,1.1,0,1.5c0,0.4,0.4,0.8,0.8,1.1s0.8,0.4,1.1,0.4c0.4,0,0.8,0,1.1,0c0.8,0,1.9-0.4,3-0.8c1.1-0.4,2.3-0.8,3-1.5
				c1.1-0.8,2.3-1.1,3-1.9c1.1-0.8,1.9-1.5,2.6-2.6c0.8-0.8,1.5-1.9,2.3-2.6c0.8-1.1,0.8-1.9,0.8-3c0-1.9-0.4-3-1.5-4.1
				C308.9,557.7,307.8,556.9,306.3,556.6z"/>
			<path class="st3" d="M339.3,540.4c-2.6,0-5.6,0.4-8.3,0.4c-2.6,0-5.6,0.4-8.3,0.4c-2.6,0-5.6,0-8.3,0l0,0l0,0
				c-1.1,0.4-1.5,1.1-1.5,1.5c0,0.4,0,0.8-0.4,1.5c0,0,0,0.4,0,0.8v0.4v0.8h0.8c0.4,0,1.5,0,2.6,0.4c1.1,0,2.6,0.4,4.1,0.4l4.1,0.4
				c1.1,0,2.3,0,2.6,0s0.8,0,1.1,0c0.4,0,0.4,0,0.8,0h0.4c0.4,0,0.4,0,0.8,0l0,0c0,0.4,0,1.5,0,3c0,1.5,0,3.4,0,5.3s0.4,4.1,0.4,6.4
				c0.4,2.3,0.4,4.1,1.1,6c0.4,1.9,1.1,3.4,1.5,4.9c0.8,1.5,1.9,2.3,3,2.3c1.9,0,3-1.1,3-2.6c0-1.9,0-3.4-0.4-5.3
				c-0.4-1.5-0.8-3.4-1.1-4.9c-0.4-1.5-0.8-3.4-1.1-4.9c-0.4-1.5-0.4-3.4-0.4-4.9c0-0.4,0-0.4,0-1.1v-1.5c0-0.4,0-1.1,0-1.5
				c0-0.4,0-0.8,0-0.8c0-0.4,0.4-0.8,0.8-1.1c0.8-0.4,1.1-0.4,2.3-0.4c0.8,0,1.9,0,2.6,0c1.1,0,1.9,0,3-0.4c1.1-0.4,1.9-0.8,2.6-1.1
				c0.8-0.8,1.1-1.9,1.1-3v-0.8h-0.8C344.5,540.1,341.9,540.1,339.3,540.4z"/>
			<path class="st3" d="M379.4,544.9c-0.8-1.1-1.9-2.3-3.4-3c-1.5-0.8-3-1.1-4.5-1.1c-1.9,0-3.4,0.4-4.9,0.8c-1.5,0.4-3,1.5-4.5,2.3
				c-1.5,1.1-2.6,2.3-3.8,3.4c-1.1,1.1-2.3,2.6-3,4.1c-0.8,1.5-1.5,3-1.9,4.9c-0.4,1.5-0.8,3.4-0.8,4.9s0,3,0.4,4.5
				c0.4,1.5,0.8,3,1.9,4.5c0.8,1.5,1.9,2.3,3,3.4c1.5,0.8,3,1.1,4.9,1.1c3,0,5.6-0.8,7.9-1.9c2.3-1.1,4.5-3,6-4.9
				c1.5-1.9,3-4.1,3.8-6.8s1.5-5.3,1.5-7.9c0-1.5,0-3-0.4-4.5C380.5,547.6,380.1,546.1,379.4,544.9z M362.5,569.3
				c-0.8,0-1.5-0.4-1.9-0.8c-0.8-0.4-1.1-1.1-1.5-1.5c-0.4-0.8-0.8-1.5-0.8-2.3c-0.4-0.8-0.4-1.5-0.4-2.3c0-1.5,0.4-3,0.4-4.5
				c0.4-1.1,0.8-2.3,1.1-3s1.1-1.5,2.3-1.9c1.1-0.4,2.3-1.1,3.8-1.5l0,0c0.4,0,0.8-0.4,0.8-0.8c0.4-0.4,0.8-0.8,0.8-1.1
				c0-0.4,0-0.4,0-0.8c0-0.4-0.4-0.4-0.4-0.8c0-0.4-0.4-0.4-0.4-0.8l0,0c0,0,0,0,0.4-0.4c0.4-0.4,1.1-0.4,1.5-0.4
				c0.8,0,1.1-0.4,1.9-0.4c0.8,0,1.1,0,1.5,0c1.1,0,1.9,0.4,2.6,0.8c0.4,0.4,0.8,1.1,1.1,1.9c0.4,0.8,0.4,1.9,0.4,2.6
				c0,1.1,0,2.3,0,3c0,1.5-0.4,3.4-1.1,4.9c-0.8,1.9-1.5,3.4-3,4.5c-1.1,1.5-2.6,2.6-4.1,3.4C365.9,568.9,364.4,569.3,362.5,569.3z"
				/>
			<path class="st3" d="M418.8,564.8c0-0.4-0.4-0.4-0.4-0.8s-0.4-0.4-0.4-0.8l0,0c-3-1.9-6.4-3.4-9.8-4.9c-3-1.5-6.4-2.6-9.8-3.8
				c0-0.4,0.4-1.1,0.8-1.5c0.4-0.8,1.1-1.1,1.9-1.9c0.8-0.8,1.5-1.1,2.6-1.9s1.9-1.5,2.6-2.3s1.5-1.9,2.3-2.6
				c0.8-1.1,1.1-2.3,1.1-3.4c0-1.1,0-2.3-0.8-3c-0.4-0.8-1.1-1.5-1.9-2.3c-0.8-0.4-1.5-1.1-2.6-1.5c-0.8-0.4-1.9-0.8-2.6-0.8
				c-0.8,0-1.9-0.4-2.6-0.4s-1.9,0-2.3,0s-1.1,0-1.9,0c-0.8,0-1.9,0-2.6,0c-0.8,0-1.9,0.4-2.6,0.8c-0.8,0.4-1.5,1.1-1.9,1.9l0,0v0.4
				c0,0.4,0,0.8,0,1.1s0,1.1,0,1.9s0,1.1,0,1.9c0,0.8,0,1.1,0,1.1c0,1.1,0,3,0,4.5c0,1.9,0.4,3.8,0.4,6c0.4,2.3,0.4,4.5,1.1,6.4
				c0.4,2.3,1.1,4.5,1.5,6.4c0.8,1.9,1.5,3.8,2.3,5.3c1.1,1.5,2.3,3,3.4,3.8l0.4,0.4h0.4c0.4,0,1.1-0.4,1.1-0.8
				c0.4-0.4,0.4-0.8,0.4-1.1c0-0.4,0-0.8,0-1.1v-0.8c0-1.1,0-1.9,0-3c0-0.8-0.4-1.9-0.4-2.6c-0.4-0.8-0.4-1.9-0.8-2.6l-0.8-1.9l0,0
				c1.5,0,3.4,0.4,4.9,1.1c1.5,0.8,3.4,1.5,4.9,2.3c1.5,0.8,3.4,1.5,4.9,2.3c1.5,0.8,3.4,1.1,5.3,1.1h0.4c0.4,0,0.8,0,0.8,0
				c0.4,0,0.8-0.4,0.8-0.4c0.4-0.4,0.4-0.8,0.4-1.1c0-0.4,0-0.4-0.4-0.8C418.8,565.2,418.8,565.2,418.8,564.8z M399.6,547.6
				c-0.8,0.8-1.5,1.1-2.6,1.9c-0.8,0.4-1.5,0.8-2.3,1.1c-0.4,0.4-1.1,0.4-1.5,0.4l0,0c0-0.4-0.4-0.4-0.4-0.8c0-0.4,0-1.1-0.4-1.5
				c0-0.8,0-1.1,0-1.9c0-0.8,0-1.1,0-1.5c0-0.4,0-0.4,0-1.1c0-0.4,0-1.1,0-1.5v-2.3c0-0.4,0.4-0.4,0.8-0.8c0.4-0.4,1.1-0.4,1.5-0.4
				s1.1,0,1.5,0h0.4c0.8,0,1.1,0,1.9,0c0.4,0,0.8,0,1.5,0c0.8,0,1.1,0.4,1.9,0.4c0.4,0.4,1.1,0.4,1.1,0.8c0.4,0.4,0.4,0.4,0.4,0.8
				c0,0.4-0.4,1.1-0.8,1.9s-0.8,1.5-1.5,2.3C401.1,546.1,400.4,546.8,399.6,547.6z"/>
			<path class="st3" d="M456.3,566.7c-0.4-0.4-1.1-0.8-2.3-0.8c-0.8,0-1.9,0-2.6,0c-1.1,0-1.9,0-3,0c-0.8,0-1.5,0-2.3,0l0,0
				c-0.8,0-1.1-0.4-1.5-0.8c-0.4-0.4-1.1-1.1-1.5-2.3c-0.4-1.1-0.8-1.9-1.1-3c-0.4-1.1-0.4-2.3-0.8-3.4c0-1.1-0.4-2.3-0.4-3.4
				c0-1.1,0-1.9,0-2.3l0,0l0,0c0-1.1,0-1.9,0.4-2.3c0.4-0.4,0.4-0.8,0.8-1.1c0.4-0.4,0.8-0.4,1.5-0.8c0.8,0,1.5-0.4,2.3-0.4
				s1.5,0,2.3-0.4c0.8,0,1.5-0.4,2.3-0.8c0.8-0.4,1.5-0.8,1.9-1.5c0.4-0.8,0.8-1.5,0.8-2.6v-1.1H427h-0.4c-0.8,0-1.1,0.4-1.5,1.1
				c-0.4,0.4-0.4,0.8-0.4,1.5c0,0.4-0.4,1.1-0.4,1.5v1.9h10.1c0,1.5,0,3,0.4,4.9c0.4,1.9,0.8,3.8,1.1,6c0.4,1.9,0.8,3.8,1.1,5.6
				c0.4,1.5,0.4,3,0.4,4.5c-0.4,0-0.8,0-1.1,0l0,0H436c-1.1,0-1.9,0-3,0c-0.8,0-1.5,0-2.3,0h-0.4c-1.1,0-1.9,0.4-2.3,0.8
				c-0.4,0.4-1.1,1.1-0.8,2.6c0.4,0.8,0.8,1.9,1.9,3.4l0.4,0.4h0.4c1.9,0,3.8,0,6,0c1.5,0,3.4,0,4.9,0h1.1c1.9,0,4.1,0,6-0.4
				c1.9-0.4,4.1-0.8,6-1.5l0,0l0,0c1.1-1.1,1.9-1.9,2.3-2.6C457.4,567.8,456.6,567.1,456.3,566.7z"/>
			<path class="st3" d="M488.1,561.8c-1.1,0.4-2.6,1.1-3.8,1.9s-2.3,1.5-3.4,2.3c-1.1,0.8-1.9,1.5-3,2.3c0,0,0,0-0.4,0h-0.4
				c0,0-0.4,0-0.8-0.4c-0.4-0.4-0.8-0.8-0.8-1.5c-0.4-0.8-0.4-1.5-0.8-2.3c0-0.8-0.4-1.5-0.4-2.3c0-0.8,0-1.5,0-2.3s0-1.1,0-1.1
				c0-0.8,0-1.1,0.4-1.5c0.4-0.4,0.4-0.8,0.8-0.8c0.4-0.4,0.8-0.4,1.5-0.4c0.8,0,1.1,0,1.9,0h0.4c0.4,0,1.1,0,1.5,0s0.4,0,0.4,0
				s0,0,0.4,0s0.4,0.4,0.8,0.4s0.8,0.4,1.1,0.4c0.4,0,0.8,0,0.8,0c1.1,0,1.9-0.4,2.3-0.8s0.8-1.1,0.8-1.9c0-1.5-0.4-2.3-1.1-2.6
				c-0.8-0.4-1.5-0.8-2.3-1.1c-0.8-0.4-1.5-0.4-2.6-0.4h-1.9c-1.1,0-2.3,0-3.4,0s-1.9,0.4-3,0.8c-0.4-0.4-0.4-1.1-0.4-1.9
				c0-1.1,0-2.3,0-3.4s0.4-2.3,0.4-3.4c0-0.8,0.4-1.1,0.4-1.5c1.1,0,1.9,0,3,0l7.5,0.4c1.1,0,2.6,0,3.8,0h0.8c0.4,0,0.8,0,1.1-0.4
				c0.4-0.4,0.8-0.4,0.8-0.8c0.4-0.4,0.4-0.8,0.8-1.1l0.4-0.4v-0.4c-0.4-0.4-0.4-0.8-1.1-1.1c-0.4-0.4-0.8-0.4-1.1-0.8
				c-0.4-0.4-0.8-0.4-1.1-0.4c-0.4,0-0.8,0-1.1,0l0,0c0,0-0.4,0-1.1,0s-1.5,0-2.6-0.4c-1.1,0-2.3-0.4-3.4-0.4
				c-1.1,0-2.6-0.4-3.8-0.4l-3.4-0.4c-1.1,0-1.9-0.4-3-0.4h-1.1l0,0c-0.4,0-0.8,0-1.1,0.4c-0.4,0-1.1,0.4-1.5,0.4
				c-0.4,0.4-1.1,0.4-1.5,0.8c-0.4,0.4-0.8,1.1-0.8,1.9v0.4v0.4v0.4h0.4c0,0,0.4,0.4,0.8,0.4s0.8,0.4,0.8,0.4c0.4,0,0.8,0.4,0.8,0.4
				c0,0.4,0,1.1,0,1.9c0,1.1,0,3,0,4.5c0,1.9,0,3.8,0.4,5.6c0,2.3,0.4,4.1,0.4,6.4c0.4,2.3,0.4,4.1,0.8,6c0.4,1.9,0.8,3.8,1.5,5.3
				c0.8,1.5,1.5,3,2.3,3.8c0.8,1.1,1.9,1.9,3.4,1.9c0.8,0,1.9-0.4,3-0.8c1.1-0.4,2.3-1.1,3.4-1.9c1.1-0.8,2.6-1.5,3.8-2.3
				c1.1-0.8,2.3-1.5,3.4-2.3s1.9-1.5,2.6-1.9c1.1-0.8,1.1-1.1,1.1-1.5v-3h0C491.1,561.1,489.6,561.4,488.1,561.8z"/>
			<path class="st3" d="M518.9,556.6c-1.5-0.4-3-1.1-4.5-1.5c-1.5-0.4-3-0.8-4.1-1.1c-1.1-0.4-2.3-1.1-3-1.5
				c-0.8-0.4-1.1-1.1-0.8-2.3c0-0.8,0.4-1.5,0.8-1.9c0.4-0.8,1.1-1.1,1.9-1.5c0.8-0.4,1.5-1.1,2.6-1.5c1.1-0.4,1.9-0.8,3-1.1
				c1.1-0.4,1.9-0.4,2.6-0.8c0.8,0,1.5-0.4,2.3-0.4h0.8v-1.9c0-0.8-0.4-0.8-0.8-1.1c-0.4,0-0.8-0.4-1.1-0.8l-1.1-0.8
				c-0.4-0.4-0.8-0.4-1.1-0.4l0,0h-1.5c-0.8,0-1.9,0-3,0.4c-1.1,0.4-2.3,0.8-3,1.1c-1.1,0.4-1.9,1.1-3,1.9c-1.1,0.8-1.9,1.5-2.6,2.3
				c-0.8,0.8-1.5,1.9-1.9,2.6c-0.4,1.1-0.8,1.9-0.8,3c0,1.5,0,2.6,0.8,3.4c0.4,0.8,1.1,1.9,2.3,2.3c0.8,0.8,1.9,1.1,3,1.5
				c1.1,0.4,2.3,0.8,3.4,1.1h0.4c1.1,0.4,1.9,0.4,3,0.8c1.1,0.4,1.9,0.8,2.6,1.1s1.1,0.8,1.5,1.5c0.4,0.4,0.4,1.1,0.4,1.9
				c0,0.4-0.4,1.1-0.4,1.5c-0.4,0.4-1.1,0.8-1.5,1.1c-0.8,0.4-1.5,0.8-2.3,1.1c-0.8,0.4-1.9,0.8-2.6,1.1c-0.8,0.4-1.5,0.8-2.3,1.5
				c-0.8,0.8-1.1,1.5-1.5,2.3s-0.4,1.1,0,1.5c0,0.4,0.4,0.8,0.8,1.1s0.8,0.4,1.1,0.4c0.4,0,0.8,0,1.1,0c0.8,0,1.9-0.4,3-0.8
				c1.1-0.4,2.3-0.8,3-1.5c1.1-0.8,2.3-1.1,3-1.9c1.1-0.8,1.9-1.5,2.6-2.6c0.8-0.8,1.5-1.9,2.3-2.6c0.8-1.1,0.8-1.9,0.8-3
				c0-1.9-0.4-3-1.5-4.1C521.5,557.7,520.4,556.9,518.9,556.6z"/>
		</g>
	</g>
</g>
</svg>
