<?xml version="1.0" encoding="utf-8"?>
<!-- Generator: Adobe Illustrator 24.2.1, SVG Export Plug-In . SVG Version: 6.00 Build 0)  -->
<svg version="1.1" id="Layer_1" xmlns="http://www.w3.org/2000/svg" xmlns:xlink="http://www.w3.org/1999/xlink" x="0px" y="0px"
	 viewBox="0 0 800 800" style="enable-background:new 0 0 800 800;" xml:space="preserve">
<style type="text/css">
	.st0{fill-rule:evenodd;clip-rule:evenodd;}
	.st1{fill:#FFFFFF;}
	.st2{fill:#A4987A;}
</style>
<rect x="-0.4" y="-0.5" class="st0" width="801.5" height="801.5"/>
<g>
	<g>
		<path class="st1" d="M280.6,398.6c0.7,0.7,1.8,1.5,2.9,2.2c1.1,1.1,2.6,1.8,4.1,2.6c1.8,0.7,3.7,1.5,5.9,2.2
			c2.2,0.7,5.2,1.1,8.1,1.1c1.8,0,3.7,0,5.5-0.4c1.8-0.4,3.7-0.7,5.5-1.5s2.9-1.5,4.1-2.9c1.1-1.1,1.5-2.6,1.5-4.1
			c0-2.2-0.4-3.7-1.5-5.2c-1.1-1.1-2.6-1.8-4.1-2.6c-1.8-0.4-3.3-0.7-5.5-1.1c-1.8,0-3.7,0-5.2,0h-7.7c-1.8,0-3.7-0.4-5.5-0.7
			c-1.8-0.4-3.7-1.5-5.2-2.2c-1.5-1.1-2.6-2.6-3.7-4.1c-1.1-1.8-1.5-3.7-1.5-6.3c0-2.9,0.7-5.2,2.2-7.4c1.5-2.2,3.3-3.7,5.5-5.2
			c2.2-1.5,4.4-2.2,7.4-2.9c2.6-0.7,5.2-1.1,7.7-1.1c2.9,0,5.5,0.4,8.1,0.7c2.6,0.7,4.4,1.5,6.3,2.2c1.8,0.7,3.3,1.5,4.4,2.2
			c1.1,0.7,2.2,1.5,2.6,1.8l-4.4,6.3c-1.1-0.7-2.2-1.5-3.3-1.8c-1.1-0.7-2.2-1.1-3.7-1.8c-1.5-0.4-2.6-1.1-4.4-1.5
			c-1.5-0.4-3.7-0.4-5.9-0.4c-1.5,0-3.3,0-5.2,0.4c-1.8,0.4-3.3,0.7-4.8,1.5c-1.5,0.7-2.6,1.5-3.7,2.6s-1.5,2.6-1.5,4.1
			c0,4.1,2.9,5.9,8.8,5.9h7c2.9,0,6.3,0.4,8.8,0.7c2.9,0.4,5.5,1.5,7.7,2.6s4.1,2.9,5.5,4.8c1.5,2.2,1.8,4.8,1.8,8.1
			c0,2.9-0.7,5.2-2.2,7.4c-1.5,2.2-3.3,3.7-5.5,5.2c-2.2,1.5-4.8,2.6-8.1,2.9c-2.9,0.7-6.3,1.1-9.6,1.1c-4.1,0-7.4-0.4-10.3-1.1
			c-2.9-0.7-5.5-1.8-7.4-2.9c-2.2-1.1-3.7-2.2-5.2-3.7c-1.5-1.1-2.6-2.2-3.3-2.9L280.6,398.6z"/>
		<path class="st1" d="M393,412.9h-8.5l-7.4-17.3h-23.6l-7.7,17.3h-8.5l24-52.7h8.5L393,412.9z M365,369.8l-8.5,18.4h17L365,369.8z"
			/>
		<path class="st1" d="M437.6,368H407v-7.7h40.2l2.6,5.2l-33.5,39.8h33.9v7.7h-43.9l-2.2-5.2L437.6,368z"/>
		<path class="st1" d="M497.3,368h-30.6v-7.7h40.2l2.6,5.2l-33.5,39.8h33.9v7.7H466l-2.6-5.2L497.3,368z"/>
		<path class="st1" d="M539,412.2c-3.3-1.5-6.3-3.3-8.8-5.5c-2.6-2.2-4.8-5.2-6.3-8.5c-1.5-3.3-2.2-7-2.2-11.4
			c0-4.1,0.7-7.7,2.2-11.4c1.5-3.3,3.7-6.3,6.3-8.8s5.5-4.4,8.8-5.5c3.3-1.5,7-1.8,10.7-1.8s7.4,0.7,10.7,1.8
			c3.3,1.5,6.3,3.3,8.8,5.5s4.8,5.2,6.3,8.8c1.5,3.3,2.2,7,2.2,11.4c0,4.1-0.7,7.7-2.2,11.4c-1.5,3.3-3.7,6.3-6.3,8.8
			c-2.6,2.6-5.5,4.4-8.8,5.5c-3.3,1.5-7,1.8-10.7,1.8C546,414.1,542.3,413.7,539,412.2z M557.8,405.2c2.6-1.1,4.8-2.6,6.6-4.4
			s3.3-4.1,4.4-6.3c1.1-2.6,1.5-5.2,1.5-7.7c0-2.6-0.4-5.2-1.5-7.7c-1.1-2.6-2.6-4.4-4.4-6.3c-1.8-1.8-4.1-3.3-6.6-4.4
			c-2.6-1.1-5.2-1.5-8.5-1.5c-2.9,0-5.9,0.4-8.5,1.5c-2.6,1.1-4.8,2.6-6.6,4.4c-1.8,1.8-3.3,4.1-4.4,6.3c-1.1,2.6-1.5,5.2-1.5,7.7
			c0,2.6,0.4,5.2,1.5,7.7c1.1,2.6,2.6,4.4,4.4,6.3c1.8,1.8,4.1,3.3,6.6,4.4c2.6,1.1,5.2,1.5,8.5,1.5
			C552.6,406.7,555.5,405.9,557.8,405.2z M553.7,347.3h8.1l-7.4,8.8h-6.3L553.7,347.3z"/>
		<path class="st1" d="M603.1,360.2l31.3,40.2l0,0v-40.2h7.7v52.7h-7.7l-31.3-40.2l0,0v40.2h-7.7v-52.7H603.1z"/>
	</g>
	<g>
		<path class="st1" d="M328.9,443.5h8.5v4.8c0,0.7-0.4,1.5-0.7,2.2c-0.4,0.7-1.1,1.5-1.8,1.8c-0.7,0.4-1.5,0.7-2.6,1.1
			c-1.1,0.4-2.2,0.4-3.3,0.4s-2.6-0.4-3.7-0.7c-1.1-0.4-2.2-1.1-3.3-1.8s-1.8-1.8-2.2-2.9c-0.7-1.1-0.7-2.6-0.7-4.4
			c0-1.5,0.4-2.6,0.7-3.7s1.1-2.2,2.2-2.9c0.7-0.7,1.8-1.5,3.3-2.2c1.1-0.4,2.6-0.7,4.1-0.7c1.1,0,2.2,0,2.9,0.4
			c0.7,0.4,1.5,0.7,2.2,1.1c0.7,0.4,1.1,0.7,1.5,1.1c0.4,0.4,0.7,0.7,1.1,1.1l-1.8,1.8c-0.4-0.4-0.4-0.4-0.7-0.7s-0.7-0.7-1.1-0.7
			c-0.4-0.4-1.1-0.4-1.5-0.7c-0.7-0.4-1.5-0.4-2.2-0.4c-1.1,0-2.2,0.4-3.3,0.7s-1.8,0.7-2.6,1.5c-0.7,0.7-1.1,1.5-1.5,2.2
			c-0.4,0.7-0.4,1.8-0.4,2.9c0,0.7,0,1.8,0.4,2.6c0.4,0.7,0.7,1.5,1.5,2.2c0.7,0.7,1.5,1.1,2.6,1.5c1.1,0.4,2.2,0.7,3.3,0.7
			c0.7,0,1.5,0,2.2-0.4c0.7,0,1.1-0.4,1.8-0.7c0.4-0.4,0.7-0.7,1.1-1.1c0.4-0.4,0.4-0.7,0.4-1.1v-2.2h-5.9v-2.6H328.9z"/>
		<path class="st1" d="M368.3,453.5c-1.1-0.4-2.2-1.1-3.3-1.8s-1.8-1.8-2.2-2.9s-0.7-2.6-0.7-4.1c0-1.5,0.4-2.9,0.7-4.1
			c0.4-1.1,1.1-2.2,2.2-2.9c1.1-0.7,1.8-1.5,3.3-1.8c1.1-0.4,2.6-0.7,3.7-0.7c1.5,0,2.6,0.4,3.7,0.7s2.2,1.1,3.3,1.8
			s1.8,1.8,2.2,2.9s0.7,2.6,0.7,4.1c0,1.5-0.4,2.9-0.7,4.1c-0.4,1.1-1.1,2.2-2.2,2.9c-1.1,0.7-1.8,1.5-3.3,1.8
			c-1.1,0.4-2.6,0.7-3.7,0.7C370.9,454.2,369.4,453.9,368.3,453.5z M375,450.9c0.7-0.4,1.8-0.7,2.2-1.5c0.7-0.7,1.1-1.5,1.5-2.2
			s0.7-1.8,0.7-2.6c0-1.1-0.4-1.8-0.7-2.6s-0.7-1.5-1.5-2.2c-0.7-0.7-1.5-1.1-2.2-1.5c-0.7-1.1-1.8-1.1-2.9-1.1s-2.2,0.4-2.9,0.7
			c-0.7,0.4-1.8,0.7-2.2,1.5c-0.7,0.7-1.1,1.5-1.5,2.2s-0.4,1.8-0.4,2.6c0,1.1,0.4,1.8,0.4,2.6c0.4,0.7,0.7,1.5,1.5,2.2
			c0.7,0.7,1.5,1.1,2.2,1.5s1.8,0.7,2.9,0.7C373.1,451.3,374.2,451.3,375,450.9z"/>
		<path class="st1" d="M425.1,446.5c0,0.7,0,1.8-0.4,2.6s-0.7,1.8-1.1,2.6c-0.7,0.7-1.5,1.5-2.6,1.8c-1.1,0.4-2.6,0.7-4.1,0.7
			c-1.8,0-2.9-0.4-4.1-0.7c-1.1-0.4-1.8-1.1-2.6-1.8c-0.7-0.7-1.1-1.5-1.1-2.6c-0.4-0.7-0.4-1.8-0.4-2.6v-11.8h2.6v11.8
			c0,0.7,0,1.5,0.4,1.8c0,0.7,0.4,1.1,0.7,1.5s1.1,0.7,1.8,1.1c0.7,0.4,1.5,0.4,2.6,0.4c1.1,0,1.8,0,2.6-0.4s1.1-0.7,1.8-1.1
			c0.4-0.4,0.7-1.1,0.7-1.5c0-0.7,0.4-1.1,0.4-1.8v-11.8h2.6L425.1,446.5L425.1,446.5z"/>
		<path class="st1" d="M463.8,434.7c0.7,0,1.5,0,2.2,0.4c0.7,0.4,1.5,0.4,1.8,1.1c0.4,0.4,1.1,1.1,1.5,1.8s0.4,1.5,0.4,2.6
			c0,1.1,0,1.8-0.4,2.6s-0.7,1.1-1.1,1.8c-0.4,0.4-0.7,0.7-1.5,1.1c-0.4,0.4-1.1,0.4-1.5,0.4l4.1,8.1h-2.9l-3.7-7.7h-7v7.7h-2.6
			v-18.8h10.7V434.7z M455.3,437.6v5.5h8.5c1.1,0,1.8-0.4,2.2-0.7c0.4-0.4,0.7-1.1,0.7-2.2c0-0.4,0-1.1-0.4-1.5
			c0-0.4-0.4-0.7-0.7-0.7c-0.4-0.4-0.7-0.4-1.1-0.4c-0.4,0-0.7,0-1.1,0L455.3,437.6L455.3,437.6z"/>
		<path class="st1" d="M498,440.6L498,440.6v13.3h-2.6v-18.8h2.6l6.3,11.8l6.3-11.8h2.6v18.8h-2.6v-13.3l0,0l-6.3,11.4L498,440.6z"
			/>
		<path class="st1" d="M556.3,434.7v2.6h-12.5v4.8h6.3v2.6h-6.3v5.9H557v2.6h-15.8v-18.8h15.1V434.7z"/>
		<path class="st1" d="M596.4,434.7v2.6h-6.6v16.2h-2.6v-16.2h-6.6v-2.6H596.4z"/>
	</g>
	<g>
		<g>
			<g>
				<polygon class="st2" points="245.2,450.5 168.2,450.5 185.2,426.6 187.7,429.9 175.9,446.5 237.5,446.5 167.5,349.2 
					245.2,349.2 229,372.4 226.4,369.1 237.9,353.2 175.2,353.2 				"/>
			</g>
			<g>
				<polygon class="st2" points="206.5,450.5 168.2,397.8 206.5,349.2 245.2,394.9 239.3,394.9 206.5,355.5 173.7,398.6 
					206.5,443.9 238.2,401.2 213.2,401.2 210.2,397.1 246,397.1 				"/>
			</g>
		</g>
		<g>
			<path class="st2" d="M253.3,464.2h-94.7V336.3h95.1v127.9H253.3z M161.9,460.9H250V339.6h-88.1V460.9z"/>
		</g>
	</g>
</g>
</svg>
