<?xml version="1.0" encoding="utf-8"?>
<!-- Generator: Adobe Illustrator 24.2.1, SVG Export Plug-In . SVG Version: 6.00 Build 0)  -->
<svg version="1.1" id="Layer_1" xmlns="http://www.w3.org/2000/svg" xmlns:xlink="http://www.w3.org/1999/xlink" x="0px" y="0px"
	 viewBox="0 0 800 800" style="enable-background:new 0 0 800 800;" xml:space="preserve">
<style type="text/css">
	.st0{fill-rule:evenodd;clip-rule:evenodd;}
	.st1{fill:#FFFFFF;}
	.st2{fill:#EC1C24;}
</style>
<rect x="-0.4" y="-0.5" class="st0" width="801.5" height="801.5"/>
<g>
	<g>
		<path class="st1" d="M203.5,381.1c-3.2-1.8-8.1-3.2-14.7-3.9c-1.1,0-3.9-0.4-8.8-0.4c-2.8,0-4.9-0.4-6.3-0.7
			c-1.8-0.4-2.1-0.7-2.1-1.1s0.4-2.5,10.9-2.5c6,0,11.6,1.4,16.8,4.2l7.4-9.5c-6.3-4.2-14.7-6.3-24.9-6.3c-7.4,0-13.3,1.4-17.5,3.9
			c-4.2,2.5-6.7,6-6.7,10.9c0,4.6,2.5,8.1,7,10.2c3.9,1.8,10.2,3.2,18.2,3.5c6.7,0.4,9.1,0.7,9.8,0.7c1.4,0.4,2.1,0.7,2.1,1.4
			c0,0.4,0,1.4-2.1,2.5s-4.9,1.4-8.8,1.4c-7,0-14-2.1-20.3-6l-1.4-0.7l-7.7,9.1l1.8,1.1c7.7,5.3,16.8,8.1,27.3,8.1
			c8.1,0,14-1.4,18.6-3.9c4.6-2.8,7-6.7,7-11.9C209.1,386.7,207,383.2,203.5,381.1"/>
		<polygon class="st1" points="285.1,389.9 268.7,361.9 212.3,361.9 212.3,406 260.3,406 260.3,394.5 225.6,394.5 225.6,389.2 
			250.1,389.2 255.4,378 225.6,378 225.6,373.4 260.3,373.4 279.5,406 290.7,406 316.7,361.9 301.6,361.9 		"/>
		<polygon class="st1" points="409.1,361.9 409.1,388.5 384.3,361.9 370.3,361.9 370.3,406 383.6,406 383.6,379.7 409.5,406.7 
			429.5,361.9 		"/>
		<polygon class="st1" points="318.1,406 366.1,406 366.1,394.5 331.4,394.5 331.4,389.2 355.9,389.2 361.2,378 331.4,378 
			331.4,373.4 366.1,373.4 366.1,361.9 318.1,361.9 		"/>
		<path class="st1" d="M635.1,390.2c5.3-2.1,8.1-6.7,8.1-13c0-4.6-1.8-8.1-4.9-10.9c-3.2-2.8-7.4-4.2-12.3-4.2h-35v11.2h32.6
			c1.8,0,2.8,0.4,3.9,1.1c0.7,0.7,1.1,1.4,1.1,2.5c0,1.1-0.4,2.1-1.1,2.5c-0.7,0.7-2.1,1.1-3.9,1.1h-32.2v22.8l-21.7-41.3h-14.4
			L538,394.5h-34.3v-5.3h24.5l5.3-11.2h-29.4v-4.6h34.7v-11.6h-48v43.8h55.7l4.6-8.8h23.8l4.6,8.8h25.9v-14.4h15.8l9.8,14.4h15.4
			L635.1,390.2z M556.6,386l6-10.9l6,10.9H556.6z"/>
		<path class="st1" d="M480.9,367.1c-5.3-3.5-11.6-5.3-19.3-6c0,0-13-0.7-17.5,2.1l-13.7,30.5c1.4,2.5,3.2,4.6,5.3,6.3
			c5.6,4.6,13,7,21.7,7c9.1,0,16.5-2.5,22.1-7c5.3-4.2,8.1-9.8,8.1-16.5v-4.2h-29.1l-5.6,11.2h18.6c-1.1,1.1-2.5,2.1-3.9,2.8
			c-2.8,1.4-6.3,2.1-10.2,2.1c-4.2,0-8.1-1.1-10.9-3.2c-3.5-2.1-5.3-5.3-5.3-8.8c0-3.2,1.4-6,4.2-8.1c2.8-2.5,7-3.5,11.6-3.5h0.7
			c5.6,0.4,10.9,1.8,15.8,4.2L480.9,367.1z"/>
		<polygon class="st2" points="455,339.8 413.7,339.8 409.1,349.6 450.5,349.6 		"/>
	</g>
	<g>
		<polygon class="st1" points="155.2,460.3 157.6,460.3 157.6,454.3 165.4,454.3 165.4,452.2 157.6,452.2 157.6,449.1 168.9,449.1 
			168.9,446.6 155.2,446.6 		"/>
		<polygon class="st1" points="226.3,454.3 234,454.3 235.1,452.2 226.3,452.2 226.3,449.1 237.5,449.1 237.5,446.6 223.8,446.6 
			223.8,460.3 238.2,460.3 238.2,458.2 226.3,458.2 		"/>
		<path class="st1" d="M300.9,446.6h-8.4v13.7h8.8c2.1,0,3.9-0.7,4.9-1.8c1.4-1.4,2.1-2.8,2.1-4.9
			C308.6,449.4,305.5,446.6,300.9,446.6z M301.6,458.2H295v-8.8h6.3c2.8,0,4.9,1.8,4.9,4.6C305.8,456.1,304.1,458.2,301.6,458.2z"/>
		<path class="st1" d="M342.2,448c-1.4-1.1-3.5-1.8-6-1.8c-2.1,0-4.2,0.7-6,1.8c-1.8,1.4-2.8,3.2-2.8,5.3s1.1,3.9,2.8,5.3
			c1.4,1.1,3.9,1.8,6,1.8c2.5,0,4.6-0.7,6-1.8c1.8-1.4,2.8-3.2,2.8-5.3C345,451.5,344.3,449.4,342.2,448z M336.6,458.6
			c-3.9,0-6-1.8-6-4.9c0-2.8,2.5-4.9,6-4.9c1.8,0,3.2,0.4,4.2,1.1c1.4,1.1,1.8,2.1,1.8,3.5C342.6,456.4,340.1,458.6,336.6,458.6z"/>
		<polygon class="st1" points="374.5,454.7 368.2,447 368.2,446.6 365.4,446.6 365.4,460.3 367.8,460.3 367.8,449.8 374.5,458.2 
			381.1,449.8 381.1,460.3 383.9,460.3 383.9,446.6 380.8,446.6 		"/>
		<path class="st1" d="M437.9,446.6h-2.8l-7.4,13.7h2.8l1.4-2.8h8.8l1.4,2.8h2.8L437.9,446.6L437.9,446.6z M439.3,455H433l3.2-6
			L439.3,455z"/>
		<path class="st1" d="M539.1,446.6h-2.8l-7.4,13.7h2.8l1.4-2.8h8.8l1.4,2.8h2.8L539.1,446.6L539.1,446.6z M540.8,455h-6.3l3.2-6
			L540.8,455z"/>
		<polygon class="st1" points="635.8,458.2 635.8,446.6 633.3,446.6 633.3,460.3 645.9,460.3 645.9,458.2 		"/>
		<path class="st1" d="M203.5,451.2c0-2.8-1.8-4.2-4.6-4.2h-10.5v2.5h10.2c1.8,0,2.5,0.7,2.5,2.1s-1.4,1.8-2.5,1.8h-10.2v7.4h2.5
			v-4.9h6.3l3.5,4.9h2.8l-3.5-5.3C202.1,454.7,203.5,453.3,203.5,451.2z"/>
		<polygon class="st1" points="260.3,454.3 268,454.3 269,452.2 260.3,452.2 260.3,449.1 271.5,449.1 271.5,446.6 257.8,446.6 
			257.8,460.3 272.2,460.3 272.2,458.2 260.3,458.2 		"/>
		<polygon class="st1" points="602.8,454.3 610.5,454.3 611.6,452.2 602.8,452.2 602.8,449.1 614.1,449.1 614.1,446.6 600,446.6 
			600,460.3 614.4,460.3 614.4,458.2 602.8,458.2 		"/>
		<path class="st1" d="M580.1,451.2c0-2.8-1.8-4.2-4.6-4.2H565v2.5h10.2c1.8,0,2.5,0.7,2.5,2.1s-1.4,1.8-2.5,1.8H565v7.4h2.5v-4.9
			h6.3l3.5,4.9l0,0h2.8l-3.5-5.3C579,454.7,580.1,453.3,580.1,451.2z"/>
		<path class="st1" d="M475,446.6h-10.5v2.5h10.2c1.8,0,2.5,0.7,2.5,2.1c0,1.4-1.4,1.8-2.5,1.8h-10.2v7.4h2.5v-4.9h7.7
			c3.2,0,4.9-1.4,4.9-4.2C479.5,448.4,477.8,446.6,475,446.6z"/>
		<path class="st1" d="M509.7,446.6h-10.5v2.5h10.2c1.8,0,2.5,0.7,2.5,2.1c0,1.4-1.4,1.8-2.5,1.8h-10.2v7.4h2.5v-4.9h7.7
			c3.2,0,4.9-1.4,4.9-4.2C514.2,448.4,512.5,446.6,509.7,446.6z"/>
	</g>
	<polygon class="st1" points="495,339.8 490.4,349.6 657.8,349.6 657.8,417.9 142.9,417.9 142.9,349.6 370.3,349.6 374.8,339.8 
		132.8,339.8 132.8,428.1 668,428.1 668,339.8 	"/>
</g>
</svg>
