<?xml version="1.0" encoding="utf-8"?>
<!-- Generator: Adobe Illustrator 24.2.1, SVG Export Plug-In . SVG Version: 6.00 Build 0)  -->
<svg version="1.1" id="Layer_1" xmlns="http://www.w3.org/2000/svg" xmlns:xlink="http://www.w3.org/1999/xlink" x="0px" y="0px"
	 viewBox="0 0 800 800" style="enable-background:new 0 0 800 800;" xml:space="preserve">
<style type="text/css">
	.st0{fill-rule:evenodd;clip-rule:evenodd;}
	.st1{fill:#FFFFFF;}
</style>
<rect x="-0.4" y="-0.5" class="st0" width="801.5" height="801.5"/>
<g>
	<g>
		<g>
			<g>
				<path id="SVGID_1_" class="st1" d="M230.1,505.9c0.8-0.8,1.2-0.8,1.9-0.4c0,0,0.4,0.4,0.8,0.8c0.4,0.4,0.8,0.8,1.2,0.8
					c0.4,0.4,0.8,0.4,1.5,0.8c1.2,0.8,2.3,1.2,3.5,1.2c3.1,0,4.3-0.8,4.6-2.7c0-1.2-0.4-1.9-1.2-2.7c-0.8-0.8-2.3-1.5-4.6-2.3
					c-1.5-0.8-3.1-1.2-4.3-1.9c-1.2-0.8-2.3-1.5-3.5-2.3c-2.3-1.9-3.5-4.6-3.5-7.7c0-3.1,1.2-5.8,3.5-8.1c2.3-2.3,5.8-3.5,10.1-3.5
					c3.9,0,7.7,1.5,11.6,4.6c0.8,0.8,0.8,1.2,0.4,1.9l-3.5,4.6c-0.8,0.8-1.5,1.2-2.3,0.4c-2.7-1.9-5-3.1-6.6-3.1
					c-2.3,0-3.9,1.2-3.9,3.1c0,0.8,0.4,1.5,1.2,2.3s2.3,1.5,5,2.3c1.2,0.4,2.3,0.8,3.1,1.2c0.8,0.4,1.9,1.2,3.1,1.9
					c1.2,0.8,1.9,1.5,2.7,2.3c1.5,1.5,2.7,4.3,2.7,7c0,3.1-1.5,5.8-3.9,8.1c-2.7,2.3-5.8,3.5-9.7,3.5c-2.3,0-4.3-0.4-5.8-1.2
					c-1.2-0.4-1.9-0.8-3.1-1.5c-1.2-0.8-1.5-0.8-2.3-1.5c-0.8-0.8-0.8-0.8-1.5-1.2l-0.4-0.4c-0.8-0.8-0.8-1.2-0.4-1.5L230.1,505.9z
					 M273,477.6c0.4,0,1.2,0.4,1.2,1.2v37.9c0,0.4-0.4,1.2-1.2,1.2h-6.6c-0.8,0-1.2-0.4-1.2-1.2v-37.9c0-0.4,0.4-1.2,1.2-1.2H273z
					 M313.7,485.4v-6.6c0-0.4-0.4-1.2-1.2-1.2h-24c-0.8,0-1.2,0.4-1.2,1.2v7.7h25.2C313.3,486.1,313.7,485.7,313.7,485.4z
					 M288.5,517.5h24c0.8,0,1.2-0.4,1.2-1.2v-6.6c0-0.4-0.4-1.2-1.2-1.2h-16.3V502h8.5c0.8,0,1.2-0.4,1.2-1.2v-6.6
					c0-0.4-0.4-1.2-1.2-1.2h-17v22.8C287.8,517.1,288.1,517.5,288.5,517.5z M357,516.3c0.4,0.8,0,1.2-0.8,1.2h-6.2
					c-1.2,0-2.3-0.8-3.1-2.3l-6.2-10.1h-6.2v11.2c0,0.8-0.4,1.2-1.2,1.2h-7c-0.4,0-1.2-0.4-1.2-1.2v-37.9c0-0.4,0.4-1.2,1.2-1.2
					h16.6c3.5,0,6.6,1.5,9.3,4.3c2.3,2.7,3.9,6.2,3.9,9.3c0,2.3-0.8,4.6-1.9,7c-1.2,2.3-3.1,3.9-5,5.4L357,516.3z M334.2,496.6h7.7
					c1.5,0,2.7-0.4,3.9-1.5c0.8-1.2,1.2-2.3,1.2-3.9c0-1.5-0.4-2.7-1.2-3.5c-0.8-1.2-1.9-1.5-3.5-1.5h-7.7v10.5H334.2z M399.2,516.3
					c0.4,0.8,0,1.2-0.8,1.2h-6.2c-1.2,0-2.3-0.8-3.1-2.3l-6.2-10.1h-6.2v11.2c0,0.8-0.4,1.2-1.2,1.2h-7c-0.4,0-1.2-0.4-1.2-1.2
					v-37.9c0-0.4,0.4-1.2,1.2-1.2h16.6c3.5,0,6.6,1.5,9.3,4.3c2.3,2.7,3.9,6.2,3.9,9.3c0,2.3-0.8,4.6-1.9,7c-1.2,2.3-3.1,3.9-5,5.4
					L399.2,516.3z M376.4,496.6h7.7c1.5,0,2.7-0.4,3.9-1.5c0.8-1.2,1.2-2.3,1.2-3.9c0-1.5-0.4-2.7-1.2-3.5c-0.8-1.2-1.9-1.5-3.5-1.5
					h-7.7v10.5H376.4z M420.5,512.5l-1.9,4.3c-0.4,0.4-0.4,0.8-1.2,0.8h-7.4c-0.8,0-0.8-0.4-0.8-1.2l18.6-38.3
					c0.4-0.4,0.4-0.4,0.8-0.4h0.4c0.4,0,0.8,0,0.8,0.4l18.6,38.3c0.4,0.8,0,1.2-0.8,1.2h-7.4c-0.4,0-0.8-0.4-1.2-0.8l-1.9-4.3
					l-3.5-7.7l-5-10.5l-5,10.5 M483.6,505.9c0.8-0.8,1.2-0.8,1.9-0.4c0,0,0.4,0.4,0.8,0.8c0.4,0.4,0.8,0.8,1.2,0.8
					c0.4,0.4,0.8,0.4,1.5,0.8c1.2,0.8,2.3,1.2,3.5,1.2c3.1,0,4.3-0.8,4.3-2.7c0-1.2-0.4-1.9-1.2-2.7c-0.8-0.8-2.3-1.5-4.6-2.3
					c-1.5-0.8-3.1-1.2-4.3-1.9c-1.2-0.8-2.3-1.5-3.5-2.3c-2.3-1.9-3.5-4.6-3.5-7.7c0-3.1,1.2-5.8,3.5-8.1c2.3-2.3,5.8-3.5,10.1-3.5
					c3.9,0,7.7,1.5,11.6,4.6c0.8,0.8,0.8,1.2,0.4,1.9l-3.5,4.6c-0.8,0.8-1.5,1.2-2.3,0.4c-2.7-1.9-5-3.1-6.6-3.1
					c-2.3,0-3.9,1.2-3.9,3.1c0,0.8,0.4,1.5,1.2,2.3c0.8,0.8,2.3,1.5,5,2.3c1.2,0.4,2.3,0.8,3.1,1.2c0.8,0.4,1.9,1.2,3.1,1.9
					s1.9,1.5,2.7,2.3c1.5,1.5,2.7,4.3,2.7,7c0,3.1-1.5,5.8-3.9,8.1c-2.7,2.3-5.8,3.5-9.7,3.5c-2.3,0-4.3-0.4-5.8-1.2
					c-1.2-0.4-1.9-0.8-3.1-1.5s-1.5-0.8-2.3-1.5c-0.8-0.8-0.8-0.8-1.5-1.2l-0.4-0.4c-0.8-0.8-0.8-1.2-0.4-1.5L483.6,505.9z
					 M526.6,477.6c0.4,0,1.2,0.4,1.2,1.2v37.9c0,0.4-0.4,1.2-1.2,1.2H520c-0.8,0-1.2-0.4-1.2-1.2v-37.9c0-0.4,0.4-1.2,1.2-1.2H526.6
					z M561.4,497.7l12.4,19c0.4,0.4,0,1.2-0.4,1.2h-8.5c-0.4,0-0.4-0.4-0.8-0.4l-0.4-0.4l-7.4-11.2l-7.4,11.2
					c-0.4,0.4-0.4,1.2-1.2,1.2h-8.5c-0.4,0-0.8-0.4-0.4-1.2l12.4-19l-12.4-19c-0.4-0.4,0-1.2,0.4-1.2h8.5c0.4,0,0.4,0,0.8,0.4
					c0,0,0.4,0.4,0.4,0.8l7.4,11.2l7.7-11.2c0.4-0.4,0.4-1.2,1.2-1.2h8.5c0.8,0,0.8,0.4,0.4,1.2L561.4,497.7z"/>
			</g>
		</g>
		<g>
			<path class="st1" d="M266.8,545c0.4-0.4,0.8-0.4,0.8,0c0,0,0,0,0.4,0.4l0.4,0.4c0,0,0.4,0.4,0.8,0.4s0.8,0.4,1.5,0.4
				c1.2,0,1.5-0.4,1.5-1.2c0-0.4-0.4-0.8-1.2-1.2c-0.4-0.4-0.8-0.4-1.2-0.4s-0.4-0.4-1.2-0.4c-0.4-0.4-0.8-0.4-0.8-0.4
				s-0.4-0.4-0.8-0.4c-0.4-0.4-0.4-0.4-0.8-0.8c0,0-0.4-0.4-0.4-0.8c-0.4-0.4-0.4-1.2-0.4-1.5c0-1.2,0.4-2.3,1.5-3.1
				c0.8-0.8,2.3-1.2,3.9-1.2s3.1,0.4,4.3,1.5c0.4,0.4,0.4,0.4,0,0.8l-1.5,1.9c-0.4,0.4-0.4,0.4-0.8,0.4c-1.2-0.8-1.9-1.2-2.3-1.2
				c-0.8,0-1.2,0.4-1.2,0.8c0,0.4,0.4,0.8,1.2,1.2c1.5,0.8,2.7,1.5,3.1,1.5c1.2,0.8,1.9,1.9,1.9,3.1v0.4c0,1.2-0.4,2.3-1.5,3.1
				c-1.2,0.8-2.3,1.2-3.9,1.2c-0.8,0-1.9-0.4-2.3-0.4s-0.8-0.4-1.2-0.8c-0.4,0-0.8-0.4-0.8-0.8l-0.4-0.4c-0.4-0.4-0.4-0.4,0-0.8
				L266.8,545z"/>
			<path class="st1" d="M297.8,547.3c-1.5-1.5-2.3-3.5-2.3-5.4c0-1.9,0.8-3.9,2.3-5.4c1.5-1.5,3.5-2.3,5.4-2.3
				c1.9,0,3.9,0.8,5.4,2.3c1.5,1.5,2.3,3.5,2.3,5.4c0,1.9-0.8,3.9-2.3,5.4c-1.5,1.5-3.5,2.3-5.4,2.3
				C300.9,549.6,299.4,548.8,297.8,547.3z M305.9,545c0.8-0.8,1.2-1.9,1.2-2.7c0-1.2-0.4-1.9-1.2-2.7c-0.8-0.8-1.5-1.2-2.7-1.2
				c-1.2,0-1.9,0.4-2.7,1.2c-0.8,0.8-1.2,1.9-1.2,2.7c0,1.2,0.4,1.9,1.2,2.7s1.5,1.2,2.7,1.2S305.2,545.7,305.9,545z"/>
			<path class="st1" d="M340.4,546.1C340.4,546.1,340.8,546.1,340.4,546.1l0.4,3.1c0,0.4,0,0.4-0.4,0.4h-8.5c-0.4,0-0.4,0-0.4-0.4
				v-12.8c0-0.4,0-0.8-0.4-1.5c0-0.4,0-0.4,0.4-0.4h2.3c0.8,0,1.2,0.4,1.2,1.2v10.5H340.4z"/>
			<path class="st1" d="M372.5,534.5C372.5,534.5,372.9,534.5,372.5,534.5l0.4,9.7c0,1.5-0.4,3.1-1.5,3.9c-1.2,1.2-2.7,1.5-4.6,1.5
				c-1.9,0-3.5-0.4-4.3-1.5c-1.2-1.2-1.5-2.3-1.5-3.9v-9.3c0-0.4,0-0.4,0.4-0.4h2.7c0.4,0,0.4,0,0.4,0.4v8.9c0,0.8,0.4,1.5,0.4,1.9
				c0.4,0.4,1.2,0.8,1.9,0.8s1.5-0.4,1.9-0.8c0.4-0.4,0.8-1.2,0.8-1.9v-8.9c0-0.4,0-0.4,0.4-0.4H372.5z"/>
			<path class="st1" d="M403.9,534.5C404.3,534.5,404.3,534.5,403.9,534.5l0.4,3.1c0,0.4,0,0.4-0.4,0.4h-3.5v11.2
				c0,0.4,0,0.4-0.4,0.4h-2.3c-0.8,0-1.2-0.4-1.2-1.2v-10.8H393c-0.4,0-0.4,0-0.4-0.4v-2.7c0-0.4,0-0.4,0.4-0.4h10.8V534.5z"/>
			<path class="st1" d="M427.5,534.5c0.4,0,0.4,0,0.4,0.4v14.3c0,0.4,0,0.4-0.4,0.4h-2.7c-0.4,0-0.4,0-0.4-0.4v-14.3
				c0-0.4,0-0.4,0.4-0.4H427.5z"/>
			<path class="st1" d="M450.3,547.3c-1.5-1.5-2.3-3.5-2.3-5.4c0-1.9,0.8-3.9,2.3-5.4c1.5-1.5,3.5-2.3,5.4-2.3
				c1.9,0,3.9,0.8,5.4,2.3c1.5,1.5,2.3,3.5,2.3,5.4c0,1.9-0.8,3.9-2.3,5.4c-1.5,1.5-3.5,2.3-5.4,2.3S451.9,548.8,450.3,547.3z
				 M458.4,545c0.8-0.8,1.2-1.9,1.2-2.7c0-1.2-0.4-1.9-1.2-2.7s-1.5-1.2-2.7-1.2c-1.2,0-1.9,0.4-2.7,1.2s-1.2,1.9-1.2,2.7
				c0,1.2,0.4,1.9,1.2,2.7c0.8,0.8,1.5,1.2,2.7,1.2S457.7,545.7,458.4,545z"/>
			<path class="st1" d="M496.4,534.5c0.4,0,0.4,0,0.4,0.4v14.3c0,0.4,0,0.4-0.4,0.4h-0.8c-0.8,0-1.2-0.4-1.9-1.2l-6.2-7v7.7
				c0,0.4,0,0.4-0.4,0.4h-2.7c-0.4,0-0.4,0-0.4-0.4v-14.3c0-0.4,0-0.4,0.4-0.4h1.9c0,0,0.4,0,0.4,0.4l7,7.7v-7.7
				c0-0.4,0-0.4,0.4-0.4L496.4,534.5z"/>
			<path class="st1" d="M518.4,545c0.4-0.4,0.8-0.4,0.8,0c0,0,0,0,0.4,0.4l0.4,0.4c0,0,0.4,0.4,0.8,0.4c0.4,0,0.8,0.4,1.5,0.4
				c1.2,0,1.5-0.4,1.5-1.2c0-0.4-0.4-0.8-1.2-1.2c-0.4-0.4-0.8-0.4-1.2-0.4c-0.4,0-0.4-0.4-1.2-0.4c-0.4-0.4-0.8-0.4-0.8-0.4
				s-0.4-0.4-0.8-0.4c-0.4-0.4-0.4-0.4-0.8-0.8c0,0-0.4-0.4-0.4-0.8c-0.4-0.4-0.4-1.2-0.4-1.5c0-1.2,0.4-2.3,1.5-3.1
				c0.8-0.8,2.3-1.2,3.9-1.2c1.5,0,3.1,0.4,4.3,1.5c0.4,0.4,0.4,0.4,0,0.8l-1.5,1.9c-0.4,0.4-0.4,0.4-0.8,0.4
				c-1.2-0.8-1.9-1.2-2.3-1.2c-0.8,0-1.2,0.4-1.2,0.8c0,0.4,0.4,0.8,1.2,1.2c1.5,0.8,2.7,1.5,3.1,1.5c1.2,0.8,1.9,1.9,1.9,3.1v0.4
				c0,1.2-0.4,2.3-1.5,3.1c-1.2,0.8-2.3,1.2-3.9,1.2c-0.8,0-1.9-0.4-2.3-0.4s-0.8-0.4-1.2-0.8c-0.4,0-0.8-0.4-0.8-0.8l-0.4-0.4
				c-0.4-0.4-0.4-0.4,0-0.8L518.4,545z"/>
		</g>
	</g>
	<g>
		<g>
			<path id="SVGID_3_" class="st1" d="M481.3,303.4v62.3c0,2.3-1.2,4.6-3.5,6.2c-1.2,0.8-2.3,1.2-3.9,1.2c-1.2,0-2.3-0.4-3.1-0.8
				L400,338.3l-52.3,25.2v-16.3l49.2-23.6c1.9-0.8,4.3-0.8,6.2,0l63.5,30.6v-46.4l-67-32.1L329.2,310c-2.3,1.2-5,0.8-7-0.4
				c-1.9-1.2-3.5-3.5-3.5-6.2v-31.4c0-2.7,1.5-5.4,4.3-6.6l73.9-35.6c1.9-0.8,4.3-0.8,6.2,0l77.8,37.5v15.5L400,244.6l-67,32.1v15.1
				l63.5-30.6c1.9-0.8,4.3-0.8,6.2,0l73.9,35.6C479.7,298,481.3,300.3,481.3,303.4z M481.3,397.1c0,2.7-1.5,5.4-4.3,6.6l-73.9,35.6
				c-1.2,0.4-1.9,0.8-3.1,0.8c-1.2,0-2.3-0.4-3.1-0.8L323,403.7c-2.3-1.2-4.3-3.9-4.3-6.6v-62.7c0-2.7,1.5-5.4,4.3-6.6l73.9-35.6
				c1.9-0.8,4.3-0.8,6.2,0l49.2,23.2v15.9L400,306.5l-67,32.5v46.4l63.5-30.6c1.9-0.8,4.3-0.8,6.2,0l73.9,35.6
				C479.7,391.7,481.3,394.4,481.3,397.1z M457.3,397.1L400,369.6l-57.3,27.5l57.3,27.5L457.3,397.1z"/>
		</g>
	</g>
</g>
</svg>
