<?xml version="1.0" encoding="utf-8"?>
<!-- Generator: Adobe Illustrator 24.2.1, SVG Export Plug-In . SVG Version: 6.00 Build 0)  -->
<svg version="1.1" id="Layer_1" xmlns="http://www.w3.org/2000/svg" xmlns:xlink="http://www.w3.org/1999/xlink" x="0px" y="0px"
	 viewBox="0 0 800 800" style="enable-background:new 0 0 800 800;" xml:space="preserve">
<style type="text/css">
	.st0{fill-rule:evenodd;clip-rule:evenodd;fill:#36362E;}
	.st1{fill:#EAE7F2;}
</style>
<rect x="-0.4" y="-0.5" class="st0" width="801.5" height="801.5"/>
<g>
	<g>
		<path class="st1" d="M273.6,480.1c0.7-1.1,1.4-2.5,2.1-3.5c0.7-1.1,2.1-1.4,2.8-0.7c0.4,0.4,7.4,6,14,6c6,0,9.8-3.5,9.8-8.1
			c0-5.3-4.6-8.4-13-11.9c-8.8-3.9-15.8-8.4-15.8-18.3c0-6.7,5.3-16.2,19-16.2c8.8,0,15.1,4.6,16.2,5.3c0.7,0.4,1.4,1.8,0.4,2.8
			c-0.7,1.1-1.4,2.1-2.1,3.2c-0.7,1.1-1.8,1.8-3.2,0.7c-0.7-0.4-6.7-4.2-11.6-4.2c-7.4,0-9.8,4.6-9.8,7.7c0,4.9,3.9,8.1,10.9,10.9
			c10.2,4.2,18.6,8.8,18.6,19.3c0,9.1-8.1,16.5-19.3,16.5c-10.5,0-17.2-5.6-18.6-7C273.3,482.2,272.6,481.5,273.6,480.1z"/>
		<path class="st1" d="M335.8,436.2h-14c-1.1,0-1.8-0.7-1.8-1.8v-4.9c0-0.7,0.7-1.8,1.8-1.8H359c1.1,0,1.8,0.7,1.8,1.8v4.9
			c0,0.7-0.7,1.8-1.8,1.8h-14v50.9c0,0.7-0.7,1.8-1.8,1.8h-5.6c-0.7,0-1.8-0.7-1.8-1.8V436.2z"/>
		<path class="st1" d="M419.3,430.6c-0.4-1.1,0-2.1,1.4-2.1h6.3c0.7,0,1.4,0.4,1.4,1.1l19,42.8h0.4l19-42.8c0-0.4,0.7-1.1,1.4-1.1
			h6.3c1.4,0,2.1,1.1,1.4,2.1l-26.7,58.6c-0.4,0.4-0.7,1.1-1.4,1.1h-0.4c-0.7,0-1.1-0.4-1.4-1.1L419.3,430.6z"/>
		<path class="st1" d="M488.5,429.9c0-0.7,0.7-1.8,1.8-1.8H525c1.1,0,1.8,0.7,1.8,1.8v4.9c0,0.7-0.7,1.8-1.8,1.8h-27.4v17.6h23.2
			c0.7,0,1.8,0.7,1.8,1.8v4.9c0,1.1-0.7,1.8-1.8,1.8h-23.2v18.6H525c1.1,0,1.8,0.7,1.8,1.8v4.9c0,0.7-0.7,1.8-1.8,1.8h-34.8
			c-1.1,0-1.8-0.7-1.8-1.8L488.5,429.9L488.5,429.9z"/>
		<path class="st1" d="M287.7,532h-13c-0.7,0-1.8-0.7-1.8-1.8v-3.5c0-0.7,0.7-1.8,1.8-1.8h13v-13.3c0-0.7,0.7-1.4,1.8-1.4h3.5
			c0.7,0,1.8,0.7,1.8,1.4V525h13c0.7,0,1.4,0.7,1.4,1.8v3.5c0,0.7-0.7,1.8-1.4,1.8h-13v13c0,0.7-0.7,1.4-1.8,1.4h-3.5
			c-0.7,0-1.8-0.7-1.8-1.4V532z"/>
		<path class="st1" d="M320,505.3c0-0.7,0.7-1.4,1.4-1.4h4.6c0.7,0,1.4,0.7,1.4,1.4V525H353v-19.7c0-0.7,0.7-1.4,1.4-1.4h4.6
			c0.7,0,1.4,0.7,1.4,1.4V552c0,0.7-0.7,1.4-1.4,1.4h-4.6c-0.7,0-1.4-0.7-1.4-1.4v-20.4h-25.6V552c0,0.7-0.7,1.4-1.4,1.4h-4.6
			c-0.7,0-1.4-0.7-1.4-1.4V505.3z"/>
		<path class="st1" d="M398.6,503.2c14,0,25.3,11.2,25.3,25.3c0,14-11.2,25.3-25.3,25.3s-25.3-11.2-25.3-25.3
			C373.3,514.5,384.6,503.2,398.6,503.2z M398.6,546.8c10.2,0,18.3-8.1,18.3-18.3c0-10.2-8.1-18.3-18.3-18.3
			c-10.2,0-18.3,8.4-18.3,18.3C380.4,538.7,388.8,546.8,398.6,546.8z"/>
		<path class="st1" d="M436.9,505.3c0-0.7,0.7-1.4,1.4-1.4h19.3c8.4,0,15.4,6.7,15.4,15.1c0,6.3-4.2,11.9-10.5,14.4l9.8,17.9
			c0.4,1.1,0,2.1-1.1,2.1h-5.6c-0.7,0-1.1-0.4-1.1-0.7l-9.5-18.6h-10.5V552c0,0.7-0.7,1.4-1.4,1.4h-4.6c-0.7,0-1.4-0.7-1.4-1.4
			v-46.7H436.9z M456.9,527.8c4.6,0,8.4-3.9,8.4-8.8c0-4.6-3.9-8.4-8.4-8.4h-12.6v17.2H456.9z"/>
		<path class="st1" d="M486.8,504.3c0-0.7,0.7-1.4,1.4-1.4h1.8l30.5,35.5l0,0V505c0-0.7,0.7-1.4,1.4-1.4h4.6c0.7,0,1.4,0.7,1.4,1.4
			v47.4c0,0.7-0.7,1.4-1.4,1.4h-1.8l-30.5-36.5l0,0v34.4c0,0.7-0.7,1.4-1.4,1.4h-4.6c-0.7,0-1.4-0.7-1.4-1.4V504.3z"/>
		<path class="st1" d="M419,486.7l-26.3-58.6c-0.4-0.4-1.1-1.1-1.4-1.1h-0.7c-0.4,0-1.1,0.4-1.4,1.1l-26.7,58.6
			c-0.4,1.1,0,2.1,1.4,2.1h5.6c1.1,0,1.8-0.7,2.1-1.4l19.3-43.2h0.4l19.3,43.2c0.4,0.7,1.1,1.4,2.1,1.4h5.6
			C419,488.8,419.7,487.8,419,486.7z"/>
	</g>
	<path class="st1" d="M485.7,390.5L485.7,390.5L472,358.2c-2.1-4.6-7.7-6.3-12.3-3.5l0,0c-0.7,0.7-1.1,1.4-0.7,2.5l11.6,28.4
		c0.4,1.1-0.4,1.8-1.4,1.8h-98.3c-1.1,0-1.4-1.1-1.1-1.8l3.2-5.3c0,0,4.2-7,7.4-12.3c9.8-19-0.4-28.1-5.3-30.9
		c-4.2-2.5-9.1-3.5-13.7-3.2l0,0c0,0-10.2,0-23.5,7.4l0,0c-1.8,1.1-3.9,1.8-5.6,2.8c-7,2.8-7.4,0-7.4-0.7l-0.4-19.3
		c0-2.1,1.1-3.9,2.8-5.3l39.3-30.5l4.6-3.2c1.1-0.7,2.1-1.8,3.2-2.5c0.4-0.4,0.7-0.7,1.1-1.1h0.4c2.1-1.4,4.2-3.2,6-4.6l3.2-2.5
		c3.9-2.8,12.6-8.8,22.1-13.3c11.6-4.6,33-9.5,50.6,10.2l0.4,0.4c1.4,1.8,2.8,3.9,4.2,6c3.9,7,8.8,21.8,0,40l-0.7,1.8
		c-0.7,1.8-8.1,14.4-29.8,15.4c-1.1,0-2.1,0-3.5,0s-2.8-0.4-3.9-0.4c-0.4,0-1.1-0.4-1.4-0.4c-25.6-6-17.6-27.7-17.6-27.7
		c1.4-3.9,3.9-6.7,7-8.4l0,0c0,0,1.1-0.7,3.2-1.4c0.4,0,0.7-0.4,1.1-0.4h0.4c1.1-0.4,2.5-0.4,3.5-0.7c6.3-0.4,15.4,1.4,24.9,12.6
		l0,0c0,0,1.4,2.1,3.2,0c0.4-0.4,0.7-0.7,0.7-1.4l0,0c0.4-0.7,0.4-1.8,0.4-2.5c0-5.3-5.3-10.2-9.8-13.3c-1.4-1.1-2.5-1.8-3.9-2.5
		h-0.4c-1.1-0.4-2.1-1.1-2.8-1.4l0,0l0,0c-2.8-1.1-6-1.8-9.1-1.8c-4.9-0.4-9.1,0.4-13.7,2.1c-0.7,0.4-1.1,0.4-1.4,0.7
		c-4.6,2.1-8.1,5.3-10.9,8.8l0.4-0.4c-1.1,1.8-2.1,3.2-2.8,4.9l0,0l0,0c-1.4,3.9-2.1,8.1-2.1,11.6c-0.4,9.5,2.8,22.1,18.6,28.8
		c1.1,0.4,2.1,0.7,3.2,1.1c7.4,2.8,17.2,4.2,29.8,0.7c4.9-1.1,9.1-2.8,12.6-4.9l0,0l0,0c21.8-13,20.7-42.5,20.7-42.5l0,0
		c0.4-22.5-14-35.5-21.4-40.7c0,0-0.4,0-0.4-0.4c-0.7-0.4-1.4-0.7-1.8-1.1c-4.2-2.8-7.7-4.2-9.1-4.6c-23.5-8.4-45.3,2.5-56.2,9.5
		c-6.7,4.9-13.3,10.2-19.7,15.4l-0.4,0.4c-1.1,0.7-1.8,1.4-2.8,2.1l-9.1,7c-3.5,2.8-7.4,5.6-10.9,8.4L318.2,314
		c-1.4,1.1-2.5,2.5-3.2,4.2c-0.4,0.7-0.4,1.1-0.4,1.8v8.8c0,0.7,0,1.1,0,1.8l0.4,15.8v3.9v0.4c0,1.8,0,2.8,0.4,3.9l0,0
		c0,0,0,5.3,8.8,2.8c8.4-2.5,20.7-9.1,27-11.2l0,0c4.2-1.4,9.1-2.5,13.7-1.4c2.1,0.4,4.2,1.4,6,3.2c2.1,2.1,4.6,7.4-2.8,18.3
		l-1.1,1.4l0,0c-0.4,0.7-0.7,1.1-1.1,1.4l-3.2,4.6l-15.1,20.4c-0.7,0.7-0.7,2.1-0.4,3.2c0.4,0.7,1.4,1.4,2.5,1.4l0,0h10.5h119.7
		c1.8,0,3.9-0.7,4.9-2.5C486.4,394.7,486.4,392.3,485.7,390.5z"/>
</g>
</svg>
