<?xml version="1.0" encoding="utf-8"?>
<!-- Generator: Adobe Illustrator 24.2.1, SVG Export Plug-In . SVG Version: 6.00 Build 0)  -->
<svg version="1.1" id="Layer_1" xmlns="http://www.w3.org/2000/svg" xmlns:xlink="http://www.w3.org/1999/xlink" x="0px" y="0px"
	 viewBox="0 0 800 800" style="enable-background:new 0 0 800 800;" xml:space="preserve">
<style type="text/css">
	.st0{fill-rule:evenodd;clip-rule:evenodd;fill:#FFFFFF;}
	.st1{fill:#EE453C;}
	.st2{fill:#A7DBDC;}
	.st3{fill:#32BCB8;}
	.st4{fill:#FFCE5B;}
	.st5{fill:#135778;}
</style>
<rect x="-0.4" y="-0.5" class="st0" width="801.5" height="801.5"/>
<g>
	<g>
		<g>
			<g>
				<g>
					<g>
						<g>
							<path class="st1" d="M414.5,510.3c0,0,8.5,9.7,13.7-3.7c6.1-15.8-16.9-29.5-16.9-29.5l12,2.9c0,0,73.1,27.4,52.8-26L484,444
								c0,0,31,13.4,53.8-17.6l-5.3,9.8c0,0,4.3,44.2-74.3,73.4c0,0-1.6,8.8-15,10.3l-9.8,5.2C433.3,525.2,428.7,526.6,414.5,510.3z
								"/>
							<path class="st2" d="M523.3,355.1c0,0-23.8-31-94.1,7.8s-86.9,58.4-151.5,49.1c0,0-78.6-19.6-36.2-109.6l20.2-26.4
								c0,0,0.4,79.3,58,85.4c35.1,3.7,60.9-6.3,104.4-21.3s84.3-18.6,96.2,1.6C532.1,361.8,523.3,355.1,523.3,355.1z"/>
							<path class="st3" d="M567.8,363.9c0,0,4.2,51.3-37.2,90.2c0,0-11.3,36.5-72.4,55.6l-8.3,9.3l-9.3,0.5l-7.2,5.7l-11.9-4.1
								c0,0-63.6,9.8-109.1-27.9c0,0,2.1-6.7,16-3.6c0,0,24.3,14.5,37.7,12.9c0,0-17.1-12.9,0.5-34.6c0,0-19.6-6.7-41.4,5.2
								l-14.5-4.7c0,0-7.8-7.2,5.2-10.3c0,0,22.7-12.4,93.6-1.6c0,0,24.3-16.5,9.3-36.7c0,0,18.6-2.6,21.7,8.3
								c0,0,14-17.6-10.9-35.7c0,0,41.9-15.5,55.3,22.7h4.7c0,0,7.2-12.9,29.5-16c0,0,24.9-23.3,4.1-43.9c0,0-22.2-31-79.1,0.5
								c0,0-77,50.7-117.4,56.4c0,0-71.2,20.4-101.7-49.1c0,0-7.9,144.7,116.7,185.6c0,0,136,49.6,213.5-80.1
								C555.4,468.3,589,409.4,567.8,363.9z"/>
							<path class="st4" d="M398.7,472.4c0,0-14.5,29.5-30.5,27.4c-16-2.1-9.8-27.9-1.6-32.1L398.7,472.4z"/>
							<path class="st4" d="M410.1,453.3c0,0,20.7-14.5,8.8-33.6c0,0,19.1-2.6,22.2,10.3c0,0,11.9-22.7-11.4-37.7
								c0,0,40.3-15.5,55.3,22.7c0,0,13.4,43.4-40.8,50.7L410.1,453.3z"/>
						</g>
					</g>
				</g>
				<path class="st5" d="M400.1,562.2c-38.9,0-76-12.2-107.2-35.2c-30.6-22.6-53-53.5-64.8-89.4c-6-18.2-9-37.2-9-56.5
					c0-16.8,2.3-33.5,6.9-49.6l0.2-1.3l0.1,0l0.3-1.1c3.6-12.1,8.6-23.9,14.8-35.1l0.6-1c0.3-0.6,0.6-1.1,0.9-1.6l0.3-0.5
					c0.4-0.7,0.8-1.4,1.3-2.1c0.2-0.4,0.9-1.4,0.9-1.4c0.6-1,1.3-2,1.9-3.1l0.5-0.7c5.9-9.2,12.6-17.9,20.1-25.8l1.8-1.8
					c0.4-0.5,0.9-0.9,1.4-1.4l0.7-0.7l-0.1,0.9c-0.4,2.4-0.7,4.8-1,7.3c-0.9,6.9-1.3,12.6-1.5,15.5c-0.7,6.3-0.6,13.3,0.3,20.6
					c2.7,21.2,14.1,40.3,30.5,51.1c10.9,7.2,23.8,10.9,38.4,10.9c9.4,0,19.7-1.5,30.6-4.6c21.2-5.9,38.3-12.1,53.4-17.6
					c21-7.6,39.2-14.2,56.6-14.2c8.8,0,17.3,1.7,26,5.1c30.7,12,30,38.5,28.4,49.3c-0.6,6.3-3,12.7-6.4,17.4
					c-3.8,5.2-8.9,5.9-13.8,6.6c-4.3,0.6-8.8,1.2-13.4,4.8c-8.2,6.4-9.9,14.4-10.3,16.7l0,0.2l0,0.1c0.5,6.1-0.4,11.8-2.5,17l-0.4,1
					l0.9,0.5c4.2,2.4,8.6,3.6,13.1,3.6c0,0,0,0,0,0c20.4,0,37.1-24.6,37.2-24.8l3.1-4.6c4.3-7.2,11.6-22.6,12.1-44.7l0.6,0
					c0.5,3.1,0.8,6.6,0.7,10.4c-0.2,14.3-9.2,36.5-17.5,50.1l-0.1,0.2l0,0.2c0,0.1-1.4,8.1-1.9,12.7l-0.5,3.8l2.6-2.9
					c12-13.4,31.8-42.3,29.5-85.6l-0.6-11.4l0.6,0.9c3.7,5.3,6.4,13.5,7.1,17.6c2.3,10.5,8.4,38.5-3.7,74.9l-0.2,0.5l0.1,0.1l0,0.1
					c-0.5,1.2-0.9,2.5-1.4,3.7c-0.6,1.7-1.2,3.1-1.7,4.5l-0.1,0.3l-0.1,0l-0.5,1.1C536.9,519.4,472,562.2,400.1,562.2z M229.6,384.3
					c0.8,45.6,19.1,88.3,51.6,120.3c32.6,32.1,75.7,49.7,121.3,49.7c67.4,0,129.2-39.3,157.5-100.2c1.3-2.8,2.5-5.5,3.5-8.2
					c7.1-19.5,9.9-39.1,8.3-58.1l-0.7-8.9c-7.2,47.4-27.2,65.5-38,75.3c-0.8,0.7-1.6,1.4-2.3,2.1l-0.6,0.5l-0.1,0.1
					c-23.1,42.1-68.2,52.4-68.6,52.5l-0.8,0.2l-0.1,0.8c-1.4,6.4-6.6,9.1-6.8,9.2c-2.4,1.5-5,1.6-6.9,1.6c-1,0-2-0.2-3-0.5l-0.8-0.2
					l-0.5,0.6c-2.7,3.2-5.8,5-9.2,5.3c-0.2,0-0.4,0-0.6,0c-0.2,0-0.4,0-0.5,0c-2.8,0-5.6-1.2-8.5-3.5l-0.5-0.4l-0.6,0.2
					c-4.4,1.2-10.7,1.8-18.7,1.8c-13.7,0-27.4-1.7-27.6-1.7c-19.4-2.9-32.7-7.1-47.6-15.1c-13.5-7.2-18.9-12.9-16.7-17.5
					c1.6-3.3,6.8-3.4,9.9-3.4c0,0,1.1,0,1.4,0c2.4,0,10.7,0.4,15.8,5.4c1.9,1.9,8.1,4,10.1,4.6l0.1,0c0.1,0,3,1,8.6,1.9l2.8,0.5
					l-1.6-2.3c-7.8-11.5-2.1-21.7,2-26.8l1.5-1.9l-2.4-0.1c-1.4,0-2.8-0.1-4.1-0.1c-8.7,0-13.9,0.9-15.3,1.2l-0.2,0l-0.1,0
					c-1,0.5-6.3,2.8-10.4,4.3c-2,0.7-3.9,1.1-5.8,1.1c-2.7,0-5.6-0.7-8.8-2.2l-0.7-0.3c-2.9-1.3-7.3-3.2-8-6.6
					c-1.1-5,5.5-9.3,19.7-12.8c12.9-3.2,27.3-3.8,37.1-3.8c7,0,13.9,0.3,19.9,1c6.8,0.7,13.4,1.5,19.5,2.5l0.1,0l0.1,0
					c0.5,0,1.7-0.1,3.2-0.3l0.2,0l0.1-0.1c3.7-1.6,10.3-5.2,12.9-11.5c2.2-5.4,1-12-3.5-19.5l-1.7-2.8l3.2-0.7
					c0.1,0,2.7-0.6,6.3-0.6c3.8,0,9.1,0.6,13.2,3.7c0.8,0.6,1.6,1.3,2.3,2.2l1.8,2.1l0.4-2.7c1.6-12-2.4-19.3-6.1-23.2
					c-3.8-3.6-8-4.9-10.9-5.2l-0.6-0.1l0.4-0.4c6.1-5.9,15.2-7.2,21.8-7.2c3.7,0,6.4,0.4,6.6,0.5l0.2,0l0,0c6.3,0.7,11.9,2.3,16.7,5
					c7.9,4.3,13.5,11.2,16.7,20.4l0.8,2.4l1.3-2.2c2.1-3.4,4.7-6.4,7.9-8.9c5.5-4.3,11.1-5.1,15.6-5.7c5.1-0.7,8.2-1.3,10.7-4.7
					c5.3-7.3,11.3-24.6-3.6-38.4c-6.6-6.1-16.9-9.5-29-9.5c-12.7,0-33.7,3.6-61.3,21l-3.5,2.2c-34.9,21.9-78.2,49.1-126.3,49.1
					c-7.9,0-15.8-0.7-23.5-2.2c-17.4-3.3-31-11.7-40.3-25c-1.8-2.6-3.6-7.4-5-10.9c-0.3-0.9-0.7-1.7-0.9-2.4L229.6,384.3z
					 M421.3,516.4c4.2,3.7,8.1,5.6,11.6,5.6c0.2,0,0.3,0,0.5,0c2-0.1,3.9-0.9,5.6-2.3l1-0.9c-3-2.3-3-2.3-3-2.3l-0.8-0.8l1.1,0.3
					c0.3,0.1,0.8,0.2,1.4,0.4c1.5,0.5,3.6,1.1,5.4,1.2c0.2,0,0.4,0,0.6,0c1.4,0,2.5-0.3,4.1-0.8c5.2-1.7,7.2-7.1,7.2-11.5l0-0.2
					l0.2-0.1c37-8,72.3-39.2,75.5-66.7l0.4-3.3l-2.4,2.3c-10.5,10-17.9,15.5-26.8,15.5c-5.2,0-10.9-1.9-17.8-6l-1-0.6l-0.6,1
					c-1.6,2.4-3.5,4.7-5.6,6.7l-0.7,0.6l0.4,0.8c2.8,5.5,5.2,17.3-0.3,25.6c-3.9,5.8-10.6,8.7-20,8.7c-8.6,0-19.6-2.5-32.6-7.3
					c-8-3-16-5.5-23.9-7.6l-1.1-0.3l-0.4,1c-1.9,5.4-8.6,16.6-17,23.2l-1.4,1.1l1.5,0.9c2.4,1.4,10.9,6.1,18.9,6.3l0.5,0
					c4.3,0,7.5-1.4,9.3-4.1c1.8-2.8,1.9-6.7,0.3-11.7l-0.3-0.9l0.8,0.6c1.6,1.2,2.9,3.1,3.9,5.4c1.9,4.3,1.5,8.2-1.1,11.1
					c0.3,0.8,1.7,4.1,4.7,4.1l0.2,0c2.5-0.1,4.5-1.5,6.1-4.2c2.1-3.4,2.8-7.2,2.2-11.4l0.6-0.2c0.2,0.5,0.3,0.8,0.3,0.8
					c1.9,6.1,2.1,10.5-2.3,15.2c-2.1,2.3-4.5,2.7-6.2,2.7c-0.4,0-0.7,0-1-0.1L421.3,516.4z M318.6,490.4c-0.9,0-3.4,0-4,1.7
					l-0.1,0.1l0,0.1c-0.4,2.3,3.3,4.4,15.1,10.7l1.5,0.8c14.4,7.7,27.3,11.8,46.1,14.6c5.3,0.8,16.5,1.6,26.6,1.6
					c5.6,0,10.2-0.3,13.8-0.7l2.1-0.3l-1.3-1.6c-2.4-3.2-4.1-6.2-4.7-7.2l-0.6-1.1l-1.1,0.7c-0.7,0.4-1.5,0.9-2.3,1.2
					c-2.3,1-4.8,1.5-7.6,1.5c-5.8,0-12.2-2.3-19-6.8l-0.3-0.2l-0.4,0c-1.9,0.1-3.8,0.2-5.6,0.2c-15.3,0-26.7-3.3-28.7-4.2l-0.1,0
					c-4.1-1.2-9.6-3.4-12-5.8c-2.5-2.5-9.1-5.2-14.5-5.2l-1.1,0c-0.1,0-0.2,0-0.4,0C319.6,490.4,319.1,490.4,318.6,490.4z
					 M363.9,495.5c1.9,2.4,4.1,3.6,6.5,3.6c0.5,0,1-0.1,1.6-0.2c4.4-0.8,9.7-4.9,14.9-11.5c3.4-4.3,6.5-9.3,7.9-13l0.5-1.3l-1.4-0.3
					c-2.2-0.5-4.3-1-6.4-1.4l-0.4-0.1l-0.3,0.2c-2.7,1.2-7,4.4-12.6,12.9c-3.2,4.8-6.5,9.9-10.4,9.9c-0.3,0-0.7,0-1-0.1L363.9,495.5
					z M361.6,491.8c0.2,0.1,0.6,0.3,1.4,0.3c1.5,0,4.7-1,8.7-7.8c2-3.3,6-9.4,11.4-13.6l-2.3-0.4c-3.7-0.6-7.4-1.1-11-1.4l-0.5,0
					l-0.4,0.3c-1.4,1.2-4.1,3.8-6.1,7.2C359.6,481.7,359.3,486.8,361.6,491.8z M356.5,463.5c14.3,0,38,2.5,69.9,14.4
					c12,4.5,23,6.8,31.7,6.8c8.6,0,14.7-2.3,17.7-6.7c4.1-6.2,2.5-17.2,0-20.7l-0.7-1l-1,0.6c-7.7,5.1-18.9,9.3-29.3,11.1l-0.1,0
					l-1.5-0.3c-0.2-0.1-10-5.9-40.1-10.5l-0.1,0c-6.1-0.9-12.8-1.8-19.7-2.5c-5.8-0.6-12.7-0.9-19.7-0.9c-14.5,0-27.8,1.3-37.4,3.7
					c-14,3.4-16.4,5.2-16.1,7.3c0.1,2.3,2.9,3.2,4.5,3.7l0.1,0c0.2,0.1,0.4,0.1,0.5,0.2l0.8,0.3c2,0.9,4.4,1.4,6.8,1.4
					c2.1,0,4.2-0.4,6.1-1c4-1.4,9.3-3.8,10.3-4.3l0.5-0.2C340.3,464.8,346.1,463.5,356.5,463.5z M439.8,461.1c2.3,0.9,3.8,1.6,4.6,2
					l0.4,0.2l0.4-0.1c17.5-3.1,29.4-9.8,35.3-19.9c4.2-7.1,4.5-14.5,4.1-19.5l-0.1-1.3c-0.4-6.2-3.2-11.6-4.7-14
					c1.4,7.7,0.2,18.4-2.8,24.2c-4.7,9-14,16.9-27.7,23.5c-2.5,1.2-5.2,2.4-7.9,3.4l-2.8,1.1L439.8,461.1z M431.1,458.3
					c1.4,0.4,2.8,0.8,4.1,1.2l0.4,0.1l0.4-0.1c10.7-3.7,29.9-12.1,38.1-27.7c4.9-9.4,5.7-24.2-1.4-32.8l-0.1-0.1l-0.1-0.1
					c-6.3-5-15.1-6.8-18-7.3l3.2,2.8c4.6,4.7,6.7,12.2,6.3,22.2c-1.3,26.7-27,37.7-32.1,39.6l-3.5,1.3L431.1,458.3z M421,455.8
					c1.1,0.3,2.2,0.5,3.3,0.8l0.3,0.1l0.3-0.1c10.5-3.6,35-14.7,36.2-40.2c0.5-9.5-1.9-16-7.5-20.5c-3.1-2.5-7.4-3.9-12.4-3.9
					c-1.3,0-2.7,0.1-4,0.3l-2.6,0.4l2,1.7c5.5,4.9,11.7,13.9,9.3,29.5c-2.7,17.7-15.2,25.9-25.2,29.7l-3.8,1.4L421,455.8z
					 M422.5,422.8c3.3,7.1,3.7,13.7,1.4,19.4c-0.4,1-0.9,2-1.5,3l-2.3,3.8l3.9-2c6.7-3.4,11.6-8.2,14.6-14.2l0.2-0.3l0-0.4
					c-0.4-3.6-1.8-6.3-4.2-8.1c-3.1-2.4-7.5-2.9-10.7-2.9l-2.2,0L422.5,422.8z M255.5,290.1c-9.6,15.4-16.7,32.2-21,49.8l-0.3,0.1
					l0.3,0c-1.8,16.3-0.6,46.1,28.1,62.3c11.3,6.4,25,9.6,40.5,9.6c10.6,0,21.9-1.5,33.6-4.4c31.4-8.7,60.6-27,86.3-43.2l3.5-2.2
					c20.1-12.6,40.1-20,57.8-21.4c2-0.2,4-0.2,6-0.2c13.2,0,25.2,4.2,34.1,11.7l-2.9-4.9c-4.4-6-10.7-10.8-18.6-14.1
					c-8.1-3.3-16-4.9-24.3-4.9c-16.1,0-32.4,5.9-55,14.1c-15.2,5.5-32.4,11.7-53.8,17.7c-9.5,2.6-18.6,4.2-27.2,4.6l-0.1,0
					c-5.2,0.7-10.2,1-15,1c-62,0-69.2-57.5-69.9-75.1l-0.2-3.9L255.5,290.1z"/>
				<g>
					<polygon class="st5" points="203.2,399.3 197.1,399.6 196.7,392.6 202.9,392.3 202.7,389.7 187.9,390.4 188,393 194.2,392.7 
						194.5,399.7 188.3,400 188.4,402.6 203.3,401.9 					"/>
					<path class="st5" d="M206.1,422.6l-15.8-3.4l0.5,2.8l4.3,0.9l1.2,6l-3.6,2.4l0.5,2.8l13.4-9L206.1,422.6z M202.9,424.6
						l-4.4,2.9l-0.8-4L202.9,424.6z"/>
					<path class="st5" d="M210.9,458.6c1.4-0.5,2.4-1.3,3-2.5c0.5-1.2,0.6-2.6,0-4.1l-2.2-6.4l-14.1,4.8l0.9,2.5l4.7-1.6l1.3,3.9
						c0.5,1.5,1.4,2.6,2.5,3.2c0.7,0.3,1.3,0.5,2.1,0.5C209.6,458.9,210.2,458.8,210.9,458.6z M210.1,448.9l1.3,3.8
						c0.3,0.9,0.3,1.6,0.1,2.2c-0.3,0.6-0.7,1-1.5,1.2c-0.7,0.3-1.4,0.2-1.9-0.1c-0.6-0.3-1-0.9-1.3-1.8l-1.3-3.8L210.1,448.9z"/>
					<path class="st5" d="M225.2,481.1c0.4-1.3,0.2-2.6-0.5-4l-3.1-6l-13.3,6.7l1.2,2.3l4.4-2.2l1.9,3.7c0.7,1.4,1.7,2.4,2.9,2.8
						c0.5,0.2,1,0.3,1.5,0.3c0.8,0,1.6-0.2,2.4-0.6C224,483.4,224.8,482.4,225.2,481.1z M220.5,474.5l1.8,3.6
						c0.4,0.8,0.5,1.6,0.4,2.2c-0.2,0.6-0.6,1.1-1.3,1.4c-0.7,0.4-1.3,0.4-1.9,0.2c-0.6-0.2-1.1-0.7-1.5-1.6l-1.8-3.6L220.5,474.5z"
						/>
					
						<rect x="222.2" y="498.8" transform="matrix(0.8323 -0.5543 0.5543 0.8323 -238.7418 211.1768)" class="st5" width="14.9" height="2.6"/>
					<polygon class="st5" points="245.1,525.3 248.1,512.5 246.4,510.6 235.1,520.3 236.8,522.3 244.8,515.4 241.8,528.1 
						243.5,530.1 254.8,520.4 253.1,518.4 					"/>
					<polygon class="st5" points="256.7,543.3 265.2,550.7 266.9,548.7 260.4,543.1 262.8,540.4 268.5,545.4 270.3,543.5 
						264.5,538.4 266.8,535.7 273.3,541.4 275,539.4 266.5,532.1 					"/>
					<path class="st5" d="M291.8,551.5c-1.6-1-3-1.5-4.2-1.3c-1.3,0.1-2.3,0.7-3,1.8c-0.5,0.8-0.7,1.6-0.5,2.4
						c0.1,0.7,0.5,1.4,0.9,2.1c0.4,0.6,1,1.3,1.6,1.9c0.6,0.6,1.1,1.2,1.6,1.7c0.4,0.5,0.8,1,0.9,1.5c0.1,0.4,0.1,0.7-0.1,1
						c-0.3,0.4-1.1,1.6-3.9-0.2c-1-0.6-1.6-1.3-2-2c-0.4-0.7-0.4-1.4,0-2.1l0.3-0.4l-2.3-1.5l-0.3,0.5c-0.7,1.3-0.8,2.6-0.4,3.8
						c0.4,1.3,1.5,2.6,3.2,3.7c1.5,1,2.8,1.4,4.1,1.4c0,0,0.1,0,0.1,0c1.4,0,2.5-0.7,3.3-1.9c0.7-1.1,0.8-2.2,0.2-3.5
						c-0.2-0.5-0.5-1.1-0.9-1.6c-0.4-0.5-0.8-1-1.2-1.4l-1.2-1.3c-0.4-0.4-0.7-0.8-1-1.2c-0.2-0.3-0.4-0.7-0.4-1
						c-0.1-0.3,0-0.5,0.1-0.5c0.1-0.2,0.3-0.4,0.5-0.5c0.2-0.1,0.4-0.2,0.6-0.2l0,0c0.3,0,0.6,0,1,0.1c0.4,0.1,0.9,0.4,1.5,0.7
						c0.5,0.4,1,0.7,1.2,1c0.8,0.9,0.9,1.7,0.5,2.5l-0.2,0.4l2.2,1.5l0.3-0.5c0.6-1.1,0.8-2.3,0.4-3.5
						C294.3,553.7,293.3,552.6,291.8,551.5z"/>
					<path class="st5" d="M315.3,564.8c-1.7-0.8-3.1-1.1-4.3-0.8c-1.2,0.3-2.2,1.1-2.7,2.2c-0.4,0.8-0.5,1.7-0.2,2.4
						c0.2,0.7,0.6,1.3,1.2,2c0.5,0.6,1.1,1.1,1.8,1.7c0.6,0.5,1.2,1,1.8,1.5c0.5,0.5,0.9,0.9,1.1,1.3c0.2,0.3,0.2,0.7,0,1
						c-0.2,0.5-0.8,1.7-3.8,0.3c-1-0.5-1.8-1.1-2.2-1.7c-0.5-0.7-0.5-1.3-0.3-2.1l0.2-0.5l-2.4-1.2l-0.2,0.5
						c-0.5,1.4-0.5,2.7,0.1,3.9c0.6,1.3,1.9,2.4,3.7,3.2c1.3,0.6,2.5,0.9,3.5,0.9c0.3,0,0.6,0,0.8-0.1c1.3-0.2,2.3-1,3-2.3
						c0.5-1.2,0.5-2.3-0.3-3.5c-0.3-0.5-0.7-1-1.2-1.4c-0.4-0.4-0.9-0.8-1.4-1.2l-1.4-1.1c-0.4-0.4-0.8-0.7-1.1-1
						c-0.3-0.3-0.5-0.6-0.6-0.9c-0.1-0.3-0.1-0.4,0-0.5c0.1-0.2,0.2-0.4,0.4-0.6c0.1-0.1,0.3-0.2,0.6-0.3c0.3-0.1,0.6-0.1,1.1,0
						c0.4,0.1,1,0.2,1.5,0.5c0.6,0.3,1,0.6,1.4,0.9c0.9,0.8,1.2,1.6,0.9,2.4l-0.1,0.4l2.4,1.1l0.2-0.5c0.5-1.2,0.5-2.3-0.1-3.5
						C318.1,566.7,317,565.6,315.3,564.8z"/>
					<path class="st5" d="M355.7,583.1c0.5-0.4,1-0.6,1.6-0.7c0.6-0.1,1.4-0.1,2.3,0.1c0.9,0.2,1.6,0.5,2.1,1.1
						c0.6,0.6,0.9,1.2,1.1,2.1l0.1,0.3l2.7,0.6l-0.1-0.7c-0.2-1.5-0.8-2.8-1.7-3.8c-1-1.1-2.3-1.8-3.9-2.2c-2.1-0.4-4-0.1-5.6,1.1
						c-1.5,1.1-2.5,2.8-3,4.9c-0.4,2.1-0.2,4,0.8,5.6c1,1.7,2.6,2.8,4.7,3.3c0.6,0.1,1.1,0.2,1.7,0.2c1,0,1.9-0.2,2.8-0.6
						c1.3-0.6,2.3-1.5,3.1-2.8l0.4-0.6l-2.7-0.6l-0.2,0.3c-0.5,0.7-1.1,1.2-1.8,1.5c-0.7,0.3-1.5,0.4-2.4,0.2h0
						c-1.6-0.3-2.7-1-3.3-2.2c-0.6-1.1-0.8-2.3-0.5-3.8C354.1,584.9,354.7,583.9,355.7,583.1z"/>
					<path class="st5" d="M388.3,583.7L388.3,583.7c-2.2-0.1-4.1,0.5-5.6,1.9c-1.5,1.3-2.3,3.1-2.4,5.2c-0.1,2.1,0.5,4,1.8,5.5
						c1.3,1.6,3.1,2.4,5.3,2.6c0.2,0,0.4,0,0.6,0c2,0,3.6-0.6,5-1.9c1.5-1.3,2.3-3.1,2.4-5.2c0.1-2.1-0.5-4-1.8-5.5
						C392.3,584.7,390.5,583.8,388.3,583.7z M392.8,591.6c-0.1,1.5-0.6,2.6-1.5,3.5c-1,0.9-2.2,1.3-3.7,1.2
						c-1.5-0.1-2.6-0.6-3.5-1.7c-0.8-1-1.2-2.2-1.1-3.7c0.1-1.5,0.6-2.6,1.5-3.5c1-0.9,2.2-1.3,3.7-1.2c1.5,0.1,2.6,0.6,3.5,1.7
						C392.5,588.9,392.9,590.1,392.8,591.6z"/>
					<polygon class="st5" points="423.3,583 419.3,589.6 414.1,583.8 411.5,584.1 412.8,598.9 415.4,598.6 414.5,588.2 419.7,593.7 
						423.7,587.4 424.6,597.8 427.3,597.6 425.9,582.7 					"/>
					<polygon class="st5" points="447.6,591.2 446.8,587.7 454.2,585.9 453.6,583.4 446.2,585.2 445.3,581.8 453.7,579.7 
						453.1,577.2 442.2,579.9 445.7,594.3 456.6,591.7 456,589.2 					"/>
					<path class="st5" d="M479.7,575.9c-0.6-0.1-1.2-0.2-1.8-0.1c-0.6,0-1.2,0.1-1.8,0.2l-1.8,0.2c-0.6,0.1-1.1,0.1-1.5,0.1
						c-0.4,0-0.8-0.1-1-0.2c-0.3-0.1-0.4-0.3-0.4-0.4c-0.1-0.2-0.1-0.5-0.2-0.7c0-0.2,0-0.4,0.2-0.6c0.1-0.2,0.4-0.5,0.7-0.8
						c0.3-0.3,0.8-0.6,1.4-0.8c0.6-0.2,1.1-0.4,1.6-0.4c1.2-0.1,1.9,0.2,2.4,1l0.2,0.4l2.5-1l-0.2-0.5c-0.5-1.2-1.4-1.9-2.6-2.3
						c-1.3-0.4-2.9-0.3-4.6,0.4c-1.7,0.7-2.9,1.6-3.5,2.7c-0.6,1.1-0.7,2.3-0.2,3.5c0.3,0.9,0.9,1.5,1.6,1.8
						c0.7,0.3,1.4,0.4,2.3,0.5c0.8,0,1.6-0.1,2.5-0.2c0.8-0.1,1.6-0.2,2.3-0.3c0.7-0.1,1.3,0,1.8,0.1c0.4,0.1,0.6,0.3,0.8,0.6
						c0.2,0.6,0.2,1.1-0.2,1.6c-0.4,0.5-1.1,1-2.3,1.5c-1.1,0.4-2,0.6-2.7,0.5c-0.8-0.1-1.4-0.5-1.7-1.2l-0.2-0.5l-2.5,1l0.3,0.5
						c0.7,1.3,1.6,2.2,2.9,2.6c0.5,0.1,1,0.2,1.5,0.2c1,0,2.1-0.2,3.4-0.7c1.7-0.7,2.9-1.5,3.6-2.6c0.7-1.1,0.9-2.4,0.3-3.8
						C482,576.9,481,576.2,479.7,575.9z"/>
					
						<rect x="512.9" y="549.8" transform="matrix(0.8313 -0.5558 0.5558 0.8313 -222.9619 379.7654)" class="st5" width="2.6" height="14.9"/>
					<polygon class="st5" points="532.4,533.7 539.3,541.7 526.5,538.8 524.6,540.5 534.3,551.8 536.3,550 529.4,542 542.1,545 
						544.1,543.3 534.4,532 					"/>
					<polygon class="st5" points="567.6,492.2 574.4,500.7 564,497.6 562.5,499.7 569.1,508.3 558.8,505 557.2,507.3 572.1,511.9 
						573.6,509.8 566.9,501.2 577.4,504.3 578.8,502.2 569.2,489.9 					"/>
					<path class="st5" d="M577.9,473.6l10.7,12.2l1.3-2.6l-2.9-3.3l2.7-5.5l4.3,0.2l1.3-2.6l-16.1-0.8L577.9,473.6z M586.9,474.2
						l-1.8,3.6l-3.5-3.9L586.9,474.2z"/>
					<polygon class="st5" points="589.8,443.3 599,451 587.1,451.7 586.2,454.5 602.2,453.3 603,450.9 590.7,440.6 					"/>
					<polygon class="st5" points="606.7,425.9 603.1,425.3 604.5,417.7 601.9,417.2 600.6,424.8 597.1,424.2 598.5,415.7 596,415.3 
						594.1,426.3 608.7,428.9 610.7,417.9 608.2,417.4 					"/>
					<path class="st5" d="M611.9,390.6c-0.7-1.1-1.9-1.7-3.3-1.8c-1.3,0-2.3,0.5-3.1,1.6c-0.3,0.5-0.6,1-0.8,1.6
						c-0.2,0.6-0.4,1.2-0.6,1.8l-0.5,1.7c-0.2,0.5-0.3,1-0.5,1.4c-0.2,0.4-0.4,0.7-0.6,0.9c-0.2,0.2-0.4,0.2-0.5,0.2
						c-0.3,0-0.5-0.1-0.7-0.1c-0.2-0.1-0.4-0.2-0.5-0.4l0,0c-0.2-0.2-0.3-0.5-0.4-1c-0.1-0.4-0.2-1-0.1-1.6c0-0.6,0.1-1.2,0.3-1.6
						c0.4-1.1,1-1.7,1.9-1.8l0.5,0l0.1-2.6l-0.6,0c-1.3,0-2.3,0.5-3.2,1.5c-0.9,1-1.4,2.5-1.5,4.4c-0.1,1.9,0.3,3.3,1,4.3
						c0.8,1,1.8,1.6,3.1,1.6c0.9,0,1.7-0.2,2.3-0.8c0.5-0.5,1-1.1,1.3-1.9c0.3-0.7,0.6-1.5,0.8-2.3c0.2-0.8,0.4-1.5,0.7-2.2
						c0.2-0.6,0.5-1.2,0.8-1.6c0.2-0.3,0.5-0.4,0.9-0.4c0.5,0,1.9,0.1,1.8,3.4c0,1.1-0.3,2-0.7,2.7c-0.4,0.7-1,1-1.8,1l-0.5,0
						l-0.1,2.7l0.6,0c1.5-0.1,2.7-0.6,3.5-1.6c0.9-1.1,1.4-2.7,1.5-4.7C612.9,393.1,612.6,391.6,611.9,390.6z"/>
				</g>
			</g>
			<g>
				<path class="st5" d="M352.4,272.3c-1-1-2.2-1.5-3.7-1.5c-1.5,0-2.8,0.5-3.7,1.5c-1,1-1.4,2.2-1.4,3.7c0,1.5,0.5,2.7,1.4,3.7
					c1,1,2.2,1.5,3.7,1.5c1.5,0,2.8-0.5,3.7-1.5c1-1,1.4-2.2,1.4-3.7S353.3,273.3,352.4,272.3z M348.6,279.4c-1,0-1.8-0.3-2.4-1
					c-0.6-0.6-0.9-1.4-0.9-2.4c0-1,0.3-1.8,0.9-2.4c0.6-0.7,1.4-1,2.4-1c1,0,1.8,0.3,2.4,1c0.6,0.6,0.9,1.4,0.9,2.4
					c0,1-0.3,1.8-0.9,2.4C350.4,279.1,349.7,279.4,348.6,279.4z"/>
				<path class="st5" d="M357.4,281.1h1.1c0.2,0,0.4-0.2,0.4-0.4v-3h2.8c1.1,0,2-0.3,2.6-0.9c0.7-0.6,1-1.5,1-2.5c0-1-0.3-1.9-1-2.5
					c-0.7-0.6-1.5-0.9-2.6-0.9h-4.2c-0.2,0-0.4,0.2-0.4,0.4v9.4C357,280.9,357.2,281.1,357.4,281.1z M358.9,276v-3.3h2.7
					c0.6,0,1.1,0.1,1.4,0.4c0.3,0.3,0.4,0.7,0.4,1.2c0,0.5-0.1,0.9-0.4,1.2c-0.3,0.3-0.8,0.4-1.4,0.4H358.9z"/>
				<path class="st5" d="M368.6,281.1h6.9c0.2,0,0.4-0.2,0.4-0.4v-1c0-0.2-0.2-0.4-0.4-0.4h-5.5v-2.4h4.9c0.2,0,0.4-0.2,0.4-0.4v-1
					c0-0.2-0.2-0.4-0.4-0.4h-4.9v-2.4h5.5c0.2,0,0.4-0.2,0.4-0.4v-1c0-0.2-0.2-0.4-0.4-0.4h-6.9c-0.2,0-0.4,0.2-0.4,0.4v9.4
					C368.2,280.9,368.4,281.1,368.6,281.1z"/>
				<path class="st5" d="M379.6,281.1h1.1c0.2,0,0.4-0.2,0.4-0.4V274l5.1,7c0.1,0.1,0.2,0.2,0.3,0.2h1.2c0.2,0,0.4-0.2,0.4-0.4v-9.4
					c0-0.2-0.2-0.4-0.4-0.4h-1.1c-0.2,0-0.4,0.2-0.4,0.4v6.7l-5.1-7c-0.1-0.1-0.2-0.2-0.3-0.2h-1.2c-0.2,0-0.4,0.2-0.4,0.4v9.4
					C379.2,280.9,379.3,281.1,379.6,281.1z"/>
				<path class="st5" d="M399.1,280.8c0.1,0.2,0.2,0.3,0.4,0.3h1.2c0.2,0,0.3-0.1,0.4-0.3l2.2-6.8l2.2,6.8c0.1,0.2,0.2,0.3,0.4,0.3
					h1.2c0.2,0,0.3-0.1,0.4-0.3l2.9-9.4c0-0.1,0-0.2-0.1-0.3c-0.1-0.1-0.2-0.2-0.3-0.2h-1.1c-0.2,0-0.3,0.1-0.4,0.3l-2.1,6.7
					l-2.2-6.7c-0.1-0.2-0.2-0.3-0.4-0.3h-1.2c-0.2,0-0.3,0.1-0.4,0.3l-2.2,6.7l-2.1-6.7c-0.1-0.2-0.2-0.3-0.4-0.3h-1.1
					c-0.1,0-0.2,0.1-0.3,0.2c-0.1,0.1-0.1,0.2-0.1,0.3L399.1,280.8z"/>
				<path class="st5" d="M411.9,281.1h1.2c0.2,0,0.3-0.1,0.4-0.2l1.1-2.5h4.2l1.1,2.5c0.1,0.1,0.2,0.2,0.4,0.2h1.2
					c0.1,0,0.3-0.1,0.3-0.2c0.1-0.1,0.1-0.2,0-0.4l-4-9.4c-0.1-0.1-0.2-0.2-0.4-0.2h-1.3c-0.2,0-0.3,0.1-0.4,0.2l-4,9.4
					c-0.1,0.1,0,0.3,0,0.4C411.7,281,411.8,281.1,411.9,281.1z M415.2,276.6l1.3-3.2l1.3,3.2H415.2z"/>
				<path class="st5" d="M422.9,272.7h2.9v8c0,0.2,0.2,0.4,0.4,0.4h1.1c0.2,0,0.4-0.2,0.4-0.4v-8h2.9c0.2,0,0.4-0.2,0.4-0.4v-1
					c0-0.2-0.2-0.4-0.4-0.4h-7.6c-0.2,0-0.4,0.2-0.4,0.4v1C422.5,272.5,422.7,272.7,422.9,272.7z"/>
				<path class="st5" d="M434.2,281.1h6.9c0.2,0,0.4-0.2,0.4-0.4v-1c0-0.2-0.2-0.4-0.4-0.4h-5.5v-2.4h4.9c0.2,0,0.4-0.2,0.4-0.4v-1
					c0-0.2-0.2-0.4-0.4-0.4h-4.9v-2.4h5.5c0.2,0,0.4-0.2,0.4-0.4v-1c0-0.2-0.2-0.4-0.4-0.4h-6.9c-0.2,0-0.4,0.2-0.4,0.4v9.4
					C433.8,280.9,434,281.1,434.2,281.1z"/>
				<path class="st5" d="M453.3,280.5l-2.2-3.4c0.1,0,0.2-0.1,0.4-0.1c1.1-0.5,1.7-1.4,1.7-2.8c0-1-0.3-1.8-1-2.4
					c-0.7-0.6-1.5-0.9-2.6-0.9h-4.5c-0.2,0-0.4,0.2-0.4,0.4v9.4c0,0.2,0.2,0.4,0.4,0.4h1.1c0.2,0,0.4-0.2,0.4-0.4v-3.2h2.7l2.2,3.4
					c0.1,0.1,0.2,0.2,0.3,0.2h1.3c0.1,0,0.3-0.1,0.3-0.2C453.4,280.8,453.4,280.6,453.3,280.5z M451.4,274.2c0,0.3-0.1,0.5-0.2,0.7
					c-0.3,0.5-0.9,0.8-1.7,0.8h-2.9v-3h2.9c0.6,0,1,0.1,1.4,0.4C451.2,273.4,451.4,273.8,451.4,274.2z"/>
				<path class="st5" d="M362.9,295.6c0-0.1,0-0.3,0-0.4c-0.1-0.1-0.2-0.2-0.3-0.2h-1.1c-0.2,0-0.3,0.1-0.4,0.2
					c-0.2,0.5-0.5,0.9-1,1.2c-0.4,0.3-1,0.4-1.6,0.4c-1.1,0-1.9-0.3-2.5-1c-0.5-0.6-0.8-1.4-0.8-2.4c0-1,0.3-1.8,0.8-2.4
					c0.3-0.3,0.6-0.5,1-0.7c0.4-0.2,0.9-0.3,1.5-0.3c0.6,0,1.1,0.2,1.6,0.4c0.4,0.3,0.8,0.7,1,1.2c0.1,0.1,0.2,0.2,0.4,0.2h1.1
					c0.1,0,0.2-0.1,0.3-0.2c0.1-0.1,0.1-0.2,0-0.4c-0.3-1-0.9-1.7-1.7-2.3c-0.8-0.6-1.8-0.9-2.9-0.9c-1.5,0-2.7,0.5-3.6,1.5
					c-0.9,1-1.3,2.2-1.3,3.7c0,1.5,0.4,2.7,1.3,3.7c0.9,1,2.1,1.5,3.6,1.5c1.1,0,2.1-0.3,2.9-0.9C362,297.3,362.6,296.6,362.9,295.6
					z"/>
				<path class="st5" d="M375.7,293.6c0-1.5-0.5-2.7-1.4-3.7c-1-1-2.2-1.5-3.7-1.5c-1.5,0-2.8,0.5-3.7,1.5c-1,1-1.4,2.2-1.4,3.7
					c0,1.5,0.5,2.7,1.4,3.7c1,1,2.2,1.5,3.7,1.5c1.5,0,2.8-0.5,3.7-1.5C375.3,296.3,375.7,295.1,375.7,293.6z M370.6,297
					c-1,0-1.8-0.3-2.4-1c-0.6-0.6-0.9-1.4-0.9-2.4c0-1,0.3-1.8,0.9-2.4c0.6-0.7,1.4-1,2.4-1c1,0,1.8,0.3,2.4,1
					c0.6,0.6,0.9,1.4,0.9,2.4c0,1-0.3,1.8-0.9,2.4C372.4,296.7,371.6,297,370.6,297z"/>
				<path class="st5" d="M378,298.7h1.2c0.2,0,0.3-0.1,0.4-0.2l1.1-2.5h4.2l1.1,2.5c0.1,0.1,0.2,0.2,0.4,0.2h1.2
					c0.1,0,0.3-0.1,0.3-0.2c0.1-0.1,0.1-0.2,0-0.4l-4-9.4c-0.1-0.1-0.2-0.2-0.4-0.2H382c-0.2,0-0.3,0.1-0.4,0.2l-4,9.4
					c-0.1,0.1,0,0.3,0,0.4C377.8,298.6,377.9,298.7,378,298.7z M381.4,294.2l1.3-3.2l1.3,3.2H381.4z"/>
				<path class="st5" d="M394.6,298.8c1.1,0,2.1-0.3,2.9-0.9c0.8-0.6,1.4-1.3,1.7-2.3c0-0.1,0-0.3,0-0.4c-0.1-0.1-0.2-0.2-0.3-0.2
					h-1.1c-0.2,0-0.3,0.1-0.4,0.2c-0.2,0.5-0.5,0.9-1,1.2c-0.4,0.3-1,0.4-1.6,0.4c-1.1,0-1.9-0.3-2.5-1c-0.5-0.6-0.8-1.4-0.8-2.4
					c0-1,0.3-1.8,0.8-2.4c0.3-0.3,0.6-0.5,1-0.7c0.4-0.2,0.9-0.3,1.5-0.3c0.6,0,1.1,0.2,1.6,0.4c0.4,0.3,0.8,0.7,1,1.2
					c0.1,0.1,0.2,0.2,0.4,0.2h1.1c0.1,0,0.2-0.1,0.3-0.2c0.1-0.1,0.1-0.2,0-0.4c-0.3-1-0.9-1.7-1.7-2.3c-0.8-0.6-1.8-0.9-2.9-0.9
					c-1.5,0-2.7,0.5-3.6,1.5c-0.9,1-1.3,2.2-1.3,3.7c0,1.5,0.4,2.7,1.3,3.7C391.9,298.3,393.1,298.8,394.6,298.8z"/>
				<path class="st5" d="M408.9,288.9v3.8h-4.7v-3.8c0-0.2-0.2-0.4-0.4-0.4h-1.1c-0.2,0-0.4,0.2-0.4,0.4v9.4c0,0.2,0.2,0.4,0.4,0.4
					h1.1c0.2,0,0.4-0.2,0.4-0.4v-3.8h4.7v3.8c0,0.2,0.2,0.4,0.4,0.4h1.1c0.2,0,0.4-0.2,0.4-0.4v-9.4c0-0.2-0.2-0.4-0.4-0.4h-1.1
					C409.1,288.5,408.9,288.7,408.9,288.9z"/>
				<path class="st5" d="M416,288.5H415c-0.2,0-0.4,0.2-0.4,0.4v9.4c0,0.2,0.2,0.4,0.4,0.4h1.1c0.2,0,0.4-0.2,0.4-0.4v-9.4
					C416.4,288.7,416.2,288.5,416,288.5z"/>
				<path class="st5" d="M429.1,298.3v-9.4c0-0.2-0.2-0.4-0.4-0.4h-1.1c-0.2,0-0.4,0.2-0.4,0.4v6.7l-5.1-7c-0.1-0.1-0.2-0.2-0.3-0.2
					h-1.2c-0.2,0-0.4,0.2-0.4,0.4v9.4c0,0.2,0.2,0.4,0.4,0.4h1.1c0.2,0,0.4-0.2,0.4-0.4v-6.8l5.1,7c0.1,0.1,0.2,0.2,0.3,0.2h1.2
					C429,298.7,429.1,298.5,429.1,298.3z"/>
				<path class="st5" d="M441.7,292.9h-4.4c-0.2,0-0.4,0.2-0.4,0.4v1c0,0.2,0.2,0.4,0.4,0.4h3c-0.1,0.7-0.4,1.2-0.9,1.6
					c-0.6,0.5-1.3,0.7-2.1,0.7c-1,0-1.8-0.3-2.4-1c-0.6-0.6-0.9-1.4-0.9-2.4c0-1,0.3-1.8,0.9-2.4c0.3-0.3,0.6-0.5,1-0.7
					c0.4-0.2,0.9-0.3,1.5-0.3c0.6,0,1.1,0.1,1.5,0.4c0.4,0.3,0.8,0.6,1,1.1c0.1,0.1,0.2,0.2,0.3,0.2h1.2c0.1,0,0.3-0.1,0.3-0.2
					c0.1-0.1,0.1-0.2,0-0.4c-0.4-0.9-1-1.6-1.8-2.1c-0.4-0.2-0.8-0.4-1.3-0.6c-0.9-0.3-2.3-0.4-3.6,0.2l0,0
					c-0.6,0.3-1.1,0.7-1.6,1.1c-0.9,1-1.4,2.2-1.4,3.7c0,1.5,0.4,2.7,1.3,3.7c0.4,0.5,1,0.9,1.6,1.1c0.6,0.3,1.2,0.4,1.9,0.4
					c0.6,0,1.1-0.1,1.5-0.2c0.7-0.2,1.3-0.5,1.8-1v0.6c0,0.2,0.2,0.4,0.4,0.4h1c0.2,0,0.4-0.2,0.4-0.4v-5
					C442.1,293.1,442,292.9,441.7,292.9z"/>
				<path class="st5" d="M366.5,313.8c0.4-0.6,0.6-1.3,0.8-2.2c0-0.2-0.1-0.4-0.3-0.4l-0.8-0.3c-0.1,0-0.2,0-0.3,0
					c-0.1,0.1-0.2,0.2-0.2,0.3c-0.1,0.5-0.2,0.9-0.4,1.3l-2-2.1c0.6-0.4,1.1-0.8,1.4-1.1c0.4-0.5,0.6-1,0.6-1.6
					c0-0.7-0.3-1.3-0.8-1.7c-0.5-0.4-1.1-0.6-1.9-0.6c-0.9,0-1.6,0.2-2.1,0.7c-0.5,0.5-0.8,1.1-0.8,1.8c0,0.5,0.1,0.9,0.3,1.3
					c0.2,0.3,0.4,0.6,0.7,1c-0.7,0.5-1.3,0.9-1.6,1.3c-0.4,0.5-0.7,1.2-0.7,1.9c0,0.6,0.2,1.1,0.5,1.5c0.3,0.4,0.8,0.8,1.4,1
					c0.6,0.2,1.2,0.4,1.9,0.4c1.3,0,2.4-0.4,3.3-1.2l1.1,1.1c0.1,0.1,0.2,0.1,0.3,0.1c0.1,0,0.2-0.1,0.3-0.1l0.6-0.7
					c0.1-0.2,0.1-0.4,0-0.5L366.5,313.8z M361.4,308c0-0.3,0.1-0.5,0.3-0.7c0.2-0.2,0.5-0.3,0.9-0.3c0.4,0,0.6,0.1,0.8,0.2
					c0.2,0.1,0.3,0.3,0.3,0.6c0,0.3-0.1,0.5-0.3,0.7c-0.2,0.2-0.6,0.5-1.1,0.8c-0.3-0.3-0.5-0.6-0.6-0.8
					C361.4,308.4,361.4,308.2,361.4,308z M360.5,312.4c0.2-0.3,0.7-0.6,1.3-1l2.5,2.6c-0.6,0.5-1.3,0.7-2.1,0.7
					c-0.6,0-1.1-0.1-1.5-0.4c-0.3-0.3-0.5-0.6-0.5-1C360.2,313,360.3,312.7,360.5,312.4z"/>
				<path class="st5" d="M381.5,311.2c-0.3-0.2-0.7-0.4-1.1-0.5c-0.4-0.1-0.8-0.3-1.2-0.4L378,310c-0.4-0.1-0.7-0.2-1-0.3
					c-0.3-0.1-0.5-0.2-0.6-0.4c-0.1-0.1-0.2-0.2-0.2-0.3c0-0.2,0-0.3,0.1-0.5c0-0.1,0.1-0.2,0.2-0.3l0.1,0v-0.1
					c0.1-0.1,0.3-0.2,0.6-0.3c0.3-0.1,0.7-0.1,1.1-0.1c0.4,0,0.8,0,1.1,0.1c0.8,0.2,1.2,0.6,1.2,1.2c0,0.2,0.2,0.3,0.4,0.3h1.1
					c0.1,0,0.2,0,0.3-0.1c0.1-0.1,0.1-0.2,0.1-0.3c0-0.9-0.4-1.6-1.1-2.1c-0.7-0.6-1.7-0.9-3-0.9c-1.3,0-2.3,0.3-2.9,0.8
					c-0.7,0.6-1,1.3-1,2.2c0,0.6,0.2,1.2,0.6,1.6c0.4,0.4,0.8,0.6,1.3,0.9c0.5,0.2,1,0.4,1.6,0.5c0.5,0.1,1.1,0.3,1.5,0.4
					c0.4,0.1,0.8,0.3,1.1,0.5c0.2,0.1,0.3,0.3,0.3,0.6c0,0.3,0,1.3-2.3,1.3c-0.8,0-1.4-0.1-1.8-0.4c-0.5-0.3-0.7-0.7-0.7-1.2
					c0-0.2-0.2-0.4-0.4-0.4h-1.1c-0.1,0-0.2,0-0.3,0.1c-0.1,0.1-0.1,0.2-0.1,0.3c0.1,1,0.5,1.8,1.2,2.4c0.8,0.6,1.9,0.9,3.3,0.9
					c1.2,0,2.2-0.3,3-0.8c0.8-0.5,1.2-1.3,1.2-2.3C382.7,312.4,382.3,311.7,381.5,311.2z"/>
				<path class="st5" d="M390.8,306.3c-0.1-0.1-0.2-0.2-0.4-0.2h-1.3c-0.2,0-0.3,0.1-0.4,0.2l-4,9.4c-0.1,0.1,0,0.3,0,0.4
					c0.1,0.1,0.2,0.2,0.3,0.2h1.2c0.2,0,0.3-0.1,0.4-0.2l1.1-2.5h4.2l1.1,2.5c0.1,0.1,0.2,0.2,0.4,0.2h1.2c0.1,0,0.3-0.1,0.3-0.2
					c0.1-0.1,0.1-0.2,0-0.4L390.8,306.3z M391.1,311.8h-2.7l1.3-3.2L391.1,311.8z"/>
				<path class="st5" d="M404.7,306.1h-6.8c-0.2,0-0.4,0.2-0.4,0.4v9.4c0,0.2,0.2,0.4,0.4,0.4h1.1c0.2,0,0.4-0.2,0.4-0.4v-3.7h4.7
					c0.2,0,0.4-0.2,0.4-0.4v-1c0-0.2-0.2-0.4-0.4-0.4h-4.7v-2.5h5.3c0.2,0,0.4-0.2,0.4-0.4v-1C405.1,306.2,405,306.1,404.7,306.1z"
					/>
				<path class="st5" d="M415.5,306.1h-6.9c-0.2,0-0.4,0.2-0.4,0.4v9.4c0,0.2,0.2,0.4,0.4,0.4h6.9c0.2,0,0.4-0.2,0.4-0.4v-1
					c0-0.2-0.2-0.4-0.4-0.4H410v-2.4h4.9c0.2,0,0.4-0.2,0.4-0.4v-1c0-0.2-0.2-0.4-0.4-0.4H410v-2.4h5.5c0.2,0,0.4-0.2,0.4-0.4v-1
					C415.8,306.2,415.7,306.1,415.5,306.1z"/>
				<path class="st5" d="M426.1,306.1h-7.6c-0.2,0-0.4,0.2-0.4,0.4v1c0,0.2,0.2,0.4,0.4,0.4h2.9v8c0,0.2,0.2,0.4,0.4,0.4h1.1
					c0.2,0,0.4-0.2,0.4-0.4v-8h2.9c0.2,0,0.4-0.2,0.4-0.4v-1C426.5,306.2,426.4,306.1,426.1,306.1z"/>
				<path class="st5" d="M437.6,306.1h-1.3c-0.1,0-0.2,0.1-0.3,0.2l-2.9,4.1l-2.9-4.1c-0.1-0.1-0.2-0.2-0.3-0.2h-1.3
					c-0.1,0-0.3,0.1-0.3,0.2c-0.1,0.1-0.1,0.3,0,0.4l3.9,5.6v3.6c0,0.2,0.2,0.4,0.4,0.4h1.1c0.2,0,0.4-0.2,0.4-0.4v-3.6l3.9-5.6
					c0.1-0.1,0.1-0.3,0-0.4C437.8,306.1,437.7,306.1,437.6,306.1z"/>
			</g>
		</g>
	</g>
	<g>
		<path class="st5" d="M351.3,211c-1.2,0.5-2.4,0.9-3.6,1.4c-0.5,0.2-0.9,0.7-0.8,1.3c0.5,7.7,1.1,15.5,1.7,23.2
			c-5-6-10-11.9-15.1-17.8c-0.3-0.4-0.9-0.5-1.4-0.3c-1.3,0.5-2.6,1.1-3.9,1.6c-0.5,0.2-0.8,0.7-0.8,1.3c0.6,7.8,1.3,15.5,2,23.3
			c-5-5.9-10.2-11.7-15.3-17.5c-0.4-0.4-1-0.5-1.5-0.3c-1.2,0.5-2.3,1.1-3.5,1.6c-0.4,0.2-0.6,0.5-0.7,0.9c-0.1,0.4,0,0.8,0.3,1.1
			c7.3,8,14.5,16,21.6,24.1c0.4,0.4,0.9,0.5,1.4,0.3c1.2-0.5,2.4-1.1,3.6-1.6c0.5-0.2,0.8-0.7,0.7-1.2c-0.7-7.8-1.4-15.6-2-23.4
			c5.1,5.9,10.2,11.8,15.2,17.8c0.3,0.4,0.9,0.5,1.4,0.3c1.2-0.5,2.4-1,3.7-1.5c0.5-0.2,0.8-0.7,0.8-1.2
			c-0.8-10.7-1.5-21.5-2.1-32.3c0-0.4-0.2-0.7-0.6-0.9C352.1,210.9,351.7,210.9,351.3,211z"/>
		<path class="st5" d="M366.6,206.9c-1.5,0.3-3.1,0.6-4.6,0.9c-0.9,0.2-1.5,0.9-1.3,1.6c2.3,10,4.7,20,7,30c0.2,0.7,0.8,1.1,1.5,0.9
			c1.1-0.2,2.3-0.5,3.4-0.7c0.7-0.1,1.1-0.7,1-1.4c-1.7-10.1-3.4-20.3-5.1-30.4C368.3,207.1,367.5,206.7,366.6,206.9z"/>
		<path class="st5" d="M508.7,239.5c-1.1-0.7-2.2-1.4-3.3-2c-0.5-0.3-1.1-0.3-1.5,0.1c-5.9,5.1-11.7,10.2-17.5,15.3
			c1.7-7.6,3.4-15.2,5-22.8c0.1-0.5-0.1-1.1-0.6-1.3c-1.2-0.7-2.4-1.4-3.6-2.1c-0.5-0.3-1.1-0.2-1.5,0.1
			c-5.8,5.2-11.6,10.4-17.3,15.6c1.6-7.6,3.2-15.1,4.7-22.7c0.1-0.5-0.2-1.1-0.7-1.3c-1.1-0.6-2.2-1.2-3.4-1.8
			c-0.4-0.2-0.8-0.2-1.1-0.1c-0.4,0.2-0.6,0.5-0.7,0.9c-2,10.6-4,21.2-6.2,31.7c-0.1,0.5,0.1,1.1,0.6,1.3c1.2,0.6,2.3,1.3,3.5,1.9
			c0.5,0.3,1,0.2,1.4-0.2c5.8-5.3,11.6-10.5,17.4-15.7c-1.6,7.7-3.3,15.3-5,22.9c-0.1,0.5,0.1,1.1,0.6,1.3c1.1,0.7,2.3,1.4,3.4,2
			c0.5,0.3,1,0.2,1.4-0.1c8.1-7.1,16.2-14.2,24.5-21.1c0.3-0.3,0.5-0.6,0.4-1C509.3,240.1,509.1,239.7,508.7,239.5z"/>
		<path class="st5" d="M534,265.2c-5.4-6.1-11-12.1-16.8-17.9c-0.5-0.5-1.3-0.6-1.8-0.1c-7.3,7.3-14.5,14.5-21.8,21.8
			c-0.5,0.5-0.5,1.3,0,1.7c5.3,5.4,10.5,10.9,15.5,16.5c0.4,0.5,1.2,0.6,1.7,0.1c0.8-0.7,1.7-1.5,2.5-2.2c0.5-0.4,0.6-1.2,0.1-1.7
			c-4-4.5-8.2-9-12.4-13.4c1.9-1.8,3.8-3.7,5.7-5.5c3.8,3.9,7.6,8,11.2,12c0.5,0.5,1.3,0.6,1.8,0.1c0.8-0.8,1.7-1.5,2.5-2.3
			c0.5-0.4,0.5-1.2,0.1-1.8c-3.7-4.1-7.5-8.2-11.4-12.2c1.9-1.8,3.8-3.7,5.7-5.5c4.5,4.6,8.8,9.3,13.1,14.1c0.5,0.5,1.3,0.6,1.8,0.2
			c0.8-0.7,1.7-1.5,2.5-2.2C534.4,266.6,534.4,265.8,534,265.2z"/>
		<path class="st5" d="M531.4,308.5c-2.8-4.5-5.7-8.9-8.6-13.3c7.2-4.9,14.5-9.9,21.7-14.8c0.6-0.4,0.7-1.2,0.3-1.8
			c-0.7-1-1.4-2.1-2.2-3.1c-0.4-0.6-1.2-0.8-1.8-0.4c-8.4,5.9-16.8,11.8-25.2,17.8c-0.6,0.4-0.7,1.2-0.3,1.7
			c3.9,5.5,7.6,11.2,11.2,17c0.4,0.6,1.1,0.8,1.7,0.4c1-0.6,1.9-1.2,2.9-1.8C531.5,309.9,531.7,309.1,531.4,308.5z"/>
		<path class="st5" d="M542.4,335c-1.9-4.9-3.9-9.8-5.9-14.7c8-3.5,16.1-6.9,24.1-10.4c0.6-0.3,0.9-1,0.6-1.7
			c-0.5-1.2-1-2.3-1.5-3.5c-0.3-0.7-1-1-1.7-0.7c-9.4,4.2-18.7,8.4-28.1,12.6c-0.6,0.3-0.9,1-0.6,1.6c2.8,6.2,5.3,12.4,7.7,18.8
			c0.2,0.6,0.9,1,1.6,0.7c1-0.4,2.1-0.8,3.1-1.2C542.3,336.3,542.7,335.6,542.4,335z"/>
		<path class="st5" d="M431.9,252.8c-6.9-2-13.8-7.7-12.6-15.7c0-0.1,0-0.3-0.1-0.3c0,0-0.1,0-0.1,0c-0.1,0-0.2,0-0.3,0
			c-3.6,2.1-6.5,2.6-8.9,2.9c-1.7,0.2-3.2,0.1-4.5-0.2c-1.7-0.4-3-1.3-3.7-2.5c-0.6-1-0.8-2.2-0.5-3.5c0.6,0.6,1.7,1.4,3.4,1.8
			c2.7,0.7,7.4,0.5,14.8-4.1c0.1-0.1,6.8-5,13.5-3.1c0.3,0.1,0.6,0.2,1,0.3c6.5,2.5,6.8,7.1,6.1,9.1c-0.8,2.2-2.5,4.7-6.4,4.2
			c0,0-0.4,0-0.9-0.2c-0.7-0.2-1.6-0.6-2.3-1.5c0.8,0.1,2.1,0,3.1-0.7c0.8-0.6,1.3-1.5,1.5-2.7c0.2-1.6-0.9-3-2.9-3.6
			c-1.2-0.4-2.6-0.3-3.7,0.2c-0.1,0-0.1,0.1-0.1,0.1c-0.9,0.5-3.9,2.5-2.5,7.2c1.3,4.1,5.5,5.9,7.9,6.6c1.4,0.4,2.9,0.7,4.2,0.7
			c1.3,0,5.6-0.1,8.6-3.1c1.8-1.9,2.4-3.9,2.1-7.2c0-0.1,0.3-5-10.1-12c-0.1-0.1-11.8-6.7-10.7-14.8c0.5-3.4,1.9-5.8,4.3-7.4
			c3-1.9,7.6-2.3,13.1-1c0,0,0.6,0.1,1.6,0.4c4.7,1.3,15.3,5.9,12.6,16.8c-0.1,0.3-0.2,0.5-0.5,0.6c-0.2,0.1-0.5,0.1-0.7,0.1
			c-1.6-0.5-3.1-1-4.7-1.5c-0.3-0.1-0.5-0.4-0.5-0.7c0.4-2,0.6-6.9-7.8-9.4c-0.5-0.1-1-0.3-1.5-0.4c-6.6-1.5-8.5,1-9,2.1
			c-1,2.1,0.2,4.9,2.8,6.8c0.1,0,5.9,4.5,9.1,7.2c0,0,0.1,0.1,0.1,0.1c3.5,2.9,11.5,9.7,7.8,19.1c-3.9,9.8-13.6,11.3-21.3,9.6
			C432.8,253.1,432.3,253,431.9,252.8z"/>
		<g>
			<path class="st5" d="M408.8,230c1.7-0.2,3.7-0.8,6.1-1.8c0.3-8.4,0.5-14.7,0.8-23c0-0.7-0.5-1.2-1.3-1.3c-1.4,0-2.9-0.1-4.3-0.1
				c-0.4,0-0.8,0.2-1.1,0.5c-3.6,4.4-7.1,8.8-10.5,13.2c-3.5-4.4-7-8.8-10.7-13.2c-0.3-0.3-0.6-0.5-1-0.5c-1.4,0-2.9,0.1-4.3,0.1
				c-0.7,0-1.3,0.6-1.3,1.3c0.3,10.3,0.6,20.5,1,30.8c0,0.7,0.6,1.2,1.3,1.2c1.2,0,2.3-0.1,3.5-0.1c0.7,0,1.2-0.6,1.2-1.2
				c-0.1-7.3-0.3-14.7-0.4-22c3.4,3.9,6.6,7.8,9.9,11.8c0.2,0.3,0.6,0.5,1,0.5c0,0,0,0,0,0c0.4,0,0.7-0.2,1-0.5
				c3.2-3.9,6.4-7.9,9.7-11.8C409,220,408.9,223.9,408.8,230z"/>
		</g>
		<path class="st5" d="M311.8,268.2c-3.4,2.6-6.8,4-10.2,3.9c-3.1,0-5.8-1.1-7.9-3.5c-0.1-0.1-0.2-0.4-0.2-0.6
			c0-0.2,0.1-0.4,0.3-0.5c1.3-1.1,2.6-2.1,3.9-3.2c0.3-0.2,0.7-0.2,1,0c1.8,1.8,4,2.2,6.7,1.3c1-0.4,2-1,3-1.7
			c0.6-0.5,1.2-1,1.9-1.7c0.6-0.6,1.2-1.3,1.6-2.1c1-1.6,1-2.9,0-4.2c-0.6-0.8-1.4-1.2-2.4-1.1c-1.2,0.1-2.5,0.4-3.9,1
			c-1.5,0.6-3.1,1.3-4.8,2.2c-1.7,0.9-3.4,1.6-5.1,2.1c-1.7,0.5-3.4,0.7-5,0.5c-1.7-0.2-3.2-1.1-4.6-2.7c-1.9-2.4-2.5-5-1.7-7.8
			c0.8-2.8,3-5.6,6.5-8.3c3.4-2.6,6.7-3.9,9.9-3.8c2.7,0.1,5,1.1,6.9,3.2c0.1,0.2,0.2,0.4,0.2,0.6c0,0.2-0.1,0.4-0.3,0.5
			c-1.3,1-2.7,2-4,3c-0.3,0.2-0.7,0.2-1-0.1c-0.7-0.7-3-3.1-8.5,1.2c-5.4,4.2-3.6,6.5-3.1,7.2c0.6,0.8,1.4,1.1,2.3,1
			c1.2-0.1,2.5-0.5,3.9-1.2c1.5-0.7,3.1-1.4,4.8-2.3c1.8-0.9,3.5-1.6,5.2-2c1.8-0.5,3.5-0.5,5.1-0.2c1.7,0.3,3.2,1.4,4.4,3.1
			c1.9,2.7,2.4,5.5,1.4,8.3C317.1,263.1,315,265.8,311.8,268.2z"/>
	</g>
</g>
</svg>
