<?xml version="1.0" encoding="utf-8"?>
<!-- Generator: Adobe Illustrator 24.2.1, SVG Export Plug-In . SVG Version: 6.00 Build 0)  -->
<svg version="1.1" id="Layer_1" xmlns="http://www.w3.org/2000/svg" xmlns:xlink="http://www.w3.org/1999/xlink" x="0px" y="0px"
	 viewBox="0 0 800 800" style="enable-background:new 0 0 800 800;" xml:space="preserve">
<style type="text/css">
	.st0{fill-rule:evenodd;clip-rule:evenodd;fill:#00AAE3;}
	.st1{fill:#FFFFFF;}
</style>
<rect x="-0.4" y="-0.5" class="st0" width="801.5" height="801.5"/>
<g>
	<g>
		<g>
			<path class="st1" d="M193.9,454.6L193.9,454.6c-1.6,0-2.9-0.7-3.9-1.6l-14-15c-2-2-1.6-4.9,0.3-6.8s4.9-1.6,6.8,0.3l10.7,11.4
				l21.5-22.5h2.3c13,0,23.8-10.7,23.8-23.8v-4.2h-15.6v-4.9c0-17.6-14.3-32.2-32.2-32.2s-32.2,14.3-32.2,32.2v14.3
				c0,7.5,6.2,13.7,13.7,13.7c7.5,0,13.7-6.2,13.7-13.7v-14.6c0-2.6,2.3-4.9,4.9-4.9s4.9,2.3,4.9,4.9v14.6c0,13-10.4,23.4-23.4,23.4
				c-13,0-23.4-10.4-23.4-23.4v-14.3c0-23.1,18.9-41.7,41.7-41.7c21.5,0,39.1,16.3,41.7,36.8h6.2c5.2,0,9.8,4.2,9.8,9.8v4.6
				c0,17.6-14,32.2-31.2,33.5l-22.1,22.8C196.5,453.9,195.2,454.6,193.9,454.6z"/>
		</g>
		<g>
			<circle class="st1" cx="214.4" cy="387.9" r="5.2"/>
		</g>
	</g>
	<g>
		<path class="st1" d="M307.5,419.8h5.2v8.5h-7.2c-5.2,0-9.1-1.6-12-4.6c-2.9-2.9-4.2-6.8-4.2-12v-21.2h-8.1v-2l15.9-16.9h1.6v10.7
			h13.7v8.1h-13.7v20.8c0,2.6,0.7,4.9,2.3,6.5C302.6,419.1,304.5,419.8,307.5,419.8z"/>
		<path class="st1" d="M358.2,382h7.2v46.2h-7.5l-1-5.5c-2,2.3-4.6,3.9-7.5,4.9c-2.9,1.3-5.9,1.6-9.1,1.6c-4.6,0-8.5-1-12.4-3.3
			c-3.6-2-6.5-4.9-8.8-8.8c-2-3.6-3.3-7.8-3.3-12.4s1-8.8,3.3-12.4c2-3.6,4.9-6.5,8.8-8.8c3.6-2,7.8-3.3,12.4-3.3
			c3.3,0,6.5,0.7,9.4,2c2.9,1.3,5.5,2.9,7.5,5.2L358.2,382z M330.2,415.9c2.9,2.9,6.5,4.2,10.7,4.2s7.8-1.3,10.7-4.2
			c2.9-2.9,4.2-6.5,4.2-10.7c0-4.2-1.3-7.8-4.2-10.7c-2.9-2.9-6.5-4.2-10.7-4.2s-7.8,1.3-10.7,4.2c-2.9,2.9-4.2,6.5-4.2,10.7
			C326,409.7,327.3,413.2,330.2,415.9z"/>
		<path class="st1" d="M374.2,375.2v-9.8h9.8v9.8H374.2z M374.2,428.2v-45.9h9.4v46.2h-9.4V428.2z"/>
		<path class="st1" d="M392.4,428.2v-62.5h9.4v62.5L392.4,428.2L392.4,428.2z"/>
		<path class="st1" d="M436.3,419.8h5.2v8.5h-7.2c-5.2,0-9.1-1.6-12-4.6c-2.9-2.9-4.2-6.8-4.2-12v-21.2H410v-2l15.9-16.9h1.6v10.7
			h13.7v8.1h-13.7v20.8c0,2.6,0.7,4.9,2.3,6.5C431.5,419.4,433.4,419.8,436.3,419.8z"/>
		<path class="st1" d="M469.9,382h4.2v9.1h-4.9c-3.9,0-6.8,1-8.8,3.3c-2,2.3-2.9,5.2-2.9,9.4v24.7h-9.4v-46.2h6.5l1.6,6.2
			C458.8,384,463.7,382,469.9,382z"/>
		<path class="st1" d="M517.1,382h7.2v46.2h-7.5l-1-5.5c-2,2.3-4.6,3.9-7.5,4.9c-2.9,1.3-5.9,1.6-9.1,1.6c-4.6,0-8.5-1-12.4-3.3
			c-3.6-2-6.5-4.9-8.8-8.8c-2-3.6-3.3-7.8-3.3-12.4s1-8.8,3.3-12.4c2-3.6,4.9-6.5,8.8-8.8c3.6-2,7.8-3.3,12.4-3.3
			c3.3,0,6.5,0.7,9.4,2c2.9,1.3,5.5,2.9,7.5,5.2L517.1,382z M489.1,415.9c2.9,2.9,6.5,4.2,10.7,4.2s7.8-1.3,10.7-4.2
			c2.9-2.9,4.2-6.5,4.2-10.7c0-4.2-1.3-7.8-4.2-10.7c-2.9-2.9-6.5-4.2-10.7-4.2c-4.2,0-7.8,1.3-10.7,4.2c-2.9,2.9-4.2,6.5-4.2,10.7
			C484.8,409.7,486.1,413.2,489.1,415.9z"/>
		<path class="st1" d="M560.7,428.2L547,408.7h-5.9v19.5h-9.4v-62.5h9.4v34.5h5.9l12.4-17.9h11.4l-15.6,22.1l17.2,24.1h-11.7V428.2z
			"/>
		<path class="st1" d="M617.3,405.4c0,1,0,2-0.3,2.9h-37.4c0.7,3.6,2.3,6.5,4.6,8.8c2.6,2.3,5.5,3.3,9.4,3.3c2.6,0,5.2-0.7,7.2-2
			c2.3-1.3,3.9-2.9,5.2-4.9H616c-2,4.9-4.9,8.8-8.8,11.4c-3.9,2.9-8.5,4.2-13.7,4.2c-6.8,0-12.4-2.3-16.9-6.8
			c-4.6-4.6-6.8-10.4-6.8-17.2c0-4.6,1-8.8,2.9-12.4c2-3.6,4.9-6.5,8.5-8.8c3.6-2,7.5-3.3,12-3.3c4.6,0,8.8,1,12.4,3.3
			c3.6,2.3,6.5,5.2,8.5,8.8C616.3,396.7,617.3,400.9,617.3,405.4z M593.5,389.5c-3.6,0-6.5,1-9.1,2.9c-2.6,2-4.2,4.9-4.9,8.1h28
			c-1-3.6-2.6-6.2-4.9-8.1C600.1,390.5,597.1,389.5,593.5,389.5z"/>
		<path class="st1" d="M645,382h4.2v9.1h-4.9c-3.9,0-6.8,1-8.8,3.3c-2,2.3-2.9,5.2-2.9,9.4v24.7h-9.4v-46.2h6.5l1.6,6.2
			C634.2,384,639.1,382,645,382z"/>
	</g>
</g>
</svg>
