<?xml version="1.0" encoding="utf-8"?>
<!-- Generator: Adobe Illustrator 24.2.1, SVG Export Plug-In . SVG Version: 6.00 Build 0)  -->
<svg version="1.1" id="Layer_1" xmlns="http://www.w3.org/2000/svg" xmlns:xlink="http://www.w3.org/1999/xlink" x="0px" y="0px"
	 viewBox="0 0 800 800" style="enable-background:new 0 0 800 800;" xml:space="preserve">
<style type="text/css">
	.st0{fill-rule:evenodd;clip-rule:evenodd;fill:#13365B;}
	.st1{fill:#52BEED;}
	.st2{fill:#FFFFFF;}
</style>
<rect x="-0.4" y="-0.5" class="st0" width="801.5" height="801.5"/>
<g>
	<g>
		<path class="st1" d="M278.4,403.8c-0.1,0.2-0.1,0.4-0.2,0.6L258.8,447c-0.5,1.2-1,2.4-1.6,3.7l-0.1,0.3c-3.3,8-11,13.1-19.7,13.1
			c-0.3,0-0.6,0-0.9,0c-3.7-0.1-7.2-1.2-10.2-3c-3-1.8-5.5-4.4-7.3-7.5c-0.8-1.3-1.4-2.8-1.9-4.3l-3.4-9.6L201.1,404
			c0,0,0-0.1,0-0.1c-1.4-4.2-1.4-8.7-0.1-12.8h11.5c-2,2.8-2.5,6.2-1.5,9.5l8.9,25.4l5,14.3v0l2,5.6c0,0,0,0.1,0,0.1
			c1.5,4.5,5.2,7.4,9.9,7.6c3.7,0.2,8.4-1.5,10.5-6.6l0.1-0.3c0.5-1.3,1.1-2.7,1.7-4l19.2-42.3c1-3.3,0.4-6.7-1.7-9.5
			c-2.1-2.8-5.3-4.5-8.8-4.5h-13l-1.4-2.4c-0.5-0.8-0.9-1.5-1.4-2.1c-1.7-2.4-3.8-4.4-6.1-6h22c6.9,0,13.2,3.2,17.3,8.8
			C279.4,390.3,280.5,397.3,278.4,403.8z"/>
		<path class="st1" d="M210.1,447.8l4.7,10.8c-3.8,3.5-8.9,5.5-14.4,5.5c-0.3,0-0.6,0-0.9,0c-9-0.4-16.7-6.2-19.5-14.8l-16-45.3
			c0,0,0-0.1,0-0.1c-2.1-6.6-1-13.6,3.1-19.1c4.1-5.6,10.4-8.8,17.3-8.8h36.6c0,0,0.1,0,0.1,0c6.9,0,13.1,3.2,17.2,8.8
			c0.4,0.6,0.8,1.1,1.1,1.7c3.1,5.3,3.9,11.5,2,17.4c-0.1,0.2-0.1,0.4-0.2,0.6l-13.5,29.7l-5-14.3l8.8-19.5c1-3.3,0.4-6.7-1.7-9.5
			c-1-1.4-2.3-2.5-3.8-3.3c-1.5-0.8-3.1-1.2-4.9-1.2c0,0-0.1,0-0.1,0h-36.6c-3.5,0-6.7,1.6-8.8,4.5c-2.1,2.8-2.6,6.4-1.6,9.7
			l15.9,45.3c0,0,0,0.1,0,0.1c1.5,4.5,5.2,7.4,9.9,7.6C203.5,453.7,207.9,452.3,210.1,447.8z"/>
		<path class="st1" d="M195.4,367.4c8.9,0,16.2-7.3,16.2-16.2c0-8.9-7.3-16.2-16.2-16.2s-16.2,7.3-16.2,16.2
			C179.2,360.1,186.5,367.4,195.4,367.4z M195.4,343.6c4.2,0,7.6,3.4,7.6,7.6c0,4.2-3.4,7.6-7.6,7.6s-7.6-3.4-7.6-7.6
			C187.9,347,191.3,343.6,195.4,343.6z"/>
		<path class="st1" d="M246.8,367.4c8.9,0,16.2-7.3,16.2-16.2c0-8.9-7.3-16.2-16.2-16.2c-8.9,0-16.2,7.3-16.2,16.2
			C230.6,360.1,237.9,367.4,246.8,367.4z M246.8,343.6c4.2,0,7.6,3.4,7.6,7.6c0,4.2-3.4,7.6-7.6,7.6c-4.2,0-7.6-3.4-7.6-7.6
			C239.2,347,242.6,343.6,246.8,343.6z"/>
	</g>
	<g>
		<g>
			<path class="st2" d="M397.1,414.1c0-4.8-1.1-9.3-3.2-13.3c-2.2-4-5.2-7.2-9.3-9.6c-4-2.4-8.5-3.6-13.6-3.6
				c-4.9,0-9.4,1.2-13.4,3.5c-4,2.3-7.1,5.5-9.4,9.6c-2.3,4.1-3.4,8.6-3.4,13.6c0,5,1.1,9.5,3.4,13.6c2.3,4.1,5.4,7.3,9.4,9.6
				c4,2.3,8.4,3.5,13.3,3.5c5.8,0,11-1.6,15.5-4.9c4.5-3.2,7.7-7.6,9.5-13.1h-14.3c-1,1.8-2.5,3.3-4.4,4.3c-1.9,1-4,1.5-6.3,1.5
				c-3.3,0-6.1-0.9-8.2-2.8c-2.2-1.8-3.5-4.5-4.1-7.9h38.2C397,416.8,397.1,415.5,397.1,414.1z M359,408.8c0.8-3,2.2-5.4,4.3-7
				c2.1-1.7,4.6-2.5,7.7-2.5c3.1,0,5.7,0.8,7.8,2.5c2.1,1.6,3.7,4,4.6,7.1H359z"/>
			<path class="st2" d="M447.9,389l-1.5,4.8c-4.6-4.1-10.1-6.2-16.6-6.2c-5,0-9.5,1.2-13.5,3.4c-4,2.3-7.2,5.5-9.5,9.5
				c-2.3,4.1-3.4,8.6-3.4,13.6c0,5,1.1,9.6,3.4,13.7c2.3,4.1,5.4,7.3,9.5,9.6c4,2.3,8.6,3.5,13.5,3.5c6.3,0,11.7-2,16.3-6l1.2,4.5
				h10.7V389H447.9z M440.8,424.1c-2.6,2.6-5.9,3.9-9.8,3.9c-3.9,0-7.2-1.3-9.8-3.9c-2.6-2.6-3.9-5.9-3.9-9.9s1.3-7.2,3.9-9.9
				c2.6-2.6,5.9-3.9,9.8-3.9c4,0,7.2,1.3,9.8,3.9c2.6,2.6,3.9,5.9,3.9,9.9C444.7,418.2,443.4,421.5,440.8,424.1z"/>
			<path class="st2" d="M541.4,393.5c-3.3-3.7-7.6-5.6-12.8-5.6c-3.2,0-6.1,0.7-8.9,2.2c-2.8,1.4-5,3.4-6.8,5.9
				c-1.5-2.6-3.5-4.5-6-6c-2.6-1.4-5.4-2.1-8.6-2.1c-2.9,0-5.7,0.7-8.4,2c-2.7,1.3-4.9,3.2-6.7,5.4l-2.6-6.2h-9.5v50.4h13.6v-27.3
				c0-3.9,0.9-7,2.6-9.1c1.7-2.2,4.2-3.3,7.3-3.3c2.4,0,4.3,0.9,5.5,2.6c1.3,1.8,1.9,4.3,1.9,7.7v29.4h13.3v-27.3
				c0-3.9,0.9-7,2.6-9.1c1.7-2.2,4.1-3.3,7.1-3.3c2.5,0,4.3,0.9,5.6,2.6c1.3,1.8,1.9,4.3,1.9,7.7v29.4h13.6v-31.7
				C546.3,402,544.7,397.2,541.4,393.5z"/>
			<path class="st2" d="M558.8,389.1v50.4h13.6v-50.4H558.8z M558.8,376L558.8,376c0,3.5,2.8,6.3,6.3,6.3h0.9c3.5,0,6.3-2.8,6.3-6.3
				v0c0-3.5-2.8-6.3-6.3-6.3h-0.9C561.7,369.7,558.8,372.5,558.8,376z"/>
			<path class="st2" d="M621.1,419.7c-1.2,2.7-2.8,4.8-4.9,6.2c-2.1,1.5-4.5,2.2-7.3,2.2c-3.7,0-6.7-1.3-9.2-4
				c-2.5-2.7-3.7-6-3.7-9.9s1.2-7.2,3.7-9.8c2.5-2.6,5.6-3.9,9.2-3.9c2.7,0,5.1,0.7,7.3,2.1c2.2,1.4,3.8,3.3,4.9,5.8h13.5
				c-1.2-6.2-4.2-11.2-8.9-15c-4.7-3.8-10.3-5.7-16.8-5.7c-3.8,0-7.3,0.7-10.6,2c-3.3,1.3-6.2,3.2-8.6,5.5c-2.4,2.3-4.2,5.1-5.6,8.4
				c-1.4,3.3-2.1,6.8-2.1,10.5c0,3.7,0.7,7.2,2.1,10.5c1.4,3.3,3.2,6.2,5.6,8.5c2.4,2.4,5.2,4.3,8.5,5.6c3.3,1.4,6.8,2.1,10.6,2.1
				c6.6,0,12.2-2,17-5.9c4.8-3.9,7.7-9,8.9-15.4H621.1z"/>
		</g>
		<path class="st2" d="M339.3,427.4v12.1h-9.7c-5.5,0-9.9-1.6-13.1-4.8c-3.2-3.2-4.8-7.6-4.8-13.2v-45.6h13.4v13.2H339V400h-13.7
			v19.7c0,2.5,0.7,4.4,2,5.7c1.3,1.3,3.2,2,5.7,2H339.3z"/>
	</g>
	<g>
		<path class="st1" d="M278.4,403.8c-0.1,0.2-0.1,0.4-0.2,0.6L258.8,447c-0.5,1.2-1,2.4-1.6,3.7l-0.1,0.3c-3.3,8-11,13.1-19.7,13.1
			c-0.3,0-0.6,0-0.9,0c-3.7-0.1-7.2-1.2-10.2-3c-3-1.8-5.5-4.4-7.3-7.5c-0.8-1.3-1.4-2.8-1.9-4.3l-3.4-9.6L201.1,404
			c0,0,0-0.1,0-0.1c-1.4-4.2-1.4-8.7-0.1-12.8h11.5c-2,2.8-2.5,6.2-1.5,9.5l8.9,25.4l5,14.3v0l2,5.6c0,0,0,0.1,0,0.1
			c1.5,4.5,5.2,7.4,9.9,7.6c3.7,0.2,8.4-1.5,10.5-6.6l0.1-0.3c0.5-1.3,1.1-2.7,1.7-4l19.2-42.3c1-3.3,0.4-6.7-1.7-9.5
			c-2.1-2.8-5.3-4.5-8.8-4.5h-13l-1.4-2.4c-0.5-0.8-0.9-1.5-1.4-2.1c-1.7-2.4-3.8-4.4-6.1-6h22c6.9,0,13.2,3.2,17.3,8.8
			C279.4,390.3,280.5,397.3,278.4,403.8z"/>
		<path class="st1" d="M210.1,447.8l4.7,10.8c-3.8,3.5-8.9,5.5-14.4,5.5c-0.3,0-0.6,0-0.9,0c-9-0.4-16.7-6.2-19.5-14.8l-16-45.3
			c0,0,0-0.1,0-0.1c-2.1-6.6-1-13.6,3.1-19.1c4.1-5.6,10.4-8.8,17.3-8.8h36.6c0,0,0.1,0,0.1,0c6.9,0,13.1,3.2,17.2,8.8
			c0.4,0.6,0.8,1.1,1.1,1.7c3.1,5.3,3.9,11.5,2,17.4c-0.1,0.2-0.1,0.4-0.2,0.6l-13.5,29.7l-5-14.3l8.8-19.5c1-3.3,0.4-6.7-1.7-9.5
			c-1-1.4-2.3-2.5-3.8-3.3c-1.5-0.8-3.1-1.2-4.9-1.2c0,0-0.1,0-0.1,0h-36.6c-3.5,0-6.7,1.6-8.8,4.5c-2.1,2.8-2.6,6.4-1.6,9.7
			l15.9,45.3c0,0,0,0.1,0,0.1c1.5,4.5,5.2,7.4,9.9,7.6C203.5,453.7,207.9,452.3,210.1,447.8z"/>
		<path class="st1" d="M195.4,367.4c8.9,0,16.2-7.3,16.2-16.2c0-8.9-7.3-16.2-16.2-16.2s-16.2,7.3-16.2,16.2
			C179.2,360.1,186.5,367.4,195.4,367.4z M195.4,343.6c4.2,0,7.6,3.4,7.6,7.6c0,4.2-3.4,7.6-7.6,7.6s-7.6-3.4-7.6-7.6
			C187.9,347,191.3,343.6,195.4,343.6z"/>
		<path class="st1" d="M246.8,367.4c8.9,0,16.2-7.3,16.2-16.2c0-8.9-7.3-16.2-16.2-16.2c-8.9,0-16.2,7.3-16.2,16.2
			C230.6,360.1,237.9,367.4,246.8,367.4z M246.8,343.6c4.2,0,7.6,3.4,7.6,7.6c0,4.2-3.4,7.6-7.6,7.6c-4.2,0-7.6-3.4-7.6-7.6
			C239.2,347,242.6,343.6,246.8,343.6z"/>
	</g>
	<g>
		<g>
			<path class="st2" d="M397.1,414.1c0-4.8-1.1-9.3-3.2-13.3c-2.2-4-5.2-7.2-9.3-9.6c-4-2.4-8.5-3.6-13.6-3.6
				c-4.9,0-9.4,1.2-13.4,3.5c-4,2.3-7.1,5.5-9.4,9.6c-2.3,4.1-3.4,8.6-3.4,13.6c0,5,1.1,9.5,3.4,13.6c2.3,4.1,5.4,7.3,9.4,9.6
				c4,2.3,8.4,3.5,13.3,3.5c5.8,0,11-1.6,15.5-4.9c4.5-3.2,7.7-7.6,9.5-13.1h-14.3c-1,1.8-2.5,3.3-4.4,4.3c-1.9,1-4,1.5-6.3,1.5
				c-3.3,0-6.1-0.9-8.2-2.8c-2.2-1.8-3.5-4.5-4.1-7.9h38.2C397,416.8,397.1,415.5,397.1,414.1z M359,408.8c0.8-3,2.2-5.4,4.3-7
				c2.1-1.7,4.6-2.5,7.7-2.5c3.1,0,5.7,0.8,7.8,2.5c2.1,1.6,3.7,4,4.6,7.1H359z"/>
			<path class="st2" d="M447.9,389l-1.5,4.8c-4.6-4.1-10.1-6.2-16.6-6.2c-5,0-9.5,1.2-13.5,3.4c-4,2.3-7.2,5.5-9.5,9.5
				c-2.3,4.1-3.4,8.6-3.4,13.6c0,5,1.1,9.6,3.4,13.7c2.3,4.1,5.4,7.3,9.5,9.6c4,2.3,8.6,3.5,13.5,3.5c6.3,0,11.7-2,16.3-6l1.2,4.5
				h10.7V389H447.9z M440.8,424.1c-2.6,2.6-5.9,3.9-9.8,3.9c-3.9,0-7.2-1.3-9.8-3.9c-2.6-2.6-3.9-5.9-3.9-9.9s1.3-7.2,3.9-9.9
				c2.6-2.6,5.9-3.9,9.8-3.9c4,0,7.2,1.3,9.8,3.9c2.6,2.6,3.9,5.9,3.9,9.9C444.7,418.2,443.4,421.5,440.8,424.1z"/>
			<path class="st2" d="M541.4,393.5c-3.3-3.7-7.6-5.6-12.8-5.6c-3.2,0-6.1,0.7-8.9,2.2c-2.8,1.4-5,3.4-6.8,5.9
				c-1.5-2.6-3.5-4.5-6-6c-2.6-1.4-5.4-2.1-8.6-2.1c-2.9,0-5.7,0.7-8.4,2c-2.7,1.3-4.9,3.2-6.7,5.4l-2.6-6.2h-9.5v50.4h13.6v-27.3
				c0-3.9,0.9-7,2.6-9.1c1.7-2.2,4.2-3.3,7.3-3.3c2.4,0,4.3,0.9,5.5,2.6c1.3,1.8,1.9,4.3,1.9,7.7v29.4h13.3v-27.3
				c0-3.9,0.9-7,2.6-9.1c1.7-2.2,4.1-3.3,7.1-3.3c2.5,0,4.3,0.9,5.6,2.6c1.3,1.8,1.9,4.3,1.9,7.7v29.4h13.6v-31.7
				C546.3,402,544.7,397.2,541.4,393.5z"/>
			<path class="st2" d="M558.8,389.1v50.4h13.6v-50.4H558.8z M558.8,376L558.8,376c0,3.5,2.8,6.3,6.3,6.3h0.9c3.5,0,6.3-2.8,6.3-6.3
				v0c0-3.5-2.8-6.3-6.3-6.3h-0.9C561.7,369.7,558.8,372.5,558.8,376z"/>
			<path class="st2" d="M621.1,419.7c-1.2,2.7-2.8,4.8-4.9,6.2c-2.1,1.5-4.5,2.2-7.3,2.2c-3.7,0-6.7-1.3-9.2-4
				c-2.5-2.7-3.7-6-3.7-9.9s1.2-7.2,3.7-9.8c2.5-2.6,5.6-3.9,9.2-3.9c2.7,0,5.1,0.7,7.3,2.1c2.2,1.4,3.8,3.3,4.9,5.8h13.5
				c-1.2-6.2-4.2-11.2-8.9-15c-4.7-3.8-10.3-5.7-16.8-5.7c-3.8,0-7.3,0.7-10.6,2c-3.3,1.3-6.2,3.2-8.6,5.5c-2.4,2.3-4.2,5.1-5.6,8.4
				c-1.4,3.3-2.1,6.8-2.1,10.5c0,3.7,0.7,7.2,2.1,10.5c1.4,3.3,3.2,6.2,5.6,8.5c2.4,2.4,5.2,4.3,8.5,5.6c3.3,1.4,6.8,2.1,10.6,2.1
				c6.6,0,12.2-2,17-5.9c4.8-3.9,7.7-9,8.9-15.4H621.1z"/>
		</g>
		<path class="st2" d="M339.3,427.4v12.1h-9.7c-5.5,0-9.9-1.6-13.1-4.8c-3.2-3.2-4.8-7.6-4.8-13.2v-45.6h13.4v13.2H339V400h-13.7
			v19.7c0,2.5,0.7,4.4,2,5.7c1.3,1.3,3.2,2,5.7,2H339.3z"/>
	</g>
</g>
</svg>
