<?xml version="1.0" encoding="utf-8"?>
<!-- Generator: Adobe Illustrator 24.2.1, SVG Export Plug-In . SVG Version: 6.00 Build 0)  -->
<svg version="1.1" id="Layer_1" xmlns="http://www.w3.org/2000/svg" xmlns:xlink="http://www.w3.org/1999/xlink" x="0px" y="0px"
	 viewBox="0 0 800 800" style="enable-background:new 0 0 800 800;" xml:space="preserve">
<style type="text/css">
	.st0{fill-rule:evenodd;clip-rule:evenodd;}
	.st1{fill:#EEEEEE;}
</style>
<rect x="-0.4" y="-0.5" class="st0" width="801.5" height="801.5"/>
<g>
	<g>
		<g>
			<path class="st1" d="M310.4,460L310.4,460c0-7.5,5.7-13.8,13.8-13.8c3.9,0,6.6,1.2,9,2.7c0.6,0.6,1.2,1.2,1.2,2.4
				c0,1.5-1.2,2.7-3,2.7c-0.9,0-1.2-0.3-1.8-0.6c-1.5-1.2-3.3-1.8-5.4-1.8c-4.5,0-7.8,3.6-7.8,8.4l0,0c0,4.5,3,8.4,7.8,8.4
				c2.4,0,4.2-0.9,5.7-2.1c0.6-0.3,1.2-0.6,1.8-0.6c1.5,0,2.7,1.2,2.7,2.7c0,0.9-0.6,1.5-0.9,2.1c-2.4,2.1-5.1,3.3-9.3,3.3
				C316.5,473.8,310.4,467.8,310.4,460z"/>
		</g>
		<g>
			<path class="st1" d="M346.8,461.8v-12.6c0-1.5,1.2-3,3-3s3,1.2,3,3v12.3c0,4.2,2.1,6.6,5.7,6.6s5.7-2.1,5.7-6.3v-12.6
				c0-1.5,1.2-3,3-3s3,1.2,3,3v12.3c0,8.1-4.5,12-11.7,12C351.1,473.8,346.8,469.6,346.8,461.8z"/>
		</g>
		<g>
			<path class="st1" d="M382.7,449.7c0-1.5,1.2-3,3-3h9.3c3.3,0,6,0.9,7.8,2.7c1.5,1.5,2.4,3.6,2.4,6l0,0c0,4.2-2.1,6.6-5.4,8.1
				l4.2,4.8c0.6,0.6,0.9,1.2,0.9,2.1c0,1.5-1.5,2.7-2.7,2.7c-1.2,0-2.1-0.6-3-1.5l-5.7-7.2h-4.8v5.7c0,1.5-1.2,3-3,3s-3-1.2-3-3
				V449.7z M394.7,459.7c2.7,0,4.5-1.5,4.5-3.9l0,0c0-2.4-1.8-3.9-4.5-3.9H389v7.5h5.7V459.7z"/>
		</g>
		<g>
			<path class="st1" d="M416.4,469.6l9.3-21.1c0.6-1.5,1.8-2.4,3.3-2.4h0.3c1.5,0,2.7,0.9,3.3,2.4l9.3,21.1c0.3,0.3,0.3,0.9,0.3,1.2
				c0,1.5-1.2,2.7-2.7,2.7c-1.5,0-2.4-0.9-2.7-2.1l-1.8-4.2h-11.7l-1.8,4.5c-0.6,1.2-1.5,1.8-2.7,1.8c-1.5,0-2.7-1.2-2.7-2.7
				C416.1,470.5,416.1,469.9,416.4,469.6z M432.6,462.1l-3.6-8.7l-3.6,8.7H432.6z"/>
		</g>
		<g>
			<path class="st1" d="M457.6,452.1h-5.7c-1.5,0-2.7-1.2-2.7-2.7c0-1.5,1.2-2.7,2.7-2.7H469c1.5,0,2.7,1.2,2.7,2.7
				c0,1.5-1.2,2.7-2.7,2.7h-5.4v18.4c0,1.5-1.2,3-3,3c-1.5,0-3-1.2-3-3V452.1z"/>
		</g>
		<g>
			<path class="st1" d="M481.4,460L481.4,460c0-7.5,6-13.8,14.1-13.8c8.1,0,14.1,6,14.1,13.5l0,0c0,7.5-6,13.8-14.1,13.8
				S481.4,467.5,481.4,460z M503.6,460L503.6,460c0-4.5-3.3-8.4-8.1-8.4c-4.8,0-8.1,3.6-8.1,8.4l0,0c0,4.5,3.3,8.4,8.1,8.4
				C500.3,468.4,503.6,464.5,503.6,460z"/>
		</g>
		<g>
			<path class="st1" d="M522.3,449.7c0-1.5,1.2-3,3-3h9.3c3.3,0,6,0.9,7.8,2.7c1.5,1.5,2.4,3.6,2.4,6l0,0c0,4.2-2.1,6.6-5.4,8.1
				l4.2,4.8c0.6,0.6,0.9,1.2,0.9,2.1c0,1.5-1.5,2.7-2.7,2.7c-1.2,0-2.1-0.6-3-1.5l-5.7-7.2h-4.8v5.7c0,1.5-1.2,3-3,3
				c-1.8,0-3-1.2-3-3L522.3,449.7L522.3,449.7z M534,459.7c2.7,0,4.5-1.5,4.5-3.9l0,0c0-2.4-1.8-3.9-4.5-3.9h-5.7v7.5h5.7V459.7z"/>
		</g>
	</g>
	<g>
		<g>
			<path class="st1" d="M351.4,331.8h-5.1c-1.5,0-2.4-1.2-2.4-2.4c0-1.5,1.2-2.4,2.4-2.4h16.3c1.5,0,2.4,1.2,2.4,2.4
				c0,1.5-1.2,2.4-2.4,2.4h-5.4v17.5c0,1.5-1.2,2.7-2.7,2.7c-1.5,0-2.7-1.2-2.7-2.7v-17.5H351.4z"/>
		</g>
		<g>
			<path class="st1" d="M373,329.4c0-1.5,1.2-2.7,2.7-2.7c1.5,0,2.7,1.2,2.7,2.7v7.5h10.2v-7.5c0-1.5,1.2-2.7,2.7-2.7
				c1.5,0,2.7,1.2,2.7,2.7v19.9c0,1.5-1.2,2.7-2.7,2.7c-1.5,0-2.7-1.2-2.7-2.7v-7.5h-10.2v7.5c0,1.5-1.2,2.7-2.7,2.7
				c-1.5,0-2.7-1.2-2.7-2.7V329.4z"/>
		</g>
		<g>
			<path class="st1" d="M404.6,348.9v-19.6c0-1.5,1.2-2.7,2.7-2.7h13.8c1.5,0,2.4,1.2,2.4,2.4c0,1.5-1.2,2.4-2.4,2.4H410v5.1h9.6
				c1.5,0,2.4,1.2,2.4,2.4c0,1.5-1.2,2.4-2.4,2.4H410v5.1h11.4c1.5,0,2.4,1.2,2.4,2.4c0,1.5-1.2,2.4-2.4,2.4h-14.1
				C405.8,351.9,404.6,350.4,404.6,348.9z"/>
		</g>
	</g>
	<g>
		<path class="st1" d="M274.3,346.2c1.2-2.7,2.4-5.1,3.3-7.5c0.3-1.2,0.6-2.4,0.6-3.3c0-0.6,0-0.9-0.3-0.9c0-0.3-0.3-0.3-0.6-0.6
			c-0.3-0.6-1.2-0.9-2.4-0.9c-1.2,0-2.4,0-3.6,0.3c-2.4,0.3-5.1,1.2-7.8,2.4c-5.1,2.1-9.9,4.8-14.7,7.8c-4.8,3-9.3,6.3-13.5,9.9
			c-8.7,7.2-16.3,15.6-22.6,25c-3,4.5-5.7,9.6-8.4,14.7c-2.4,5.1-4.5,10.2-6,15.6c-1.5,5.4-3,10.8-3.3,16.3
			c-0.6,5.4-0.3,11.1,0.9,16.3c1.2,5.1,3.6,9.9,7.2,13.8c1.8,1.8,3.9,3.6,6.3,5.1l0.9,0.6l0.9,0.6c0.6,0.3,1.2,0.6,1.8,0.9
			c1.2,0.6,2.4,1.2,3.6,1.8c5.1,2.1,10.2,3.3,15.6,3.9c5.4,0.3,10.8-0.3,16.3-1.5c5.4-1.5,10.5-3.6,15-6.3c4.8-2.7,9-6.3,12.6-10.5
			v3.3c0.3,0.3,0.3,0.3,0.3,0.3l0,0c0,0,0,0,0.3,0h0.3l0,0c0,0,0,0-0.3,0c-0.3,0.3-0.9,0.6-1.5,1.2l-3.6-3.9c0.9-0.6,1.8-1.5,3-2.1
			c0.3,0,0.6-0.3,1.2-0.3c0.3,0,0.9-0.3,1.5,0c0.6,0,1.2,0,1.5,0.3c0.3,0,0.6,0.3,0.9,0.3l0.3,0.3c0,0,0.3,0.3,0.6,0.6
			c0.9,0.9,0.6,2.4,0,3.3l0,0c-3.9,4.5-8.7,8.4-13.8,11.7c-5.1,3-10.8,5.4-16.6,6.9c-5.7,1.5-12,2.1-18.1,1.8
			c-6-0.3-12-1.8-17.8-4.2c-1.5-0.6-2.7-1.2-4.2-2.1c-0.6-0.3-1.2-0.9-2.1-1.2l-0.9-0.6l-0.9-0.6c-2.4-1.5-5.1-3.6-7.2-5.7
			c-4.5-4.5-7.2-10.2-8.7-16.3c-1.5-6-1.5-12-0.9-18.1c0.6-6,1.8-11.7,3.6-17.5s3.9-11.1,6.6-16.6c2.4-5.4,5.4-10.5,8.7-15.3
			c6.6-9.9,14.7-18.4,23.8-25.9c4.5-3.9,9.3-7.2,14.1-10.5s10.2-6,15.6-8.1c2.7-1.2,5.7-2.1,8.7-2.4c1.5-0.3,3.3-0.3,4.8-0.3
			c1.8,0.3,3.6,0.3,5.4,1.8c0.9,0.6,1.8,1.5,2.4,2.7c0.6,1.2,0.6,2.1,0.6,3.3c0,2.1-0.6,3.6-0.9,5.1c-0.9,3-2.4,5.7-3.6,8.1
			L274.3,346.2z"/>
	</g>
	<g>
		<path class="st1" d="M275.5,431.4c-3.9,0-6.9-0.9-9.9-2.4c-2.4-1.2-3.9-3.6-4.5-6.3c0-0.3,0-0.3,0-0.6c-5.7,3-9.9,5.1-10.2,5.1
			l-2.4-5.1c0,0,6.3-3,13.8-7.2c2.1-6,8.1-15.6,23.5-32.2c34-36.4,39.1-32.5,41.5-30.7c0.6,0.3,1.5,1.5,1.5,3.3
			c0.3,7.5-18.4,31.6-36.4,46.9c-6.9,5.7-16.9,12-25.6,16.9c-0.3,1.2-0.3,2.1-0.3,2.7c0.3,0.9,0.6,1.5,1.5,2.1
			c8.4,4.5,23.5-0.3,51.5-16.9l3,4.8C300.2,425.4,285.8,431.4,275.5,431.4z M322.8,357.3c-3.3,1.5-12,6.9-32.8,29.5
			c-9.6,10.2-15.3,17.8-18.7,23.2c6.3-3.9,12.9-8.1,17.8-12C306.5,382.9,320.1,364,322.8,357.3z"/>
	</g>
	<g>
		<path class="st1" d="M363.1,429.9c-3.6,0-5.4-1.8-6.3-3.3c-1.8-3.6,0-9.3,3-14.7c-2.1,1.5-4.5,2.7-6.6,4.2
			c-12.6,7.5-30.7,16.9-40.6,9.6c-1.8-1.2-2.7-3-2.7-5.1c0-8.7,19.6-22.6,25.6-26.5l3.3,4.8c-13.8,9.3-23.8,19.6-23.2,22l0,0
			c5.4,3.9,16.9,0.3,34.3-9.9c8.7-5.1,18.7-12.3,18.7-12.3c1.2-0.9,2.7-0.6,3.6,0.3c0.9,0.9,1.2,2.7,0.3,3.9
			c-7.5,9.6-12,19-11.1,20.8l0,0c0,0,0.6,0.3,2.1,0c14.1-1.5,39.4-15.3,39.7-15.3l2.7,5.1c-1.2,0.6-26.5,14.7-41.8,16.3
			C364,429.9,363.4,429.9,363.1,429.9z"/>
	</g>
	<g>
		<path class="st1" d="M454.9,432.3c-2.7,0-5.4-0.6-7.2-2.1c-2.1-1.8-3.3-4.2-3.6-6.9c-0.6-7.5,7.2-16.3,16.3-26.5
			c1.8-1.8,3.3-3.9,5.1-5.7c12.3-14.4,43.9-43.9,45.1-45.1l3.9,4.2c-0.3,0.3-32.5,30.7-44.8,44.8c-1.8,2.1-3.6,3.9-5.1,6
			c-7.5,8.4-15.3,17.2-15,22.3c0,1.2,0.6,2.1,1.5,2.7c4.2,3.6,23.5-4.2,38.5-13.5l3,4.8C488.3,419.9,467.8,432.3,454.9,432.3z"/>
	</g>
	<g>
		<path class="st1" d="M410,383.5c0,0,1.5-0.6,4.5-1.2c1.5-0.3,3.3-0.6,5.1-0.9c2.1-0.3,4.2-0.9,6.9-1.2c1.2-0.3,2.4-0.3,3.9-0.6
			c1.2-0.3,2.7-0.3,4.2-0.6c3-0.3,6-0.6,9-0.9c3-0.3,6.3-0.3,9.6-0.3c3.3,0,6.6,0,9.9-0.3c6.6-0.3,13.5-0.3,19.9-0.6
			c3,0,6.3-0.3,9,0c3,0,5.7,0,8.1,0c2.4,0,4.8,0,6.9,0s3.9,0,5.4,0.3c3,0,4.5,0.3,4.5,0.3v0.6c0,0-1.8,0-4.5,0.3
			c-1.5,0-3.3,0.3-5.4,0.3s-4.2,0.3-6.9,0.6c-5.1,0.3-10.8,0.9-17.2,1.5c-6.3,0.6-12.9,1.2-19.6,1.8c-3.3,0.3-6.6,0.6-9.9,0.9
			c-3.3,0.3-6.6,0.6-9.6,0.9c-3,0.3-6.3,0.3-9,0.3c-1.5,0-2.7,0-4.2,0s-2.7,0-3.9,0c-2.4,0-4.8,0-6.9,0c-2.1,0-3.9-0.3-5.4-0.3
			c-3-0.3-4.5-0.3-4.5-0.3L410,383.5z"/>
	</g>
	<g>
		<path class="st1" d="M449.2,382.6c0,0,2.7-0.6,7.5-1.2c4.8-0.6,11.7-1.5,20.2-2.4c2.1-0.3,4.2-0.3,6.6-0.6
			c2.1-0.3,4.5-0.3,6.9-0.6c4.8-0.3,9.9-0.6,15-0.9s10.5-0.3,16-0.3s11.1,0,16.6,0c5.4,0,11.1-0.3,16.6,0c5.4,0,10.8,0,16,0
			c2.7,0,5.1,0,7.5,0c2.4,0,4.8,0,7.2,0.3c4.8,0,9.3,0.3,13.5,0.3c2.1,0,4.2,0,6,0.3c1.8,0,3.6,0.3,5.4,0.3c3.3,0.3,6.3,0.3,8.7,0.6
			c4.8,0.3,7.5,0.6,7.5,0.6v0.6c0,0-2.7,0-7.5,0c-2.4,0-5.4,0-8.7-0.3c-1.8,0-3.6,0-5.4,0c-1.8,0-3.9,0-6,0c-4.2,0-8.7,0.3-13.5,0.3
			c-2.4,0-4.8,0-7.2,0s-5.1,0.3-7.5,0.3c-5.1,0.3-10.5,0.3-16,0.6c-5.4,0.3-11.1,0.6-16.6,0.9c-5.4,0.3-11.1,0.6-16.6,0.9
			c-5.4,0.3-10.8,0.6-16,0.9c-5.1,0.3-10.2,0.3-15,0.3c-2.4,0-4.8,0-6.9,0c-2.1,0-4.5,0-6.6,0c-4.2,0-8.1,0-11.4,0s-6.3,0-8.7-0.3
			c-4.8,0-7.5-0.3-7.5-0.3L449.2,382.6z"/>
	</g>
	<g>
		<path class="st1" d="M509.4,431.1c-8.7,0-13.2-4.2-15.6-7.2c-5.4-7.8-3-19.6,2.4-25.3c7.5-7.8,15.6-8.4,19.9-5.1
			c3,2.4,3.3,6.3,0.9,9.6c-3.6,5.1-14.4,10.5-20.2,13.2c0.3,1.5,0.9,2.7,1.8,4.2c4.2,6,13.5,6.3,26.2,1.2
			c8.4-3.3,22.3-15.3,27.7-20.2c5.7-5.1,7.8-6.6,9-7.2c5.1-2.7,11.4-2.4,14.4-0.3c1.5,0.9,2.1,2.4,1.8,3.9
			c-0.9,5.1-5.4,10.2-14.4,16.3c-4.2,2.7-5.7,6-5.4,7.2c0,0.3,1.5,0.9,4.2,0.9c7.5-0.3,17.5-4.2,22.3-6.6v-0.3
			c-0.6,0.3-0.9,0.6-0.9,0.6s0.3-0.6,0.3-0.9c0.6-1.2,1.5-3.9,4.2-3.9c1.2,0,2.4,0.6,3,1.5c1.2,1.8,0.6,3.9,0.3,5.1
			c-0.3,0.6-0.9,1.2-1.5,1.5s-16,7.8-27.4,8.4c-7.2,0.3-9.3-3-9.9-4.8c-1.5-4.8,2.7-10.5,7.5-13.8c7.5-4.8,10.5-8.4,11.4-10.8
			c-1.5-0.3-4.8-0.3-7.5,0.9c-0.6,0.3-2.7,1.8-7.8,6.3c-7.2,6.3-20.5,17.5-29.5,21.1C519.6,429.9,513.9,431.1,509.4,431.1z
			 M510,397.1c-2.1,0-5.7,1.2-9.6,5.4c-1.8,1.8-3,4.5-3.6,7.5c6.3-3,13.2-7.2,15.3-10.2c0.9-1.5,0.3-1.8,0-2.1
			C511.8,397.4,511.2,397.1,510,397.1z"/>
	</g>
	<g>
		<path class="st1" d="M406.4,432c-2.4,0-4.5-0.6-6-1.8c-2.1-1.8-3.3-4.2-3.6-6.9c-0.6-7.5,7.2-16.3,16.3-26.5
			c1.8-1.8,3.3-3.9,5.1-5.7c12.3-14.4,43.9-43.9,45.1-45.1l3.9,4.2c-0.3,0.3-32.5,30.7-44.8,44.8c-1.8,2.1-3.6,3.9-5.1,6
			c-7.5,8.4-15.3,17.2-15,22.3c0,1.2,0.6,2.1,1.5,2.7c4.2,3.6,28.9-7.8,49.1-20.5l3,4.8C447.4,416,420.3,432,406.4,432z"/>
	</g>
</g>
</svg>
