<?xml version="1.0" encoding="utf-8"?>
<!-- Generator: Adobe Illustrator 24.2.1, SVG Export Plug-In . SVG Version: 6.00 Build 0)  -->
<svg version="1.1" id="Layer_1" xmlns="http://www.w3.org/2000/svg" xmlns:xlink="http://www.w3.org/1999/xlink" x="0px" y="0px"
	 viewBox="0 0 800 800" style="enable-background:new 0 0 800 800;" xml:space="preserve">
<style type="text/css">
	.st0{fill-rule:evenodd;clip-rule:evenodd;fill:#FFFFFF;}
	.st1{fill:#E46C0A;}
	.st2{fill:#212121;}
</style>
<rect x="-0.4" y="-0.5" class="st0" width="801.5" height="801.5"/>
<g>
	<path class="st1" d="M485.7,310.3h-81.1c-2.4,0-4.5,2.1-4.5,4.5v3.8c0,2.4,2.1,4.5,4.5,4.5H416c-0.7,2.1-2.1,4.1-3.8,5.8
		c-3.1,3.1-7.6,5.2-12,5.2c-4.5,0-8.9-1.7-12-5.2c-2.4-2.4-3.8-5.2-4.5-8.2c-0.3-2.1-2.4-3.8-4.5-3.8h-3.8c-2.7,0-4.8,2.7-4.5,5.5
		c1,5.8,3.8,11.3,8.2,15.8c6.9,6.9,16.8,10,27.1,8.2c3.4-0.7,6.9-2.1,9.6-3.8c7.2-4.5,11.7-11.3,13.4-18.9h7.6
		c-1.4,7.6-4.8,14.4-10.3,19.9c-8.6,8.6-20.6,12.4-33,10.3c-5.2-1-10-2.7-14.1-5.8c-10.3-7.2-16.1-18.5-16.1-30.6
		c0-8.6,2.7-16.8,8.2-23.4c1.4-1.7,1.4-4.5-0.3-5.8l-3.1-3.4c-1.7-1.7-5.2-1.7-6.5,0.3c-8.6,10.6-12.7,24-11,37.8
		c1,8.9,4.5,17.2,10,24c9.6,12.4,24,19.2,39.5,19.2c13.4,0,25.8-5.2,35-14.4c7.9-7.9,12.7-17.9,14.1-28.9h7.6
		c-1.7,15.1-8.9,28.5-21.3,38.5c-8.9,7.2-19.6,11.3-30.9,12.4c-18.9,1.4-37.1-6.2-49.1-21c-7.2-8.9-11.3-19.6-12.4-30.9
		c-1.4-17.2,4.5-33.3,16.5-45.3c9.6-9.6,22.3-15.5,36.1-16.5c2.4-0.3,4.1-2.1,4.1-4.5v-4.1c0-2.7-2.1-4.8-4.8-4.5
		c-16.8,1-32.6,8.2-44.6,20.3c-13.1,13.1-20.6,30.6-20.6,49.5c0,18.5,7.2,36.1,20.6,49.5c13.1,13.1,30.6,20.6,49.5,20.6
		s36.1-7.2,49.5-20.6c11.7-11.7,18.5-26.8,20.3-42.9h7.6c-1.4,18.2-9.3,35-22.3,48.1c-14.4,14.4-34,22.7-54.6,22.7
		c-20.6,0-39.8-7.9-54.6-22.7c-14.4-14.4-22.7-34-22.7-54.6s7.9-39.8,22.7-54.6c14.4-14.4,34-22.7,54.6-22.7
		c19.2,0,37.4,6.9,51.5,19.6c1.7,1.7,4.5,1.7,6.2,0l2.7-2.7c1.7-1.7,1.7-4.8,0-6.5c-16.5-14.8-37.8-23-60.1-23
		c-24,0-46.7,9.3-63.5,26.4c-16.8,16.8-26.4,39.5-26.4,63.5s9.3,46.7,26.4,63.5c16.8,16.8,39.5,26.4,63.5,26.4
		c24,0,46.7-9.3,63.5-26.4c16.8-16.8,26.4-39.5,26.4-63.5v-1.7C490.2,312.4,488.1,310.3,485.7,310.3z"/>
	<g>
		<path class="st2" d="M284.8,450.5c-8.2,0-15.8,3.1-21.6,8.9s-8.9,13.4-8.9,21.6c0,8.2,3.1,15.8,8.9,21.6
			c5.8,5.8,13.4,8.9,21.6,8.9c6.9,0,13.4-2.4,18.5-6.5v4.5c0,5.2-2.1,9.6-5.5,13.1s-8.2,5.5-13.1,5.5c-4.8,0-9.6-2.1-13.1-5.5
			l-8.2,8.2c5.8,5.8,13.4,8.9,21.6,8.9s15.8-3.1,21.6-8.9c5.8-5.8,8.9-13.4,8.9-21.6v-28.5c0-8.2-3.1-15.8-8.9-21.6
			C300.6,453.6,293.1,450.5,284.8,450.5z M297.9,494.1c-3.4,3.4-8.2,5.5-13.1,5.5c-4.8,0-9.6-2.1-13.1-5.5s-5.5-8.2-5.5-13.1
			c0-5.2,2.1-9.6,5.5-13.1s8.2-5.5,13.1-5.5c5.2,0,9.6,2.1,13.1,5.5s5.5,8.2,5.5,13.1C303.4,485.8,301.3,490.3,297.9,494.1z"/>
		<path class="st2" d="M420.1,480.7c0-8.2-3.1-15.8-8.9-21.6c-5.8-5.8-13.4-8.9-21.6-8.9c-8.2,0-15.8,3.1-21.6,8.9
			c-5.8,5.8-8.9,13.4-8.9,21.6s3.1,15.8,8.9,21.6c5.8,5.8,13.4,8.9,21.6,8.9c8.2,0,15.8-3.1,21.6-8.9
			C417,496.5,420.1,488.9,420.1,480.7z M403,494.1c-3.4,3.4-8.2,5.5-13.1,5.5c-5.2,0-9.6-2.1-13.1-5.5s-5.5-8.2-5.5-13.1
			c0-5.2,2.1-9.6,5.5-13.1s8.2-5.5,13.1-5.5c4.8,0,9.6,2.1,13.1,5.5s5.5,8.2,5.5,13.1C408.5,485.8,406.4,490.3,403,494.1z"/>
		<path class="st2" d="M537.3,459.4c-5.8-5.8-13.4-8.9-21.6-8.9c-8.2,0-15.8,3.1-21.6,8.9c-5.8,5.8-8.9,13.4-8.9,21.6
			c0,8.2,3.1,15.8,8.9,21.6c5.8,5.8,13.4,8.9,21.6,8.9c8.2,0,15.8-3.1,21.6-8.9l-8.2-8.2c-3.4,3.4-8.2,5.5-13.1,5.5
			c-5.2,0-9.6-2.1-13.1-5.5c-2.1-2.1-3.8-4.5-4.5-7.2h48.1v-5.8C546.2,472.8,543.1,464.9,537.3,459.4z M498.1,474.9
			c1-2.7,2.4-5.2,4.5-7.2c3.4-3.4,8.2-5.5,13.1-5.5c4.8,0,9.6,2.1,13.1,5.5c2.1,2.1,3.8,4.5,4.5,7.2H498.1z"/>
		<path class="st2" d="M325,482.4v26.8h11.7v-26.8c0-5.2,2.1-9.6,5.5-13.1s8.2-5.5,13.1-5.5v-11.7c-8.2,0-15.8,3.1-21.6,8.9
			C328.1,466.6,325,474.2,325,482.4z"/>
		<polygon class="st2" points="484.4,451.8 471.3,451.8 452.8,487.9 434.2,451.8 420.8,451.8 450.4,509.2 455.2,509.2 		"/>
		<polygon class="st2" points="261.1,439.8 264.9,439.8 264.9,418.9 269.7,418.9 269.7,415.4 264.9,415.4 264.9,406.8 261.1,406.8 
			261.1,415.4 257,415.4 257,418.9 261.1,418.9 		"/>
		<path class="st2" d="M277.3,430.9c0-3.1,0-5.2,0.3-6.2c0.3-1.7,1.4-3.1,2.7-4.1c1.4-1,3.1-1.7,4.8-1.7c1.4,0,2.7,0.3,3.8,1
			s1.4,1.7,2.1,3.4c0.3,1,0.3,2.7,0.3,5.2v11.7h3.8v-12.4c0-3.1-0.3-5.5-1-7.2s-1.7-2.7-3.1-3.8s-3.1-1.4-4.8-1.4s-3.4,0.3-4.8,1.4
			c-1.4,0.7-2.4,1.7-3.4,2.7v-12.4h-3.8v33.3h3.8v-9.6H277.3z"/>
		<path class="st2" d="M324,427.8c0-3.4-1-6.2-2.7-8.2c-2.4-3.1-5.8-4.8-10-4.8s-7.2,1.4-9.6,4.5c-1.7,2.4-2.7,5.2-2.7,8.2
			c0,3.1,1,6.2,3.4,8.6c2.1,2.7,5.5,3.8,9.3,3.8c1.7,0,3.4-0.3,4.8-0.7c1.4-0.7,2.7-1.4,3.8-2.4c1-1,2.1-2.4,3.1-4.1l0.3-0.3l-3.4-1
			v0.3c-1,1.4-1.7,2.4-2.4,3.1c-0.7,0.7-1.7,1-2.7,1.7c-1,0.3-2.1,0.7-3.4,0.7c-2.4,0-4.5-0.7-5.8-2.4s-2.4-3.4-2.4-6.2h21
			L324,427.8z M318.5,421.6c0.7,0.7,1,2.1,1.7,3.1h-16.5c0.7-1.7,1.4-3.1,2.4-4.1c1.7-1.4,3.4-2.1,5.5-2.1c1.4,0,2.7,0.3,3.8,0.7
			C316.8,419.9,317.4,420.9,318.5,421.6z"/>
		<path class="st2" d="M418.8,552.1c-2.1,2.7-4.8,4.1-8.2,4.1c-1.7,0-3.4-0.3-4.8-1c-1.4-0.7-2.7-2.1-3.4-3.4
			c-0.7-1.4-1.4-3.1-1.4-4.5c0-2.4,1-4.8,2.7-6.5c1.7-1.7,4.1-2.7,6.9-2.7c3.4,0,6.2,1.4,8.2,4.1l0.3,0.3l3.1-1.7l-0.3-0.3
			c-0.7-1.4-1.7-2.1-2.7-3.1c-1-0.7-2.4-1.4-3.8-2.1c-1.4-0.3-3.1-0.7-4.5-0.7c-2.4,0-4.8,0.7-6.9,1.7s-3.8,2.7-4.8,4.8
			s-1.7,4.1-1.7,6.5c0,3.4,1.4,6.5,3.8,8.9c2.4,2.4,5.8,3.8,9.6,3.8c2.4,0,4.8-0.3,6.5-1.4c2.1-1,3.4-2.4,4.8-4.1l0.3-0.3
			L418.8,552.1L418.8,552.1z"/>
		<path class="st2" d="M443.8,535.6c-1.4-1-3.1-1.4-4.8-1.4s-3.4,0.3-4.8,1.4c-1.4,0.7-2.4,1.7-3.4,2.7V526H427v33.3h3.8v-8.9
			c0-3.1,0-5.2,0.3-6.2c0.3-1.7,1.4-3.1,2.7-4.1c1.4-1,3.1-1.7,4.8-1.7c1.4,0,2.7,0.3,3.8,1c1,0.7,1.7,1.7,2.1,3.4
			c0.3,1,0.3,2.7,0.3,5.2v11.7h3.8v-12.4c0-3.1-0.3-5.5-1-7.2C446.2,538,445.2,536.7,443.8,535.6z"/>
		<path class="st2" d="M470.6,546.3c0,2.7,0,4.8-0.3,5.5c-0.3,1.4-1,2.4-2.4,3.1c-1,0.7-2.4,1-4.1,1s-3.1-0.3-4.1-1
			s-2.1-1.7-2.4-3.1c-0.3-1-0.3-2.7-0.3-5.5V535h-3.8v11.7c0,3.4,0.3,5.8,1,7.6c0.7,1.7,2.1,3.1,3.4,4.1c1.7,1,3.4,1.4,5.8,1.4
			c2.4,0,4.5-0.3,5.8-1.4c1.7-1,2.7-2.4,3.4-4.1c0.7-1.7,1-4.1,1-7.6v-12h-3.8v11.7H470.6z"/>
		<path class="st2" d="M485.4,535.3c-0.7,0.7-1.7,1.4-2.4,2.1v-2.7h-3.8v24h3.8v-8.2c0-4.1,0.3-6.5,0.7-7.9c0.3-1.7,1-2.7,2.1-3.8
			c0.7-0.7,1.7-1,2.7-1c0.3,0,0.7,0,1.4,0.3h0.3l2.1-3.1l-0.3-0.3C489.5,533.9,487.5,534.3,485.4,535.3z"/>
		<path class="st2" d="M514.2,552.1c-2.1,2.7-4.8,4.1-8.2,4.1c-1.7,0-3.4-0.3-4.8-1c-1.4-0.7-2.7-2.1-3.4-3.4
			c-0.7-1.4-1.4-3.1-1.4-4.5c0-2.4,1-4.8,2.7-6.5s4.1-2.7,6.9-2.7c3.4,0,6.2,1.4,8.2,4.1l0.3,0.3l3.1-1.7l-0.3-0.3
			c-0.7-1.4-1.7-2.1-2.7-3.1c-1-0.7-2.4-1.4-3.8-2.1c-1.4-0.3-3.1-0.7-4.5-0.7c-2.4,0-4.8,0.7-6.9,1.7c-2.1,1-3.8,2.7-4.8,4.8
			c-1,2.1-1.7,4.1-1.7,6.5c0,3.4,1.4,6.5,3.8,8.9s5.8,3.8,9.6,3.8c2.4,0,4.8-0.3,6.5-1.4c2.1-1,3.4-2.4,4.8-4.1l0.3-0.3L514.2,552.1
			L514.2,552.1z"/>
		<path class="st2" d="M539.3,535.6c-1.4-1-3.1-1.4-4.8-1.4s-3.4,0.3-4.8,1.4c-1.4,0.7-2.4,1.7-3.4,2.7V526h-3.8v33.3h3.8v-8.9
			c0-3.1,0-5.2,0.3-6.2c0.3-1.7,1.4-3.1,2.7-4.1c1.4-1,3.1-1.7,4.8-1.7c1.4,0,2.7,0.3,3.8,1c1,0.7,1.7,1.7,2.1,3.4
			c0.3,1,0.3,2.7,0.3,5.2v11.7h3.8v-12.4c0-3.1-0.3-5.5-1-7.2C541.7,538,540.7,536.7,539.3,535.6z"/>
	</g>
</g>
</svg>
