<?xml version="1.0" encoding="utf-8"?>
<!-- Generator: Adobe Illustrator 24.2.1, SVG Export Plug-In . SVG Version: 6.00 Build 0)  -->
<svg version="1.1" id="Layer_1" xmlns="http://www.w3.org/2000/svg" xmlns:xlink="http://www.w3.org/1999/xlink" x="0px" y="0px"
	 viewBox="0 0 800 800" style="enable-background:new 0 0 800 800;" xml:space="preserve">
<style type="text/css">
	.st0{fill-rule:evenodd;clip-rule:evenodd;fill:#FFFFFF;}
	.st1{fill:#FFFFFF;}
	.st2{fill:#8D7967;}
	.st3{fill:#D0BAA1;}
	.st4{fill:none;}
	.st5{fill:#67574F;}
</style>
<rect x="-0.4" y="-0.5" class="st0" width="801.5" height="801.5"/>
<g>
	<g>
		<circle class="st1" cx="232.6" cy="414.3" r="120.8"/>
		<g>
			<g>
				<g>
					<g>
						<g>
							<g>
								<g>
									<path class="st2" d="M300.8,432.5c13.8,2.9,20.9-3.1,20.9-3.1l10.2,4.1c1.3,0.6,2.3,1,3,1.4c4.4,2,10.2,4.9,15.2,8.6
										c2.3-9.3,3.5-19.1,3.5-29.1c0-66.8-54.2-121-121-121c-4.8,0-9.5,0.3-14.2,0.8c2.7,1.1,9.1,4.2,12,8.8
										c3.7,5.9-1.5,4.3-6,4.8c-4.5,0.6-3.5,3.7,5.1,5.3c8.5,1.7,8.8,4.5,8,6.8c-0.8,2.3-23.2-3.7-34.6-5.9
										c-11.5-2.3-11.5-3.9-7.5-8.2c3.1-3.2,3-5.2,1-6.9c-49.1,15.4-84.7,61.3-84.7,115.5c0,23.1,6.5,44.7,17.7,63l10.4-8.9
										c8.3,2.3,42.3,11.1,69.5,10.5c-2.2,9.8-9,40.4-11.9,51.2c3.3,1,6.6,1.9,10,2.6l7-44.3l6.3,46.4c4,0.4,8,0.6,12.1,0.6
										c11.4,0,22.3-1.6,32.8-4.5c4-13.2,8.8-24.5,8.8-24.5c11.3,5.5,23.6,5.6,31,4.9c2.6-1.9,5-3.9,7.4-6
										c-12.3,1.2-27.8,1-39.3-5.1c0,0,8.1-8.5,3-38.6l7.5,3.5c0,0-1.5,6.6,5.4,9.4c6.9,2.8,9.2,3.3,11.3,4.1
										c6.4,2.4,10.3,0,11.8-1.6l16.4-0.3c0,0,0.7,4.1,1.6,9.2c3.1-4.3,6-8.8,8.5-13.5c-10,1.2-20.7,0.9-25.9,0.6
										c-3.8-7.4-2.9-14-2.9-14l-1.6,0.2c-2,5.1-0.7,9.7,0.3,11.9c-0.6,0.7-1.9,5.3-7.3,3.8c-0.3-0.1-2-0.8-2.4-1
										c-1.1-0.6-2.5-1.1-3.4-1.4c-2-0.8-3.3-1.2-5.7-1.7c-2.4-0.8-2.2-4.2-2.2-6.4c0-0.3,0.1-0.6,0.1-0.9l-43.1-20.9
										c-0.2-1.1,0.1-2.7,2.2-3.8c0,0-1.7-1.3-3.3,0.2c-1.4,1.3-1.5,2.9-1.3,3.9c-0.1,0-0.2,0-0.3,0c-2.4,0-4.4-1.6-5.3-3.9
										c-22.8-5.9-31.6-13.7-33.1-17.6c-2.7-7.1,3.4-10.4,7.5-10.1l-0.5,2c-3.9,1.3-0.5,4.4-0.5,4.4c2.7,4.3,14.9,9.2,27.5,13.4
										c1.1-1.7,3-2.5,5.7-0.4c2.7,2,4.6,2,4.6,5.6c0,1-0.2,1.9-0.5,2.7l46.6,20.5c0-0.1,0-0.1,0-0.1c0.9,0.5,2,1.3,2,2.1
										c0,1.3-0.5,2.7-2.7,3.9c0,0,3.3,0.8,4.4-1.1c1.2-2,1.9-4.5-3.3-6.8c2-6.1,11.2-2.4,15.3-0.3l37.2-3.4c0,0-7-4.7-25.5-2.5
										c0,0-3-4.6-0.1-12.2c0.1-0.3,0.2-0.7,0.4-1c0.6-1.5,1.6-2.6,2.8-3.5c-10.8,2.9-8.3,17.5-8.3,17.5l-5.5,0.5c0,0-3.2-2-8.5-3
										c-6.7-1.2-9.5,3.2-9.5,3.2l-15.4-5.8c0.5-4.3,2.7-8.6,2.7-8.6c6.1-10.7,10.5-11.3,10.5-11.3l7.2-0.6
										C296.6,431.6,300.8,432.5,300.8,432.5z"/>
									<path class="st1" d="M382.7,329l-12.1,6.6l-1.7-0.6c-0.2-0.1-1.6-0.5-3.8-1l-1-0.2l0.7-0.7c6.6-6.7,7.5-10.8,7.6-11.6
										l0.1-0.9l10.5-7.1l-0.5-0.8l-10.8,5.9l-1.8-0.1c-0.4,0-0.8,0-1.3,0c-5.3,0-10.2,2-12.6,3.2l-0.9,0.5l0.1-1
										c0.3-2.4,0.3-4,0.3-4.1l0-2.2l9.1-8.1l-0.6-0.7l-9.8,7.2l-2.7,1.6c-2.5,1.5-4.7,3.2-6.4,4.9l-0.2,0.2l-6.5-0.9
										c-0.1,0-1.5-0.2-3.6-0.2l-1,0l0.6-0.9c4.1-6.1,4.7-9.9,4.8-11.2l0-0.2l7.8-11.6l-0.7-0.6l-9.3,9.6l-0.4,0.1
										c-5.2,0.7-9.7,3.6-11.9,5.2l-0.8,0.6l-0.1-1c-0.2-2.2-0.4-3.6-0.4-3.7l-0.3-1.5l9.3-10.2l-0.6-0.7l-11.8,10.7l-0.3-0.1
										c-0.7-0.2-1.4-0.3-2.3-0.3c-0.3,0-0.6,0-0.9,0l-1.4,0.1l3.7-4.1c2.2-1.9,4.2-4.6,5.9-7.9l1.5-2.8l6.9-10.3l-0.7-0.6
										l-7.9,9.7l-2.2,0.1c-0.2,0-1.7,0.1-3.9,0.5l-1,0.2l0.4-1c3.8-8.6,3.1-12.8,2.9-13.5l-0.2-0.9l6-11.3l-0.9-0.6l-7.5,10.6
										l-0.7,0.2c-5.5,1.7-9.8,5.7-11.8,7.9l-0.7,0.8l-0.3-1c-0.6-2.2-1.1-3.7-1.2-3.9l-0.8-2.2l6.3-10.4l-0.7-0.5l-9.6,12.8l0,0
										l-0.4,0.6c-2.1,2.8-3.5,5.6-4.3,8.3l-0.1,0.3l-0.2,0.1c-0.1,0-6.4,3-7.9,11l-1.1,0.1l-1.1-3.8l0.5-0.4
										c1.2-1.8,3-5.9,4.1-9.5l0.1-0.3l4.1-15.1l-0.9-0.3l-4.4,11.6l-1.5,0.4c-0.1,0-1.5,0.4-3.3,1.2l-1,0.4l0.2-1
										c1.5-8.3,0.1-11.7-0.2-12.3l-0.3-0.6l3.2-10.9l-0.6-0.3l-4.4,10.2l-1.2,0.7c-4.5,2.6-7.3,6.9-8.7,9.3l-0.5,0.9l-0.5-0.9
										c-0.9-1.8-1.7-3-1.8-3.1l-1.2-1.4l4.8-10.5l-0.8-0.4l-5.5,9.4l-0.1,0.1c-0.9,0.8-2.5,2.3-3.8,4.2l-1-0.5l0-0.1
										c1.3-2.7,2-5.9,2.3-9.6l0.3-4.6l-0.2,0.1l1.7-9.3l-0.9-0.2l-3,10.6l-1.7,0.9c-0.1,0-1.5,0.7-3.4,2l-0.9,0.6l0-1
										c0-9.4-2.3-12.9-2.8-13.6l-0.5-0.6l2-13.2l-0.4,0l-3.3,12l-1.7,1.5c-4.4,3.8-6.7,9.2-7.6,12l-0.3,1l-0.6-0.8
										c-1.5-1.9-2.6-3-2.7-3.1l-1.6-1.6l1.9-13.5l-0.9-0.2l-3.7,15.5l0.1,0l-0.3,1c-0.9,3.4-1.2,6.6-1,9.5l0.2,2l-1.2-1.6
										c-1.1-1.4-2.4-2.5-3.9-3.1c-0.5,1.9-1.9,8.5,1.3,17.2l0.4,1l-3.8-0.9l-0.6,4.4c-0.4,2.6,0.2,4.9,0.8,6.7
										c0.6,0.2,1.2,0.5,1.8,0.7l1.1,1.1c9.5,4.8,11,13.2,11,13.2c0.7,2.5,0.1,4.7,0.1,4.7l3.2,2c2.7,1.9,2.6,4.4,2.6,4.4l0.2,1.9
										c-0.3,1.2-0.9,2.4-1.9,3.4l-3.4,2c-0.7,0.2-1.5,0.4-2.3,0.6l-0.9-0.3c-3,0.1-4.6-0.5-4.6-0.5c-0.3,2.4-2.1,5-2.1,5
										c-0.6,1.4-0.9,3.8-1.1,5.9c-0.2,2.1-0.8,5.2-0.8,5.2c-0.5,1.8-1.6,4.8-1.6,4.8l0.9,3.8c-0.1-0.2-0.2-0.3-0.3-0.5
										c-0.3-0.5-0.5-1.1-0.7-1.7c-0.2,0.4-0.4,0.9-0.6,1.3c0.5,1.2,1.1,2.2,1.6,3.2l0.1,0.2l-13.4,59.5l-4.5,3.4
										c0.9,2.4,2.3,4.6,4.1,6.6c3.5,3.8,8.4,6.9,15.4,9.6c2.6,1,5.5,2,8.9,3c7.4-5.9,15.1-11.7,23-17.5c-2.6-2-3.6-4.4-3-7.1
										c0.9-3.8,2.8-5.6,5.3-8.1l0.5-0.5c3.2-3.2,7.1-6.4,11.3-6.4c0.8,0,1.6,0.1,2.4,0.4c3.4,1.1,6.1,2.7,7.8,4.8
										c4.4-2.9,8.9-5.8,13.3-8.6l0.1,0l0.2,0c0.8-1.7,1.3-3.1,1.7-4.1c-2.7-5-3.9-8.8-3.6-11.2c0.8-5.1,4.1-5.8,7.4-5.8
										c1,0,2,0.1,3,0.1c0.6-0.8,2.3-2.6,6.3-2.6c2.8,0,6.2,0.9,10.1,2.6l0.2-0.1l0.4,0.4c0.5,0.2,1,0.5,1.6,0.8
										c0,0,0.4,0.2,1.1,0.6c0.1,0,0.4,0,0.4,0c3.9,0,10.3-2.1,15.3-6.5l-3.3-3.8l1-0.2c0.6-0.1,1.2-0.2,1.9-0.3
										c2.7-0.4,6-0.9,8.9-2.9l4.1-2.8l-4.2-2.4l1.7-0.2c3.1-0.3,7.9-1.5,13.3-5.1c-0.6-0.5-1.9-1.5-4.2-2.3l-1.2-0.5l3.3-1.7
										c2.8-1,5.6-2.8,8.4-5.2l3.4-3l9.9-6.7L382.7,329z M252.7,307.5l-0.1,0.3l-0.4-0.2L252.7,307.5z"/>
									<g>
										<path class="st1" d="M282.9,428.2c0,0-9.2,1.7-14.5,9c-0.7,1-1.5,2.3-2.4,3.7c1.6,1.5,4.3,2.5,6.1,3.7
											C273.8,439.5,276.5,433.9,282.9,428.2z"/>
										<path class="st1" d="M241.5,517.9c-2.3,8.3-9.8,7.9-9.8,7.9l1.4,4.6c10.5-0.3,12.3-9.9,12.3-9.9
											C242.4,520.6,241.5,517.9,241.5,517.9z"/>
									</g>
									<g>
										<path class="st3" d="M148.9,470.7l-14.8,13.8c0.6,0.8,1.1,1.6,1.7,2.4l16.5-15.4C151.1,471.2,150,471,148.9,470.7z"/>
										<path class="st3" d="M156.7,472.5l-17.9,18.1c0.8,1,1.7,2,2.5,3l19.1-20.3C159.2,473,157.9,472.8,156.7,472.5z"/>
										<path class="st3" d="M138.7,468.1l-10.2,7.8c0.7,1.1,1.3,2.2,2,3.3l13.1-9.7C141.3,468.8,139.6,468.3,138.7,468.1z"/>
										<path class="st3" d="M193.8,478.3c-1.5-0.1-3.1-0.3-4.6-0.4c-4.2,5-14.1,16.8-18.1,22.1c0,0,9.4-15.5,14.1-22.5
											c-2.8-0.3-5.6-0.7-8.4-1.2c-6.4,8.1-16.6,22.1-22.5,30.2c0.9,0.8,1.8,1.5,2.7,2.2c5.1-6.6,17.1-22.3,19.9-26.3l-16.1,29.2
											c1.7,1.3,3.5,2.5,5.3,3.7C172.5,505.1,183.1,489.1,193.8,478.3z"/>
										<path class="st3" d="M207.6,478.9l-12.8,50.4c1.6,0.5,3.2,1,4.9,1.5l11.7-51.9C210.1,478.8,208.9,478.8,207.6,478.9z"/>
										<path class="st3" d="M198.1,478.6c-3.6,5-14.6,20.6-26.9,39.9c1.6,1,3.3,1.9,4.9,2.7c1.7-2.9,17.4-30.6,20.9-35.6
											c0,0-10.3,25.6-15.4,38.3c2.2,1,4.3,1.9,6.6,2.8l14.7-48C201.4,478.8,199.7,478.7,198.1,478.6z"/>
										<path class="st3" d="M167.9,474.8l-9.8,10.1l6.6-10.7c-0.9-0.2-1.9-0.4-2.8-0.6c-2.1,3.3-9.9,15.3-16.2,24.8c1,1,2,2,3,3
											c7.9-9.9,18.4-20.8,23.4-25.9C170.7,475.3,169.3,475,167.9,474.8z"/>
									</g>
									<path class="st1" d="M200.6,423.8l-19.8,14.4l22.5,9.5l4.2,0.2l12.8-9.7C206.6,433.2,201.8,427.9,200.6,423.8z"/>
									<path class="st3" d="M217.8,437.3c-0.9,1.2-2.7,3.4-4.4,5.1c-3.1,3.1-7.5,4.4-7.5,4.4l10-10.3c-0.9-0.4-1.8-0.8-2.6-1.2
										L203,446.1c-1.9-0.7-5.3-1.7-5.3-1.7l11.5-11.4c-0.9-0.6-1.8-1.2-2.6-1.7L194.3,443l-3.1-0.9L205,430
										c-0.8-0.7-1.4-1.3-1.9-2l-15.4,12.5l-4.4-1.9l17.8-13.6c-0.7-1.6-0.9-3-0.8-4.3l-26.8,20.5c2.6,1,5.1,2.3,7.5,3.7
										c3.1,1.8,6.1,3.8,9.4,5.3c1.6,0.7,3.3,1.3,5,1.7c2.1,0.5,4.3,0.3,6.5,0.3c3.7,0.1,7.1,1.1,10.1,3.3c1.3,1,2.6,2.1,3.8,3.2
										l1.7-7.8c0,0,4.2-3.7,11.7-9.9C224.8,439.9,221,438.6,217.8,437.3z"/>
									<path class="st1" d="M287.7,400.8c-2.3-3-7.3-2.8-7.3-2.8c-0.8,0.1-1.4,0.4-1.9,0.7c3.5,2,4.7,4.3,5.1,5.4
										c-0.4-0.4-0.9-0.8-1.4-1.1c0,0-6.6-3.3-9.2-3.2c-2.5,0.1-3.8,1.6-3.1,3c0,0-4.4-1.3-4.6,3.7c0,0-4.6,0.1-3.8,4
										c0,0-3.2-0.9-3,1.9c0,0,0.3,2.8,8.5,5c0,0,4.4,1.3,6.2-0.1c1.8-1.4,2-1,4.8-2.4c2.8-1.4,2.2-3.4,4.4-4
										c1.7-0.5,3.9-2.9,2.2-5.7C287.8,404.4,289.4,403,287.7,400.8z"/>
								</g>
								<path class="st1" d="M224.3,453.6c-1.2-2.3-3.5-3.3-5.7-3.7c2.3-2.9,4.6-5.7,3.9-6.7c-1.2-1.8-4.3-1.9-9.9,3.2
									c-6,5.4-12.4,3.2-13.5,2.7c-8-4.3-29.2-14.9-46.3-16.5c0,0-8.6,0.4,1-3.9c0,0,18.4-47.8,8.3-60c0,0-0.7-0.8-1.4-1v0
									c0,0,13.4,1,8.6,28.1c-4.2,23.7-9.2,31.5-9.2,31.5s17,4.9,30.1-4.9c9.5-7.2,11.9-14.7,18.7-15.2c2-6.4,3.4-15.4,5.7-21.7
									c0-0.1-0.1-0.7,0-0.8c-1.7-7.5-3.7-14.6-8.6-19.3l0-0.1c-20.4-3.2-21.1-15-21.1-15c12.3,11.7,19.5,11.1,21.6,10.5l0-0.1
									c1.9-0.6,3.4-1.8,5.1-4c4.3-5.6,10.2-11.2,9.7-17.9c-0.2-3.1-0.5-4.3,1.5-8.4s1.1-5.4,1.1-5.4s-14.6-4-23.5-5.2
									c-1.4,0.2-3.3,0.8-5.3,2.2c-3.7,2.8-3.7,6.9-3.7,6.9l-4.8,0.9c0,0-0.1-1.6-0.6-3.5c-0.4-1.1-1.4-3-3-3.5
									c-2.3-0.8-5.6,1.3-6,8.4s5.2,5.9,5.2,5.9s0,1.8,0.3,6.1l-6.4,7.6c0.8,1.8,2.6,5.2,5.4,8.5c1.8,1.9,3.9,3.9,6.3,5.6
									c3.6,2.3,8.2,3.9,13.7,3.4c0,0-15,8.3-30.1-15.8c-6.4,1.2-17,4.2-25.5,10.9c-0.9,0.7-1.8,1.5-2.6,2.2
									c-0.6,0.4-1.2,0.9-1.8,1.5c-13,12.1-15.8,53.7-15,63.1c1.1,13.3-3.3,19.7,23.5,28.6c20.6,6.9,37.5,10.9,44.2,12.5
									c4.1-5.3,6.3-12,7.4-16.5c0.4,0,0.8,0,1.2,0.1c0,7.7-1.2,13-2.4,16.5c4,1.4,13.4,4,18.7-0.2
									C226.2,465.5,225.8,456.3,224.3,453.6z"/>
							</g>
						</g>
					</g>
				</g>
			</g>
			<g>
				<path class="st1" d="M331.5,410c-1.3-1.9-2.1-0.7-5.4,0l-3-1.1l2.5-2.9c0,0-7.6-10.2-4.5-10.9c0,0-5.3-1.9-6.8-2
					c-1.5-0.1-3.5-1.8-1.7-3.2c0,0-6.4-1.6-10.1-0.9c0,0-1,4.8-2.6,6.8c-1.6,1.9-3.9,5.1-5.1,9.1c-1.8,5.8-2.9,12.3,2.7,16.6
					c0.4,0.3,0.7,0.5,1.1,0.8c0,0,5.7,2.7,11,1.4c0,0-3.3,3.6-11.6,1l-0.5,2.1c4.7,7.8,21.2,1.4,21.2,1.4l-0.2-6.4l-0.2,0
					c3.4-2.2,5.8-3.8,5.8-3.8s1.3,1.7,3.8-0.1C330.2,415.8,332.8,411.9,331.5,410z"/>
				<path class="st1" d="M334.2,386.3c-0.1-0.7-2.2-3.5-5.4-5.8c0,0-7.7-7-17.3-8.3c0,0-3.2,0.8-0.2,2c2.9,1.2-5.4-0.6-8.7,0.3
					c-3.3,0.9,6.9,0.7,13.9,5.3c4.4,2.9,6.4,3,6.8,2.1c0.3-0.3,2.5-2.6,6.2,1.7c4,4.6,4.8,5.3,5.5,4.1
					C335,387.6,334.7,387.1,334.2,386.3z"/>
			</g>
			<path class="st1" d="M259.3,505.9c-0.1-1.3-0.6-7.1-5.4-10.8l0.6-2.1c0,0,4.7,1.7,7.1,7.9c2-4.3,5.4-11.8,10.9-24.1
				c0,0-0.6-8.9-1.2-14c-3.1-1.9-6.5-3.3-10.3-5.5c-4.6,12.9-7.3,32.7-11.2,38.2c-0.1,0-0.2,0-0.4,0.1l-5.8-50.1c-2.5,0-5-0.4-5-0.4
				l7.4,54.8c0,0-0.1,0-0.1,0c0.2,1.2,0.9,3.7,3.6,3.6c0,0-0.4,1.6-2.6,1.6c-1.4,0-2.6-2.3-3.3-4.1c-0.2,0.1-0.4,0.2-0.6,0.4
				c0,0-3.8,1.7-2.7,5.2c1,3.6,3.3,7.7,3.6,9.4c0.2,1.7,7.5,2.3,11.1,0.6c2.1-1,2.4-4,1.8-7.4C257.4,508.7,258.4,507.7,259.3,505.9z
				"/>
		</g>
		<path class="st2" d="M237.6,430.7c0,0-2.3,4.7-0.8,8.6l-3.7-1.3c0,0-1.1-4.9,2.1-8L237.6,430.7z"/>
		<g>
			<path class="st4" d="M293.6,339.8c0,0-1.4-0.1-3.6,0c-1,0-2.1,0.1-3.3,0.3c-1.6,0.2-3.4,0.5-5.1,1c-1.9,0.6-3.7,1.3-5.4,2.4
				c-1.2,0.8-2.3,1.7-3.3,2.9c0,0,1.1,0.8,2.8,1.5c1.8,0.7,4.3,1.1,7.2,0.4C286.2,347.5,289.9,345.1,293.6,339.8z"/>
			<path class="st4" d="M287.9,362C287.9,361.9,287.9,361.9,287.9,362c0.8-1,1.8-1.9,2.9-2.7c0,0-0.2,0-0.7-0.1c-1,0-3,0-5.2,0.8
				c-1.9,0.7-3.9,2-5.6,4.2c0,0,4.4,0.6,6.5,0.8C285.7,365.1,286.5,363.6,287.9,362z"/>
			<path class="st4" d="M259.4,363.8c0.8-1,1.3-2,1.5-3c0.5-2,0.2-3.8-0.5-5.4c-1.1-2.7-3.1-4.4-3.1-4.4c-0.7,1.9-0.9,3.6-1,5.1
				c0,0.9,0.1,1.8,0.2,2.5C257.3,362.1,259.4,363.8,259.4,363.8z"/>
			<path class="st4" d="M262.8,353c1.4,0.8,2.5,1.1,2.5,1.1c0.5-1.6,0.6-3.3,0.4-5c-0.7-5.9-4.8-11.4-4.8-11.4
				C256.6,347.1,260,351.3,262.8,353z"/>
			<path class="st4" d="M277.2,376.4c0.9,0.3,1.8,0.4,3,0.3c0.1-1.8,0.6-3.5,1.5-5.1c-2.7-0.2-5.7,0-8.1,1.5c-0.1,0-0.2,0.1-0.2,0.1
				C273.3,373.2,274.6,375.5,277.2,376.4z"/>
			<path class="st4" d="M292.8,312.8c0,0,11,7.4,20.1-8.1C312.9,304.7,298.4,304.6,292.8,312.8z"/>
			<path class="st4" d="M268.7,344c1.1,1,1.9,1.5,1.9,1.5c0.6-1.2,1-2.5,1.3-3.8c0.4-2,0.4-4.1,0.1-6.1c-0.4-3.4-1.4-6.6-2.3-8.7
				c-0.3-0.6-0.5-1.2-0.7-1.6c-0.4-0.9-0.6-1.3-0.6-1.3c-2.2,3.5-3.2,6.6-3.6,9.2C264.2,338.7,266.8,342.2,268.7,344z"/>
			<path class="st4" d="M273.2,358.3c0.9,0.1,1.9,0,3-0.2c2-0.4,4.1-1.4,6.3-3.5c0.8-0.7,1.6-1.6,2.4-2.7c0,0-1-0.2-2.5-0.3
				c-2.4-0.2-6.1-0.3-9.6,0.7c-2.2,0.6-4.3,1.6-5.9,3.3c0,0,1.2,1.1,3.1,1.8C270.9,357.8,272,358.1,273.2,358.3z"/>
			<path class="st4" d="M298,329.5c0,0-1.4-0.3-3.5-0.4c-0.5,0-1,0-1.5-0.1c0,0,0,0,0,0c-4.1,0-9.7,0.6-12.9,4.1
				c0,0,3.1,2.8,7.5,2.7c0.3,0,0.5,0,0.8-0.1c0.6-0.1,1.2-0.2,1.8-0.4C292.7,334.7,295.3,333,298,329.5z"/>
			<path class="st4" d="M318,348.4c0.4,3.8,2.5,6.3,2.5,6.3c0.6-0.5,1-1,1.5-1.6c2.7-3.3,3.8-7.8,4.2-11.7c0-0.5,0.1-0.9,0.1-1.4
				c0.1-1,0.1-1.9,0.1-2.8c0-1.3-0.1-2.3-0.1-2.9c0-0.4-0.1-0.7-0.1-0.7c-2,1.5-3.5,3-4.7,4.5c-1.4,1.7-2.3,3.4-2.8,5
				c-0.2,0.6-0.4,1.3-0.5,1.9c-0.2,1.1-0.2,2.1-0.2,3C318,348.2,318,348.3,318,348.4z"/>
			<path class="st4" d="M329.6,319.5c5.6-7.8,5.4-11.7,5.4-11.7c-6.7,0.9-12.1,5.9-12.1,5.9c0.2,2-0.1,6.3-0.1,6.3L329.6,319.5z"/>
			<path class="st4" d="M315.3,326.6c6.3-6.5,3.8-19.5,3.8-19.5C306.7,317.9,315.3,326.6,315.3,326.6z"/>
			<path class="st4" d="M303.8,346.9c3.8-2.6,7-4.1,8.4-4.7c-3.9-0.3-8.5-0.2-12,1.6c-0.8,0.4-1.5,0.9-2.1,1.4c0,0,1.6,1.6,4.3,2.7
				C302.8,347.6,303.3,347.2,303.8,346.9z"/>
			<path class="st4" d="M318,339.6c1-2.6,2.7-4.9,4.8-6.9c-4.4-0.1-10.9,0.5-14.8,4.5C308,337.1,312,341,318,339.6z"/>
			<path class="st4" d="M299.5,339.9c0.6-2.2,0.6-4.4,0.6-4.4l-1.7,1.3l-1.1,0.9l0.5,0.5L299.5,339.9z"/>
			<path class="st4" d="M303.7,324.5c-2.3,7.2,2.7,11.7,2.7,11.7c4.3-5,3.7-13.1,3.1-17.2C307.6,321.4,305.6,323.2,303.7,324.5z"/>
			<path class="st4" d="M255.4,348.9c0,0-0.4-0.8-0.6-1.9c-0.1-0.7-0.2-1.4,0-2c0,0-2.9,0.5-6.2,3.5c-0.2,0.2-0.4,0.3-0.6,0.5
				c0,0,0.9,0.7,2.4,1.3c0.8,0.3,1.9,0.5,3,0.5l1-0.9L255.4,348.9z"/>
			<path class="st4" d="M231.8,414c0,0,21.9-19.2,38.4-30.9c0.7-0.5,1.4-1,2.1-1.4l-0.8-3.8c0,0-1.4,1-3.8,2.8
				C260.2,386.4,243.3,399.9,231.8,414z"/>
			<path class="st4" d="M269.5,368.7c0.1,0.4,0.3,0.8,0.5,1.1c0.8,1.6,1.8,2.5,1.8,2.5c0.2-0.1,0.3-0.3,0.4-0.4
				c1.6-1.7,2.6-3.8,3.2-6C273.3,367.1,271.3,368,269.5,368.7z"/>
			<path class="st4" d="M331,347c7.1-5.6,6.9-18.3,6.8-20.3c0-0.2,0-0.3,0-0.3c-1,0.7-1.8,1.3-2.6,2C324,337.8,331,347,331,347z"/>
			<polygon class="st4" points="269.4,373.1 265.8,372.8 264.4,372.6 247,392.9 265.5,376 267,374.8 			"/>
			<path class="st4" d="M317.1,327.8c0,0,9.1,8,19.2-4.9C336.3,322.9,323.1,321.1,317.1,327.8z"/>
			<path class="st4" d="M208.9,414.1l1.2-0.9C209.5,413.5,209.1,413.8,208.9,414.1z"/>
			<path class="st4" d="M350.6,318.4c-15.5,9.1-8.1,20.2-8.1,20.2C350.6,332.9,350.6,318.4,350.6,318.4z"/>
			<path class="st4" d="M367.5,322.4c-7.4-0.5-14.2,3.8-14.2,3.8c-0.2,2.2-1.4,6.7-1.4,6.7l7.5,0.9
				C366.9,326.6,367.5,322.4,367.5,322.4z"/>
			<path class="st4" d="M251.8,364.4l-0.3,0l-11,18.3l13.9-15.7c-0.8-0.8-1.6-1.5-2.3-2.3C251.9,364.6,251.8,364.5,251.8,364.4z"/>
			<path class="st4" d="M312.6,289.7c4.5-9.5,3.5-13.6,3.5-13.6c-7.1,2.2-11.9,8.7-11.9,8.7c0.7,2.2,1.1,6.8,1.1,6.8L312.6,289.7z"
				/>
			<path class="st4" d="M259.9,315.1c-0.7,0.8-1.3,1.7-1.8,2.7c0,0,4.4,2.1,9.2-0.4c2.6-1.4,5.4-4.2,7.5-9.5
				C274.8,307.8,265,309.3,259.9,315.1z"/>
			<path class="st4" d="M240.4,295.1c0,0,13.1,2.4,15.2-15.5C255.6,279.5,242.3,285.3,240.4,295.1z"/>
			<path class="st4" d="M272.7,319c-0.8,2.2-1,4.1-0.8,5.7c0.2,1.9,1,3.3,1.9,4.4c1.7,2,3.9,2.7,3.9,2.7c2.1-4.7,0.3-10.5-1.2-14
				c-0.4-0.9-0.8-1.7-1.1-2.3c-0.3-0.6-0.5-1-0.5-1c-0.1,0.2-0.2,0.3-0.3,0.5C273.7,316.5,273.1,317.8,272.7,319z"/>
			<path class="st4" d="M256.9,306.1l-1.4,4l3.6,0.8C258.3,308.3,256.9,306.1,256.9,306.1z"/>
			<path class="st4" d="M252.9,328.8c0,0,0.5,0.1,1.4,0.2c1.3,0.1,3.4,0.2,6.2-0.2c0,0,0.9-4.4,2.9-6.9c0,0-4.3,1.1-8.9,5.2
				C254.1,327.7,253.5,328.2,252.9,328.8z"/>
			<path class="st4" d="M256.6,340.9c0.2-1.6,1-3.4,1.8-4.9c0.7-1.4,1.3-2.3,1.3-2.3c-0.4,0.1-0.8,0.1-1.1,0.2
				c-1.8,0.5-3.3,1.4-4.4,2.4c-1.5,1.4-2.4,2.8-2.7,3.4c-0.1,0.2-0.1,0.3-0.1,0.3c0,0,0,0,0,0c1.3,1.5,3.7,1.1,4.7,0.9
				C256.4,341,256.6,340.9,256.6,340.9z"/>
			<path class="st4" d="M251.9,338.9C251.9,338.9,251.9,339,251.9,338.9c0.1-0.1,0.1-0.2,0.1-0.3
				C251.9,338.8,251.9,338.9,251.9,338.9z"/>
			<path class="st4" d="M286,323.9c0,0,3.1,2.4,7.6,2.2c0.8,0,1.6-0.1,2.5-0.4c3.2-0.8,7-3.2,10.6-8.5c0,0-0.7-0.1-1.8-0.1
				c-0.4,0-0.8,0-1.3,0c-0.1,0-0.1,0-0.2,0c-4.2,0.1-11.6,1-16.2,5.2C286.9,323,286.4,323.4,286,323.9z"/>
			<path class="st4" d="M283.2,384l0-0.1c0.6-0.4,1.1-0.8,1.6-1.2c0.5-0.5,0.9-1,1.2-1.5c2.6-4.4-0.2-9.9-0.2-9.9
				c-3.1,3.6-3.7,6.9-3.5,9.2c0,0.3,0.1,0.7,0.1,1l-0.1-0.2c-1.2,0.7-2.3,1.4-3.4,2.1c-0.1,0-0.2,0.1-0.2,0.2
				c-29.6,18.8-48.1,38.7-48.1,38.7l4.7,1.6c13.8-16.5,35.6-31.7,44.3-37.4C281.8,384.9,283.2,384,283.2,384z"/>
			<path class="st4" d="M286.9,384.5c-0.6,0.2-1.3,0.5-2,1c0,0,2.1,3,6.8,3c1.1,0,2.4-0.1,3.8-0.5
				C295.6,387.9,291.8,382.9,286.9,384.5z"/>
			<polygon class="st4" points="282.3,392.1 279.2,393.9 283.6,395.2 284.9,394.5 290.4,391.4 285.1,390.5 			"/>
			<path class="st4" d="M293.8,360.2c-1,1-1.8,1.9-2.5,2.8c-6.9,9,0.8,14,0.8,14c3.3-4,2.9-10.3,2.3-13.9
				C294.1,361.4,293.8,360.2,293.8,360.2z"/>
			<path class="st4" d="M251.3,356.9l-4-0.6c-0.8,1.4-1.7,2.9-2.5,4.3c-14.8,26.1-22.5,46.8-22.5,46.8c6.7-11.3,20.2-35.1,26.1-45.5
				C250.2,358.8,251.3,356.9,251.3,356.9z"/>
			<path class="st4" d="M300.1,349.6c-0.8-0.1-8.2-1.1-10.7,5.1c0,0,2.9-0.3,5-0.1c0.2,0,0.5,0.1,0.7,0.1L300.1,349.6
				C300.2,349.6,300.1,349.6,300.1,349.6z"/>
			<polygon class="st4" points="239.2,424.8 242.6,426.4 254,417.5 252.7,414.2 			"/>
			<path class="st4" d="M263.5,365.3L263.5,365.3c0.5,0,1.1,0,1.8,0c0.6,0,1.2-0.1,1.9-0.3c0.7-0.1,1.4-0.4,2.1-0.7
				c1.4-0.6,2.9-1.6,4.5-3c0,0-1.1-0.5-2.6-0.8c-0.7-0.1-1.5-0.3-2.4-0.3c-2,0-4.3,0.5-6.1,2.4c-0.5,0.5-0.9,1.1-1.3,1.8
				c-0.7,0.8-1.7,1.9-3,3.4c-7.7,8.7-25.2,29.2-38.5,49.6c0,0,1.3,0.8,4.1,1.9c0,0,14-21.8,36.5-50.1
				C261.5,367.9,262.5,366.6,263.5,365.3z"/>
			<path class="st4" d="M312.9,363.9c0,0,2.4,4.5,7.5,6c3.2,0.9,7.4,0.7,12.8-2.6c0,0-2.4-1.5-5.8-2.8
				C323.1,362.9,317.4,361.6,312.9,363.9z"/>
			<path class="st4" d="M305.8,350c-6,4.6-8,9-8.2,12.6c-0.4,5,2.5,8.4,2.5,8.4c1-0.9,1.9-2,2.6-3.1c1.8-3,2.7-6.6,3-9.8
				c0.3-2.7,0.3-5.1,0.2-6.6C305.9,350.5,305.8,350,305.8,350z"/>
			<path class="st4" d="M332.5,348.4c0,0,5.6,7.9,16,3.2c1.8-0.8,3.7-1.9,5.7-3.6c0,0-1.8-0.7-4.4-1.3
				C345.2,345.6,337.7,344.8,332.5,348.4z"/>
			<path class="st4" d="M344.2,340.2c0,0,8.1,10.5,21.7-1.3C365.8,338.8,352.1,334.2,344.2,340.2z"/>
			<path class="st4" d="M324,355.5c-0.6,0.2-1.2,0.5-1.7,0.8c0,0,2,3.4,6.3,4.8c3.5,1.2,8.6,1.1,15.4-3.5
				C343.9,357.6,332.5,352.2,324,355.5z"/>
			<path class="st4" d="M315.4,349.6C315.4,349.6,315.4,349.6,315.4,349.6c0-1,0-1.9,0-2.7c0-0.9-0.1-1.7-0.2-2.3
				c-0.1-0.7-0.2-1.1-0.2-1.1c-0.2,0.1-0.3,0.2-0.4,0.4c-2.1,1.8-3.6,3.4-4.6,5c-0.5,0.8-0.9,1.6-1.1,2.3c-0.7,2.2-0.5,4.1,0,5.6
				c0.2,0.7,0.6,1.3,0.9,1.8c0.8,1.3,1.7,2.1,1.7,2.1c2.3-2.3,3.3-5.5,3.7-8.6C315.4,351.3,315.4,350.4,315.4,349.6z"/>
			<polygon class="st4" points="236.9,359.1 234.9,359.5 234.8,359.9 228.7,385.8 240.6,358.5 			"/>
			<path class="st4" d="M262.8,305.8c1.9-6-1.6-12.9-3.7-16.4l-0.3,2.4c-1.7,2.5-2.2,4.6-2.6,6.5C257.6,304,262.8,305.8,262.8,305.8
				z"/>
			<path class="st4" d="M281.8,301.7c-0.1-0.2-0.2-0.3-0.2-0.3c-0.1,0.1-0.1,0.2-0.2,0.4c-2.5,4.2-3.4,7.7-3.5,10.5
				c0,2.2,0.5,4,1.2,5.4c1.7,3.6,4.7,5.2,4.7,5.2c0.3-0.7,0.6-1.3,0.8-2c2.1-6.5-0.7-14.3-2.2-17.8
				C282.2,302.5,281.9,302,281.8,301.7z"/>
			<path class="st4" d="M277.2,281.9c2-9.2,0.4-12.6,0.4-12.6c-5.7,3.4-8.6,10-8.6,10c1,1.7,2.3,5.7,2.3,5.7L277.2,281.9z"/>
			<path class="st4" d="M269.1,294.2c0,0,11.3,3.7,15.4-11.8C284.5,282.3,272,285.8,269.1,294.2z"/>
			<path class="st4" d="M264.6,306.1c0,0,11.1,4.2,15.9-11.1C280.5,294.9,267.9,297.8,264.6,306.1z"/>
			<path class="st4" d="M298.6,300c5.6-8.2,0.3-21.7,0.3-21.7C287.7,292.4,298.6,300,298.6,300z"/>
			<path class="st4" d="M239.6,351.6c1-1.1,2-2.6,2.8-4.5c0,0-1.7,0-3.6,0.5c-2.8,0.8-6.1,2.7-6.6,7.5
				C232.3,355.2,236.2,355.4,239.6,351.6z"/>
			<path class="st4" d="M267.1,293.8c3.2-8.3-4.1-19-4.1-19C256.1,289.3,267.1,293.8,267.1,293.8z"/>
			<path class="st4" d="M290.9,312c5.1-8.5-1-21.7-1-21.7C279.6,305.1,290.9,312,290.9,312z"/>
			<path class="st4" d="M238.7,334.1c1.7-0.1,4-0.5,6.2-2c0.9-0.6,1.7-1.3,2.5-2.2c0.8-0.9,1.5-2,2.2-3.2c1-1.9,1.8-4.2,2.4-7.1
				c0,0-1.4,0.5-3.3,1.4c-0.6,0.3-1.3,0.6-2,1c-0.1,0.1-0.2,0.1-0.3,0.2c-0.5,0.3-1,0.6-1.5,0.9c-1.6,1-3.3,2.3-4.8,3.7
				c-1,0.9-1.9,2-2.6,3.1c-0.8,1.2-1.5,2.5-1.8,4C235.7,333.8,236.9,334.1,238.7,334.1z"/>
			<path class="st4" d="M250.7,295.6c-3.8,2-9.1,5.5-11.4,10.6c-0.3,0.6-0.5,1.2-0.6,1.8c0,0,3.8,1,7.9-1c0.3-0.2,0.6-0.3,0.9-0.5
				c0.5-0.3,1-0.6,1.4-1c0.2-0.1,0.3-0.3,0.5-0.4c2.4-2.1,4.5-5.7,5.6-11.4C255,293.6,253.2,294.3,250.7,295.6z"/>
			<path class="st4" d="M238.5,345c1.4-0.2,3.1-0.6,4.6-1.7c1.9-1.2,3.7-3.3,4.9-6.7c0.3-0.8,0.6-1.7,0.8-2.6c0,0-1,0.2-2.5,0.7
				c-2.2,0.7-5.4,2.1-8.1,4.1c0,0,0,0,0,0c-2,1.5-3.7,3.4-4.4,5.7C233.8,344.7,235.9,345.4,238.5,345z"/>
			<path class="st4" d="M229.3,276.1c-0.3-0.3-0.5-0.5-0.5-0.5c-0.4,2.2-0.6,4.1-0.6,5.9c0.1,12.2,10.2,13.6,10.2,13.6
				C239.5,286.6,231.4,278.2,229.3,276.1z"/>
			<path class="st4" d="M249.3,265.9c0.3-10.5-2.2-13.9-2.2-13.9c-5.6,4.9-7.4,12.7-7.4,12.7c1.5,1.7,3.7,5.8,3.7,5.8L249.3,265.9z"
				/>
			<path class="st4" d="M240.6,281c1.8-9.7-8.4-20-8.4-20C227.6,278.4,240.6,281,240.6,281z"/>
			<path class="st4" d="M243,281.1c0,0,13.2,1.8,14.5-16.2C257.5,264.9,244.4,271.3,243,281.1z"/>
			<path class="st4" d="M320.5,291.9c0,0-14.5,0.6-19.8,9C300.7,301,312.1,307.8,320.5,291.9z"/>
			<path class="st3" d="M210.6,412.9l-0.5,0.4c0.1-0.1,0.3-0.1,0.4-0.2L210.6,412.9z"/>
			<path class="st3" d="M382.9,328.2l-12.3,6.7l-1.5-0.5c-0.2-0.1-1.7-0.6-3.9-1c6.7-6.8,7.6-11.1,7.7-11.9l0.1-0.6l10.7-7.3l-1-1.7
				l-11.2,6.1l-1.6-0.1c-5.9-0.4-11.4,1.8-14.2,3.2c0.3-2.3,0.3-3.9,0.3-4.1l0-1.9l9.3-8.3l-1.2-1.6l-10.2,7.5l-2.7,1.6
				c-2.6,1.5-4.8,3.2-6.5,5l-6.2-0.9c-0.2,0-1.6-0.2-3.7-0.2c4.1-6.2,4.8-10,4.9-11.5l8-12l-1.6-1.2l-9.5,9.8l-0.2,0
				c-5.4,0.7-9.9,3.6-12.2,5.3c-0.1-2.1-0.4-3.6-0.5-3.8l-0.2-1.3l9.4-10.4l-1.4-1.4l-12,10.9c-1.1-0.4-2.4-0.4-3.4-0.3l2.7-3
				c2.1-1.8,4.2-4.4,6.1-8l1.4-2.7l7.2-10.8l-1.6-1.2l-8.1,9.9l-1.9,0.1c-0.2,0-1.8,0.1-4,0.5c3.8-8.8,3.1-13.1,2.9-13.9l-0.2-0.7
				l6.1-11.6l-1.8-1.2l-7.7,10.9l-0.6,0.2c-5.6,1.8-9.9,5.8-12.1,8.1c-0.6-2.3-1.1-3.8-1.2-4l-0.7-1.9l6.4-10.6l-1.6-1.1l-10.3,13.8
				l0,0c-2.1,2.9-3.6,5.7-4.4,8.5c0,0-6.7,3-8.3,11.4l-1-3.4l0.3-0.2c1.3-1.9,3.2-6.2,4.2-9.7l0,0l4.3-15.8l-1.9-0.7l-4.5,11.8
				l-1.3,0.3c-0.2,0-1.5,0.4-3.4,1.2c1.6-8.4,0.1-12-0.2-12.7l-0.2-0.4l3.3-11.2l-1.6-0.7l-4.6,10.6l-1,0.6c-4.5,2.7-7.5,7-8.9,9.5
				c-1-1.9-1.8-3.1-1.9-3.2l-1-1.2l4.9-10.6l-1.7-1l-5.7,9.8c-0.9,0.8-2.5,2.4-3.9,4.3l0,0c1.2-2.5,2-5.7,2.3-9.8l0.4-5.6l-0.1,0
				l1.6-8.7l-1.9-0.5l-3.1,10.9l-1.5,0.7c-0.2,0.1-1.6,0.8-3.5,2c0-9.6-2.4-13.2-2.9-13.9l-0.3-0.5l2.1-13.5l-1.5-0.1l-3.3,12.3
				l-1.6,1.4c-4.4,3.9-6.8,9.3-7.8,12.3c-1.4-1.8-2.6-3-2.7-3.1l-1.4-1.4l1.9-13.8l-1.9-0.4l-4,16.7l0.1,0l-0.1,0.3
				c-0.9,3.5-1.3,6.8-1,9.7c-1-1.3-2.6-2.8-4.7-3.5c0,0-2.7,7.4,1.1,18.2l-3.4-0.8l-0.6,5c-0.4,2.6,0.2,5,1,7.2
				c1.2,0.4,2.3,0.9,3.3,1.4c-0.1-1.7,0-3.5,0.3-5.7c0,0,9.7,7.7,10.7,16.7c0.1,0.7,0.1,1.5,0,2.2c0,0,0,0-0.1,0
				c0.5,2.5,0.2,4.3,0.1,4.8c1.1,0.5,2.2,1.2,3.2,2c2.1-2.1,4.8-3.6,7.2-4.7c2.8-1.2,5.1-1.8,5.1-1.8c-0.4,1.5-0.8,2.8-1.4,3.9
				c-1.1,2.4-2.5,4-3.9,5c-1.3,0.9-2.6,1.5-3.9,1.8c-0.2,0-0.4,0.1-0.6,0.1c0,0.1,0,0.2,0,0.3c-0.5,4.3-3.3,7.3-10.3,7.3
				c0.4,1,0.8,2.1,1.1,3.2c0.3,1.3,0.4,2.7,0.4,4c0,0-0.4,0-1-0.2c-0.8-0.2-2.1-0.6-3.5-1.3c-0.6-0.3-1.1-0.7-1.7-1.1
				c-0.4,1-0.6,2.1-0.7,3.4c0.5,0.5,1.1,1,1.6,1.6c1.9,2.1,3.6,4.8,3.8,7.7c0,0-2.7,0.5-5.4-0.8c-0.4-0.2-0.8-0.4-1.2-0.7
				c-0.2,0.9-0.5,1.7-0.7,2.5c0.4,0.2,0.8,0.4,1.3,0.7c2.5,1.5,5.7,4.6,4.4,9.6c0,0,0,0,0,0l0.1,0.1c-0.2,1.3-0.4,2.6-0.5,3.8
				c-4.3,29.3-12.8,56.3-12.8,56.3l-2.8-2.5c3.7-11.8,10.2-42.1,12.8-54.6c0.4-1.9,0.7-3.5,0.9-4.4c-1-0.8-2.1-1.9-3-3.6
				c-0.5-0.9-0.8-1.9-1.1-3.1c-0.4,1-0.9,2-1.4,3c0.5,1.2,1.1,2.3,1.7,3.5l-13.3,59.1l-0.2,0.1l-0.1,0.2c-0.2,0.1-0.3,0.1-0.4,0.2
				l-1.2,0.9c-0.9,1.5,1.1,3.4,1.1,3.4c2.7,4.3,14.9,9.2,27.5,13.4c1.1-1.6,2.8-2.4,5.4-0.6c4.8-3.7,10.3-7.8,16.2-12.2
				c-2.1-1.4-4.2-3.6-3.4-7c0.9-3.9,2.9-5.5,5.7-8.3c3.1-3.1,8.1-7.6,13.2-5.9c4.3,1.4,6.6,3.4,7.9,5c4.4-2.9,9-5.9,13.7-8.9
				c0.1,0,0.2-0.1,0.3-0.1c0.9-1.8,1.5-3.4,1.9-4.6c-2.1-3.8-4-8.3-3.6-11.1c0.8-5.6,4.8-5.6,10.1-5.1c0,0,3-5.9,16.1,0.1
				c0,0,0.1,0,0.1,0l0.2,0.2c0.5,0.2,1.1,0.5,1.6,0.8c0,0,0.5,0.2,1.2,0.7c4.1,0.2,11.3-2,16.7-7.1l-0.2-0.2l-2.9-3.2
				c2.9-0.5,7.3-0.7,11-3.2l4.8-3.3l-3.5-2c3-0.3,8.2-1.5,14.2-5.5c0,0-1.3-1.6-4.9-2.9l2.1-1c2.6-1,5.5-2.6,8.5-5.3l3.4-2.9l10.3-7
				L382.9,328.2z M353.2,326.3c0,0,6.8-4.3,14.2-3.8c0,0-0.6,4.2-8.2,11.4l-7.5-0.9C351.8,333,353.1,328.5,353.2,326.3z
				 M350.6,318.4c0,0,0.1,14.5-8.1,20.2C342.5,338.5,335.1,327.5,350.6,318.4z M337.9,326.7c0.1,2,0.3,14.7-6.8,20.3
				c0,0-7.1-9.2,4.2-18.7c0.8-0.7,1.6-1.3,2.6-2C337.9,326.4,337.9,326.5,337.9,326.7z M336.3,322.9c-10.1,13-19.2,4.9-19.2,4.9
				C323.1,321.1,336.3,322.9,336.3,322.9z M267.7,380.7c2.4-1.8,3.8-2.8,3.8-2.8l0.8,3.8c-0.7,0.5-1.4,1-2.1,1.4
				c-16.6,11.7-38.4,30.9-38.4,30.9C243.3,399.9,260.2,386.4,267.7,380.7z M247,392.9l17.5-20.3l1.4,0.1l3.6,0.3l-2.4,1.7l-1.4,1.3
				L247,392.9z M272.2,371.9c-0.1,0.1-0.3,0.3-0.4,0.4c0,0-1-0.9-1.8-2.5c-0.2-0.3-0.3-0.7-0.5-1.1c1.8-0.6,3.8-1.5,5.9-2.8
				C274.8,368.1,273.9,370.2,272.2,371.9z M253.4,350.7c-1.2,0-2.2-0.2-3-0.5c-1.5-0.5-2.4-1.3-2.4-1.3c0.2-0.2,0.4-0.3,0.6-0.5
				c3.3-3,6.2-3.5,6.2-3.5c-0.2,0.6-0.1,1.4,0,2c0.2,1,0.6,1.9,0.6,1.9l-1,0.9L253.4,350.7z M254.3,366.9l-13.9,15.7l11-18.3l0.3,0
				c0.1,0.1,0.1,0.2,0.2,0.3C252.8,365.4,253.6,366.2,254.3,366.9z M251.4,340.1C251.4,340.1,251.4,340.1,251.4,340.1
				c0,0,0-0.1,0.1-0.3c0.3-0.6,1.2-2.1,2.7-3.4c1.1-1,2.6-2,4.4-2.4c0.4-0.1,0.7-0.2,1.1-0.2c0,0-0.6,1-1.3,2.3
				c-0.8,1.4-1.6,3.3-1.8,4.9c0,0-0.2,0.1-0.5,0.1C255.1,341.3,252.7,341.6,251.4,340.1z M251.9,338.9c0-0.1,0.1-0.2,0.1-0.3
				C251.9,338.8,251.9,338.9,251.9,338.9C251.9,339,251.9,338.9,251.9,338.9z M256.9,306.1c0,0,1.4,2.2,2.2,4.8l-3.6-0.8
				L256.9,306.1z M240.4,295.1c1.9-9.7,15.2-15.5,15.2-15.5C253.5,297.4,240.4,295.1,240.4,295.1z M267.3,317.3
				c-4.8,2.5-9.2,0.4-9.2,0.4c0.5-1,1.1-1.9,1.8-2.7c5-5.7,14.9-7.2,14.9-7.2C272.7,313.2,270,316,267.3,317.3z M275.3,315.6
				c0.3,0.6,0.7,1.3,1.1,2.3c1.5,3.5,3.3,9.3,1.2,14c0,0-2.2-0.7-3.9-2.7c-0.9-1.1-1.7-2.5-1.9-4.4c-0.2-1.6,0-3.5,0.8-5.7
				c0.4-1.2,1-2.5,1.8-3.9c0.1-0.2,0.2-0.3,0.3-0.5C274.8,314.6,275,315,275.3,315.6z M263.5,322c-2,2.6-2.9,6.9-2.9,6.9
				c-2.8,0.4-4.9,0.3-6.2,0.2c-0.9-0.1-1.4-0.2-1.4-0.2c0.6-0.6,1.1-1.1,1.7-1.6C259.2,323,263.5,322,263.5,322z M257.3,351
				c0,0,2,1.8,3.1,4.4c0.7,1.5,1,3.4,0.5,5.4c-0.3,1-0.8,2-1.5,3c0,0-2.1-1.7-2.8-5.2c-0.2-0.8-0.2-1.6-0.2-2.5
				C256.4,354.6,256.6,353,257.3,351z M260.9,337.8c0,0,4.2,5.5,4.8,11.4c0.2,1.7,0.1,3.3-0.4,5c0,0-1.2-0.3-2.5-1.1
				C260,351.3,256.6,347.1,260.9,337.8z M264.9,333c0.3-2.6,1.4-5.6,3.6-9.2c0,0,0.3,0.5,0.6,1.3c0.2,0.4,0.4,1,0.7,1.6
				c0.9,2.2,1.9,5.3,2.3,8.7c0.2,2,0.2,4.1-0.1,6.1c-0.2,1.3-0.7,2.6-1.3,3.8c0,0-0.9-0.5-1.9-1.5
				C266.8,342.2,264.2,338.7,264.9,333z M272.8,352.3c3.4-0.9,7.2-0.9,9.6-0.7c1.5,0.1,2.5,0.3,2.5,0.3c-0.8,1-1.6,1.9-2.4,2.7
				c-2.2,2.1-4.3,3.1-6.3,3.5c-1.1,0.2-2.1,0.3-3,0.2c-1.2-0.1-2.3-0.4-3.2-0.8c-1.9-0.8-3.1-1.8-3.1-1.8
				C268.4,353.9,270.5,352.9,272.8,352.3z M273.6,373.1c2.4-1.6,5.5-1.8,8.1-1.5c-0.9,1.6-1.4,3.3-1.5,5.1c-1.1,0.1-2.1,0-3-0.3
				c-2.6-0.9-3.9-3.1-3.9-3.1C273.4,373.2,273.5,373.2,273.6,373.1z M279.2,364.2c1.7-2.3,3.7-3.5,5.6-4.2c2.2-0.8,4.2-0.9,5.2-0.8
				c0.4,0,0.7,0.1,0.7,0.1c-1.1,0.8-2,1.7-2.8,2.6c0,0,0,0.1-0.1,0.1c-1.4,1.7-2.2,3.1-2.2,3.1C283.6,364.9,279.2,364.2,279.2,364.2
				z M283,348.3c-2.9,0.7-5.4,0.3-7.2-0.4c-1.8-0.7-2.8-1.5-2.8-1.5c0.9-1.2,2.1-2.1,3.3-2.9c1.7-1.1,3.5-1.8,5.4-2.4
				c1.8-0.5,3.5-0.8,5.1-1c1.2-0.1,2.3-0.2,3.3-0.3c2.2-0.1,3.6,0,3.6,0C289.9,345.1,286.2,347.5,283,348.3z M290.2,335.4
				c-0.6,0.2-1.2,0.3-1.8,0.4c-0.3,0-0.6,0-0.8,0.1c-4.4,0.1-7.5-2.7-7.5-2.7c3.2-3.5,8.7-4.2,12.9-4.1c0,0,0,0,0,0
				c0.5,0,1.1,0,1.5,0.1c2.1,0.1,3.5,0.4,3.5,0.4C295.3,333,292.7,334.7,290.2,335.4z M292.8,312.8c5.6-8.2,20.1-8.1,20.1-8.1
				C303.8,320.2,292.8,312.8,292.8,312.8z M306.4,336.1c0,0-5.1-4.5-2.7-11.7c1.9-1.3,3.9-3,5.8-5.5
				C310.2,323.1,310.7,331.2,306.4,336.1z M303.6,317.3c0.1,0,0.1,0,0.2,0c0.5,0,0.9,0,1.3,0c1.1,0,1.8,0.1,1.8,0.1
				c-3.7,5.3-7.4,7.7-10.6,8.5c-0.9,0.2-1.7,0.3-2.5,0.4c-4.5,0.2-7.6-2.2-7.6-2.2c0.4-0.5,0.8-1,1.3-1.4
				C292,318.3,299.4,317.4,303.6,317.3z M298.5,336.8l1.7-1.3c0,0,0,2.2-0.6,4.4l-1.7-1.7l-0.5-0.5L298.5,336.8z M300.1,343.8
				c3.5-1.8,8.2-1.9,12-1.6c-1.4,0.6-4.5,2.2-8.4,4.7c-0.5,0.3-1,0.7-1.5,1c-2.7-1.2-4.3-2.7-4.3-2.7
				C298.6,344.6,299.3,344.2,300.1,343.8z M308,337.1c3.9-4,10.4-4.6,14.8-4.5c-2.1,2-3.8,4.3-4.8,6.9C312,341,308,337.1,308,337.1z
				 M318.1,345c0.1-0.6,0.3-1.2,0.5-1.9c0.5-1.6,1.4-3.2,2.8-5c1.2-1.5,2.7-3,4.7-4.5c0,0,0,0.2,0.1,0.7c0,0.6,0.1,1.6,0.1,2.9
				c0,0.8,0,1.8-0.1,2.8c0,0.4-0.1,0.9-0.1,1.4c-0.4,3.8-1.5,8.3-4.2,11.7c-0.5,0.6-1,1.1-1.5,1.6c0,0-2.1-2.5-2.5-6.3
				c0-0.1,0-0.2,0-0.3C317.9,347.1,317.9,346.1,318.1,345z M322.8,313.7c0,0,5.4-5,12.1-5.9c0,0,0.2,3.9-5.4,11.7l-6.9,0.5
				C322.7,320,323.1,315.8,322.8,313.7z M319.1,307.1c0,0,2.5,13-3.8,19.5C315.3,326.6,306.7,317.9,319.1,307.1z M316.1,276
				c0,0,1,4.1-3.5,13.6l-7.3,1.9c0,0-0.4-4.7-1.1-6.8C304.2,284.7,309,278.3,316.1,276z M320.5,291.9c-8.4,15.9-19.8,9-19.8,9
				C306,292.6,320.5,291.9,320.5,291.9z M298.9,278.3c0,0,5.3,13.5-0.3,21.7C298.6,300,287.7,292.4,298.9,278.3z M289.9,290.3
				c0,0,6.1,13.2,1,21.7C290.9,312,279.6,305.1,289.9,290.3z M284.7,321c-0.2,0.7-0.5,1.4-0.8,2c0,0-3-1.6-4.7-5.2
				c-0.7-1.5-1.2-3.3-1.2-5.4c0-2.9,1-6.4,3.5-10.5c0.1-0.1,0.1-0.2,0.2-0.4c0,0,0.1,0.1,0.2,0.3c0.2,0.3,0.4,0.8,0.7,1.5
				C284,306.7,286.7,314.5,284.7,321z M284.5,282.3c-4.1,15.5-15.4,11.8-15.4,11.8C272,285.8,284.5,282.3,284.5,282.3z M277.6,269.4
				c0,0,1.7,3.4-0.4,12.6l-6,3.1c0,0-1.3-4-2.3-5.7C268.9,279.3,271.8,272.7,277.6,269.4z M280.5,294.9
				c-4.8,15.3-15.9,11.1-15.9,11.1C267.9,297.8,280.5,294.9,280.5,294.9z M263,274.8c0,0,7.3,10.7,4.1,19
				C267.1,293.8,256.1,289.3,263,274.8z M258.8,291.7l0.3-2.4c2.2,3.5,5.7,10.4,3.7,16.4c0,0-5.2-1.8-6.7-7.6
				C256.6,296.3,257.1,294.2,258.8,291.7z M257.5,264.9c-1.3,17.9-14.5,16.2-14.5,16.2C244.4,271.3,257.5,264.9,257.5,264.9z
				 M247.1,252c0,0,2.5,3.4,2.2,13.9l-5.9,4.6c0,0-2.3-4.1-3.7-5.8C239.7,264.8,241.5,256.9,247.1,252z M232.2,261
				c0,0,10.2,10.3,8.4,20C240.6,281,227.6,278.4,232.2,261z M238.4,295.1c0,0-10.1-1.4-10.2-13.6c0-1.7,0.2-3.7,0.6-5.9
				c0,0,0.2,0.2,0.5,0.5C231.4,278.2,239.5,286.6,238.4,295.1z M249.4,305.1c-0.2,0.1-0.3,0.3-0.5,0.4c-0.5,0.4-0.9,0.7-1.4,1
				c-0.3,0.2-0.6,0.4-0.9,0.5c-4,2-7.9,1-7.9,1c0.2-0.6,0.4-1.2,0.6-1.8c2.2-5.1,7.5-8.6,11.4-10.6c2.5-1.3,4.3-1.9,4.3-1.9
				C253.9,299.4,251.8,302.9,249.4,305.1z M237.5,329.8c0.7-1.1,1.6-2.2,2.6-3.1c1.5-1.5,3.2-2.7,4.8-3.7c0.5-0.3,1-0.6,1.5-0.9
				c0.1-0.1,0.2-0.1,0.3-0.2c0.7-0.4,1.4-0.7,2-1c2-1,3.3-1.4,3.3-1.4c-0.6,2.9-1.4,5.2-2.4,7.1c-0.7,1.3-1.4,2.3-2.2,3.2
				c-0.8,0.9-1.6,1.6-2.5,2.2c-2.2,1.5-4.5,1.9-6.2,2c-1.8,0.1-3-0.2-3-0.2C236,332.4,236.7,331.1,237.5,329.8z M238.3,339
				C238.3,339,238.3,339,238.3,339c2.7-2.1,5.9-3.4,8.1-4.1c1.5-0.5,2.5-0.7,2.5-0.7c-0.2,0.9-0.5,1.8-0.8,2.6
				c-1.3,3.4-3,5.4-4.9,6.7c-1.6,1-3.2,1.5-4.6,1.7c-2.6,0.3-4.7-0.3-4.7-0.3C234.6,342.4,236.3,340.5,238.3,339z M238.8,347.7
				c2-0.6,3.6-0.5,3.6-0.5c-0.8,1.9-1.8,3.4-2.8,4.5c-3.4,3.7-7.4,3.5-7.4,3.5C232.7,350.4,236.1,348.5,238.8,347.7z M234.8,359.9
				l0.1-0.4l2-0.3l3.7-0.6l-11.9,27.2L234.8,359.9z M244.8,360.6c0.8-1.4,1.6-2.8,2.5-4.3l4,0.6c0,0-1.1,1.9-2.9,5
				c-5.9,10.4-19.4,34.2-26.1,45.5C222.3,407.4,230,386.7,244.8,360.6z M219.8,417.4c13.3-20.4,30.8-40.8,38.5-49.6
				c1.3-1.5,2.3-2.6,3-3.4c0.4-0.7,0.8-1.3,1.3-1.8c1.8-1.9,4.1-2.4,6.1-2.4c0.8,0,1.7,0.1,2.4,0.3c1.6,0.3,2.6,0.8,2.6,0.8
				c-1.5,1.5-3.1,2.4-4.5,3c-0.7,0.3-1.4,0.5-2.1,0.7c-0.7,0.1-1.3,0.2-1.9,0.3c-0.7,0-1.3,0-1.9-0.1l0,0.1
				c-1.1,1.3-2.1,2.6-3.1,3.9C238,397.5,224,419.3,224,419.3C221.1,418.2,219.8,417.4,219.8,417.4z M242.6,426.4l-3.5-1.6l13.5-10.7
				l1.3,3.4L242.6,426.4z M235.1,423.9l-4.7-1.6c0,0,18.5-19.9,48.1-38.7c0.1,0,0.2-0.1,0.2-0.2c1.1-0.7,2.3-1.4,3.4-2.1l0.1,0.2
				c0-0.3-0.1-0.6-0.1-1c-0.1-2.3,0.4-5.6,3.5-9.2c0,0,2.9,5.5,0.2,9.9c-0.3,0.5-0.7,1-1.2,1.5c-0.4,0.4-1,0.8-1.6,1.2l0,0.1
				c0,0-1.4,0.9-3.8,2.4C270.8,392.2,248.9,407.3,235.1,423.9z M284.9,394.5l-1.3,0.7l-4.4-1.4l3.1-1.7l2.8-1.6l5.3,0.8L284.9,394.5
				z M295.6,387.9c-1.4,0.4-2.7,0.6-3.8,0.5c-4.7-0.1-6.8-3-6.8-3c0.7-0.4,1.3-0.8,2-1C291.8,382.9,295.6,387.9,295.6,387.9z
				 M292.1,377.1c0,0-7.7-5.1-0.8-14c0.7-0.9,1.5-1.8,2.5-2.8c0,0,0.3,1.2,0.6,2.9C295,366.8,295.4,373.1,292.1,377.1z M295,354.7
				c-0.2,0-0.5-0.1-0.7-0.1c-2.1-0.2-5,0.1-5,0.1c2.5-6.2,9.9-5.2,10.7-5.1c0,0,0.1,0,0.1,0L295,354.7z M305.8,358
				c-0.4,3.2-1.2,6.8-3,9.8c-0.7,1.1-1.5,2.2-2.6,3.1c0,0-2.9-3.4-2.5-8.4c0.3-3.6,2.2-8,8.2-12.6c0,0,0.1,0.6,0.1,1.5
				C306,352.9,306.1,355.3,305.8,358z M309.8,358.6c-0.3-0.5-0.6-1.1-0.9-1.8c-0.5-1.5-0.7-3.4,0-5.6c0.3-0.7,0.6-1.5,1.1-2.3
				c1-1.6,2.4-3.2,4.6-5c0.1-0.1,0.3-0.2,0.4-0.4c0,0,0.1,0.4,0.2,1.1c0.1,0.6,0.1,1.3,0.2,2.3c0,0.8,0.1,1.7,0,2.6c0,0,0,0,0,0
				c0,0.8-0.1,1.7-0.2,2.5c-0.4,3-1.4,6.3-3.7,8.6C311.5,360.7,310.6,360,309.8,358.6z M320.4,369.9c-5.1-1.5-7.5-6-7.5-6
				c4.5-2.3,10.2-1,14.5,0.6c3.4,1.3,5.8,2.8,5.8,2.8C327.8,370.5,323.5,370.8,320.4,369.9z M328.5,361.2c-4.3-1.4-6.3-4.8-6.3-4.8
				c0.6-0.3,1.1-0.6,1.7-0.8c8.5-3.3,20,2.1,20,2.1C337.2,362.2,332.1,362.4,328.5,361.2z M348.5,351.6c-10.4,4.7-16-3.2-16-3.2
				c5.2-3.6,12.6-2.7,17.3-1.6c2.6,0.6,4.4,1.3,4.4,1.3C352.2,349.6,350.3,350.8,348.5,351.6z M344.2,340.2c7.9-6,21.7-1.3,21.7-1.3
				C352.3,350.7,344.2,340.2,344.2,340.2z"/>
		</g>
	</g>
	<g>
		<g>
			<g>
				<g>
					<g>
						<path class="st3" d="M386.7,348.3h-7.6v-4.5h20.8v4.5h-7.7v22.6h-5.4V348.3z"/>
						<path class="st3" d="M424.5,360.7c0-6.7,4.7-10.8,9.6-10.8c5.6,0,8.6,4.1,8.6,9.8c0,1-0.1,2-0.3,2.5h-12.7
							c0.4,3.4,2.6,5.1,5.7,5.1c1.7,0,3.2-0.5,4.6-1.4l1.8,3.3c-2,1.4-4.6,2.3-7.2,2.3C429,371.4,424.5,367.4,424.5,360.7z
							 M438.1,358.6c0-2.8-1.2-4.5-3.9-4.5c-2.2,0-4.1,1.5-4.5,4.5H438.1z"/>
						<path class="st5" d="M392.3,391.7h-13.6v-8.1h37.1v8.1H402v40.4h-9.7V391.7z"/>
						<path class="st5" d="M462.1,395.4h7.9l0.7,6.5h0.3c2.7-4.8,6.6-7.4,10.4-7.4c2,0,3.2,0.3,4.3,0.8l-1.7,8.3
							c-1.2-0.4-2.3-0.6-3.8-0.6c-2.9,0-6.4,1.9-8.5,7.2v21.9h-9.6V395.4z"/>
						<path class="st5" d="M486.3,413.8c0-11.9,8.3-19.3,17.1-19.3c10.1,0,15.3,7.4,15.3,17.6c0,1.8-0.2,3.5-0.5,4.4l-22.6,0
							c0.8,6,4.7,9.2,10.2,9.2c3,0,5.6-0.9,8.3-2.6l3.3,5.9c-3.6,2.5-8.3,4.1-12.8,4.1C494.3,433,486.3,425.9,486.3,413.8z
							 M510.4,410.1c0-5-2.2-8.1-6.9-8.1c-3.9,0-7.3,2.8-8,8.1L510.4,410.1z"/>
						<path class="st5" d="M521.8,427.8l4.4-6c3.3,2.6,6.4,4,9.8,4c3.7,0,5.3-1.6,5.3-3.9c0-2.8-3.8-4-7.7-5.5
							c-4.7-1.8-10-4.6-10-10.7c0-6.6,5.4-11.3,13.6-11.3c5.4,0,9.4,2.2,12.5,4.5l-4.3,5.8c-2.6-1.8-5.2-3.1-7.9-3.1
							c-3.3,0-4.8,1.4-4.8,3.5c0,2.7,3.6,3.7,7.5,5.1c4.8,1.8,10.2,4.3,10.2,11.1c0,6.4-5,11.6-14.6,11.6
							C530.9,433,525.4,430.9,521.8,427.8z"/>
						<path class="st5" d="M596.1,384.3c0-3.1,2.4-5.2,5.8-5.2c3.3,0,5.7,2.1,5.7,5.2c0,3-2.4,5.2-5.7,5.2
							C598.6,389.5,596.1,387.3,596.1,384.3z M597,395.4h9.6v36.7H597V395.4z"/>
						<path class="st5" d="M615.6,395.4h7.9l0.7,4.8h0.3c3.2-3.1,6.9-5.8,11.9-5.8c7.9,0,11.3,5.5,11.3,14.7v22.9h-9.6v-21.7
							c0-5.6-1.6-7.7-5.2-7.7c-3,0-4.9,1.4-7.7,4.1v25.2h-9.6V395.4z"/>
						<path class="st5" d="M653.9,438.6c0-3.1,1.9-5.7,5.2-7.6v-0.3c-1.9-1.2-3.3-3.1-3.3-6.2c0-2.8,1.9-5.3,4.1-6.9v-0.3
							c-2.5-1.8-4.8-5.3-4.8-9.6c0-8.6,7-13.3,14.8-13.3c2,0,4,0.4,5.5,0.9h13.2v7.1h-6.3c1,1.2,1.7,3.3,1.7,5.6
							c0,8.3-6.3,12.4-14.2,12.4c-1.4,0-3.1-0.3-4.7-0.9c-1,0.9-1.6,1.7-1.6,3.1c0,2,1.4,3,5.8,3h6.2c8.8,0,13.6,2.8,13.6,9.2
							c0,7.4-7.7,13-19.9,13C660.6,448,653.9,445.1,653.9,438.6z M680,436.6c0-2.6-2.2-3.3-6.1-3.3h-4.5c-2.2,0-3.8-0.2-5.1-0.5
							c-1.6,1.3-2.4,2.8-2.4,4.3c0,3.1,3.4,4.8,8.8,4.8C676.2,441.9,680,439.5,680,436.6z M675.5,407.8c0-4.3-2.4-6.7-5.7-6.7
							c-3.3,0-5.8,2.4-5.8,6.7s2.6,6.7,5.8,6.7S675.5,412.1,675.5,407.8z"/>
						<path class="st5" d="M384.5,443.5h29.9v8.1h-20.2v12.6h17.2v8.1h-17.2V492h-9.7V443.5z"/>
						<path class="st5" d="M437.7,473.7c0-12.3,8.5-19.3,17.6-19.3c9.2,0,17.6,7.1,17.6,19.3c0,12.1-8.5,19.2-17.6,19.2
							C446.2,492.9,437.7,485.9,437.7,473.7z M463.2,473.7c0-6.9-2.8-11.5-7.8-11.5c-5,0-7.8,4.5-7.8,11.5c0,6.9,2.8,11.3,7.8,11.3
							C460.3,485.1,463.2,480.6,463.2,473.7z"/>
						<path class="st5" d="M477.4,473.7c0-12.3,8.5-19.3,17.6-19.3c9.2,0,17.6,7.1,17.6,19.3c0,12.1-8.5,19.2-17.6,19.2
							C485.9,492.9,477.4,485.9,477.4,473.7z M502.9,473.7c0-6.9-2.8-11.5-7.8-11.5c-5,0-7.8,4.5-7.8,11.5c0,6.9,2.8,11.3,7.8,11.3
							C500,485.1,502.9,480.6,502.9,473.7z"/>
						<path class="st5" d="M519.4,455.3h7.9l0.7,6.5h0.3c2.7-4.8,6.6-7.4,10.4-7.4c2,0,3.2,0.3,4.3,0.8l-1.7,8.3
							c-1.2-0.4-2.3-0.6-3.8-0.6c-2.9,0-6.4,1.9-8.5,7.2V492h-9.6V455.3z"/>
					</g>
					<g>
						<path class="st3" d="M414.7,349.9c-2.8,0-4.8,1.5-6.5,3l0.2-3.9v-5.2h-5.4v27.1h5.4v-14.1c1.5-1.5,2.6-2.3,4.3-2.3
							c2,0,2.9,1.1,2.9,4.3v12.1h5.4v-12.8C421,352.9,419.1,349.9,414.7,349.9z"/>
					</g>
					<g>
						<path class="st5" d="M421.5,432.1h9.6v-25.2c2.8-2.7,4.7-4.1,7.7-4.1c3.6,0,5.2,2,5.2,7.7v21.7h9.6v-22.9
							c0-9.2-3.4-14.7-11.3-14.7c-5,0-8.6,2.6-11.5,5.4l0.4-6.9v-9.4h-9.6V432.1z"/>
						<path class="st5" d="M577.1,394.5c-5,0-8.6,2.6-11.5,5.4l0.4-6.9v-9.4h-9.6v48.5h9.6v-25.2c2.8-2.7,4.7-4.1,7.7-4.1
							c3.6,0,5.2,2,5.2,7.7v21.7h9.6v-22.9C588.5,400,585.1,394.5,577.1,394.5z"/>
					</g>
					<g>
						<path class="st5" d="M432.2,485.1c-0.9,0-2-0.7-2-2.9v-38.7h-9.6v38.2c0,6.8,2.4,11.2,9,11.2c2.2,0,3.9-0.4,5-0.9l-1.2-7.1
							C432.9,485.1,432.6,485.1,432.2,485.1z"/>
					</g>
				</g>
			</g>
		</g>
	</g>
</g>
</svg>
