<?xml version="1.0" encoding="utf-8"?>
<!-- Generator: Adobe Illustrator 24.2.1, SVG Export Plug-In . SVG Version: 6.00 Build 0)  -->
<svg version="1.1" id="Layer_1" xmlns="http://www.w3.org/2000/svg" xmlns:xlink="http://www.w3.org/1999/xlink" x="0px" y="0px"
	 viewBox="0 0 800 800" style="enable-background:new 0 0 800 800;" xml:space="preserve">
<style type="text/css">
	.st0{fill-rule:evenodd;clip-rule:evenodd;fill:#FFFFFF;}
	.st1{fill:#19475E;}
	.st2{fill:#F3B7B4;}
</style>
<rect x="-0.4" y="-0.5" class="st0" width="801.5" height="801.5"/>
<g>
	<g>
		<g>
			<path class="st1" d="M329.9,573.3l-5.8-5l0,0l-2.2,2.5l0,0l5.4,4.3l0,0l-3.2,4l0,0l-5.4-4.3l0,0l-5,5.8l0,0l-4.3-4l0,0l14.4-16.5
				l0,0l10.4,9l0,0L329.9,573.3C330.2,573.3,330.2,573.3,329.9,573.3z"/>
		</g>
		<g>
			<path class="st1" d="M337.1,591l7.2,4l0,0l-2.5,4.3l0,0l-12.2-6.8l0,0l10.8-19.1l0,0l12.2,6.8l0,0l-2.5,4.3l0,0l-6.8-4l0,0
				l-1.4,2.5l0,0l6.1,3.6l0,0l-2.2,4.3l0,0l-6.1-3.6l0,0L337.1,591C336.7,591,337.1,591,337.1,591z"/>
		</g>
		<g>
			<path class="st1" d="M360.1,607.5c-2.5-0.7-4.3-2.2-5.8-4c-1.1-1.8-1.4-3.6-0.7-6.1l0,0l5.8,1.8l0,0c-0.4,0.7,0,1.1,0.4,1.8
				c0.4,0.4,0.7,1.1,1.4,1.1c0.7,0.4,1.1,0.4,1.8,0c0.7,0,1.1-0.4,1.1-1.1c0-0.4,0-0.4,0-0.7s0-0.4-0.4-0.7c0-0.4-0.4-0.4-0.4-0.4
				s-0.4-0.4-0.7-0.7c-0.4-0.4-0.7-0.4-0.7-0.4s-0.4-0.4-1.1-0.7c-1.4-1.1-2.5-1.8-3.2-2.2c-1.4-1.4-2.2-3.2-1.8-5.4
				c0-0.4,0-0.7,0.4-1.1c0.7-2.2,1.8-3.6,3.6-4.3c1.8-0.7,4-0.7,6.5,0c2.5,0.7,4.3,2.2,5.4,3.6c1.1,1.8,1.1,3.6,0.4,5.8l0,0
				l-5.8-1.8l0,0c0-0.7,0-1.1-0.4-1.4c-0.4-0.4-0.7-0.7-1.4-1.1c-0.7,0-1.1-0.4-1.4,0c-0.4,0-0.7,0.4-1.1,0.7c0,0.4,0,0.4,0,0.7
				c0,0.4,0,0.4,0.4,0.7c0,0.4,0.4,0.4,0.4,0.4s0.4,0.4,0.7,0.4c0.4,0.4,0.7,0.4,0.7,0.4c0.4,0,0.4,0.4,0.7,0.7
				c0.4,0.4,0.7,0.4,1.1,0.7c0.4,0,0.7,0.4,1.1,0.7c0.4,0.4,0.7,0.7,1.1,0.7c0.4,0.4,0.4,0.4,0.7,0.7c0.4,0.4,0.7,0.7,0.7,1.1
				c0,0.4,0.4,0.7,0.4,1.1c0,0.4,0.4,0.7,0.4,1.1s0,0.7,0,1.4c0,0.4,0,1.1-0.4,1.4c-0.7,2.2-2.2,3.6-4,4.3
				C364.7,608.2,362.6,608.2,360.1,607.5z"/>
		</g>
		<g>
			<path class="st1" d="M398.5,591.3l-0.4,5.4l0,0l-5.8-0.7l0,0l-1.4,16.2l0,0l-5.8-0.7l0,0l1.4-16.2l0,0l-5.8-0.7l0,0l0.4-5.4l0,0
				L398.5,591.3L398.5,591.3z"/>
		</g>
		<g>
			<path class="st1" d="M407.2,612.9l-1.8-21.9l0,0l5.8-0.4l0,0l1.8,21.9l0,0L407.2,612.9L407.2,612.9z"/>
		</g>
		<g>
			<path class="st1" d="M433.8,585.9l6.5-1.8l0,0l-2.5,23.4l0,0l-5.4,1.4l0,0l-14-19.1c0,0,0,0,0-0.4l6.5-1.8l0,0l7.6,11.9h0.4
				L433.8,585.9C433.4,585.9,433.4,585.9,433.8,585.9z"/>
		</g>
		<g>
			<path class="st1" d="M466.9,595.3l-2.5-2.5l0,0l-6.8,3.6l0,0l0.7,3.6l0,0l-5.4,2.9c0,0,0,0-0.4,0l-2.5-23.4l0,0l5-2.9l0,0
				l18,15.1c0,0,0,0,0,0.4L466.9,595.3L466.9,595.3z M460.4,589.2l-5-4.7H455l1.1,6.8c0,0,0,0,0.4,0L460.4,589.2L460.4,589.2z"/>
		</g>
		<g>
			<path class="st1" d="M482.7,577.3l5.8-5l0,0l3.6,4l0,0l-10.4,9l0,0l-14-16.5l0,0l4.7-4l0,0L482.7,577.3L482.7,577.3z"/>
		</g>
	</g>
	<g>
		<g>
			<path class="st1" d="M267,336.8h5.4l0,0v6.1l0,0h16.5l0,0v5.8l0,0h-16.5l0,0v5.8l0,0H267l0,0L267,336.8
				C266.6,336.8,266.6,336.8,267,336.8z"/>
		</g>
		<g>
			<path class="st1" d="M287.1,311.6c1.8,1.8,2.5,4.3,2.5,6.8c0,2.9-1.1,5-2.5,6.8c-1.8,1.8-4,2.5-6.5,2.5l-13.3-0.4l0,0v-6.1l0,0
				l13.3,0.4c1.1,0,1.8-0.4,2.5-0.7c0.7-0.7,1.1-1.4,1.1-2.5c0-1.1-0.4-1.8-1.1-2.5c-0.7-0.7-1.4-1.1-2.5-1.1l-13.3-0.4l0,0v-6.1
				l0,0l13.3,0.4C283.1,308.7,285.3,309.8,287.1,311.6z"/>
		</g>
		<g>
			<path class="st1" d="M293.2,289.7l-7.2,1.8l0,0l-0.4,1.8l0,0l6.5,1.8l0,0l-1.4,5.8l0,0l-21.2-5.4l0,0l2.5-9c0.7-2.2,1.8-4,3.6-5
				c1.8-1.1,4-1.4,6.1-0.7c1.4,0.4,2.5,1.1,3.2,1.8c0.7,0.7,1.4,1.8,1.8,3.2l0,0l8.6-2.2l0,0L293.2,289.7L293.2,289.7z M275.9,291.1
				l4.3,1.1l0,0l0.7-2.5c0.4-0.7,0-1.4,0-2.2c-0.4-0.7-0.7-1.1-1.4-1.1s-1.4,0-1.8,0.4c-0.7,0.4-1.1,1.1-1.1,1.8L275.9,291.1
				C275.6,291.1,275.6,291.1,275.9,291.1z"/>
		</g>
		<g>
			<path class="st1" d="M284.6,254.4l2.5-5l0,0l19.4,10.4l0,0l-2.2,4.3l0,0l-14.4,2.2c0,0,0,0,0,0.4l10.1,5.4l0,0l-2.5,5l0,0
				l-19.4-10.4l0,0l2.5-4.7l0,0l13.7-1.8c0,0,0,0,0-0.4L284.6,254.4L284.6,254.4z"/>
		</g>
		<g>
			<path class="st1" d="M316.2,217.4l3.6,4l0,0l-4.3,4l0,0l11.1,11.9l0,0l-4.3,4l0,0l-11.1-11.9l0,0l-4.3,4l0,0l-3.6-4l0,0
				L316.2,217.4C315.9,217.4,315.9,217.4,316.2,217.4z"/>
		</g>
		<g>
			<path class="st1" d="M336.3,203.8l5-2.9l0,0l11.1,19.1l0,0l-5,2.9l0,0l-4-7.2l0,0l-5.4,3.2l0,0l4,7.2l0,0l-5,2.9l0,0l-11.1-19.1
				l0,0l5-2.9l0,0l4,6.8l0,0l5.4-3.2l0,0L336.3,203.8C336.3,204.1,336.3,203.8,336.3,203.8z"/>
		</g>
		<g>
			<path class="st1" d="M364.7,209.9l7.6-2.5l0,0l1.4,4.7l0,0l-13.3,5l0,0l-6.5-20.9l0,0l13.3-4.3l0,0l1.4,4.7l0,0l-7.5,2.5l0,0
				l1.1,2.9l0,0l6.8-2.2l0,0l1.4,4.7l0,0l-6.8,2.2l0,0L364.7,209.9C364.4,209.9,364.7,210.2,364.7,209.9z"/>
		</g>
		<g>
			<path class="st1" d="M403.2,187.6c2.5,0,4.3,0.7,5.8,2.5c1.4,1.4,2.2,3.6,2.2,5.8c0,2.2-0.7,4.3-2.5,5.8
				c-1.4,1.4-3.6,2.2-5.8,2.2h-3.2l0,0v5.8l0,0h-5.8l0,0l0.4-21.9l0,0H403.2z M402.1,198.4c0.7,0,1.4-0.4,1.8-0.7
				c0.4-0.4,0.7-1.1,0.7-1.8c0-0.7-0.4-1.4-0.7-1.8c-0.4-0.4-1.1-0.7-1.8-0.7h-2.5l0,0v5l0,0H402.1z"/>
		</g>
		<g>
			<path class="st1" d="M430.2,213.8l-0.4-3.6l0,0l-7.5-1.8l0,0l-1.8,3.2l0,0l-6.5-1.8c0,0,0,0,0-0.4l13.3-19.4l0,0l5.8,1.4l0,0
				l3.6,23.4l0,0L430.2,213.8L430.2,213.8z M429.5,204.8l-0.7-6.8c0,0,0,0-0.4,0l-3.6,5.8c0,0,0,0,0,0.4L429.5,204.8L429.5,204.8z"
				/>
		</g>
		<g>
			<path class="st1" d="M455.7,211.3l10.4,5.4l0,0c-0.7,1.4-1.8,2.9-2.9,4c-1.1,1.1-2.5,1.8-4,2.5c-1.4,0.4-2.9,0.7-4.3,0.7
				c-1.4,0-3.2-0.7-4.7-1.4c-1.4-0.7-2.9-1.8-4-2.9c-1.1-1.1-1.8-2.5-2.2-4c-0.4-1.4-0.7-2.9-0.4-4.3c0-1.4,0.7-3.2,1.4-4.7
				c0.7-1.4,1.8-2.9,2.9-3.6c1.1-1.1,2.5-1.8,4-2.2c1.4-0.4,2.9-0.7,4.3-0.4c1.4,0,3.2,0.7,4.7,1.4c2.5,1.4,4.3,3.2,5.8,5.8
				c1.1,2.5,1.4,4.7,0.7,7.2c0,0,0,0-0.4,0l-5.4-2.9l0,0c0-1.1-0.4-1.8-0.7-2.9c-0.7-1.1-1.4-1.4-2.5-2.2c-1.4-0.7-2.9-0.7-4.3-0.4
				c-1.4,0.4-2.5,1.4-3.2,3.2c-0.7,1.4-1.1,3.2-0.7,4.7c0.4,1.4,1.4,2.5,2.9,3.2c1.1,0.4,2.2,0.7,3.2,0.7s1.8-0.4,2.5-0.7
				c0,0,0,0,0-0.4l-4.7-2.5l0,0L455.7,211.3L455.7,211.3z"/>
		</g>
		<g>
			<path class="st1" d="M474.8,231.4l6.1,5l0,0l-3.2,4l0,0l-10.8-9l0,0l14-16.9l0,0l10.8,9l0,0l-3.2,4l0,0l-6.1-5l0,0l-1.8,2.2l0,0
				l5.4,4.7l0,0l-2.9,3.6l0,0l-5.4-4.7l0,0L474.8,231.4L474.8,231.4z"/>
		</g>
		<g>
			<path class="st1" d="M507.8,261.3L507.8,261.3c0,1.1-0.4,2.2-0.7,3.2c-0.4,1.1-1.1,1.8-2.2,2.5c-1.4,1.1-3.2,1.1-5,0.7
				c-1.8-0.4-3.2-1.8-4.3-3.2l-5.4-8.6l0,0l18.7-11.5l0,0l5.4,8.3c1.1,1.8,1.4,3.2,1.1,5c-0.4,1.8-1.1,2.9-2.5,4
				c-0.7,0.4-1.8,0.7-2.9,0.7C509.6,261.6,508.9,261.6,507.8,261.3z M499.6,260.6c0.4,0.7,0.7,1.1,1.4,1.1c0.4,0,1.1,0,1.4-0.4
				c0.4-0.4,0.7-0.7,1.1-1.4c0-0.4,0-1.1-0.4-1.8l-1.8-2.5l0,0l-3.2,2.2l0,0L499.6,260.6z M507.8,257c0.4,0,1.1,0,1.4-0.4
				c0.4-0.4,0.7-0.7,0.7-1.1s0-1.1-0.4-1.4l-1.4-2.5l0,0l-3.2,1.8l0,0l1.4,2.5C507.1,256.2,507.5,256.6,507.8,257z"/>
		</g>
		<g>
			<path class="st1" d="M505.7,287.2c-0.7-2.2-1.1-4.3-0.4-6.5s1.1-4,2.5-5.4s3.2-2.5,5.4-3.2c2.2-0.7,4.3-0.7,6.1-0.4
				c2.2,0.4,3.6,1.4,5.4,2.9c1.4,1.4,2.5,3.2,3.2,5.4c0.7,1.8,0.7,3.2,0.7,5c0,1.4-0.4,3.2-1.1,4.3c-0.7,1.4-1.4,2.5-2.9,3.6
				c-1.1,1.1-2.5,1.8-4.3,2.2c-1.4,0.4-3.2,0.7-4.7,0.7s-2.9-0.7-4.3-1.1c-1.4-0.7-2.5-1.8-3.6-2.9C507.1,290,506,288.6,505.7,287.2
				z M511.4,280.7c-0.7,1.4-0.7,2.9-0.4,4.7c0.4,1.4,1.4,2.9,2.9,3.6s2.9,0.7,4.7,0.4c1.8-0.4,2.9-1.4,3.6-2.9
				c0.7-1.4,0.7-2.9,0.4-4.3c-0.4-1.4-1.4-2.9-2.9-3.6c-1.4-0.7-2.9-0.7-4.7-0.4C513.2,278.5,512.2,279.3,511.4,280.7z"/>
		</g>
		<g>
			<path class="st1" d="M511.1,315.9c0-2.5,0.4-4.3,1.1-6.5c1.1-1.8,2.2-3.2,4-4.7c1.8-1.1,3.6-1.8,5.8-1.8s4.3,0.4,6.1,1.4
				c1.8,1.1,3.2,2.2,4.3,4c1.1,1.8,1.8,4,1.8,6.1c0,1.8,0,3.2-0.7,5c-0.4,1.4-1.1,2.9-2.2,4c-1.1,1.1-2.2,2.2-3.6,2.5
				c-1.4,0.7-2.9,1.1-4.7,1.1c-1.8,0-3.2,0-4.7-0.7c-1.4-0.4-2.9-1.4-4-2.2c-1.1-1.1-1.8-2.2-2.5-3.6
				C511.4,319.2,511.1,317.7,511.1,315.9z M517.9,311.2c-1.1,1.1-1.4,2.5-1.4,4.3c0,1.8,0.7,2.9,1.8,4c1.1,1.1,2.5,1.4,4.3,1.4
				c1.8,0,3.2-0.7,4.3-1.8c1.1-1.1,1.4-2.5,1.4-4.3c0-1.8-0.7-2.9-1.8-4c-1.1-1.1-2.5-1.4-4.3-1.4
				C520.4,309.8,519,310.2,517.9,311.2z"/>
		</g>
		<g>
			<path class="st1" d="M511.4,356.5v-6.8l0,0l9.3-6.1v-0.4h-9.3l0,0v-5.8l0,0h21.9l0,0v5.4l0,0h-8.6c0,0,0,0,0,0.4l9,5.4l0,0v6.8
				c0,0,0,0-0.4,0l-10.4-6.8l0,0L511.4,356.5C511.8,356.5,511.4,356.5,511.4,356.5z"/>
		</g>
	</g>
	<g>
		<path class="st2" d="M400.3,570.5L400.3,570.5c-50.3,0-91-40.6-91-91V321.3c0-50.3,40.6-91,91-91l0,0c50.3,0,91,40.6,91,91v158.2
			C490.9,529.8,450.3,570.5,400.3,570.5z"/>
	</g>
	<g>
		<path class="st2" d="M497.8,558.6l-5-4c17.3-21.2,26.6-47.8,26.6-75.1V372.4h6.5v107.1C525.8,508.3,515.7,536.3,497.8,558.6z"/>
	</g>
	<g>
		<path class="st2" d="M302.5,558.6c-18-22.3-28-50.3-28-79.1V372.4h6.5v107.1c0,27.3,9.3,53.9,26.6,75.1L302.5,558.6z"/>
	</g>
	<g>
		<g>
			<g>
				<path class="st1" d="M492.7,503.2c-1.4,0.7-4.7-7.5-11.9-9.3c-4.7-1.1-9.3,0.7-12.2,2.5c0.4,0.4,4,3.6,3.2,7.9
					c-0.7,6.1-9.7,8.6-10.1,7.5c-0.4-0.7,4.3-4,4-7.9c-0.4-1.4-1.1-2.9-1.4-3.6c-1.1-1.1-2.2-2.2-3.2-2.9
					c-18.7-4.3-26.6-12.6-30.2-19.4c0-0.4-0.4-0.4-0.4-0.7c1.4-0.7,3.6-1.8,6.1-2.2l0.4,0.4c2.9,4.3,13.7,19.1,29.1,14.4
					c11.9-3.6,18-3.2,23.7,2.2C493.5,496.4,493.8,502.5,492.7,503.2z"/>
			</g>
			<g>
				<path class="st1" d="M338.9,300.1c-2.2-4-6.1-6.5-11.9-7.2c-1.1-0.4-2.5,0.4-2.9,1.4c0,0.4-2.5,6.5,0.4,12.2
					c2.2,4,5.8,6.8,11.1,8.3c0.4,0,0.4,0,0.7,0c1.1,0,1.8-0.7,2.2-1.4C339.2,313,342.1,306.2,338.9,300.1z M334.9,309.1
					c-2.9-1.1-4.7-2.9-5.8-4.7c-1.1-2.2-1.1-4.3-0.7-6.1c2.9,0.7,5,2.2,6.1,4.3C335.6,304.8,335.3,307.3,334.9,309.1z"/>
			</g>
			<g>
				<path class="st1" d="M460.7,294.4c-0.4-1.1-1.4-1.8-2.9-1.4c-5.8,1.1-9.7,3.6-11.9,7.2c-3.2,6.1-0.4,12.9,0,13.3
					c0.4,1.1,1.4,1.4,2.2,1.4c0.4,0,0.4,0,0.7,0c5.4-1.4,9.3-4.3,11.1-8.3C463.3,300.8,461.1,294.7,460.7,294.4z M455.7,304.4
					c-1.1,2.2-2.9,3.6-5.8,4.7c-0.4-1.8-0.7-4.3,0.7-6.8c1.1-1.8,3.2-3.2,6.1-4.3C456.8,300.1,456.8,302.3,455.7,304.4z"/>
			</g>
			<g>
				<path class="st1" d="M336.3,344.3c-3.6-2.5-8.3-2.5-14-0.7c-1.1,0.4-1.8,1.4-1.8,2.9c0,0.4,1.1,6.8,6.5,10.4
					c2.5,1.8,5.4,2.5,8.6,2.5c1.8,0,3.6-0.4,5.4-0.7c1.1-0.4,2.2-1.4,1.8-2.5C342.8,355.5,342.1,347.9,336.3,344.3z M329.9,352.6
					c-2.2-1.4-3.2-3.2-3.6-5c2.9-0.7,5.4-0.4,7.2,0.7c2.2,1.4,3.2,4,3.6,5.8C334.2,354.4,332,354,329.9,352.6z"/>
			</g>
			<g>
				<path class="st1" d="M453.9,323.1c-5.8-1.8-10.4-1.8-14,0.7c-5.8,3.6-6.5,11.1-6.5,11.5c0,1.1,0.7,2.5,1.8,2.5
					c1.8,0.4,3.6,0.7,5.4,0.7c3.2,0,6.1-0.7,8.6-2.5c5.4-3.6,6.1-10.1,6.5-10.4C456.1,324.6,455.3,323.5,453.9,323.1z M446.4,332.1
					c-1.8,1.4-4.3,1.8-7.5,1.4c0.4-1.8,1.4-4.3,3.6-5.4c1.8-1.1,4.3-1.4,7.2-0.7C449.6,328.5,448.5,330.7,446.4,332.1z"/>
			</g>
			<g>
				<path class="st1" d="M482.3,342.2c-5.8-1.8-10.4-1.8-14,0.7c-5.8,3.6-6.5,11.1-6.5,11.5c0,1.1,0.7,2.5,1.8,2.5
					c1.8,0.4,3.6,0.7,5.4,0.7c3.2,0,6.1-0.7,8.6-2.5c5.4-3.6,6.1-10.1,6.5-10.4C484.1,343.6,483.4,342.5,482.3,342.2z M474.8,351.2
					c-1.8,1.4-4.3,1.8-7.5,1.4c0.4-1.8,1.4-4.3,3.6-5.8c1.8-1.1,4.3-1.4,7.2-0.7C478,347.9,476.9,349.7,474.8,351.2z"/>
			</g>
			<g>
				<path class="st1" d="M342.5,379.9c-3.6-2.5-8.3-2.5-14-0.7c-1.1,0.4-1.8,1.4-1.8,2.9c0,0.4,1.1,6.8,6.5,10.4
					c2.5,1.8,5.4,2.5,8.6,2.5c1.8,0,3.6-0.4,5.4-0.7c1.1-0.4,2.2-1.4,1.8-2.5C348.9,391.4,348.2,383.9,342.5,379.9z M336,388.5
					c-2.2-1.4-3.2-3.2-3.6-5c2.9-0.7,5.4-0.4,7.2,0.7c2.2,1.4,3.2,4,3.6,5.8C340.3,390.3,337.8,389.6,336,388.5z"/>
			</g>
			<g>
				<path class="st1" d="M354,409.8c-0.4,0-7.9-1.1-12.9,3.6c-3.2,2.9-4.3,7.5-4,13.3c0,1.1,1.1,2.2,2.2,2.2c0,0,0.4,0,1.1,0
					c2.2,0,6.8-0.4,10.4-3.6c3.2-2.9,5-7.2,5-12.9C356.1,411.2,355,410.1,354,409.8z M347.8,421.6c-1.8,1.4-4,2.2-5.8,2.5
					c0-3.2,0.7-5.4,2.5-6.8c1.8-1.8,4.3-2.2,6.5-2.5C350.4,417.7,349.3,420.2,347.8,421.6z"/>
			</g>
			<g>
				<path class="st1" d="M448.2,429.5c-2.9-3.2-7.5-4.3-13.3-4c-1.1,0-2.2,1.1-2.2,2.2c0,0.4-0.7,6.8,3.6,11.5c2.9,3.2,7.2,5,12.9,5
					l0,0c1.1,0,2.2-1.1,2.5-2.2C451.8,441.8,452.8,434.2,448.2,429.5z M439.9,436c-1.8-1.8-2.2-4-2.5-5.8c2.9,0,5.4,0.7,6.8,2.5
					c1.8,1.8,2.2,4.3,2.5,6.5C443.8,438.9,441.7,437.8,439.9,436z"/>
			</g>
			<g>
				<path class="st1" d="M460.4,460.5c-2.9-3.2-7.5-4.3-13.3-4c-1.1,0-2.2,1.1-2.2,2.2c0,0.4-0.7,6.8,3.6,11.5c2.9,3.2,7.2,5,12.9,5
					l0,0c1.1,0,2.2-1.1,2.5-2.2C464,472.7,465.1,465.1,460.4,460.5z M452.1,466.9c-1.4-1.8-2.2-4-2.5-5.8c3.2,0,5.4,0.7,6.8,2.5
					c1.8,1.8,2.2,4.3,2.5,6.5C456.1,469.8,453.5,468.7,452.1,466.9z"/>
			</g>
			<g>
				<path class="st1" d="M331.3,454.7c-0.4,0-7.5-2.5-13.3,1.1c-3.6,2.2-5.8,6.5-6.5,12.2c0,1.1,0.7,2.2,1.8,2.5
					c0,0,2.2,0.7,4.7,0.7c2.2,0,5-0.4,7.5-1.8c4-2.2,6.5-6.1,7.5-11.9C333.1,456.1,332.7,455.1,331.3,454.7z M323,464.8
					c-2.2,1.1-4.3,1.4-6.1,1.1c0.7-2.9,1.8-5,3.6-6.1c2.2-1.4,4.7-1.4,6.5-1.1C326.6,461.5,324.8,463.7,323,464.8z"/>
			</g>
		</g>
		<g>
			<path class="st1" d="M451,351.9c-0.7-1.1-1.8-1.4-3.2-1.4c-0.7,0-1.8,0.4-2.5,0.4c-0.4,0-0.7,0-1.1,0.4c-1.8-2.9-1.8-5.8-1.8-7.2
				h0.4c1.1-0.4,1.4-0.7,1.4-1.1c-0.4-1.1-6.8-0.4-7.9,0c-4.7,0.4-11.5,1.8-19.8,5c3.6-10.1,7.9-26.6,3.2-38.8
				c1.1-1.4,2.9-3.2,4.3-6.1c1.4-0.4,6.8-1.8,9.3-6.8c1.8-4,1.4-8.3,0.7-8.3c-0.4,0-0.7,2.2-2.2,4c-1.4,1.4-2.9,2.2-4.3,2.5
				c0.7-2.5,1.8-6.8,1.1-12.2c0-1.1-0.7-6.1-2.2-6.1c-1.4,0-1.1,10.8-7.5,22.6c-1.1,1.8-1.8,3.2-2.5,4.3c-5-6.8-13.7-10.4-25.5-10.4
				c-9,0-16.9,3.6-23,10.8c-6.5-7.5-9-14.4-10.1-19.4c-1.1-4.7-1.1-9.7-2.2-9.7c-0.7,0-1.8,4.3-2.2,7.5c-0.4,4,0,10.4,5,19.1
				c-2.2-0.4-4.3-1.1-6.5-2.9c-2.2-1.8-2.9-4-3.6-4c-0.7,0.4-0.7,3.2,0.4,5.8c1.8,4.3,6.5,7.9,11.5,7.9c0.7,0,1.8,0,2.9-0.4
				c0.4,0.4,0.7,1.1,1.1,1.4c0,0.4-0.4,0.7-0.4,0.7c-5.4,9.3-8.6,22.3-8.6,36.3c0,16.5,4.3,33.1,11.5,45.7c2.2,3.6,4.7,6.8,7.5,9.7
				c1.1,1.4,6.5,9,0.4,19.4c-8.3,14.4-8.6,27.3-1.1,45.7c1.8,4.7,2.5,10.8,2.2,16.9c-4.3-0.4-11.5-0.7-19.4,1.1
				c-8.3-9.3-11.1-20.9-9.3-27.7c0.7-2.5,1.8-4.7,3.6-5.8c1.1-0.7,2.2-1.1,2.2-1.1c2.2-0.7,4.7,0,5.8,1.4c3.6,3.6-2.9,15.1-2.5,15.5
				c0.7,0.4,11.5-11.5,6.5-18.7c-2.5-3.6-7.9-5.4-12.2-4c-1.8,0.4-2.9,1.4-3.6,1.8c-2.9,2.2-5,5.8-6.1,9.7c-2.2,9.3,1.4,21.6,9,31.3
				c-4.3,1.8-8.3,4.3-11.9,7.9c-8.6,8.6-16.2,7.2-19.1,6.5c-0.4,0-4.7-1.8-5-4.3c-0.7-5,12.6-9.7,12.2-10.4
				c-0.4-0.7-18.3,3.2-18.3,11.1c0,4,5,8.3,9.3,9.7c1.4,0.4,3.6,1.1,6.8,1.1c5,0,11.9-1.8,19.1-9c10.4-10.4,26.2-10.1,32.7-9.3
				c0,1.4-0.4,2.5-0.4,3.6c-3.2,3.2-17.3,17.3-31.3,15.5c-6.1-0.7-12.6-0.4-16.5,4c-4.3,5-2.9,13.3-1.8,13.7s1.4-5.8,6.1-9
				c3.2-2.5,7.2-2.5,10.4-2.5c3.2,3.2,13.3,12.2,24.8,10.8c6.8-1.1,12.6-5.4,12.2-6.1c-0.4-0.7-6.8,2.5-14.4,1.4
				c-5.4-0.7-9.7-4-12.9-6.5c3.2-0.7,7.6-2.2,11.9-4.7c3.6-2.2,6.8-4.3,9.3-6.5c-1.1,4.3-1.8,7.2-1.8,7.2c-0.4,0.7-0.4,1.4,0,1.8
				c0,0,0,0.4,0.4,0.7c0.7,1.1,2.2,1.4,2.2,1.4l0,0c0.4,0,1.4,0.4,3.6,0.4c1.1,0,2.5,0,4-0.4c2.5,1.1,10.1,3.2,17.6-0.4
				c2.5-1.1,4.3-2.5,6.1-4c2.5-2.2,4-2.5,4.7-2.9c5.4-2.2,11.1,1.1,11.5,1.1c4,2.2,3.6,4.7,7.5,6.1c4,1.4,8.6,0.7,8.6-0.4
				c0-0.7-2.5-1.1-6.1-2.9c-6.5-3.2-5.8-6.5-10.8-9c-0.7-0.4-6.5-2.9-12.2-1.1c-2.9,0.7-4.7,2.2-6.8,4c-1.4,1.1-2.9,2.2-5,3.2
				c-0.4,0.4-1.1,0.4-1.4,0.7c4-2.9,8.3-7.5,11.1-14.7c1.8-4,4-7.5,6.1-10.1c3.6,6.8,12.2,18.3,27.3,18c1.8,0,5.4,0,7.5,2.5
				c5,5,0.7,15.5,1.4,15.5c1.1,0.4,8.3-12.6,3.6-19.1c-1.4-1.8-2.2-5.4-12.9-5c-12.6,0.7-19.8-11.5-22.3-16.2
				c7.5-6.5,14.7-7.5,15.5-7.5c1.4,0,2.5-1.1,2.9-2.5s-0.4-2.5-1.4-3.2c0,0-7.9-5.4-13.3-14.7c-6.5-11.1-6.8-23.4-1.8-36
				c1.1,3.2,3.2,4.7,5,5.8c1.8,0.7,3.6,1.1,5.8,1.1c5,0,11.1-2.2,19.1-6.1c7.9-4.3,14-9,14.4-9c0.7-0.7,1.1-1.4,1.4-2.5
				C463.6,371.3,451.4,352.6,451,351.9z M435.2,346.8c1.1-0.4,1.8-0.7,2.9-1.1c0,0.7,0.4,1.8,0.4,3.2c0.4,1.4,0.7,2.5,1.4,3.2
				c-3.6,1.1-7.5,2.2-11.5,4c-4,1.4-7.5,3.2-10.4,4.7c0,0-9.3,5.8-11.1,4c-0.7-0.7-0.7-1.4-0.7-1.4s0-0.7,0.4-1.8
				C409,355.8,435.2,346.8,435.2,346.8z M413.3,370.2c1.1-0.4,2.2,0,2.5,1.1c1.8,4,4.7,10.1,7.2,17.6c0,0,0,0-0.4,0
				c-1.8,0.7-3.2,2.2-4.7,3.2c-2.2-7.9-4.7-14.4-6.8-19.1c-0.4-1.1,0-2.2,1.1-2.5C412.6,370.2,412.9,370.2,413.3,370.2z
				 M424.1,467.6c-6.8,2.5-18,9-24.8,24.4c-5,11.9-13.3,15.5-18.7,16.5c-0.4,0-0.4,0-0.4,0c-0.7,0-1.8,0.4-2.5,0.4
				c2.5-9,7.2-30.6,1.4-44.9c-6.8-16.9-6.5-27.7,0.7-40.3c3.2-5.8,4-10.8,3.6-15.1c5.8,3.2,11.9,5,18.7,5c3.2,0,6.5-0.4,9.3-0.7
				c-7.2,18.3-2.9,32.7,2.5,42.1C417.2,460.5,421.2,464.8,424.1,467.6z M425.1,415.5c-0.7-0.4-2.2-1.1-2.5-5.4
				c0.7-0.4,1.4-0.7,2.2-0.7c1.1-0.4,2.5,0.4,2.5,1.4s0.4,1.8,0.4,2.9C428,415.2,426.6,416.2,425.1,415.5L425.1,415.5z M431.6,397.5
				c-1.4,1.4-3.2,2.9-5.8,4c-5.4,3.2-13.3,5.8-24.1,5.8c-26.6,0-41-31.6-41-61.5c0-12.9,2.5-24.4,7.5-32.7c2.5,1.8,4.3,2.9,5.8,3.6
				c1.1-1.1,2.9-3.2,3.6-5.4c-0.4-0.4-2.9-1.4-5.8-3.6c5-5.8,11.1-8.6,18.3-8.6c10.4,0,17.6,2.9,21.6,9c2.2,3.6,3.2,7.9,3.2,12.2
				c-10.4,3.6-17.3-2.5-19.8-5.4c1.1-8.6,0.4-10.8-0.4-11.1c-2.2-0.7-4,13.7-16.2,23.4c-4.3,3.2-9,5.8-8.6,7.2
				c1.1,1.4,4.7,1.4,7.5,1.4c2.5,7.2,9,21.2,18.7,21.2c5.8,0,9.7-5.8,11.5-17.3c0.7-4.7,1.1-9,1.1-11.9c1.1,0,1.8,0,3.2,0
				c1.1,0,2.2-0.4,2.9-0.4c-1.1,10.4-5.4,20.9-7.2,25.2c-3.2,2.2-6.1,4.3-7.5,6.8c-1.1,2.2-1.4,4.7-0.7,6.8c0.4,1.1,0.7,2.2,1.4,2.9
				l0,0c0,0,7.2,10.1,11.1,27.3c-5.4,1.1-9.3,0.7-11.9,0c-11.5-2.9-19.8-15.1-21.9-30.2c1.4,1.1,4.3,2.5,8.3,2.5
				c5.4-0.4,9.7-4.3,9.3-5.8c-0.4-1.1-5,1.8-10.4-0.4c-2.2-1.1-6.8-4-9.3-4c-0.7,0-1.1,0-1.1,0.4c-1.1,0.4-1.8,1.4-2.2,2.9
				c-0.4,19.1,9.7,35.6,24.4,40.3c8.6,2.9,16.9,0.7,22.3-1.4c0.7-0.4,1.4-1.1,1.8-1.8c0.7-1.8,2.2-3.2,3.2-4c0,0,0,0,0.4,0
				s1.1-0.4,1.1-0.4c0.4,0,0.7,0,1.4,0c0.7,0,2.2,0,3.6,0l0,0c1.8-0.4,3.6-0.7,5-1.1C434.9,394.3,433.4,395.7,431.6,397.5z
				 M402.9,326.7c0,2.5-0.4,7.2-1.1,11.9c-1.4,8.3-3.6,11.9-5.4,11.9c-5.8,0-11.1-11.5-13.3-18.7c2.9-2.5,6.5-6.1,9.7-11.1
				C395.3,323.1,398.5,325.3,402.9,326.7z M434.1,412.3c-0.4-2.5-0.7-5.4-1.1-7.9c1.8-1.4,3.6-2.9,4.7-4.3
				c6.1-6.8,7.9-13.3,7.9-13.7c0.4-1.4-0.4-2.5-1.4-3.2s-2.5-0.7-3.6,0c0,0-5,3.6-10.8,4.3c-0.4,0-0.7,0-0.7,0
				c-2.5-8.3-5.8-15.1-7.5-19.4c-0.4-1.1,0-2.2,0.7-2.5c6.1-2.9,13.7-6.5,23-8.6c0.7-0.4,1.8,0.4,2.2,1.1c3.2,6.1,9,21.2,9,43.5
				c0,0.7-0.4,1.1-0.7,1.4c-5.8,4-12.9,8.3-19.1,10.4C435.6,414.4,434.1,413.7,434.1,412.3z"/>
		</g>
		<g>
			<path class="st1" d="M440.6,344.7C440.6,345,440.6,345,440.6,344.7c-0.4-0.4,0-0.7,0-0.7V344.7z"/>
		</g>
	</g>
</g>
</svg>
