<?xml version="1.0" encoding="utf-8"?>
<!-- Generator: Adobe Illustrator 24.2.1, SVG Export Plug-In . SVG Version: 6.00 Build 0)  -->
<svg version="1.1" id="Layer_1" xmlns="http://www.w3.org/2000/svg" xmlns:xlink="http://www.w3.org/1999/xlink" x="0px" y="0px"
	 viewBox="0 0 800 800" style="enable-background:new 0 0 800 800;" xml:space="preserve">
<style type="text/css">
	.st0{fill-rule:evenodd;clip-rule:evenodd;fill:#334C47;}
	.st1{fill:#FFFFFF;}
</style>
<rect x="-0.4" y="-0.5" class="st0" width="801.5" height="801.5"/>
<g>
	<g>
		<path class="st1" d="M435.5,586.5c-25.6,0-57.6-4.9-89.3-13.6c-45.6-12.8-81-31.3-97.2-51.2c-10.5-12.8-16.6-32.4-18.1-57.6
			c-1.1-21.8,1.1-47.5,6.8-76.1c9.8-49.3,30.1-103.2,49-131.1c9.4-17,23-27.5,41.1-31.3c27.1-5.7,63.3,4.1,108.5,29
			c39.9,21.8,76.5,50.5,88.5,59.9c22.6,17.7,45.6,37.3,57.3,61.8c11.7,23.7,12.4,50.5,2.6,83.6c-7.9,26.4-26,55.8-48.6,79.1
			c-25.2,26-53.5,42.6-79.9,46l0,0C450.2,586.2,443,586.5,435.5,586.5z M343.5,228.7c-5.3,0-10.2,0.4-15.1,1.5
			c-16.6,3.4-29.4,13.2-38,29v0.4c-18.8,27.1-38.8,80.6-48.6,129.6c-16.6,81.7-0.4,116.4,10.5,130c35.4,43.3,151.4,69.3,203,62.2
			l0,0c25.2-3.4,52.7-19.6,77.2-44.8c21.8-23,39.6-51.6,47.5-77.2c9.8-32,9-57.6-2.3-80.6c-11.7-23.4-33.9-42.6-56.1-59.9
			c-12.1-9.4-48.2-37.7-88.1-59.5C397.8,238.8,367.3,228.7,343.5,228.7z"/>
	</g>
	<polygon class="st1" points="284.8,439.6 284.8,417 277.6,417 277.6,412.9 296.8,412.9 296.8,417 289.3,417 289.3,439.6 	"/>
	<polygon class="st1" points="339.4,439.6 334.1,419.7 328.5,439.6 322.8,439.6 315.3,412.9 319.8,412.9 325.8,436.2 332.2,412.9 
		336,412.9 342.4,436.2 348.1,412.9 353,412.9 345.4,439.6 	"/>
	<rect x="373.3" y="412.9" class="st1" width="4.5" height="26.7"/>
	<path class="st1" d="M413.6,440c-8.3,0-14.7-6-14.7-13.9s6-13.9,13.9-13.9c4.5,0,8.7,1.9,10.9,5.3l-3.8,2.3c-1.5-1.9-4.5-3-7.2-3
		c-5.7,0-9.4,4.1-9.4,9.8c0,5.7,4.1,9.4,10.2,9.4c4.1,0,7.2-1.9,8.3-5.3l0.4-1.5H414v-3.8h12.4v1.5C426.8,434.7,421.5,440,413.6,440
		z"/>
	<path class="st1" d="M463.3,437.4l-0.8,0.4c-1.9,1.5-4.1,2.3-6.8,2.3c-5.7,0-9.4-3-9.4-7.5c0-3,1.5-5.7,4.1-7.5l0.8-0.4l-0.4-0.8
		c-0.8-1.1-1.1-2.6-1.1-4.1c0-4.5,3.4-7.5,8.3-7.5c3.8,0,6.4,1.9,7.9,4.9l-3.8,2.3c-1.1-1.9-2.3-2.6-4.1-2.6c-2.3,0-3.8,1.5-3.8,3.4
		c0,1.9,1.1,3.4,2.6,4.9l6.4,7.2l0.8-1.5c0.4-1.1,0.8-2.3,1.1-3.4l3.4,1.9c-0.4,1.9-1.5,3.4-2.3,4.9l-0.4,0.8l3.4,3.8l-3.4,1.9
		L463.3,437.4z M452.8,427.6c-1.1,1.1-1.9,2.3-1.9,4.1c0,2.6,1.9,4.5,5.3,4.5c1.1,0,2.3-0.4,3.4-0.8l1.1-0.8l-6.4-6.8l-0.8-0.8
		L452.8,427.6z"/>
	<path class="st1" d="M292.3,493.9c-4.9,0-8.3-1.9-10.2-5.7l3.8-2.3c1.5,2.3,3.4,3.4,6.4,3.4c4.5,0,4.9-2.3,4.9-3.4
		c0-2.6-2.6-3.4-6.8-4.5c-5.3-1.5-7.5-3.8-7.5-7.9c0-4.9,4.5-7.5,8.7-7.5c4.1,0,7.2,1.9,9,4.9l-3.8,2.3c-0.8-1.5-2.6-3-5.3-3
		c-3,0-4.1,1.5-4.1,3.4c0,2.3,1.5,3.4,6,4.5c4.9,1.5,8.7,3,8.7,7.9C301.7,490.9,298,493.9,292.3,493.9z"/>
	<polygon class="st1" points="327,493.5 327,470.9 319.4,470.9 319.4,466.7 338.6,466.7 338.6,470.9 331.5,470.9 331.5,493.5 	"/>
	<path class="st1" d="M369.9,493.9c-7.9,0-13.9-6-13.9-13.9s6-13.9,13.9-13.9s13.9,6,13.9,13.9S377.8,493.9,369.9,493.9z
		 M369.9,470.5c-5.7,0-9.4,4.1-9.4,9.8c0,5.7,4.1,9.8,9.4,9.8s9.8-4.5,9.8-10.2S375.6,470.5,369.9,470.5z"/>
	<polygon class="st1" points="422.3,493.5 409.5,475.4 409.5,493.5 404.9,493.5 404.9,466.7 408.3,466.7 421.1,484.4 421.1,466.7 
		425.7,466.7 425.7,493.5 	"/>
	<polygon class="st1" points="447.9,493.5 447.9,466.7 463.7,466.7 463.7,470.9 452.4,470.9 452.4,477.7 462.6,477.7 462.6,481.8 
		452.4,481.8 452.4,489.3 464.1,489.3 464.1,493.5 	"/>
</g>
</svg>
