<?xml version="1.0" encoding="utf-8"?>
<!-- Generator: Adobe Illustrator 24.2.1, SVG Export Plug-In . SVG Version: 6.00 Build 0)  -->
<svg version="1.1" id="Layer_1" xmlns="http://www.w3.org/2000/svg" xmlns:xlink="http://www.w3.org/1999/xlink" x="0px" y="0px"
	 viewBox="0 0 800 800" style="enable-background:new 0 0 800 800;" xml:space="preserve">
<style type="text/css">
	.st0{fill-rule:evenodd;clip-rule:evenodd;fill:#00AF9B;}
	.st1{fill:#00AF9B;}
	.st2{fill:#FCBD62;}
	.st3{fill:#F3784E;}
	.st4{fill:#00ADEE;}
	.st5{fill:#008C74;}
	.st6{fill:#98DAF8;}
	.st7{fill:#006AB5;}
	.st8{fill:#080040;}
</style>
<rect x="-0.4" y="-0.5" class="st0" width="801.5" height="801.5"/>
<g>
	<path class="st1" d="M326.3,471.7c2.6,1.6,4.5,2.8,8.8,2.8c4.3,0,6.2-1.2,8.8-2.8c3.1-1.9,6.5-4.1,13.2-4.1
		c6.7,0,10.2,2.2,13.2,4.1c2.6,1.6,4.5,2.8,8.8,2.8c4.3,0,6.2-1.2,8.8-2.8c3.1-1.9,6.5-4.1,13.2-4.1c6.7,0,10.2,2.2,13.2,4.1
		c2.6,1.6,4.5,2.8,8.8,2.8c4.3,0,6.2-1.2,8.8-2.8c0.9-0.6,1.9-1.2,3-1.8l3.1-1.6l-120.2-73l-0.5,2.9c-0.8,4.9-1.3,9.8-1.3,14.6v54.9
		l1.6,0.3C321.6,468.7,324.1,470.3,326.3,471.7z"/>
	<path class="st2" d="M401.2,372.9c-20.4,0-37.8,15.9-39.6,36.2l-0.1,1.2l39.7,24.1l39.7-24.1l-0.1-1.2
		C438.9,388.8,421.6,372.9,401.2,372.9z"/>
	<path class="st3" d="M352.9,402.1c4.9-22.5,25.2-38.8,48.2-38.8c23,0,43.3,16.3,48.2,38.8l0.6,2.7l31.7-19.3l-0.6-1.5
		c-12.1-33.7-44.3-56.3-80-56.3c-35.7,0-67.9,22.6-80,56.3l-0.6,1.5l31.7,19.3L352.9,402.1z"/>
	<path class="st4" d="M454,505.9c-2.6-1.6-4.5-2.8-8.8-2.8c-4.3,0-6.2,1.2-8.8,2.8c-3.1,1.9-6.5,4.1-13.2,4.1
		c-6.7,0-10.2-2.2-13.2-4.1c-2.6-1.6-4.5-2.8-8.8-2.8c-4.3,0-6.2,1.2-8.8,2.8c-3.1,1.9-6.5,4.1-13.2,4.1c-6.7,0-10.2-2.2-13.2-4.1
		c-2.6-1.6-4.5-2.8-8.8-2.8c-4.3,0-6.2,1.2-8.8,2.8c-0.8,0.5-1.7,1.1-2.7,1.6l-3,1.6l25.7,15.6l2.6,1.5c2.4,1.5,4.3,2.5,8.3,2.5
		c4.3,0,6.2-1.2,8.8-2.8c3.1-1.9,6.5-4.1,13.2-4.1c6.7,0,10.2,2.2,13.2,4.1c2.6,1.6,4.5,2.8,8.8,2.8c4.3,0,6.2-1.2,8.8-2.8
		c0.9-0.6,2-1.2,3.3-1.9l24.5-14.9l-3.1-1.6C455.7,507,454.8,506.4,454,505.9z"/>
	<path class="st5" d="M484.9,398.1l-0.5-2.9l-73.9,44.9l55.9,33.9l0.2,0.1c0.6,0.2,1.5,0.5,2.6,0.5c2.5,0,3.9-0.9,5.4-2
		c0.4-0.3,0.9-0.6,1.5-1c2.2-1.4,4.7-3,8.5-3.7l1.6-0.3v-54.9C486.2,407.9,485.7,403,484.9,398.1z"/>
	<path class="st6" d="M480.5,478.7c-3.1,1.9-6.5,4.1-13.2,4.1c-6.7,0-10.2-2.2-13.2-4.1c-2.6-1.6-4.5-2.8-8.8-2.8
		c-4.3,0-6.2,1.2-8.8,2.8c-3.1,1.9-6.5,4.1-13.2,4.1c-6.7,0-10.2-2.2-13.2-4.1c-2.6-1.6-4.5-2.8-8.8-2.8c-4.3,0-6.2,1.2-8.8,2.8
		c-3.1,1.9-6.5,4.1-13.2,4.1c-6.7,0-10.2-2.2-13.2-4.1c-2.6-1.6-4.5-2.8-8.8-2.8c-4.3,0-6.2,1.2-8.8,2.8c-3.1,1.9-6.5,4.1-13.2,4.1
		c-6.7,0-10.2-2.2-13.2-4.1c-1-0.7-1.9-1.2-2.9-1.7l-2.8-1.3v17.4l11.6,7.1c2.2,1.1,4.4,1.6,7.3,1.6c4.3,0,6.2-1.2,8.8-2.8
		c3.1-1.9,6.5-4.1,13.2-4.1c6.7,0,10.2,2.2,13.2,4.1c2.6,1.6,4.5,2.8,8.8,2.8c4.3,0,6.2-1.2,8.8-2.8c3.1-1.9,6.5-4.1,13.2-4.1
		c6.7,0,10.2,2.2,13.2,4.1c2.6,1.6,4.5,2.8,8.8,2.8c4.3,0,6.2-1.2,8.8-2.8c3.1-1.9,6.5-4.1,13.2-4.1c6.7,0,10.2,2.2,13.2,4.1
		c2.6,1.6,4.5,2.8,8.8,2.8c4.2,0,7.4-1.6,9.7-3l1-0.6c0.8-0.5,1.5-1,2.4-1.5l5.8-3.5v-17.4l-2.8,1.3
		C482.4,477.4,481.5,478,480.5,478.7z"/>
	<path class="st7" d="M409.9,532.5c-2.6-1.6-4.5-2.8-8.8-2.8c-4.3,0-6.2,1.2-8.8,2.8c-0.9,0.5-1.8,1.1-2.8,1.7l-3.1,1.6l14.7,8.9
		l14.7-8.9l-3.1-1.6C411.7,533.6,410.8,533,409.9,532.5z"/>
	<g>
		<path class="st8" d="M257,382.6l-26.6-3.4l-0.8,6.3l26.9,3.5c1,0.1,1.7,0.4,2.1,0.9c0.3,0.4,0.4,0.9,0.3,1.6
			c-0.1,1.1-0.6,2.1-3,1.8l-26.9-3.5l-0.9,6.6l26.5,3.4c0.7,0.1,1.3,0.1,1.9,0.1c2,0,3.7-0.5,5.1-1.4c1.8-1.3,2.9-3.3,3.3-6.1
			c0.4-2.8-0.2-5-1.6-6.7C262.1,384,259.9,382.9,257,382.6z"/>
		<polygon class="st8" points="240.2,345.9 255.7,351.8 238.6,350.1 235.9,357.4 269.1,370.1 271.3,364.4 251.8,357 273.3,359.1 
			275.6,352.9 242.4,340.3 		"/>
		<polygon class="st8" points="267,310.3 261.9,306.9 252,321.8 257.1,325.2 260.2,320.5 284.7,336.9 288.4,331.4 263.9,315 		"/>
		<polygon class="st8" points="300.5,307.8 294.4,301.4 299.7,296.3 295.4,291.9 290.1,297 284.3,291 291,284.5 286.8,280.1 
			275.3,291.1 300,316.8 311.5,305.7 307.2,301.3 		"/>
		<polygon class="st8" points="321.1,263.6 317.9,258.4 302.6,267.8 305.8,273 310.6,270 326.1,295.1 331.7,291.7 316.3,266.6 		"/>
		<polygon class="st8" points="347.7,245.8 352.4,259.8 347.8,261.4 343.1,247.4 336.8,249.5 348.1,283.2 354.4,281.1 349.7,267.2 
			354.4,265.6 359.1,279.6 365.4,277.4 354.1,243.7 		"/>
		<polygon class="st8" points="385.6,267.9 384.8,259.1 392.2,258.4 391.6,252.2 384.2,252.9 383.4,244.6 392.7,243.8 392.1,237.6 
			376.2,239.2 379.6,274.6 395.5,273.1 394.9,267 		"/>
		<path class="st8" d="M422.6,239.1l-8.7-1.1l-4.5,35.3l6.6,0.8l1.8-13.9l1.2,0.2c1.1,0.1,1.7,0.5,2.1,1c0.4,0.6,0.5,1.6,0.3,3.1
			l-0.7,5.4c-0.4,2.8-0.2,3.5,0,4.4l0.6-0.1l-0.6,0.1l0.1,0.4l6.8,0.9l-0.3-0.9c-0.3-1.2-0.2-2.4,0-4l0.7-5.3c0.3-2.4,0.4-5.6-2-7.6
			c2.1-1.1,3.3-3.2,3.7-6.5l0.3-2.7C430.8,243,428.3,239.8,422.6,239.1z M419.7,244.9l2,0.3c1,0.1,1.3,0.5,1.5,0.8
			c0.3,0.5,0.4,1.3,0.2,2.4l-0.4,3.4c-0.1,1.1-0.5,1.9-1,2.3c-0.5,0.4-1.1,0.5-2,0.4l-1.5-0.2L419.7,244.9z"/>
		<polygon class="st8" points="440.3,278.9 455.2,284.4 457.4,278.6 448.6,275.4 451.6,267.1 458.6,269.7 460.7,263.9 453.7,261.4 
			456.6,253.5 465.4,256.7 467.5,251 452.5,245.5 		"/>
		<path class="st8" d="M494.7,265.7l-7.7-5l-19.4,29.9l7.7,5c1.8,1.2,3.5,1.7,5.1,1.7c2.7,0,5.1-1.6,7.1-4.7L497,278
			C500.2,273,499.4,268.8,494.7,265.7z M491.6,274.2l-9.7,15c-1.3,2-2.3,1.7-3.3,1.1l-2-1.3l12.7-19.6l2,1.3
			C492.2,271.4,492.9,272.2,491.6,274.2z"/>
		<polygon class="st8" points="535.4,302.8 531.3,297.6 503.4,319.7 513,331.8 517.9,328 512.3,321.1 		"/>
		
			<rect x="517.9" y="331.8" transform="matrix(0.8742 -0.4856 0.4856 0.8742 -95.3192 302.3151)" class="st8" width="35.6" height="6.6"/>
		<polygon class="st8" points="545.8,368.4 551.6,366.5 549.4,359.9 558.1,357 560.9,365.4 566.7,363.5 561.8,348.8 528,360 
			530.1,366.3 543.6,361.8 		"/>
		<polygon class="st8" points="570.5,380.4 535.2,384.9 537.2,400.7 543.3,399.9 542.1,390.7 550.9,389.6 551.8,396.9 557.9,396.1 
			557,388.8 565.3,387.7 566.4,397 572.5,396.2 		"/>
		<path class="st8" d="M241.2,424.8c-4.1,0-7.5,3.3-7.5,7.5c0,4.1,3.3,7.5,7.5,7.5c4.1,0,7.5-3.3,7.5-7.5
			C248.7,428.1,245.4,424.8,241.2,424.8z"/>
		<path class="st8" d="M556.5,424.8c-4.1,0-7.5,3.3-7.5,7.5c0,4.1,3.3,7.5,7.5,7.5c4.1,0,7.5-3.3,7.5-7.5
			C563.9,428.1,560.6,424.8,556.5,424.8z"/>
	</g>
	<path class="st8" d="M401.2,312.3c-55.4,0-100.4,45.1-100.4,100.4v89.1l100.4,61l100.4-61v-89.1
		C501.6,357.3,456.6,312.3,401.2,312.3z M484.2,412.7V466c-4.2,0.8-6.9,2.5-9.2,4c-2.5,1.6-3.3,2.7-5.8,2.7c-0.7,0-1.3-0.2-2-0.4
		l-52.9-32.1l68.6-41.7C483.7,403.1,484.2,407.8,484.2,412.7z M479.3,494.9c-0.9,0.5-1.7,1-2.5,1.5l-1,0.6c-2.4,1.4-5.1,2.7-8.6,2.7
		c-3.7,0-5.2-1-7.7-2.5c-3.1-2-7-4.4-14.3-4.4c-7.3,0-11.2,2.5-14.3,4.4c-2.5,1.6-4,2.5-7.7,2.5c-3.7,0-5.2-1-7.7-2.5
		c-3.1-2-7-4.4-14.3-4.4s-11.2,2.5-14.3,4.4c-2.5,1.6-4,2.5-7.7,2.5c-3.7,0-5.2-1-7.7-2.5c-3.1-2-7-4.4-14.3-4.4s-11.2,2.5-14.3,4.4
		c-2.5,1.6-4,2.5-7.7,2.5c-2.8,0-4.6-0.5-6.4-1.4l-10.5-6.4v-13.2c0.9,0.4,1.7,0.9,2.7,1.5c3.1,2,7,4.4,14.3,4.4s11.2-2.5,14.3-4.4
		c2.5-1.6,4-2.5,7.7-2.5s5.2,1,7.7,2.5c3.1,2,7,4.4,14.3,4.4c7.3,0,11.2-2.5,14.3-4.4c2.5-1.6,4-2.5,7.7-2.5c3.7,0,5.2,1,7.7,2.5
		c3.1,2,7,4.4,14.3,4.4s11.2-2.5,14.3-4.4c2.5-1.6,4-2.5,7.7-2.5c3.7,0,5.2,1,7.7,2.5c3.1,2,7,4.4,14.3,4.4c7.3,0,11.2-2.5,14.3-4.4
		c1-0.6,1.8-1.1,2.7-1.5V492L479.3,494.9z M430.9,524.2c-2.5,1.6-4,2.5-7.7,2.5c-3.7,0-5.2-1-7.7-2.5c-3.1-2-7-4.4-14.3-4.4
		s-11.2,2.5-14.3,4.4c-2.5,1.6-4,2.5-7.7,2.5c-3.7,0-5.2-1-7.7-2.5c-0.7-0.4-1.3-0.8-2.1-1.3v0.1l-22.7-13.8c1-0.6,1.9-1.1,2.8-1.7
		c2.5-1.6,4-2.5,7.7-2.5s5.2,1,7.7,2.5c3.1,2,7,4.4,14.3,4.4c7.3,0,11.2-2.5,14.3-4.4c2.5-1.6,4-2.5,7.7-2.5c3.7,0,5.2,1,7.7,2.5
		c3.1,2,7,4.4,14.3,4.4s11.2-2.5,14.3-4.4c2.5-1.6,4-2.5,7.7-2.5c3.7,0,5.2,1,7.7,2.5c0.9,0.5,1.8,1.1,2.8,1.7l-21.6,13.1
		C433,523,431.9,523.6,430.9,524.2z M363.6,409.3c1.7-19.3,18.2-34.4,37.6-34.4c19.5,0,35.9,15.1,37.6,34.4l-37.6,22.8L363.6,409.3z
		 M434.1,468.1c-1.2,0.6-2.2,1.3-3.2,1.9c-2.5,1.6-4,2.5-7.7,2.5c-3.7,0-5.2-1-7.7-2.5c-3.1-2-7-4.4-14.3-4.4S390,468,386.9,470
		c-2.5,1.6-4,2.5-7.7,2.5c-3.7,0-5.2-1-7.7-2.5c-3.1-2-7-4.4-14.3-4.4S346,468,342.8,470c-2.5,1.6-4,2.5-7.7,2.5
		c-3.7,0-5.2-1-7.7-2.5c-2.3-1.5-5-3.2-9.2-4v-53.3c0-4.9,0.4-9.6,1.3-14.3L434.1,468.1z M401.2,329.7c35.9,0,66.6,23,78.1,55
		l-28,17c-5.1-23.2-25.7-40.4-50.2-40.4c-24.5,0-45.1,17.2-50.2,40.4l-27.9-17C334.6,352.7,365.2,329.7,401.2,329.7z M390.5,535.9
		c1.1-0.6,2-1.2,2.9-1.7c2.5-1.6,4-2.5,7.7-2.5c3.7,0,5.2,1,7.7,2.5c0.9,0.6,1.9,1.2,3,1.8l-10.7,6.5L390.5,535.9z"/>
</g>
</svg>
