<?xml version="1.0" encoding="utf-8"?>
<!-- Generator: Adobe Illustrator 24.2.1, SVG Export Plug-In . SVG Version: 6.00 Build 0)  -->
<svg version="1.1" id="Layer_1" xmlns="http://www.w3.org/2000/svg" xmlns:xlink="http://www.w3.org/1999/xlink" x="0px" y="0px"
	 viewBox="0 0 800 800" style="enable-background:new 0 0 800 800;" xml:space="preserve">
<style type="text/css">
	.st0{fill-rule:evenodd;clip-rule:evenodd;fill:#F5CF49;}
	.st1{fill:#2D353D;}
</style>
<rect x="-0.4" y="-0.5" class="st0" width="801.5" height="801.5"/>
<g>
	<g>
		<polygon class="st1" points="337.2,546.5 325.7,528.7 322.7,528.7 322.7,550.2 325.7,550.2 325.7,534.3 336,550.2 338.3,550.2 
			348.2,534.6 348.2,550.2 351.2,550.2 351.2,528.7 348.6,528.7 		"/>
		<polygon class="st1" points="370.1,540.2 384.1,540.2 384.1,537.6 370.1,537.6 370.1,531.7 384.9,531.7 384.9,528.7 367.1,528.7 
			367.1,550.2 385.2,550.2 385.2,547.2 370.1,547.2 		"/>
		<path class="st1" d="M419.2,530.9c-1.1-0.7-2.6-1.5-4.1-1.8c-1.5-0.4-3-0.4-4.8-0.4h-11.1v21.1h11.1c1.1,0,2.2,0,3.3-0.4
			c1.1,0,1.8-0.4,3-0.7c0.7-0.4,1.8-0.7,2.6-1.5c0.7-0.4,1.5-1.1,1.8-2.2c0.4-0.7,1.1-1.8,1.1-3c0.4-1.1,0.4-2.2,0.4-3.7
			c0-1.8-0.4-3.7-1.1-5.2C421.5,533.2,420.4,532.1,419.2,530.9z M420,539.5c0,1.5-0.4,3-0.7,3.7c-0.4,1.1-1.1,1.8-1.8,2.2
			c-0.7,0.7-1.8,1.1-3,1.1c-1.1,0.4-2.6,0.4-3.7,0.4H403v-15.5h7.8c0.7,0,1.8,0,2.6,0c0.7,0,1.5,0.4,2.2,0.4
			c0.7,0.4,1.1,0.4,1.8,1.1c0.4,0.4,1.1,0.7,1.5,1.5s0.7,1.1,0.7,1.8C419.6,537.6,420,538.3,420,539.5z"/>
		<rect x="437.4" y="528.7" class="st1" width="3" height="21.1"/>
		<path class="st1" d="M466.9,528.7h-3l-11.1,21.1h3.3l2.6-5.2h12.9l2.6,5.2h3.3L466.9,528.7z M460.3,542l4.8-9.6l4.8,9.6H460.3z"/>
	</g>
	<g>
		<g>
			<polygon class="st1" points="521.3,428.1 469.2,250.3 414.4,250.3 388.9,337.9 363,250.3 308.3,250.3 282.8,337.9 256.9,250.3 
				203.3,250.3 255.4,428.1 310.2,428.1 335.7,340.5 361.6,428.1 415.9,428.1 441.8,340.5 467.7,428.1 			"/>
			<circle class="st1" cx="566.8" cy="398.6" r="30.7"/>
		</g>
		<g>
			<g>
				<path class="st1" d="M256.2,471c-3.7,0-6.7,0.7-9.2,2.2s-4.4,3.7-5.9,6.3c-1.5,2.6-1.8,5.9-1.8,9.6v0.7c0,5.2,1.8,9.2,5.2,12.6
					s7.8,4.8,13.3,4.8c3,0,5.5-0.7,8.1-1.8c2.6-1.1,4.4-2.6,5.9-4.4v-0.4l-5.5-5.5l-0.4,0.4c-1.8,2.2-4.4,3.3-7.8,3.3
					c-1.8,0-3.7-0.4-4.8-1.5s-1.8-2.2-2.2-4.1h21.4v-4.4c0-5.5-1.5-10-4.4-12.9C265,472.9,261,471,256.2,471z M256.2,480.3
					c1.5,0,3,0.4,3.7,1.5c0.7,0.7,1.1,2.2,1.1,3.7v0.4h-10.4C251.4,482.1,253.2,480.3,256.2,480.3z"/>
				<path class="st1" d="M292.4,498.8c-1.1,0-2.2-0.4-2.6-0.7c-0.4-0.4-0.7-1.1-0.7-2.6v-15.5h5.5v-8.1h-5.5v-8.5h-11.5v8.5h-4.4
					v8.1h4.4v17c0,3.7,1.1,6.3,2.6,8.1c1.8,1.8,4.8,2.6,8.5,2.6c2.2,0,4.1-0.4,6.3-1.1h0.4V498H295
					C294.3,498.8,293.5,498.8,292.4,498.8z"/>
				<path class="st1" d="M314.6,471c-3.7,0-6.7,0.7-9.2,2.2c-2.6,1.5-4.4,3.7-5.9,6.3c-1.5,2.6-1.8,5.9-1.8,9.6v0.7
					c0,5.2,1.8,9.2,5.2,12.6s7.8,4.8,13.3,4.8c3,0,5.5-0.7,8.1-1.8c2.6-1.1,4.4-2.6,5.9-4.4v-0.4l-5.5-6.3l-0.4,0.4
					c-1.8,2.2-4.4,3.3-7.8,3.3c-1.8,0-3.7-0.4-4.8-1.5s-1.8-2.2-2.2-4.1h21.4v-4.4c0-5.5-1.5-10-4.4-12.9
					C323.5,472.9,319.4,471,314.6,471z M314.6,480.3c1.5,0,3,0.4,3.7,1.5c0.7,0.7,1.1,2.2,1.1,3.7v0.4H309
					C309.8,482.1,311.6,480.3,314.6,480.3z"/>
				<path class="st1" d="M352.7,471c-3,0-5.5,1.5-7.4,4.4l-0.4-3.7h-10.7v35.5h11.5v-22.2c0.7-1.8,3-3,6.3-3l4.1,0.4l0.4-10.7H356
					C355.3,471.4,354.2,471,352.7,471z"/>
				<path class="st1" d="M388.6,499.1v-15.5c0-3.7-1.5-7-4.1-9.2c-2.6-2.2-6.3-3.3-10.7-3.3c-4.4,0-8.1,1.1-11.1,3.3
					s-4.4,5.2-4.4,8.5v0.4h11.5v-0.4c0-2.2,1.1-3.3,3.7-3.3s3.7,1.5,3.7,4.4v1.5h-3c-5.2,0-9.6,1.1-12.2,3c-3,1.8-4.4,4.8-4.4,8.9
					c0,3,1.1,5.5,3.7,7.8c2.2,1.8,5.2,3,8.5,3s6.3-1.1,8.1-3.3c0.4,1.1,0.7,1.8,0.7,2.6l0,0H390v-1.1l0,0
					C388.9,504.7,388.6,502.1,388.6,499.1z M371.9,499.5c-1.1,0-1.8-0.4-2.2-0.7c-0.7-0.4-0.7-1.1-0.7-2.2c0-3.3,1.8-4.8,5.2-4.8h3
					v5.2c-0.4,0.7-1.1,1.1-1.8,1.8C374.5,499.1,373.4,499.5,371.9,499.5z"/>
				<path class="st1" d="M414.4,471c-4.1,0-7.4,1.5-9.6,4.1l-0.4-3.7h-10.7v35.5h11.5v-24.8c1.1-1.5,2.6-2.2,4.4-2.2
					c1.8,0,3,0.4,3.7,1.1c0.7,0.7,1.1,1.8,1.1,3.7v22.2h11.5v-22.6c0-4.4-1.1-7.8-3-10C421.1,472.2,418.1,471,414.4,471z"/>
				<path class="st1" d="M510.2,471c-3.3,0-6.7,0.7-9.2,2.2c-2.6,1.5-4.4,3.7-5.9,6.3c-1.5,2.6-2.2,5.9-2.2,9.2v1.8
					c0.4,5.2,1.8,9.2,4.8,12.2c3,3,7,4.4,12.2,4.4s9.2-1.5,12.6-4.8c3-3.3,4.4-7.8,4.4-12.9v-0.4c0-5.5-1.5-10-4.4-13.3
					C519.8,472.9,515.4,471,510.2,471z M504.7,488.1c0.4-5.2,2.2-7.8,5.5-7.8c3.7,0,5.5,3,5.5,8.9v1.1c0,5.9-1.8,8.5-5.5,8.5
					c-1.8,0-3.3-0.7-4.1-2.2c-1.1-1.5-1.5-3.7-1.5-7V488.1z"/>
				<polygon class="st1" points="543.9,492.9 538.7,471.8 526.5,471.8 537.9,506.9 538.3,507.3 549.8,507.3 561.2,471.8 549,471.8 
									"/>
				<path class="st1" d="M594.9,488.8c0-5.5-1.5-10-4.4-12.9c-3-3-7-4.8-11.8-4.8c-3.7,0-6.7,0.7-9.2,2.2s-4.4,3.7-5.9,6.3
					c-1.5,2.6-1.8,5.9-1.8,9.6v0.7c0,5.2,1.8,9.2,5.2,12.6c3.3,3.3,7.8,4.8,13.3,4.8c3,0,5.5-0.7,8.1-1.8c2.6-1.1,4.4-2.6,5.9-4.4
					v-0.4l-5.5-6.3l-0.4,0.4c-1.8,2.2-4.4,3.3-7.8,3.3c-1.8,0-3.7-0.4-4.8-1.5c-1.1-1.1-1.8-2.2-2.2-4.1h21.4L594.9,488.8
					L594.9,488.8z M578.6,480.3c1.5,0,3,0.4,3.7,1.5c0.7,0.7,1.1,2.2,1.1,3.7v0.4h-10.4C573.8,482.1,575.7,480.3,578.6,480.3z"/>
			</g>
			<polygon class="st1" points="216.2,507.3 203.7,464 215.5,464 222.5,488.4 229.9,464 241.8,464 228.8,507.3 			"/>
			<polygon class="st1" points="481.7,507.3 474.3,482.5 467.3,507.3 454.7,507.3 447.3,482.5 440.3,507.3 428.5,507.3 441.4,464 
				453.6,464 461,488.4 468.4,464 480.6,464 493.6,507.3 			"/>
		</g>
	</g>
</g>
</svg>
