<?xml version="1.0" encoding="utf-8"?>
<!-- Generator: Adobe Illustrator 24.2.1, SVG Export Plug-In . SVG Version: 6.00 Build 0)  -->
<svg version="1.1" id="Layer_1" xmlns="http://www.w3.org/2000/svg" xmlns:xlink="http://www.w3.org/1999/xlink" x="0px" y="0px"
	 viewBox="0 0 800 800" style="enable-background:new 0 0 800 800;" xml:space="preserve">
<style type="text/css">
	.st0{fill-rule:evenodd;clip-rule:evenodd;fill:#EC0972;}
	.st1{fill:#FFFFFF;}
</style>
<rect x="-0.4" y="-0.5" class="st0" width="801.5" height="801.5"/>
<g>
	<path class="st1" d="M266,326.7c11.8-20.2,19.7-42.7,25.3-65.3c0.8-3.2,1.5-6.4,2.2-9.6c0.2-0.6,24.5-0.1,27.2-0.3
		c7.7-0.6,15.3-1.7,22.8-3.6c10.8-2.9,21.8-7.3,23.9-19.5c1.1-6.2,0-12.2-3.6-17.4c-1.8-2.5-2.8-4.5-5.6-3.3
		c-3.9,1.8-7.7,6-11.5,8.3c-13.6,8.3-29.3,12-44.7,15.1c-7.6,1.5-16.8,1.6-24,4.5c-8.5,3.5-8.1,13.2-9.6,20.8
		c-3.2,15.4-8.7,30.3-16.3,44c-6.3,11.6-14.3,22.2-23.2,31.8c-5.5,5.9-11.3,11.6-18,16.1c-3.4,2.3-8.9,6.1-13.3,4.5
		c-9-3.3-4.4-23.1-3.3-29.8c1.7-9.8,4.8-19.3,9.1-28.3c7.2-14.9,17.5-28.2,29.4-39.7c1-1,4.9-3.5,4.9-4.8c0-1.7-2.2-2.7-3.6-3.7
		c-3.5-2.4-7.3-4.5-11.4-5.7c-4.6-1.3-9.3-1.3-13.9,0.1c-11.3,3.6-19.3,14.1-24.6,24.1c-7,13-10.9,27.6-12.5,42.2
		c-2.4,22.4,0.1,70.3,32.9,67.6C231.5,372.5,253.2,348.5,266,326.7z"/>
	<path class="st1" d="M363.7,259.3c-6.4,2.4-12.1,10-16.3,15c-0.8,1-16.1-8.9-18.5-9.9c-5.2-2.3-11-4.4-16.8-4.3
		c-3.4,0-7.1,0.8-9.4,3.4c-1.5,1.7-2.1,3.9-2.4,6.1c-0.7,4.9,0.5,4.5,4.6,4.3c6.6-0.4,13.3,0.7,19.4,3.2c2.8,1.2,13.3,5.7,13.7,9.5
		c0.2,2.2-4.5,7.4-5.6,9.4c-2,3.5-3.9,7.1-5.5,10.8c-2.4,5.4-4.6,8.6-9,12.6c-3,2.7-8.7,7.8-13.3,6.2c-4.8-1.7-2.6-8.2-1.1-11.5
		c1.9-4.3,4.5-8.3,7.1-12.1c2.1-3.1,5.6-6.5,6.9-10c2.6-7-8.2-11.8-13.7-9c-8.1,4.1-13.7,15.2-17.3,23c-4.5,9.6-9.6,23.8-1.9,33.3
		c11.2,13.7,29.1-2.2,36.8-11.5c-0.3,12.6,11.4,20.9,23.7,17.1c3.4-1.1,6.5-3.2,9.2-5.5c1.9-1.6,6.7-8.5,8.7-6.8
		c0.7,0.6,1,3.4,1.5,4.3c0.8,1.6,2,3,3.3,4.2c2.9,2.6,6.6,3.7,10.4,3.2c7-0.8,13.3-5.8,18.1-10.5c3.7-3.6,3.6-3.2,5.4,1.3
		c1.1,2.9,3,5.6,5.7,7.3c6.4,4.1,13.8,1.3,19.6-2.6c1.8-1.2,3.4-2.5,5-3.9c0.9-0.8,2.9-3.6,4-3.9c2.4-0.5,2.7,4.4,3.8,6.2
		c3.3,5.5,10.5,7.3,16.6,6.9c7.3-0.5,12.9-5.3,17.6-10.5c2.5-2.8,4.7-5.7,6.8-8.7c1.7-2.4,5.3-5.8,5.2-8.9c0-1.1-1.7-4.9-3.2-4.8
		c-0.8,0-2.3,2.4-2.8,3c-3.6,4.1-7.7,9-13,10.8c-5.9,2-7.9-2.3-7-7.4c1.9-10.6,8.8-20.8,14.6-29.7c3-4.7,6.2-9.3,9.6-13.7
		c1.9-2.5,5.1-5.4,6.3-8.2c1.5-3.4-1.1-6.8-4.6-7.9c-4.3-1.4-7.1,0.5-10.3,3c-9.9,7.9-17.9,19-24.6,29.6c-3.9,6.2-7.3,12.7-9.9,19.5
		c-2.4,6.3-7.1,12.8-14.2,14.4c-14.3,3.2,1.1-21.6,3.5-25.1c1.7-2.5,5.8-6.6,6.1-9.8c0.4-4.5-5.5-8.1-9.2-8.4
		c-3.3-0.3-5.6,1.3-7.9,3.5c-0.9,0.8-2.7,3.9-4.1,3.9c-1.1,0-2.5-2.9-3.3-3.6c-6-5.2-15.5-3.1-21.9,0c-7.3,3.5-13.8,9.1-18.3,15.8
		c-3.8,5.7-5.7,11.7-10.5,16.8c-3,3.2-11.4,11.8-16.2,7.4c-4.3-3.9,0.9-13.9,2.7-17.8c1.8-3.8,3.7-7.9,6.1-11.4
		c2.5-3.6,7.8-1.6,12.1-2.4c5-1,9.9-3.6,12.1-8.4c1.1-2.6,1.2-12.5-3.5-11c-0.8,0.3-1,1.9-1.6,2.5c-1,1-6.1,3.6-6.7,1.3
		c-0.5-1.8,5.3-7.6,6.4-9.1c1.3-1.6,2.6-2.6,2.4-4.7C374.3,259.8,367.7,257.8,363.7,259.3z M385.1,305.6c3.6-4.9,10.5-12,17.2-12
		c7.8,0,2.7,11.4,0.7,14.6c-3.4,5.3-9.7,13-16.5,13.8C376.5,323.3,382.2,309.6,385.1,305.6z"/>
	<path class="st1" d="M356.7,485.6c3.3-8.2,2.8-20.6-4.5-26.7c-7.6-6.5-20-4.7-29.1-4c-9.3,0.7-18.7,1.8-27.9,3
		c-5.7,0.8-11.3,1.6-16.9,2.5c-2.1,0.3-17.4,2-17.6,3c-1.2,0.5-7.8,2.7-9,1.5c-0.1-0.1-0.2-0.4-0.2-0.6c0,0,0-0.1,0-0.1l0,0.1
		c-0.3-2.1,2.2-7.2,2.7-8.5c2.3-6.9,4.7-13.8,7.2-20.6c4.1-11.2,8-22.7,13.5-33.3c5.4-10.4,13.6-21.6,24.1-27.3
		c4.2-2.3,8.7-2.2,10.2,3.1c1.9,6.6-2.5,11.6-7.3,15.4c-3.3,2.6-6.8,5-10.5,6.8c-2.7,1.3-5.8,1.9-8.4,3.3c-2.5,1.4-4.9,5.1-5.3,8.4
		c-0.4,3.6,3.1,2,5.9,1.5c2.8-0.5,5.5-1.3,8.2-2.1c5.5-1.8,10.7-4.3,15.5-7.5c11.8-7.9,28.4-27.5,18.7-42.6c-5.8-9-18.5-7-27.2-3.9
		c-11,4-20.1,12.1-27.7,20.7c-4.1,4.6-7.8,9.5-11.4,14.5c-0.7,0.9-2,4.2-3.4,4.4c-2,0.3-6-4.6-7.2-5.9c-4.5-4.8-7.9-10.5-10.1-16.7
		c-0.3-1-0.8-5.4-2-5.9c-2-0.8-6.2,3.1-7.6,4.5c-5.6,5.6-4.8,13.4-1.1,19.9c2.6,4.6,6.5,8.4,10.8,11.5c2.3,1.7,4.9,2.9,7.3,4.3
		c3.7,2.1,1.4,3.5-0.5,6.9c-7.1,12.6-13.4,25.6-18.9,38.9c-4.4,10.5-11.5,24.9,1.1,32.8c7.1,4.4,16.1,1.3,23.7,0.2
		c11.2-1.7,22.4-3.1,33.7-4.1c11.7-1,23.7-1.8,35.5-0.8c5.8,0.5,11.5,1.5,17.1,3c3.7,1,7.3,2.3,10.9,3.7
		C354,490.7,354.6,490.8,356.7,485.6z"/>
	<path class="st1" d="M479.5,397c-4.8,6.6-8.7,14.1-11.3,21.8c-1.5,4.4-9.9,10.4-14.2,11.3c-5.4,1.2-6.8-3.4-5.8-7.7
		c1.8-8.2,7-16,11.3-23.1c4.4-7.3,9.1-14.5,13.9-21.5c0.9-1.3,2-2.7,2.8-4.1c1.3-2.6,2-6.6,0-9.1c-1.6-2.1-5-2.5-7.5-3.3
		c-15.3-4.8-31.1-8.9-47-11.6c-10.8-1.8-26.2-4.4-35.5,3.4c-4.4,3.7-7.2,9.4-5.5,15.1c0.6,1.9,2.4,6.1,4.6,6.6
		c2,0.5,5.9-1.8,7.9-2.4c14.4-4.5,29.8-6,44.8-4.1c4,0.5,8,1.3,11.9,2.3c1.1,0.3,4.6,0.6,5.3,1.5c1.4,1.6-0.7,2.9-1.8,4.3
		c-2.5,2.8-4.8,5.8-7,8.8c-1.2,1.6-5.5,10-7.3,10.2c-1.7,0.2-3.3-3.8-4.9-5c-2.6-2-6-2.7-9.3-2.7c-7.7,0-15,4-20.8,8.6
		c-10.8,8.6-13.7,21.9-24.4,30.3c-3.3,2.6-11.1,6.9-12.7,0.3c-1-4.2,2-9.3,4-12.9c2.6-4.8,5.8-9.2,8.8-13.8c1.6-2.4,3.3-4.1,2.4-7
		c-1.3-4.4-7-7.4-11.4-6.5c-3,0.7-5.1,3.4-7.2,5.4c-3.5,3.3-3.3-0.2-6.5-2.4c-11.9-8.1-29.3,4.2-36.7,13.2
		c-6.7,8.2-12.2,20.3-11.5,31.1c0.9,13.9,14,17.9,25,11.3c2.8-1.7,5.3-3.7,7.7-5.9c2.5-2.3,3.9-5.6,5.8-1.8
		c2.8,5.6,5.1,10.5,12.1,11.3c6.6,0.7,12.9-3.6,17.7-7.6c1.4-1.2,5.8-7,7.4-7.1c2.2-0.1,2.2,5.5,3.1,7.4c6,12.5,19.3,7,27.5,0.3
		c3.9-3.2,7.5-6.8,10.5-10.8c-0.2,11.4,8.9,20,20.5,17.7c6.4-1.3,11.8-6.3,16.1-11c3.1-3.3,3.3-2.8,4.6,1c1.1,3,2.9,5.8,5.6,7.7
		c4.9,3.4,11.1,2.9,16.3,0.6c3.4-1.5,6.4-3.7,9.2-6.1c1.7-1.5,6.4-7.7,8.3-6.7c1.1,0.6,2,5.8,2.8,7.1c1.2,2,2.9,3.7,4.9,5
		c3,2,6.8,3.1,10.4,3.4c7.2,0.5,12.9-2.4,19.3-4.9c3-1.2,2.7-1,3.2,2c0.4,2.1,0.6,4.1,1.5,6.1c4.6,10.9,16.9,13.1,27.3,9.8
		c10.4-3.3,18.1-12.8,17-24c-0.9-9.9-10.2-22-3.1-31.4c1.8-2.4,4-3.8,7.1-3.4c2,0.2,4.8,3,6.2,2.9c6.3-0.3,3.5-14.7,0.9-18
		c-6.6-8.4-21-5.3-27.5,1.7c-2.7,2.9-4.7,6.7-5.7,10.6c-0.6,2.7-0.3,4.6-1.6,7c-1.8,3.4-4.9,6.5-7.4,9.4c-7.2,8.5-19.2,18-31.1,12.5
		c-2-0.9-3.3-2.2-4.3-4.2c-0.8-1.7-2.2-7.7,0-8.8c0.9-0.4,5.8,2.4,7,2.6c2.8,0.5,5.8,0.3,8.7-0.2c9.6-1.7,21.7-9.6,20.5-20.9
		c-0.9-9-11.6-11.8-19.1-11.3c-12.6,0.8-23.1,10.2-29.6,20.4c-2,3.2-3.1,6.9-5,10.1c-1.5,2.3-4,4.5-6,6.4c-3.2,2.9-12.1,10-15.5,4
		c-4.2-7.4,8-21.1,11.8-26.5c1.7-2.5,4.5-5,3.7-8.1c-1.1-4.6-7.3-7.7-11.6-6.9C486.3,387.7,482.2,393.3,479.5,397z M348.2,414.6
		c-3.5,5-9.9,12.3-16.7,12.3c-9.8,0-1.5-15,1.2-18.2c3.1-3.8,12-12.9,17.8-9.9C356.3,401.7,350.5,411.4,348.2,414.6z M426.9,414.7
		c-3.5,5-9.9,12.3-16.7,12.3c-9.8,0-1.5-15,1.2-18.2c3.1-3.8,12-12.9,17.8-9.9C435,401.8,429.2,411.5,426.9,414.7z M562.8,428.4
		c1.9-2.5,3.6-5.5,5.4-8.1c0.7-1,2-4.1,3.4-3.9c1.2,0.2,2,3.7,2.3,4.4c2.3,5.6,7.1,13.1,3.2,19c-2.3,3.5-7.5,5.6-11.2,2.8
		c-1.7-1.3-2.4-3.4-2.7-5.4C562.7,434.1,561,430.7,562.8,428.4z M540.2,399.1c3.1-1.6,8.4-2.5,7.5,2.9c-0.9,5.7-16.2,13.9-19.3,9
		C531.2,406.2,535.3,401.6,540.2,399.1z"/>
	<path class="st1" d="M508.7,385.6c12.7,0,12.7-19.1,0-19.1C496,366.5,496,385.6,508.7,385.6z"/>
	<path class="st1" d="M605.9,501.9c-3.8,0-7.5,1.1-11,2.6c-3.8,1.7-7.7,3.9-4.2-1.9c3.5-5.9,7.6-11,11.4-16.5
		c2.6-3.7-0.6-9.1-5.3-9.3l0,0c-14.1-4.3-29.2-8-43.6-10.5c-10.8-1.8-26.2-4.4-35.5,3.4c-4.4,3.7-7.2,9.4-5.5,15.1
		c0.6,1.9,2.4,6.1,4.6,6.6c2,0.5,5.9-1.8,7.9-2.4c14.4-4.5,29.8-6.1,44.8-4.1c4,0.5,8,1.3,11.9,2.3c0.3,0.1,0.7,0.1,1.1,0.2
		c-6.6,7.7-12,16.7-17,25.4c-3.3,5.9-6.4,11.9-9.1,18c-2.8,6.2-5,12.2-12.7,13.9c-14.1,3.2,0.2-20.3,2.6-24c1.9-2.8,6.2-7,6.7-10.5
		c0.6-3.6-3.3-7.1-6.3-8.2c-12.2-4.5-21.4,16.9-24.9,25.2c-2.5,6-5.8,10.5-11.2,14.4c-3.9,2.8-11.8,6-12.1-1.5
		c-0.4-9.7,9.5-19.6,14.2-27.2c4.9-8-7-14.4-13.7-9.7c-11.7,8.4-13,24.1-22.6,33.8c-3,3-10.7,10.5-15.3,6.5c-3-2.7-0.9-8.5,0.1-11.6
		c3.6-10.5,10-20.2,16.2-29.4c2.8-4.1,5.7-8.2,8.7-12.2c1.3-1.8,4.6-4.5,5-6.8c0.8-4.5-5.4-7.6-9-7.2c-2.8,0.3-5.3,2.5-7.4,4.3
		c-8.8,7.4-16,17.1-22.3,26.6c-3.6,5.6-6.9,11.4-9.6,17.5c-2.1,4.8-2.8,12.3-6.4,15.8c-9.9,9.6-24.3,17.8-37.4,21.9
		c-12.1,3.8-27.2,4.7-30.8-10.2c-2.7-11.3,0.5-22.6,5.5-32.7c5.5-11.2,13.1-21.4,21.8-30.3c6.9-7.1,15.5-14.9,25.3-17.5
		c4.4-1.2,10.4-0.9,10.8,4.9c0.5,6.1-4.6,13.1-9.2,16.5c-2.5,1.8-5.2,3.1-8.2,4c-1.5,0.5-5.9,0.5-7,1.4c-2.8,2.3,2.1,9.8,4,11.9
		c9.2,10.4,24.7,4.8,32-4.7c7-9.2,10.1-23.1,5.7-34.1c-9.6-24.2-43.5-15.1-59.5-4.5c-22.6,14.9-40,40.6-45.1,67.2
		c-2.3,12.1-2.2,25.8,4.1,36.7c6.2,10.7,17.7,15.5,29.8,15.1c15.9-0.6,30.7-9.1,42.8-18.8c2.9-2.3,5.7-4.8,8.4-7.3
		c1.5-1.5,5.2-6.9,7.1-7.3c2.2-0.5,2.7,3,3.9,4.6c1.7,2.2,4,3.7,6.5,4.6c7.1,2.5,14.5,1.2,20.5-3.2c3.1-2.3,5.3-6.4,8.3-8.4
		c2.2-1.4,1.7-1,2.7,1.2c0.7,1.5,0.9,3.3,1.8,4.8c3.3,6,9.8,8.5,16.3,6.7c3.5-1,6.8-3.1,9.7-5.2c1.6-1.2,8.1-8.7,9.5-8.5
		c1.9,0.3,2.5,5.8,3.7,7.7c1.7,2.8,4.2,5,7.3,6.1c7.7,2.6,14.1-2.5,20.1-6.5c4-2.7,3.2,0.7,5.6,3.6c2.3,2.7,5.6,4.3,9.1,4.8
		c4.8,0.6,4.7-0.4,5.2-4.5c0.4-3.3,0.3-8.1,3.5-4.7c4.6,4.8,7.7,8.6,15.2,7.8c5.2-0.5,9.9-3.6,13.8-6.8c9.3-7.6,17.1-18.8,20.5-30.3
		C623.5,514.8,619.8,501.9,605.9,501.9z M599.4,528.4c-4.1,5.5-10.8,12.9-18.3,12.9c-8,0-3.9-9.6-1.4-13.4
		c3.8-5.7,13.8-17.3,22-14.9C608.8,515.1,601.8,525.2,599.4,528.4z"/>
</g>
</svg>
