<?xml version="1.0" encoding="utf-8"?>
<!-- Generator: Adobe Illustrator 24.2.1, SVG Export Plug-In . SVG Version: 6.00 Build 0)  -->
<svg version="1.1" id="Layer_1" xmlns="http://www.w3.org/2000/svg" xmlns:xlink="http://www.w3.org/1999/xlink" x="0px" y="0px"
	 viewBox="0 0 800 800" style="enable-background:new 0 0 800 800;" xml:space="preserve">
<style type="text/css">
	.st0{fill-rule:evenodd;clip-rule:evenodd;}
	.st1{fill:#FFFFFF;}
</style>
<rect x="-0.4" y="-0.5" class="st0" width="801.5" height="801.5"/>
<g>
	<g>
		<path class="st1" d="M274.9,435.4l-8.4-3.6c-4.4-1.8-5.1-2.9-5.1-8.4c0-2.9,0.4-4.7,1.5-6.2c1.1-1.1,2.2-1.5,3.6-1.5
			c1.8,0,2.9,0.4,4,1.5c1.1,1.5,1.5,3.6,1.5,6.6v2.2h14.2v-1.5c0-8-1.8-13.1-5.5-16.8c-3.3-3.3-8-4.7-13.9-4.7
			c-5.1,0-9.9,1.5-13.1,4.7c-4,3.6-6.2,9.5-6.2,16.4c0,11.3,2.9,16.1,10.9,19.3l8.8,3.6c4.7,1.8,5.8,2.9,5.8,10.6
			c0,3.6-0.4,5.8-1.5,6.9c-0.4,0.7-1.5,1.5-4.4,1.5c-2.2,0-3.6-0.7-4-1.5c-1.1-1.5-1.5-3.3-1.5-6.9v-1.5h-14.2v1.5
			c0,8.4,1.5,12.8,5.1,16.4c3.3,3.3,8.4,5.1,15,5.1c6.2,0,11.7-1.8,15-5.1c4.4-4,5.1-9.9,5.1-16.8
			C286.9,444.2,284,439.1,274.9,435.4z"/>
		<polygon class="st1" points="320.5,433.6 309.6,433.6 309.6,403.3 295.3,403.3 295.3,478.5 309.6,478.5 309.6,447.1 320.5,447.1 
			320.5,478.5 334.7,478.5 334.7,403.3 320.5,403.3 		"/>
		<path class="st1" d="M357.7,403.3l-18.2,74.8h15l2.9-14.2h14.2l2.9,14.2h15l-18.2-74.8H357.7z M360.3,450.8l4.4-21.2l4.4,21.2
			H360.3z"/>
		<path class="st1" d="M412.1,415.7c2.6,0,3.6,1.1,4,1.8c0.7,1.1,1.5,3.3,1.5,6.2v1.5h14.2v-1.5c-0.4-6.9-2.6-12.8-6.2-16.1
			s-8-5.1-13.5-5.1c-6.2,0-11.3,2.2-15,6.6c-5.1,6.2-5.5,14.2-5.5,31.4s0.4,25.5,5.5,31.4c3.6,4.4,8.8,6.6,15,6.6
			c5.5,0,9.9-1.5,13.5-5.1c4-3.6,6.2-9.5,6.6-16.4v-1.5h-14.2v1.5c0,2.9-0.7,5.1-1.5,6.2c-0.7,0.7-1.5,1.8-4,1.8
			c-1.8,0-3.3-0.7-4-2.2c-1.8-2.9-2.2-9.9-2.2-23c0-13.1,0.4-20.1,2.2-23C408.8,416.5,409.9,415.7,412.1,415.7z"/>
		<polygon class="st1" points="464.7,434.7 480,403.3 465.4,403.3 452.3,432.2 452.3,403.3 437.7,403.3 437.7,478.5 452.3,478.5 
			452.3,458.8 455.9,451.1 466.5,478.5 482.2,478.5 		"/>
		<polygon class="st1" points="242.8,348.2 245,358.8 257.7,356.3 249.3,321.9 236.2,321.9 226.3,362.1 240.2,359.5 		"/>
		<polygon class="st1" points="252.6,396 267.2,396 258.8,360.6 245.7,362.5 246.8,369 238.4,369 239.5,363.6 225.2,365.7 
			217.9,396 232.9,396 235.5,382.2 249.7,382.2 		"/>
		<path class="st1" d="M286.2,335.1h5.5c4,0,5.5,2.6,5.5,9.5c0,1.8,0,3.3-0.4,4.4l14.2-2.6c0-0.4,0-1.1,0-1.5
			c0-15.7-5.8-22.3-19.7-22.3H272v31.4l14.2-2.6V335.1z"/>
		<path class="st1" d="M313.9,396L303,363.9c4.4-2.9,6.6-6.9,7.3-11.3l-38.3,5.8V396h14.2v-29.2h3.6L299,396H313.9z"/>
		<path class="st1" d="M361,396l-10.6-32.1c6.9-4.4,8-12,8-19l-14.2,2.2c-0.4,4.7-1.8,6.9-5.5,6.9h-5.5V349l-14.2,2.2V396h14.2
			v-29.2h3.6L346,396L361,396L361,396z"/>
		<path class="st1" d="M333.3,335.1h5.5c2.9,0,4.4,1.5,5.1,4.7l13.9-2.6c-1.8-10.6-7.7-15.3-19-15.3h-19.3v22.6l14.2-2.6v-6.9H333.3
			z"/>
		<polygon class="st1" points="380.7,321.9 366.5,321.9 366.5,335.8 380.7,332.9 		"/>
		<polygon class="st1" points="380.7,341.7 366.5,343.8 366.5,396 380.7,396 		"/>
		<path class="st1" d="M409.6,321.2c-6.2,0-11.3,2.2-15,6.6c-0.7,0.7-1.5,1.8-1.8,2.9l28.8-5.5C418.3,322.7,414.3,321.2,409.6,321.2
			z"/>
		<path class="st1" d="M409.6,396.8c6.2,0,11.3-2.2,15-6.6c5.1-5.8,5.5-13.5,5.5-31.4c0-12-0.4-19.7-2.2-24.8l-14.2,2.2
			c1.8,2.9,2.2,9.9,2.2,22.6c0,13.1-0.4,19.7-2.2,22.6c-0.7,1.5-2.2,1.8-4,1.8s-3.3-0.7-4-1.8c-1.8-2.9-2.2-10.2-2.2-22.6
			c0-10.9,0.4-17.9,1.5-21.5l-15,2.2c-0.7,4.7-0.7,10.9-0.7,19c0,17.2,0.4,25.2,5.5,31C398.2,394.6,403.3,396.8,409.6,396.8z"/>
		<path class="st1" d="M452.3,366.8h3.6L465,396h15L469,363.6c6.9-4.4,8-12,8-19.3c0-8.8-1.8-14.2-5.8-17.2l-33.2,5.1v63.5h14.2
			V366.8z M452.3,335.1h5.5c4,0,5.5,2.6,5.5,9.5s-1.5,9.5-5.5,9.5h-5.5V335.1z"/>
		<polygon class="st1" points="192.8,321.9 177.8,321.9 169.4,367.9 160.6,321.9 145.3,321.9 157.4,375.2 181.1,370.9 185.1,348.6 
			189.1,369 200.8,366.8 		"/>
		<polygon class="st1" points="158.8,380.7 162.1,396 176.3,396 180.7,372.7 149.7,378.2 		"/>
		<polygon class="st1" points="189.5,371.2 194.2,396 208.5,396 215,367.2 200.8,369.4 		"/>
		<polygon class="st1" points="209.9,321.9 201.2,366.8 215.8,364.3 225.2,321.9 		"/>
	</g>
	<path class="st1" d="M626,408.4l26.6-5.5v-36.5c0-3.3-2.6-7.7-5.5-9.5L588.7,323c-2.9-1.8-8-1.8-10.9,0L519.4,357
		c-2.9,1.8-5.5,5.8-5.5,9.5V434c0,3.3,2.6,7.7,5.5,9.5l58.4,33.9c2.9,1.8,8,1.8,10.9,0l58.4-33.9c2.9-1.8,5.5-5.8,5.5-9.5v-26.6
		L626,408.4z M573.1,447.9h-16.4l-4-17.9l-10.2-2.9l9.1-1.5v-0.4l26.6-4.4L573.1,447.9z M583.3,391.7l-4.7,25.9l-27.4,5.5l-14.2-62
		h17.9l10.2,52.9l9.5-52.9h17.2l9.5,52.2l-13.5,2.6L583.3,391.7z M609.9,447.9h-16.4L588,419l13.1-2.2l16.1-2.6L609.9,447.9z
		 M601.9,412.8l9.9-51.8h17.9l-11.3,49.3L601.9,412.8z"/>
</g>
</svg>
