<?xml version="1.0" encoding="utf-8"?>
<!-- Generator: Adobe Illustrator 24.2.1, SVG Export Plug-In . SVG Version: 6.00 Build 0)  -->
<svg version="1.1" id="Layer_1" xmlns="http://www.w3.org/2000/svg" xmlns:xlink="http://www.w3.org/1999/xlink" x="0px" y="0px"
	 viewBox="0 0 800 800" style="enable-background:new 0 0 800 800;" xml:space="preserve">
<style type="text/css">
	.st0{fill-rule:evenodd;clip-rule:evenodd;fill:#FFFFFF;}
	.st1{fill:#142747;}
	.st2{fill:#0BC4B3;}
	.st3{fill-rule:evenodd;clip-rule:evenodd;fill:#0BC4B3;}
</style>
<rect x="-0.4" y="-0.5" class="st0" width="801.5" height="801.5"/>
<g>
	<polygon class="st1" points="233,418 220.9,479.1 206.8,418 188,418 174,478.8 162,418 144.8,418 163.5,499.2 183.7,499.2 
		197.4,442.1 211,499.2 231.5,499.2 250,418 	"/>
	<path class="st1" d="M279.8,485.4c-9.2,0-15.9-7.1-15.9-16.9c0-9.8,6.7-17,15.9-17c9.5,0,15.9,7,15.9,17
		C295.7,478.5,289.2,485.4,279.8,485.4z M296.2,437.6v7.5c-4.4-5-10.9-7.8-18.9-7.8c-17.7,0-30.6,12.7-30.6,31.2
		c0,18.3,12.8,32.2,30.6,32.2c8.1,0,14.5-3,18.9-8.3v6.8h16v-61.5H296.2z"/>
	<polygon class="st1" points="362.8,437.6 347.1,485.4 333.3,437.6 315.4,437.6 335.9,499.2 341.7,499.2 333.4,520.1 350.4,520.1 
		358,499.2 380.7,437.6 	"/>
	<path class="st1" d="M416.1,485.4c-9.6,0-16-6.9-16-16.9c0-10,6.4-17,16-17c9.1,0,15.8,7.2,15.8,17
		C431.9,478.3,425.3,485.4,416.1,485.4z M418.9,436.2c-8.1,0-14.7,2.9-19.4,8.2v-6.8h-16v82.4h17.3v-26c4.4,4.3,10.4,6.7,17.6,6.7
		c17.7,0,30.6-13.9,30.6-32.2C449.1,450,436.7,436.2,418.9,436.2z"/>
	<path class="st1" d="M485.6,485.3c-9.6,0-16-7-16-16.8c0-9.9,6.4-16.8,16-16.8c9.6,0,15.9,6.9,15.9,16.7
		C501.5,478.3,494.9,485.3,485.6,485.3z M485.5,500.7c19.4,0,33.3-13.9,33.3-32.2c0-18.4-13.9-32.2-33.3-32.2
		c-19.5,0-33.3,13.8-33.3,32.2C452.2,486.8,466,500.7,485.5,500.7z"/>
	<path class="st1" d="M524.7,499.2H542v-61.5h-17.3V499.2z M533.5,428.6c6.3,0,11.2-4.6,11.2-11c0-6.3-4.9-11-11.2-11
		c-6.3,0-11.3,4.7-11.3,11C522.2,424.1,527.2,428.6,533.5,428.6z"/>
	<path class="st1" d="M585.8,436.1c-7.9,0-14.4,2.9-18.6,7.2v-5.7h-16.3v61.5h17.3v-36.4c0.1-6.3,5.5-11.2,12.4-11.2
		c7,0,12.1,4.4,12.1,12.3v35.4h17.2v-38.8C609.8,446,600.5,436.1,585.8,436.1z"/>
	<path class="st1" d="M645.8,499.2h10.2v-15.1h-6.5c-6.1,0-9.5-3.5-9.5-10v-21.7h15.5v-14.7h-14.9v-16.2h-16.8v9.6
		c0,4.4-2.1,6.7-6.3,6.7h-5.3v14.7h10.5v23.8C622.7,490.1,630.5,499.2,645.8,499.2z"/>
	<path class="st2" d="M425.8,532.3c5.1,0,8.3-3.1,9.4-6.5l-4.1-1.7c-0.7,2.5-2.4,4.2-5.4,4.2c-3.5,0-5.9-2.5-5.9-6.3
		c0-3.8,2.4-6.3,5.9-6.3c2.9,0,4.7,1.6,5.4,4.2l4.1-1.7c-1.1-3.4-4.2-6.5-9.4-6.5c-5.9,0-10.3,4.4-10.3,10.4
		C415.5,527.9,420,532.3,425.8,532.3z"/>
	<path class="st2" d="M444.7,528.4c-2.4,0-4-1.7-4-4.2c0-2.5,1.6-4.2,4-4.2c2.4,0,3.9,1.7,3.9,4.1
		C448.7,526.7,447,528.4,444.7,528.4z M444.7,532.3c4.8,0,8.2-3.4,8.2-8c0-4.6-3.4-8-8.2-8c-4.8,0-8.2,3.4-8.2,8
		C436.5,528.8,439.9,532.3,444.7,532.3z"/>
	<path class="st2" d="M463.9,516.3c-2,0-3.5,0.7-4.6,1.8v-1.4h-4v15.2h4.3v-9c0-1.6,1.4-2.8,3.1-2.8c1.7,0,3,1.1,3,3v8.7h4.2v-9.6
		C469.8,518.7,467.5,516.3,463.9,516.3z"/>
	<path class="st2" d="M478.4,532.3c3.9,0,6.4-1.9,6.4-4.9c0-5.6-8.1-4.1-8.1-6.6c0-0.8,0.6-1.2,1.8-1.2c1.1,0,1.9,0.5,2.3,1.6
		l3.6-1.4c-0.6-2.1-2.8-3.3-5.9-3.3c-3.7,0-6.1,1.8-6.1,4.6c0,5.2,8.1,4,8.1,6.6c0,0.9-0.7,1.4-2,1.4c-1.7,0-2.8-0.8-3.2-2.1
		l-3.6,1.4C472.6,530.9,475,532.3,478.4,532.3z"/>
	<path class="st2" d="M497,516.7v9c0,1.6-1.2,2.8-2.9,2.8c-1.8,0-2.9-1.2-2.9-2.9v-8.9h-4.3v9.5c0,3.5,2,6.1,5.9,6.1
		c1.8,0,3.4-0.7,4.4-1.8v1.4h4v-15.2H497z"/>
	<rect x="504.3" y="510.8" class="st2" width="4.3" height="21.1"/>
	<path class="st2" d="M518.7,531.9h2.5v-3.7h-1.6c-1.5,0-2.3-0.9-2.3-2.5v-5.4h3.8v-3.6h-3.7v-4h-4.2v2.4c0,1.1-0.5,1.6-1.6,1.6
		h-1.3v3.6h2.6v5.9C513,529.6,514.9,531.9,518.7,531.9z"/>
	<path class="st2" d="M523.2,531.9h4.3v-15.2h-4.3V531.9z M525.4,514.5c1.6,0,2.8-1.1,2.8-2.7c0-1.6-1.2-2.7-2.8-2.7
		c-1.6,0-2.8,1.2-2.8,2.7C522.6,513.3,523.8,514.5,525.4,514.5z"/>
	<path class="st2" d="M539.2,516.3c-2,0-3.5,0.7-4.6,1.8v-1.4h-4v15.2h4.3v-9c0-1.6,1.4-2.8,3.1-2.8c1.7,0,3,1.1,3,3v8.7h4.2v-9.6
		C545.1,518.7,542.8,516.3,539.2,516.3z"/>
	<path class="st2" d="M555.4,528.1c-2.2,0-3.8-1.8-3.8-4c0-2.3,1.6-4,3.9-4c2.3,0,3.9,1.7,3.9,4
		C559.3,526.4,557.7,528.1,555.4,528.1z M559.6,516.7v1.7c-1.1-1.3-2.7-2-4.7-2c-4.4,0-7.5,3.4-7.5,7.6c0,4.2,3.1,7.5,7.5,7.5
		c2,0,3.6-0.7,4.7-2v0.6c0,2.3-1.6,3.9-4.4,3.9c-1.9,0-3.4-0.7-4-2.3l-3.6,1.4c1,2.7,3.4,4.5,7.6,4.5c5.3,0,8.3-3.2,8.3-7.8v-12.9
		H559.6z"/>
	<path class="st2" d="M592.2,521.1h-10.3v3.2h6.1c-0.8,2.8-2.8,4-5.6,4c-4,0-6.4-2.6-6.4-6.4c0-3.8,2.4-6.4,5.9-6.4
		c2.7,0,4.6,1.4,5.3,3.7l4.1-1.7c-1.2-3.2-4.4-6.1-9.3-6.1c-5.9,0-10.4,4.4-10.4,10.4c0,6,4.4,10.4,10.4,10.4
		C587.8,532.3,592.2,528.2,592.2,521.1z"/>
	<path class="st2" d="M598.6,518.1v-1.5h-4v15.2h4.3v-8.4c0-2,1.5-3.2,4.1-3.2v-4C601.2,516.3,599.7,517,598.6,518.1z"/>
	<path class="st2" d="M612,528.4c-2.4,0-4-1.7-4-4.2c0-2.5,1.6-4.2,4-4.2s3.9,1.7,3.9,4.1C615.9,526.7,614.3,528.4,612,528.4z
		 M611.9,532.3c4.8,0,8.2-3.4,8.2-8c0-4.6-3.4-8-8.2-8c-4.8,0-8.2,3.4-8.2,8C603.7,528.8,607.1,532.3,611.9,532.3z"/>
	<path class="st2" d="M632.4,516.7v9c0,1.6-1.2,2.8-2.9,2.8c-1.8,0-2.9-1.2-2.9-2.9v-8.9h-4.3v9.5c0,3.5,2,6.1,5.9,6.1
		c1.8,0,3.4-0.7,4.4-1.8v1.4h4v-15.2H632.4z"/>
	<path class="st2" d="M647.8,528.5c-2.4,0-4-1.7-4-4.2s1.6-4.2,4-4.2c2.3,0,3.9,1.8,3.9,4.2C651.7,526.7,650.1,528.5,647.8,528.5z
		 M648.5,516.3c-2,0-3.6,0.7-4.8,2v-1.7h-4V537h4.3v-6.4c1.1,1.1,2.6,1.6,4.4,1.6c4.4,0,7.6-3.4,7.6-8
		C655.9,519.7,652.9,516.3,648.5,516.3z"/>
	<path class="st3" d="M388.2,240.3l12.2,10.6h32.9c19.7,0,35.8,16,35.8,35.8v31.2l-19.2-5.4c-3.8-8.7-9.5-16.7-16.5-23.3l3.5-15.4
		l-13.6,7.4c-5.5-3.7-11.3-6.6-17.4-8.6L388.2,240.3z M387.6,250.9l-1,18.6c-12.2,0.2-22.3,4.5-29.4,11.6l-17.3-7.4l11.2,15.4
		c-3.7,6.6-5.5,14.6-5,23.3l-30.1,9.8l10-9.2v-26.4c0-19.7,16-35.8,35.8-35.8H387.6z M484.8,322.3l-15.8,9.6v26.3
		c0,19.7-16,35.8-35.8,35.8H422l-0.7,12.8l-12.6-12.8h-47c-19.7,0-35.8-16-35.8-35.8v-33.1l25,7c3.8,8.7,9.5,16.7,16.5,23.3
		l-3.5,15.4l13.6-7.4c8,5.3,16.8,9.1,26,10.7l17.9,32.6l1.7-32.6c8.3-1.6,15.3-5.4,20.6-10.7l17.3,7.4l-11.2-15.4
		c3.7-6.6,5.5-14.6,5-23.3L484.8,322.3z"/>
	<path class="st3" d="M386,280.6c-17,4.5-26.3,20.8-21.5,40.3c4.2,17,18.1,31.6,34.3,38l13.4-12.8l19.8,12.8c13-6.4,19.6-21,15.4-38
		c-4.4-17.7-19.3-32.9-36.5-38.8l22.5,41.2l-27.5-16.4l-22.5,19.9L386,280.6z"/>
</g>
</svg>
