<?xml version="1.0" encoding="utf-8"?>
<!-- Generator: Adobe Illustrator 24.3.0, SVG Export Plug-In . SVG Version: 6.00 Build 0)  -->
<svg version="1.1" id="Layer_1" xmlns="http://www.w3.org/2000/svg" xmlns:xlink="http://www.w3.org/1999/xlink" x="0px" y="0px"
	 viewBox="0 0 100.7 113.6" style="enable-background:new 0 0 100.7 113.6;" xml:space="preserve">
<style type="text/css">
	.st0{fill:#A4AFB8;}
	.st1{enable-background:new    ;}
</style>
<g>
	<g>
		<path class="st0" d="M71.9,8.7h-63v96.2h82.9V28.6L71.9,8.7z M85.2,98.3H15.6v-83h53.6v15.9h16V98.3z"/>
		<g class="st1">
			<path class="st0" d="M26,65.1c-0.5-0.5-0.7-1.1-0.7-1.8c0-0.7,0.2-1.3,0.7-1.7c0.5-0.4,1-0.7,1.7-0.7c0.7,0,1.3,0.2,1.7,0.7
				c0.5,0.4,0.7,1,0.7,1.7c0,0.7-0.2,1.3-0.7,1.8s-1,0.7-1.7,0.7C27,65.8,26.4,65.5,26,65.1z"/>
			<path class="st0" d="M34.1,65.3c-1.1-0.3-1.9-0.6-2.6-1l1.3-2.8c0.6,0.4,1.3,0.7,2.2,0.9c0.9,0.2,1.7,0.4,2.5,0.4
				c1.7,0,2.5-0.4,2.5-1.2c0-0.4-0.2-0.7-0.7-0.8s-1.1-0.3-2.1-0.4c-1.1-0.2-2-0.4-2.7-0.6c-0.7-0.2-1.3-0.6-1.9-1.2
				s-0.8-1.3-0.8-2.4c0-0.9,0.2-1.6,0.7-2.3c0.5-0.7,1.2-1.2,2.2-1.5s2.1-0.6,3.4-0.6c1,0,1.9,0.1,2.9,0.3c0.9,0.2,1.7,0.5,2.4,0.9
				L42,55.8c-1.2-0.7-2.5-1-3.9-1c-0.8,0-1.5,0.1-1.9,0.4c-0.4,0.2-0.6,0.5-0.6,0.9c0,0.4,0.2,0.7,0.7,0.9c0.5,0.2,1.2,0.3,2.2,0.5
				c1.1,0.2,2,0.4,2.7,0.6c0.7,0.2,1.3,0.6,1.8,1.1c0.5,0.6,0.8,1.3,0.8,2.3c0,0.8-0.3,1.6-0.8,2.2c-0.5,0.7-1.2,1.2-2.2,1.5
				c-1,0.4-2.1,0.5-3.4,0.5C36.2,65.8,35.1,65.6,34.1,65.3z"/>
			<path class="st0" d="M59.4,52l-5.7,13.5h-4.1L43.9,52H48l3.7,9.2l3.9-9.2H59.4z"/>
			<path class="st0" d="M74.6,52v11.3c0,2.5-0.6,4.3-1.9,5.5c-1.3,1.2-3.2,1.8-5.7,1.8c-1.3,0-2.6-0.2-3.7-0.5s-2.1-0.8-2.9-1.4
				l1.6-2.8c0.6,0.5,1.3,0.8,2.2,1.1c0.9,0.3,1.7,0.4,2.6,0.4c1.4,0,2.4-0.3,3-0.9c0.6-0.6,1-1.5,1-2.8v-0.6c-1,1.1-2.4,1.7-4.3,1.7
				c-1.2,0-2.4-0.3-3.4-0.8s-1.8-1.3-2.5-2.3c-0.6-1-0.9-2.1-0.9-3.4s0.3-2.4,0.9-3.4c0.6-1,1.4-1.8,2.5-2.3c1-0.5,2.2-0.8,3.4-0.8
				c2,0,3.5,0.6,4.5,1.9V52H74.6z M69.7,60.8c0.7-0.6,1-1.4,1-2.4c0-1-0.3-1.8-1-2.4C69,55.3,68.2,55,67.1,55s-1.9,0.3-2.6,0.9
				c-0.7,0.6-1,1.4-1,2.4c0,1,0.3,1.8,1,2.4s1.5,0.9,2.6,0.9S69,61.4,69.7,60.8z"/>
		</g>
	</g>
</g>
</svg>
