<?xml version="1.0" encoding="utf-8"?>
<!-- Generator: Adobe Illustrator 24.3.0, SVG Export Plug-In . SVG Version: 6.00 Build 0)  -->
<svg version="1.1" id="Layer_1" xmlns="http://www.w3.org/2000/svg" xmlns:xlink="http://www.w3.org/1999/xlink" x="0px" y="0px"
	 viewBox="0 0 100.7 113.6" style="enable-background:new 0 0 100.7 113.6;" xml:space="preserve">
<style type="text/css">
	.st0{fill:#A4AFB8;}
	.st1{enable-background:new    ;}
</style>
<g>
	<g>
		<path class="st0" d="M71.9,8.7h-63v96.2h82.9V28.6L71.9,8.7z M85.2,98.3H15.6v-83h53.6v15.9h16V98.3z"/>
		<g class="st1">
			<path class="st0" d="M34.8,67.4c-0.5-0.5-0.8-1.2-0.8-2c0-0.8,0.3-1.5,0.8-2c0.5-0.5,1.2-0.8,2-0.8c0.8,0,1.5,0.3,2,0.8
				c0.5,0.5,0.8,1.2,0.8,2c0,0.8-0.3,1.5-0.8,2c-0.5,0.5-1.2,0.8-2,0.8C36,68.2,35.3,68,34.8,67.4z"/>
			<path class="st0" d="M54.8,53.9c1.3,1.2,1.9,2.9,1.9,5.2V68h-4.2v-1.9c-0.9,1.5-2.4,2.2-4.8,2.2c-1.2,0-2.2-0.2-3.1-0.6
				s-1.6-1-2-1.7s-0.7-1.5-0.7-2.4c0-1.4,0.5-2.6,1.6-3.4c1.1-0.8,2.8-1.2,5.1-1.2h3.6c0-1-0.3-1.7-0.9-2.3
				c-0.6-0.5-1.5-0.8-2.7-0.8c-0.8,0-1.6,0.1-2.5,0.4c-0.8,0.3-1.5,0.6-2,1.1L42.5,54c0.9-0.6,1.9-1.1,3.1-1.4
				c1.2-0.3,2.4-0.5,3.7-0.5C51.6,52.2,53.5,52.7,54.8,53.9z M50.9,64.6c0.6-0.4,1-0.9,1.3-1.6v-1.6h-3.1c-1.9,0-2.8,0.6-2.8,1.8
				c0,0.6,0.2,1,0.7,1.4c0.5,0.3,1.1,0.5,1.9,0.5C49.7,65.2,50.3,65,50.9,64.6z"/>
			<path class="st0" d="M61.1,49.5c-0.5-0.5-0.8-1.1-0.8-1.8c0-0.7,0.3-1.3,0.8-1.8c0.5-0.5,1.2-0.7,2-0.7s1.5,0.2,2,0.7
				c0.5,0.5,0.8,1,0.8,1.7c0,0.8-0.3,1.4-0.8,1.9c-0.5,0.5-1.2,0.7-2,0.7S61.6,50,61.1,49.5z M60.8,52.4h4.5V68h-4.5V52.4z"/>
		</g>
	</g>
</g>
</svg>
