<?xml version="1.0" encoding="utf-8"?>
<!-- Generator: Adobe Illustrator 24.3.0, SVG Export Plug-In . SVG Version: 6.00 Build 0)  -->
<svg version="1.1" id="Layer_1" xmlns="http://www.w3.org/2000/svg" xmlns:xlink="http://www.w3.org/1999/xlink" x="0px" y="0px"
	 viewBox="0 0 100.7 113.6" style="enable-background:new 0 0 100.7 113.6;" xml:space="preserve">
<style type="text/css">
	.st0{fill:#A4AFB8;}
	.st1{enable-background:new    ;}
</style>
<g>
	<g>
		<path class="st0" d="M71.9,8.7h-63v96.2h82.9V28.6L71.9,8.7z M85.2,98.3H15.6v-83h53.6v15.9h16V98.3z"/>
		<g class="st1">
			<path class="st0" d="M19.8,64.4c-0.4-0.4-0.6-1-0.6-1.6c0-0.7,0.2-1.2,0.6-1.6s1-0.6,1.6-0.6c0.6,0,1.2,0.2,1.6,0.6
				c0.4,0.4,0.6,0.9,0.6,1.6c0,0.6-0.2,1.2-0.6,1.6c-0.4,0.4-1,0.6-1.6,0.6C20.7,65.1,20.2,64.9,19.8,64.4z"/>
			<path class="st0" d="M38.4,47.9v17H35v-1.4c-0.9,1.1-2.2,1.6-3.8,1.6c-1.2,0-2.2-0.3-3.1-0.8s-1.7-1.3-2.2-2.2
				c-0.5-1-0.8-2.1-0.8-3.3c0-1.3,0.3-2.4,0.8-3.3c0.5-1,1.3-1.7,2.2-2.2s2-0.8,3.1-0.8c1.6,0,2.8,0.5,3.7,1.5v-6H38.4z M34,61.2
				c0.6-0.6,0.9-1.4,0.9-2.5c0-1-0.3-1.9-0.9-2.5c-0.6-0.6-1.3-0.9-2.2-0.9c-0.9,0-1.7,0.3-2.3,0.9c-0.6,0.6-0.9,1.4-0.9,2.5
				c0,1,0.3,1.9,0.9,2.5s1.4,0.9,2.3,0.9C32.6,62.1,33.4,61.8,34,61.2z"/>
			<path class="st0" d="M44,64.3c-1-0.5-1.8-1.3-2.4-2.3c-0.6-1-0.9-2.1-0.9-3.3c0-1.2,0.3-2.3,0.9-3.3c0.6-1,1.4-1.7,2.4-2.3
				c1-0.5,2.2-0.8,3.5-0.8c1.3,0,2.5,0.3,3.5,0.8c1,0.5,1.8,1.3,2.4,2.3c0.6,1,0.9,2.1,0.9,3.3c0,1.2-0.3,2.3-0.9,3.3
				c-0.6,1-1.4,1.7-2.4,2.3c-1,0.5-2.2,0.8-3.5,0.8C46.2,65.1,45.1,64.8,44,64.3z M49.8,61.2c0.6-0.6,0.9-1.4,0.9-2.5
				c0-1-0.3-1.9-0.9-2.5c-0.6-0.6-1.3-0.9-2.3-0.9s-1.7,0.3-2.3,0.9c-0.6,0.6-0.9,1.4-0.9,2.5c0,1,0.3,1.9,0.9,2.5
				c0.6,0.6,1.4,0.9,2.3,0.9S49.2,61.8,49.8,61.2z"/>
			<path class="st0" d="M59.1,64.3c-1-0.5-1.9-1.3-2.4-2.3c-0.6-1-0.9-2.1-0.9-3.3c0-1.2,0.3-2.3,0.9-3.3c0.6-1,1.4-1.7,2.4-2.3
				c1-0.5,2.2-0.8,3.5-0.8c1.3,0,2.4,0.3,3.4,0.8c1,0.5,1.7,1.3,2.1,2.3L65.4,57c-0.6-1.1-1.6-1.7-2.8-1.7c-0.9,0-1.7,0.3-2.3,0.9
				s-0.9,1.4-0.9,2.5s0.3,1.9,0.9,2.5s1.4,0.9,2.3,0.9c1.2,0,2.1-0.6,2.8-1.7l2.8,1.5c-0.4,1-1.1,1.7-2.1,2.3
				c-1,0.5-2.1,0.8-3.4,0.8C61.3,65.1,60.1,64.8,59.1,64.3z"/>
			<path class="st0" d="M77.7,64.9L75,61.1l-2.8,3.8h-3.9l4.7-6.2l-4.6-6.1h4l2.6,3.6l2.7-3.6h3.8l-4.6,6l4.8,6.3H77.7z"/>
		</g>
	</g>
</g>
</svg>
