<?xml version="1.0" encoding="utf-8"?>
<!-- Generator: Adobe Illustrator 24.3.0, SVG Export Plug-In . SVG Version: 6.00 Build 0)  -->
<svg version="1.1" id="Layer_1" xmlns="http://www.w3.org/2000/svg" xmlns:xlink="http://www.w3.org/1999/xlink" x="0px" y="0px"
	 viewBox="0 0 100.7 113.6" style="enable-background:new 0 0 100.7 113.6;" xml:space="preserve">
<style type="text/css">
	.st0{fill:#A4AFB8;}
	.st1{enable-background:new    ;}
</style>
<g>
	<g>
		<path class="st0" d="M71.9,8.7h-63v96.2h82.9V28.6L71.9,8.7z M85.2,98.3H15.6v-83h53.6v15.9h16V98.3z"/>
		<g class="st1">
			<path class="st0" d="M25.5,65.1c-0.5-0.5-0.7-1.1-0.7-1.8c0-0.7,0.2-1.3,0.7-1.7c0.5-0.4,1-0.7,1.7-0.7c0.7,0,1.3,0.2,1.7,0.7
				c0.5,0.4,0.7,1,0.7,1.7c0,0.7-0.2,1.3-0.7,1.8s-1,0.7-1.7,0.7C26.6,65.8,26,65.5,25.5,65.1z"/>
			<path class="st0" d="M45.4,59.9H35.1c0.2,0.8,0.6,1.5,1.3,2c0.7,0.5,1.5,0.7,2.6,0.7c0.7,0,1.3-0.1,1.9-0.3
				c0.5-0.2,1.1-0.5,1.5-1l2.1,2.3c-1.3,1.5-3.1,2.2-5.6,2.2c-1.5,0-2.9-0.3-4.1-0.9c-1.2-0.6-2.1-1.4-2.7-2.5c-0.6-1.1-1-2.3-1-3.6
				c0-1.3,0.3-2.5,0.9-3.6c0.6-1.1,1.5-1.9,2.6-2.5c1.1-0.6,2.3-0.9,3.7-0.9c1.3,0,2.5,0.3,3.6,0.9c1.1,0.6,1.9,1.4,2.5,2.5
				c0.6,1.1,0.9,2.3,0.9,3.7C45.5,58.9,45.4,59.2,45.4,59.9z M36.2,55.5c-0.6,0.5-1,1.2-1.1,2.1h6.7c-0.1-0.9-0.5-1.5-1.1-2.1
				s-1.3-0.8-2.2-0.8C37.5,54.8,36.8,55,36.2,55.5z"/>
			<path class="st0" d="M59.5,52.7c1,0.6,1.8,1.4,2.4,2.4c0.6,1,0.9,2.3,0.9,3.7s-0.3,2.6-0.9,3.7c-0.6,1-1.4,1.9-2.4,2.4
				c-1,0.6-2.2,0.9-3.4,0.9c-1.7,0-3.1-0.5-4.1-1.6v6.3h-3.9V52h3.7v1.6c1-1.2,2.4-1.8,4.3-1.8C57.3,51.8,58.5,52.1,59.5,52.7z
				 M57.9,61.5c0.6-0.7,1-1.6,1-2.7s-0.3-2.1-1-2.7c-0.6-0.7-1.5-1-2.5-1c-1,0-1.8,0.3-2.5,1c-0.6,0.7-1,1.6-1,2.7s0.3,2.1,1,2.7
				c0.6,0.7,1.5,1,2.5,1C56.4,62.5,57.2,62.2,57.9,61.5z"/>
			<path class="st0" d="M66.7,65.3c-1.1-0.3-1.9-0.6-2.6-1l1.3-2.8c0.6,0.4,1.3,0.7,2.2,0.9c0.9,0.2,1.7,0.4,2.5,0.4
				c1.7,0,2.5-0.4,2.5-1.2c0-0.4-0.2-0.7-0.7-0.8s-1.1-0.3-2.1-0.4c-1.1-0.2-2-0.4-2.7-0.6c-0.7-0.2-1.3-0.6-1.9-1.2
				s-0.8-1.3-0.8-2.4c0-0.9,0.2-1.6,0.7-2.3c0.5-0.7,1.2-1.2,2.2-1.5c0.9-0.4,2.1-0.6,3.4-0.6c1,0,1.9,0.1,2.9,0.3
				c0.9,0.2,1.7,0.5,2.4,0.9l-1.3,2.8c-1.2-0.7-2.5-1-3.9-1c-0.8,0-1.5,0.1-1.9,0.4c-0.4,0.2-0.6,0.5-0.6,0.9c0,0.4,0.2,0.7,0.7,0.9
				c0.5,0.2,1.2,0.3,2.2,0.5c1.1,0.2,2,0.4,2.7,0.6c0.7,0.2,1.3,0.6,1.8,1.1s0.8,1.3,0.8,2.3c0,0.8-0.3,1.6-0.8,2.2
				s-1.2,1.2-2.2,1.5c-1,0.4-2.1,0.5-3.4,0.5C68.9,65.8,67.8,65.6,66.7,65.3z"/>
		</g>
	</g>
</g>
</svg>
