<?xml version="1.0" encoding="utf-8"?>
<!-- Generator: Adobe Illustrator 24.3.0, SVG Export Plug-In . SVG Version: 6.00 Build 0)  -->
<svg version="1.1" id="Layer_1" xmlns="http://www.w3.org/2000/svg" xmlns:xlink="http://www.w3.org/1999/xlink" x="0px" y="0px"
	 viewBox="0 0 100.7 113.6" style="enable-background:new 0 0 100.7 113.6;" xml:space="preserve">
<style type="text/css">
	.st0{fill:#A4AFB8;}
	.st1{enable-background:new    ;}
</style>
<g>
	<g>
		<path class="st0" d="M71.9,8.7h-63v96.2h82.9V28.6L71.9,8.7z M85.2,98.3H15.6v-83h53.6v15.9h16V98.3z"/>
		<g class="st1">
			<path class="st0" d="M25.2,65.1c-0.5-0.5-0.7-1.1-0.7-1.8c0-0.7,0.2-1.3,0.7-1.7c0.5-0.4,1-0.7,1.7-0.7c0.7,0,1.3,0.2,1.7,0.7
				c0.5,0.4,0.7,1,0.7,1.7c0,0.7-0.2,1.3-0.7,1.8s-1,0.7-1.7,0.7C26.2,65.8,25.7,65.5,25.2,65.1z"/>
			<path class="st0" d="M43.5,52.7c1,0.6,1.8,1.4,2.4,2.4c0.6,1,0.9,2.3,0.9,3.7s-0.3,2.6-0.9,3.7c-0.6,1-1.4,1.9-2.4,2.4
				c-1,0.6-2.2,0.9-3.4,0.9c-1.7,0-3.1-0.5-4.1-1.6v6.3H32V52h3.7v1.6c1-1.2,2.4-1.8,4.3-1.8C41.3,51.8,42.4,52.1,43.5,52.7z
				 M41.8,61.5c0.6-0.7,1-1.6,1-2.7s-0.3-2.1-1-2.7c-0.6-0.7-1.5-1-2.5-1s-1.8,0.3-2.5,1c-0.6,0.7-1,1.6-1,2.7s0.3,2.1,1,2.7
				c0.6,0.7,1.5,1,2.5,1S41.2,62.2,41.8,61.5z"/>
			<path class="st0" d="M63.2,46.9v18.7h-3.7V64c-1,1.2-2.4,1.8-4.2,1.8c-1.3,0-2.4-0.3-3.5-0.9c-1-0.6-1.8-1.4-2.4-2.4
				c-0.6-1.1-0.9-2.3-0.9-3.7s0.3-2.6,0.9-3.7c0.6-1.1,1.4-1.9,2.4-2.4c1-0.6,2.2-0.9,3.5-0.9c1.7,0,3.1,0.5,4.1,1.6v-6.6H63.2z
				 M58.4,61.5c0.7-0.7,1-1.6,1-2.7s-0.3-2.1-1-2.7c-0.7-0.7-1.5-1-2.5-1c-1,0-1.8,0.3-2.5,1c-0.7,0.7-1,1.6-1,2.7s0.3,2.1,1,2.7
				c0.7,0.7,1.5,1,2.5,1C56.9,62.5,57.7,62.2,58.4,61.5z"/>
			<path class="st0" d="M71.1,52.3h3.5v3h-3.4v10.2h-3.9V55.3h-2.1v-3h2.1v-0.6c0-1.5,0.5-2.8,1.4-3.7c0.9-0.9,2.2-1.4,3.9-1.4
				c0.6,0,1.1,0.1,1.7,0.2s1,0.3,1.3,0.5l-1,2.8c-0.5-0.3-1-0.5-1.6-0.5c-1.2,0-1.8,0.7-1.8,2V52.3z"/>
		</g>
	</g>
</g>
</svg>
