<?xml version="1.0" encoding="utf-8"?>
<!-- Generator: Adobe Illustrator 24.3.0, SVG Export Plug-In . SVG Version: 6.00 Build 0)  -->
<svg version="1.1" id="Layer_1" xmlns="http://www.w3.org/2000/svg" xmlns:xlink="http://www.w3.org/1999/xlink" x="0px" y="0px"
	 viewBox="0 0 100.7 113.6" style="enable-background:new 0 0 100.7 113.6;" xml:space="preserve">
<style type="text/css">
	.st0{fill:#A4AFB8;}
	.st1{enable-background:new    ;}
</style>
<g>
	<g>
		<path class="st0" d="M71.9,8.7h-63v96.2h82.9V28.6L71.9,8.7z M85.2,98.3H15.6v-83h53.6v15.9h16V98.3z"/>
		<g class="st1">
			<path class="st0" d="M18.9,65.1c-0.5-0.5-0.7-1.1-0.7-1.8c0-0.7,0.2-1.3,0.7-1.7c0.5-0.4,1-0.7,1.7-0.7c0.7,0,1.3,0.2,1.7,0.7
				c0.5,0.4,0.7,1,0.7,1.7c0,0.7-0.2,1.3-0.7,1.8s-1,0.7-1.7,0.7C20,65.8,19.4,65.5,18.9,65.1z"/>
			<path class="st0" d="M37.2,52.7c1,0.6,1.8,1.4,2.4,2.4c0.6,1,0.9,2.3,0.9,3.7s-0.3,2.6-0.9,3.7c-0.6,1-1.4,1.9-2.4,2.4
				c-1,0.6-2.2,0.9-3.4,0.9c-1.7,0-3.1-0.5-4.1-1.6v6.3h-3.9V52h3.7v1.6c1-1.2,2.4-1.8,4.3-1.8C35,51.8,36.2,52.1,37.2,52.7z
				 M35.6,61.5c0.6-0.7,1-1.6,1-2.7s-0.3-2.1-1-2.7c-0.6-0.7-1.5-1-2.5-1s-1.8,0.3-2.5,1c-0.6,0.7-1,1.6-1,2.7s0.3,2.1,1,2.7
				c0.6,0.7,1.5,1,2.5,1S34.9,62.2,35.6,61.5z"/>
			<path class="st0" d="M54.6,52.7c1,0.6,1.8,1.4,2.4,2.4c0.6,1,0.9,2.3,0.9,3.7s-0.3,2.6-0.9,3.7c-0.6,1-1.4,1.9-2.4,2.4
				c-1,0.6-2.2,0.9-3.4,0.9c-1.7,0-3.1-0.5-4.1-1.6v6.3h-3.9V52h3.7v1.6c1-1.2,2.4-1.8,4.3-1.8C52.4,51.8,53.5,52.1,54.6,52.7z
				 M52.9,61.5c0.6-0.7,1-1.6,1-2.7s-0.3-2.1-1-2.7c-0.6-0.7-1.5-1-2.5-1s-1.8,0.3-2.5,1c-0.6,0.7-1,1.6-1,2.7s0.3,2.1,1,2.7
				c0.6,0.7,1.5,1,2.5,1S52.3,62.2,52.9,61.5z"/>
			<path class="st0" d="M69.2,64.9c-0.4,0.3-0.9,0.5-1.4,0.6c-0.6,0.1-1.2,0.2-1.8,0.2c-1.6,0-2.9-0.4-3.7-1.2
				c-0.9-0.8-1.3-2-1.3-3.6v-5.6h-2.1v-3H61V49h3.9v3.3h3.4v3h-3.4v5.5c0,0.6,0.1,1,0.4,1.3c0.3,0.3,0.7,0.5,1.2,0.5
				c0.6,0,1.1-0.2,1.6-0.5L69.2,64.9z"/>
			<path class="st0" d="M80,65.6l-3-4.2L74,65.6h-4.3l5.2-6.8l-5-6.7h4.4l2.9,4l2.9-4h4.2l-5,6.6l5.2,6.9H80z"/>
		</g>
	</g>
</g>
</svg>
