<?xml version="1.0" encoding="utf-8"?>
<!-- Generator: Adobe Illustrator 24.3.0, SVG Export Plug-In . SVG Version: 6.00 Build 0)  -->
<svg version="1.1" id="Layer_1" xmlns="http://www.w3.org/2000/svg" xmlns:xlink="http://www.w3.org/1999/xlink" x="0px" y="0px"
	 viewBox="0 0 100.7 113.6" style="enable-background:new 0 0 100.7 113.6;" xml:space="preserve">
<style type="text/css">
	.st0{fill:#A4AFB8;}
	.st1{enable-background:new    ;}
</style>
<g>
	<g>
		<path class="st0" d="M71.9,8.7h-63v96.2h82.9V28.6L71.9,8.7z M85.2,98.3H15.6v-83h53.6v15.9h16V98.3z"/>
		<g class="st1">
			<path class="st0" d="M28.8,65.1c-0.5-0.5-0.7-1.1-0.7-1.8c0-0.7,0.2-1.3,0.7-1.7c0.5-0.4,1-0.7,1.7-0.7c0.7,0,1.3,0.2,1.7,0.7
				c0.5,0.4,0.7,1,0.7,1.7c0,0.7-0.2,1.3-0.7,1.8s-1,0.7-1.7,0.7C29.9,65.8,29.3,65.5,28.8,65.1z"/>
			<path class="st0" d="M44.3,64.9c-0.4,0.3-0.9,0.5-1.4,0.6s-1.2,0.2-1.8,0.2c-1.6,0-2.9-0.4-3.7-1.2c-0.9-0.8-1.3-2-1.3-3.6v-5.6
				H34v-3h2.1V49H40v3.3h3.4v3H40v5.5c0,0.6,0.1,1,0.4,1.3s0.7,0.5,1.2,0.5c0.6,0,1.1-0.2,1.6-0.5L44.3,64.9z"/>
			<path class="st0" d="M46.7,49.5c-0.5-0.4-0.7-0.9-0.7-1.6c0-0.6,0.2-1.1,0.7-1.6c0.5-0.4,1-0.6,1.8-0.6c0.7,0,1.3,0.2,1.8,0.6
				c0.5,0.4,0.7,0.9,0.7,1.5c0,0.7-0.2,1.2-0.7,1.6s-1,0.6-1.8,0.6C47.8,50.1,47.2,49.9,46.7,49.5z M46.5,52h3.9v13.5h-3.9V52z"/>
			<path class="st0" d="M58.4,52.3h3.5v3h-3.4v10.2h-3.9V55.3h-2.1v-3h2.1v-0.6c0-1.5,0.5-2.8,1.4-3.7s2.2-1.4,3.9-1.4
				c0.6,0,1.1,0.1,1.7,0.2s1,0.3,1.3,0.5l-1,2.8c-0.5-0.3-1-0.5-1.6-0.5c-1.2,0-1.8,0.7-1.8,2V52.3z"/>
			<path class="st0" d="M68.1,52.3h3.5v3h-3.4v10.2h-3.9V55.3h-2.1v-3h2.1v-0.6c0-1.5,0.5-2.8,1.4-3.7s2.2-1.4,3.9-1.4
				c0.6,0,1.1,0.1,1.7,0.2s1,0.3,1.3,0.5l-1,2.8c-0.5-0.3-1-0.5-1.6-0.5c-1.2,0-1.8,0.7-1.8,2V52.3z"/>
		</g>
	</g>
</g>
</svg>
