<?xml version="1.0" encoding="utf-8"?>
<!-- Generator: Adobe Illustrator 24.3.0, SVG Export Plug-In . SVG Version: 6.00 Build 0)  -->
<svg version="1.1" id="Layer_1" xmlns="http://www.w3.org/2000/svg" xmlns:xlink="http://www.w3.org/1999/xlink" x="0px" y="0px"
	 viewBox="0 0 100.7 113.6" style="enable-background:new 0 0 100.7 113.6;" xml:space="preserve">
<style type="text/css">
	.st0{fill:#A4AFB8;}
	.st1{enable-background:new    ;}
</style>
<g>
	<g>
		<path class="st0" d="M71.9,8.7h-63v96.2h82.9V28.6L71.9,8.7z M85.2,98.3H15.6v-83h53.6v15.9h16V98.3z"/>
		<g class="st1">
			<path class="st0" d="M18.6,65.7c-0.5-0.5-0.7-1.1-0.7-1.8c0-0.7,0.2-1.3,0.7-1.7c0.5-0.4,1-0.7,1.7-0.7c0.7,0,1.3,0.2,1.7,0.7
				c0.5,0.4,0.7,1,0.7,1.7c0,0.7-0.2,1.3-0.7,1.8s-1,0.7-1.7,0.7C19.7,66.4,19.1,66.2,18.6,65.7z"/>
			<path class="st0" d="M25.6,50.2c-0.5-0.4-0.7-0.9-0.7-1.6c0-0.6,0.2-1.1,0.7-1.6c0.5-0.4,1-0.6,1.8-0.6c0.7,0,1.3,0.2,1.8,0.6
				c0.5,0.4,0.7,0.9,0.7,1.5c0,0.7-0.2,1.2-0.7,1.6s-1,0.6-1.8,0.6C26.7,50.8,26.1,50.6,25.6,50.2z M25.4,52.7h3.9v13.5h-3.9V52.7z"
				/>
			<path class="st0" d="M45.3,54c1,1,1.5,2.5,1.5,4.5v7.8h-3.9v-7.1c0-1.1-0.2-1.9-0.7-2.4c-0.5-0.5-1.1-0.8-2-0.8
				c-1,0-1.8,0.3-2.4,0.9c-0.6,0.6-0.9,1.5-0.9,2.7v6.7H33V52.7h3.7v1.6c0.5-0.6,1.2-1,1.9-1.3s1.6-0.5,2.5-0.5
				C42.9,52.5,44.3,53,45.3,54z"/>
			<path class="st0" d="M64.3,47.5v18.7h-3.7v-1.6c-1,1.2-2.4,1.8-4.2,1.8c-1.3,0-2.4-0.3-3.5-0.9c-1-0.6-1.8-1.4-2.4-2.4
				s-0.9-2.3-0.9-3.7s0.3-2.6,0.9-3.7s1.4-1.9,2.4-2.4c1-0.6,2.2-0.9,3.5-0.9c1.7,0,3.1,0.5,4.1,1.6v-6.6H64.3z M59.5,62.2
				c0.7-0.7,1-1.6,1-2.7s-0.3-2.1-1-2.7c-0.7-0.7-1.5-1-2.5-1c-1,0-1.8,0.3-2.5,1c-0.7,0.7-1,1.6-1,2.7s0.3,2.1,1,2.7
				c0.7,0.7,1.5,1,2.5,1C58,63.2,58.9,62.9,59.5,62.2z"/>
			<path class="st0" d="M81.8,47.5v18.7H78v-1.6c-1,1.2-2.4,1.8-4.2,1.8c-1.3,0-2.4-0.3-3.5-0.9s-1.8-1.4-2.4-2.4
				c-0.6-1.1-0.9-2.3-0.9-3.7s0.3-2.6,0.9-3.7c0.6-1.1,1.4-1.9,2.4-2.4s2.2-0.9,3.5-0.9c1.7,0,3.1,0.5,4.1,1.6v-6.6H81.8z
				 M76.9,62.2c0.7-0.7,1-1.6,1-2.7s-0.3-2.1-1-2.7c-0.7-0.7-1.5-1-2.5-1c-1,0-1.8,0.3-2.5,1c-0.7,0.7-1,1.6-1,2.7s0.3,2.1,1,2.7
				c0.7,0.7,1.5,1,2.5,1C75.5,63.2,76.3,62.9,76.9,62.2z"/>
		</g>
	</g>
</g>
</svg>
