<?xml version="1.0" encoding="utf-8"?>
<!-- Generator: Adobe Illustrator 24.3.0, SVG Export Plug-In . SVG Version: 6.00 Build 0)  -->
<svg version="1.1" id="Layer_1" xmlns="http://www.w3.org/2000/svg" xmlns:xlink="http://www.w3.org/1999/xlink" x="0px" y="0px"
	 viewBox="0 0 100.7 113.6" style="enable-background:new 0 0 100.7 113.6;" xml:space="preserve">
<style type="text/css">
	.st0{fill:#A4AFB8;}
	.st1{enable-background:new    ;}
</style>
<g>
	<g>
		<path class="st0" d="M71.9,8.7h-63v96.2h82.9V28.6L71.9,8.7z M85.2,98.3H15.6v-83h53.6v15.9h16V98.3z"/>
		<g class="st1">
			<path class="st0" d="M22.6,65.1c-0.5-0.5-0.7-1.1-0.7-1.8c0-0.7,0.2-1.3,0.7-1.7c0.5-0.4,1-0.7,1.7-0.7c0.7,0,1.3,0.2,1.7,0.7
				c0.5,0.4,0.7,1,0.7,1.7c0,0.7-0.2,1.3-0.7,1.8s-1,0.7-1.7,0.7C23.6,65.8,23,65.5,22.6,65.1z"/>
			<path class="st0" d="M38,65.6l-3-4.2L32,65.6h-4.3l5.2-6.8l-5-6.7h4.4l2.9,4l2.9-4h4.2l-5,6.6l5.2,6.9H38z"/>
			<path class="st0" d="M44.4,46.9h3.9v18.7h-3.9V46.9z"/>
			<path class="st0" d="M53.2,65.3c-1.1-0.3-1.9-0.6-2.6-1l1.3-2.8c0.6,0.4,1.3,0.7,2.2,0.9s1.7,0.4,2.5,0.4c1.7,0,2.5-0.4,2.5-1.2
				c0-0.4-0.2-0.7-0.7-0.8s-1.1-0.3-2.1-0.4c-1.1-0.2-2-0.4-2.7-0.6c-0.7-0.2-1.3-0.6-1.9-1.2S51,57.2,51,56.2
				c0-0.9,0.2-1.6,0.7-2.3c0.5-0.7,1.2-1.2,2.2-1.5c0.9-0.4,2.1-0.6,3.4-0.6c1,0,1.9,0.1,2.9,0.3c0.9,0.2,1.7,0.5,2.4,0.9l-1.3,2.8
				c-1.2-0.7-2.5-1-3.9-1c-0.8,0-1.5,0.1-1.9,0.4c-0.4,0.2-0.6,0.5-0.6,0.9c0,0.4,0.2,0.7,0.7,0.9c0.5,0.2,1.2,0.3,2.2,0.5
				c1.1,0.2,2,0.4,2.7,0.6c0.7,0.2,1.3,0.6,1.8,1.1c0.5,0.6,0.8,1.3,0.8,2.3c0,0.8-0.3,1.6-0.8,2.2c-0.5,0.7-1.2,1.2-2.2,1.5
				s-2.1,0.5-3.4,0.5C55.4,65.8,54.3,65.6,53.2,65.3z"/>
			<path class="st0" d="M73.7,65.6l-3-4.2l-3.1,4.2h-4.3l5.2-6.8l-5-6.7h4.4l2.9,4l2.9-4h4.2l-5,6.6l5.2,6.9H73.7z"/>
		</g>
	</g>
</g>
</svg>
