<?xml version="1.0" encoding="utf-8"?>
<!-- Generator: Adobe Illustrator 24.3.0, SVG Export Plug-In . SVG Version: 6.00 Build 0)  -->
<svg version="1.1" id="Layer_1" xmlns="http://www.w3.org/2000/svg" xmlns:xlink="http://www.w3.org/1999/xlink" x="0px" y="0px"
	 viewBox="0 0 100.7 113.6" style="enable-background:new 0 0 100.7 113.6;" xml:space="preserve">
<style type="text/css">
	.st0{fill:#A4AFB8;}
	.st1{enable-background:new    ;}
</style>
<g>
	<g>
		<path class="st0" d="M71.9,8.7h-63v96.2h82.9V28.6L71.9,8.7z M85.2,98.3H15.6v-83h53.6v15.9h16V98.3z"/>
		<g class="st1">
			<path class="st0" d="M29.8,67.4c-0.5-0.5-0.8-1.2-0.8-2c0-0.8,0.3-1.5,0.8-2c0.5-0.5,1.2-0.8,2-0.8c0.8,0,1.5,0.3,2,0.8
				c0.5,0.5,0.8,1.2,0.8,2c0,0.8-0.3,1.5-0.8,2c-0.5,0.5-1.2,0.8-2,0.8C31,68.2,30.3,68,29.8,67.4z"/>
			<path class="st0" d="M47.6,68l-3.4-4.8L40.6,68h-4.9l6-7.9l-5.8-7.7H41l3.3,4.6l3.4-4.6h4.8L46.7,60l6,8H47.6z"/>
			<path class="st0" d="M70.3,46.5V68H66v-1.8c-1.1,1.4-2.7,2-4.9,2c-1.5,0-2.8-0.3-4-1c-1.2-0.7-2.1-1.6-2.8-2.8
				c-0.7-1.2-1-2.6-1-4.2c0-1.6,0.3-3,1-4.2c0.7-1.2,1.6-2.2,2.8-2.8c1.2-0.7,2.5-1,4-1c2,0,3.5,0.6,4.7,1.9v-7.6H70.3z M64.7,63.3
				c0.8-0.8,1.1-1.8,1.1-3.1c0-1.3-0.4-2.4-1.1-3.1s-1.7-1.2-2.8-1.2c-1.2,0-2.1,0.4-2.9,1.2s-1.1,1.8-1.1,3.1
				c0,1.3,0.4,2.4,1.1,3.1s1.7,1.2,2.9,1.2C63,64.5,64,64.1,64.7,63.3z"/>
		</g>
	</g>
</g>
</svg>
