<?xml version="1.0" encoding="utf-8"?>
<!-- Generator: Adobe Illustrator 24.3.0, SVG Export Plug-In . SVG Version: 6.00 Build 0)  -->
<svg version="1.1" id="Layer_1" xmlns="http://www.w3.org/2000/svg" xmlns:xlink="http://www.w3.org/1999/xlink" x="0px" y="0px"
	 viewBox="0 0 100.7 113.6" style="enable-background:new 0 0 100.7 113.6;" xml:space="preserve">
<style type="text/css">
	.st0{fill:#A4AFB8;}
	.st1{enable-background:new    ;}
</style>
<g>
	<g>
		<path class="st0" d="M71.9,8.7h-63v96.2h82.9V28.6L71.9,8.7z M85.2,98.3H15.6v-83h53.6v15.9h16V98.3z"/>
		<g class="st1">
			<path class="st0" d="M19.2,63.8c-0.3-0.3-0.5-0.8-0.5-1.3c0-0.5,0.2-0.9,0.5-1.3c0.3-0.3,0.8-0.5,1.2-0.5s0.9,0.2,1.2,0.5
				c0.3,0.3,0.5,0.7,0.5,1.3c0,0.5-0.2,0.9-0.5,1.3c-0.3,0.3-0.8,0.5-1.2,0.5S19.5,64.1,19.2,63.8z"/>
			<path class="st0" d="M24.9,64c-0.8-0.2-1.4-0.4-1.8-0.7l0.9-2c0.4,0.3,1,0.5,1.6,0.7c0.6,0.2,1.2,0.3,1.8,0.3
				c1.2,0,1.8-0.3,1.8-0.9c0-0.3-0.2-0.5-0.5-0.6s-0.8-0.2-1.5-0.3c-0.8-0.1-1.4-0.3-2-0.4s-1-0.4-1.3-0.8c-0.4-0.4-0.6-1-0.6-1.7
				c0-0.6,0.2-1.2,0.5-1.6c0.4-0.5,0.9-0.8,1.5-1.1c0.7-0.3,1.5-0.4,2.4-0.4c0.7,0,1.4,0.1,2,0.2c0.7,0.2,1.2,0.4,1.7,0.6l-0.9,2
				c-0.9-0.5-1.8-0.7-2.8-0.7c-0.6,0-1.1,0.1-1.4,0.3c-0.3,0.2-0.5,0.4-0.5,0.6c0,0.3,0.2,0.5,0.5,0.6s0.8,0.2,1.5,0.3
				c0.8,0.1,1.4,0.3,1.9,0.4c0.5,0.2,0.9,0.4,1.3,0.8c0.4,0.4,0.6,0.9,0.6,1.7c0,0.6-0.2,1.1-0.5,1.6c-0.4,0.5-0.9,0.8-1.6,1.1
				c-0.7,0.3-1.5,0.4-2.5,0.4C26.5,64.3,25.7,64.2,24.9,64z"/>
			<path class="st0" d="M37.8,60.3l-1.4,1.3v2.5h-2.8V50.8h2.8v7.6l4.1-3.9h3.3l-4,4.1l4.4,5.6h-3.4L37.8,60.3z"/>
			<path class="st0" d="M54.5,60.1h-7.3c0.1,0.6,0.4,1.1,0.9,1.4c0.5,0.3,1.1,0.5,1.8,0.5c0.5,0,1-0.1,1.3-0.2
				c0.4-0.2,0.8-0.4,1.1-0.7l1.5,1.6c-0.9,1-2.2,1.6-4,1.6c-1.1,0-2.1-0.2-2.9-0.6c-0.8-0.4-1.5-1-1.9-1.8c-0.5-0.8-0.7-1.6-0.7-2.6
				c0-0.9,0.2-1.8,0.7-2.6s1.1-1.4,1.9-1.8c0.8-0.4,1.7-0.6,2.6-0.6c0.9,0,1.8,0.2,2.6,0.6s1.4,1,1.8,1.8c0.4,0.8,0.7,1.6,0.7,2.7
				C54.6,59.4,54.6,59.6,54.5,60.1z M47.9,57c-0.4,0.4-0.7,0.9-0.8,1.5h4.8c-0.1-0.6-0.4-1.1-0.8-1.5c-0.4-0.4-1-0.5-1.6-0.5
				C48.9,56.4,48.4,56.6,47.9,57z"/>
			<path class="st0" d="M62.7,63.7c-0.3,0.2-0.6,0.4-1,0.5c-0.4,0.1-0.8,0.2-1.3,0.2c-1.2,0-2-0.3-2.7-0.9c-0.6-0.6-0.9-1.5-0.9-2.6
				v-4h-1.5v-2.2h1.5v-2.4h2.8v2.4H62v2.2h-2.4v3.9c0,0.4,0.1,0.7,0.3,0.9c0.2,0.2,0.5,0.3,0.9,0.3c0.4,0,0.8-0.1,1.1-0.4L62.7,63.7
				z"/>
			<path class="st0" d="M65.9,63.6c-0.8-0.4-1.5-1-1.9-1.8c-0.5-0.8-0.7-1.6-0.7-2.6c0-1,0.2-1.8,0.7-2.6c0.5-0.8,1.1-1.3,1.9-1.8
				c0.8-0.4,1.8-0.6,2.8-0.6c1,0,1.9,0.2,2.7,0.6c0.8,0.4,1.3,1,1.7,1.8l-2.2,1.2c-0.5-0.9-1.2-1.3-2.2-1.3c-0.7,0-1.3,0.2-1.8,0.7
				c-0.5,0.5-0.7,1.1-0.7,2c0,0.8,0.2,1.5,0.7,2c0.5,0.5,1.1,0.7,1.8,0.7c1,0,1.7-0.4,2.2-1.3l2.2,1.2c-0.3,0.8-0.9,1.4-1.7,1.8
				c-0.8,0.4-1.7,0.6-2.7,0.6C67.6,64.3,66.7,64.1,65.9,63.6z"/>
			<path class="st0" d="M83.3,55.4c0.7,0.7,1.1,1.8,1.1,3.2v5.5h-2.8V59c0-0.8-0.2-1.3-0.5-1.7s-0.8-0.6-1.5-0.6
				c-0.7,0-1.3,0.2-1.7,0.7c-0.4,0.4-0.6,1.1-0.6,2v4.8h-2.8V50.8h2.8v4.7c0.4-0.4,0.8-0.7,1.4-0.9c0.5-0.2,1.1-0.3,1.7-0.3
				C81.6,54.3,82.6,54.7,83.3,55.4z"/>
		</g>
	</g>
</g>
</svg>
