<?xml version="1.0" encoding="utf-8"?>
<!-- Generator: Adobe Illustrator 24.1.0, SVG Export Plug-In . SVG Version: 6.00 Build 0)  -->
<svg version="1.1" id="Layer_1" xmlns="http://www.w3.org/2000/svg" xmlns:xlink="http://www.w3.org/1999/xlink" x="0px" y="0px"
	 viewBox="0 0 154 114" style="enable-background:new 0 0 154 114;" xml:space="preserve">
<style type="text/css">
	.st0{fill:#B5B5B5;}
</style>
<g>
	<path class="st0" d="M96.6,76H37c-0.7,0-1.3-0.6-1.3-1.3V15c0-0.7,0.6-1.3,1.3-1.3h59.7c0.7,0,1.3,0.6,1.3,1.3v59.7
		C97.9,75.4,97.3,76,96.6,76z M38.3,73.4h57v-57h-57V73.4z"/>
	<g>
		<path class="st0" d="M60.5,58c-0.3,0-0.5-0.1-0.7-0.3c-0.3-0.3-0.5-0.8-0.5-1.2l1-6.4l-4.6-4.5c-0.3-0.3-0.4-0.8-0.3-1.2
			c0.2-0.4,0.5-0.8,1-0.9l6.4-1l2.9-5.8c0.2-0.4,0.6-0.6,1.1-0.6s0.9,0.3,1.1,0.6l2.9,5.8l6.4,1c0.4,0.1,0.9,0.3,1,0.9
			c0.2,0.4,0,1-0.3,1.2l-4.6,4.5l1,6.4c0.1,0.4-0.1,1-0.5,1.2c-0.2,0.2-0.4,0.3-0.7,0.3c-0.2,0-0.4-0.1-0.6-0.2l-5.7-3l-5.7,3
			C60.9,58,60.8,58,60.5,58z M66.8,52.1c0.2,0,0.4,0.1,0.6,0.2l3.9,2.1L70.5,50c-0.1-0.4,0.1-0.8,0.3-1l3.1-3.1l-4.4-0.6
			c-0.4-0.1-0.8-0.3-1-0.7l-2-4l-1.8,3.9c-0.2,0.3-0.5,0.6-1,0.7l-4.4,0.6l3.1,3.1c0.3,0.3,0.4,0.7,0.3,1l-0.8,4.4l3.9-2.1
			C66.3,52.2,66.6,52.1,66.8,52.1z"/>
		<path class="st0" d="M53.1,25.7c-0.5,0-1-0.3-1-0.8v-1.4c0-0.4,0.4-0.8,1-0.8h27.4c0.5,0,1,0.3,1,0.8V25c0,0.4-0.4,0.8-1,0.8H53.1
			z"/>
		<path class="st0" d="M56.3,31.7c-0.5,0-1-0.3-1-0.8v-1.4c0-0.4,0.4-0.8,1-0.8h21c0.5,0,1,0.3,1,0.8v1.4c0,0.4-0.4,0.8-1,0.8H56.3z
			"/>
		<path class="st0" d="M59.8,67c-0.4,0-0.8-0.3-0.8-0.8v-1.2c0-0.4,0.3-0.8,0.8-0.8h14c0.4,0,0.8,0.3,0.8,0.8v1.2
			c0,0.4-0.3,0.8-0.8,0.8H59.8z"/>
	</g>
	<path class="st0" d="M96.8,17.7C96.8,17.7,96.7,17.7,96.8,17.7l-0.1,2.6c0,0,0,0,0.1,0c13.4,0,24.3,10.9,24.3,24.3
		c0,13.4-10.9,24.3-24.3,24.3c0,0,0,0-0.1,0v2.6c0,0,0,0,0.1,0c14.8,0,26.9-12.1,26.9-26.9C123.7,29.8,111.6,17.7,96.8,17.7z"/>
	<path class="st0" d="M96.8,38.9C96.8,38.9,96.7,38.9,96.8,38.9l-0.1,2.6c0,0,0,0,0.1,0c1.7,0,3.2,1.4,3.2,3.2
		c0,1.7-1.4,3.2-3.2,3.2c0,0,0,0-0.1,0v2.6c0,0,0,0,0.1,0c3.2,0,5.8-2.6,5.8-5.8C102.6,41.5,100,38.9,96.8,38.9z"/>
</g>
<g>
	<g>
		<path class="st0" d="M87.5,112.1c-0.7-0.4-1.2-0.9-1.6-1.5c-0.4-0.7-0.6-1.4-0.6-2.2c0-0.8,0.2-1.6,0.6-2.2
			c0.4-0.7,0.9-1.2,1.6-1.5c0.7-0.4,1.5-0.6,2.3-0.6c0.7,0,1.4,0.1,2,0.4c0.6,0.3,1.1,0.6,1.5,1.1l-1.2,1.1c-0.6-0.6-1.3-1-2.1-1
			c-0.5,0-1,0.1-1.4,0.3c-0.4,0.2-0.7,0.5-0.9,0.9s-0.3,0.9-0.3,1.4s0.1,1,0.3,1.4c0.2,0.4,0.5,0.7,0.9,0.9c0.4,0.2,0.9,0.3,1.4,0.3
			c0.8,0,1.5-0.3,2.1-1l1.2,1.1c-0.4,0.5-0.9,0.9-1.5,1.1c-0.6,0.3-1.2,0.4-2,0.4C89,112.6,88.2,112.4,87.5,112.1z"/>
		<path class="st0" d="M97.5,112.1c-0.7-0.4-1.2-0.9-1.6-1.5c-0.4-0.7-0.6-1.4-0.6-2.2c0-0.8,0.2-1.5,0.6-2.2
			c0.4-0.7,0.9-1.2,1.6-1.5s1.5-0.6,2.3-0.6c0.9,0,1.6,0.2,2.3,0.6s1.2,0.9,1.6,1.5c0.4,0.7,0.6,1.4,0.6,2.2c0,0.8-0.2,1.6-0.6,2.2
			c-0.4,0.7-0.9,1.2-1.6,1.5c-0.7,0.4-1.5,0.6-2.3,0.6C99,112.6,98.2,112.4,97.5,112.1z M101.2,110.7c0.4-0.2,0.7-0.5,0.9-0.9
			c0.2-0.4,0.3-0.9,0.3-1.4s-0.1-1-0.3-1.4s-0.5-0.7-0.9-0.9c-0.4-0.2-0.8-0.3-1.3-0.3c-0.5,0-0.9,0.1-1.3,0.3
			c-0.4,0.2-0.7,0.5-0.9,0.9s-0.3,0.9-0.3,1.4s0.1,1,0.3,1.4c0.2,0.4,0.5,0.7,0.9,0.9c0.4,0.2,0.8,0.3,1.3,0.3
			C100.3,111,100.8,110.9,101.2,110.7z"/>
		<path class="st0" d="M114.8,104.2l-3.6,8.3h-1.9l-3.6-8.3h2.1l2.5,5.9l2.6-5.9H114.8z"/>
		<path class="st0" d="M123.6,110.9v1.5h-6.4v-8.3h6.3v1.5h-4.4v1.8h3.9v1.5h-3.9v1.9H123.6z"/>
		<path class="st0" d="M132.1,112.5l-1.6-2.3h-0.1h-1.7v2.3h-1.9v-8.3h3.6c0.7,0,1.4,0.1,1.9,0.4c0.5,0.2,1,0.6,1.3,1s0.4,1,0.4,1.6
			c0,0.6-0.1,1.2-0.4,1.6c-0.3,0.4-0.7,0.8-1.3,1l1.9,2.7H132.1z M131.6,106.1c-0.3-0.2-0.7-0.4-1.3-0.4h-1.6v2.9h1.6
			c0.6,0,1-0.1,1.3-0.4c0.3-0.3,0.5-0.6,0.5-1.1C132.1,106.7,131.9,106.4,131.6,106.1z"/>
	</g>
	<g>
		<path class="st0" d="M29.7,110.7h-3.9l-0.7,1.8h-2l3.7-8.3h1.9l3.7,8.3h-2L29.7,110.7z M29.1,109.2l-1.3-3.2l-1.3,3.2H29.1z"/>
		<path class="st0" d="M35.5,104.2h1.9v6.7h4.2v1.6h-6.1V104.2z"/>
		<path class="st0" d="M52.1,108.9c0.3,0.4,0.4,0.8,0.4,1.3c0,0.7-0.3,1.3-0.8,1.7c-0.6,0.4-1.4,0.6-2.5,0.6h-4.3v-8.3H49
			c1,0,1.8,0.2,2.3,0.6s0.8,0.9,0.8,1.6c0,0.4-0.1,0.8-0.3,1.1c-0.2,0.3-0.5,0.6-0.8,0.7C51.5,108.3,51.9,108.6,52.1,108.9z
			 M46.8,105.6v2h1.9c0.5,0,0.8-0.1,1.1-0.2s0.4-0.4,0.4-0.7s-0.1-0.6-0.4-0.7s-0.6-0.2-1.1-0.2H46.8z M50.2,110.8
			c0.3-0.2,0.4-0.4,0.4-0.8c0-0.7-0.5-1-1.5-1h-2.2v2.1h2.2C49.6,111,50,110.9,50.2,110.8z"/>
		<path class="st0" d="M56.9,111.6c-0.7-0.7-1-1.6-1-2.8v-4.7h1.9v4.6c0,1.5,0.6,2.2,1.9,2.2c0.6,0,1.1-0.2,1.4-0.5
			c0.3-0.4,0.5-0.9,0.5-1.7v-4.6h1.9v4.7c0,1.2-0.3,2.2-1,2.8c-0.7,0.7-1.6,1-2.8,1C58.4,112.6,57.5,112.3,56.9,111.6z"/>
		<path class="st0" d="M74.8,112.5l0-5l-2.4,4.1h-0.9l-2.4-4v4.9h-1.8v-8.3h1.6l3.1,5.2l3.1-5.2h1.6l0,8.3H74.8z"/>
	</g>
</g>
</svg>
