<?xml version="1.0" encoding="utf-8"?>
<!-- Generator: Adobe Illustrator 24.1.0, SVG Export Plug-In . SVG Version: 6.00 Build 0)  -->
<svg version="1.1" id="Layer_1" xmlns="http://www.w3.org/2000/svg" xmlns:xlink="http://www.w3.org/1999/xlink" x="0px" y="0px"
	 viewBox="0 0 154 114" style="enable-background:new 0 0 154 114;" xml:space="preserve">
<style type="text/css">
	.st0{fill:#B5B5B5;}
</style>
<g>
	<path class="st0" d="M84.2,46.5c0.2,0.1,0.4,0.2,0.5,0.2c0.2,0,0.5-0.1,0.7-0.2c0.4-0.3,0.5-0.8,0.5-1.3l-1.4-8.4l6.1-6
		c0.3-0.3,0.5-0.9,0.3-1.3c-0.2-0.5-0.5-0.8-1-0.9l-8.5-1.3l-3.8-7.7c-0.4-0.9-1.8-0.9-2.3,0l-3.8,7.7l-8.5,1.3
		c-0.5,0.1-0.9,0.4-1,0.9c-0.2,0.5,0,0.9,0.3,1.3l6.1,6l-1.4,8.4c-0.1,0.5,0.1,0.9,0.5,1.3c0.4,0.3,0.9,0.3,1.3,0.1l7.5-4L84.2,46.5
		z M73.6,28.9l3.1-6.4l3.1,6.4c0.2,0.4,0.6,0.7,1,0.8l7.1,1l-5.1,5c-0.3,0.3-0.5,0.8-0.4,1.2l1.2,7l-6.3-3.3
		c-0.1-0.1-0.3-0.2-0.5-0.2s-0.4,0.1-0.6,0.2l-6.3,3.3l1.2-7c0.1-0.4-0.1-0.9-0.4-1.2l-5.1-5l7.1-1C73,29.5,73.3,29.3,73.6,28.9z"/>
</g>
<path class="st0" d="M47.7,80.5c-0.2,0-0.3-0.1-0.3-0.3v-1.7c0-0.2,0.1-0.3,0.3-0.3h24.2V63.7H32.2l0-1.2V62l39.7,0v-3.4H33.1
	c-0.6,0-1.1-0.5-1.1-1.1V8.3c0-0.6,0.5-1.1,1.1-1.1h8.1V5.4c0-0.6,0.5-1.1,1.1-1.1H47c0.6,0,1.1,0.5,1.1,1.1v1.8h14.5V5.4
	c0-0.6,0.5-1.1,1.1-1.1h4.6c0.6,0,1.1,0.5,1.1,1.1v1.8H84V5.4c0-0.6,0.5-1.1,1.1-1.1h4.6c0.6,0,1.1,0.5,1.1,1.1v1.8h14.5V5.4
	c0-0.6,0.5-1.1,1.1-1.1h4.6c0.6,0,1.1,0.5,1.1,1.1v1.8h8.1c0.6,0,1.1,0.5,1.1,1.1v49.1c0,0.6-0.5,1.1-1.1,1.1H120v0.1H81.5V62h39.7
	l0,0.5v1.2l-39.7,0v14.5h24.1c0.2,0,0.3,0.1,0.3,0.3v1.7c0,0.2-0.1,0.3-0.3,0.3H47.7z M74.1,78.3h5.1V63.7h-5.1V78.3z M74.1,61.9
	h5.1v-3.4h-5.1V61.9z M34.3,56.3h84.8V9.4h-6.9v2.5c0,0.6-0.5,1.1-1.1,1.1h-4.6c-0.6,0-1.1-0.5-1.1-1.1V9.4H90.8v2.5
	c0,0.6-0.5,1.1-1.1,1.1H85c-0.6,0-1.1-0.5-1.1-1.1V9.4H69.4v2.5c0,0.6-0.5,1.1-1.1,1.1h-4.6c-0.6,0-1.1-0.5-1.1-1.1V9.4H48.1v2.5
	c0,0.6-0.5,1.1-1.1,1.1h-4.6c-0.6,0-1.1-0.5-1.1-1.1V9.4h-6.9V56.3z M107.6,6.6v4.2h2.4V6.6l-0.3-0.1L107.6,6.6z M86.2,6.6v4.2h2.4
	V6.6l-0.3-0.1L86.2,6.6z M64.8,6.6v4.2h2.4V6.6l-0.3-0.1L64.8,6.6z M43.4,6.6v4.2h2.4V6.6l-0.3-0.1L43.4,6.6z"/>
<g>
	<path class="st0" d="M40.6,109c0.3,0.4,0.4,0.8,0.4,1.3c0,0.7-0.3,1.3-0.9,1.7c-0.6,0.4-1.4,0.6-2.5,0.6h-4.3v-8.4h4.1
		c1,0,1.8,0.2,2.4,0.6c0.5,0.4,0.8,0.9,0.8,1.6c0,0.4-0.1,0.8-0.3,1.1c-0.2,0.3-0.5,0.6-0.8,0.8C40,108.4,40.4,108.7,40.6,109z
		 M35.3,105.7v2h1.9c0.5,0,0.8-0.1,1.1-0.3s0.4-0.4,0.4-0.7s-0.1-0.6-0.4-0.7c-0.2-0.2-0.6-0.2-1.1-0.2H35.3z M38.7,110.9
		c0.3-0.2,0.4-0.4,0.4-0.8c0-0.7-0.5-1-1.5-1h-2.3v2.1h2.3C38.1,111.2,38.4,111.1,38.7,110.9z"/>
	<path class="st0" d="M44.2,104.2h1.9v8.4h-1.9V104.2z"/>
	<path class="st0" d="M49.8,104.2h1.9v6.8H56v1.6h-6.2V104.2z"/>
	<path class="st0" d="M58.8,104.2h1.9v6.8h4.2v1.6h-6.2V104.2z"/>
	<path class="st0" d="M75,109c0.3,0.4,0.4,0.8,0.4,1.3c0,0.7-0.3,1.3-0.9,1.7c-0.6,0.4-1.4,0.6-2.5,0.6h-4.3v-8.4h4.1
		c1,0,1.8,0.2,2.4,0.6c0.5,0.4,0.8,0.9,0.8,1.6c0,0.4-0.1,0.8-0.3,1.1c-0.2,0.3-0.5,0.6-0.8,0.8C74.3,108.4,74.7,108.7,75,109z
		 M69.6,105.7v2h1.9c0.5,0,0.8-0.1,1.1-0.3s0.4-0.4,0.4-0.7s-0.1-0.6-0.4-0.7c-0.2-0.2-0.6-0.2-1.1-0.2H69.6z M73,110.9
		c0.3-0.2,0.4-0.4,0.4-0.8c0-0.7-0.5-1-1.5-1h-2.3v2.1h2.3C72.4,111.2,72.8,111.1,73,110.9z"/>
	<path class="st0" d="M80.3,112.2c-0.7-0.4-1.2-0.9-1.6-1.6c-0.4-0.7-0.6-1.4-0.6-2.2c0-0.8,0.2-1.6,0.6-2.2
		c0.4-0.7,0.9-1.2,1.6-1.6c0.7-0.4,1.5-0.6,2.4-0.6c0.9,0,1.7,0.2,2.4,0.6c0.7,0.4,1.2,0.9,1.6,1.6c0.4,0.7,0.6,1.4,0.6,2.2
		c0,0.8-0.2,1.6-0.6,2.2c-0.4,0.7-0.9,1.2-1.6,1.6s-1.5,0.6-2.4,0.6C81.7,112.8,81,112.6,80.3,112.2z M84,110.8
		c0.4-0.2,0.7-0.5,0.9-1c0.2-0.4,0.3-0.9,0.3-1.4c0-0.5-0.1-1-0.3-1.4c-0.2-0.4-0.5-0.7-0.9-1c-0.4-0.2-0.8-0.3-1.3-0.3
		c-0.5,0-0.9,0.1-1.3,0.3c-0.4,0.2-0.7,0.5-0.9,1c-0.2,0.4-0.3,0.9-0.3,1.4c0,0.5,0.1,1,0.3,1.4c0.2,0.4,0.5,0.7,0.9,1
		c0.4,0.2,0.8,0.3,1.3,0.3C83.1,111.1,83.6,111,84,110.8z"/>
	<path class="st0" d="M95.8,110.8h-3.9l-0.7,1.8h-2l3.7-8.4h1.9l3.8,8.4h-2L95.8,110.8z M95.2,109.3l-1.3-3.2l-1.3,3.2H95.2z"/>
	<path class="st0" d="M106.5,112.6l-1.6-2.3h-0.1H103v2.3h-1.9v-8.4h3.6c0.7,0,1.4,0.1,1.9,0.4c0.5,0.2,1,0.6,1.3,1.1s0.4,1,0.4,1.6
		s-0.2,1.2-0.5,1.6c-0.3,0.5-0.7,0.8-1.3,1l1.9,2.7H106.5z M106,106.2c-0.3-0.3-0.7-0.4-1.3-0.4H103v2.9h1.6c0.6,0,1-0.1,1.3-0.4
		c0.3-0.3,0.5-0.6,0.5-1.1C106.4,106.8,106.3,106.4,106,106.2z"/>
	<path class="st0" d="M111.6,104.2h3.8c0.9,0,1.7,0.2,2.4,0.5c0.7,0.3,1.2,0.8,1.6,1.5c0.4,0.6,0.6,1.4,0.6,2.2s-0.2,1.6-0.6,2.2
		c-0.4,0.6-0.9,1.1-1.6,1.5c-0.7,0.3-1.5,0.5-2.4,0.5h-3.8V104.2z M115.3,111c0.8,0,1.5-0.2,2-0.7s0.8-1.1,0.8-1.9s-0.2-1.4-0.8-1.9
		c-0.5-0.5-1.2-0.7-2-0.7h-1.8v5.2H115.3z"/>
</g>
</svg>
