<?xml version="1.0" encoding="utf-8"?>
<!-- Generator: Adobe Illustrator 24.1.0, SVG Export Plug-In . SVG Version: 6.00 Build 0)  -->
<svg version="1.1" id="Layer_1" xmlns="http://www.w3.org/2000/svg" xmlns:xlink="http://www.w3.org/1999/xlink" x="0px" y="0px"
	 viewBox="0 0 154 114" style="enable-background:new 0 0 154 114;" xml:space="preserve">
<style type="text/css">
	.st0{fill:#B5B5B5;}
</style>
<g>
	<path class="st0" d="M35.5,108.9c0.3,0.4,0.4,0.8,0.4,1.3c0,0.7-0.3,1.3-0.9,1.7c-0.6,0.4-1.4,0.6-2.5,0.6h-4.3v-8.4h4.1
		c1,0,1.8,0.2,2.4,0.6c0.5,0.4,0.8,0.9,0.8,1.6c0,0.4-0.1,0.8-0.3,1.1c-0.2,0.3-0.5,0.6-0.8,0.8C34.8,108.3,35.2,108.6,35.5,108.9z
		 M30.1,105.6v2H32c0.5,0,0.8-0.1,1.1-0.3c0.2-0.2,0.4-0.4,0.4-0.7s-0.1-0.6-0.4-0.7c-0.2-0.2-0.6-0.2-1.1-0.2h-1.9V105.6z
		 M33.5,110.8c0.3-0.2,0.4-0.4,0.4-0.8c0-0.7-0.5-1-1.5-1h-2.3v2.1h2.3C32.9,111.1,33.3,111,33.5,110.8z"/>
	<path class="st0" d="M40.5,112.1c-0.7-0.4-1.2-0.9-1.6-1.6c-0.4-0.7-0.6-1.4-0.6-2.2c0-0.8,0.2-1.6,0.6-2.2s0.9-1.2,1.6-1.6
		c0.7-0.4,1.5-0.6,2.4-0.6s1.7,0.2,2.4,0.6s1.2,0.9,1.6,1.6s0.6,1.4,0.6,2.2c0,0.8-0.2,1.6-0.6,2.2c-0.4,0.7-0.9,1.2-1.6,1.6
		c-0.7,0.4-1.5,0.6-2.4,0.6S41.2,112.5,40.5,112.1z M44.2,110.7c0.4-0.2,0.7-0.5,0.9-1c0.2-0.4,0.3-0.9,0.3-1.4s-0.1-1-0.3-1.4
		s-0.5-0.7-0.9-1c-0.4-0.2-0.8-0.3-1.3-0.3s-0.9,0.1-1.3,0.3c-0.4,0.2-0.7,0.5-0.9,1s-0.3,0.9-0.3,1.4s0.1,1,0.3,1.4s0.5,0.7,0.9,1
		c0.4,0.2,0.8,0.3,1.3,0.3S43.8,110.9,44.2,110.7z"/>
	<path class="st0" d="M52.1,112.1c-0.7-0.4-1.2-0.9-1.6-1.6c-0.4-0.7-0.6-1.4-0.6-2.2c0-0.8,0.2-1.6,0.6-2.2
		c0.4-0.7,0.9-1.2,1.6-1.6c0.7-0.4,1.5-0.6,2.4-0.6s1.7,0.2,2.4,0.6s1.2,0.9,1.6,1.6c0.4,0.7,0.6,1.4,0.6,2.2c0,0.8-0.2,1.6-0.6,2.2
		c-0.4,0.7-0.9,1.2-1.6,1.6s-1.5,0.6-2.4,0.6S52.8,112.5,52.1,112.1z M55.8,110.7c0.4-0.2,0.7-0.5,0.9-1c0.2-0.4,0.3-0.9,0.3-1.4
		s-0.1-1-0.3-1.4s-0.5-0.7-0.9-1c-0.4-0.2-0.8-0.3-1.3-0.3s-0.9,0.1-1.3,0.3c-0.4,0.2-0.7,0.5-0.9,1c-0.2,0.4-0.3,0.9-0.3,1.4
		s0.1,1,0.3,1.4s0.5,0.7,0.9,1c0.4,0.2,0.8,0.3,1.3,0.3C54.9,111,55.4,110.9,55.8,110.7z"/>
	<path class="st0" d="M65,109.2l-1.1,1.2v2.1H62v-8.4h1.9v3.9l3.7-3.9h2.2l-3.5,3.7l3.7,4.7h-2.3L65,109.2z"/>
	<path class="st0" d="M78.7,112.1c-0.7-0.4-1.2-0.9-1.6-1.5c-0.4-0.7-0.6-1.4-0.6-2.2s0.2-1.6,0.6-2.2c0.4-0.7,0.9-1.2,1.6-1.5
		c0.7-0.4,1.5-0.6,2.3-0.6c0.7,0,1.4,0.1,2,0.4s1.1,0.6,1.5,1.1l-1.2,1.2c-0.6-0.7-1.3-1-2.1-1c-0.5,0-1,0.1-1.4,0.3
		c-0.4,0.2-0.7,0.5-1,1c-0.2,0.4-0.3,0.9-0.3,1.4s0.1,1,0.3,1.4c0.2,0.4,0.5,0.7,1,1c0.4,0.2,0.9,0.3,1.4,0.3c0.8,0,1.5-0.3,2.1-1
		l1.2,1.2c-0.4,0.5-0.9,0.9-1.5,1.1s-1.3,0.4-2,0.4C80.1,112.7,79.3,112.5,78.7,112.1z"/>
	<path class="st0" d="M88.7,112.1c-0.7-0.4-1.2-0.9-1.6-1.6s-0.6-1.4-0.6-2.2c0-0.8,0.2-1.6,0.6-2.2c0.4-0.7,0.9-1.2,1.6-1.6
		s1.5-0.6,2.4-0.6s1.7,0.2,2.4,0.6c0.7,0.4,1.2,0.9,1.6,1.6s0.6,1.4,0.6,2.2c0,0.8-0.2,1.6-0.6,2.2c-0.4,0.7-0.9,1.2-1.6,1.6
		s-1.5,0.6-2.4,0.6S89.4,112.5,88.7,112.1z M92.4,110.7c0.4-0.2,0.7-0.5,0.9-1c0.2-0.4,0.3-0.9,0.3-1.4s-0.1-1-0.3-1.4
		c-0.2-0.4-0.5-0.7-0.9-1c-0.4-0.2-0.8-0.3-1.3-0.3s-0.9,0.1-1.3,0.3c-0.4,0.2-0.7,0.5-0.9,1c-0.2,0.4-0.3,0.9-0.3,1.4
		s0.1,1,0.3,1.4c0.2,0.4,0.5,0.7,0.9,1c0.4,0.2,0.8,0.3,1.3,0.3S92,110.9,92.4,110.7z"/>
	<path class="st0" d="M106.1,104.1l-3.6,8.4h-2l-3.6-8.4H99l2.6,6l2.6-6H106.1z"/>
	<path class="st0" d="M114.7,111v1.6h-6.5v-8.4h6.3v1.6h-4.4v1.8h3.9v1.5h-3.9v1.9H114.7z"/>
	<path class="st0" d="M123,112.5l-1.6-2.3h-0.1h-1.7v2.3h-1.9v-8.4h3.6c0.7,0,1.4,0.1,1.9,0.4c0.5,0.2,1,0.6,1.3,1.1s0.4,1,0.4,1.6
		s-0.2,1.2-0.5,1.6c-0.3,0.5-0.7,0.8-1.3,1l1.9,2.7C125,112.5,123,112.5,123,112.5z M122.5,106.1c-0.3-0.3-0.7-0.4-1.3-0.4h-1.6v2.9
		h1.6c0.6,0,1-0.1,1.3-0.4s0.5-0.6,0.5-1.1C123,106.7,122.8,106.3,122.5,106.1z"/>
</g>
<g>
	<path class="st0" d="M53.6,75c-0.7,0-1.2-0.5-1.2-1.2V17.2c0-0.7,0.5-1.2,1.2-1.2h46c0.7,0,1.2,0.5,1.2,1.2v56.6
		c0,0.7-0.5,1.2-1.2,1.2H53.6z M98.4,72.6V18.4H57.8v54.2H98.4z M56.4,72.6V18.4h-1.5v54.2H56.4z"/>
	<path class="st0" d="M71.2,58.9c-0.2,0-0.5-0.1-0.7-0.2C70.1,58.4,70,58,70,57.6l1-6.1l-4.4-4.3c-0.3-0.3-0.4-0.8-0.3-1.2
		s0.5-0.7,0.9-0.8l6.1-0.9l2.7-5.5c0.2-0.4,0.6-0.6,1.1-0.6s0.9,0.2,1.1,0.6l2.7,5.5l6.1,0.9c0.4,0.1,0.8,0.4,0.9,0.8
		c0.1,0.4,0,0.9-0.3,1.2l-4.4,4.3l1,6.1c0.1,0.4-0.1,0.9-0.5,1.1c-0.2,0.1-0.4,0.2-0.7,0.2c-0.2,0-0.4,0-0.5-0.1l-5.4-2.9l-5.4,2.9
		C71.6,58.9,71.4,58.9,71.2,58.9z M77.2,53.3c0.2,0,0.4,0,0.5,0.1l3.8,2l-0.7-4.2c-0.1-0.4,0.1-0.8,0.3-1l3-3L80,46.6
		c-0.4-0.1-0.7-0.3-0.9-0.6l-1.9-3.8L75.3,46c-0.2,0.3-0.5,0.6-0.9,0.6l-4.2,0.6l3,3c0.3,0.3,0.4,0.7,0.3,1l-0.7,4.2l3.8-2
		C76.8,53.3,77,53.3,77.2,53.3z"/>
	<path class="st0" d="M64.1,28c-0.5,0-0.9-0.3-0.9-0.8V26c0-0.4,0.4-0.8,0.9-0.8h26.2c0.5,0,0.9,0.3,0.9,0.8v1.3
		c0,0.4-0.4,0.8-0.9,0.8L64.1,28L64.1,28z"/>
	<path class="st0" d="M67.1,33.8c-0.5,0-0.9-0.3-0.9-0.8v-1.3c0-0.4,0.4-0.8,0.9-0.8h20.1c0.5,0,0.9,0.3,0.9,0.8V33
		c0,0.4-0.4,0.8-0.9,0.8H67.1z"/>
	<path class="st0" d="M70.5,67.4c-0.4,0-0.7-0.3-0.7-0.7v-1.2c0-0.4,0.3-0.7,0.7-0.7h13.4c0.4,0,0.7,0.3,0.7,0.7v1.2
		c0,0.4-0.3,0.7-0.7,0.7H70.5z"/>
</g>
</svg>
