<svg width='158' height='110' xmlns="http://www.w3.org/2000/svg" viewBox="0 0 155.39 108.67">
  <defs>
    <style>.cls-1{fill:#d5d5d5;}</style>
  </defs>
  <title>ill_brand</title>
  <g id="Слой_2" data-name="Слой 2">
    <g id="Brand">
      <path class="cls-1" d="M0,6.85V76.31H57.24V0H6.71ZM55.24,2V74.31H2V7.67L7.55,2Z"/>
      <path class="cls-1" d="M154,0H65.67V40.87H154Zm-3.71,2L109.79,28.53,69.26,2ZM67.67,38.87V3.35l41.57,27.21a1,1,0,0,0,1.1,0L152,3.27v35.6Z"/>
      <path class="cls-1" d="M65.67,76.31H115.1V50.22H65.67Zm2-24.1H113.1v22.1H67.67Z"/>
      <path class="cls-1" d="M153.31,57.06a6.43,6.43,0,0,0-8.43-.23c-.35.29-.7.63-1.08,1l-3.23,3.3-8.9,9.08a5.35,5.35,0,0,0-.59,6.91,4.92,4.92,0,0,0,3.65,2.08,4.68,4.68,0,0,0,3.78-1.3c3.28-3.29,6.57-6.67,9.76-9.94l.94-1a3.78,3.78,0,0,0,.6-4.13,3.67,3.67,0,0,0-3.34-2.14h0a4.15,4.15,0,0,0-3.1,1.37Q140.2,65.37,137,68.6l-3.5,3.57-.09.09A1.12,1.12,0,0,0,133,73a.86.86,0,0,0,.27.63.93.93,0,0,0,.65.3,1.18,1.18,0,0,0,.83-.48l.08-.08L140.08,68l4.69-4.79a2,2,0,0,1,2.86-.24,1.9,1.9,0,0,1,.71,1.29,1.93,1.93,0,0,1-.39,1.44c-.1.12-.21.24-.31.35l-3,3.05q-3.54,3.61-7.07,7.24a3.28,3.28,0,0,1-3.68.85,3.48,3.48,0,0,1-1.11-5.57c1.06-1.11,2.13-2.21,3.21-3.3l3.57-3.64q3-3.1,6.07-6.18a4.53,4.53,0,0,1,5.72-.67,4.74,4.74,0,0,1,.89,7.35q-4.33,4.45-8.68,8.87l-4,4.08a4.43,4.43,0,0,0-.42.47.87.87,0,0,0,.07,1.16.83.83,0,0,0,.6.27.92.92,0,0,0,.56-.21,4.09,4.09,0,0,0,.42-.4l8.38-8.55q2.16-2.2,4.3-4.4a6.62,6.62,0,0,0-.18-9.44Z"/>
      <path class="cls-1" d="M13.75,31.82a1,1,0,0,0,1,1h28a1,1,0,0,0,0-2h-28A1,1,0,0,0,13.75,31.82Z"/>
      <path class="cls-1" d="M42.71,35.91h-28a1,1,0,1,0,0,2h28a1,1,0,0,0,0-2Z"/>
      <path class="cls-1" d="M42.71,41h-28a1,1,0,1,0,0,2h28a1,1,0,0,0,0-2Z"/>
      <path class="cls-1" d="M33.17,46.1H14.75a1,1,0,1,0,0,2H33.17a1,1,0,0,0,0-2Z"/>
      <path class="cls-1" d="M18.2,13.7,12.86,8.26,7.53,13.7l5.33,5.44Zm-5.33-2.59L15.4,13.7l-2.53,2.59L10.33,13.7Z"/>
      <path class="cls-1" d="M85.05,63.26l5.33,5.44,5.33-5.44-5.33-5.44Zm5.33,2.59-2.53-2.59,2.53-2.59,2.53,2.59Z"/>
      <path class="cls-1" d="M141.73,32.71l2.92,3,2.92-3-2.92-3Zm2.92.13-.12-.13.12-.13.12.13Z"/>
      <path class="cls-1" d="M12.84,108.67H9.48V101h3a4.31,4.31,0,0,1,1.35.19,1.94,1.94,0,0,1,.85.51,2,2,0,0,1,.52,1.34,1.58,1.58,0,0,1-.58,1.34,2.18,2.18,0,0,1-.27.19l-.27.13a2,2,0,0,1,1.14.64,1.79,1.79,0,0,1,.42,1.22,2.07,2.07,0,0,1-.55,1.42A2.88,2.88,0,0,1,12.84,108.67Zm-1.65-4.58H12a2.74,2.74,0,0,0,1.06-.15.65.65,0,0,0,.35-.67.69.69,0,0,0-.32-.68,2.54,2.54,0,0,0-1.08-.17h-.82Zm0,3.12h1.18a2.6,2.6,0,0,0,1.11-.18.72.72,0,0,0,.37-.71.69.69,0,0,0-.39-.7,3.36,3.36,0,0,0-1.25-.17h-1Z"/>
      <path class="cls-1" d="M25.82,103.53a2.26,2.26,0,0,1-1.46,2.39l1.95,2.75H24.19l-1.71-2.45H21.3v2.45H19.58V101H22.5a4.18,4.18,0,0,1,2.56.61A2.33,2.33,0,0,1,25.82,103.53Zm-2.07.91a1.16,1.16,0,0,0,.32-.91,1,1,0,0,0-.33-.85,2.12,2.12,0,0,0-1.15-.23H21.3v2.28h1.25A1.85,1.85,0,0,0,23.75,104.44Z"/>
      <path class="cls-1" d="M35.59,108.67,34.87,107H31.65l-.71,1.66H29.11L32.43,101h1.66l3.32,7.69Zm-2.32-5.4-1,2.23h1.93Z"/>
      <path class="cls-1" d="M46.22,101h1.72v7.69H46.22l-3.66-4.82v4.82H40.84V101h1.61l3.77,5Z"/>
      <path class="cls-1" d="M58.23,102a3.6,3.6,0,0,1,1.1,2.8,3.78,3.78,0,0,1-1.07,2.84,4.53,4.53,0,0,1-3.27,1H52.35V101h2.72A4.52,4.52,0,0,1,58.23,102ZM57,106.55a2.26,2.26,0,0,0,.63-1.73,2.31,2.31,0,0,0-.63-1.74,2.7,2.7,0,0,0-1.94-.61h-1v4.68h1.09A2.54,2.54,0,0,0,57,106.55Z"/>
      <path class="cls-1" d="M68.78,101h1.72v7.69H68.78Z"/>
      <path class="cls-1" d="M80.79,102a3.61,3.61,0,0,1,1.1,2.8,3.78,3.78,0,0,1-1.07,2.84,4.52,4.52,0,0,1-3.27,1H74.91V101h2.72A4.51,4.51,0,0,1,80.79,102Zm-1.26,4.57a2.25,2.25,0,0,0,.63-1.73,2.31,2.31,0,0,0-.63-1.74,2.7,2.7,0,0,0-1.94-.61h-1v4.68h1.09A2.54,2.54,0,0,0,79.53,106.55Z"/>
      <path class="cls-1" d="M91.45,101v1.53H87.62v1.58h3.44v1.46H87.62v1.6h3.95v1.52H85.9V101Z"/>
      <path class="cls-1" d="M101,101h1.72v7.69H101l-3.66-4.82v4.82H95.63V101h1.61l3.77,5Z"/>
      <path class="cls-1" d="M110.4,102.46v6.2h-1.72v-6.2h-2.18V101h6.07v1.49Z"/>
      <path class="cls-1" d="M116.36,101h1.72v7.69h-1.72Z"/>
      <path class="cls-1" d="M125.76,102.46v6.2H124v-6.2h-2.18V101h6.07v1.49Z"/>
      <path class="cls-1" d="M135,108.67h-1.72v-3L130.65,101h1.86l1.66,2.86,1.66-2.86h1.86L135,105.63Z"/>
    </g>
  </g>
</svg>
