<?xml version="1.0" encoding="utf-8"?>
<!-- Generator: Adobe Illustrator 24.1.0, SVG Export Plug-In . SVG Version: 6.00 Build 0)  -->
<svg version="1.1" id="Layer_1" xmlns="http://www.w3.org/2000/svg" xmlns:xlink="http://www.w3.org/1999/xlink" x="0px" y="0px"
	 viewBox="0 0 154 114" style="enable-background:new 0 0 154 114;" xml:space="preserve">
<style type="text/css">
	.st0{fill:#B5B5B5;}
</style>
<g>
	<path class="st0" d="M70.2,67.7c-0.6,0-1.1-0.5-1.1-1.1V54.5c0-0.1-0.1-0.2-0.2-0.2H45.9c-0.6,0-1.1-0.5-1.1-1.1V29.5
		c0-0.6,0.5-1.1,1.1-1.1h37.9c0.6,0,1.1,0.5,1.1,1.1v12.1c0,0.1,0.1,0.2,0.2,0.2h22.9c0.6,0,1.1,0.5,1.1,1.1v23.7
		c0,0.6-0.5,1.1-1.1,1.1H70.2z M71.5,44.1c-0.1,0-0.2,0.1-0.2,0.2v21c0,0.1,0.1,0.2,0.2,0.2h35.2c0.1,0,0.2-0.1,0.2-0.2v-21
		c0-0.1-0.1-0.2-0.2-0.2H71.5z M47.3,30.6c-0.1,0-0.2,0.1-0.2,0.2v21c0,0.1,0.1,0.2,0.2,0.2h21.6c0.1,0,0.2-0.1,0.2-0.2v-8.9
		c0-0.6,0.5-1.1,1.1-1.1h12.3c0.1,0,0.2-0.1,0.2-0.2V30.8c0-0.1-0.1-0.2-0.2-0.2H47.3z"/>
	<path class="st0" d="M77.7,52.8c-0.3,0-0.5-0.2-0.5-0.5v-1.8c0-0.3,0.2-0.5,0.5-0.5h14.6c0.3,0,0.5,0.2,0.5,0.5v1.8
		c0,0.3-0.2,0.5-0.5,0.5H77.7z"/>
	<path class="st0" d="M77.7,59.6c-0.3,0-0.5-0.2-0.5-0.5v-1.8c0-0.3,0.2-0.5,0.5-0.5h8.4c0.3,0,0.5,0.2,0.5,0.5v1.8
		c0,0.3-0.2,0.5-0.5,0.5H77.7z"/>
</g>
<g>
	<path class="st0" d="M15.7,109.1c0.3,0.4,0.4,0.8,0.4,1.3c0,0.7-0.3,1.3-0.9,1.7c-0.6,0.4-1.4,0.6-2.5,0.6H8.4v-8.4h4.1
		c1,0,1.8,0.2,2.4,0.6c0.5,0.4,0.8,0.9,0.8,1.6c0,0.4-0.1,0.8-0.3,1.1c-0.2,0.3-0.5,0.6-0.8,0.8C15.1,108.5,15.4,108.8,15.7,109.1z
		 M10.4,105.8v2h1.9c0.5,0,0.8-0.1,1.1-0.3c0.2-0.2,0.4-0.4,0.4-0.7s-0.1-0.6-0.4-0.7c-0.2-0.2-0.6-0.2-1.1-0.2H10.4z M13.8,111
		c0.3-0.2,0.4-0.4,0.4-0.8c0-0.7-0.5-1-1.5-1h-2.3v2.1h2.3C13.1,111.3,13.5,111.2,13.8,111z"/>
	<path class="st0" d="M20.7,111.9c-0.7-0.7-1-1.6-1-2.8v-4.7h1.9v4.6c0,1.5,0.6,2.3,1.9,2.3c0.6,0,1.1-0.2,1.4-0.5
		c0.3-0.4,0.5-0.9,0.5-1.7v-4.6h1.9v4.7c0,1.2-0.3,2.2-1,2.8s-1.6,1-2.8,1S21.4,112.5,20.7,111.9z"/>
	<path class="st0" d="M32,112.6c-0.6-0.2-1.1-0.4-1.5-0.7l0.7-1.5c0.4,0.3,0.8,0.5,1.3,0.6s1,0.2,1.5,0.2c0.6,0,1-0.1,1.2-0.2
		c0.3-0.2,0.4-0.4,0.4-0.7c0-0.2-0.1-0.4-0.2-0.5c-0.2-0.1-0.4-0.2-0.6-0.3s-0.6-0.2-1-0.3c-0.6-0.2-1.2-0.3-1.6-0.5
		c-0.4-0.2-0.8-0.4-1-0.7c-0.3-0.3-0.4-0.8-0.4-1.3c0-0.5,0.1-0.9,0.4-1.3c0.3-0.4,0.7-0.7,1.2-0.9c0.5-0.2,1.2-0.3,2-0.3
		c0.5,0,1.1,0.1,1.6,0.2c0.5,0.1,1,0.3,1.3,0.6l-0.6,1.5c-0.8-0.4-1.6-0.7-2.3-0.7c-0.5,0-0.9,0.1-1.2,0.3s-0.4,0.4-0.4,0.7
		c0,0.3,0.2,0.5,0.5,0.6s0.8,0.3,1.4,0.4c0.6,0.2,1.2,0.3,1.6,0.5c0.4,0.2,0.8,0.4,1,0.7s0.4,0.8,0.4,1.3c0,0.5-0.1,0.9-0.4,1.3
		c-0.3,0.4-0.7,0.7-1.2,0.9c-0.5,0.2-1.2,0.3-2,0.3C33.2,112.9,32.6,112.8,32,112.6z"/>
	<path class="st0" d="M41,104.3h1.9v8.4H41V104.3z"/>
	<path class="st0" d="M54.8,104.3v8.4h-1.6l-4.2-5.1v5.1H47v-8.4h1.6l4.2,5.1v-5.1H54.8z"/>
	<path class="st0" d="M65.4,111.2v1.6h-6.5v-8.4h6.3v1.6h-4.4v1.8h3.9v1.5h-3.9v1.9H65.4z"/>
	<path class="st0" d="M69.9,112.6c-0.6-0.2-1.1-0.4-1.5-0.7l0.7-1.5c0.4,0.3,0.8,0.5,1.3,0.6s1,0.2,1.5,0.2c0.6,0,1-0.1,1.2-0.2
		c0.3-0.2,0.4-0.4,0.4-0.7c0-0.2-0.1-0.4-0.2-0.5c-0.2-0.1-0.4-0.2-0.6-0.3s-0.6-0.2-1-0.3c-0.6-0.2-1.2-0.3-1.6-0.5
		c-0.4-0.2-0.8-0.4-1-0.7c-0.3-0.3-0.4-0.8-0.4-1.3c0-0.5,0.1-0.9,0.4-1.3c0.3-0.4,0.7-0.7,1.2-0.9c0.5-0.2,1.2-0.3,2-0.3
		c0.5,0,1.1,0.1,1.6,0.2c0.5,0.1,1,0.3,1.3,0.6l-0.6,1.5c-0.8-0.4-1.6-0.7-2.3-0.7c-0.5,0-0.9,0.1-1.2,0.3s-0.4,0.4-0.4,0.7
		c0,0.3,0.2,0.5,0.5,0.6s0.8,0.3,1.4,0.4c0.6,0.2,1.2,0.3,1.6,0.5c0.4,0.2,0.8,0.4,1,0.7s0.4,0.8,0.4,1.3c0,0.5-0.1,0.9-0.4,1.3
		c-0.3,0.4-0.7,0.7-1.2,0.9c-0.5,0.2-1.2,0.3-2,0.3C71.2,112.9,70.6,112.8,69.9,112.6z"/>
	<path class="st0" d="M79.8,112.6c-0.6-0.2-1.1-0.4-1.5-0.7l0.7-1.5c0.4,0.3,0.8,0.5,1.3,0.6s1,0.2,1.5,0.2c0.6,0,1-0.1,1.2-0.2
		c0.3-0.2,0.4-0.4,0.4-0.7c0-0.2-0.1-0.4-0.2-0.5c-0.2-0.1-0.4-0.2-0.6-0.3s-0.6-0.2-1-0.3c-0.6-0.2-1.2-0.3-1.6-0.5
		c-0.4-0.2-0.8-0.4-1-0.7c-0.3-0.3-0.4-0.8-0.4-1.3c0-0.5,0.1-0.9,0.4-1.3c0.3-0.4,0.7-0.7,1.2-0.9c0.5-0.2,1.2-0.3,2-0.3
		c0.5,0,1.1,0.1,1.6,0.2c0.5,0.1,1,0.3,1.3,0.6l-0.6,1.5c-0.8-0.4-1.6-0.7-2.3-0.7c-0.5,0-0.9,0.1-1.2,0.3s-0.4,0.4-0.4,0.7
		c0,0.3,0.2,0.5,0.5,0.6s0.8,0.3,1.4,0.4c0.6,0.2,1.2,0.3,1.6,0.5c0.4,0.2,0.8,0.4,1,0.7s0.4,0.8,0.4,1.3c0,0.5-0.1,0.9-0.4,1.3
		c-0.3,0.4-0.7,0.7-1.2,0.9c-0.5,0.2-1.2,0.3-2,0.3C81,112.9,80.4,112.8,79.8,112.6z"/>
	<path class="st0" d="M96,112.3c-0.7-0.4-1.2-0.9-1.6-1.5c-0.4-0.7-0.6-1.4-0.6-2.2s0.2-1.6,0.6-2.2c0.4-0.7,0.9-1.2,1.6-1.5
		c0.7-0.4,1.5-0.6,2.3-0.6c0.7,0,1.4,0.1,2,0.4s1.1,0.6,1.5,1.1l-1.2,1.2c-0.6-0.7-1.3-1-2.1-1c-0.5,0-1,0.1-1.4,0.3
		c-0.4,0.2-0.7,0.5-1,1c-0.2,0.4-0.3,0.9-0.3,1.4c0,0.5,0.1,1,0.3,1.4c0.2,0.4,0.5,0.7,1,1c0.4,0.2,0.9,0.3,1.4,0.3
		c0.8,0,1.5-0.3,2.1-1l1.2,1.2c-0.4,0.5-0.9,0.9-1.5,1.1s-1.3,0.4-2,0.4C97.5,112.9,96.7,112.7,96,112.3z"/>
	<path class="st0" d="M110.6,110.9h-3.9l-0.7,1.8h-2l3.7-8.4h1.9l3.8,8.4h-2L110.6,110.9z M110,109.5l-1.3-3.2l-1.3,3.2H110z"/>
	<path class="st0" d="M121.8,112.7l-1.6-2.3h-0.1h-1.7v2.3h-1.9v-8.4h3.6c0.7,0,1.4,0.1,1.9,0.4c0.5,0.2,1,0.6,1.3,1.1
		s0.4,1,0.4,1.6s-0.2,1.2-0.5,1.6c-0.3,0.5-0.7,0.8-1.3,1l1.9,2.7H121.8z M121.3,106.3c-0.3-0.3-0.7-0.4-1.3-0.4h-1.6v2.9h1.6
		c0.6,0,1-0.1,1.3-0.4c0.3-0.3,0.5-0.6,0.5-1.1C121.8,106.9,121.6,106.5,121.3,106.3z"/>
	<path class="st0" d="M127.4,104.3h3.8c0.9,0,1.7,0.2,2.4,0.5c0.7,0.3,1.2,0.8,1.6,1.5c0.4,0.6,0.6,1.4,0.6,2.2s-0.2,1.6-0.6,2.2
		c-0.4,0.6-0.9,1.1-1.6,1.5c-0.7,0.3-1.5,0.5-2.4,0.5h-3.8V104.3z M131.1,111.1c0.8,0,1.5-0.2,2-0.7s0.8-1.1,0.8-1.9
		s-0.2-1.4-0.8-1.9c-0.5-0.5-1.2-0.7-2-0.7h-1.8v5.2H131.1z"/>
	<path class="st0" d="M140.1,112.6c-0.6-0.2-1.1-0.4-1.5-0.7l0.7-1.5c0.4,0.3,0.8,0.5,1.3,0.6s1,0.2,1.5,0.2c0.6,0,1-0.1,1.2-0.2
		c0.3-0.2,0.4-0.4,0.4-0.7c0-0.2-0.1-0.4-0.2-0.5c-0.2-0.1-0.4-0.2-0.6-0.3s-0.6-0.2-1-0.3c-0.6-0.2-1.2-0.3-1.6-0.5
		c-0.4-0.2-0.8-0.4-1-0.7c-0.3-0.3-0.4-0.8-0.4-1.3c0-0.5,0.1-0.9,0.4-1.3c0.3-0.4,0.7-0.7,1.2-0.9c0.5-0.2,1.2-0.3,2-0.3
		c0.5,0,1.1,0.1,1.6,0.2c0.5,0.1,1,0.3,1.3,0.6l-0.6,1.5c-0.8-0.4-1.6-0.7-2.3-0.7c-0.5,0-0.9,0.1-1.2,0.3s-0.4,0.4-0.4,0.7
		c0,0.3,0.2,0.5,0.5,0.6s0.8,0.3,1.4,0.4c0.6,0.2,1.2,0.3,1.6,0.5c0.4,0.2,0.8,0.4,1,0.7s0.4,0.8,0.4,1.3c0,0.5-0.1,0.9-0.4,1.3
		c-0.3,0.4-0.7,0.7-1.2,0.9c-0.5,0.2-1.2,0.3-2,0.3C141.4,112.9,140.7,112.8,140.1,112.6z"/>
</g>
</svg>
