<?xml version="1.0" encoding="utf-8"?>
<!-- Generator: Adobe Illustrator 23.1.1, SVG Export Plug-In . SVG Version: 6.00 Build 0)  -->
<svg version="1.1" id="Layer_1" xmlns="http://www.w3.org/2000/svg" xmlns:xlink="http://www.w3.org/1999/xlink" x="0px" y="0px"
	 viewBox="0 0 154 114" style="enable-background:new 0 0 154 114;" xml:space="preserve">
<style type="text/css">
	.st0{fill:#B5B5B5;}
</style>
<path class="st0" d="M98.7,74.7h-12c-0.7,0-1.2-0.6-1.2-1.2V51.7c0-0.7,0.6-1.2,1.2-1.2h8.2v-7h-8.2c-0.7,0-1.2-0.6-1.2-1.2v-4.4
	c0-2,0.6-3.6,1.9-4.8c2.3-2.2,5.8-2,6-2l1.6,0v-7.3c-8.1,0-10,0.4-13.6,3.7c-4.6,4.2-3.8,14.4-3.8,14.5c0,0,0,0.1,0,0.1v0.2
	c0,0.7-0.6,1.2-1.2,1.2h-5.1v7h5.1c0.7,0,1.2,0.6,1.2,1.2v21.7c0,0.7-0.6,1.2-1.2,1.2H54.7c-5.6,0-10.1-4.6-10.1-10.1V20.6
	c0-5.6,4.6-10.1,10.1-10.1h43.9c5.6,0,10.1,4.6,10.1,10.1v43.9C108.8,70.2,104.3,74.7,98.7,74.7z M87.9,72.2h10.7
	c4.2,0,7.6-3.4,7.6-7.6V20.6c0-4.2-3.4-7.6-7.6-7.6H54.7c-4.2,0-7.6,3.4-7.6,7.6v43.9c0,4.2,3.4,7.6,7.6,7.6H75V53h-5.1
	c-0.7,0-1.2-0.6-1.2-1.2v-9.5c0-0.7,0.6-1.2,1.2-1.2h5.1c-0.1-3.1,0.1-11.3,4.7-15.4c4.6-4.2,7.6-4.4,16.6-4.4h0
	c0.3,0,0.6,0.1,0.9,0.4s0.4,0.6,0.4,0.9v9.8c0,0.7-0.6,1.2-1.2,1.2h-3c-0.1,0-2.7-0.1-4.2,1.4c-0.7,0.7-1.1,1.7-1.1,3V41h8.2
	c0.7,0,1.2,0.6,1.2,1.2v9.5c0,0.7-0.6,1.2-1.2,1.2h-8.2V72.2z"/>
<g>
	<path class="st0" d="M33.2,105.8v2.2h3.9v1.6h-3.9v3h-1.9v-8.4h6.3v1.6H33.2z"/>
	<path class="st0" d="M46.9,110.8H43l-0.7,1.8h-2l3.7-8.4H46l3.7,8.4h-2L46.9,110.8z M46.3,109.3l-1.3-3.2l-1.3,3.2H46.3z"/>
	<path class="st0" d="M55,112.2c-0.7-0.4-1.2-0.9-1.6-1.5c-0.4-0.7-0.6-1.4-0.6-2.2c0-0.8,0.2-1.6,0.6-2.2c0.4-0.7,0.9-1.2,1.6-1.5
		s1.5-0.6,2.3-0.6c0.7,0,1.4,0.1,2,0.4s1.1,0.6,1.5,1.1l-1.2,1.1c-0.6-0.7-1.3-1-2.1-1c-0.5,0-1,0.1-1.4,0.3s-0.7,0.5-0.9,0.9
		c-0.2,0.4-0.3,0.9-0.3,1.4s0.1,1,0.3,1.4c0.2,0.4,0.5,0.7,0.9,0.9c0.4,0.2,0.9,0.3,1.4,0.3c0.8,0,1.5-0.3,2.1-1l1.2,1.1
		c-0.4,0.5-0.9,0.9-1.5,1.1c-0.6,0.3-1.2,0.4-2,0.4C56.5,112.7,55.7,112.6,55,112.2z"/>
	<path class="st0" d="M71.4,111v1.6h-6.5v-8.4h6.3v1.6h-4.4v1.8h3.9v1.5h-3.9v1.9H71.4z"/>
	<path class="st0" d="M83.5,109c0.3,0.4,0.4,0.8,0.4,1.3c0,0.7-0.3,1.3-0.9,1.7s-1.4,0.6-2.5,0.6h-4.3v-8.4h4.1c1,0,1.8,0.2,2.3,0.6
		c0.5,0.4,0.8,0.9,0.8,1.6c0,0.4-0.1,0.8-0.3,1.1c-0.2,0.3-0.5,0.6-0.8,0.8C82.9,108.4,83.3,108.7,83.5,109z M78.2,105.7v2h1.9
		c0.5,0,0.8-0.1,1.1-0.3c0.2-0.2,0.4-0.4,0.4-0.7s-0.1-0.6-0.4-0.7c-0.2-0.2-0.6-0.2-1.1-0.2H78.2z M81.6,110.9
		c0.3-0.2,0.4-0.4,0.4-0.8c0-0.7-0.5-1-1.5-1h-2.3v2.1h2.3C81,111.1,81.3,111.1,81.6,110.9z"/>
	<path class="st0" d="M90,112.2c-0.7-0.4-1.2-0.9-1.6-1.5c-0.4-0.7-0.6-1.4-0.6-2.2s0.2-1.6,0.6-2.2c0.4-0.7,0.9-1.2,1.6-1.5
		c0.7-0.4,1.5-0.6,2.3-0.6s1.6,0.2,2.3,0.6c0.7,0.4,1.2,0.9,1.6,1.5c0.4,0.7,0.6,1.4,0.6,2.2s-0.2,1.6-0.6,2.2
		c-0.4,0.7-0.9,1.2-1.6,1.5s-1.5,0.6-2.3,0.6S90.7,112.6,90,112.2z M93.7,110.8c0.4-0.2,0.7-0.5,0.9-0.9c0.2-0.4,0.3-0.9,0.3-1.4
		s-0.1-1-0.3-1.4c-0.2-0.4-0.5-0.7-0.9-0.9c-0.4-0.2-0.8-0.3-1.3-0.3s-0.9,0.1-1.3,0.3c-0.4,0.2-0.7,0.5-0.9,0.9
		c-0.2,0.4-0.3,0.9-0.3,1.4s0.1,1,0.3,1.4c0.2,0.4,0.5,0.7,0.9,0.9c0.4,0.2,0.8,0.3,1.3,0.3S93.3,111,93.7,110.8z"/>
	<path class="st0" d="M102.9,112.2c-0.7-0.4-1.2-0.9-1.6-1.5c-0.4-0.7-0.6-1.4-0.6-2.2s0.2-1.6,0.6-2.2c0.4-0.7,0.9-1.2,1.6-1.5
		c0.7-0.4,1.5-0.6,2.3-0.6s1.6,0.2,2.3,0.6c0.7,0.4,1.2,0.9,1.6,1.5c0.4,0.7,0.6,1.4,0.6,2.2s-0.2,1.6-0.6,2.2
		c-0.4,0.7-0.9,1.2-1.6,1.5s-1.5,0.6-2.3,0.6S103.6,112.6,102.9,112.2z M106.6,110.8c0.4-0.2,0.7-0.5,0.9-0.9
		c0.2-0.4,0.3-0.9,0.3-1.4s-0.1-1-0.3-1.4c-0.2-0.4-0.5-0.7-0.9-0.9c-0.4-0.2-0.8-0.3-1.3-0.3s-0.9,0.1-1.3,0.3
		c-0.4,0.2-0.7,0.5-0.9,0.9c-0.2,0.4-0.3,0.9-0.3,1.4s0.1,1,0.3,1.4c0.2,0.4,0.5,0.7,0.9,0.9c0.4,0.2,0.8,0.3,1.3,0.3
		S106.2,111,106.6,110.8z"/>
	<path class="st0" d="M117.2,109.3l-1.1,1.2v2.1h-1.9v-8.4h1.9v3.9l3.7-3.9h2.1l-3.5,3.7l3.7,4.6h-2.3L117.2,109.3z"/>
</g>
</svg>
