<?xml version="1.0" encoding="utf-8"?>
<!-- Generator: Adobe Illustrator 23.1.1, SVG Export Plug-In . SVG Version: 6.00 Build 0)  -->
<svg version="1.1" id="Layer_1" xmlns="http://www.w3.org/2000/svg" xmlns:xlink="http://www.w3.org/1999/xlink" x="0px" y="0px"
	 viewBox="0 0 154 114" style="enable-background:new 0 0 154 114;" xml:space="preserve">
<style type="text/css">
	.st0{fill:#B5B5B5;}
</style>
<g>
	<path class="st0" d="M27.9,77.2h45.6v-62H27.9V77.2z M71.3,17.4v57.7H30V17.4H71.3z"/>
	<path class="st0" d="M80.5,15.2v62h45.6v-62H80.5z M82.7,75.1V17.4H124v57.7H82.7z"/>
	<path class="st0" d="M63.7,30.4c-7.8-5.3-18.2-5.3-26,0l-1.4-1.5c8.7-5.9,20.1-5.9,28.8,0L63.7,30.4z"/>
	<g>
		<path class="st0" d="M86.9,22.4v12.7h16V22.4H86.9z M88.8,33.2v-9h12.3v9H88.8z"/>
	</g>
	<path class="st0" d="M58.7,56.7l-8-4.2l-8,4.2l1.5-8.9l-6.5-6.3l8.9-1.3l4-8.1l4,8.1l8.9,1.3l-6.5,6.3L58.7,56.7z M50.7,50.3
		l5.3,2.8l-1-5.9l4.3-4.2l-6-0.9l-2.7-5.4L48,42.1l-6,0.9l4.3,4.2l-1,5.9L50.7,50.3z"/>
	<rect x="40.2" y="62.8" class="st0" width="21" height="1.6"/>
	<rect x="43.2" y="67.5" class="st0" width="15" height="1.6"/>
	<g>
		<path class="st0" d="M103.5,56.8v12.7h16V56.8H103.5z M105.3,67.7v-9h12.3v9H105.3z"/>
	</g>
	<rect x="106" y="22.4" class="st0" width="13.3" height="1.6"/>
	<rect x="106" y="27.9" class="st0" width="11.8" height="1.6"/>
	<rect x="106" y="33.5" class="st0" width="11.2" height="1.6"/>
	<rect x="86.9" y="42.2" class="st0" width="31.9" height="1.6"/>
	<rect x="86.9" y="48.3" class="st0" width="26.2" height="1.6"/>
	<rect x="86.9" y="56.8" class="st0" width="12.2" height="1.6"/>
	<rect x="86.9" y="62.3" class="st0" width="13.4" height="1.6"/>
	<rect x="86.9" y="67.9" class="st0" width="12.1" height="1.6"/>
</g>
<g>
	<path class="st0" d="M53,105.8v2.3h4v1.6h-4v3.1h-2v-8.6h6.5v1.6H53z"/>
	<path class="st0" d="M62.2,104.2h2v7h4.3v1.6h-6.3V104.2z"/>
	<path class="st0" d="M76.3,109.7v3h-2v-3.1l-3.3-5.5h2.1l2.3,3.8l2.3-3.8h1.9L76.3,109.7z"/>
	<path class="st0" d="M90.4,111.1v1.6h-6.6v-8.6h6.5v1.6h-4.5v1.9h4v1.5h-4v2H90.4z"/>
	<path class="st0" d="M100.9,112.7l-1.7-2.4h-0.1h-1.7v2.4h-2v-8.6h3.7c0.8,0,1.4,0.1,2,0.4s1,0.6,1.3,1.1s0.5,1,0.5,1.7
		s-0.2,1.2-0.5,1.6s-0.7,0.8-1.3,1.1l1.9,2.8H100.9z M100.4,106.2c-0.3-0.3-0.8-0.4-1.4-0.4h-1.6v3H99c0.6,0,1-0.1,1.4-0.4
		c0.3-0.3,0.5-0.6,0.5-1.1C100.8,106.8,100.7,106.4,100.4,106.2z"/>
</g>
</svg>
