<?xml version="1.0" encoding="utf-8"?>
<!-- Generator: Adobe Illustrator 23.1.1, SVG Export Plug-In . SVG Version: 6.00 Build 0)  -->
<svg version="1.1" id="Layer_1" xmlns="http://www.w3.org/2000/svg" xmlns:xlink="http://www.w3.org/1999/xlink" x="0px" y="0px"
	 viewBox="0 0 154 114" style="enable-background:new 0 0 154 114;" xml:space="preserve">
<style type="text/css">
	.st0{fill:#B5B5B5;}
</style>
<g>
	<path class="st0" d="M28.5,104.2h1.9v8.4h-1.9V104.2z"/>
	<path class="st0" d="M42.9,104.2v8.4h-1.6l-4.2-5.1v5.1h-1.9v-8.4h1.6l4.2,5.1v-5.1H42.9z"/>
	<path class="st0" d="M48.6,112.5c-0.6-0.2-1.1-0.4-1.5-0.7l0.7-1.5c0.4,0.3,0.8,0.5,1.3,0.6c0.5,0.2,1,0.2,1.5,0.2
		c0.5,0,1-0.1,1.2-0.2s0.4-0.4,0.4-0.7c0-0.2-0.1-0.4-0.2-0.5c-0.2-0.1-0.4-0.2-0.6-0.3c-0.2-0.1-0.6-0.2-1-0.3
		c-0.6-0.2-1.2-0.3-1.6-0.5c-0.4-0.2-0.8-0.4-1-0.7c-0.3-0.3-0.4-0.8-0.4-1.3c0-0.5,0.1-0.9,0.4-1.3c0.3-0.4,0.7-0.7,1.2-0.9
		c0.5-0.2,1.2-0.3,1.9-0.3c0.5,0,1.1,0.1,1.6,0.2c0.5,0.1,1,0.3,1.3,0.5l-0.6,1.5c-0.8-0.4-1.5-0.7-2.3-0.7c-0.5,0-0.9,0.1-1.2,0.3
		s-0.4,0.4-0.4,0.7c0,0.3,0.1,0.5,0.4,0.6c0.3,0.1,0.8,0.3,1.4,0.4c0.6,0.2,1.2,0.3,1.6,0.5s0.8,0.4,1,0.7c0.3,0.3,0.4,0.8,0.4,1.3
		c0,0.5-0.1,0.9-0.4,1.3c-0.3,0.4-0.7,0.7-1.2,0.9c-0.5,0.2-1.2,0.3-1.9,0.3C49.8,112.7,49.2,112.7,48.6,112.5z"/>
	<path class="st0" d="M59.8,105.8h-2.7v-1.6h7.3v1.6h-2.7v6.8h-1.9V105.8z"/>
	<path class="st0" d="M73.4,110.8h-3.9l-0.7,1.8h-2l3.7-8.4h1.9l3.7,8.4h-2L73.4,110.8z M72.8,109.3l-1.3-3.2l-1.3,3.2H72.8z"/>
	<path class="st0" d="M85.5,108.3h1.8v3.4c-0.5,0.3-1,0.6-1.6,0.8c-0.6,0.2-1.2,0.3-1.8,0.3c-0.9,0-1.6-0.2-2.3-0.6
		s-1.2-0.9-1.6-1.5c-0.4-0.7-0.6-1.4-0.6-2.2c0-0.8,0.2-1.6,0.6-2.2c0.4-0.7,0.9-1.2,1.6-1.5c0.7-0.4,1.5-0.6,2.4-0.6
		c0.7,0,1.4,0.1,2,0.4c0.6,0.2,1.1,0.6,1.5,1.1l-1.2,1.1c-0.6-0.6-1.3-0.9-2.2-0.9c-0.5,0-1,0.1-1.4,0.3s-0.7,0.5-1,0.9
		c-0.2,0.4-0.3,0.9-0.3,1.4c0,0.5,0.1,1,0.3,1.4c0.2,0.4,0.6,0.7,1,0.9c0.4,0.2,0.9,0.3,1.4,0.3c0.6,0,1.1-0.1,1.5-0.4V108.3z"/>
	<path class="st0" d="M97.2,112.6l-1.6-2.3h-0.1h-1.7v2.3h-1.9v-8.4h3.6c0.7,0,1.4,0.1,1.9,0.4c0.5,0.2,1,0.6,1.3,1.1
		c0.3,0.5,0.4,1,0.4,1.6c0,0.6-0.1,1.2-0.4,1.6c-0.3,0.5-0.7,0.8-1.3,1l1.9,2.7H97.2z M96.7,106.2c-0.3-0.3-0.7-0.4-1.3-0.4h-1.6
		v2.9h1.6c0.6,0,1-0.1,1.3-0.4c0.3-0.3,0.5-0.6,0.5-1.1C97.2,106.8,97,106.4,96.7,106.2z"/>
	<path class="st0" d="M109,110.8h-3.9l-0.7,1.8h-2l3.7-8.4h1.9l3.7,8.4h-2L109,110.8z M108.4,109.3l-1.3-3.2l-1.3,3.2H108.4z"/>
	<path class="st0" d="M123.1,112.6l0-5l-2.5,4.1h-0.9l-2.4-4v4.9h-1.8v-8.4h1.6l3.1,5.2l3.1-5.2h1.6l0,8.4H123.1z"/>
</g>
<g>
	<path class="st0" d="M85.2,31.2L85.2,31.2c0-1.6,1.3-2.9,2.9-2.9h0c1.6,0,2.9,1.3,2.9,2.9v0c0,1.6-1.3,2.9-2.9,2.9h0
		C86.5,34.1,85.2,32.8,85.2,31.2z"/>
	<path class="st0" d="M98.7,74.7H54.7c-5.6,0-10.1-4.6-10.1-10.1V20.6c0-5.6,4.6-10.1,10.1-10.1h43.9c5.6,0,10.1,4.6,10.1,10.1v43.9
		C108.8,70.2,104.3,74.7,98.7,74.7z M54.7,13c-4.2,0-7.6,3.4-7.6,7.6v43.9c0,4.2,3.4,7.6,7.6,7.6h43.9c4.2,0,7.6-3.4,7.6-7.6V20.6
		c0-4.2-3.4-7.6-7.6-7.6H54.7z"/>
	<path class="st0" d="M87,63.6H66.4c-5.9,0-10.8-4.8-10.8-10.8V32.3c0-5.9,4.8-10.8,10.8-10.8H87c5.9,0,10.8,4.8,10.8,10.8v20.5
		C97.7,58.8,92.9,63.6,87,63.6z M66.4,24.1c-4.6,0-8.3,3.7-8.3,8.3v20.5c0,4.6,3.7,8.3,8.3,8.3H87c4.6,0,8.3-3.7,8.3-8.3V32.3
		c0-4.6-3.7-8.3-8.3-8.3H66.4z"/>
	<path class="st0" d="M76.7,52.4c-5.4,0-9.8-4.4-9.8-9.8s4.4-9.8,9.8-9.8s9.8,4.4,9.8,9.8S82.1,52.4,76.7,52.4z M76.7,35.3
		c-4,0-7.3,3.3-7.3,7.3s3.3,7.3,7.3,7.3c4,0,7.3-3.3,7.3-7.3S80.7,35.3,76.7,35.3z"/>
</g>
</svg>
