<?xml version="1.0" encoding="utf-8"?>
<!-- Generator: Adobe Illustrator 23.1.1, SVG Export Plug-In . SVG Version: 6.00 Build 0)  -->
<svg version="1.1" id="Layer_1" xmlns="http://www.w3.org/2000/svg" xmlns:xlink="http://www.w3.org/1999/xlink" x="0px" y="0px"
	 viewBox="0 0 154 114" style="enable-background:new 0 0 154 114;" xml:space="preserve">
<style type="text/css">
	.st0{fill:#B5B5B5;}
</style>
<g>
	<path class="st0" d="M37.1,104.2h1.9v6.8h4.2v1.6h-6.1V104.2z"/>
	<path class="st0" d="M47.2,104.2h1.9v8.4h-1.9V104.2z"/>
	<path class="st0" d="M61.7,104.2v8.4h-1.6l-4.2-5.1v5.1H54v-8.4h1.6l4.2,5.1v-5.1H61.7z"/>
	<path class="st0" d="M69.6,109.3l-1.1,1.2v2.1h-1.9v-8.4h1.9v3.9l3.7-3.9h2.1l-3.5,3.7l3.7,4.6h-2.3L69.6,109.3z"/>
	<path class="st0" d="M84.7,111v1.6h-6.5v-8.4h6.3v1.6h-4.4v1.8H84v1.5h-3.9v1.9H84.7z"/>
	<path class="st0" d="M89.1,104.2h3.8c0.9,0,1.7,0.2,2.4,0.5c0.7,0.3,1.2,0.8,1.6,1.5c0.4,0.6,0.6,1.4,0.6,2.2
		c0,0.8-0.2,1.6-0.6,2.2s-0.9,1.1-1.6,1.5c-0.7,0.3-1.5,0.5-2.4,0.5h-3.8V104.2z M92.8,111c0.8,0,1.5-0.2,2-0.7s0.7-1.1,0.7-1.9
		s-0.2-1.4-0.7-1.9c-0.5-0.5-1.2-0.7-2-0.7H91v5.2H92.8z"/>
	<path class="st0" d="M101.8,104.2h1.9v8.4h-1.9V104.2z"/>
	<path class="st0" d="M116.3,104.2v8.4h-1.6l-4.2-5.1v5.1h-1.9v-8.4h1.6l4.2,5.1v-5.1H116.3z"/>
</g>
<g>
	<g>
		<path class="st0" d="M98.7,74.7H54.7c-5.6,0-10.1-4.6-10.1-10.1V20.6c0-5.6,4.6-10.1,10.1-10.1h43.9c5.6,0,10.1,4.6,10.1,10.1
			v43.9C108.8,70.2,104.3,74.7,98.7,74.7z M54.7,13c-4.2,0-7.6,3.4-7.6,7.6v43.9c0,4.2,3.4,7.6,7.6,7.6h43.9c4.2,0,7.6-3.4,7.6-7.6
			V20.6c0-4.2-3.4-7.6-7.6-7.6H54.7z"/>
	</g>
	<g>
		<path class="st0" d="M64.2,65.3h-9c-0.7,0-1.2-0.6-1.2-1.2V35.4c0-0.7,0.6-1.2,1.2-1.2h9c0.7,0,1.2,0.6,1.2,1.2v28.7
			C65.4,64.8,64.9,65.3,64.2,65.3z M56.4,62.8h6.5V36.6h-6.5V62.8z"/>
		<path class="st0" d="M98.8,65.3h-9c-0.7,0-1.2-0.6-1.2-1.2V49.3c0,0-0.1-4.4-2.9-4.6c-1.3-0.1-2.2,0.1-2.9,0.8
			c-1.1,1-1.7,3.1-1.7,6.3v12.4c0,0.7-0.6,1.2-1.2,1.2h-9c-0.7,0-1.2-0.6-1.2-1.2V35.4c0-0.7,0.6-1.2,1.2-1.2h9
			c0.7,0,1.2,0.6,1.2,1.2v0.7c1.8-1.4,4.4-2.8,7.8-2.8c7.7,0,11.2,4.7,11.2,15.3v15.5C100.1,64.8,99.5,65.3,98.8,65.3z M91.1,62.8
			h6.5V48.6c0-11.2-4.2-12.8-8.7-12.8c-4.2,0-6.9,2.5-8.1,4c-0.3,0.4-0.9,0.6-1.4,0.4c-0.5-0.2-0.8-0.6-0.8-1.2v-2.4h-6.5v26.2h6.5
			V51.7c0-3.9,0.8-6.6,2.5-8.1c1.2-1.1,2.8-1.6,4.8-1.4c4.1,0.3,5.2,4.8,5.2,7.1V62.8z"/>
		<path class="st0" d="M59.7,31.3c-3.3,0-6-2.7-6-6s2.7-6,6-6s6,2.7,6,6S63,31.3,59.7,31.3z M59.7,21.9c-1.9,0-3.5,1.6-3.5,3.5
			s1.6,3.5,3.5,3.5s3.5-1.6,3.5-3.5S61.6,21.9,59.7,21.9z"/>
	</g>
</g>
</svg>
