<?xml version="1.0" encoding="utf-8"?>
<svg xmlns="http://www.w3.org/2000/svg"
	xmlns:xlink="http://www.w3.org/1999/xlink"
	width="101px" height="63px" viewBox="0 0 101 63">
<path fillRule="evenodd" d="M 94.74 59.61C 91.18 59.61 88.54 56.92 88.54 53.56 88.54 53.56 88.54 53.52 88.54 53.52 88.54 50.15 91.2 47.43 94.78 47.43 98.34 47.43 100.98 50.11 100.98 53.47 100.98 53.47 100.98 53.52 100.98 53.52 100.98 56.88 98.32 59.61 94.74 59.61ZM 97.76 53.52C 97.76 51.79 96.54 50.29 94.74 50.29 92.87 50.29 91.75 51.75 91.75 53.47 91.75 53.47 91.75 53.52 91.75 53.52 91.75 55.24 92.98 56.75 94.78 56.75 96.64 56.75 97.76 55.28 97.76 53.56 97.76 53.56 97.76 53.52 97.76 53.52ZM 84.88 50.68C 84.88 50.68 83.81 50.68 83.81 50.68 83.81 50.68 83.79 59.34 83.79 59.34 83.79 59.34 80.55 59.34 80.55 59.34 80.55 59.34 80.55 47.67 80.55 47.67 80.55 47.67 85.57 47.67 85.57 47.67 86.29 47.67 87.92 47.97 88.7 49.01 88.7 49.01 87.51 51.57 87.51 51.57 86.83 51.02 86.18 50.68 84.88 50.68ZM 73.61 59.34C 73.61 59.34 69.36 59.34 69.36 59.34 68.63 59.34 66.92 58.99 66.84 56.65 66.84 56.65 66.84 44.07 66.84 44.07 66.84 44.07 73.81 44.07 73.81 44.07 76.87 44.07 78.76 45.62 78.76 48.02 78.76 48.02 78.76 48.06 78.76 48.06 78.76 49.78 77.86 50.74 76.79 51.36 78.53 52.03 79.23 53.06 79.23 55.11 79.23 55.11 79.23 55.15 79.23 55.15 79.23 57.95 77 59.34 73.61 59.34ZM 75.48 48.58C 75.48 47.58 74.71 47.01 73.31 47.01 73.31 47.01 70.06 47.01 70.06 47.01 70.06 47.01 70.06 49.46 70.06 49.46 70.11 50.08 70.54 50.22 70.79 50.24 70.79 50.24 73.1 50.24 73.1 50.24 74.56 50.24 75.48 49.76 75.48 48.63 75.48 48.63 75.48 48.58 75.48 48.58ZM 75.95 54.69C 75.95 53.67 75.04 53.04 73.87 53.04 73.87 53.04 70.06 53.04 70.06 53.04 70.06 53.04 70.06 55.62 70.06 55.62 70.11 56.21 70.5 56.36 70.75 56.4 70.75 56.4 73.61 56.4 73.61 56.4 75.07 56.4 75.95 55.87 75.95 54.74 75.95 54.74 75.95 54.69 75.95 54.69ZM 60.11 24C 60.11 24 51.26 24 51.26 24 53.23 22.81 54.4 21.41 55.57 19.37 55.57 19.37 60.11 19.38 60.11 19.38 62.41 19.38 63.8 18.55 63.8 16.77 63.8 16.77 63.8 16.7 63.8 16.7 63.8 15.09 62.36 14.1 60.52 14.1 60.52 14.1 57.1 14.1 57.1 14.1 57.1 14.1 57.1 9.71 57.1 9.71 57.1 9.71 59.3 9.71 59.3 9.71 61.61 9.71 63.06 8.96 63.06 7.17 63.06 7.17 63.06 7.11 63.06 7.11 63.06 5.53 61.84 4.64 59.64 4.64 59.64 4.64 54.49 4.64 54.49 4.64 54.49 4.64 54.5 13.07 54.49 13.08 54.36 19.16 49.3 24 42.24 24 42.24 24 36.67 24 36.67 24 35.16 23.98 33.14 23.06 32.99 19.94 32.99 19.94 32.99 0.01 32.99 0.01 32.99 0.01 42.24 0.01 42.24 0.01 44.16 0.01 45.14 0.22 46.71 0.84 46.71 0.84 46.71 6.74 46.71 6.74 45.45 5.41 44.42 4.78 42.24 4.78 42.24 4.78 38.21 4.78 38.21 4.78 38.21 4.78 38.21 18.03 38.21 18.03 38.32 19.02 39.01 19.21 39.39 19.24 39.39 19.24 42.24 19.24 42.24 19.24 46.51 19.24 49.39 16.33 49.39 12.08 49.39 12.08 49.41 12.08 49.41 12.08 49.41 12.08 49.41 0.01 49.41 0.01 49.41 0.01 60.42 0.01 60.42 0.01 65.27 0.01 68.25 2.45 68.25 6.22 68.25 6.22 68.25 6.28 68.25 6.28 68.25 8.99 66.82 10.5 65.13 11.46 67.87 12.52 68.99 14.13 68.99 17.35 68.99 17.35 68.99 17.42 68.99 17.42 68.99 21.81 65.46 24 60.11 24ZM 34.03 51.12C 32.89 50.44 31.76 50.02 30.92 50.02 30.13 50.02 29.72 50.37 29.72 50.83 29.72 50.83 29.72 50.88 29.72 50.88 29.72 51.53 30.82 51.84 32.06 52.27 33.67 52.82 35.53 53.6 35.53 55.74 35.53 55.74 35.53 55.79 35.53 55.79 35.53 58.38 33.62 59.56 31.14 59.56 29.53 59.56 27.73 59.02 26.2 57.79 26.2 57.79 27.6 55.61 27.6 55.61 28.84 56.53 30.15 57.01 31.22 57.01 32.17 57.01 32.59 56.66 32.59 56.14 32.59 56.14 32.59 56.09 32.59 56.09 32.59 55.37 31.48 55.13 30.21 54.74 28.61 54.26 26.78 53.49 26.78 51.22 26.78 51.22 26.78 51.18 26.78 51.18 26.78 48.8 28.67 47.47 30.99 47.47 32.44 47.47 34.03 47.97 35.27 48.82 35.27 48.82 34.03 51.12 34.03 51.12ZM 17.93 54.65C 18.25 56.16 19.28 56.94 20.74 56.94 21.83 56.94 22.62 56.59 23.52 55.74 23.52 55.74 25.39 57.42 25.39 57.42 24.32 58.78 22.77 59.61 20.69 59.61 17.24 59.61 14.69 57.14 14.69 53.56 14.69 53.56 14.69 53.52 14.69 53.52 14.69 50.18 17.03 47.43 20.37 47.43 24.21 47.43 25.97 50.46 25.97 53.78 25.97 53.78 25.97 53.82 25.97 53.82 25.97 54.15 25.95 54.35 25.92 54.65 25.92 54.65 17.93 54.65 17.93 54.65ZM 20.37 50.09C 19.02 50.09 18.14 51.07 17.89 52.58 17.89 52.58 22.79 52.58 22.79 52.58 22.6 51.09 21.74 50.09 20.37 50.09ZM 5.86 59.34C 5.86 59.34 2.33 59.34 2.33 59.34 1.38 59.33 0.1 58.75 0.01 56.76 0.01 56.76 0.01 44.07 0.01 44.07 0.01 44.07 5.86 44.07 5.86 44.07 10.58 44.07 13.84 47.36 13.84 51.66 13.84 51.66 13.84 51.7 13.84 51.7 13.84 56.01 10.58 59.34 5.86 59.34ZM 10.39 51.7C 10.39 49 8.56 47.1 5.86 47.1 5.86 47.1 3.31 47.1 3.31 47.1 3.31 47.1 3.31 55.54 3.31 55.54 3.38 56.17 3.81 56.29 4.06 56.31 4.06 56.31 5.86 56.31 5.86 56.31 8.56 56.31 10.39 54.45 10.39 51.75 10.39 51.75 10.39 51.7 10.39 51.7ZM 38.51 42C 39.66 42 40.59 42.95 40.59 44.12 40.59 45.29 39.66 46.24 38.51 46.24 37.36 46.24 36.42 45.29 36.42 44.12 36.42 42.95 37.36 42 38.51 42ZM 40.09 59.34C 40.09 59.34 36.83 59.34 36.83 59.34 36.83 59.34 36.83 47.65 36.83 47.65 36.83 47.65 40.09 47.65 40.09 47.65 40.09 47.65 40.09 59.34 40.09 59.34ZM 46.11 47.68C 46.11 47.68 52.53 47.68 52.53 47.68 52.53 47.68 52.53 56.72 52.53 56.72 52.53 61.13 50.93 63 46.67 63 45.1 63 44.07 62.61 42.91 61.99 42.91 61.99 43.84 59.55 43.84 59.55 44.72 60.07 45.73 60.28 46.58 60.25 48.81 60.18 49.31 59.37 49.31 57.9 49.31 57.9 49.31 57.15 49.31 57.15 48.59 57.95 47.85 58.4 46.11 58.4 43.43 58.4 41.56 56.6 41.56 53.13 41.56 53.13 41.56 53.09 41.56 53.09 41.56 49.59 43.47 47.68 46.11 47.68ZM 44.82 53.13C 44.82 54.74 45.47 55.83 47.05 55.83 48.64 55.83 49.22 54.88 49.22 53.29 49.22 53.29 49.22 50.38 49.22 50.38 49.22 50.38 47.05 50.38 47.05 50.38 45.47 50.38 44.82 51.49 44.82 53.09 44.82 53.09 44.82 53.13 44.82 53.13ZM 65.05 51.96C 65.05 51.96 65.05 59.34 65.05 59.34 65.05 59.34 61.79 59.34 61.79 59.34 61.79 59.34 61.79 53 61.79 53 61.79 51.43 61.07 50.63 59.82 50.63 59.82 50.63 57.79 50.63 57.79 50.63 57.79 50.63 57.78 59.34 57.78 59.34 57.78 59.34 54.53 59.34 54.53 59.34 54.53 59.34 54.53 47.67 54.53 47.67 54.53 47.67 61.15 47.67 61.15 47.67 63.62 47.67 65.05 49.27 65.05 51.96Z" fill="rgb(91,91,91)"/></svg>