<svg width="154" height="114" xmlns="http://www.w3.org/2000/svg" viewBox="0 0 153.17 111.41"><defs><style>.cls-1{fill:#b5b5b5;}</style></defs><title>ill_logo</title><g id="Слой_2" data-name="Слой 2"><g id="logo"><path class="cls-1" d="M74.68,16l-25.2,25.2a1,1,0,0,0,0,1.41l25.2,25.2a1,1,0,0,0,1.41,0l25.2-25.2a1,1,0,0,0,0-1.41L78.39,18.3c-.41-.49-.82-1-1.24-1.43a.5.5,0,0,0-.34-.16L76.09,16A1,1,0,0,0,74.68,16ZM91.81,49.26a.49.49,0,0,0-.23-.25.5.5,0,0,0-.67.22,17.06,17.06,0,0,1-1.45,2.38l-3.73,3.73a16.93,16.93,0,0,1-2.2,1.37.5.5,0,0,0-.21.67.49.49,0,0,0,.18.19L80,61a.5.5,0,0,0-.53.2q-.42.61-.87,1.2l-3.25,3.25-1.23-1.23c-.31-.35-.61-.71-.91-1.07a.5.5,0,0,0-.34-.18l-3.15-3.15a.5.5,0,0,0,.66-.7c-.16-.26-.3-.53-.45-.79.34.12.69.24,1,.34l.14,0a.5.5,0,0,0,.13-1,16.79,16.79,0,0,1-2-.73L69,56.76a.5.5,0,0,0-.67-.23,2.13,2.13,0,0,1-.45.61.5.5,0,0,0,.23.67l.4.17c.33.63.67,1.25,1,1.86l-5-5a.5.5,0,0,0-.05-.67,17,17,0,0,1-2-2.13.5.5,0,0,0-.7-.09.48.48,0,0,0-.07.08L52,42.32h1.65a.5.5,0,0,0,0-1H52.19l8.42-8.42a.49.49,0,0,0,.18.21.5.5,0,0,0,.69-.17A16.91,16.91,0,0,1,63.2,30.6a.49.49,0,0,0,.11-.41l2.88-2.88h0a.5.5,0,0,0,.69.16l.38-.21q-.29.69-.55,1.38a.5.5,0,1,0,.94.35c.32-.84.67-1.68,1.06-2.49.26-.12.51-.25.77-.35a.5.5,0,0,0-.38-.93c-.25.1-.5.23-.74.34a.49.49,0,0,0-.36.17l-.42.21,7.81-7.82L81,23.77a.48.48,0,0,0,0,.11c.23.4.45.8.66,1.21a.49.49,0,0,0-.23.25.5.5,0,0,0,.29.64l.49.21.15.31a.5.5,0,0,0,.82.12c.39.19.78.4,1.16.62a.47.47,0,0,0,.13,0L99.17,41.9Z"/><path class="cls-1" d="M71.27,4.13A.5.5,0,1,0,72,3.42L69.85,1.3a.5.5,0,0,0-.71.71Z"/><path class="cls-1" d="M125.72,58.57l2.12,2.12a.5.5,0,1,0,.71-.71l-2.12-2.12a.5.5,0,0,0-.71.71Z"/><path class="cls-1" d="M139.5,72.15a.5.5,0,0,0,.35-.85l-2.12-2.12a.5.5,0,0,0-.71.71L139.15,72A.5.5,0,0,0,139.5,72.15Z"/><path class="cls-1" d="M133.49,66.35a.5.5,0,0,0,.71-.71l-2.12-2.12a.5.5,0,0,0-.71.71Z"/><path class="cls-1" d="M114.4,47.26l2.12,2.12a.5.5,0,0,0,.71-.71l-2.12-2.12a.5.5,0,0,0-.71.71Z"/><path class="cls-1" d="M149,80.49a.5.5,0,0,0-.71.71l1,1a.5.5,0,1,0,.71-.71Z"/><path class="cls-1" d="M122.18,55a.5.5,0,0,0,.71-.71l-2.12-2.12a.5.5,0,1,0-.71.71Z"/><path class="cls-1" d="M139.09,79.53a.5.5,0,0,0-.71.71l2.12,2.12a.5.5,0,1,0,.71-.71Z"/><path class="cls-1" d="M110.1,51.25a.5.5,0,0,0,0,.71l2.12,2.12a.5.5,0,1,0,.71-.71l-2.12-2.12A.5.5,0,0,0,110.1,51.25Z"/><path class="cls-1" d="M117.87,59.73a.5.5,0,1,0,.71-.71l-2.12-2.12a.5.5,0,0,0-.71.71Z"/><path class="cls-1" d="M123.53,65.39a.5.5,0,1,0,.71-.71l-2.12-2.12a.5.5,0,0,0-.71.71Z"/><path class="cls-1" d="M133.43,73.87a.5.5,0,1,0-.71.71l2.12,2.12a.5.5,0,0,0,.71-.71Z"/><path class="cls-1" d="M129.89,71a.5.5,0,0,0,0-.71l-2.12-2.12a.5.5,0,0,0-.71.71L129.19,71a.5.5,0,0,0,.71,0Z"/><path class="cls-1" d="M144.74,85.19a.5.5,0,0,0-.71.71l.28.28a.5.5,0,1,0,.71-.71Z"/><path class="cls-1" d="M66.27,8.13A.5.5,0,1,0,67,7.42L64.85,5.3a.5.5,0,0,0-.71.71Z"/><path class="cls-1" d="M145.67,42.32a.5.5,0,0,0,0-1h-3a.5.5,0,0,0,0,1Z"/><path class="cls-1" d="M138.17,41.82a.5.5,0,0,0-.5-.5h-3a.5.5,0,0,0,0,1h3A.5.5,0,0,0,138.17,41.82Z"/><path class="cls-1" d="M130.17,41.82a.5.5,0,0,0-.5-.5h-3a.5.5,0,1,0,0,1h3A.5.5,0,0,0,130.17,41.82Z"/><path class="cls-1" d="M122.17,41.82a.5.5,0,0,0-.5-.5h-3a.5.5,0,1,0,0,1h3A.5.5,0,0,0,122.17,41.82Z"/><path class="cls-1" d="M152.67,41.32h-2a.5.5,0,0,0,0,1h2a.5.5,0,0,0,0-1Z"/><path class="cls-1" d="M69.67,41.32h-3a.5.5,0,0,0,0,1h3a.5.5,0,0,0,0-1Z"/><path class="cls-1" d="M90.67,42.32h2a17.12,17.12,0,0,1-.22,2.32.5.5,0,0,0,.41.58h.09a.5.5,0,0,0,.49-.42,18,18,0,0,0,.24-2.49h0a.5.5,0,0,0,0-1h-.24a.45.45,0,0,0-.52,0H90.67a.5.5,0,1,0,0,1Z"/><path class="cls-1" d="M61.67,41.32h-3a.5.5,0,0,0,0,1h3a.5.5,0,0,0,0-1Z"/><path class="cls-1" d="M78.17,41.82a.5.5,0,0,0-.5-.5h-3a.5.5,0,0,0,0,1h3A.5.5,0,0,0,78.17,41.82Z"/><path class="cls-1" d="M29.67,41.32h-3a.5.5,0,0,0,0,1h3a.5.5,0,1,0,0-1Z"/><path class="cls-1" d="M38.17,41.82a.5.5,0,0,0-.5-.5h-3a.5.5,0,0,0,0,1h3A.5.5,0,0,0,38.17,41.82Z"/><path class="cls-1" d="M10.67,42.32h3a.5.5,0,1,0,0-1h-3a.5.5,0,0,0,0,1Z"/><path class="cls-1" d="M5.67,41.32h-3a.5.5,0,0,0,0,1h3a.5.5,0,1,0,0-1Z"/><path class="cls-1" d="M22.17,41.82a.5.5,0,0,0-.5-.5h-3a.5.5,0,0,0,0,1h3A.5.5,0,0,0,22.17,41.82Z"/><path class="cls-1" d="M10.67,6.32h3a.5.5,0,0,0,0-1h-3a.5.5,0,0,0,0,1Z"/><path class="cls-1" d="M26.67,6.32h3a.5.5,0,0,0,0-1h-3a.5.5,0,0,0,0,1Z"/><path class="cls-1" d="M42.67,6.32h3a.5.5,0,0,0,0-1h-3a.5.5,0,0,0,0,1Z"/><path class="cls-1" d="M66.67,6.32h3a.5.5,0,0,0,0-1h-3a.5.5,0,0,0,0,1Z"/><path class="cls-1" d="M82.17,5.82a.5.5,0,0,0,.5.5h2.63L85,6.6a.5.5,0,1,0,.71.71l2.12-2.12a.5.5,0,0,0-.71-.71L86.07,5.54a.49.49,0,0,0-.4-.22h-3A.5.5,0,0,0,82.17,5.82Z"/><path class="cls-1" d="M90.67,6.32h3a.5.5,0,0,0,0-1h-3a.5.5,0,0,0,0,1Z"/><path class="cls-1" d="M114.67,6.32h3a.5.5,0,0,0,0-1h-3a.5.5,0,0,0,0,1Z"/><path class="cls-1" d="M18.67,6.32h3a.5.5,0,0,0,0-1h-3a.5.5,0,0,0,0,1Z"/><path class="cls-1" d="M34.67,6.32h3a.5.5,0,0,0,0-1h-3a.5.5,0,0,0,0,1Z"/><path class="cls-1" d="M130.67,6.32h3a.5.5,0,0,0,0-1h-3a.5.5,0,0,0,0,1Z"/><path class="cls-1" d="M146.67,6.32h3a.5.5,0,0,0,0-1h-3a.5.5,0,0,0,0,1Z"/><path class="cls-1" d="M122.67,6.32h3a.5.5,0,0,0,0-1h-3a.5.5,0,1,0,0,1Z"/><path class="cls-1" d="M141.67,5.32h-3a.5.5,0,0,0,0,1h3a.5.5,0,0,0,0-1Z"/><path class="cls-1" d="M28.75,75.45l-3-.13h0a.56.56,0,0,0,0,1.11l3-.11h0a.44.44,0,1,0,0-.87Z"/><path class="cls-1" d="M92.75,76.15l-3,.17h0c-.27,0-.5.12-.5.4s.22.4.5.4l3,.2h0a.59.59,0,0,0,0-1.17Z"/><path class="cls-1" d="M116.75,76.22l-3,.1h0a.44.44,0,1,0,0,.87l3,.13h0a.55.55,0,0,0,0-1.1Z"/><path class="cls-1" d="M12.75,75.4l-3-.08h0a.53.53,0,0,0,0,1.06l3-.06h0a.46.46,0,1,0,0-.92Z"/><path class="cls-1" d="M124.75,76.24l-3,.08h0a.45.45,0,1,0,0,.9l3,.1h0a.54.54,0,0,0,0-1.08Z"/><path class="cls-1" d="M140.75,77.32a.51.51,0,0,0,0-1l-3,0h0a.47.47,0,1,0,0,.95l3,.05Z"/><path class="cls-1" d="M20.75,75.43l-3-.11h-.06l.94-.94a.5.5,0,0,0-.71-.71L15.8,75.81a.5.5,0,1,0,.71.71l.76-.76a.52.52,0,0,0,0,.1.54.54,0,0,0,.5.54l3-.08h0a.45.45,0,1,0,0-.89Z"/><path class="cls-1" d="M108.75,76.19l-3,.12h0l-.16,0a.49.49,0,0,0-.53-.33c-1,.13-2,.22-2.94.26a.5.5,0,0,0,0,1h0c1,0,2-.14,3-.27l.13,0a.5.5,0,0,0,.43.21l3,.15h0a.57.57,0,0,0,0-1.12Z"/><path class="cls-1" d="M84.75,76.12l-3,.2h0c-.27,0-.5.11-.5.39s.22.39.5.39l3,.22h0a.61.61,0,0,0,0-1.2Z"/><path class="cls-1" d="M60.75,76.32c.27,0,.5-.11.5-.38a.38.38,0,0,0,0-.18l1.25-.4a.5.5,0,0,0-.33-.95c-.93.32-1.88.6-2.83.84a.49.49,0,0,0-.24.16l-1.3-.1h0a.61.61,0,0,0,0,1.2l3-.2Z"/><path class="cls-1" d="M100.75,76.17l-3,.15h0a.68.68,0,0,0-.22,0,.5.5,0,0,0-.34-.18c-1-.09-2-.22-2.93-.39a.5.5,0,0,0-.17,1c1,.18,2,.31,3,.4h0a.49.49,0,0,0,.3-.11.61.61,0,0,0,.3.08l3,.18h0a.58.58,0,0,0,0-1.15Z"/><path class="cls-1" d="M69.25,75.95c0-.28-.22-.37-.5-.38l-1.2-.1,1.08-1.08a.5.5,0,0,0-.71-.71l-1.67,1.67-.5,0h0c-.27,0-.5.34-.5.61s.22.61.5.62h.09a.49.49,0,0,0,.67,0l0,0,2.21-.17h0C69,76.32,69.25,76.22,69.25,75.95Z"/><path class="cls-1" d="M132.75,76.27l-3,.05h0a.46.46,0,1,0,0,.92l3,.08h0a.53.53,0,0,0,0-1.05Z"/><path class="cls-1" d="M4.75,75.38l-3-.06h0a.52.52,0,0,0,0,1l3,0h0a.47.47,0,1,0,0-.94Z"/><path class="cls-1" d="M36.75,75.47l-3-.16h0a.57.57,0,0,0,0,1.13l3-.13h0c.27,0,.5-.14.5-.42S37,75.48,36.75,75.47Z"/><path class="cls-1" d="M148.75,77.32h0a.5.5,0,0,0,0-1h-3a.48.48,0,0,0-.48.39l-1.87-1.87a.5.5,0,0,0-.71.71l2.12,2.12a.5.5,0,0,0,.71,0,.49.49,0,0,0,.14-.4l.09,0Z"/><path class="cls-1" d="M3.46,5.32H2.67a.5.5,0,0,0,0,1h3a.5.5,0,1,0,0-1H4.41a.5.5,0,0,0-.1-.56L2.19,2.63a.5.5,0,0,0-.71.71Z"/><path class="cls-1" d="M19.16,19.6a.5.5,0,0,0-.71.71l2.12,2.12a.5.5,0,0,0,.71,0,.49.49,0,0,0,.12-.24c.52-.8,1.08-1.59,1.66-2.34a.5.5,0,0,0-.79-.61c-.51.65-1,1.33-1.45,2Z"/><path class="cls-1" d="M26.23,28.09a.5.5,0,0,0,.71-.71l-2.12-2.12a.5.5,0,0,0-.71.71Z"/><path class="cls-1" d="M12.8,13.95a.5.5,0,0,0,0,.71l2.12,2.12a.5.5,0,0,0,.71-.71L13.5,13.95A.5.5,0,0,0,12.8,13.95Z"/><path class="cls-1" d="M9.26,11.12a.5.5,0,1,0,.71-.71L7.85,8.29A.5.5,0,0,0,7.14,9Z"/><path class="cls-1" d="M35.42,36.57a.5.5,0,0,0,0,.71l2.12,2.12a.5.5,0,0,0,.71-.71l-2.12-2.12A.5.5,0,0,0,35.42,36.57Z"/><path class="cls-1" d="M76.85,77.29a.64.64,0,0,0,.4-.58.63.63,0,0,0-.42-.59l4.36-4.36.62.39a.5.5,0,1,0,.52-.86L81.92,71,105.55,47.4l1,1a.5.5,0,1,0,.71-.71l-1-1L110,42.9l.82.82a.5.5,0,1,0,.71-.71l-.7-.7h2.79a.5.5,0,0,0,0-1h-3l.87-.87a.5.5,0,0,0-.71-.71l-1,1-3.79-3.79L108,35a.5.5,0,1,0-.71-.71l-1.93,1.93L81.21,12.06c.68-.45,1.38-.88,2.09-1.28a.5.5,0,0,0-.49-.87l-.55.33a.48.48,0,0,0-.07-.1.5.5,0,0,0-.71,0l-1.1,1.1L76.09,6.94h0l.43-.43a.49.49,0,0,0,.12-.19h1a.5.5,0,0,0,0-1h-3a.5.5,0,0,0,0,1h.63L73.69,7.92l0,0L70.59,11,70.51,11a.5.5,0,0,0-.71,0,.49.49,0,0,0-.07.6.49.49,0,0,0,0,.28L68,13.58l0,0-3.47,3.47,0,0-2.12,2.12,0,0-3.47,3.47,0,0L56.71,24.9l0,0-3.47,3.47,0,0-2.12,2.12,0,0-3.47,3.47,0,0L45.4,36.21l0,0L41.9,39.72l0,0-2.12,2.12a.5.5,0,0,0,.68.73h0l4.29,4.29-.63.63a.5.5,0,1,0,.71.71l.63-.63L69,71.17c-.76.47-1.54.91-2.33,1.31a.5.5,0,0,0,.46.89c.88-.45,1.76-.95,2.6-1.48l4.39,4.39-.36,0h0c-.27,0-.5.1-.5.37s.22.38.5.38l1.6.13,1.8,1.8a.5.5,0,0,0,.71-.71Zm27.81-31.82a.45.45,0,0,0-.34.34L75.39,74.74,42.55,41.9,75.39,9.06,108.22,41.9Z"/><path class="cls-1" d="M32.6,33l-2.12-2.12a.5.5,0,0,0-.71.71l2.12,2.12A.5.5,0,0,0,32.6,33Z"/><path class="cls-1" d="M148.7,3.12A.5.5,0,0,0,149,3l1.14-1.14a.5.5,0,0,0-.71-.71l-1.14,1.14a.5.5,0,0,0,.35.85Z"/><path class="cls-1" d="M137.38,14.44a.5.5,0,0,0,.35-.15l2.12-2.12a.5.5,0,0,0-.71-.71L137,13.58a.5.5,0,0,0,.35.85Z"/><path class="cls-1" d="M143,8.78a.5.5,0,0,0,.35-.15l2.12-2.12a.5.5,0,0,0-.71-.71l-2.12,2.12a.5.5,0,0,0,.35.85Z"/><path class="cls-1" d="M71.27,79.34l-2.12,2.12a.5.5,0,1,0,.71.71L72,80a.5.5,0,0,0-.71-.71Z"/><path class="cls-1" d="M114.4,36.92a.5.5,0,0,0,.71,0l2.12-2.12a.5.5,0,0,0-.71-.71l-2.12,2.12A.5.5,0,0,0,114.4,36.92Z"/><path class="cls-1" d="M133.49,17.12l-2.12,2.12a.5.5,0,1,0,.71.71l2.12-2.12a.5.5,0,0,0-.71-.71Z"/><path class="cls-1" d="M126.07,25.75a.5.5,0,0,0,.35-.15l2.12-2.12a.5.5,0,1,0-.71-.71l-2.12,2.12a.5.5,0,0,0,.35.85Z"/><path class="cls-1" d="M120.77,31.26l2.12-2.12a.5.5,0,0,0-.71-.71l-2.12,2.12a.5.5,0,1,0,.71.71Z"/><path class="cls-1" d="M122.51,20.31a.5.5,0,0,0,.35-.15L125,18a.5.5,0,0,0-.71-.71l-2.12,2.12a.5.5,0,0,0,.35.85Z"/><path class="cls-1" d="M117.21,25.82l2.12-2.12a.5.5,0,0,0-.71-.71l-2.12,2.12a.5.5,0,1,0,.71.71Z"/><path class="cls-1" d="M133.47,8.85a.5.5,0,0,0,.71,0l2.12-2.12a.5.5,0,0,0-.71-.71l-2.12,2.12A.5.5,0,0,0,133.47,8.85Z"/><path class="cls-1" d="M113,28.64l-2.12,2.12a.5.5,0,1,0,.71.71l2.12-2.12a.5.5,0,0,0-.71-.71Z"/><path class="cls-1" d="M139.48,3.33a.5.5,0,0,0,.35-.15L141,2a.5.5,0,1,0-.71-.71l-1.18,1.18a.5.5,0,0,0,.35.85Z"/><path class="cls-1" d="M128.17,14.65a.5.5,0,0,0,.35-.15l2.12-2.12a.5.5,0,0,0-.71-.71l-2.12,2.12a.5.5,0,0,0,.35.85Z"/><path class="cls-1" d="M62.27,79.34l-2.12,2.12a.5.5,0,1,0,.71.71L63,80a.5.5,0,0,0-.71-.71Z"/><path class="cls-1" d="M36.21,45.4l-2.12,2.12a.5.5,0,1,0,.71.71l2.12-2.12a.5.5,0,0,0-.71-.71Z"/><path class="cls-1" d="M7.92,73.69,5.8,75.81a.5.5,0,1,0,.71.71l2.12-2.12a.5.5,0,0,0-.71-.71Z"/><path class="cls-1" d="M19.24,62.37l-2.12,2.12a.5.5,0,1,0,.71.71l2.12-2.12a.5.5,0,0,0-.71-.71Z"/><path class="cls-1" d="M2.27,79.34.15,81.46a.5.5,0,1,0,.71.71L3,80a.5.5,0,0,0-.71-.71Z"/><path class="cls-1" d="M13.58,68l-2.12,2.12a.5.5,0,1,0,.71.71l2.12-2.12a.5.5,0,0,0-.71-.71Z"/><path class="cls-1" d="M31.26,51.06a.5.5,0,0,0-.71,0l-2.12,2.12a.5.5,0,1,0,.71.71l2.12-2.12A.5.5,0,0,0,31.26,51.06Z"/><path class="cls-1" d="M24.9,56.71l-2.12,2.12a.5.5,0,1,0,.71.71l2.12-2.12a.5.5,0,0,0-.71-.71Z"/><path class="cls-1" d="M79.7,3.12A.5.5,0,0,0,80,3L82.17.85a.5.5,0,0,0-.71-.71L79.34,2.27a.5.5,0,0,0,.35.85Z"/><path class="cls-1" d="M91,1.8a.5.5,0,0,0,.35-.15L92.06,1a.5.5,0,0,0-.71-.71l-.69.69A.5.5,0,0,0,91,1.8Z"/><path class="cls-1" d="M12.27,79.34l-2.12,2.12a.5.5,0,1,0,.71.71L13,80a.5.5,0,0,0-.71-.71Z"/><path class="cls-1" d="M38.43,53.89a.5.5,0,0,0,.71,0l2.12-2.12a.5.5,0,0,0-.71-.71l-2.12,2.12A.5.5,0,0,0,38.43,53.89Z"/><path class="cls-1" d="M29.24,62.37l-2.12,2.12a.5.5,0,1,0,.71.71l2.12-2.12a.5.5,0,0,0-.71-.71Z"/><path class="cls-1" d="M23.58,68l-2.12,2.12a.5.5,0,1,0,.71.71l2.12-2.12a.5.5,0,0,0-.71-.71Z"/><path class="cls-1" d="M35.6,57.42a.5.5,0,0,0-.71-.71l-2.12,2.12a.5.5,0,1,0,.71.71Z"/><path class="cls-1" d="M65.56,44.49c-.09-1-.14-2-.14-3a.5.5,0,0,0-1,0c0,1,.06,2,.15,3a.5.5,0,0,0,.5.46h0A.5.5,0,0,0,65.56,44.49Z"/><path class="cls-1" d="M66.34,49.35a.5.5,0,0,0-1,.23c.23,1,.51,2,.82,2.93a.5.5,0,0,0,.48.34l.16,0a.5.5,0,0,0,.32-.63C66.84,51.26,66.57,50.31,66.34,49.35Z"/><path class="cls-1" d="M65.17,37.05h.07a.5.5,0,0,0,.5-.43c.13-1,.3-2,.52-2.91a.5.5,0,1,0-1-.22c-.22,1-.4,2-.53,3A.5.5,0,0,0,65.17,37.05Z"/><path class="cls-1" d="M135.86,39.88h0a.5.5,0,0,0,.47-.53c-.05-1-.15-2-.29-3a.5.5,0,0,0-1,.14c.13,1,.23,2,.28,2.94A.5.5,0,0,0,135.86,39.88Z"/><path class="cls-1" d="M134.37,51.72a.5.5,0,0,0-.63.32c-.3.93-.64,1.86-1,2.78a.5.5,0,0,0,.27.65.51.51,0,0,0,.19,0,.5.5,0,0,0,.46-.31c.39-.94.75-1.9,1.05-2.85A.5.5,0,0,0,134.37,51.72Z"/><path class="cls-1" d="M124.41,15.15a.5.5,0,0,0,0,.71c.71.67,1.41,1.39,2.06,2.12a.5.5,0,1,0,.74-.67c-.67-.75-1.39-1.49-2.12-2.18A.5.5,0,0,0,124.41,15.15Z"/><path class="cls-1" d="M129.65,21.17a.5.5,0,0,0-.14.69c.55.82,1.07,1.67,1.54,2.52a.5.5,0,0,0,.88-.48c-.49-.88-1-1.75-1.58-2.6A.5.5,0,0,0,129.65,21.17Z"/><path class="cls-1" d="M119.7,70.53c-.83.54-1.68,1.06-2.53,1.52a.5.5,0,0,0,.24.94.49.49,0,0,0,.24-.06c.88-.48,1.76-1,2.6-1.57a.5.5,0,1,0-.55-.83Z"/><path class="cls-1" d="M125.73,65.49c-.68.71-1.4,1.4-2.13,2.05a.5.5,0,0,0,.33.87.49.49,0,0,0,.33-.13c.75-.67,1.49-1.38,2.19-2.11a.5.5,0,1,0-.72-.69Z"/><path class="cls-1" d="M135.83,43.88a.51.51,0,0,0-.54.46c-.08,1-.21,2-.37,2.93a.5.5,0,0,0,.41.58h.08a.5.5,0,0,0,.49-.42c.17-1,.3-2,.38-3A.5.5,0,0,0,135.83,43.88Z"/><path class="cls-1" d="M129.28,62.48a.5.5,0,0,0,.41-.21c.59-.82,1.15-1.68,1.67-2.54a.5.5,0,1,0-.86-.51c-.5.84-1,1.67-1.62,2.47a.5.5,0,0,0,.12.7A.49.49,0,0,0,129.28,62.48Z"/><path class="cls-1" d="M133.42,28.2a.5.5,0,0,0-.29.65c.35.91.66,1.86.93,2.8a.5.5,0,0,0,.48.36l.14,0a.5.5,0,0,0,.34-.62c-.28-1-.6-1.94-1-2.88A.5.5,0,0,0,133.42,28.2Z"/><path class="cls-1" d="M89.8,75.21a.5.5,0,0,0-.32-.63c-.94-.31-1.87-.66-2.77-1a.5.5,0,0,0-.39.92c.92.39,1.88.75,2.85,1.07l.16,0A.5.5,0,0,0,89.8,75.21Z"/><path class="cls-1" d="M113.33,74.4a.5.5,0,0,0-.64-.29c-.92.34-1.86.65-2.81.92a.5.5,0,0,0,.13,1l.13,0c1-.27,1.95-.59,2.89-.94A.5.5,0,0,0,113.33,74.4Z"/><path class="cls-1" d="M118,10.44a.5.5,0,0,0,.18.68c.85.5,1.68,1,2.48,1.61a.5.5,0,0,0,.58-.82c-.83-.58-1.68-1.14-2.55-1.65A.5.5,0,0,0,118,10.44Z"/><path class="cls-1" d="M110.95,7.93c.94.29,1.87.63,2.78,1a.5.5,0,0,0,.19,0,.5.5,0,0,0,.19-1c-.93-.38-1.9-.73-2.86-1a.5.5,0,0,0-.3,1Z"/><path class="cls-1" d="M90.27,6.77c-1,.29-1.94.61-2.88,1a.5.5,0,0,0,.36.93c.91-.35,1.85-.67,2.8-1a.5.5,0,0,0-.28-1Z"/><path class="cls-1" d="M103.23,6.43c1,.08,2,.2,2.93.36h.08a.5.5,0,0,0,.49-.42.46.46,0,0,0,0-.06h2.93a.5.5,0,0,0,0-1h-3a.5.5,0,0,0-.49.46c-.95-.15-1.91-.27-2.87-.35a.52.52,0,0,0-.54.46A.5.5,0,0,0,103.23,6.43Z"/><path class="cls-1" d="M95.29,6.69h.07c1-.14,2-.24,2.94-.3a.49.49,0,0,0,.24-.09l.13,0h3a.5.5,0,0,0,0-1h-3a.49.49,0,0,0-.27.09.52.52,0,0,0-.16,0c-1,.06-2,.16-3,.31a.5.5,0,0,0,.07,1Z"/><path class="cls-1" d="M16.13,49.32a.5.5,0,0,0-.37.6c.24,1,.53,2,.85,2.92a.5.5,0,0,0,.47.34l.16,0a.5.5,0,0,0,.31-.63c-.31-.93-.59-1.89-.82-2.84A.5.5,0,0,0,16.13,49.32Z"/><path class="cls-1" d="M17.2,29.61a.5.5,0,0,0,.64-.3c.34-.92.72-1.84,1.13-2.73a.5.5,0,1,0-.91-.42c-.43.92-.82,1.86-1.16,2.81A.5.5,0,0,0,17.2,29.61Z"/><path class="cls-1" d="M25.74,66.54a.5.5,0,0,0,0-.71c-.69-.7-1.36-1.44-2-2.19a.5.5,0,0,0-.77.64c.64.78,1.33,1.53,2,2.26a.5.5,0,0,0,.71,0Z"/><path class="cls-1" d="M55.29,6.61c1,.13,2,.3,2.91.51h.11a.5.5,0,0,0,.49-.39.49.49,0,0,0-.11-.42h3a.5.5,0,0,0,0-1h-3a.5.5,0,0,0-.5.5.49.49,0,0,0,.11.3c-.94-.2-1.9-.37-2.85-.49a.5.5,0,0,0-.13,1Z"/><path class="cls-1" d="M62.93,8.51c.92.34,1.83.73,2.72,1.15a.5.5,0,1,0,.43-.9c-.92-.43-1.86-.83-2.8-1.18a.5.5,0,0,0-.35.94Z"/><path class="cls-1" d="M26,16.33a.5.5,0,0,0,.35-.14c.71-.69,1.45-1.35,2.21-2a.5.5,0,1,0-.63-.77c-.78.64-1.54,1.32-2.27,2a.5.5,0,0,0,.35.86Z"/><path class="cls-1" d="M32.32,11.45a.5.5,0,0,0,.26-.07c.84-.51,1.71-1,2.59-1.43a.5.5,0,1,0-.45-.9c-.9.45-1.8.94-2.66,1.47a.5.5,0,0,0,.26.93Z"/><path class="cls-1" d="M20.73,60.33a.5.5,0,0,0,.16-.69c-.52-.84-1-1.71-1.44-2.58a.5.5,0,1,0-.89.45c.45.9,1,1.79,1.48,2.65a.5.5,0,0,0,.69.16Z"/><path class="cls-1" d="M47.38,6.47h0c1-.09,2-.14,3-.15a.37.37,0,0,1,.29,0h3a.5.5,0,0,0,0-1h-3a.38.38,0,0,1-.3,0h0c-1,0-2,.06-3,.16a.5.5,0,0,0,0,1Z"/><path class="cls-1" d="M38.92,74.28c-.92-.33-1.84-.71-2.74-1.12a.5.5,0,0,0-.42.91c.92.42,1.87.81,2.82,1.15l.17,0a.5.5,0,0,0,.17-1Z"/><path class="cls-1" d="M39.57,8.11l.16,0c.93-.31,1.89-.58,2.84-.81a.5.5,0,1,0-.23-1c-1,.23-2,.51-2.93.83a.5.5,0,0,0,.16,1Z"/><path class="cls-1" d="M46.58,76.08l-1.34-.19c0-.26-.22-.39-.49-.39l-3-.18h0a.58.58,0,0,0,0,1.15l1.43-.07a.49.49,0,0,0,.29.19c1,.2,2,.36,3,.48h.06a.5.5,0,0,0,.06-1Z"/><path class="cls-1" d="M15.9,44.83c-.1-1-.15-2-.17-3a.51.51,0,0,0-.51-.49.5.5,0,0,0-.49.51c0,1,.08,2,.17,3a.5.5,0,0,0,.5.45h0A.5.5,0,0,0,15.9,44.83Z"/><path class="cls-1" d="M54.45,76.12l-1.38.12a.35.35,0,0,0,.18-.31c0-.28-.22-.4-.5-.4l-3-.21h0a.6.6,0,0,0,0,1.18l1.48-.09a.49.49,0,0,0-.22.41.5.5,0,0,0,.5.49h0c1,0,2-.09,3-.19a.5.5,0,0,0-.11-1Z"/><path class="cls-1" d="M31.86,70.8c-.83-.53-1.64-1.1-2.42-1.7a.5.5,0,1,0-.61.79c.8.61,1.64,1.2,2.49,1.75a.5.5,0,0,0,.54-.84Z"/><path class="cls-1" d="M15.5,33.84c-.21,1-.38,2-.5,3a.5.5,0,0,0,.43.56h.06A.5.5,0,0,0,16,37c.12-1,.29-2,.49-2.91a.5.5,0,1,0-1-.21Z"/><path class="cls-1" d="M84.54,30.48a.5.5,0,0,0-.33.62c.29.94.54,1.9.74,2.86a.5.5,0,0,0,.49.4h.11a.5.5,0,0,0,.38-.59c-.21-1-.47-2-.76-2.94A.5.5,0,0,0,84.54,30.48Z"/><path class="cls-1" d="M85.64,38.84c.06.81.09,1.65.09,2.47H82.67a.5.5,0,0,0,0,1h3a.44.44,0,0,1,.55,0h0a.5.5,0,0,0,.5-.49v-.49c0-.85,0-1.71-.09-2.54a.51.51,0,0,0-.53-.46A.5.5,0,0,0,85.64,38.84Z"/><path class="cls-1" d="M85.88,46.29a.51.51,0,0,0-.57.42c-.15,1-.34,1.95-.58,2.9a.5.5,0,0,0,.37.6h.12a.5.5,0,0,0,.49-.38c.24-1,.44-2,.59-3A.5.5,0,0,0,85.88,46.29Z"/><path class="cls-1" d="M83.89,54a.5.5,0,0,0-.65.28c-.36.91-.77,1.81-1.21,2.7a.5.5,0,0,0,.89.45c.46-.91.88-1.84,1.25-2.77A.5.5,0,0,0,83.89,54Z"/><path class="cls-1" d="M79,58.28a17,17,0,0,1-2.9.29.5.5,0,0,0,0,1h0a17.89,17.89,0,0,0,3.07-.31.5.5,0,0,0,.4-.58A.51.51,0,0,0,79,58.28Z"/><path class="cls-1" d="M92.56,39.84a.5.5,0,0,0,.5.44h.06a.5.5,0,0,0,.44-.55,17.82,17.82,0,0,0-.61-3A.5.5,0,1,0,92,37,16.89,16.89,0,0,1,92.56,39.84Z"/><path class="cls-1" d="M75.82,24.9a8.63,8.63,0,0,1,1.26,0,.51.51,0,0,0,.54-.46.5.5,0,0,0-.46-.54q-.66,0-1.32,0c-.57,0-1.18,0-1.76.09a.5.5,0,0,0,0,1h0C74.72,24.93,75.27,24.9,75.82,24.9Z"/><path class="cls-1" d="M59.33,45.09a.5.5,0,1,0-1,.2,17.71,17.71,0,0,0,.87,3,.5.5,0,1,0,.93-.37A16.7,16.7,0,0,1,59.33,45.09Z"/><path class="cls-1" d="M58.52,40.71h0a.5.5,0,0,0,.5-.46,16.78,16.78,0,0,1,.5-2.86.5.5,0,1,0-1-.26,17.74,17.74,0,0,0-.53,3A.5.5,0,0,0,58.52,40.71Z"/><path class="cls-1" d="M54.95,111.31V102.8h1.9v6.81h3.63v1.69Z"/><path class="cls-1" d="M71.58,110.13a4.63,4.63,0,0,1-6.35,0,4.45,4.45,0,0,1,0-6.27,4.63,4.63,0,0,1,6.35,0,4.45,4.45,0,0,1,0,6.27ZM70.93,107a2.78,2.78,0,0,0-.73-1.94,2.41,2.41,0,0,0-3.59,0,2.94,2.94,0,0,0,0,3.87,2.42,2.42,0,0,0,3.59,0A2.76,2.76,0,0,0,70.93,107Z"/><path class="cls-1" d="M82.8,107h1.91v3a4.46,4.46,0,0,1-3.5,1.41,4.33,4.33,0,0,1-3.15-1.24,4.49,4.49,0,0,1,0-6.29,4.31,4.31,0,0,1,3.13-1.27,4.63,4.63,0,0,1,3.18,1.2l-1,1.42a3.74,3.74,0,0,0-1.05-.69,2.83,2.83,0,0,0-1-.19,2.49,2.49,0,0,0-1.82.74,2.94,2.94,0,0,0,0,3.87,2.3,2.3,0,0,0,1.7.72,3.26,3.26,0,0,0,1.64-.38Z"/><path class="cls-1" d="M96.35,110.13a4.63,4.63,0,0,1-6.35,0,4.45,4.45,0,0,1,0-6.27,4.63,4.63,0,0,1,6.35,0,4.45,4.45,0,0,1,0,6.27ZM95.71,107a2.78,2.78,0,0,0-.73-1.94,2.41,2.41,0,0,0-3.59,0,2.94,2.94,0,0,0,0,3.87,2.42,2.42,0,0,0,3.59,0A2.76,2.76,0,0,0,95.71,107Z"/></g></g></svg>
