<?xml version="1.0" encoding="utf-8"?>
<!-- Generator: Adobe Illustrator 24.1.0, SVG Export Plug-In . SVG Version: 6.00 Build 0)  -->
<svg version="1.1" id="Layer_1" xmlns="http://www.w3.org/2000/svg" xmlns:xlink="http://www.w3.org/1999/xlink" x="0px" y="0px"
	 viewBox="0 0 154 114" style="enable-background:new 0 0 154 114;" xml:space="preserve">
<style type="text/css">
	.st0{fill:#B5B5B5;}
</style>
<g>
	<path class="st0" d="M16.8,112.5l0-5l-2.4,4.1h-0.9l-2.4-4v4.9H9.2v-8.3h1.6l3.1,5.2l3.1-5.2h1.6l0,8.3H16.8z"/>
	<path class="st0" d="M27.7,110.7h-3.9l-0.7,1.8h-2l3.7-8.3h1.9l3.7,8.3h-2L27.7,110.7z M27.1,109.2l-1.3-3.2l-1.3,3.2H27.1z"/>
	<path class="st0" d="M38.5,108.2h1.8v3.4c-0.5,0.3-1,0.6-1.6,0.8c-0.6,0.2-1.2,0.3-1.8,0.3c-0.9,0-1.6-0.2-2.3-0.6
		c-0.7-0.4-1.2-0.9-1.6-1.5s-0.6-1.4-0.6-2.2c0-0.8,0.2-1.6,0.6-2.2s0.9-1.2,1.6-1.5c0.7-0.4,1.5-0.6,2.4-0.6c0.7,0,1.4,0.1,2,0.4
		c0.6,0.2,1.1,0.6,1.5,1.1l-1.2,1.1c-0.6-0.6-1.3-0.9-2.2-0.9c-0.5,0-1,0.1-1.4,0.3c-0.4,0.2-0.7,0.5-1,0.9
		c-0.2,0.4-0.3,0.9-0.3,1.4c0,0.5,0.1,1,0.3,1.4c0.2,0.4,0.5,0.7,1,0.9c0.4,0.2,0.9,0.3,1.4,0.3c0.6,0,1.1-0.1,1.5-0.4V108.2z"/>
	<path class="st0" d="M49.2,110.7h-3.9l-0.7,1.8h-2l3.7-8.3h1.9l3.7,8.3h-2L49.2,110.7z M48.6,109.2l-1.3-3.2l-1.3,3.2H48.6z"/>
	<path class="st0" d="M61.2,110.9v1.6h-7.3v-1.2l4.6-5.5H54v-1.6h7v1.2l-4.6,5.5H61.2z"/>
	<path class="st0" d="M64.3,104.2h1.9v8.3h-1.9V104.2z"/>
	<path class="st0" d="M77.5,104.2v8.3h-1.6l-4.1-5v5h-1.9v-8.3h1.6l4.1,5v-5H77.5z"/>
	<path class="st0" d="M87.6,110.9v1.5h-6.4v-8.3h6.3v1.5h-4.4v1.8h3.9v1.5h-3.9v1.9H87.6z"/>
	<path class="st0" d="M97.5,112.1c-0.7-0.4-1.2-0.9-1.6-1.5c-0.4-0.7-0.6-1.4-0.6-2.2c0-0.8,0.2-1.6,0.6-2.2
		c0.4-0.7,0.9-1.2,1.6-1.5c0.7-0.4,1.5-0.6,2.3-0.6c0.7,0,1.4,0.1,2,0.4c0.6,0.3,1.1,0.6,1.5,1.1l-1.2,1.1c-0.6-0.6-1.3-1-2.1-1
		c-0.5,0-1,0.1-1.4,0.3c-0.4,0.2-0.7,0.5-0.9,0.9s-0.3,0.9-0.3,1.4s0.1,1,0.3,1.4c0.2,0.4,0.5,0.7,0.9,0.9c0.4,0.2,0.9,0.3,1.4,0.3
		c0.8,0,1.5-0.3,2.1-1l1.2,1.1c-0.4,0.5-0.9,0.9-1.5,1.1c-0.6,0.3-1.2,0.4-2,0.4C99,112.6,98.2,112.4,97.5,112.1z"/>
	<path class="st0" d="M107.5,112.1c-0.7-0.4-1.2-0.9-1.6-1.5c-0.4-0.7-0.6-1.4-0.6-2.2c0-0.8,0.2-1.5,0.6-2.2
		c0.4-0.7,0.9-1.2,1.6-1.5s1.5-0.6,2.3-0.6c0.9,0,1.6,0.2,2.3,0.6s1.2,0.9,1.6,1.5c0.4,0.7,0.6,1.4,0.6,2.2c0,0.8-0.2,1.6-0.6,2.2
		c-0.4,0.7-0.9,1.2-1.6,1.5c-0.7,0.4-1.5,0.6-2.3,0.6C108.9,112.6,108.2,112.4,107.5,112.1z M111.1,110.7c0.4-0.2,0.7-0.5,0.9-0.9
		c0.2-0.4,0.3-0.9,0.3-1.4s-0.1-1-0.3-1.4s-0.5-0.7-0.9-0.9c-0.4-0.2-0.8-0.3-1.3-0.3c-0.5,0-0.9,0.1-1.3,0.3
		c-0.4,0.2-0.7,0.5-0.9,0.9s-0.3,0.9-0.3,1.4s0.1,1,0.3,1.4c0.2,0.4,0.5,0.7,0.9,0.9c0.4,0.2,0.8,0.3,1.3,0.3
		C110.3,111,110.7,110.9,111.1,110.7z"/>
	<path class="st0" d="M124.8,104.2l-3.6,8.3h-1.9l-3.6-8.3h2.1l2.5,5.9l2.6-5.9H124.8z"/>
	<path class="st0" d="M133.6,110.9v1.5h-6.4v-8.3h6.3v1.5H129v1.8h3.9v1.5H129v1.9H133.6z"/>
	<path class="st0" d="M142,112.5l-1.6-2.3h-0.1h-1.7v2.3h-1.9v-8.3h3.6c0.7,0,1.4,0.1,1.9,0.4c0.5,0.2,1,0.6,1.3,1s0.4,1,0.4,1.6
		c0,0.6-0.1,1.2-0.4,1.6c-0.3,0.4-0.7,0.8-1.3,1l1.9,2.7H142z M141.6,106.1c-0.3-0.2-0.7-0.4-1.3-0.4h-1.6v2.9h1.6
		c0.6,0,1-0.1,1.3-0.4c0.3-0.3,0.5-0.6,0.5-1.1C142,106.7,141.9,106.4,141.6,106.1z"/>
</g>
<g>
	<path class="st0" d="M99.7,16.1h-46c-0.7,0-1.2,0.5-1.2,1.2v56.6c0,0.7,0.5,1.2,1.2,1.2h46c0.7,0,1.2-0.5,1.2-1.2V17.2
		C100.8,16.6,100.3,16.1,99.7,16.1z M54.5,18.4h1v54.2h-1V18.4z M98.5,72.6H56.4V18.4h42.1V72.6z"/>
	<path class="st0" d="M61.2,26.2h31.3c0.6,0,0.7-0.4,0.7-0.8V24c0-0.4-0.1-0.8-0.7-0.8H61.2c-0.6,0-0.7,0.4-0.7,0.8v1.4
		C60.5,25.9,60.6,26.2,61.2,26.2z"/>
	<path class="st0" d="M80.6,59.2H61.4c-0.4,0-0.8,0.3-0.8,0.8v1.2c0,0.4,0.3,0.8,0.8,0.8h19.2c0.4,0,0.8-0.3,0.8-0.8V60
		C81.3,59.6,81,59.2,80.6,59.2z"/>
	<path class="st0" d="M72.2,64.3H61.4c-0.4,0-0.8,0.3-0.8,0.8v1.2c0,0.4,0.3,0.8,0.8,0.8h10.9c0.4,0,0.8-0.3,0.8-0.8v-1.2
		C73,64.7,72.7,64.3,72.2,64.3z"/>
	<path class="st0" d="M92.4,64.3h-4.6c-0.4,0-0.8,0.3-0.8,0.8v1.2c0,0.4,0.3,0.8,0.8,0.8h4.6c0.4,0,0.8-0.3,0.8-0.8v-1.2
		C93.2,64.7,92.8,64.3,92.4,64.3z"/>
	<path class="st0" d="M61.4,32.2h10.9c0.4,0,0.8-0.3,0.8-0.8v-1.2c0-0.4-0.3-0.8-0.8-0.8H61.4c-0.4,0-0.8,0.3-0.8,0.8v1.2
		C60.6,31.9,61,32.2,61.4,32.2z"/>
	<path class="st0" d="M60.6,46.1c0,0.4,0.3,0.8,0.8,0.8h6.7c0.4,0,0.8-0.3,0.8-0.8v-1.2c0-0.4-0.3-0.8-0.8-0.8h-6.7
		c-0.4,0-0.8,0.3-0.8,0.8V46.1z"/>
	<path class="st0" d="M60.6,51.2c0,0.4,0.3,0.8,0.8,0.8h5c0.4,0,0.8-0.3,0.8-0.8v-1.2c0-0.4-0.3-0.8-0.8-0.8h-5
		c-0.4,0-0.8,0.3-0.8,0.8V51.2z"/>
	<path class="st0" d="M85.7,37.2l-3.2-6.4c-0.3-0.4-0.7-0.7-1.3-0.7c-0.6,0-1.1,0.2-1.3,0.7l-3.2,6.4l-7,1.1c-0.5,0.1-0.9,0.5-1.1,1
		c-0.1,0.5,0,1,0.4,1.3l5.1,4.9l-1.2,7c0,0.5,0.2,1.1,0.6,1.3c0.2,0.2,0.5,0.3,0.8,0.3s0.5,0,0.5-0.2l6.3-3.3l6.3,3.3
		c0.2,0.1,0.5,0.2,0.7,0.2c0.3,0,0.6-0.1,0.8-0.3c0.5-0.3,0.7-0.9,0.6-1.3l-1.2-7l5.1-4.9c0.4-0.3,0.6-0.9,0.4-1.3
		c-0.1-0.6-0.6-0.9-1.1-1L85.7,37.2z M86.3,44.1c-0.3,0.3-0.5,0.7-0.4,1.3l1,5.3l-4.8-2.5c-0.2-0.1-0.5-0.2-0.7-0.2S80.8,48,80.6,48
		l-4.8,2.5l1-5.3c0.1-0.4-0.1-1-0.4-1.3l-3.8-3.8l5.3-0.7c0.5-0.1,1-0.4,1.2-0.8l2.2-4.8l2.4,4.9c0.2,0.4,0.6,0.7,1.2,0.8l5.3,0.7
		L86.3,44.1z"/>
</g>
</svg>
