<?xml version="1.0" encoding="utf-8"?>
<!-- Generator: Adobe Illustrator 23.1.1, SVG Export Plug-In . SVG Version: 6.00 Build 0)  -->
<svg version="1.1" id="Layer_1" xmlns="http://www.w3.org/2000/svg" xmlns:xlink="http://www.w3.org/1999/xlink" x="0px" y="0px"
	 viewBox="0 0 154 114" style="enable-background:new 0 0 154 114;" xml:space="preserve">
<style type="text/css">
	.st0{fill:#B5B5B5;}
</style>
<g>
	<path class="st0" d="M44.5,10.4v64.3h64.3V10.4H44.5z M104.5,43.5h2.3c-0.1,4.7-1.4,9.2-3.4,13.1l-7.6-13.1h4.1
		c0.3,0,0.5-0.2,0.5-0.5s-0.2-0.5-0.5-0.5h-4.7l-17.4-30c16,0.6,28.9,13.8,29,30h-2.3c-0.3,0-0.5,0.2-0.5,0.5S104.2,43.5,104.5,43.5
		z M76.8,70.2c-0.3,0-0.5,0.2-0.5,0.5v2c-10.4-0.1-19.5-5.5-24.8-13.6h50.4c-5.3,8.1-14.3,13.4-24.6,13.6v-2
		C77.3,70.4,77.1,70.2,76.8,70.2z M49.1,42.5h-2.5c0-16.2,13-29.5,29.1-30l-17.4,30h-4.5c-0.3,0-0.5,0.2-0.5,0.5s0.2,0.5,0.5,0.5h4
		l-7.6,13.2c-2.1-4-3.3-8.4-3.5-13.2h2.5c0.3,0,0.5-0.2,0.5-0.5S49.4,42.5,49.1,42.5z M101.4,57.1H52.1l24.6-42.6L101.4,57.1z
		 M46.5,12.4h19c-8.8,3.3-15.7,10.2-19,19V12.4z M46.5,72.8v-19c3.3,8.8,10.2,15.7,19,19H46.5z M106.9,72.8h-19
		c8.8-3.3,15.7-10.2,19-19V72.8z M87.9,12.4h19v19C103.6,22.7,96.6,15.7,87.9,12.4z"/>
	<path class="st0" d="M77.3,60.6c0-0.3-0.2-0.5-0.5-0.5s-0.5,0.2-0.5,0.5v5.5c0,0.3,0.2,0.5,0.5,0.5s0.5-0.2,0.5-0.5V60.6z"/>
	<path class="st0" d="M76.8,36.1c0.3,0,0.5-0.2,0.5-0.5v-5.5c0-0.3-0.2-0.5-0.5-0.5s-0.5,0.2-0.5,0.5v5.5
		C76.3,35.9,76.5,36.1,76.8,36.1z"/>
	<path class="st0" d="M77.3,40.2c0-0.3-0.2-0.5-0.5-0.5s-0.5,0.2-0.5,0.5v2.3H74c-0.3,0-0.5,0.2-0.5,0.5s0.2,0.5,0.5,0.5h2.3v2.3
		c0,0.3,0.2,0.5,0.5,0.5s0.5-0.2,0.5-0.5v-2.3h2.3c0.3,0,0.5-0.2,0.5-0.5s-0.2-0.5-0.5-0.5h-2.3V40.2z"/>
	<path class="st0" d="M76.3,19.9v5.5c0,0.3,0.2,0.5,0.5,0.5s0.5-0.2,0.5-0.5v-5.5c0-0.3-0.2-0.5-0.5-0.5S76.3,19.6,76.3,19.9z"/>
	<path class="st0" d="M76.8,49.9c-0.3,0-0.5,0.2-0.5,0.5v5.5c0,0.3,0.2,0.5,0.5,0.5s0.5-0.2,0.5-0.5v-5.5
		C77.3,50.1,77.1,49.9,76.8,49.9z"/>
	<path class="st0" d="M84.2,43.5h5.5c0.3,0,0.5-0.2,0.5-0.5s-0.2-0.5-0.5-0.5h-5.5c-0.3,0-0.5,0.2-0.5,0.5S83.9,43.5,84.2,43.5z"/>
	<path class="st0" d="M69.4,42.5h-5.5c-0.3,0-0.5,0.2-0.5,0.5s0.2,0.5,0.5,0.5h5.5c0.3,0,0.5-0.2,0.5-0.5S69.7,42.5,69.4,42.5z"/>
</g>
<g>
	<path class="st0" d="M51.8,112.8l0-4.7l-2.3,3.9h-0.8l-2.3-3.8v4.6h-1.7v-7.8h1.5l2.9,4.9l2.9-4.9h1.5l0,7.8H51.8z"/>
	<path class="st0" d="M63.2,111.1h-3.6l-0.7,1.7H57l3.5-7.8h1.8l3.5,7.8h-1.9L63.2,111.1z M62.7,109.7l-1.2-3l-1.2,3H62.7z"/>
	<path class="st0" d="M76.5,104.9v7.8H75l-3.9-4.8v4.8h-1.8v-7.8h1.5l3.9,4.8v-4.8H76.5z"/>
	<path class="st0" d="M81.9,112c-0.6-0.6-0.9-1.5-0.9-2.7v-4.4h1.8v4.3c0,1.4,0.6,2.1,1.7,2.1c0.6,0,1-0.2,1.3-0.5
		c0.3-0.3,0.4-0.9,0.4-1.6v-4.3h1.8v4.4c0,1.1-0.3,2-0.9,2.7s-1.5,0.9-2.6,0.9C83.4,112.9,82.6,112.6,81.9,112z"/>
	<path class="st0" d="M97.6,111.1h-3.6l-0.7,1.7h-1.9l3.5-7.8h1.8l3.5,7.8h-1.9L97.6,111.1z M97,109.7l-1.2-3l-1.2,3H97z"/>
	<path class="st0" d="M103.7,104.9h1.8v6.4h3.9v1.5h-5.7V104.9z"/>
</g>
</svg>
