<?xml version="1.0" encoding="utf-8"?>
<!-- Generator: Adobe Illustrator 24.1.0, SVG Export Plug-In . SVG Version: 6.00 Build 0)  -->
<svg version="1.1" id="Layer_1" xmlns="http://www.w3.org/2000/svg" xmlns:xlink="http://www.w3.org/1999/xlink" x="0px" y="0px"
	 viewBox="0 0 154 114" style="enable-background:new 0 0 154 114;" xml:space="preserve">
<style type="text/css">
	.st0{fill:#B5B5B5;}
</style>
<g>
	<path class="st0" d="M63.1,112.6l0-5l-2.5,4.2h-0.9l-2.5-4v4.9h-1.8v-8.4H57l3.1,5.2l3.1-5.2h1.6l0,8.4H63.1z"/>
	<path class="st0" d="M74.8,111.1v1.6h-6.5v-8.4h6.3v1.6h-4.4v1.8h3.9v1.5h-3.9v1.9H74.8z"/>
	<path class="st0" d="M85.5,104.2v8.4h-1.6l-4.2-5.1v5.1h-1.9v-8.4h1.6l4.2,5.1v-5.1H85.5z"/>
	<path class="st0" d="M89.9,111.8c-0.7-0.7-1-1.6-1-2.8v-4.7h1.9v4.6c0,1.5,0.6,2.3,1.9,2.3c0.6,0,1.1-0.2,1.4-0.5
		c0.3-0.4,0.5-0.9,0.5-1.7v-4.6h1.9v4.7c0,1.2-0.3,2.2-1,2.8s-1.6,1-2.8,1C91.5,112.8,90.6,112.4,89.9,111.8z"/>
</g>
<g>
	<g>
		<g>
			<path class="st0" d="M95.9,21.8H71.3c-0.3,0-0.6-0.3-0.6-0.6v-1.5c0-0.3,0.3-0.6,0.6-0.6h24.6c0.3,0,0.6,0.3,0.6,0.6v1.5
				C96.5,21.6,96.2,21.8,95.9,21.8z"/>
		</g>
		<g>
			<path class="st0" d="M78.9,35.8H57.2c-0.3,0-0.6-0.3-0.6-0.6v-1.5c0-0.3,0.3-0.6,0.6-0.6h21.7c0.3,0,0.6,0.3,0.6,0.6v1.5
				C79.5,35.5,79.3,35.8,78.9,35.8z"/>
			<path class="st0" d="M76.7,50.1H57.2c-0.3,0-0.6-0.3-0.6-0.6V48c0-0.3,0.3-0.6,0.6-0.6h19.5c0.3,0,0.6,0.3,0.6,0.6v1.5
				C77.3,49.8,77.1,50.1,76.7,50.1z"/>
			<path class="st0" d="M81.8,57.3H57.2c-0.3,0-0.6-0.3-0.6-0.6v-1.5c0-0.3,0.3-0.6,0.6-0.6h24.6c0.3,0,0.6,0.3,0.6,0.6v1.5
				C82.5,57,82.2,57.3,81.8,57.3z"/>
			<path class="st0" d="M71.8,43H57.2c-0.3,0-0.6-0.3-0.6-0.6v-1.5c0-0.3,0.3-0.6,0.6-0.6h14.5c0.3,0,0.6,0.3,0.6,0.6v1.5
				C72.4,42.7,72.1,43,71.8,43z"/>
			<path class="st0" d="M72.5,64.4H57.2c-0.3,0-0.6-0.3-0.6-0.6v-1.5c0-0.3,0.3-0.6,0.6-0.6h15.3c0.3,0,0.6,0.3,0.6,0.6v1.5
				C73.1,64.2,72.9,64.4,72.5,64.4z"/>
			<path class="st0" d="M79.8,71.6H57.2c-0.3,0-0.6-0.3-0.6-0.6v-1.5c0-0.3,0.3-0.6,0.6-0.6h22.6c0.3,0,0.6,0.3,0.6,0.6V71
				C80.5,71.3,80.2,71.6,79.8,71.6z"/>
		</g>
	</g>
	<path class="st0" d="M67.9,17.5L64.2,17l-1.6-3.3c-0.2-0.4-0.8-0.4-1,0L60,17l-3.7,0.5c-0.2,0-0.4,0.2-0.4,0.4
		c-0.1,0.2,0,0.4,0.1,0.6l2.7,2.6l-0.6,3.6c0,0.2,0,0.4,0.2,0.5c0.2,0.1,0.4,0.1,0.6,0l3.3-1.7l3.3,1.7c0.1,0,0.2,0.1,0.2,0.1
		c0.1,0,0.2,0,0.3-0.1c0.2-0.1,0.2-0.3,0.2-0.5l-0.6-3.6l2.7-2.6c0.1-0.1,0.2-0.4,0.1-0.6C68.3,17.7,68.1,17.6,67.9,17.5z
		 M64.2,20.3c-0.1,0.1-0.2,0.3-0.1,0.4l0.4,2.3l-2.1-1.1c0,0-0.1-0.1-0.2-0.1s-0.1,0-0.2,0.1L59.9,23l0.4-2.3c0-0.1,0-0.3-0.1-0.4
		l-1.7-1.6l2.3-0.3c0.2,0,0.3-0.1,0.4-0.3l1-2.1l1,2.1c0.1,0.1,0.2,0.2,0.3,0.3l2.3,0.3L64.2,20.3z"/>
	<g>
		<path class="st0" d="M95.9,64.4h-5.7c-0.3,0-0.6-0.3-0.6-0.6v-1.5c0-0.3,0.3-0.6,0.6-0.6h5.7c0.3,0,0.6,0.3,0.6,0.6v1.5
			C96.5,64.2,96.2,64.4,95.9,64.4z"/>
		<path class="st0" d="M95.9,57.4h-5.7c-0.3,0-0.6-0.3-0.6-0.6v-1.5c0-0.3,0.3-0.6,0.6-0.6h5.7c0.3,0,0.6,0.3,0.6,0.6v1.5
			C96.5,57.1,96.2,57.4,95.9,57.4z"/>
		<path class="st0" d="M95.9,50.3h-5.7c-0.3,0-0.6-0.3-0.6-0.6v-1.5c0-0.3,0.3-0.6,0.6-0.6h5.7c0.3,0,0.6,0.3,0.6,0.6v1.5
			C96.5,50,96.2,50.3,95.9,50.3z"/>
		<path class="st0" d="M95.9,43.2h-5.7c-0.3,0-0.6-0.3-0.6-0.6v-1.5c0-0.3,0.3-0.6,0.6-0.6h5.7c0.3,0,0.6,0.3,0.6,0.6v1.5
			C96.5,42.9,96.2,43.2,95.9,43.2z"/>
		<path class="st0" d="M95.9,35.8h-5.7c-0.3,0-0.6-0.3-0.6-0.6v-1.5c0-0.3,0.3-0.6,0.6-0.6h5.7c0.3,0,0.6,0.3,0.6,0.6v1.5
			C96.5,35.5,96.2,35.8,95.9,35.8z"/>
		<path class="st0" d="M95.9,71.6h-5.7c-0.3,0-0.6-0.3-0.6-0.6v-1.5c0-0.3,0.3-0.6,0.6-0.6h5.7c0.3,0,0.6,0.3,0.6,0.6V71
			C96.5,71.3,96.2,71.6,95.9,71.6z"/>
	</g>
	<g>
		<g>
			<path class="st0" d="M102.6,80.2H50.7c-0.6,0-1.1-0.5-1.1-1.1V8.4c0-0.6,0.5-1.1,1.1-1.1h51.9c0.6,0,1.1,0.5,1.1,1.1v70.7
				C103.7,79.7,103.2,80.2,102.6,80.2z M51.8,78h49.7V9.5H51.8V78z"/>
		</g>
	</g>
</g>
</svg>
