<svg width="153" height="113" xmlns="http://www.w3.org/2000/svg" viewBox="0 0 150.96 109.22"><defs><style>.cls-1{fill:#b5b5b5;}</style></defs><title>ill_packaging</title><g id="Слой_2" data-name="Слой 2"><g id="Package"><path class="cls-1" d="M89,77.29h17l1-19.5v-37L106,.29H89l-1,21H82v-20H25v20H19l-1-21H1L0,20.79v37l1,19.5H18l1-19h6v20H82v-20h6Zm-9-19v18H27v-18a2,2,0,0,0-2-2H22v-1a.5.5,0,0,0-1,0v1H19a2,2,0,0,0-2,1.89l-.9,17.11H2.9L2,57.74V20.84L2.9,2.29H16.09L17,21.38a2,2,0,0,0,2,1.9h6a2,2,0,0,0,2-2v-18H80v18a2,2,0,0,0,2,2h6a2,2,0,0,0,2-1.9l.91-19.1H104l1,18.55v36.9l-.9,17.55H90.9L90,58.18a2,2,0,0,0-2-1.89H82A2,2,0,0,0,80,58.29Z"/><path class="cls-1" d="M29,20.29H28a.5.5,0,0,0,0,1h1a.5.5,0,0,0,0-1Z"/><path class="cls-1" d="M62,20.29H59a.5.5,0,0,0,0,1h3a.5.5,0,0,0,0-1Z"/><path class="cls-1" d="M38,20.29H35a.5.5,0,0,0,0,1h3a.5.5,0,0,0,0-1Z"/><path class="cls-1" d="M46,20.29H43a.5.5,0,0,0,0,1h3a.5.5,0,0,0,0-1Z"/><path class="cls-1" d="M70,20.29H67a.5.5,0,0,0,0,1h3a.5.5,0,0,0,0-1Z"/><path class="cls-1" d="M54,20.29H51a.5.5,0,0,0,0,1h3a.5.5,0,0,0,0-1Z"/><path class="cls-1" d="M78,20.29H76a.5.5,0,0,0,0,1h2a.5.5,0,0,0,0-1Z"/><path class="cls-1" d="M4,20.29H3a.5.5,0,0,0,0,1H4a.5.5,0,0,0,0-1Z"/><path class="cls-1" d="M10,20.29H8a.5.5,0,0,0,0,1h2a.5.5,0,0,0,0-1Z"/><path class="cls-1" d="M16,20.29H14a.5.5,0,0,0,0,1h2a.5.5,0,0,0,0-1Z"/><path class="cls-1" d="M91,21.29h1a.5.5,0,0,0,0-1H91a.5.5,0,0,0,0,1Z"/><path class="cls-1" d="M96,21.29h2a.5.5,0,0,0,0-1H96a.5.5,0,0,0,0,1Z"/><path class="cls-1" d="M102,21.29h2a.5.5,0,0,0,0-1h-2a.5.5,0,0,0,0,1Z"/><path class="cls-1" d="M86.5,23.79a.5.5,0,0,0-.5.5v2a.5.5,0,0,0,1,0v-2A.5.5,0,0,0,86.5,23.79Z"/><path class="cls-1" d="M86.5,37.79a.5.5,0,0,0-.5.5v3a.5.5,0,0,0,1,0v-3A.5.5,0,0,0,86.5,37.79Z"/><path class="cls-1" d="M86.5,29.79a.5.5,0,0,0-.5.5v3a.5.5,0,0,0,1,0v-3A.5.5,0,0,0,86.5,29.79Z"/><path class="cls-1" d="M86.5,45.79a.5.5,0,0,0-.5.5v3a.5.5,0,1,0,1,0v-3A.5.5,0,0,0,86.5,45.79Z"/><path class="cls-1" d="M86.5,53.79a.5.5,0,0,0-.5.5v1a.5.5,0,1,0,1,0v-1A.5.5,0,0,0,86.5,53.79Z"/><path class="cls-1" d="M21.5,23.79a.5.5,0,0,0-.5.5v2a.5.5,0,0,0,1,0v-2A.5.5,0,0,0,21.5,23.79Z"/><path class="cls-1" d="M21.5,30.79a.5.5,0,0,0-.5.5v3a.5.5,0,0,0,1,0v-3A.5.5,0,0,0,21.5,30.79Z"/><path class="cls-1" d="M21.5,46.79a.5.5,0,0,0-.5.5v3a.5.5,0,0,0,1,0v-3A.5.5,0,0,0,21.5,46.79Z"/><path class="cls-1" d="M21.5,38.79a.5.5,0,0,0-.5.5v3a.5.5,0,0,0,1,0v-3A.5.5,0,0,0,21.5,38.79Z"/><path class="cls-1" d="M29,57.29H28a.5.5,0,0,0,0,1h1a.5.5,0,0,0,0-1Z"/><path class="cls-1" d="M46,57.29H43a.5.5,0,0,0,0,1h3a.5.5,0,0,0,0-1Z"/><path class="cls-1" d="M70,57.29H67a.5.5,0,0,0,0,1h3a.5.5,0,0,0,0-1Z"/><path class="cls-1" d="M62,57.29H59a.5.5,0,0,0,0,1h3a.5.5,0,0,0,0-1Z"/><path class="cls-1" d="M38,57.29H35a.5.5,0,0,0,0,1h3a.5.5,0,0,0,0-1Z"/><path class="cls-1" d="M54,57.29H51a.5.5,0,0,0,0,1h3a.5.5,0,0,0,0-1Z"/><path class="cls-1" d="M78,57.29H76a.5.5,0,0,0,0,1h2a.5.5,0,0,0,0-1Z"/><path class="cls-1" d="M4,57.29H3a.5.5,0,0,0,0,1H4a.5.5,0,0,0,0-1Z"/><path class="cls-1" d="M10,57.29H8a.5.5,0,0,0,0,1h2a.5.5,0,0,0,0-1Z"/><path class="cls-1" d="M16,57.29H14a.5.5,0,0,0,0,1h2a.5.5,0,0,0,0-1Z"/><path class="cls-1" d="M91,58.29h1a.5.5,0,0,0,0-1H91a.5.5,0,0,0,0,1Z"/><path class="cls-1" d="M96,58.29h2a.5.5,0,0,0,0-1H96a.5.5,0,0,0,0,1Z"/><path class="cls-1" d="M102,58.29h2a.5.5,0,0,0,0-1h-2a.5.5,0,0,0,0,1Z"/><path class="cls-1" d="M114.44,0V78.43H151V0ZM149,76.43H116.44v-10H149ZM116.44,2.06H149V64.4H116.44Z"/><path class="cls-1" d="M127.55,35.54l5.15,5.15,5.15-5.15-5.15-5.15Zm5.15,2.32-2.32-2.32,2.32-2.32L135,35.54Z"/><path class="cls-1" d="M29,100.74H26v8.38H27.9v-2.34H29a4.41,4.41,0,0,0,2.76-.72,2.73,2.73,0,0,0,.91-2.27,2.86,2.86,0,0,0-.88-2.3A4.31,4.31,0,0,0,29,100.74Zm1.44,4a1.67,1.67,0,0,1-1.27.38H27.9v-2.82H29a2.41,2.41,0,0,1,1.36.31,1.17,1.17,0,0,1,.44,1A1.61,1.61,0,0,1,30.43,104.79Z"/><path class="cls-1" d="M38.95,100.74l-3.62,8.38h2l.78-1.81h3.51l.78,1.81h2l-3.62-8.38Zm-.14,4.93,1.06-2.43,1,2.43Z"/><path class="cls-1" d="M52.09,102.34a2.73,2.73,0,0,1,2.21,1.1l1.16-1.32A4.43,4.43,0,0,0,52,100.55a4.3,4.3,0,0,0-3.12,1.25,4.43,4.43,0,0,0,0,6.2,4.52,4.52,0,0,0,6.55-.38l-1.2-1.24A2.76,2.76,0,0,1,52,107.47a2.34,2.34,0,0,1-1.71-.71,2.54,2.54,0,0,1-.71-1.88,2.4,2.4,0,0,1,.75-1.86A2.57,2.57,0,0,1,52.09,102.34Z"/><path class="cls-1" d="M64.68,100.74l-3.17,3.44v-3.44H59.64v8.38h1.87v-2.37l.84-.94,2.46,3.31H67l-1.74-2.44-1.59-2.24L67,100.74Z"/><path class="cls-1" d="M73.44,100.74l-3.62,8.38h2l.78-1.81h3.51l.78,1.81h2l-3.62-8.38Zm-.14,4.93,1.06-2.43,1,2.43Z"/><path class="cls-1" d="M88,107.16a3.21,3.21,0,0,1-1.62.37,2.27,2.27,0,0,1-1.67-.71,2.89,2.89,0,0,1,0-3.81,2.45,2.45,0,0,1,1.8-.73,2.78,2.78,0,0,1,1,.19,3.69,3.69,0,0,1,1,.68l1-1.4a4.56,4.56,0,0,0-3.14-1.19,4.25,4.25,0,0,0-3.08,1.25,4.43,4.43,0,0,0,0,6.2,4.26,4.26,0,0,0,3.1,1.22,4.4,4.4,0,0,0,3.45-1.39v-3H88Z"/><rect class="cls-1" x="94.36" y="100.74" width="1.87" height="8.38"/><polygon class="cls-1" points="106.91 106.14 102.8 100.75 101.05 100.75 101.05 109.13 102.92 109.13 102.92 103.88 106.91 109.13 108.78 109.13 108.78 100.75 106.91 100.75 106.91 106.14"/><path class="cls-1" d="M119,107.16a3.21,3.21,0,0,1-1.62.37,2.27,2.27,0,0,1-1.67-.71,2.89,2.89,0,0,1,0-3.81,2.45,2.45,0,0,1,1.8-.73,2.78,2.78,0,0,1,1,.19,3.69,3.69,0,0,1,1,.68l1-1.4a4.56,4.56,0,0,0-3.14-1.19,4.25,4.25,0,0,0-3.08,1.25,4.43,4.43,0,0,0,0,6.2,4.26,4.26,0,0,0,3.1,1.22,4.4,4.4,0,0,0,3.45-1.39v-3H119Z"/></g></g></svg>
