<?xml version="1.0" encoding="utf-8"?>
<!-- Generator: Adobe Illustrator 24.1.0, SVG Export Plug-In . SVG Version: 6.00 Build 0)  -->
<svg version="1.1" id="Layer_1" xmlns="http://www.w3.org/2000/svg" xmlns:xlink="http://www.w3.org/1999/xlink" x="0px" y="0px"
	 viewBox="0 0 154 114" style="enable-background:new 0 0 154 114;" xml:space="preserve">
<style type="text/css">
	.st0{fill:#B5B5B5;}
</style>
<g>
	<path class="st0" d="M71.1,40.1L70,46.2c-0.1,0.4,0.1,0.8,0.4,1c0.3,0.2,0.8,0.3,1.1,0.1l5.6-2.9l5.6,2.9c0.2,0.1,0.3,0.1,0.5,0.1
		c0.2,0,0.4-0.1,0.6-0.2c0.3-0.2,0.5-0.6,0.4-1l-1.1-6.2l4.5-4.4c0.3-0.3,0.4-0.7,0.3-1.1c-0.1-0.4-0.5-0.7-0.9-0.7L80.8,33
		l-2.8-5.6c-0.4-0.7-1.6-0.7-1.9,0L73.4,33l-6.2,0.9c-0.4,0.1-0.7,0.3-0.9,0.7c-0.1,0.4,0,0.8,0.3,1.1L71.1,40.1z M74,34.8
		c0.4-0.1,0.7-0.3,0.9-0.6l2.2-4.5l2.2,4.5c0.2,0.3,0.5,0.6,0.9,0.6l4.9,0.7L81.5,39c-0.3,0.3-0.4,0.6-0.3,1l0.8,4.9l-4.4-2.3
		c-0.2-0.1-0.3-0.1-0.5-0.1c-0.2,0-0.4,0-0.5,0.1l-4.4,2.3L73,40c0.1-0.4-0.1-0.7-0.3-1l-3.6-3.5L74,34.8z"/>
	<path class="st0" d="M97.7,38.1c0.3,0.4,0.8,0.6,1.3,0.6c0.3,0,7.1-1.1,13-5.4c0.5-0.4,0.7-1,0.5-1.6c-0.2-0.4-3.8-10.9-9.9-17.4
		c-0.2-0.2-0.3-0.3-0.6-0.4c-0.1,0-11.2-3.8-14.6-6.5c-0.3-0.2-0.6-0.3-0.9-0.3l0-0.1l-0.4,0.1C75,11.3,67.5,7.3,67.4,7.3l-0.2-0.1
		c0,0,0,0,0,0l-0.2-0.1l0,0c-0.4-0.1-0.8,0-1.2,0.3c-3.4,2.7-14.5,6.5-14.6,6.5c-0.2,0.1-0.4,0.2-0.6,0.4c-6.1,6.5-9.8,17-9.9,17.4
		c-0.2,0.6,0,1.2,0.5,1.6c5.8,4.3,12.7,5.4,13,5.4c0.5,0.1,1-0.1,1.3-0.6l0.5-0.7c0.5,26.6-2,36.6-2,36.7c-0.1,0.4,0,0.7,0.2,1
		c0.2,0.3,0.5,0.5,0.9,0.6c9.2,2.2,20.3,2.5,21.6,2.6c1.2,0,12.4-0.3,21.6-2.6c0.4-0.1,0.7-0.3,0.9-0.6c0.2-0.3,0.2-0.7,0.2-1.1
		c0-0.1-2.5-10.3-2-36.7L97.7,38.1z M44.6,28.5c1.5-3.4,4-8.3,7.3-12c4.1,4.8,4.9,12.8,5,15.7l-0.6,1C54.1,32.7,49.2,31.4,44.6,28.5
		z M55.3,34.4L54,36.2c-1.6-0.3-6.5-1.5-10.7-4.5c0.2-0.5,0.4-1.1,0.8-2C48.3,32.5,52.8,33.8,55.3,34.4z M76.6,17.5
		c7,0,9.6-4.9,10.5-7.5c0.6,0.4,1.2,0.7,1.9,1.1c-1.3,3.5-4.6,8.6-12.4,8.6c-7.8,0-11-5.1-12.4-8.6c0.7-0.4,1.3-0.7,1.9-1.1
		C67,12.6,69.6,17.5,76.6,17.5z M68.3,10.2c1.7,0.6,4.3,1.2,7.8,1.2c2.6,0,5.6-0.4,9-1.4c-0.8,2.1-3,5.6-8.4,5.6
		C71.4,15.6,69.2,12.3,68.3,10.2z M76.6,21c8.4,0,12.1-5.5,13.5-9.3c3.6,1.7,8,3.3,10,4c-5.3,6.2-5.1,16.3-5.2,17.4l0,0.2
		c-0.6,19.6,0.4,31.1,1.2,36.8c-9,1.9-19.4,2.1-19.5,2.1c-0.1,0-10.5-0.2-19.5-2.1c0.8-5.7,1.7-17.2,1.2-36.9c0,0,0,0,0-0.1
		c0,0,0,0,0,0c0-2.2-0.6-11.8-5.3-17.4c1.9-0.7,6.4-2.3,10.1-4.1C64.6,15.5,68.2,21,76.6,21z M97.1,33.2L96.3,32
		c0.1-3,0.9-10.9,5.1-15.6c3.3,3.7,5.8,8.6,7.3,12C104.1,31.3,99.2,32.7,97.1,33.2z M109.2,29.7c0.4,0.8,0.6,1.5,0.8,2
		c-4.3,3-9.1,4.1-10.7,4.5L98,34.4C100.5,33.8,105,32.4,109.2,29.7z M96.3,32.2c0,0.1,0,0.2,0,0.1C96.3,32.3,96.3,32.3,96.3,32.2z
		 M56.9,32.5C56.8,32.5,56.8,32.4,56.9,32.5C56.8,32.4,56.8,32.4,56.9,32.5z M56.9,71.4c9.1,1.9,19.6,2.1,19.7,2.1
		c0.1,0,10.6-0.2,19.7-2.1c0.2,1,0.3,1.8,0.4,2.3c-9,2-19.6,2.3-20.1,2.3c-0.5,0-11.1-0.2-20.1-2.3C56.6,73.2,56.8,72.4,56.9,71.4z"
		/>
</g>
<g>
	<path class="st0" d="M51.1,105.9h-2.7v-1.6h7.3v1.6h-2.7v6.8h-1.9V105.9z"/>
	<path class="st0" d="M57,108.6h3.4v1.5H57V108.6z"/>
	<path class="st0" d="M64.1,112.6c-0.6-0.2-1.1-0.4-1.5-0.7l0.7-1.5c0.4,0.3,0.8,0.5,1.3,0.6s1,0.2,1.5,0.2c0.6,0,1-0.1,1.2-0.2
		c0.3-0.2,0.4-0.4,0.4-0.7c0-0.2-0.1-0.4-0.2-0.5c-0.2-0.1-0.4-0.2-0.6-0.3c-0.2-0.1-0.6-0.2-1-0.3c-0.6-0.2-1.2-0.3-1.6-0.5
		c-0.4-0.2-0.8-0.4-1.1-0.7s-0.4-0.8-0.4-1.3c0-0.5,0.1-0.9,0.4-1.3c0.3-0.4,0.7-0.7,1.2-0.9c0.5-0.2,1.2-0.3,1.9-0.3
		c0.5,0,1.1,0.1,1.6,0.2c0.5,0.1,1,0.3,1.3,0.6l-0.6,1.5c-0.8-0.4-1.6-0.7-2.3-0.7c-0.5,0-0.9,0.1-1.2,0.3c-0.3,0.2-0.4,0.4-0.4,0.7
		c0,0.3,0.1,0.5,0.5,0.6c0.3,0.1,0.8,0.3,1.4,0.4c0.6,0.2,1.2,0.3,1.6,0.5c0.4,0.2,0.8,0.4,1,0.7s0.4,0.8,0.4,1.3
		c0,0.5-0.1,0.9-0.4,1.3c-0.3,0.4-0.7,0.7-1.2,0.9c-0.5,0.2-1.2,0.3-2,0.3C65.3,112.8,64.7,112.7,64.1,112.6z"/>
	<path class="st0" d="M79.8,104.3v8.4h-1.9v-3.4H74v3.4h-1.9v-8.4H74v3.3h3.8v-3.3H79.8z"/>
	<path class="st0" d="M83.2,104.3h1.9v8.4h-1.9V104.3z"/>
	<path class="st0" d="M93.9,112.7l-1.6-2.3h-0.1h-1.7v2.3h-1.9v-8.4h3.6c0.7,0,1.4,0.1,1.9,0.4c0.5,0.2,1,0.6,1.3,1.1s0.4,1,0.4,1.6
		s-0.2,1.2-0.5,1.6c-0.3,0.5-0.7,0.8-1.3,1l1.9,2.7H93.9z M93.5,106.2c-0.3-0.3-0.7-0.4-1.3-0.4h-1.6v2.9h1.6c0.6,0,1-0.1,1.3-0.4
		c0.3-0.3,0.5-0.6,0.5-1.1C93.9,106.9,93.8,106.5,93.5,106.2z"/>
	<path class="st0" d="M100.2,105.9h-2.7v-1.6h7.3v1.6h-2.7v6.8h-1.9V105.9z"/>
</g>
</svg>
