<?xml version="1.0" encoding="utf-8"?>
<!-- Generator: Adobe Illustrator 23.1.1, SVG Export Plug-In . SVG Version: 6.00 Build 0)  -->
<svg version="1.1" id="Layer_1" xmlns="http://www.w3.org/2000/svg" xmlns:xlink="http://www.w3.org/1999/xlink" x="0px" y="0px"
	 viewBox="0 0 154 114" style="enable-background:new 0 0 154 114;" xml:space="preserve">
<style type="text/css">
	.st0{fill:#B5B5B5;}
</style>
<g>
	<path class="st0" d="M42.7,105.8h-2.7v-1.6h7.3v1.6h-2.7v6.8h-1.9V105.8z"/>
	<path class="st0" d="M63.7,104.2l-2.7,8.4h-2.1l-1.8-5.7l-1.9,5.7h-2.1l-2.7-8.4h2l1.9,5.9l2-5.9H58l1.9,5.9l1.9-5.9H63.7z"/>
	<path class="st0" d="M67.7,104.2h1.9v8.4h-1.9V104.2z"/>
	<path class="st0" d="M76.2,105.8h-2.7v-1.6h7.3v1.6h-2.7v6.8h-1.9V105.8z"/>
	<path class="st0" d="M86.5,105.8h-2.7v-1.6h7.3v1.6h-2.7v6.8h-1.9V105.8z"/>
	<path class="st0" d="M101.5,111v1.6h-6.5v-8.4h6.3v1.6H97v1.8h3.9v1.5H97v1.9H101.5z"/>
	<path class="st0" d="M111.3,112.6l-1.6-2.3h-0.1h-1.7v2.3h-1.9v-8.4h3.6c0.7,0,1.4,0.1,1.9,0.4c0.5,0.2,1,0.6,1.3,1.1
		c0.3,0.5,0.4,1,0.4,1.6c0,0.6-0.1,1.2-0.4,1.6c-0.3,0.5-0.7,0.8-1.3,1l1.9,2.7H111.3z M110.8,106.2c-0.3-0.3-0.7-0.4-1.3-0.4h-1.6
		v2.9h1.6c0.6,0,1-0.1,1.3-0.4c0.3-0.3,0.5-0.6,0.5-1.1C111.2,106.8,111.1,106.4,110.8,106.2z"/>
</g>
<g>
	<g>
		<path class="st0" d="M98.7,74.7H54.7c-5.6,0-10.1-4.6-10.1-10.1V20.6c0-5.6,4.6-10.1,10.1-10.1h43.9c5.6,0,10.1,4.6,10.1,10.1
			v43.9C108.8,70.2,104.3,74.7,98.7,74.7z M54.7,13c-4.2,0-7.6,3.4-7.6,7.6v43.9c0,4.2,3.4,7.6,7.6,7.6h43.9c4.2,0,7.6-3.4,7.6-7.6
			V20.6c0-4.2-3.4-7.6-7.6-7.6H54.7z"/>
	</g>
	<g>
		<path class="st0" d="M68.6,61.9c-9,0-14.1-4-14.3-4.2c-0.4-0.3-0.6-0.9-0.4-1.4c0.2-0.5,0.6-0.8,1.1-0.9c5-0.3,8.8-2.1,10.9-3.3
			C52.8,44.9,57,26.5,57,26.3c0.1-0.5,0.5-0.9,1-0.9c0.5-0.1,1,0.1,1.3,0.5c5.3,7.8,12.5,8.7,15.3,8.7c0,0,0,0,0.1,0
			c0-3,1.3-8.4,6.8-10.5c5.2-2,9.3,0.5,11.2,2.4c2.6-0.1,5.6-0.3,5.7-0.3c0.4,0,0.8,0.2,1.1,0.5c0.3,0.3,0.3,0.7,0.2,1.1
			c-1,3.3-2.9,5.8-3.7,6.7c-0.2,13.1-9.3,24.6-21.4,26.8C72.4,61.7,70.4,61.9,68.6,61.9z M58.9,57.4c3,1.3,8.2,2.7,15.1,1.5
			c11-2,19.3-12.7,19.3-24.8c0-0.3,0.1-0.6,0.3-0.9c0,0,1.6-1.8,2.8-4.4c-1.3,0.1-2.9,0.1-4.4,0.2c-0.4,0-0.8-0.2-1-0.5
			c-0.1-0.2-3.4-4.2-8.7-2.1c-5.4,2.1-5.3,8.2-5.1,9c0.1,0.3,0,0.7-0.2,1c-0.2,0.3-0.5,0.5-0.9,0.5c-0.4,0.1-9.8,1.3-17.2-7.3
			c-0.2,1.9-0.3,4.5,0,7.2c0.9,6.9,4.2,11.5,9.8,13.8c0.4,0.2,0.7,0.5,0.8,1s-0.1,0.9-0.4,1.2C69,53,65.3,56.1,58.9,57.4z"/>
	</g>
</g>
</svg>
