<?xml version="1.0" encoding="utf-8"?>
<!-- Generator: Adobe Illustrator 23.0.4, SVG Export Plug-In . SVG Version: 6.00 Build 0)  -->
<svg version="1.1" id="Layer_1" xmlns="http://www.w3.org/2000/svg" xmlns:xlink="http://www.w3.org/1999/xlink" x="0px" y="0px"
	 viewBox="0 0 154 114" style="enable-background:new 0 0 154 114;" xml:space="preserve">
<style type="text/css">
	.st0{fill:#B5B5B5;}
</style>
<title>ill_logo</title>
<g>
	<g>
		<path class="st0" d="M53.2,104.3l-2.7,8.4h-2.1l-1.8-5.7l-1.9,5.7h-2.1l-2.8-8.4h2l1.9,5.9l2-5.9h1.8l1.9,6l2-6H53.2z"/>
		<path class="st0" d="M63.7,111.1v1.6h-6.5v-8.4h6.3v1.6h-4.4v1.8H63v1.5h-3.9v1.9H63.7z"/>
		<path class="st0" d="M75.4,109.1c0.3,0.4,0.4,0.8,0.4,1.3c0,0.7-0.3,1.3-0.9,1.7c-0.6,0.4-1.4,0.6-2.5,0.6h-4.3v-8.4h4.1
			c1,0,1.8,0.2,2.4,0.6c0.5,0.4,0.8,0.9,0.8,1.6c0,0.4-0.1,0.8-0.3,1.1c-0.2,0.3-0.5,0.6-0.8,0.8C74.8,108.5,75.1,108.7,75.4,109.1z
			 M70,105.8v2H72c0.5,0,0.8-0.1,1.1-0.3s0.4-0.4,0.4-0.7s-0.1-0.6-0.4-0.7c-0.2-0.2-0.6-0.2-1.1-0.2H70z M73.5,111
			c0.3-0.2,0.4-0.4,0.4-0.8c0-0.7-0.5-1-1.5-1H70v2.1h2.3C72.8,111.2,73.2,111.1,73.5,111z"/>
		<path class="st0" d="M81,112.6c-0.6-0.2-1.1-0.4-1.5-0.7l0.7-1.5c0.4,0.3,0.8,0.5,1.3,0.6s1,0.2,1.5,0.2c0.6,0,1-0.1,1.2-0.2
			c0.3-0.2,0.4-0.4,0.4-0.7c0-0.2-0.1-0.4-0.2-0.5c-0.2-0.1-0.4-0.2-0.6-0.3s-0.6-0.2-1-0.3c-0.6-0.2-1.2-0.3-1.6-0.5
			c-0.4-0.2-0.8-0.4-1-0.7c-0.3-0.3-0.4-0.8-0.4-1.3c0-0.5,0.1-0.9,0.4-1.3c0.3-0.4,0.7-0.7,1.2-0.9c0.5-0.2,1.2-0.3,2-0.3
			c0.5,0,1.1,0.1,1.6,0.2c0.5,0.1,1,0.3,1.3,0.6l-0.6,1.5c-0.8-0.4-1.6-0.7-2.3-0.7c-0.5,0-0.9,0.1-1.2,0.3s-0.4,0.4-0.4,0.7
			c0,0.3,0.2,0.5,0.5,0.6s0.8,0.3,1.4,0.4c0.6,0.2,1.2,0.3,1.6,0.5c0.4,0.2,0.8,0.4,1,0.7s0.4,0.8,0.4,1.3c0,0.5-0.1,0.9-0.4,1.3
			c-0.3,0.4-0.7,0.7-1.2,0.9c-0.5,0.2-1.2,0.3-2,0.3C82.3,112.8,81.6,112.7,81,112.6z"/>
		<path class="st0" d="M90.7,104.3h1.9v8.4h-1.9V104.3z"/>
		<path class="st0" d="M99.3,105.9h-2.7v-1.6h7.3v1.6h-2.7v6.8h-1.9V105.9z"/>
		<path class="st0" d="M114.3,111.1v1.6h-6.5v-8.4h6.3v1.6h-4.4v1.8h3.9v1.5h-3.9v1.9H114.3z"/>
	</g>
</g>
<g>
	<path class="st0" d="M88.5,77c0.6-0.4,1.3-0.8,1.9-1.3c0.3-0.2,0.3-0.6,0.1-0.8c-0.2-0.3-0.6-0.3-0.8-0.1c-1.1,0.8-2.2,1.5-3.3,2.1
		c-0.3,0.2-0.4,0.5-0.2,0.8c0,0,0,0,0,0c-1.1,0.3-2.1,0.5-3.2,0.7c4.5-4,7.9-12.4,9.5-23.1h18.9c-0.9,2.3-2,4.5-3.3,6.6l1.9,0.7
		c1.5-2.4,2.7-5,3.7-7.7h2.9c0.3,0,0.6-0.3,0.6-0.6c0-0.3-0.3-0.6-0.6-0.6H114c1.1-3.7,1.8-7.6,1.8-11.6c0,0,0-0.1,0-0.1h1.1
		c0.3,0,0.6-0.3,0.6-0.6c0-0.3-0.3-0.6-0.6-0.6h-1.1c-0.1-3.9-0.8-7.6-2-11.1h2.8c0.3,0,0.6-0.3,0.6-0.6c0-0.3-0.3-0.6-0.6-0.6h-3.2
		c0-0.1-0.1-0.2-0.1-0.3v-0.1h0C107.5,13.6,93.5,3.4,77.1,3.4C60.6,3.4,46.6,13.6,41,28.1h0v0.1c0,0.1-0.1,0.2-0.1,0.3h-3.9
		c-0.3,0-0.6,0.3-0.6,0.6c0,0.3,0.3,0.6,0.6,0.6h3.5c-1.2,3.5-1.9,7.2-2,11.1h-1.9c-0.3,0-0.6,0.3-0.6,0.6c0,0.3,0.3,0.6,0.6,0.6
		h1.9c0,0,0,0.1,0,0.1c0,4,0.6,7.9,1.8,11.6h-3.2c-0.3,0-0.6,0.3-0.6,0.6c0,0.3,0.3,0.6,0.6,0.6h3.6C45.8,70,60.2,80.8,77.1,80.8
		c8.1,0,15.5-2.5,21.7-6.7l-0.7-2C95.2,74.2,92,75.8,88.5,77z M62.7,42.1c0-4.2,0.3-8.2,0.8-12H76v23.2H63.5
		C63,49.7,62.7,46,62.7,42.1z M91.4,42.1c0,3.9-0.3,7.6-0.7,11.2H78.1V30.1h12.5C91.1,33.9,91.4,37.9,91.4,42.1z M78.1,28.1V5.5
		c5.4,1,10.1,10.2,12.2,22.6H78.1z M76,5.5v22.6H63.9C65.9,15.7,70.6,6.5,76,5.5z M76,55.3v23.4c-5.5-1-10.3-10.6-12.3-23.4H76z
		 M78.1,78.7V55.3h12.3C88.4,68.1,83.6,77.7,78.1,78.7z M113.8,42.1c0,3.9-0.6,7.7-1.7,11.2h-8.3c0.1-0.6,0-1,0.2-1.9
		c0.1-0.3-0.2-0.6-0.5-0.7c-0.3-0.1-0.6,0.2-0.7,0.5c-0.2,1-0.1,1.4-0.2,2.1h-9.8c0.4-3.5,0.7-7.3,0.7-11.2c0-4.2-0.3-8.2-0.8-12
		h19.1C113.1,33.9,113.8,37.9,113.8,42.1z M111,28.1h-8.5c0.1-0.2,0.2-0.4,0.2-0.6c-0.4-1.3-0.8-2.6-1.3-3.9
		c-0.1-0.3-0.5-0.5-0.8-0.3c-0.3,0.1-0.5,0.5-0.3,0.8c0.5,1.2,0.9,2.5,1.3,3.8c0,0.1,0.1,0.2,0.2,0.2h-9.3
		c-1.6-10.2-5-18.3-9.3-22.1c0.7,0.2,1.5,0.5,2.2,0.8c0.1,0,0.2,0.1,0.3,0.1c0.2,0,0.4-0.1,0.5-0.3C97.3,9.3,106.6,17.4,111,28.1z
		 M65.6,7.2c-0.6,0.4-1.2,0.8-1.8,1.3c-0.3,0.2-0.3,0.6-0.1,0.8c0.1,0.2,0.3,0.2,0.5,0.2c0.1,0,0.3,0,0.4-0.1
		c1.1-0.8,2.2-1.5,3.3-2.1c0.3-0.2,0.4-0.5,0.3-0.8c0,0,0,0,0,0c1-0.3,2.1-0.5,3.1-0.6c-4.3,3.9-7.8,11.9-9.4,22.2H43.1
		C47.2,18.3,55.4,10.6,65.6,7.2z M42.4,30.1h8.5c-0.2,0.9-0.4,1.8-0.6,2.6c-0.1,0.3,0.2,0.6,0.5,0.7c0,0,0.1,0,0.1,0
		c0.3,0,0.5-0.2,0.6-0.5c0.2-1,0.4-1.9,0.6-2.9h9.4c-0.5,3.8-0.8,7.8-0.8,12c0,3.9,0.2,7.7,0.7,11.2H42.1c-1.1-3.5-1.7-7.3-1.7-11.2
		C40.3,37.9,41.1,33.9,42.4,30.1z M42.8,55.3h18.9c1.6,10.6,5,19,9.4,23c-0.7-0.2-1.4-0.5-2.1-0.8c-0.3-0.1-0.6,0-0.8,0.3
		C56.5,74.8,47.1,66.3,42.8,55.3z"/>
	<path class="st0" d="M61.6,72.2c-0.2-0.2-0.6-0.2-0.9,0c-0.2,0.2-0.2,0.6,0,0.9c1,1,2,1.9,3.1,2.7c0.1,0.1,0.2,0.1,0.4,0.1
		c0.2,0,0.4-0.1,0.5-0.2c0.2-0.3,0.1-0.6-0.1-0.8C63.6,74,62.6,73.2,61.6,72.2z"/>
	<path class="st0" d="M56.2,64.9c-0.2-0.3-0.5-0.4-0.8-0.2c-0.3,0.2-0.4,0.5-0.2,0.8c0.7,1.2,1.4,2.4,2.2,3.5
		c0.1,0.2,0.3,0.3,0.5,0.3c0.1,0,0.2,0,0.3-0.1c0.3-0.2,0.3-0.6,0.1-0.8C57.6,67.2,56.9,66.1,56.2,64.9z"/>
	<path class="st0" d="M104.1,41.5c-0.3,0-0.6,0.3-0.6,0.6c0,1.3,0,2.6-0.1,3.9c0,0.3,0.2,0.6,0.6,0.6c0,0,0,0,0,0
		c0.3,0,0.6-0.2,0.6-0.6c0.1-1.3,0.1-2.7,0.1-4V42C104.7,41.7,104.4,41.5,104.1,41.5z"/>
	<path class="st0" d="M52.7,56.4c-0.1-0.3-0.4-0.5-0.8-0.4c-0.3,0.1-0.5,0.4-0.4,0.8c0.4,1.3,0.8,2.6,1.3,3.9
		c0.1,0.2,0.3,0.4,0.6,0.4c0.1,0,0.2,0,0.2,0c0.3-0.1,0.5-0.5,0.3-0.8C53.5,59,53.1,57.7,52.7,56.4z"/>
	<path class="st0" d="M103.8,37.4C103.8,37.4,103.8,37.4,103.8,37.4c0.4,0,0.6-0.3,0.6-0.7c-0.1-1.4-0.3-2.7-0.6-4.1
		c-0.1-0.3-0.4-0.5-0.7-0.5c-0.3,0.1-0.5,0.4-0.5,0.7c0.2,1.3,0.4,2.6,0.6,4C103.2,37.2,103.5,37.4,103.8,37.4z"/>
	<path class="st0" d="M97.9,19.4c0.1,0.2,0.3,0.3,0.5,0.3c0.1,0,0.2,0,0.3-0.1c0.3-0.2,0.4-0.5,0.2-0.8c-0.7-1.2-1.4-2.4-2.2-3.5
		C96.6,15,96.3,15,96,15.1c-0.3,0.2-0.3,0.6-0.1,0.8C96.6,17.1,97.3,18.2,97.9,19.4z"/>
	<path class="st0" d="M59.8,12.1c-0.9,1-1.8,2.1-2.6,3.2c-0.2,0.3-0.1,0.7,0.1,0.8c0.1,0.1,0.2,0.1,0.3,0.1c0.2,0,0.4-0.1,0.5-0.3
		c0.8-1.1,1.6-2.1,2.5-3.1c0.2-0.2,0.2-0.6,0-0.9C60.4,11.9,60,11.9,59.8,12.1z"/>
	<path class="st0" d="M92.5,12c0.1,0.1,0.3,0.2,0.4,0.2c0.2,0,0.3-0.1,0.4-0.2c0.2-0.2,0.2-0.6,0-0.9c-1-1-2-1.9-3.1-2.7
		c-0.3-0.2-0.6-0.1-0.8,0.1c-0.2,0.3-0.2,0.6,0.1,0.8C90.6,10.2,91.6,11.1,92.5,12z"/>
	<path class="st0" d="M50.2,46.9c-0.3,0-0.6,0.3-0.5,0.7c0.1,1.4,0.3,2.7,0.6,4.1c0.1,0.3,0.3,0.5,0.6,0.5c0,0,0.1,0,0.1,0
		c0.3-0.1,0.5-0.4,0.5-0.7c-0.2-1.3-0.4-2.6-0.6-4C50.9,47.1,50.6,46.8,50.2,46.9z"/>
	<path class="st0" d="M50,42.8c0.3,0,0.6-0.3,0.6-0.6v-0.1c0-1.3,0.1-2.7,0.2-4c0-0.3-0.2-0.6-0.6-0.6c-0.3,0-0.6,0.2-0.6,0.6
		c-0.1,1.4-0.2,2.7-0.2,4.1v0.1C49.4,42.6,49.7,42.8,50,42.8z"/>
	<path class="st0" d="M55.3,19.7c-0.3-0.2-0.7,0-0.8,0.3c-0.6,1.2-1.2,2.5-1.7,3.7c-0.1,0.3,0,0.7,0.3,0.8c0.1,0,0.1,0,0.2,0
		c0.2,0,0.5-0.1,0.6-0.4c0.5-1.2,1-2.5,1.6-3.6C55.7,20.2,55.6,19.8,55.3,19.7z"/>
	<path class="st0" d="M93.5,72.1c0.1,0.1,0.3,0.2,0.4,0.2c0.2,0,0.3-0.1,0.5-0.2c0.9-1,1.7-2.1,2.5-3.2l-0.4-1c-0.2,0-0.5,0-0.6,0.2
		c-0.8,1.1-1.6,2.2-2.5,3.1C93.2,71.5,93.2,71.8,93.5,72.1z"/>
	<path class="st0" d="M31.6,28.5h-4c-0.3,0-0.6,0.3-0.6,0.6c0,0.3,0.3,0.6,0.6,0.6h4c0.3,0,0.6-0.3,0.6-0.6
		C32.2,28.7,32,28.5,31.6,28.5z"/>
	<path class="st0" d="M22.3,28.5h-4c-0.3,0-0.6,0.3-0.6,0.6c0,0.3,0.3,0.6,0.6,0.6h4c0.3,0,0.6-0.3,0.6-0.6
		C23,28.7,22.7,28.5,22.3,28.5z"/>
	<path class="st0" d="M22.3,53.7h-4c-0.3,0-0.6,0.3-0.6,0.6c0,0.3,0.3,0.6,0.6,0.6h4c0.3,0,0.6-0.3,0.6-0.6
		C23,54,22.7,53.7,22.3,53.7z"/>
	<path class="st0" d="M31.6,53.7h-4c-0.3,0-0.6,0.3-0.6,0.6c0,0.3,0.3,0.6,0.6,0.6h4c0.3,0,0.6-0.3,0.6-0.6
		C32.2,54,32,53.7,31.6,53.7z"/>
	<path class="st0" d="M121.8,29.7h4c0.3,0,0.6-0.3,0.6-0.6c0-0.3-0.3-0.6-0.6-0.6h-4c-0.3,0-0.6,0.3-0.6,0.6
		C121.1,29.4,121.4,29.7,121.8,29.7z"/>
	<path class="st0" d="M131,29.7h4c0.3,0,0.6-0.3,0.6-0.6c0-0.3-0.3-0.6-0.6-0.6h-4c-0.3,0-0.6,0.3-0.6,0.6
		C130.4,29.4,130.7,29.7,131,29.7z"/>
	<path class="st0" d="M126,40.8h-4c-0.3,0-0.6,0.3-0.6,0.6c0,0.3,0.3,0.6,0.6,0.6h4c0.3,0,0.6-0.3,0.6-0.6
		C126.6,41.1,126.3,40.8,126,40.8z"/>
	<path class="st0" d="M31.3,42c0.3,0,0.6-0.3,0.6-0.6c0-0.3-0.3-0.6-0.6-0.6h-4c-0.3,0-0.6,0.3-0.6,0.6c0,0.3,0.3,0.6,0.6,0.6H31.3z
		"/>
	<path class="st0" d="M125.8,53.7h-4c-0.3,0-0.6,0.3-0.6,0.6c0,0.3,0.3,0.6,0.6,0.6h4c0.3,0,0.6-0.3,0.6-0.6
		C126.4,54,126.1,53.7,125.8,53.7z"/>
	<path class="st0" d="M135.1,53.7h-4c-0.3,0-0.6,0.3-0.6,0.6c0,0.3,0.3,0.6,0.6,0.6h4c0.3,0,0.6-0.3,0.6-0.6
		C135.7,54,135.4,53.7,135.1,53.7z"/>
	<path class="st0" d="M108.4,64.8l-2-0.7l-5.8-2.1l-1.1-0.4l-2.9-1.1l3.6,10l0.7,2l3.4,9.3l2.8-6.2l4.6,4.6l4.6-4.6l-4.6-4.6
		l6.2-2.8L108.4,64.8z M113.9,75.6l-2.2,2.2l-5.2-5.2l-2.1,4.6l-2.1-5.9l-0.7-2L99.7,64l-0.2-0.7l0.5,0.2l5.4,2l2,0.7l6,2.2
		l-4.6,2.1L113.9,75.6z"/>
</g>
</svg>
