<?xml version="1.0" encoding="utf-8"?>
<!-- Generator: Adobe Illustrator 23.0.6, SVG Export Plug-In . SVG Version: 6.00 Build 0)  -->
<svg version="1.1" id="Layer_1" xmlns="http://www.w3.org/2000/svg" xmlns:xlink="http://www.w3.org/1999/xlink" x="0px" y="0px"
	 viewBox="0 0 154 114" style="enable-background:new 0 0 154 114;" xml:space="preserve">
<style type="text/css">
	.st0{fill:#B5B5B5;}
</style>
<g>
	<path class="st0" d="M87.3,33.4H21.4V3.8h65.9V33.4z M23.4,31.4h61.9V5.8H23.4V31.4z"/>
	<g>
		<path class="st0" d="M87.3,80H21.4V41h65.9V80z M23.4,78h61.9V43H23.4V78z"/>
		<path class="st0" d="M131.8,80h-37V3.8h37V80z M96.7,78h33V5.8h-33V78z"/>
	</g>
	<path class="st0" d="M54,70.4H30.7V50.6H54V70.4z M32.7,68.4H52V52.6H32.7V68.4z"/>
	<path class="st0" d="M47.1,25.8h-18V11.2h18V25.8z M31.1,23.8h14V13.2h-14V23.8z"/>
	<path class="st0" d="M124.4,29.3h-22.1V11.5h22.1V29.3z M104.2,27.3h18.1V13.5h-18.1V27.3z"/>
	<rect x="102.4" y="35.9" class="st0" width="22.2" height="2"/>
	<rect x="102.4" y="42.5" class="st0" width="22.2" height="2"/>
	<rect x="102.4" y="49.1" class="st0" width="15.1" height="2"/>
	<rect x="105.7" y="69.1" class="st0" width="15.1" height="2"/>
	<rect x="59.4" y="52.7" class="st0" width="19.8" height="2"/>
	<rect x="59.4" y="59.3" class="st0" width="19.8" height="2"/>
	<rect x="59.4" y="65.9" class="st0" width="13.6" height="2"/>
	<g>
		<rect x="53.4" y="14.3" class="st0" width="24.7" height="2"/>
		<rect x="53.4" y="20.9" class="st0" width="16.9" height="2"/>
	</g>
	<g>
		<path class="st0" d="M12.4,111.8c-0.6-0.3-1.1-0.8-1.5-1.4s-0.5-1.2-0.5-2s0.2-1.4,0.5-2s0.8-1,1.5-1.4c0.6-0.3,1.3-0.5,2.1-0.5
			s1.5,0.2,2.1,0.5c0.6,0.3,1.1,0.8,1.5,1.4c0.4,0.6,0.5,1.2,0.5,2s-0.2,1.4-0.5,2c-0.4,0.6-0.8,1-1.5,1.4c-0.6,0.3-1.3,0.5-2.1,0.5
			S13,112.2,12.4,111.8z M15.6,110.6c0.4-0.2,0.6-0.5,0.8-0.8c0.2-0.4,0.3-0.8,0.3-1.2s-0.1-0.9-0.3-1.2c-0.2-0.4-0.5-0.6-0.8-0.8
			c-0.4-0.2-0.8-0.3-1.2-0.3s-0.8,0.1-1.2,0.3c-0.4,0.2-0.6,0.5-0.8,0.8s-0.3,0.8-0.3,1.2s0.1,0.9,0.3,1.2s0.5,0.6,0.8,0.8
			c0.4,0.2,0.8,0.3,1.2,0.3S15.3,110.8,15.6,110.6z"/>
		<path class="st0" d="M29.9,104.7v7.5h-1.4l-3.7-4.5v4.5H23v-7.5h1.4l3.7,4.5v-4.5H29.9z"/>
		<path class="st0" d="M34.8,104.7h1.7v6.1h3.7v1.4h-5.5V104.7z"/>
		<path class="st0" d="M44.5,104.7h1.7v7.5h-1.7V104.7z"/>
		<path class="st0" d="M58,104.7v7.5h-1.4l-3.7-4.5v4.5h-1.7v-7.5h1.4l3.7,4.5v-4.5H58z"/>
		<path class="st0" d="M68.7,110.8v1.4H63v-7.5h5.6v1.4h-3.9v1.6h3.5v1.3h-3.5v1.7H68.7z"/>
		<path class="st0" d="M86,109c0.2,0.3,0.4,0.7,0.4,1.2c0,0.7-0.3,1.2-0.8,1.5s-1.2,0.5-2.2,0.5h-3.9v-7.5h3.6
			c0.9,0,1.6,0.2,2.1,0.5c0.5,0.3,0.7,0.8,0.7,1.4c0,0.4-0.1,0.7-0.3,1c-0.2,0.3-0.4,0.5-0.7,0.7C85.4,108.5,85.8,108.7,86,109z
			 M81.2,106v1.8H83c0.4,0,0.8-0.1,1-0.2c0.2-0.1,0.3-0.4,0.3-0.7s-0.1-0.5-0.3-0.7c-0.2-0.1-0.5-0.2-1-0.2H81.2z M84.3,110.7
			c0.2-0.1,0.3-0.4,0.3-0.7c0-0.6-0.5-0.9-1.4-0.9h-2v1.8h2C83.7,110.9,84.1,110.8,84.3,110.7z"/>
		<path class="st0" d="M95.8,110.6h-3.5l-0.7,1.6h-1.8l3.3-7.5h1.7l3.3,7.5h-1.8L95.8,110.6z M95.2,109.3l-1.2-2.9l-1.2,2.9H95.2z"
			/>
		<path class="st0" d="M109.1,104.7v7.5h-1.4l-3.7-4.5v4.5h-1.7v-7.5h1.4l3.7,4.5v-4.5H109.1z"/>
		<path class="st0" d="M120.9,104.7v7.5h-1.4l-3.7-4.5v4.5H114v-7.5h1.4l3.7,4.5v-4.5H120.9z"/>
		<path class="st0" d="M131.6,110.8v1.4h-5.8v-7.5h5.6v1.4h-3.9v1.6h3.5v1.3h-3.5v1.7H131.6z"/>
		<path class="st0" d="M141,112.2l-1.4-2.1h-0.1h-1.5v2.1h-1.7v-7.5h3.2c0.7,0,1.2,0.1,1.7,0.3c0.5,0.2,0.9,0.5,1.1,0.9
			c0.3,0.4,0.4,0.9,0.4,1.4c0,0.6-0.1,1-0.4,1.4s-0.6,0.7-1.1,0.9l1.7,2.4H141z M140.5,106.5c-0.3-0.2-0.7-0.3-1.2-0.3h-1.4v2.6h1.4
			c0.5,0,0.9-0.1,1.2-0.3c0.3-0.2,0.4-0.5,0.4-1C140.9,107,140.8,106.7,140.5,106.5z"/>
	</g>
</g>
</svg>
