<?xml version="1.0" encoding="utf-8"?>
<!-- Generator: Adobe Illustrator 23.1.1, SVG Export Plug-In . SVG Version: 6.00 Build 0)  -->
<svg version="1.1" id="Layer_1" xmlns="http://www.w3.org/2000/svg" xmlns:xlink="http://www.w3.org/1999/xlink" x="0px" y="0px"
	 viewBox="0 0 154 114" style="enable-background:new 0 0 154 114;" xml:space="preserve">
<style type="text/css">
	.st0{fill:#B5B5B5;}
</style>
<g>
	<path class="st0" d="M43,109.6v3h-1.9v-3l-3.2-5.4h2.1l2.2,3.7l2.2-3.7h1.9L43,109.6z"/>
	<path class="st0" d="M51.3,112.2c-0.7-0.4-1.2-0.9-1.6-1.5c-0.4-0.7-0.6-1.4-0.6-2.2s0.2-1.6,0.6-2.2c0.4-0.7,0.9-1.2,1.6-1.5
		c0.7-0.4,1.5-0.6,2.3-0.6c0.9,0,1.6,0.2,2.3,0.6c0.7,0.4,1.2,0.9,1.6,1.5c0.4,0.7,0.6,1.4,0.6,2.2s-0.2,1.6-0.6,2.2
		c-0.4,0.7-0.9,1.2-1.6,1.5s-1.5,0.6-2.3,0.6C52.8,112.7,52,112.6,51.3,112.2z M55,110.8c0.4-0.2,0.7-0.5,0.9-0.9
		c0.2-0.4,0.3-0.9,0.3-1.4s-0.1-1-0.3-1.4c-0.2-0.4-0.5-0.7-0.9-0.9c-0.4-0.2-0.8-0.3-1.3-0.3c-0.5,0-0.9,0.1-1.3,0.3
		c-0.4,0.2-0.7,0.5-0.9,0.9c-0.2,0.4-0.3,0.9-0.3,1.4s0.1,1,0.3,1.4c0.2,0.4,0.5,0.7,0.9,0.9c0.4,0.2,0.8,0.3,1.3,0.3
		C54.2,111.1,54.6,111,55,110.8z"/>
	<path class="st0" d="M63.5,111.8c-0.7-0.7-1-1.6-1-2.8v-4.7h1.9v4.6c0,1.5,0.6,2.2,1.9,2.2c0.6,0,1.1-0.2,1.4-0.5s0.5-0.9,0.5-1.7
		v-4.6h1.9v4.7c0,1.2-0.3,2.2-1,2.8c-0.7,0.7-1.6,1-2.8,1S64.1,112.4,63.5,111.8z"/>
	<path class="st0" d="M76.4,105.8h-2.7v-1.6H81v1.6h-2.7v6.8h-1.9V105.8z"/>
	<path class="st0" d="M85.7,111.8c-0.7-0.7-1-1.6-1-2.8v-4.7h1.9v4.6c0,1.5,0.6,2.2,1.9,2.2c0.6,0,1.1-0.2,1.4-0.5s0.5-0.9,0.5-1.7
		v-4.6h1.9v4.7c0,1.2-0.3,2.2-1,2.8c-0.7,0.7-1.6,1-2.8,1S86.4,112.4,85.7,111.8z"/>
	<path class="st0" d="M104.3,109c0.3,0.4,0.4,0.8,0.4,1.3c0,0.7-0.3,1.3-0.9,1.7s-1.4,0.6-2.5,0.6h-4.3v-8.4h4.1
		c1,0,1.8,0.2,2.3,0.6c0.5,0.4,0.8,0.9,0.8,1.6c0,0.4-0.1,0.8-0.3,1.1c-0.2,0.3-0.5,0.6-0.8,0.8C103.7,108.4,104,108.7,104.3,109z
		 M99,105.7v2h1.9c0.5,0,0.8-0.1,1.1-0.3c0.2-0.2,0.4-0.4,0.4-0.7s-0.1-0.6-0.4-0.7c-0.2-0.2-0.6-0.2-1.1-0.2H99z M102.4,110.9
		c0.3-0.2,0.4-0.4,0.4-0.8c0-0.7-0.5-1-1.5-1H99v2.1h2.3C101.7,111.1,102.1,111.1,102.4,110.9z"/>
	<path class="st0" d="M115.5,111v1.6H109v-8.4h6.3v1.6H111v1.8h3.9v1.5H111v1.9H115.5z"/>
</g>
<g>
	<g>
		<path class="st0" d="M98.7,74.7H54.7c-5.6,0-10.1-4.6-10.1-10.1V20.6c0-5.6,4.6-10.1,10.1-10.1h43.9c5.6,0,10.1,4.6,10.1,10.1
			v43.9C108.8,70.2,104.3,74.7,98.7,74.7z M54.7,13c-4.2,0-7.6,3.4-7.6,7.6v43.9c0,4.2,3.4,7.6,7.6,7.6h43.9c4.2,0,7.6-3.4,7.6-7.6
			V20.6c0-4.2-3.4-7.6-7.6-7.6H54.7z"/>
	</g>
	<g>
		<path class="st0" d="M71.8,49.5c-0.2,0-0.5-0.1-0.7-0.2c-0.4-0.2-0.6-0.6-0.6-1.1V36.8c0-0.4,0.2-0.8,0.6-1.1s0.8-0.2,1.2-0.1
			l11.4,5.7c0.4,0.2,0.7,0.6,0.7,1.1s-0.3,0.9-0.7,1.1l-11.4,5.7C72.2,49.4,72,49.5,71.8,49.5z M73.1,38.9v7.3l7.3-3.7L73.1,38.9z"
			/>
		<path class="st0" d="M76.7,58.3c-5.5,0-11.1-0.1-16.6-0.3c-2.8-0.1-5-2.4-5.1-5.1c-0.2-6.6-0.2-13.3,0-19.9c0.1-2.8,2.3-5,5.1-5.1
			c11-0.4,22.2-0.4,33.2,0c2.8,0.1,5,2.4,5.1,5.1c0.2,6.6,0.2,13.3,0,19.9c-0.1,2.8-2.3,5-5.1,5.1l0,0
			C87.8,58.1,82.2,58.3,76.7,58.3z M76.7,29.9c-5.5,0-11,0.1-16.5,0.3c-1.5,0.1-2.7,1.3-2.7,2.7c-0.2,6.6-0.2,13.2,0,19.8
			c0,1.5,1.2,2.7,2.7,2.7c11,0.4,22.1,0.4,33,0l0,0c1.5-0.1,2.7-1.3,2.7-2.7c0.2-6.6,0.2-13.2,0-19.8c0-1.5-1.2-2.7-2.7-2.7
			C87.7,30,82.2,29.9,76.7,29.9z"/>
	</g>
</g>
</svg>
