<?xml version="1.0" encoding="utf-8"?>
<!-- Generator: Adobe Illustrator 24.1.2, SVG Export Plug-In . SVG Version: 6.00 Build 0)  -->
<svg version="1.1" id="Layer_1" xmlns="http://www.w3.org/2000/svg" xmlns:xlink="http://www.w3.org/1999/xlink" x="0px" y="0px"
	 viewBox="0 0 154 114" style="enable-background:new 0 0 154 114;" xml:space="preserve">
<style type="text/css">
	.st0{fill:#B5B5B5;}
</style>
<g>
	<path class="st0" d="M51.3,59.4c-0.5,0-1-0.3-1.2-0.8c-0.2-0.4-0.1-1,0.4-1.3l0.1,0l16.5-18.8c0.2-0.2,0.6-0.4,1.1-0.4
		s0.8,0.2,1.1,0.4l5.7,6.5l9.3-10.6c0.2-0.2,0.7-0.4,1-0.4c0.3,0,0.8,0.1,0.9,0.4L106,57.2c0.3,0.3,0.4,1,0.2,1.4
		c-0.2,0.5-0.7,0.8-1.2,0.8H51.3z M54.4,56.8h9.9l8.5-9.6l-5-5.5L54.4,56.8z M68.2,56.6h34l-17-19.4L68.2,56.6z"/>
	<path class="st0" d="M58.2,35.7c-3.6,0-6.6-3-6.6-6.6c0-3.6,3-6.6,6.6-6.6s6.6,3,6.6,6.6C64.8,32.6,61.8,35.7,58.2,35.7z M58,25.2
		c-2.1,0-3.8,1.7-3.8,3.8s1.7,3.8,3.8,3.8c2,0,3.8-1.8,3.8-3.8C61.9,26.9,60.2,25.2,58,25.2z"/>
	<g>
		<path class="st0" d="M115.9,11.7H47.8V14h66.8v56.4H40V21.9h-2.5v49.6c0,0.7,0.6,1.2,1.2,1.2h77.2c0.7,0,1.2-0.6,1.2-1.2V12.9
			C117.1,12.3,116.6,11.7,115.9,11.7z"/>
		<polygon class="st0" points="45,11.5 40,11.5 40,6.5 37.4,6.5 37.4,11.5 32.4,11.5 32.4,14.1 37.4,14.1 37.4,19.1 40,19.1 
			40,14.1 45,14.1 		"/>
	</g>
</g>
<g>
	<path class="st0" d="M10.3,109.8v1.4H3.7v-1.1l4.1-5h-4v-1.4h6.3v1.1l-4.1,5H10.3z"/>
	<path class="st0" d="M14.8,110.8c-0.6-0.3-1.1-0.8-1.5-1.4c-0.4-0.6-0.5-1.3-0.5-2s0.2-1.4,0.5-2c0.4-0.6,0.8-1.1,1.5-1.4
		s1.3-0.5,2.1-0.5s1.5,0.2,2.1,0.5s1.1,0.8,1.5,1.4c0.4,0.6,0.5,1.3,0.5,2s-0.2,1.4-0.5,2c-0.4,0.6-0.8,1.1-1.5,1.4
		s-1.3,0.5-2.1,0.5S15.4,111.2,14.8,110.8z M18.1,109.6c0.4-0.2,0.6-0.5,0.8-0.9s0.3-0.8,0.3-1.2c0-0.5-0.1-0.9-0.3-1.2
		s-0.5-0.6-0.8-0.9c-0.4-0.2-0.8-0.3-1.2-0.3s-0.8,0.1-1.2,0.3c-0.4,0.2-0.6,0.5-0.8,0.9s-0.3,0.8-0.3,1.2c0,0.5,0.1,0.9,0.3,1.2
		s0.5,0.6,0.8,0.9c0.4,0.2,0.8,0.3,1.2,0.3S17.7,109.8,18.1,109.6z"/>
	<path class="st0" d="M25.7,110.8c-0.6-0.3-1.1-0.8-1.5-1.4c-0.4-0.6-0.5-1.3-0.5-2s0.2-1.4,0.5-2c0.4-0.6,0.8-1.1,1.5-1.4
		s1.3-0.5,2.1-0.5s1.5,0.2,2.1,0.5s1.1,0.8,1.5,1.4c0.4,0.6,0.5,1.3,0.5,2s-0.2,1.4-0.5,2c-0.4,0.6-0.8,1.1-1.5,1.4
		s-1.3,0.5-2.1,0.5S26.4,111.2,25.7,110.8z M29.1,109.6c0.4-0.2,0.6-0.5,0.8-0.9s0.3-0.8,0.3-1.2c0-0.5-0.1-0.9-0.3-1.2
		s-0.5-0.6-0.8-0.9c-0.4-0.2-0.8-0.3-1.2-0.3s-0.8,0.1-1.2,0.3c-0.4,0.2-0.6,0.5-0.8,0.9s-0.3,0.8-0.3,1.2c0,0.5,0.1,0.9,0.3,1.2
		s0.5,0.6,0.8,0.9c0.4,0.2,0.8,0.3,1.2,0.3S28.7,109.8,29.1,109.6z"/>
	<path class="st0" d="M42,111.2l0-4.5l-2.2,3.7H39l-2.2-3.6v4.4h-1.6v-7.5h1.4l2.8,4.7l2.8-4.7h1.4l0,7.5H42z"/>
	<path class="st0" d="M58.8,108c0.2,0.3,0.4,0.7,0.4,1.2c0,0.7-0.3,1.2-0.8,1.5s-1.3,0.5-2.2,0.5h-3.9v-7.5H56
		c0.9,0,1.6,0.2,2.1,0.5c0.5,0.4,0.7,0.8,0.7,1.4c0,0.4-0.1,0.7-0.3,1c-0.2,0.3-0.4,0.5-0.7,0.7C58.3,107.4,58.6,107.7,58.8,108z
		 M54,105v1.8h1.7c0.4,0,0.8-0.1,1-0.2c0.2-0.1,0.3-0.4,0.3-0.7s-0.1-0.5-0.3-0.7c-0.2-0.1-0.5-0.2-1-0.2H54z M57.1,109.7
		c0.2-0.2,0.3-0.4,0.3-0.7c0-0.6-0.5-0.9-1.4-0.9h-2v1.9h2C56.5,109.9,56.9,109.8,57.1,109.7z"/>
	<path class="st0" d="M67.4,109.6h-3.5l-0.7,1.6h-1.8l3.3-7.5h1.7l3.4,7.5H68L67.4,109.6z M66.8,108.3l-1.2-2.9l-1.2,2.9H66.8z"/>
	<path class="st0" d="M74,110.8c-0.6-0.3-1.1-0.8-1.5-1.4c-0.4-0.6-0.5-1.3-0.5-2s0.2-1.4,0.5-2c0.4-0.6,0.8-1.1,1.5-1.4
		c0.6-0.3,1.3-0.5,2.1-0.5c0.6,0,1.2,0.1,1.8,0.3s1,0.6,1.3,1l-1.1,1c-0.5-0.6-1.1-0.9-1.9-0.9c-0.5,0-0.9,0.1-1.2,0.3
		c-0.4,0.2-0.6,0.5-0.9,0.9s-0.3,0.8-0.3,1.2c0,0.5,0.1,0.9,0.3,1.2s0.5,0.6,0.9,0.9c0.4,0.2,0.8,0.3,1.2,0.3c0.8,0,1.4-0.3,1.9-0.9
		l1.1,1c-0.4,0.4-0.8,0.8-1.3,1c-0.5,0.2-1.1,0.3-1.8,0.3C75.3,111.3,74.6,111.2,74,110.8z"/>
	<path class="st0" d="M85,108.3l-1,1v1.9h-1.7v-7.5H84v3.5l3.3-3.5h1.9l-3.1,3.3l3.3,4.2h-2L85,108.3z"/>
	<path class="st0" d="M96.9,107.3h1.6v3c-0.4,0.3-0.9,0.5-1.4,0.7c-0.5,0.2-1.1,0.2-1.6,0.2c-0.8,0-1.5-0.2-2.1-0.5
		c-0.6-0.3-1.1-0.8-1.5-1.4c-0.4-0.6-0.5-1.3-0.5-2s0.2-1.4,0.5-2c0.4-0.6,0.8-1.1,1.5-1.4c0.6-0.3,1.3-0.5,2.1-0.5
		c0.7,0,1.3,0.1,1.8,0.3c0.5,0.2,1,0.5,1.4,1l-1.1,1c-0.5-0.6-1.2-0.8-1.9-0.8c-0.5,0-0.9,0.1-1.3,0.3c-0.4,0.2-0.7,0.5-0.9,0.8
		c-0.2,0.4-0.3,0.8-0.3,1.3c0,0.5,0.1,0.9,0.3,1.2c0.2,0.4,0.5,0.6,0.9,0.9c0.4,0.2,0.8,0.3,1.3,0.3c0.5,0,1-0.1,1.3-0.3V107.3z"/>
	<path class="st0" d="M106.8,111.2l-1.4-2.1h-0.1h-1.5v2.1H102v-7.5h3.2c0.7,0,1.2,0.1,1.7,0.3s0.9,0.5,1.1,0.9
		c0.3,0.4,0.4,0.9,0.4,1.4c0,0.6-0.1,1-0.4,1.4c-0.3,0.4-0.6,0.7-1.1,0.9l1.7,2.4H106.8z M106.4,105.5c-0.3-0.2-0.7-0.3-1.2-0.3
		h-1.4v2.6h1.4c0.5,0,0.9-0.1,1.2-0.3s0.4-0.5,0.4-1C106.8,106,106.6,105.7,106.4,105.5z"/>
	<path class="st0" d="M113.4,110.8c-0.6-0.3-1.1-0.8-1.5-1.4c-0.4-0.6-0.5-1.3-0.5-2s0.2-1.4,0.5-2c0.4-0.6,0.8-1.1,1.5-1.4
		s1.3-0.5,2.1-0.5s1.5,0.2,2.1,0.5c0.6,0.3,1.1,0.8,1.5,1.4c0.4,0.6,0.5,1.3,0.5,2s-0.2,1.4-0.5,2c-0.4,0.6-0.8,1.1-1.5,1.4
		c-0.6,0.3-1.3,0.5-2.1,0.5S114,111.2,113.4,110.8z M116.7,109.6c0.4-0.2,0.6-0.5,0.8-0.9c0.2-0.4,0.3-0.8,0.3-1.2
		c0-0.5-0.1-0.9-0.3-1.2c-0.2-0.4-0.5-0.6-0.8-0.9c-0.4-0.2-0.8-0.3-1.2-0.3s-0.8,0.1-1.2,0.3c-0.4,0.2-0.6,0.5-0.8,0.9
		s-0.3,0.8-0.3,1.2c0,0.5,0.1,0.9,0.3,1.2s0.5,0.6,0.8,0.9c0.4,0.2,0.8,0.3,1.2,0.3S116.3,109.8,116.7,109.6z"/>
	<path class="st0" d="M123.6,110.5c-0.6-0.6-0.9-1.4-0.9-2.5v-4.2h1.7v4.1c0,1.3,0.6,2,1.7,2c0.5,0,1-0.2,1.2-0.5
		c0.3-0.3,0.4-0.8,0.4-1.5v-4.1h1.7v4.2c0,1.1-0.3,1.9-0.9,2.5c-0.6,0.6-1.4,0.9-2.5,0.9S124.2,111,123.6,110.5z"/>
	<path class="st0" d="M140.1,103.7v7.5h-1.4l-3.7-4.6v4.6h-1.7v-7.5h1.4l3.7,4.6v-4.6H140.1z"/>
	<path class="st0" d="M143.8,103.7h3.4c0.8,0,1.5,0.2,2.2,0.5s1.1,0.7,1.5,1.3c0.3,0.6,0.5,1.2,0.5,2s-0.2,1.4-0.5,2
		c-0.3,0.6-0.8,1-1.5,1.3s-1.3,0.5-2.2,0.5h-3.4V103.7z M147.1,109.8c0.8,0,1.3-0.2,1.8-0.6c0.4-0.4,0.7-1,0.7-1.7s-0.2-1.3-0.7-1.7
		c-0.4-0.4-1-0.6-1.8-0.6h-1.6v4.7H147.1z"/>
</g>
</svg>
