<svg xmlns="http://www.w3.org/2000/svg" viewBox="0 0 155.36 80.03"><title>ic_brand_identity_black</title><g id="Слой_2" data-name="Слой 2"><g id="Слой_1-2" data-name="Слой 1"><g id="Слой_2-2" data-name="Слой 2"><g id="Brand"><path d="M0,6.85V76.31H57.24V0H6.71ZM55.24,2V74.31H2V7.67L7.55,2Z"/><path d="M154,0H65.67V40.87H154Zm-3.71,2-40.5,26.53L69.26,2ZM67.67,38.87V3.35l41.57,27.21a1,1,0,0,0,1.1,0L152,3.27v35.6Z"/><path d="M65.67,76.31H115.1V50.22H65.67Zm2-24.1H113.1v22.1H67.67Z"/><path d="M153.31,57.06a6.43,6.43,0,0,0-8.43-.23c-.35.29-.7.63-1.08,1l-3.23,3.3-8.9,9.08a5.35,5.35,0,0,0-.59,6.91,4.92,4.92,0,0,0,3.65,2.08,4.68,4.68,0,0,0,3.78-1.3c3.28-3.29,6.57-6.67,9.76-9.94l.94-1a3.78,3.78,0,0,0,.6-4.13,3.67,3.67,0,0,0-3.34-2.14h0a4.15,4.15,0,0,0-3.1,1.37Q140.2,65.37,137,68.6l-3.5,3.57-.09.09A1.12,1.12,0,0,0,133,73a.86.86,0,0,0,.27.63.93.93,0,0,0,.65.3,1.18,1.18,0,0,0,.83-.48l.08-.08L140.08,68l4.69-4.79a2,2,0,0,1,2.81-.28l0,0a1.9,1.9,0,0,1,.71,1.29A1.93,1.93,0,0,1,148,65.7l-.31.35-3,3.05q-3.54,3.61-7.07,7.24a3.28,3.28,0,0,1-3.68.85,3.48,3.48,0,0,1-1.11-5.57q1.59-1.67,3.21-3.3l3.57-3.64q3-3.1,6.07-6.18a4.53,4.53,0,0,1,5.72-.67,4.74,4.74,0,0,1,.89,7.35q-4.33,4.45-8.68,8.87l-4,4.08a4.43,4.43,0,0,0-.42.47.87.87,0,0,0,.07,1.16.83.83,0,0,0,.6.27.92.92,0,0,0,.56-.21,4.09,4.09,0,0,0,.42-.4l8.38-8.55,4.3-4.4a6.62,6.62,0,0,0-.1-9.36l-.08-.08Z"/><path d="M13.75,31.82a1,1,0,0,0,1,1h28a1,1,0,0,0,0-2h-28A1,1,0,0,0,13.75,31.82Z"/><path d="M42.71,35.91h-28a1,1,0,1,0,0,2h28a1,1,0,0,0,0-2Z"/><path d="M42.71,41h-28a1,1,0,0,0,0,2h28a1,1,0,0,0,0-2Z"/><path d="M33.17,46.1H14.75a1,1,0,0,0,0,2H33.17a1,1,0,0,0,0-2Z"/><path d="M18.2,13.7,12.86,8.26,7.53,13.7l5.33,5.44Zm-5.33-2.59L15.4,13.7l-2.53,2.59L10.33,13.7Z"/><path d="M85.05,63.26l5.33,5.44,5.33-5.44-5.33-5.44Zm5.33,2.59-2.53-2.59,2.53-2.59,2.53,2.59Z"/><path d="M141.73,32.71l2.92,3,2.92-3-2.92-3Zm2.92.13-.12-.13.12-.13.12.13Z"/></g></g></g></g></svg>