<?xml version="1.0" encoding="utf-8"?>
<svg xmlns="http://www.w3.org/2000/svg"
	xmlns:xlink="http://www.w3.org/1999/xlink"
	width="153px" height="24px" viewBox="0 0 153 24">
<path fillRule="evenodd" d="M 144.86 20.12C 140.72 20.12 137.66 17.05 137.66 13.21 137.66 13.21 137.66 13.16 137.66 13.16 137.66 9.32 140.75 6.2 144.91 6.2 149.05 6.2 152.11 9.27 152.11 13.11 152.11 13.11 152.11 13.16 152.11 13.16 152.11 17 149.02 20.12 144.86 20.12ZM 148.37 13.16C 148.37 11.19 146.95 9.47 144.86 9.47 142.69 9.47 141.4 11.14 141.4 13.11 141.4 13.11 141.4 13.16 141.4 13.16 141.4 15.13 142.82 16.85 144.91 16.85 147.08 16.85 148.37 15.18 148.37 13.21 148.37 13.21 148.37 13.16 148.37 13.16ZM 133.41 9.92C 133.41 9.92 132.17 9.92 132.17 9.92 132.17 9.92 132.15 19.82 132.15 19.82 132.15 19.82 128.38 19.82 128.38 19.82 128.38 19.82 128.38 6.49 128.38 6.49 128.38 6.49 134.21 6.49 134.21 6.49 135.04 6.49 136.94 6.82 137.85 8.01 137.85 8.01 136.46 10.94 136.46 10.94 135.67 10.31 134.92 9.92 133.41 9.92ZM 120.32 19.82C 120.32 19.82 115.37 19.82 115.37 19.82 114.53 19.82 112.54 19.42 112.45 16.74 112.45 16.74 112.45 2.36 112.45 2.36 112.45 2.36 120.54 2.36 120.54 2.36 124.11 2.36 126.3 4.13 126.3 6.88 126.3 6.88 126.3 6.93 126.3 6.93 126.3 8.9 125.25 9.99 124.01 10.69 126.02 11.47 126.84 12.64 126.84 14.98 126.84 14.98 126.84 15.03 126.84 15.03 126.84 18.23 124.25 19.82 120.32 19.82ZM 122.49 7.53C 122.49 6.38 121.59 5.73 119.97 5.73 119.97 5.73 116.18 5.73 116.18 5.73 116.18 5.73 116.18 8.52 116.18 8.52 116.25 9.24 116.74 9.39 117.03 9.42 117.03 9.42 119.72 9.42 119.72 9.42 121.42 9.42 122.49 8.87 122.49 7.57 122.49 7.57 122.49 7.53 122.49 7.53ZM 123.03 14.51C 123.03 13.34 121.97 12.61 120.62 12.61 120.62 12.61 116.18 12.61 116.18 12.61 116.18 12.61 116.18 15.56 116.18 15.56 116.25 16.25 116.7 16.42 116.99 16.45 116.99 16.45 120.32 16.45 120.32 16.45 122.01 16.45 123.03 15.86 123.03 14.56 123.03 14.56 123.03 14.51 123.03 14.51ZM 106.58 12.58C 106.58 10.78 105.74 9.86 104.29 9.86 104.29 9.86 101.93 9.86 101.93 9.86 101.93 9.86 101.92 19.82 101.92 19.82 101.92 19.82 98.14 19.82 98.14 19.82 98.14 19.82 98.14 6.49 98.14 6.49 98.14 6.49 105.84 6.49 105.84 6.49 108.7 6.49 110.37 8.31 110.37 11.38 110.37 11.38 110.37 19.82 110.37 19.82 110.37 19.82 106.58 19.82 106.58 19.82 106.58 19.82 106.58 12.58 106.58 12.58ZM 89.01 24C 87.18 24 85.99 23.56 84.64 22.85 84.64 22.85 85.73 20.06 85.73 20.06 86.74 20.65 87.92 20.89 88.91 20.86 91.5 20.78 92.08 19.85 92.08 18.17 92.08 18.17 92.08 17.32 92.08 17.32 91.24 18.23 90.38 18.74 88.36 18.74 85.25 18.74 83.07 16.69 83.07 12.72 83.07 12.72 83.07 12.67 83.07 12.67 83.07 8.68 85.3 6.49 88.36 6.49 88.36 6.49 95.82 6.49 95.82 6.49 95.82 6.49 95.82 16.82 95.82 16.82 95.82 21.86 93.96 24 89.01 24ZM 91.97 9.58C 91.97 9.58 89.46 9.58 89.46 9.58 87.61 9.58 86.86 10.85 86.86 12.67 86.86 12.67 86.86 12.72 86.86 12.72 86.86 14.56 87.61 15.81 89.46 15.81 91.3 15.81 91.97 14.72 91.97 12.9 91.97 12.9 91.97 9.58 91.97 9.58ZM 79.53 4.84C 78.19 4.84 77.11 3.76 77.11 2.42 77.11 1.08 78.19-0 79.53-0 80.86-0 81.95 1.08 81.95 2.42 81.95 3.76 80.86 4.84 79.53 4.84ZM 70.96 20.07C 69.09 20.07 67 19.45 65.23 18.05 65.23 18.05 66.85 15.56 66.85 15.56 68.29 16.61 69.81 17.15 71.06 17.15 72.16 17.15 72.65 16.75 72.65 16.16 72.65 16.16 72.65 16.11 72.65 16.11 72.65 15.28 71.36 15.01 69.89 14.56 68.02 14.01 65.9 13.14 65.9 10.54 65.9 10.54 65.9 10.49 65.9 10.49 65.9 7.77 68.1 6.25 70.79 6.25 72.48 6.25 74.32 6.83 75.77 7.8 75.77 7.8 74.32 10.42 74.32 10.42 73 9.65 71.68 9.17 70.71 9.17 69.79 9.17 69.32 9.57 69.32 10.09 69.32 10.09 69.32 10.14 69.32 10.14 69.32 10.89 70.59 11.24 72.03 11.74 73.9 12.36 76.07 13.26 76.07 15.71 76.07 15.71 76.07 15.76 76.07 15.76 76.07 18.73 73.85 20.07 70.96 20.07ZM 55.61 14.46C 55.99 16.18 57.18 17.08 58.88 17.08 60.15 17.08 61.07 16.68 62.12 15.71 62.12 15.71 64.28 17.63 64.28 17.63 63.04 19.17 61.24 20.12 58.83 20.12 54.82 20.12 51.85 17.3 51.85 13.21 51.85 13.21 51.85 13.16 51.85 13.16 51.85 9.35 54.57 6.2 58.45 6.2 62.91 6.2 64.95 9.67 64.95 13.46 64.95 13.46 64.95 13.51 64.95 13.51 64.95 13.89 64.93 14.11 64.9 14.46 64.9 14.46 55.61 14.46 55.61 14.46ZM 58.45 9.25C 56.88 9.25 55.86 10.37 55.56 12.09 55.56 12.09 61.27 12.09 61.27 12.09 61.04 10.39 60.05 9.25 58.45 9.25ZM 41.59 19.82C 41.59 19.82 37.49 19.82 37.49 19.82 36.38 19.81 34.9 19.14 34.79 16.87 34.79 16.87 34.79 2.36 34.79 2.36 34.79 2.36 41.59 2.36 41.59 2.36 47.07 2.36 50.86 6.13 50.86 11.04 50.86 11.04 50.86 11.09 50.86 11.09 50.86 16.01 47.07 19.82 41.59 19.82ZM 46.85 11.09C 46.85 8 44.73 5.83 41.59 5.83 41.59 5.83 38.63 5.83 38.63 5.83 38.63 5.83 38.63 15.48 38.63 15.48 38.71 16.2 39.21 16.33 39.5 16.36 39.5 16.36 41.59 16.36 41.59 16.36 44.73 16.36 46.85 14.23 46.85 11.14 46.85 11.14 46.85 11.09 46.85 11.09ZM 81.37 19.82C 81.37 19.82 77.58 19.82 77.58 19.82 77.58 19.82 77.58 6.45 77.58 6.45 77.58 6.45 81.37 6.45 81.37 6.45 81.37 6.45 81.37 19.82 81.37 19.82Z" fill="rgb(255,255,255)"/><path fillRule="evenodd" d="M 23.63 10.68C 24.87 9.99 25.92 8.89 25.92 6.92 25.92 6.92 25.92 6.87 25.92 6.87 25.92 4.12 23.73 2.35 20.16 2.35 20.16 2.35 12.07 2.35 12.07 2.35 12.07 2.35 12.07 11.14 12.07 11.14 12.07 11.14 12.06 11.14 12.06 11.14 12.05 14.23 9.94 16.35 6.8 16.35 6.8 16.35 4.7 16.35 4.7 16.35 4.42 16.33 3.91 16.19 3.83 15.47 3.83 15.47 3.83 5.82 3.83 5.82 3.83 5.82 6.8 5.82 6.8 5.82 8.4 5.82 9.16 6.29 10.08 7.25 10.08 7.25 10.08 2.96 10.08 2.96 8.93 2.5 8.21 2.35 6.8 2.35 6.8 2.35-0 2.35-0 2.35-0 2.35-0 16.86-0 16.86 0.11 19.13 1.59 19.8 2.7 19.81 2.7 19.81 6.8 19.81 6.8 19.81 11.99 19.81 15.71 16.29 15.8 11.87 15.81 11.86 15.8 5.72 15.8 5.72 15.8 5.72 19.59 5.72 19.59 5.72 21.21 5.72 22.11 6.37 22.11 7.52 22.11 7.52 22.11 7.57 22.11 7.57 22.11 8.86 21.04 9.41 19.34 9.41 19.34 9.41 17.72 9.41 17.72 9.41 17.72 9.41 17.72 12.61 17.72 12.61 17.72 12.61 20.24 12.61 20.24 12.61 21.59 12.61 22.65 13.33 22.65 14.5 22.65 14.5 22.65 14.55 22.65 14.55 22.65 15.85 21.63 16.45 19.94 16.45 19.94 16.45 16.6 16.44 16.6 16.44 15.74 17.93 14.88 18.94 13.43 19.81 13.43 19.81 19.94 19.81 19.94 19.81 23.87 19.81 26.46 18.22 26.46 15.03 26.46 15.03 26.46 14.98 26.46 14.98 26.46 12.63 25.65 11.46 23.63 10.68Z" fill="rgb(237,25,67)"/></svg>
