<svg xmlns="http://www.w3.org/2000/svg" viewBox="0 0 151 78.43"><title>ic_packaging_project_black</title><g id="Слой_2" data-name="Слой 2"><g id="Слой_1-2" data-name="Слой 1"><g id="Слой_2-2" data-name="Слой 2"><g id="Package"><path d="M89,77.29h17l1-19.5v-37L106,.29H89l-1,21H82v-20H25v20H19l-1-21H1L0,20.79v37l1,19.5H18l1-19h6v20H82v-20h6Zm-9-19v18H27v-18a2,2,0,0,0-2-2H22v-1a.5.5,0,0,0-1,0v1H19a2,2,0,0,0-2,1.89l-.9,17.11H2.9L2,57.74V20.84L2.9,2.29H16.09L17,21.38a2,2,0,0,0,2,1.9h6a2,2,0,0,0,2-2v-18H80v18a2,2,0,0,0,2,2h6a2,2,0,0,0,2-1.9l.91-19.1H104l1,18.55v36.9l-.9,17.55H90.9L90,58.18a2,2,0,0,0-2-1.89H82A2,2,0,0,0,80,58.29Z"/><path d="M29,20.29H28a.5.5,0,0,0,0,1h1a.5.5,0,0,0,0-1Z"/><path d="M62,20.29H59a.5.5,0,0,0,0,1h3a.5.5,0,0,0,0-1Z"/><path d="M38,20.29H35a.5.5,0,0,0,0,1h3a.5.5,0,0,0,0-1Z"/><path d="M46,20.29H43a.5.5,0,0,0,0,1h3a.5.5,0,0,0,0-1Z"/><path d="M70,20.29H67a.5.5,0,0,0,0,1h3a.5.5,0,0,0,0-1Z"/><path d="M54,20.29H51a.5.5,0,0,0,0,1h3a.5.5,0,0,0,0-1Z"/><path d="M78,20.29H76a.5.5,0,0,0,0,1h2a.5.5,0,0,0,0-1Z"/><path d="M4,20.29H3a.5.5,0,0,0,0,1H4a.5.5,0,0,0,0-1Z"/><path d="M10,20.29H8a.5.5,0,0,0,0,1h2a.5.5,0,0,0,0-1Z"/><path d="M16,20.29H14a.5.5,0,1,0,0,1h2a.5.5,0,0,0,0-1Z"/><path d="M91,21.29h1a.5.5,0,0,0,0-1H91a.5.5,0,0,0,0,1Z"/><path d="M96,21.29h2a.5.5,0,0,0,0-1H96a.5.5,0,0,0,0,1Z"/><path d="M102,21.29h2a.5.5,0,0,0,0-1h-2a.5.5,0,0,0,0,1Z"/><path d="M86.5,23.79a.5.5,0,0,0-.5.5v2a.5.5,0,0,0,1,0v-2A.5.5,0,0,0,86.5,23.79Z"/><path d="M86.5,37.79a.5.5,0,0,0-.5.5v3a.5.5,0,0,0,1,0v-3A.5.5,0,0,0,86.5,37.79Z"/><path d="M86.5,29.79a.5.5,0,0,0-.5.5v3a.5.5,0,0,0,1,0v-3A.5.5,0,0,0,86.5,29.79Z"/><path d="M86.5,45.79a.5.5,0,0,0-.5.5v3a.5.5,0,1,0,1,0v-3A.5.5,0,0,0,86.5,45.79Z"/><path d="M86.5,53.79a.5.5,0,0,0-.5.5v1a.5.5,0,1,0,1,0v-1A.5.5,0,0,0,86.5,53.79Z"/><path d="M21.5,23.79a.5.5,0,0,0-.5.5v2a.5.5,0,0,0,1,0v-2A.5.5,0,0,0,21.5,23.79Z"/><path d="M21.5,30.79a.5.5,0,0,0-.5.5v3a.5.5,0,0,0,1,0v-3A.5.5,0,0,0,21.5,30.79Z"/><path d="M21.5,46.79a.5.5,0,0,0-.5.5v3a.5.5,0,0,0,1,0v-3A.5.5,0,0,0,21.5,46.79Z"/><path d="M21.5,38.79a.5.5,0,0,0-.5.5v3a.5.5,0,0,0,1,0v-3A.5.5,0,0,0,21.5,38.79Z"/><path d="M29,57.29H28a.5.5,0,0,0,0,1h1a.5.5,0,0,0,0-1Z"/><path d="M46,57.29H43a.5.5,0,0,0,0,1h3a.5.5,0,0,0,0-1Z"/><path d="M70,57.29H67a.5.5,0,0,0,0,1h3a.5.5,0,0,0,0-1Z"/><path d="M62,57.29H59a.5.5,0,0,0,0,1h3a.5.5,0,0,0,0-1Z"/><path d="M38,57.29H35a.5.5,0,0,0,0,1h3a.5.5,0,0,0,0-1Z"/><path d="M54,57.29H51a.5.5,0,0,0,0,1h3a.5.5,0,0,0,0-1Z"/><path d="M78,57.29H76a.5.5,0,0,0,0,1h2a.5.5,0,0,0,0-1Z"/><path d="M4,57.29H3a.5.5,0,0,0,0,1H4a.5.5,0,0,0,0-1Z"/><path d="M10,57.29H8a.5.5,0,0,0,0,1h2a.5.5,0,0,0,0-1Z"/><path d="M16,57.29H14a.5.5,0,0,0,0,1h2a.5.5,0,0,0,0-1Z"/><path d="M91,58.29h1a.5.5,0,0,0,0-1H91a.5.5,0,0,0,0,1Z"/><path d="M96,58.29h2a.5.5,0,0,0,0-1H96a.5.5,0,0,0,0,1Z"/><path d="M102,58.29h2a.5.5,0,0,0,0-1h-2a.5.5,0,0,0,0,1Z"/><path d="M114.44,0V78.43H151V0ZM149,76.43H116.44v-10H149ZM116.44,2.06H149V64.4H116.44Z"/><path d="M127.55,35.54l5.15,5.15,5.15-5.15-5.15-5.15Zm5.15,2.32-2.32-2.32,2.32-2.32,2.3,2.32Z"/></g></g></g></g></svg>