<?xml version="1.0" encoding="utf-8"?>
<!-- Generator: Adobe Illustrator 23.0.1, SVG Export Plug-In . SVG Version: 6.00 Build 0)  -->
<svg version="1.1" id="Layer_1" xmlns="http://www.w3.org/2000/svg" xmlns:xlink="http://www.w3.org/1999/xlink" x="0px" y="0px"
	 viewBox="0 0 320.4 293.5" style="enable-background:new 0 0 320.4 293.5;" xml:space="preserve">
<style type="text/css">
	.st0{fill:url(#SVGID_1_);}
	.st1{fill:url(#SVGID_2_);}
	.st2{fill:url(#SVGID_3_);}
	.st3{fill:url(#SVGID_4_);}
	.st4{fill:url(#SVGID_5_);}
	.st5{fill:url(#SVGID_6_);}
	.st6{fill:url(#SVGID_7_);}
	.st7{fill:url(#SVGID_8_);}
	.st8{opacity:0.5;fill:url(#SVGID_9_);}
	.st9{fill:#E92046;}
	.st10{fill:url(#SVGID_10_);}
	.st11{opacity:0.62;fill:url(#SVGID_11_);}
	.st12{fill:url(#SVGID_12_);}
	.st13{fill:#B21F2F;}
	.st14{opacity:0.62;fill:url(#SVGID_13_);}
	.st15{opacity:0.62;fill:url(#SVGID_14_);}
	.st16{fill:url(#SVGID_15_);}
	.st17{fill:url(#SVGID_16_);}
	.st18{opacity:0.62;fill:url(#SVGID_17_);}
	.st19{fill:url(#SVGID_18_);}
	.st20{opacity:0.19;fill:url(#SVGID_19_);}
	.st21{opacity:0.22;fill:url(#SVGID_20_);}
	.st22{opacity:0.85;fill:url(#SVGID_21_);}
	.st23{fill:url(#SVGID_22_);}
	.st24{fill:#231F20;}
	.st25{opacity:0.75;fill:url(#SVGID_23_);}
	.st26{fill:url(#SVGID_24_);}
	.st27{fill:#FFFFFF;}
	.st28{opacity:0.8;fill:#FFFFFF;}
	.st29{fill:url(#SVGID_25_);}
	.st30{opacity:0.62;fill:url(#SVGID_26_);}
	.st31{fill:url(#SVGID_27_);}
	.st32{fill:url(#SVGID_28_);}
	.st33{fill:url(#SVGID_29_);}
	.st34{fill:url(#SVGID_30_);}
	.st35{opacity:0.5;fill:url(#SVGID_31_);}
	.st36{fill:#FAAF43;}
	.st37{fill:url(#SVGID_32_);}
	.st38{fill:url(#SVGID_33_);}
	.st39{opacity:0.62;fill:url(#SVGID_34_);}
	.st40{fill:url(#SVGID_35_);}
	.st41{fill:url(#SVGID_36_);}
	.st42{opacity:0.62;fill:url(#SVGID_37_);}
	.st43{opacity:0.62;fill:url(#SVGID_38_);}
	.st44{fill:url(#SVGID_39_);}
	.st45{fill:url(#SVGID_40_);}
	.st46{opacity:0.62;fill:url(#SVGID_41_);}
	.st47{fill:url(#SVGID_42_);}
	.st48{fill:url(#SVGID_43_);}
	.st49{opacity:0.75;fill:url(#SVGID_44_);}
	.st50{opacity:0.85;fill:url(#SVGID_45_);}
	.st51{fill:url(#SVGID_46_);}
	.st52{opacity:0.75;fill:url(#SVGID_47_);}
	.st53{fill:url(#SVGID_48_);}
	.st54{fill:url(#SVGID_49_);}
	.st55{opacity:0.62;fill:url(#SVGID_50_);}
	.st56{fill:#0E3456;}
	.st57{fill:url(#SVGID_51_);}
	.st58{fill:url(#SVGID_52_);}
	.st59{fill:url(#SVGID_53_);}
	.st60{fill:url(#SVGID_54_);}
	.st61{opacity:0.83;}
	.st62{fill:url(#SVGID_55_);}
	.st63{fill:url(#SVGID_56_);}
</style>
<g>
	<linearGradient id="SVGID_1_" gradientUnits="userSpaceOnUse" x1="242.7775" y1="217.9641" x2="299.4012" y2="226.9312">
		<stop  offset="0" style="stop-color:#AFB0B2"/>
		<stop  offset="0.9995" style="stop-color:#FFFFFF;stop-opacity:0"/>
	</linearGradient>
	<path class="st0" d="M307.2,178l-186.3-40.6l128,142.7c0.9-0.7,26.7-11.9,58.3-25.5V178z"/>
	<g>
		<linearGradient id="SVGID_2_" gradientUnits="userSpaceOnUse" x1="253.6242" y1="157.5829" x2="250.1728" y2="291.2466">
			<stop  offset="0" style="stop-color:#73CDDB;stop-opacity:0"/>
			<stop  offset="0.9995" style="stop-color:#037598"/>
		</linearGradient>
		<path class="st1" d="M252,272.6l-5.6,4.3l-11.5-113.6c0,0,13.1-17.4,37.5-10.9L252,272.6z"/>
		<g>
			<linearGradient id="SVGID_3_" gradientUnits="userSpaceOnUse" x1="307.5198" y1="229.1113" x2="43.4448" y2="-0.151">
				<stop  offset="0" style="stop-color:#73CDDB"/>
				<stop  offset="0.9995" style="stop-color:#037598"/>
			</linearGradient>
			<path class="st2" d="M256,273.7c1.2-1.3,1.6-1.9,1.9-3.7l33.1-176.8c0.3-1.9-0.7-4.2-3.3-4.5L81.5,53.2c-0.4-0.1-0.7-0.1-1.1,0
				l-6,0.4L65.5,143l190,131.2L256,273.7z"/>
			<linearGradient id="SVGID_4_" gradientUnits="userSpaceOnUse" x1="180.2256" y1="74.3858" x2="158.5759" y2="200.0485">
				<stop  offset="0" style="stop-color:#73CDDB"/>
				<stop  offset="0.9995" style="stop-color:#037598"/>
			</linearGradient>
			<path class="st3" d="M255.4,274.2l32.6-180.9c0.2-1.4-0.7-2.7-2-2.9L75.2,53.6c-1.4-0.2-2.7,0.7-2.9,2.2l-9.7,88.6l179.3,130.1
				L255.4,274.2z"/>
			<linearGradient id="SVGID_5_" gradientUnits="userSpaceOnUse" x1="180.2256" y1="74.3858" x2="158.5759" y2="200.0485">
				<stop  offset="0" style="stop-color:#73CDDB"/>
				<stop  offset="0.9995" style="stop-color:#037598"/>
			</linearGradient>
			<path class="st4" d="M255.4,274.2l32.7-180.9c0.2-1.4-0.7-2.7-2-2.9L75.2,53.6c-1.4-0.2-2.7,0.7-2.9,2.2l-9.7,88.6l179.3,130.1
				L255.4,274.2z"/>
			<g>
				<g>
					
						<linearGradient id="SVGID_6_" gradientUnits="userSpaceOnUse" x1="478.4099" y1="-325.487" x2="468.4733" y2="-339.5001" gradientTransform="matrix(0.8237 -0.567 0.567 0.8237 -15.6202 733.1991)">
						<stop  offset="0" style="stop-color:#EB1F3D"/>
						<stop  offset="0.9986" style="stop-color:#89181C"/>
					</linearGradient>
					<path class="st5" d="M184.4,162.6c0,0,24.1,11.9,4.1,34.9c-19.6,22.4-19.2,16.8-17.4,8.6c1.8-8.3,4.4-22,4.4-22
						S179.1,159.6,184.4,162.6z"/>
					
						<linearGradient id="SVGID_7_" gradientUnits="userSpaceOnUse" x1="534.3245" y1="-479.2326" x2="571.312" y2="-433.9644" gradientTransform="matrix(0.8237 -0.567 0.567 0.8237 -15.6202 733.1991)">
						<stop  offset="0" style="stop-color:#EADCCD"/>
						<stop  offset="0.9995" style="stop-color:#DEA87B"/>
					</linearGradient>
					<path class="st6" d="M134.9,49.6c0,0,19-19.6,53.5-40.8c0,0,16.3,28.4,25.1,61.7l-11.4,16.3l-61.5-18L134.9,49.6z"/>
					
						<linearGradient id="SVGID_8_" gradientUnits="userSpaceOnUse" x1="573.1622" y1="-470.8816" x2="553.4976" y2="-420.7507" gradientTransform="matrix(0.8237 -0.567 0.567 0.8237 -15.6202 733.1991)">
						<stop  offset="4.318467e-04" style="stop-color:#EADCCD;stop-opacity:0"/>
						<stop  offset="0.9989" style="stop-color:#D88958"/>
					</linearGradient>
					<path class="st7" d="M213.5,70.5c0,0-11-36.7-24.9-61.7c0,0,2.7,28,0.4,62.2C189,71.1,202.4,82.1,213.5,70.5z"/>
					
						<linearGradient id="SVGID_9_" gradientUnits="userSpaceOnUse" x1="562.989" y1="-442.2237" x2="572.6499" y2="-439.1874" gradientTransform="matrix(0.8237 -0.567 0.567 0.8237 -15.6202 733.1991)">
						<stop  offset="4.318467e-04" style="stop-color:#EADCCD;stop-opacity:0"/>
						<stop  offset="0.9989" style="stop-color:#D88958"/>
					</linearGradient>
					<path class="st8" d="M213.5,70.5c0.4-0.5-11.1-34.2-18.2-48.1c0,0,6.4,25.7,10.7,52.6C205.9,75,212.2,71.9,213.5,70.5z"/>
					<path class="st9" d="M134.9,49.6L110,176.1c0,0,26.6,28.9,67.4,10.9c1.6-0.7,2.8-2.1,3.3-3.7l32.8-112.7c0,0-10,11.4-24.5,0.5
						c0,0-17.6,11.9-29.4-9.2C159.6,61.9,144.1,70.8,134.9,49.6z"/>
					<g>
						
							<linearGradient id="SVGID_10_" gradientUnits="userSpaceOnUse" x1="449.5668" y1="-405.7428" x2="518.7572" y2="-459.4758" gradientTransform="matrix(0.8237 -0.567 0.567 0.8237 -15.6202 733.1991)">
							<stop  offset="0" style="stop-color:#E92046"/>
							<stop  offset="0.8137" style="stop-color:#EF3956"/>
						</linearGradient>
						<path class="st10" d="M134.9,49.6L110,176.1c0,0,7.3,7.9,20.2,12.9l29-126.9C156.8,63.3,143.3,68.9,134.9,49.6z"/>
						<path class="st9" d="M159.6,61.9c0,0-0.1,0.1-0.4,0.2l-29,126.9c7.3,2.8,16.3,4.7,26.8,3.6l32-121.4
							C187.9,71.8,171,82.2,159.6,61.9z"/>
						
							<linearGradient id="SVGID_11_" gradientUnits="userSpaceOnUse" x1="469.7189" y1="-417.99" x2="494.7452" y2="-387.8112" gradientTransform="matrix(0.8237 -0.567 0.567 0.8237 -15.6202 733.1991)">
							<stop  offset="0" style="stop-color:#741C34"/>
							<stop  offset="1" style="stop-color:#F69320;stop-opacity:0.42"/>
						</linearGradient>
						<path class="st11" d="M159.6,61.9c0,0-0.1,0.1-0.4,0.2l-29,126.9c7.3,2.8,16.3,4.7,26.8,3.6l32-121.4
							C187.9,71.8,171,82.2,159.6,61.9z"/>
						
							<linearGradient id="SVGID_12_" gradientUnits="userSpaceOnUse" x1="448.7063" y1="-384.8689" x2="564.4802" y2="-384.8689" gradientTransform="matrix(0.8237 -0.567 0.567 0.8237 -15.6202 733.1991)">
							<stop  offset="0" style="stop-color:#F15B2A"/>
							<stop  offset="0.9995" style="stop-color:#F69320"/>
						</linearGradient>
						<path class="st12" d="M189,71.1C189,71.1,189,71.1,189,71.1l-32.1,121.5c6.3-0.6,13.2-2.4,20.5-5.6c1.6-0.7,2.8-2.1,3.3-3.7
							l32.8-112.7C213.5,70.5,203.6,81.9,189,71.1z"/>
						<path class="st13" d="M189,71.1C189,71.1,189,71.1,189,71.1l-32.1,121.5c6.3-0.6,13.2-2.4,20.5-5.6c1.6-0.7,2.8-2.1,3.3-3.7
							l32.8-112.7C213.5,70.5,203.6,81.9,189,71.1z"/>
						
							<linearGradient id="SVGID_13_" gradientUnits="userSpaceOnUse" x1="499.0789" y1="-390.5019" x2="511.04" y2="-376.5165" gradientTransform="matrix(0.8237 -0.567 0.567 0.8237 -15.6202 733.1991)">
							<stop  offset="0" style="stop-color:#891930"/>
							<stop  offset="1" style="stop-color:#F69320;stop-opacity:0.42"/>
						</linearGradient>
						<path class="st14" d="M189,71.1C189,71.1,189,71.1,189,71.1l-32.1,121.5c6.3-0.6,13.2-2.4,20.5-5.6c1.6-0.7,2.8-2.1,3.3-3.7
							l32.8-112.7C213.5,70.5,203.6,81.9,189,71.1z"/>
						<linearGradient id="SVGID_14_" gradientUnits="userSpaceOnUse" x1="188.181" y1="128.5939" x2="205.3096" y2="57.9386">
							<stop  offset="0" style="stop-color:#63182E"/>
							<stop  offset="1" style="stop-color:#F69320;stop-opacity:0.42"/>
						</linearGradient>
						<path class="st15" d="M175,135.8l26.8-60c0,0,3.8,1.3,11.9-5l-14,48.8C199.7,119.6,185.3,146.6,175,135.8z"/>
					</g>
					<g>
						
							<linearGradient id="SVGID_15_" gradientUnits="userSpaceOnUse" x1="564.6686" y1="-480.903" x2="571.4772" y2="-473.3583" gradientTransform="matrix(0.8237 -0.567 0.567 0.8237 -15.6202 733.1991)">
							<stop  offset="0" style="stop-color:#999C9E"/>
							<stop  offset="1" style="stop-color:#414142"/>
						</linearGradient>
						<path class="st16" d="M169.1,21.6c3.7,2.9,15.3,11.1,29.6,8.7C194,19.1,188.4,8.8,188.4,8.8C181.2,13.2,175,17.6,169.1,21.6z"
							/>
					</g>
					
						<linearGradient id="SVGID_16_" gradientUnits="userSpaceOnUse" x1="395.0329" y1="-373.7255" x2="430.9163" y2="-406.6646" gradientTransform="matrix(0.8237 -0.567 0.567 0.8237 -15.6202 733.1991)">
						<stop  offset="0" style="stop-color:#EB1F3D"/>
						<stop  offset="0.9986" style="stop-color:#89181C"/>
					</linearGradient>
					<path class="st17" d="M115.8,151.6c0,0-32,4-20.8,35.1c10.7,29.7,12.9,23.6,14.9,14.6c2-9.2,5.5-24.3,5.5-24.3
						S122.8,151.4,115.8,151.6z"/>
					
						<linearGradient id="SVGID_17_" gradientUnits="userSpaceOnUse" x1="453.3279" y1="-363.565" x2="469.1455" y2="-338.3175" gradientTransform="matrix(0.8237 -0.567 0.567 0.8237 -15.6202 733.1991)">
						<stop  offset="3.336997e-04" style="stop-color:#C73827"/>
						<stop  offset="1" style="stop-color:#F69320;stop-opacity:0.42"/>
					</linearGradient>
					<path class="st18" d="M153.4,163.2c0,0,14.5,5.1,17.3,22.6l0.1,3.6c0,0-11.8,3.8-16.2,2.8C150.2,191.2,153.4,163.2,153.4,163.2
						z"/>
					
						<linearGradient id="SVGID_18_" gradientUnits="userSpaceOnUse" x1="408.8981" y1="-329.6054" x2="458.0307" y2="-373.7695" gradientTransform="matrix(0.8237 -0.567 0.567 0.8237 -15.6202 733.1991)">
						<stop  offset="0.2692" style="stop-color:#EB1F3D"/>
						<stop  offset="0.9986" style="stop-color:#89181C"/>
					</linearGradient>
					<path class="st19" d="M151.7,162.3c0,0-20.4-5.4-21.2,22.1c-0.8,44-1.5,74.8,29.2,4.1C159.7,188.5,167.7,168.3,151.7,162.3z"/>
				</g>
				
					<linearGradient id="SVGID_19_" gradientUnits="userSpaceOnUse" x1="525.0264" y1="-455.2012" x2="431.1777" y2="-370.7373" gradientTransform="matrix(0.8237 -0.567 0.567 0.8237 -15.6202 733.1991)">
					<stop  offset="0" style="stop-color:#FFFFFF"/>
					<stop  offset="0.9995" style="stop-color:#F69320;stop-opacity:0"/>
				</linearGradient>
				<polygon class="st20" points="159.3,62 130.2,189 126.8,187.8 155.9,63.2 				"/>
				
					<linearGradient id="SVGID_20_" gradientUnits="userSpaceOnUse" x1="546.459" y1="-430.9755" x2="478.3461" y2="-375.5991" gradientTransform="matrix(0.8237 -0.567 0.567 0.8237 -15.6202 733.1991)">
					<stop  offset="0" style="stop-color:#FFFFFF"/>
					<stop  offset="0.9995" style="stop-color:#F69320;stop-opacity:0"/>
				</linearGradient>
				<polygon class="st21" points="189,71.1 156.9,192.5 153.5,191.4 185.5,73 				"/>
				
					<linearGradient id="SVGID_21_" gradientUnits="userSpaceOnUse" x1="533.4321" y1="-481.2476" x2="535.7507" y2="-465.3487" gradientTransform="matrix(0.8237 -0.567 0.567 0.8237 -15.6202 733.1991)">
					<stop  offset="0" style="stop-color:#FFFFFF"/>
					<stop  offset="0.9995" style="stop-color:#FFFFFF;stop-opacity:0"/>
				</linearGradient>
				<path class="st22" d="M169,21.5c0,0,4.4,3.2,7.1,4.5c3.1,1.6-17.6,36.4-17.6,36.4s-15.4,7.1-23.5-13.1
					C134.9,49.4,144.1,38.5,169,21.5z"/>
				
					<linearGradient id="SVGID_22_" gradientUnits="userSpaceOnUse" x1="580.5409" y1="-480.5651" x2="561.5986" y2="-474.3425" gradientTransform="matrix(0.8237 -0.567 0.567 0.8237 -15.6202 733.1991)">
					<stop  offset="0" style="stop-color:#FFFFFF"/>
					<stop  offset="0.9995" style="stop-color:#FFFFFF;stop-opacity:0"/>
				</linearGradient>
				<path class="st23" d="M173.4,24.4l15-15.6l-8.8,18.9C179.5,27.8,175.5,26.3,173.4,24.4z"/>
				<path class="st24" d="M188.4,8.8l6.7,21.7c0,0-3.9,0.8-6.2-0.3L188.4,8.8z"/>
				
					<linearGradient id="SVGID_23_" gradientUnits="userSpaceOnUse" x1="565.1486" y1="-469.1943" x2="516.2841" y2="-444.6698" gradientTransform="matrix(0.8237 -0.567 0.567 0.8237 -15.6202 733.1991)">
					<stop  offset="4.318467e-04" style="stop-color:#EADCCD;stop-opacity:0"/>
					<stop  offset="0.9989" style="stop-color:#D88958"/>
				</linearGradient>
				<path class="st25" d="M159.3,62L179,27.7l1.4,0.8l-15.3,40.7C165.1,69.2,160.5,64.4,159.3,62z"/>
				
					<linearGradient id="SVGID_24_" gradientUnits="userSpaceOnUse" x1="412.986" y1="-390.3289" x2="406.7406" y2="-398.4112" gradientTransform="matrix(0.8237 -0.567 0.567 0.8237 -15.6202 733.1991)">
					<stop  offset="0" style="stop-color:#EB1F3D"/>
					<stop  offset="0.9982" style="stop-color:#F05273"/>
				</linearGradient>
				<path class="st26" d="M111.3,155.8c6.7-2.9,5.4-3.6,5.1-4.3c-9.5,1.1-31,8.8-21.4,35.1c9.6,26.5,12.4,24.5,14.2,17.3l-0.2-0.1
					c-2,4.3-11.1-18.1-10.5-31.2C98.9,164.1,105.9,158.1,111.3,155.8z"/>
				<path class="st27" d="M103.8,155.5c-1.5,0.9-2.8,2.1-4,3.3c-1.2,1.2-2.2,2.6-3.1,4.1c-1.7,2.9-2.7,6.3-3,9.7
					c-0.2,1.7,0,3.4,0.1,5.1c0.2,1.7,0.4,3.4,0.7,5.1c0.7,3.4,1.5,6.8,2.6,10.1c-1.5-3.2-2.7-6.5-3.6-9.9c-0.4-1.7-0.7-3.5-0.9-5.2
					c-0.2-1.8-0.3-3.5-0.2-5.4c0.3-3.6,1.4-7.1,3.4-10.1C97.9,159.4,100.6,157,103.8,155.5z"/>
				<path class="st27" d="M134.9,49.6c-0.6,3.7-1.2,7.3-1.9,10.9l-2,10.9c-1.3,7.3-2.8,14.5-4.2,21.8c-1.5,7.2-2.9,14.5-4.5,21.7
					l-2.3,10.8c-0.8,3.6-1.5,7.4-2.4,11c0.6-3.7,1.2-7.5,1.8-11.2l2-10.9c1.3-7.3,2.8-14.5,4.2-21.8c1.5-7.2,2.9-14.5,4.5-21.7
					l2.3-10.8C133.2,56.8,134,53.2,134.9,49.6z"/>
				<polygon class="st28" points="172.5,24.3 188.4,8.8 173.4,25.1 				"/>
				
					<linearGradient id="SVGID_25_" gradientUnits="userSpaceOnUse" x1="448.5827" y1="-374.1503" x2="411.5696" y2="-340.9893" gradientTransform="matrix(0.8237 -0.567 0.567 0.8237 -15.6202 733.1991)">
					<stop  offset="0" style="stop-color:#EB1F3D"/>
					<stop  offset="0.9982" style="stop-color:#F05273"/>
				</linearGradient>
				<path class="st29" d="M147.4,177.1c1-4.9-4-8.8-8.4-6.5c-2.4,1.2-4.7,3.3-6.4,6.8c-4.3,8.9-2.1,37.1-1.6,42.5s1.2,8.9,3.1,10.6
					C135.5,231.7,143.8,194,147.4,177.1z"/>
				
					<linearGradient id="SVGID_26_" gradientUnits="userSpaceOnUse" x1="427.9648" y1="-394.0229" x2="440.7039" y2="-373.6894" gradientTransform="matrix(0.8237 -0.567 0.567 0.8237 -15.6202 733.1991)">
					<stop  offset="0" style="stop-color:#F15B2A"/>
					<stop  offset="1" style="stop-color:#F69320;stop-opacity:0.42"/>
				</linearGradient>
				<path class="st30" d="M116.4,151.5c0,0,12.3,7.8,11,20.2c-1.1,10.5-2.9,14.7-2.9,14.7s-8.2-3.7-11-7.2L116.4,151.5z"/>
			</g>
			<linearGradient id="SVGID_27_" gradientUnits="userSpaceOnUse" x1="248.4551" y1="170.9199" x2="278.6915" y2="130.0663">
				<stop  offset="0" style="stop-color:#73CDDB"/>
				<stop  offset="0.9995" style="stop-color:#037598"/>
			</linearGradient>
			<polygon class="st31" points="265.4,164.3 281.4,113.5 247.5,156.1 			"/>
			<g>
				<g>
					
						<linearGradient id="SVGID_28_" gradientUnits="userSpaceOnUse" x1="324.5955" y1="-43.6019" x2="314.6589" y2="-57.615" gradientTransform="matrix(0.9608 -0.2772 0.2772 0.9608 -64.3848 339.1763)">
						<stop  offset="0" style="stop-color:#EB1F3D"/>
						<stop  offset="0.9986" style="stop-color:#89181C"/>
					</linearGradient>
					<path class="st32" d="M236.3,174.7c0,0,19.1,18.9-7.2,34.4c-25.7,15.1-23.5,9.9-19.3,2.6c4.3-7.3,11.1-19.5,11.1-19.5
						S232.2,170.2,236.3,174.7z"/>
					
						<linearGradient id="SVGID_29_" gradientUnits="userSpaceOnUse" x1="380.51" y1="-197.3475" x2="417.4975" y2="-152.0793" gradientTransform="matrix(0.9608 -0.2772 0.2772 0.9608 -64.3848 339.1763)">
						<stop  offset="0" style="stop-color:#EADCCD"/>
						<stop  offset="0.9995" style="stop-color:#DEA87B"/>
					</linearGradient>
					<path class="st33" d="M225.1,51.8c0,0,24.3-12.6,63.7-21.7c0,0,6.5,32.1,4.3,66.5l-16,11.8l-52.7-36.5L225.1,51.8z"/>
					
						<linearGradient id="SVGID_30_" gradientUnits="userSpaceOnUse" x1="419.3477" y1="-188.9965" x2="399.6831" y2="-138.8657" gradientTransform="matrix(0.9608 -0.2772 0.2772 0.9608 -64.3848 339.1763)">
						<stop  offset="4.318467e-04" style="stop-color:#EADCCD;stop-opacity:0"/>
						<stop  offset="0.9989" style="stop-color:#D88958"/>
					</linearGradient>
					<path class="st34" d="M293,96.6c0,0,1.1-38.3-4.1-66.4c0,0-6.3,27.4-19.3,59.1C269.6,89.3,278.9,104.1,293,96.6z"/>
					
						<linearGradient id="SVGID_31_" gradientUnits="userSpaceOnUse" x1="409.1746" y1="-160.3386" x2="418.8355" y2="-157.3023" gradientTransform="matrix(0.9608 -0.2772 0.2772 0.9608 -64.3848 339.1763)">
						<stop  offset="4.318467e-04" style="stop-color:#EADCCD;stop-opacity:0"/>
						<stop  offset="0.9989" style="stop-color:#D88958"/>
					</linearGradient>
					<path class="st35" d="M293,96.6c0.6-0.3,0.3-35.9-2.1-51.4c0,0-2.1,26.4-6.5,53.3C284.4,98.4,291.3,97.5,293,96.6z"/>
					<path class="st36" d="M225.1,51.8l-63.6,112.1c0,0,16.1,35.8,60.5,31.7c1.7-0.2,3.3-1.1,4.3-2.4L293,96.6c0,0-13,7.6-23.4-7.2
						c0,0-20.4,5.7-25-18C244.6,71.3,227.1,74.8,225.1,51.8z"/>
					<g>
						
							<linearGradient id="SVGID_32_" gradientUnits="userSpaceOnUse" x1="295.7523" y1="-123.8577" x2="364.9427" y2="-177.5907" gradientTransform="matrix(0.9608 -0.2772 0.2772 0.9608 -64.3848 339.1763)">
							<stop  offset="0" style="stop-color:#FAAF43"/>
							<stop  offset="0.9995" style="stop-color:#FEDF2F"/>
						</linearGradient>
						<path class="st37" d="M225.1,51.8l-63.6,112.1c0,0,4.4,9.8,15,18.6l67.7-111.2C241.6,71.7,226.9,72.8,225.1,51.8z"/>
						
							<linearGradient id="SVGID_33_" gradientUnits="userSpaceOnUse" x1="376.2059" y1="-155.9113" x2="287.1416" y2="-77.1519" gradientTransform="matrix(0.9608 -0.2772 0.2772 0.9608 -64.3848 339.1763)">
							<stop  offset="0" style="stop-color:#FAAF43"/>
							<stop  offset="1" style="stop-color:#F37A21"/>
						</linearGradient>
						<path class="st38" d="M244.6,71.3c0,0-0.1,0-0.4,0.1l-67.7,111.2c6,5,14,9.6,24.3,11.9l68.8-105.1
							C268.3,89.7,249,94.2,244.6,71.3z"/>
						
							<linearGradient id="SVGID_34_" gradientUnits="userSpaceOnUse" x1="315.9044" y1="-136.1049" x2="340.9307" y2="-105.9261" gradientTransform="matrix(0.9608 -0.2772 0.2772 0.9608 -64.3848 339.1763)">
							<stop  offset="0" style="stop-color:#F15B2A"/>
							<stop  offset="1" style="stop-color:#F69320;stop-opacity:0.42"/>
						</linearGradient>
						<path class="st39" d="M244.6,71.3c0,0-0.1,0-0.4,0.1l-67.7,111.2c6,5,14,9.6,24.3,11.9l68.8-105.1
							C268.3,89.7,249,94.2,244.6,71.3z"/>
						
							<linearGradient id="SVGID_35_" gradientUnits="userSpaceOnUse" x1="294.8918" y1="-102.9838" x2="410.6658" y2="-102.9838" gradientTransform="matrix(0.9608 -0.2772 0.2772 0.9608 -64.3848 339.1763)">
							<stop  offset="0" style="stop-color:#F15B2A"/>
							<stop  offset="0.9995" style="stop-color:#F69320"/>
						</linearGradient>
						<path class="st40" d="M269.6,89.3C269.6,89.3,269.6,89.3,269.6,89.3l-68.9,105.1c6.2,1.4,13.3,1.9,21.2,1.2
							c1.7-0.2,3.3-1.1,4.3-2.4L293,96.6C293,96.6,280,104.2,269.6,89.3z"/>
						
							<linearGradient id="SVGID_36_" gradientUnits="userSpaceOnUse" x1="294.8918" y1="-102.9838" x2="410.6658" y2="-102.9838" gradientTransform="matrix(0.9608 -0.2772 0.2772 0.9608 -64.3848 339.1763)">
							<stop  offset="0" style="stop-color:#F15B2A"/>
							<stop  offset="0.9995" style="stop-color:#F69320"/>
						</linearGradient>
						<path class="st41" d="M269.6,89.3C269.6,89.3,269.6,89.3,269.6,89.3l-68.9,105.1c6.2,1.4,13.3,1.9,21.2,1.2
							c1.7-0.2,3.3-1.1,4.3-2.4L293,96.6C293,96.6,280,104.2,269.6,89.3z"/>
						
							<linearGradient id="SVGID_37_" gradientUnits="userSpaceOnUse" x1="345.2645" y1="-108.6168" x2="357.2256" y2="-94.6315" gradientTransform="matrix(0.9608 -0.2772 0.2772 0.9608 -64.3848 339.1763)">
							<stop  offset="0" style="stop-color:#F15B2A"/>
							<stop  offset="1" style="stop-color:#F69320;stop-opacity:0.42"/>
						</linearGradient>
						<path class="st42" d="M269.6,89.3C269.6,89.3,269.6,89.3,269.6,89.3l-68.9,105.1c6.2,1.4,13.3,1.9,21.2,1.2
							c1.7-0.2,3.3-1.1,4.3-2.4L293,96.6C293,96.6,280,104.2,269.6,89.3z"/>
						<linearGradient id="SVGID_38_" gradientUnits="userSpaceOnUse" x1="241.4247" y1="157.7576" x2="237.5403" y2="136.6601">
							<stop  offset="0" style="stop-color:#981E21"/>
							<stop  offset="1" style="stop-color:#F69320;stop-opacity:0.42"/>
						</linearGradient>
						<path class="st43" d="M228.3,190.2l30.2-43.6c-7.5-5.2-20.6-3.7-26.7,0.4l-6.8,10.4L228.3,190.2z"/>
					</g>
					<g>
						
							<linearGradient id="SVGID_39_" gradientUnits="userSpaceOnUse" x1="410.8542" y1="-199.0179" x2="417.6628" y2="-191.4733" gradientTransform="matrix(0.9608 -0.2772 0.2772 0.9608 -64.3848 339.1763)">
							<stop  offset="0" style="stop-color:#999C9E"/>
							<stop  offset="1" style="stop-color:#414142"/>
						</linearGradient>
						<path class="st44" d="M266.4,36.1c2.6,4,11,15.3,25.3,17.7c-0.9-12.2-3-23.7-3-23.7C280.6,32,273.2,34.1,266.4,36.1z"/>
					</g>
					
						<linearGradient id="SVGID_40_" gradientUnits="userSpaceOnUse" x1="241.2185" y1="-91.8404" x2="277.1018" y2="-124.7795" gradientTransform="matrix(0.9608 -0.2772 0.2772 0.9608 -64.3848 339.1763)">
						<stop  offset="0" style="stop-color:#EB1F3D"/>
						<stop  offset="0.9986" style="stop-color:#89181C"/>
					</linearGradient>
					<path class="st45" d="M174.7,142.5c0,0-31.7-6.4-30.8,26.7c0.8,31.5,4.8,26.5,9.5,18.5c4.8-8.1,12.9-21.3,12.9-21.3
						S181.3,144.6,174.7,142.5z"/>
					
						<linearGradient id="SVGID_41_" gradientUnits="userSpaceOnUse" x1="299.5134" y1="-81.6799" x2="315.3311" y2="-56.4325" gradientTransform="matrix(0.9608 -0.2772 0.2772 0.9608 -64.3848 339.1763)">
						<stop  offset="3.336997e-04" style="stop-color:#C73827"/>
						<stop  offset="1" style="stop-color:#F69320;stop-opacity:0.42"/>
					</linearGradient>
					<path class="st46" d="M206.6,165.4c0,0,12.2,9.4,9.2,26.9l-1,3.5c0,0-12.4-0.2-16.2-2.5C194.8,191,206.6,165.4,206.6,165.4z"/>
					
						<linearGradient id="SVGID_42_" gradientUnits="userSpaceOnUse" x1="255.0836" y1="-47.7203" x2="304.2162" y2="-91.8844" gradientTransform="matrix(0.9608 -0.2772 0.2772 0.9608 -64.3848 339.1763)">
						<stop  offset="0.2692" style="stop-color:#EB1F3D"/>
						<stop  offset="0.9986" style="stop-color:#89181C"/>
					</linearGradient>
					<path class="st47" d="M205.4,164c0,0-17.7-11.6-27.1,14.3c-14.7,41.5-25.1,70.5,26.4,13.2C204.7,191.5,218.6,174.8,205.4,164z"
						/>
				</g>
				
					<linearGradient id="SVGID_43_" gradientUnits="userSpaceOnUse" x1="371.212" y1="-173.3161" x2="277.3632" y2="-88.8522" gradientTransform="matrix(0.9608 -0.2772 0.2772 0.9608 -64.3848 339.1763)">
					<stop  offset="0" style="stop-color:#FFFFFF"/>
					<stop  offset="0.9995" style="stop-color:#F69320;stop-opacity:0"/>
				</linearGradient>
				<polygon class="st48" points="244.3,71.3 176.5,182.5 173.6,180.4 240.7,71.4 				"/>
				
					<linearGradient id="SVGID_44_" gradientUnits="userSpaceOnUse" x1="392.6445" y1="-149.0904" x2="324.5316" y2="-93.714" gradientTransform="matrix(0.9608 -0.2772 0.2772 0.9608 -64.3848 339.1763)">
					<stop  offset="0" style="stop-color:#FFFFFF"/>
					<stop  offset="0.9995" style="stop-color:#F69320;stop-opacity:0"/>
				</linearGradient>
				<polygon class="st49" points="269.6,89.3 200.8,194.4 197.9,192.3 265.7,90 				"/>
				
					<linearGradient id="SVGID_45_" gradientUnits="userSpaceOnUse" x1="379.733" y1="-199.3497" x2="382.049" y2="-183.4689" gradientTransform="matrix(0.9608 -0.2772 0.2772 0.9608 -64.3848 339.1763)">
					<stop  offset="0" style="stop-color:#FFFFFF"/>
					<stop  offset="0.9995" style="stop-color:#FFFFFF;stop-opacity:0"/>
				</linearGradient>
				<path class="st50" d="M266.3,36c0,0,3.2,4.4,5.3,6.5c2.4,2.5-28.3,29-28.3,29s-17.3,0.7-17.8-20C225.5,51.5,237.3,44.2,266.3,36
					z"/>
				
					<linearGradient id="SVGID_46_" gradientUnits="userSpaceOnUse" x1="426.7264" y1="-198.68" x2="407.7842" y2="-192.4574" gradientTransform="matrix(0.9608 -0.2772 0.2772 0.9608 -64.3848 339.1763)">
					<stop  offset="0" style="stop-color:#FFFFFF"/>
					<stop  offset="0.9995" style="stop-color:#FFFFFF;stop-opacity:0"/>
				</linearGradient>
				<path class="st51" d="M269.6,40.1l19.1-10l-14.4,15.2C274.3,45.2,271,42.6,269.6,40.1z"/>
				<path class="st24" d="M288.7,30.1l-0.5,22.7c0,0-4-0.5-5.8-2.2L288.7,30.1z"/>
				
					<linearGradient id="SVGID_47_" gradientUnits="userSpaceOnUse" x1="411.3341" y1="-187.3092" x2="362.4696" y2="-162.7847" gradientTransform="matrix(0.9608 -0.2772 0.2772 0.9608 -64.3848 339.1763)">
					<stop  offset="4.318467e-04" style="stop-color:#EADCCD;stop-opacity:0"/>
					<stop  offset="0.9989" style="stop-color:#D88958"/>
				</linearGradient>
				<path class="st52" d="M244.3,71.3L273.9,45l1.1,1.2L247.6,80C247.6,80,244.7,73.9,244.3,71.3z"/>
				
					<linearGradient id="SVGID_48_" gradientUnits="userSpaceOnUse" x1="259.1715" y1="-108.4438" x2="252.9261" y2="-116.5261" gradientTransform="matrix(0.9608 -0.2772 0.2772 0.9608 -64.3848 339.1763)">
					<stop  offset="0" style="stop-color:#EB1F3D"/>
					<stop  offset="0.9982" style="stop-color:#F05273"/>
				</linearGradient>
				<path class="st53" d="M169.1,145.1c7.3-0.6,6.3-1.7,6.2-2.5c-9.4-2-32.2-1.5-31.5,26.6c0.7,28.2,4,27.2,8,20.9l-0.1-0.2
					c-3.2,3.4-4.8-20.6-0.1-32.9C154.7,149.1,163.3,145.6,169.1,145.1z"/>
				<path class="st27" d="M162.1,142.5c-1.7,0.4-3.3,1.1-4.9,1.9c-1.5,0.8-3,1.8-4.3,2.9c-2.6,2.2-4.6,5.1-5.9,8.2
					c-0.7,1.5-1.1,3.2-1.5,4.9c-0.4,1.7-0.7,3.4-0.9,5.1c-0.5,3.4-0.7,6.9-0.7,10.4c-0.4-3.5-0.5-7-0.2-10.5
					c0.1-1.8,0.4-3.5,0.8-5.3c0.4-1.7,0.8-3.5,1.5-5.1c1.4-3.3,3.6-6.3,6.4-8.5C155.2,144.3,158.6,142.8,162.1,142.5z"/>
				<path class="st27" d="M225.1,51.8c-1.7,3.3-3.5,6.5-5.2,9.8l-5.3,9.7c-3.6,6.5-7.2,12.9-10.9,19.3c-3.7,6.4-7.4,12.8-11.1,19.2
					l-5.6,9.5c-1.9,3.2-3.8,6.6-5.7,9.7c1.7-3.3,3.5-6.8,5.2-10l5.3-9.7c3.6-6.5,7.2-12.9,10.9-19.3c3.7-6.4,7.4-12.8,11.1-19.2
					l5.6-9.5C221.2,58.1,223.1,54.9,225.1,51.8z"/>
				<polygon class="st28" points="268.8,39.7 288.7,30.1 269.4,40.8 				"/>
				
					<linearGradient id="SVGID_49_" gradientUnits="userSpaceOnUse" x1="294.7682" y1="-92.2652" x2="257.7552" y2="-59.1042" gradientTransform="matrix(0.9608 -0.2772 0.2772 0.9608 -64.3848 339.1763)">
					<stop  offset="0" style="stop-color:#EB1F3D"/>
					<stop  offset="0.9982" style="stop-color:#F05273"/>
				</linearGradient>
				<path class="st54" d="M196.6,176.7c2.5-4.3-1-9.6-5.9-8.8c-2.7,0.4-5.5,1.6-8.2,4.4c-6.8,7.1-13.8,34.6-15,39.8
					c-1.2,5.2-1.6,8.8-0.4,11C168,224.8,187.8,191.6,196.6,176.7z"/>
				
					<linearGradient id="SVGID_50_" gradientUnits="userSpaceOnUse" x1="274.1504" y1="-112.1379" x2="286.8895" y2="-91.8043" gradientTransform="matrix(0.9608 -0.2772 0.2772 0.9608 -64.3848 339.1763)">
					<stop  offset="0" style="stop-color:#F15B2A"/>
					<stop  offset="1" style="stop-color:#F69320;stop-opacity:0.42"/>
				</linearGradient>
				<path class="st55" d="M175.3,142.7c0,0,9.2,11.3,4,22.6c-4.4,9.6-7.4,13.1-7.4,13.1s-6.7-6.1-8.1-10.3L175.3,142.7z"/>
			</g>
			<polygon class="st56" points="249.5,279.6 255.4,274.2 233.1,266.7 			"/>
			<linearGradient id="SVGID_51_" gradientUnits="userSpaceOnUse" x1="292.9794" y1="205.5688" x2="249.3661" y2="213.0992">
				<stop  offset="0" style="stop-color:#78C8D7"/>
				<stop  offset="1" style="stop-color:#CDE9EE"/>
			</linearGradient>
			<path class="st57" d="M251.4,271.3l-5.6,4.3l-11.5-113.6c0,0,12-16.8,35.5-10.5l2.6,0.9L251.4,271.3z"/>
			<linearGradient id="SVGID_52_" gradientUnits="userSpaceOnUse" x1="234.869" y1="213.8141" x2="272.372" y2="213.8141">
				<stop  offset="0" style="stop-color:#78C8D7"/>
				<stop  offset="1" style="stop-color:#78C8D7"/>
			</linearGradient>
			<path class="st58" d="M252,272.6l-5.6,4.3l-11.5-113.6c0,0,13.1-17.4,37.5-10.9L252,272.6z"/>
			<linearGradient id="SVGID_53_" gradientUnits="userSpaceOnUse" x1="110.6724" y1="241.911" x2="156.2024" y2="94.4128">
				<stop  offset="0" style="stop-color:#73CDDB"/>
				<stop  offset="0.9995" style="stop-color:#037598"/>
			</linearGradient>
			<path class="st59" d="M50.8,213.8L11,82.6c-0.3-0.9,0.5-1.7,1.4-1.5l33.9,7.3c0.8,0.2,1.5,0.7,2,1.4l4.4,7.6
				c0.4,0.7,1.1,1.2,1.9,1.4l177.8,39.5c1.2,0.3,2.2,1.3,2.3,2.6l13.2,139.4L52.7,215.8C51.8,215.5,51.1,214.7,50.8,213.8z"/>
			<linearGradient id="SVGID_54_" gradientUnits="userSpaceOnUse" x1="1.174" y1="93.879" x2="311.9628" y2="243.6227">
				<stop  offset="0" style="stop-color:#73CDDB"/>
				<stop  offset="0.9995" style="stop-color:#037598"/>
			</linearGradient>
			<path class="st60" d="M11.1,82.7l33.3,7.1c0.8,0.2,1.5,0.7,2,1.4l4.4,7.6c0.4,0.7,1.1,1.2,1.9,1.4l177.8,39.5
				c1.2,0.3,2.2,1.3,2.3,2.6l14.5,137.1c0.1,0.8,1,1.1,1.6,0.7l0.6-0.5l-14.7-139.1c-0.1-1.3-1.1-2.4-2.3-2.6L54.6,98.4
				c-0.8-0.2-1.5-0.7-1.9-1.4l-4.4-7.6c-0.4-0.7-1.1-1.2-1.9-1.4l-33.9-7.3c-0.9-0.2-1.7,0.6-1.4,1.5L11.1,82.7z"/>
			<g>
				<path class="st27" d="M185.6,127.5l-22.3-4.7L141,118l-44.6-9.8l-22.3-5L63,100.7l-5.6-1.3l-2.8-0.6c-1-0.2-2-1-2.4-1.9L49.3,92
					l-1.4-2.5c-0.4-0.7-1.2-1.2-2.1-1.3l-11.1-2.5l-22.3-5l22.4,4.6l11.2,2.3c0.4,0.1,1,0.2,1.4,0.5c0.5,0.3,0.8,0.7,1.1,1.1
					l1.5,2.5l2.9,4.9c0.4,0.8,1.1,1.3,1.9,1.5l2.8,0.6l5.6,1.2l11.1,2.5l22.3,4.9l44.5,10l22.3,5.1L185.6,127.5z"/>
			</g>
			<g class="st61">
				
					<linearGradient id="SVGID_55_" gradientUnits="userSpaceOnUse" x1="121.2918" y1="155.4085" x2="128.031" y2="218.3073" gradientTransform="matrix(0.9999 1.458373e-02 1.536151e-02 1.0003 -7.5088 -16.6251)">
					<stop  offset="0" style="stop-color:#78C8D7"/>
					<stop  offset="1" style="stop-color:#78C8D7"/>
				</linearGradient>
				<path class="st62" d="M109.3,186.2l22.8,7c0.8,0.3,1.6-0.4,1.5-1.3l-2.2-12.5c-0.1-0.4,0.3-0.7,0.6-0.5l10.5,3.3
					c1,0.3,1.8-0.8,1.2-1.6l-28.3-37.6c-0.5-0.6-1.4-0.6-1.9,0l-16.3,25.2c-0.4,0.7-0.1,1.6,0.7,1.8l7.9,2.2
					c0.4,0.1,0.8,0.5,0.9,0.9l1.9,12.4C108.6,185.8,108.9,186.1,109.3,186.2z"/>
				
					<linearGradient id="SVGID_56_" gradientUnits="userSpaceOnUse" x1="111.6802" y1="156.824" x2="118.3062" y2="218.6672" gradientTransform="matrix(0.9999 1.458373e-02 -1.458373e-02 0.9999 6.858 -16.4155)">
					<stop  offset="0" style="stop-color:#78C8D7"/>
					<stop  offset="1" style="stop-color:#78C8D7"/>
				</linearGradient>
				<path class="st63" d="M92.8,190.1l1.7,10.1c0.1,0.4,0.3,0.7,0.7,0.8l54.2,17.6c0.9,0.3,1.7-0.4,1.6-1.3l-1.7-9.5
					c-0.1-0.4-0.4-0.7-0.8-0.9l-54.9-17.6C93.2,189.3,92.8,189.7,92.8,190.1z"/>
			</g>
		</g>
	</g>
</g>
</svg>
