<?xml version="1.0" encoding="utf-8"?>
<!-- Generator: Adobe Illustrator 25.1.0, SVG Export Plug-In . SVG Version: 6.00 Build 0)  -->
<svg version="1.1" id="Layer_1" xmlns="http://www.w3.org/2000/svg" xmlns:xlink="http://www.w3.org/1999/xlink" x="0px" y="0px"
	 viewBox="0 0 100 100" style="enable-background:new 0 0 100 100;" xml:space="preserve">
<style type="text/css">
	.st0{fill:#4b4d4f;}
</style>
<g>
	<path class="st0" d="M85.4,56.1c2.6,3.4,3.9,7.6,3.9,12.4c0,7.1-2.8,12.5-8.5,16.4c-5.7,3.8-13.9,5.8-24.7,5.8H12.5V9.9h41.3
		c10.3,0,18.2,1.9,23.5,5.7s8.1,8.9,8.1,15.4c0,3.8-0.9,7.3-2.8,10.3c-1.9,3-4.6,5.4-8,7.2C79.2,50.1,82.8,52.7,85.4,56.1z
		 M35.1,26.4v15.6h15.7c7.7,0,11.5-2.6,11.5-7.8c0-5.1-3.8-7.7-11.5-7.7H35.1z M66.3,65.9c0-5.5-4-8.2-12-8.2H35.1v16.4h19.2
		C62.3,74.1,66.3,71.4,66.3,65.9z"/>
</g>
</svg>
