<?xml version="1.0" encoding="utf-8"?>
<!-- Generator: Adobe Illustrator 25.1.0, SVG Export Plug-In . SVG Version: 6.00 Build 0)  -->
<svg version="1.1" id="Layer_1" xmlns="http://www.w3.org/2000/svg" xmlns:xlink="http://www.w3.org/1999/xlink" x="0px" y="0px"
	 viewBox="0 0 100 100" style="enable-background:new 0 0 100 100;" xml:space="preserve">
<style type="text/css">
	.st0{fill:#4b4d4f;}
</style>
<path class="st0" d="M49.7,91.4c-14.5,0-26.3-11.8-26.3-26.3V33.3c0-1.7,1.4-3.1,3.1-3.1s3.1,1.4,3.1,3.1v31.8c0,11,9,20,20,20
	c11,0,20-9,20-20V29.9c0-3.6-1.4-7-3.9-9.5c-2.5-2.5-5.9-3.9-9.5-3.9c0,0,0,0,0,0c-7.4,0-13.4,6-13.4,13.4v35.2
	c0,3.8,3.1,6.9,6.9,6.9c3.8,0,6.9-3.1,6.9-6.9V33.3c0-1.7,1.4-3.1,3.1-3.1c1.7,0,3.1,1.4,3.1,3.1v31.8c0,7.3-5.9,13.2-13.2,13.2
	s-13.2-5.9-13.2-13.2V29.9c0-10.9,8.8-19.7,19.7-19.7c0,0,0,0,0,0c5.3,0,10.2,2,13.9,5.8c3.7,3.7,5.8,8.7,5.8,14v35.2
	C76,79.6,64.2,91.4,49.7,91.4z"/>
</svg>
