<?xml version="1.0" encoding="utf-8"?>
<!-- Generator: Adobe Illustrator 25.1.0, SVG Export Plug-In . SVG Version: 6.00 Build 0)  -->
<svg version="1.1" id="Layer_1" xmlns="http://www.w3.org/2000/svg" xmlns:xlink="http://www.w3.org/1999/xlink" x="0px" y="0px"
	 viewBox="0 0 100 100" style="enable-background:new 0 0 100 100;" xml:space="preserve">
<style type="text/css">
	.st0{fill:#A4AFB8;}
</style>
<path class="st0" d="M49.7,91.5C27.2,91.5,9,73.2,9,50.8s18.3-40.7,40.7-40.7c22.4,0,40.7,18.3,40.7,40.7S72.1,91.5,49.7,91.5z
	 M49.7,16.4c-19,0-34.4,15.4-34.4,34.4c0,19,15.4,34.4,34.4,34.4c19,0,34.4-15.4,34.4-34.4C84.1,31.8,68.6,16.4,49.7,16.4z"/>
<g>
	<circle class="st0" cx="62.5" cy="40" r="5.3"/>
	<circle class="st0" cx="36.8" cy="40" r="5.3"/>
</g>
<path class="st0" d="M49.7,75.5C36,75.5,25,64.4,25,50.8h6.3c0,10.2,8.3,18.4,18.4,18.4s18.4-8.3,18.4-18.4h6.3
	C74.4,64.4,63.3,75.5,49.7,75.5z"/>
</svg>
