<?xml version="1.0" encoding="utf-8"?>
<!-- Generator: Adobe Illustrator 25.1.0, SVG Export Plug-In . SVG Version: 6.00 Build 0)  -->
<svg version="1.1" id="Layer_1" xmlns="http://www.w3.org/2000/svg" xmlns:xlink="http://www.w3.org/1999/xlink" x="0px" y="0px"
	 viewBox="0 0 100 100" style="enable-background:new 0 0 100 100;" xml:space="preserve">
<style type="text/css">
	.st0{fill:#A4AFB8;}
</style>
<g>
	<path class="st0" d="M65.7,62.3c0.1,0.1,0.2,0.2,0.3,0.2c1.8,1.7,2.7,4,2.7,6.7c0,3.8-1.7,6.8-5,9.1c-3.3,2.3-8.3,3.4-15,3.4
		c-5.1,0-10-0.9-14.8-2.6c-4.8-1.7-8.7-4-11.8-6.7l-4.3,9c3.2,3,7.7,5.4,13.3,7.3s11.5,2.8,17.6,2.8c6.8,0,12.6-1,17.3-3.1
		c4.7-2,8.2-4.8,10.5-8.3c2.3-3.5,3.5-7.4,3.5-11.6c0-2.4-0.4-4.4-1-6.3H65.7z"/>
	<path class="st0" d="M64.4,49.1c-3.4-1.2-7.4-2.4-12.5-3.7c-4.7-1.1-8.4-2.1-11.1-3.1c-2.7-1-5-2.3-6.9-4c-1.8-1.7-2.8-4-2.8-6.8
		c0-3.8,1.6-6.8,4.9-9.2c3.3-2.4,8.2-3.6,14.7-3.6c3.7,0,7.5,0.6,11.3,1.7c3.8,1.1,7.5,2.8,10.8,4.9l3.8-9.2
		c-3.3-2.3-7.3-4.1-11.9-5.3c-4.6-1.2-9.3-1.8-14.1-1.8c-6.9,0-12.6,1-17.2,3.1c-4.6,2.1-8.1,4.8-10.3,8.3
		c-2.3,3.5-3.4,7.3-3.4,11.7c0,5.2,1.3,9.2,4,12.3c1.7,1.9,3.7,3.5,5.8,4.8H6.2v6h86.9v-6H64.4z"/>
</g>
</svg>
