<svg xmlns="http://www.w3.org/2000/svg" viewBox="0 0 185.93 90.75"><defs><style>.cls-1{fill:#fff;}.cls-2{fill:#cc1e43;}</style></defs><title>db_logo_white_1</title><g id="Слой_2" data-name="Слой 2"><g id="Layer_1" data-name="Layer 1"><path class="cls-1" d="M47.72,75.64H33a4.91,4.91,0,0,0,5.17,4.15,6.94,6.94,0,0,0,5.13-2.17l3.43,3a10.59,10.59,0,0,1-8.65,3.95C31.73,84.61,27,80.14,27,73.67v-.08c0-6,4.3-11,10.46-11,7.07,0,10.3,5.49,10.3,11.49v.08C47.8,74.74,47.76,75.09,47.72,75.64ZM37.5,67.39c-2.49,0-4.11,1.78-4.58,4.5h9C41.6,69.21,40,67.39,37.5,67.39Z"/><path class="cls-1" d="M57.32,84.53a14.83,14.83,0,0,1-9.08-3.2l2.57-3.95a12,12,0,0,0,6.67,2.53c1.74,0,2.53-.63,2.53-1.58v-.08c0-1.3-2.05-1.74-4.38-2.45-3-.87-6.32-2.25-6.32-6.36v-.08c0-4.3,3.47-6.71,7.74-6.71a14.65,14.65,0,0,1,7.9,2.45l-2.29,4.14a12.55,12.55,0,0,0-5.73-2c-1.46,0-2.21.63-2.21,1.46v.08c0,1.18,2,1.74,4.3,2.53,3,1,6.4,2.41,6.4,6.28v.08C65.41,82.4,61.9,84.53,57.32,84.53Z"/><path class="cls-1" d="M67.81,84.13V63h6V84.13Z"/><path class="cls-1" d="M84.89,63c-4.86,0-8.38,3.47-8.38,9.79v.08c0,6.28,3.44,9.53,8.38,9.53,3.2,0,4.56-.81,5.89-2.25v1.35c0,2.65-.92,4.13-5,4.26a9.71,9.71,0,0,1-5-1.27L79,88.92a13.57,13.57,0,0,0,6.92,1.83c7.86,0,10.79-3.39,10.79-11.37V63Zm5.73,10.16c0,2.88-1.07,4.6-4,4.6s-4.12-2-4.12-4.9v-.08c0-2.88,1.2-4.9,4.12-4.9h4Z"/><path class="cls-1" d="M112.59,63h-12.2V84.13h6V68.36h3.74c2.29,0,3.63,1.46,3.63,4.3V84.13h6V70.77C119.78,65.91,117.13,63,112.59,63Z"/><path class="cls-1" d="M174.43,84.61c-6.55,0-11.41-4.86-11.41-10.94v-.08c0-6.08,4.9-11,11.49-11s11.41,4.86,11.41,10.94v.08C185.93,79.67,181,84.61,174.43,84.61Zm5.57-11a5.62,5.62,0,0,0-5.57-5.84c-3.43,0-5.49,2.64-5.49,5.76v.08a5.62,5.62,0,0,0,5.57,5.84c3.43,0,5.49-2.65,5.49-5.77Z"/><circle class="cls-1" cx="70.9" cy="56.59" r="3.84"/><path class="cls-1" d="M154.29,84.13l0-15.68h2a6.79,6.79,0,0,1,4.83,1.61l2.2-4.64c-1.44-1.88-4.44-2.41-5.77-2.41h-9.24V84.13Z"/><path class="cls-1" d="M10.78,56.49H0v23c.18,3.59,2.52,4.65,4.28,4.68h6.5c8.69,0,14.69-6,14.69-13.82v-.08C25.47,62.46,19.47,56.49,10.78,56.49Zm8.33,13.9c0,4.9-3.36,8.25-8.33,8.25H7.46a1.41,1.41,0,0,1-1.38-1.39V62h4.7a7.94,7.94,0,0,1,8.33,8.33Z"/><path class="cls-1" d="M141.39,69.68a6.43,6.43,0,0,0,3.63-6v-.08c0-4.34-3.47-7.15-9.12-7.15H123.07V79.25c.15,4.24,3.3,4.88,4.64,4.88h7.83c6.24,0,10.35-2.53,10.35-7.58v-.08C145.88,72.76,144.58,70.91,141.39,69.68ZM135,61.83c2.57,0,4,1,4,2.84v.08c0,2.05-1.7,2.92-4.38,2.92h-4.26A1.41,1.41,0,0,1,129,66.25V61.83Zm4.85,14c0,2.05-1.62,3-4.3,3h-5.27A1.41,1.41,0,0,1,129,77.39V72.72h7c2.14,0,3.82,1.15,3.82,3Z"/><path class="cls-2" d="M112,16.81a8.19,8.19,0,0,0,4.63-7.6v-.1C116.6,3.57,112.17,0,105,0H88.61V17.73h0C88.58,24,84.31,28.24,78,28.24H73.73A1.8,1.8,0,0,1,72,26.47V7h6A7.91,7.91,0,0,1,84.6,9.88V1.22A15.38,15.38,0,0,0,78,0H64.22V29.28c.23,4.58,3.22,5.93,5.46,6H78c10.48,0,18-7.11,18.2-16,0,0,0-12.4,0-12.4h7.65c3.27,0,5.08,1.31,5.08,3.62v.1c0,2.62-2.16,3.73-5.59,3.73H100v6.44h5.08c2.73,0,4.87,1.46,4.87,3.83v.1c0,2.62-2.06,3.83-5.49,3.83H97.76a17.22,17.22,0,0,1-6.4,6.8h13.14c8,0,13.19-3.22,13.19-9.67v-.1C117.7,20.74,116,18.38,112,16.81Z"/></g></g></svg>