<?xml version="1.0" encoding="utf-8"?>
<!-- Generator: Adobe Illustrator 23.0.1, SVG Export Plug-In . SVG Version: 6.00 Build 0)  -->
<svg version="1.1" id="Layer_1" xmlns="http://www.w3.org/2000/svg" xmlns:xlink="http://www.w3.org/1999/xlink" x="0px" y="0px"
	 viewBox="0 0 484.1 484.1" enable-background="new 0 0 484.1 484.1" xml:space="preserve">
<g>
	<g>
		<defs>
			<filter id="Adobe_OpacityMaskFilter" filterUnits="userSpaceOnUse" x="86" y="89.1" width="305" height="304.9">
				<feFlood  style="flood-color:white;flood-opacity:1" result="back"/>
				<feBlend  in="SourceGraphic" in2="back" mode="normal"/>
			</filter>
		</defs>
		<mask maskUnits="userSpaceOnUse" x="86" y="89.1" width="305" height="304.9" id="SVGID_1_">
			<g filter="url(#Adobe_OpacityMaskFilter)">
				<path fill="#010101" d="M315.8,372.8c0,0-72.6,43.9-102.2-12.4c-28.9-54.9,63.6-120.1,63.6-120.1l-27.2-27.1l-6.7-5.7
					c0,0-98.5,104.4-140.9,51.9c-41-50.8,21.8-120.7,30.7-128.5l-27.1-1l-46.6,93.6l53.7,131.6l99.3,48.5c0,0,88-4.6,88.4-5.7
					S315.8,372.8,315.8,372.8z"/>
			</g>
		</mask>
		<g mask="url(#SVGID_1_)">
			
				<radialGradient id="SVGID_2_" cx="210.7965" cy="164.0108" r="214.9409" fx="234.3951" fy="184.4332" gradientTransform="matrix(1.492371e-02 0.9999 -1.1999 1.790845e-02 404.4417 -49.6994)" gradientUnits="userSpaceOnUse">
				<stop  offset="0" style="stop-color:#73CDDB"/>
				<stop  offset="0.9995" style="stop-color:#037598"/>
			</radialGradient>
			<circle fill="url(#SVGID_2_)" cx="238.4" cy="241.5" r="152.4"/>
			<g>
				<linearGradient id="SVGID_3_" gradientUnits="userSpaceOnUse" x1="148.0984" y1="176.1351" x2="293.4413" y2="346.0581">
					<stop  offset="0" style="stop-color:#A9D6A3"/>
					<stop  offset="1" style="stop-color:#39B992"/>
				</linearGradient>
				<path fill="url(#SVGID_3_)" d="M240.3,231.9c-5.7-8.6-14.3,0-19.3-6.8c-5-6.8-11.4-7.1-22.7-5.7c-11.3,1.4-15.8-3.2-21.9-6.8
					c-6.1-3.6-11.4-10-19.6-2.5c-8.2,7.5-15.7,7.9-19.3,4.3c-3.6-3.6-5.4-6.1-6.4-12.8c-1.1-6.8-3.9-10-7.9-12.1
					c-3.9-2.1-6.1-16.4,0-23.6c6.1-7.1,6.1,3.6,7.1,9.3c1.1,5.7,10,7.1,14.6-4.3c4.6-11.4,15.3-22.1,20-27.1
					c4.7-5,14.6-9.6,23.5-8.9c8.9,0.7,8.9-1.8,9.6-8.1c0.7-6.4-1.8-3.3-13.6-1.1c-11.8,2.1-23.2,2.1-18.6-7.9
					c4.6-10,19.3-3.6,23.2-10.7c3.9-7.1-5.5-8-5.5-8c-57.2,23.2-77.5,66.3-80.4,72c-2.9,5.7-4.4,16,0.2,20.3
					c4.6,4.3,6.4,5.7,11.1,18.2c4.6,12.5,25.7,12.8,12.5,33.2c-13.2,20.3,13.9,15.7,16.4,40c2.5,24.3,12.5,22.8,28.5,27.1
					c16.1,4.3,15.3,6.1,22.5,13.6c1.1,1.1,2,2.5,2.8,3.9c1.3-3.5,2.7-7.1,4.2-10.6c1.9-4.6,5.6-8.1,10.4-8.2
					c2.1-7.5,6.6-17,16.4-30.5C248.5,250.5,246,240.5,240.3,231.9z"/>
				<linearGradient id="SVGID_4_" gradientUnits="userSpaceOnUse" x1="233.7616" y1="102.7482" x2="379.1781" y2="272.7571">
					<stop  offset="0" style="stop-color:#A9D6A3"/>
					<stop  offset="1" style="stop-color:#39B992"/>
				</linearGradient>
				<path fill="url(#SVGID_4_)" d="M206.1,92.4c0,0,28.9-5.4,42.5-2.5c13.6,2.9-6.8,3.9-16.4,8.9c-9.6,5-19.6,12.5-25,4.3
					C201.8,94.9,191.4,95.6,206.1,92.4z"/>
				<linearGradient id="SVGID_5_" gradientUnits="userSpaceOnUse" x1="141.3709" y1="181.7742" x2="286.7873" y2="351.7832">
					<stop  offset="0" style="stop-color:#A9D6A3"/>
					<stop  offset="1" style="stop-color:#39B992"/>
				</linearGradient>
				<path fill="url(#SVGID_5_)" d="M159.6,193.4c0,0-3.9,2.8-8.7,1.8c-4.9-1-9.1-0.7-8,4.2s5.2,9,12.8,3c7.4-5.9,13.2,1.1,12.4-3.8
					S166.3,190.5,159.6,193.4z"/>
				<linearGradient id="SVGID_6_" gradientUnits="userSpaceOnUse" x1="143.8171" y1="179.6818" x2="289.2336" y2="349.6908">
					<stop  offset="0" style="stop-color:#A9D6A3"/>
					<stop  offset="1" style="stop-color:#39B992"/>
				</linearGradient>
				<path fill="url(#SVGID_6_)" d="M156.1,185.9c0,2-4.7,5-7.3,5c-2.7,0-4.8-1.6-4.8-3.6s2.9-7.4,4.6-5.4
					C152.5,186.6,156.1,183.9,156.1,185.9z"/>
				<linearGradient id="SVGID_7_" gradientUnits="userSpaceOnUse" x1="252.3908" y1="86.8138" x2="397.8073" y2="256.8227">
					<stop  offset="0" style="stop-color:#A9D6A3"/>
					<stop  offset="1" style="stop-color:#39B992"/>
				</linearGradient>
				<path fill="url(#SVGID_7_)" d="M349.7,136.7c-11,7.8-22,15.4-33.4,22.6c6.5,0.6,13.7-11.5,19.6,2c7.5,17.1,14.6,9.3,19.3,18.2
					c4.6,8.9-7.1,7.5-12.5,4.3c-5.4-3.2-15.3-2.9-15.3,8.6c0,11.4,0.4,5.4-8.9,20.7s7.5,25,24.3,17.1c16.8-7.9,10.7,2.5,23.9,8.6
					c13.2,6.1-1.8-10.7,5.4-11.8c7.1-1.1,4.3-2.1,5-12.8c0.7-10.7,8.2-13.9,8.2-13.9C377.5,172.1,363.6,151.4,349.7,136.7z"/>
				<linearGradient id="SVGID_8_" gradientUnits="userSpaceOnUse" x1="219.3751" y1="112.4043" x2="366.3203" y2="284.2005">
					<stop  offset="0" style="stop-color:#A9D6A3"/>
					<stop  offset="1" style="stop-color:#39B992"/>
				</linearGradient>
				<path fill="url(#SVGID_8_)" d="M389.5,221.6c0,0,9.1,51.7-17.6,92.7c0,0-15.6-4.6-32.7,2.9c-17.1,7.5-25.7,2.1-18.9-7.9
					c6.8-10,13.2-2.5,20-12.8s8.2-10.3,12.8-11.4c7.8-1.8,11.8-2.5,12.1-15.3c0.4-12.8,7.9-18.2,11.4-22.8s2.1-14.3,6.4-17.1
					C387.3,226.9,389.5,221.6,389.5,221.6z"/>
				<linearGradient id="SVGID_9_" gradientUnits="userSpaceOnUse" x1="128.2579" y1="190.1837" x2="275.4475" y2="362.2656">
					<stop  offset="0" style="stop-color:#A9D6A3"/>
					<stop  offset="1" style="stop-color:#39B992"/>
				</linearGradient>
				<path fill="url(#SVGID_9_)" d="M352.8,342.2c0,0-55.8,70.7-149.6,46c0,0,8.2-3.2,2.1-15s-5.7-14.6,1.4-13.2
					c7.1,1.4,11.1-5.4,18.2,4.6c7.1,10,11.1-4.6,23.9-3.6c12.8,1.1,21.8,3.9,31.4-7.5c9.6-11.4,10.3-5.4,24.3-11.4
					c13.9-6.1,24.6-16.8,22.5-2.9c-2.1,13.9,2.5,5,13.9,3.6C352.4,341.5,352.8,342.2,352.8,342.2z"/>
				<linearGradient id="SVGID_10_" gradientUnits="userSpaceOnUse" x1="108.8408" y1="209.5986" x2="254.2573" y2="379.6076">
					<stop  offset="0" style="stop-color:#A9D6A3"/>
					<stop  offset="1" style="stop-color:#39B992"/>
				</linearGradient>
				<path fill="url(#SVGID_10_)" d="M239.5,352c0,2.7-5,7.7-7.2,7.7s-5.9,0.5-5.9-2.3c0-2.7,3.6-7.7,5.9-7.7S239.5,349.2,239.5,352z
					"/>
				<linearGradient id="SVGID_11_" gradientUnits="userSpaceOnUse" x1="112.3883" y1="206.5643" x2="257.8048" y2="376.5733">
					<stop  offset="0" style="stop-color:#A9D6A3"/>
					<stop  offset="1" style="stop-color:#39B992"/>
				</linearGradient>
				<path fill="url(#SVGID_11_)" d="M219.3,328.6c0,0-3.6,7.5-0.4,10.7c3.2,3.2,8.2,7.9,10.3,3.6s-3.9-5-5-11.1
					C223.2,325.8,220.3,324.3,219.3,328.6z"/>
			</g>
		</g>
		<g>
			<linearGradient id="SVGID_12_" gradientUnits="userSpaceOnUse" x1="85.2876" y1="385.0163" x2="223.5758" y2="254.8068">
				<stop  offset="0.1072" style="stop-color:#EB1E3E"/>
				<stop  offset="0.284" style="stop-color:#F0693F"/>
				<stop  offset="0.5082" style="stop-color:#F8A13B"/>
				<stop  offset="0.6115" style="stop-color:#FBB837"/>
				<stop  offset="1" style="stop-color:#FFFFFF"/>
			</linearGradient>
			<path fill="url(#SVGID_12_)" d="M203.5,256.6c0,0-30.8,25.3-76,32.3c-41.7,6.5-69.2,32.5-60.8,75.7c0,0,38.4-37.8,53.6-21.9
				s-19,45.6-62.3,49.2c0,0,60.3,48.9,110.5-6.7c0,0,16.4-17.7,21.3-46c5.8-33.6,22.9-61.5,31.8-70.5
				C221.5,268.7,271.2,203,203.5,256.6z"/>
			<linearGradient id="SVGID_13_" gradientUnits="userSpaceOnUse" x1="116.582" y1="351.4829" x2="226.8625" y2="243.8534">
				<stop  offset="0.1043" style="stop-color:#FCBB37"/>
				<stop  offset="0.3309" style="stop-color:#FDCD55"/>
				<stop  offset="0.6115" style="stop-color:#FEE175"/>
				<stop  offset="1" style="stop-color:#FFFFFF"/>
			</linearGradient>
			<path fill="url(#SVGID_13_)" d="M204.3,266.8c0,0-28.6,27.5-69.6,38.1S87,334.6,87,334.6s38.4-22.5,51.5-11.4
				c13.1,11.1,7.8,42.5-22.9,62c0,0,43.4-2.4,59.9-65.5c0,0,6.8-25.9,30.9-48.5C206.2,271.2,223,252.9,204.3,266.8z"/>
			<linearGradient id="SVGID_14_" gradientUnits="userSpaceOnUse" x1="64.9504" y1="388.6252" x2="382.8526" y2="243.3098">
				<stop  offset="0.1043" style="stop-color:#FCBB37"/>
				<stop  offset="0.3309" style="stop-color:#FDCD55"/>
				<stop  offset="0.6115" style="stop-color:#FEE175"/>
				<stop  offset="1" style="stop-color:#FFFFFF"/>
			</linearGradient>
			<path opacity="0.2" fill="url(#SVGID_14_)" d="M138.3,361.4c0,0-8.6,22.3-40.9,31.4c0,0,48.1,12.6,68-29c10-20.9,4-42.8,20-65.1
				L163,318.1C163,318.1,153.9,356.1,138.3,361.4z"/>
		</g>
		<g>
			<g>
				<linearGradient id="SVGID_15_" gradientUnits="userSpaceOnUse" x1="291.6549" y1="281.2056" x2="278.8245" y2="263.1114">
					<stop  offset="0" style="stop-color:#EB1F3D"/>
					<stop  offset="0.9986" style="stop-color:#89181C"/>
				</linearGradient>
				<path fill="url(#SVGID_15_)" d="M304.4,241.1c0,0,16.9,30.3-21.2,40.1c-37.3,9.5-32.7,3.8-24.9-3.6c8-7.5,20.7-20.2,20.7-20.2
					S300.9,234,304.4,241.1z"/>
				<linearGradient id="SVGID_16_" gradientUnits="userSpaceOnUse" x1="363.8535" y1="82.6846" x2="411.6129" y2="141.1363">
					<stop  offset="0" style="stop-color:#EADCCD"/>
					<stop  offset="0.9995" style="stop-color:#DEA87B"/>
				</linearGradient>
				<path fill="url(#SVGID_16_)" d="M334.5,84.6c0,0,34.6-6.9,86.8-4.2c0,0-3.4,42.2-18.5,84l-24.1,9l-52.3-64.2L334.5,84.6z"/>
				<linearGradient id="SVGID_17_" gradientUnits="userSpaceOnUse" x1="414.0019" y1="93.4676" x2="388.6104" y2="158.1981">
					<stop  offset="4.318467e-04" style="stop-color:#EADCCD;stop-opacity:0"/>
					<stop  offset="0.9989" style="stop-color:#D88958"/>
				</linearGradient>
				<path fill="url(#SVGID_17_)" d="M402.8,164.4c0,0,15.1-47.1,18.7-83.8c0,0-17.6,31.7-45.1,66.4
					C376.4,147.1,382.5,168.7,402.8,164.4z"/>
				<linearGradient id="SVGID_18_" gradientUnits="userSpaceOnUse" x1="400.8661" y1="130.4716" x2="413.3405" y2="134.3921">
					<stop  offset="4.318467e-04" style="stop-color:#EADCCD;stop-opacity:0"/>
					<stop  offset="0.9989" style="stop-color:#D88958"/>
				</linearGradient>
				<path opacity="0.5" fill="url(#SVGID_18_)" d="M402.8,164.4c0.8-0.2,13.2-44.5,15.9-64.5c0,0-12,32-27.2,63.8
					C391.4,163.7,400.4,164.9,402.8,164.4z"/>
				<path fill="#FAAF43" d="M334.5,84.6l-119,116.3c0,0,7.1,50.1,63.7,61c2.2,0.4,4.5-0.1,6.2-1.5l117.4-95.9
					c0,0-18.9,4.8-26.4-17.4c0,0-27.4-0.3-24.6-31.3C351.7,115.7,328.8,113.9,334.5,84.6z"/>
				<g>
					<linearGradient id="SVGID_19_" gradientUnits="userSpaceOnUse" x1="254.4117" y1="177.5768" x2="343.7526" y2="108.1951">
						<stop  offset="0" style="stop-color:#FAAF43"/>
						<stop  offset="0.9995" style="stop-color:#FEDF2F"/>
					</linearGradient>
					<path fill="url(#SVGID_19_)" d="M334.5,84.6l-119,116.3c0,0,2,13.8,12,28.5l123.8-113.7C347.8,115.2,329.3,111.2,334.5,84.6z"
						/>
					<linearGradient id="SVGID_20_" gradientUnits="userSpaceOnUse" x1="358.2959" y1="136.1883" x2="243.2933" y2="237.8848">
						<stop  offset="0" style="stop-color:#FAAF43"/>
						<stop  offset="1" style="stop-color:#F37A21"/>
					</linearGradient>
					<path fill="url(#SVGID_20_)" d="M351.7,115.7c0,0-0.2,0-0.5-0.1L227.4,229.4c5.7,8.3,13.9,16.9,25.9,23.4l123-105.7
						C374.6,147,349,145.8,351.7,115.7z"/>
					<linearGradient id="SVGID_21_" gradientUnits="userSpaceOnUse" x1="280.4327" y1="161.7629" x2="312.7475" y2="200.7307">
						<stop  offset="0" style="stop-color:#F15B2A"/>
						<stop  offset="1" style="stop-color:#F69320;stop-opacity:0.42"/>
					</linearGradient>
					<path opacity="0.62" fill="url(#SVGID_21_)" d="M351.7,115.7c0,0-0.2,0-0.5-0.1L227.4,229.4c5.7,8.3,13.9,16.9,25.9,23.4
						l123-105.7C374.6,147,349,145.8,351.7,115.7z"/>
					<linearGradient id="SVGID_22_" gradientUnits="userSpaceOnUse" x1="253.3007" y1="204.5299" x2="402.7916" y2="204.5299">
						<stop  offset="0" style="stop-color:#F15B2A"/>
						<stop  offset="0.9995" style="stop-color:#F69320"/>
					</linearGradient>
					<path fill="url(#SVGID_22_)" d="M376.4,147.1C376.4,147.1,376.3,147.1,376.4,147.1l-123,105.7c7.2,3.9,15.8,7.1,25.9,9.1
						c2.2,0.4,4.5-0.1,6.2-1.5l117.4-95.9C402.8,164.4,383.9,169.2,376.4,147.1z"/>
					<linearGradient id="SVGID_23_" gradientUnits="userSpaceOnUse" x1="253.3007" y1="204.5299" x2="402.7916" y2="204.5299">
						<stop  offset="0" style="stop-color:#F15B2A"/>
						<stop  offset="0.9995" style="stop-color:#F69320"/>
					</linearGradient>
					<path fill="url(#SVGID_23_)" d="M376.4,147.1C376.4,147.1,376.3,147.1,376.4,147.1l-123,105.7c7.2,3.9,15.8,7.1,25.9,9.1
						c2.2,0.4,4.5-0.1,6.2-1.5l117.4-95.9C402.8,164.4,383.9,169.2,376.4,147.1z"/>
					<linearGradient id="SVGID_24_" gradientUnits="userSpaceOnUse" x1="318.3433" y1="197.2564" x2="333.7879" y2="215.3147">
						<stop  offset="0" style="stop-color:#F15B2A"/>
						<stop  offset="1" style="stop-color:#F69320;stop-opacity:0.42"/>
					</linearGradient>
					<path opacity="0.62" fill="url(#SVGID_24_)" d="M376.4,147.1C376.4,147.1,376.3,147.1,376.4,147.1l-123,105.7
						c7.2,3.9,15.8,7.1,25.9,9.1c2.2,0.4,4.5-0.1,6.2-1.5l117.4-95.9C402.8,164.4,383.9,169.2,376.4,147.1z"/>
				</g>
				<g>
					<linearGradient id="SVGID_25_" gradientUnits="userSpaceOnUse" x1="403.0348" y1="80.5276" x2="411.8263" y2="90.2696">
						<stop  offset="0" style="stop-color:#999C9E"/>
						<stop  offset="1" style="stop-color:#414142"/>
					</linearGradient>
					<path fill="url(#SVGID_25_)" d="M391.4,79.9c1.7,5.8,8.2,23,25.1,31c3.3-15.4,4.8-30.5,4.8-30.5
						C410.4,79.8,400.6,79.9,391.4,79.9z"/>
				</g>
				<linearGradient id="SVGID_26_" gradientUnits="userSpaceOnUse" x1="183.9959" y1="218.9185" x2="230.3296" y2="176.3866">
					<stop  offset="0" style="stop-color:#EB1F3D"/>
					<stop  offset="0.9986" style="stop-color:#89181C"/>
				</linearGradient>
				<path fill="url(#SVGID_26_)" d="M239.5,179.1c0,0-37-19.2-47.8,22.1c-10.3,39.4-3.5,34.6,5.2,26.4c8.8-8.3,23.7-21.8,23.7-21.8
					S247,184,239.5,179.1z"/>
				<linearGradient id="SVGID_27_" gradientUnits="userSpaceOnUse" x1="259.2682" y1="232.0381" x2="279.6924" y2="264.6384">
					<stop  offset="3.336997e-04" style="stop-color:#C73827"/>
					<stop  offset="1" style="stop-color:#F69320;stop-opacity:0.42"/>
				</linearGradient>
				<path opacity="0.62" fill="url(#SVGID_27_)" d="M271,218.9c0,0,11.8,16,1.8,36.7l-2.5,3.9c0,0-15.3-4.6-19.2-8.9
					C247.1,246.4,271,218.9,271,218.9z"/>
				<linearGradient id="SVGID_28_" gradientUnits="userSpaceOnUse" x1="201.8991" y1="275.8878" x2="265.3406" y2="218.8618">
					<stop  offset="0.2692" style="stop-color:#EB1F3D"/>
					<stop  offset="0.9986" style="stop-color:#89181C"/>
				</linearGradient>
				<path fill="url(#SVGID_28_)" d="M269.9,216.8c0,0-17.8-20.7-38.8,8c-33.1,46.2-56.4,78.4,28.1,25.8
					C259.2,250.6,282.5,234.8,269.9,216.8z"/>
			</g>
			<linearGradient id="SVGID_29_" gradientUnits="userSpaceOnUse" x1="351.8475" y1="113.7146" x2="230.6672" y2="222.777">
				<stop  offset="0" style="stop-color:#FFFFFF"/>
				<stop  offset="0.9995" style="stop-color:#F69320;stop-opacity:0"/>
			</linearGradient>
			<polygon fill="url(#SVGID_29_)" points="351.4,115.7 227.4,229.4 224.6,225.7 346.9,114.5 			"/>
			<linearGradient id="SVGID_30_" gradientUnits="userSpaceOnUse" x1="379.5219" y1="144.9956" x2="291.5724" y2="216.4993">
				<stop  offset="0" style="stop-color:#FFFFFF"/>
				<stop  offset="0.9995" style="stop-color:#F69320;stop-opacity:0"/>
			</linearGradient>
			<polygon opacity="0.75" fill="url(#SVGID_30_)" points="376.4,147.1 253.3,252.8 250.5,249.1 371.2,146.6 			"/>
			<linearGradient id="SVGID_31_" gradientUnits="userSpaceOnUse" x1="362.8502" y1="80.0992" x2="365.8407" y2="100.6051">
				<stop  offset="0" style="stop-color:#FFFFFF"/>
				<stop  offset="0.9995" style="stop-color:#FFFFFF;stop-opacity:0"/>
			</linearGradient>
			<path opacity="0.85" fill="url(#SVGID_31_)" d="M391.4,79.7c0,0,2.4,6.6,4.2,10c2.1,4-45.4,25.8-45.4,25.8s-21.7-5.3-15-31.2
				C335.1,84.4,352.4,79.6,391.4,79.7z"/>
			<linearGradient id="SVGID_32_" gradientUnits="userSpaceOnUse" x1="423.5295" y1="80.964" x2="399.0707" y2="88.9988">
				<stop  offset="0" style="stop-color:#FFFFFF"/>
				<stop  offset="0.9995" style="stop-color:#FFFFFF;stop-opacity:0"/>
			</linearGradient>
			<path fill="url(#SVGID_32_)" d="M393.9,86l27.3-5.6L398,94.1C398,94.1,394.8,89.5,393.9,86z"/>
			<path fill="#231F20" d="M421.2,80.4l-8.8,27.9c0,0-4.8-2-6.4-4.9L421.2,80.4z"/>
			<linearGradient id="SVGID_33_" gradientUnits="userSpaceOnUse" x1="403.6545" y1="95.6463" x2="340.5591" y2="127.3131">
				<stop  offset="4.318467e-04" style="stop-color:#EADCCD;stop-opacity:0"/>
				<stop  offset="0.9989" style="stop-color:#D88958"/>
			</linearGradient>
			<path opacity="0.75" fill="url(#SVGID_33_)" d="M351.4,115.7l46.1-22.1l1,1.9l-46.1,32.1C352.3,127.6,350.9,119,351.4,115.7z"/>
			<linearGradient id="SVGID_34_" gradientUnits="userSpaceOnUse" x1="207.1774" y1="197.4797" x2="199.1132" y2="187.0436">
				<stop  offset="0" style="stop-color:#EB1F3D"/>
				<stop  offset="0.9982" style="stop-color:#F05273"/>
			</linearGradient>
			<path fill="url(#SVGID_34_)" d="M231.6,180.3c9.3,1.9,8.4,0.2,8.6-0.8c-10.9-5.8-39.4-13.3-48.5,21.7
				c-9.2,35.2-4.8,35.1,2.5,28.8l-0.1-0.3c-5.2,3.1,1.4-27.3,11.6-40.9C212.4,180.1,224.2,178.8,231.6,180.3z"/>
			<path fill="#FFFFFF" d="M223.9,174.5c-2.3-0.1-4.5,0.1-6.7,0.6c-2.2,0.4-4.3,1.2-6.3,2.1c-4,1.9-7.5,4.7-10.3,8.1
				c-1.4,1.7-2.5,3.6-3.6,5.5c-1.1,1.9-2.1,4-3,6c-1.8,4.1-3.3,8.4-4.6,12.7c0.7-4.5,1.9-8.9,3.5-13.2c0.8-2.1,1.8-4.2,2.8-6.3
				c1.1-2,2.2-4,3.7-5.8c2.9-3.6,6.7-6.6,11-8.3C214.7,174.3,219.4,173.7,223.9,174.5z"/>
			<path fill="#FFFFFF" d="M334.5,84.6c-3.3,3.5-6.7,6.8-10,10.3L314.4,105c-6.7,6.7-13.6,13.4-20.4,20.1
				c-6.9,6.6-13.7,13.3-20.6,19.8l-10.4,9.8c-3.5,3.2-7,6.5-10.5,9.7c3.3-3.5,6.7-6.8,10-10.3l10.1-10.1
				c6.7-6.7,13.6-13.4,20.4-20.1c6.9-6.6,13.7-13.3,20.6-19.8l10.4-9.8C327.5,91,330.9,87.8,334.5,84.6z"/>
			<polygon opacity="0.8" fill="#FFFFFF" points="393.1,85.2 421.2,80.4 393.4,86.8 			"/>
			<linearGradient id="SVGID_35_" gradientUnits="userSpaceOnUse" x1="253.141" y1="218.3701" x2="205.3487" y2="261.1885">
				<stop  offset="0" style="stop-color:#EB1F3D"/>
				<stop  offset="0.9982" style="stop-color:#F05273"/>
			</linearGradient>
			<path fill="url(#SVGID_35_)" d="M254.5,229.4c4.7-4.4,2.1-12.2-4.2-13.1c-3.4-0.5-7.5,0-11.8,2.5c-11,6.3-29.4,38-32.8,44
				c-3.4,6.1-5.2,10.3-4.5,13.5C201.7,278.8,238.3,244.7,254.5,229.4z"/>
			<linearGradient id="SVGID_36_" gradientUnits="userSpaceOnUse" x1="226.5186" y1="192.7099" x2="242.9678" y2="218.9652">
				<stop  offset="0" style="stop-color:#F15B2A"/>
				<stop  offset="1" style="stop-color:#F69320;stop-opacity:0.42"/>
			</linearGradient>
			<path opacity="0.62" fill="url(#SVGID_36_)" d="M240.2,179.5c0,0,7.4,17.3-3.1,29.5c-8.9,10.3-13.9,13.5-13.9,13.5
				s-6.1-10-6.4-15.7L240.2,179.5z"/>
		</g>
	</g>
	<g>
		<g>
			<g>
				<path fill="#A7A9AC" d="M123.4,56.5h2.7c0.7,0,1.3,0.1,1.8,0.4c0.5,0.3,0.9,0.6,1.2,1.1c0.3,0.5,0.4,1,0.4,1.6s-0.1,1.2-0.4,1.6
					c-0.3,0.5-0.7,0.8-1.2,1.1c-0.5,0.3-1.1,0.4-1.8,0.4h-2.7V56.5z M126,62c0.5,0,1-0.1,1.3-0.3c0.4-0.2,0.7-0.5,0.9-0.8
					s0.3-0.8,0.3-1.2c0-0.5-0.1-0.9-0.3-1.2c-0.2-0.4-0.5-0.6-0.9-0.8c-0.4-0.2-0.8-0.3-1.3-0.3h-1.7V62H126z"/>
				<path fill="#A7A9AC" d="M135,60.7h-3.9c0.1,0.4,0.2,0.8,0.6,1s0.7,0.4,1.2,0.4c0.6,0,1-0.2,1.4-0.6l0.5,0.6
					c-0.2,0.3-0.5,0.4-0.8,0.6c-0.3,0.1-0.7,0.2-1.1,0.2c-0.5,0-1-0.1-1.3-0.3s-0.7-0.5-0.9-0.9c-0.2-0.4-0.3-0.8-0.3-1.3
					c0-0.5,0.1-0.9,0.3-1.3c0.2-0.4,0.5-0.7,0.9-0.9c0.4-0.2,0.8-0.3,1.2-0.3s0.9,0.1,1.2,0.3c0.4,0.2,0.6,0.5,0.8,0.9
					c0.2,0.4,0.3,0.8,0.3,1.3C135.1,60.5,135,60.6,135,60.7z M131.7,59.1c-0.3,0.3-0.4,0.6-0.5,1h3.1c0-0.4-0.2-0.7-0.5-1
					c-0.3-0.3-0.6-0.4-1-0.4S131.9,58.9,131.7,59.1z"/>
				<path fill="#A7A9AC" d="M136.5,62.7c-0.4-0.1-0.6-0.2-0.8-0.4l0.4-0.7c0.2,0.1,0.5,0.3,0.8,0.4c0.3,0.1,0.6,0.1,0.9,0.1
					c0.8,0,1.1-0.2,1.1-0.6c0-0.1-0.1-0.3-0.2-0.3s-0.2-0.1-0.4-0.2c-0.2,0-0.4-0.1-0.7-0.1c-0.4-0.1-0.7-0.1-0.9-0.2
					c-0.2-0.1-0.5-0.2-0.6-0.4s-0.3-0.4-0.3-0.8c0-0.4,0.2-0.8,0.5-1c0.4-0.3,0.8-0.4,1.4-0.4c0.3,0,0.6,0,1,0.1
					c0.3,0.1,0.6,0.2,0.8,0.3l-0.4,0.7c-0.4-0.3-0.8-0.4-1.4-0.4c-0.4,0-0.6,0.1-0.8,0.2c-0.2,0.1-0.3,0.3-0.3,0.5
					c0,0.2,0.1,0.3,0.2,0.4c0.1,0.1,0.2,0.2,0.4,0.2c0.2,0,0.4,0.1,0.7,0.1c0.4,0.1,0.7,0.1,0.9,0.2c0.2,0.1,0.4,0.2,0.6,0.4
					c0.2,0.2,0.3,0.4,0.3,0.8c0,0.4-0.2,0.8-0.6,1c-0.4,0.3-0.9,0.4-1.5,0.4C137.2,62.9,136.9,62.8,136.5,62.7z"/>
				<path fill="#A7A9AC" d="M140.8,57c-0.1-0.1-0.2-0.2-0.2-0.4c0-0.2,0.1-0.3,0.2-0.4c0.1-0.1,0.3-0.2,0.4-0.2s0.3,0.1,0.4,0.2
					s0.2,0.2,0.2,0.4c0,0.2-0.1,0.3-0.2,0.4c-0.1,0.1-0.3,0.2-0.4,0.2S140.9,57.1,140.8,57z M140.8,58.1h0.9v4.8h-0.9V58.1z"/>
				<path fill="#A7A9AC" d="M147.8,58.1v4.1c0,0.8-0.2,1.5-0.6,1.8c-0.4,0.4-1,0.6-1.9,0.6c-0.5,0-0.9-0.1-1.3-0.2
					c-0.4-0.1-0.7-0.3-1-0.5l0.4-0.7c0.2,0.2,0.5,0.3,0.8,0.5c0.3,0.1,0.7,0.2,1,0.2c0.6,0,1-0.1,1.2-0.4c0.3-0.3,0.4-0.7,0.4-1.2
					v-0.4c-0.2,0.2-0.5,0.4-0.8,0.6s-0.6,0.2-1,0.2c-0.5,0-0.9-0.1-1.2-0.3c-0.4-0.2-0.7-0.5-0.9-0.8s-0.3-0.8-0.3-1.2
					c0-0.4,0.1-0.9,0.3-1.2s0.5-0.6,0.9-0.8s0.8-0.3,1.2-0.3c0.4,0,0.7,0.1,1,0.2c0.3,0.1,0.6,0.3,0.8,0.6v-0.7H147.8z M146.2,61.7
					c0.2-0.1,0.4-0.3,0.6-0.6c0.1-0.2,0.2-0.5,0.2-0.8c0-0.5-0.2-0.8-0.5-1.1c-0.3-0.3-0.7-0.4-1.2-0.4c-0.5,0-0.9,0.1-1.2,0.4
					c-0.3,0.3-0.5,0.7-0.5,1.1c0,0.3,0.1,0.6,0.2,0.8c0.1,0.2,0.3,0.4,0.6,0.6s0.5,0.2,0.9,0.2C145.7,61.9,145.9,61.8,146.2,61.7z"
					/>
				<path fill="#A7A9AC" d="M153.5,58.5c0.4,0.4,0.5,0.9,0.5,1.5v2.7h-0.9v-2.6c0-0.5-0.1-0.8-0.3-1s-0.5-0.4-1-0.4
					c-0.5,0-0.8,0.1-1.1,0.4s-0.4,0.7-0.4,1.2v2.5h-0.9v-4.8h0.8v0.7c0.2-0.2,0.4-0.4,0.7-0.6c0.3-0.1,0.6-0.2,1-0.2
					C152.6,58,153.1,58.2,153.5,58.5z"/>
				<path fill="#A7A9AC" d="M159.9,60.7h-3.9c0.1,0.4,0.2,0.8,0.6,1s0.7,0.4,1.2,0.4c0.6,0,1-0.2,1.4-0.6l0.5,0.6
					c-0.2,0.3-0.5,0.4-0.8,0.6c-0.3,0.1-0.7,0.2-1.1,0.2c-0.5,0-1-0.1-1.3-0.3s-0.7-0.5-0.9-0.9c-0.2-0.4-0.3-0.8-0.3-1.3
					c0-0.5,0.1-0.9,0.3-1.3c0.2-0.4,0.5-0.7,0.9-0.9c0.4-0.2,0.8-0.3,1.2-0.3s0.9,0.1,1.2,0.3c0.4,0.2,0.6,0.5,0.8,0.9
					c0.2,0.4,0.3,0.8,0.3,1.3C159.9,60.5,159.9,60.6,159.9,60.7z M156.6,59.1c-0.3,0.3-0.4,0.6-0.5,1h3.1c0-0.4-0.2-0.7-0.5-1
					c-0.3-0.3-0.6-0.4-1-0.4S156.8,58.9,156.6,59.1z"/>
				<path fill="#A7A9AC" d="M162.6,58.2c0.3-0.1,0.7-0.2,1.1-0.2v0.8c0,0-0.1,0-0.2,0c-0.5,0-0.8,0.1-1.1,0.4
					c-0.3,0.3-0.4,0.7-0.4,1.2v2.4h-0.9v-4.8h0.8v0.8C162.1,58.6,162.3,58.4,162.6,58.2z"/>
				<path fill="#A7A9AC" d="M121.8,73.5c-0.4-0.1-0.6-0.2-0.8-0.4l0.4-0.7c0.2,0.1,0.5,0.3,0.8,0.4c0.3,0.1,0.6,0.1,0.9,0.1
					c0.8,0,1.1-0.2,1.1-0.6c0-0.1-0.1-0.3-0.2-0.3s-0.2-0.1-0.4-0.2c-0.2,0-0.4-0.1-0.7-0.1c-0.4-0.1-0.7-0.1-0.9-0.2
					c-0.2-0.1-0.5-0.2-0.6-0.4s-0.3-0.4-0.3-0.8c0-0.4,0.2-0.8,0.5-1c0.4-0.3,0.8-0.4,1.4-0.4c0.3,0,0.6,0,1,0.1
					c0.3,0.1,0.6,0.2,0.8,0.3l-0.4,0.7c-0.4-0.3-0.8-0.4-1.4-0.4c-0.4,0-0.6,0.1-0.8,0.2c-0.2,0.1-0.3,0.3-0.3,0.5
					c0,0.2,0.1,0.3,0.2,0.4c0.1,0.1,0.2,0.2,0.4,0.2c0.2,0,0.4,0.1,0.7,0.1c0.4,0.1,0.7,0.1,0.9,0.2c0.2,0.1,0.4,0.2,0.6,0.4
					c0.2,0.2,0.3,0.4,0.3,0.8c0,0.4-0.2,0.8-0.6,1c-0.4,0.3-0.9,0.4-1.5,0.4C122.5,73.7,122.2,73.6,121.8,73.5z"/>
				<path fill="#A7A9AC" d="M127.9,71.4l-1,0.9v1.3h-0.9v-6.7h0.9v4.3l2.6-2.4h1l-2,2l2.2,2.8h-1.1L127.9,71.4z"/>
				<path fill="#A7A9AC" d="M135.7,71.5h-3.9c0.1,0.4,0.2,0.8,0.6,1s0.7,0.4,1.2,0.4c0.6,0,1-0.2,1.4-0.6l0.5,0.6
					c-0.2,0.3-0.5,0.4-0.8,0.6c-0.3,0.1-0.7,0.2-1.1,0.2c-0.5,0-1-0.1-1.3-0.3s-0.7-0.5-0.9-0.9c-0.2-0.4-0.3-0.8-0.3-1.3
					c0-0.5,0.1-0.9,0.3-1.3c0.2-0.4,0.5-0.7,0.9-0.9c0.4-0.2,0.8-0.3,1.2-0.3s0.9,0.1,1.2,0.3c0.4,0.2,0.6,0.5,0.8,0.9
					c0.2,0.4,0.3,0.8,0.3,1.3C135.7,71.3,135.7,71.4,135.7,71.5z M132.3,69.9c-0.3,0.3-0.4,0.6-0.5,1h3.1c0-0.4-0.2-0.7-0.5-1
					c-0.3-0.3-0.6-0.4-1-0.4S132.6,69.7,132.3,69.9z"/>
				<path fill="#A7A9AC" d="M139.6,73.3c-0.1,0.1-0.3,0.2-0.5,0.2c-0.2,0.1-0.4,0.1-0.6,0.1c-0.5,0-0.9-0.1-1.1-0.4
					c-0.3-0.3-0.4-0.6-0.4-1.1v-2.6h-0.8v-0.7h0.8v-1h0.9v1h1.4v0.7h-1.4v2.6c0,0.3,0.1,0.5,0.2,0.6c0.1,0.1,0.3,0.2,0.6,0.2
					c0.3,0,0.5-0.1,0.7-0.2L139.6,73.3z"/>
				<path fill="#A7A9AC" d="M141.3,73.4c-0.4-0.2-0.7-0.5-0.9-0.9c-0.2-0.4-0.3-0.8-0.3-1.3c0-0.5,0.1-0.9,0.3-1.3
					c0.2-0.4,0.5-0.7,0.9-0.9c0.4-0.2,0.8-0.3,1.3-0.3c0.4,0,0.8,0.1,1.2,0.3c0.3,0.2,0.6,0.4,0.8,0.8l-0.7,0.4
					c-0.1-0.2-0.3-0.4-0.6-0.5c-0.2-0.1-0.5-0.2-0.7-0.2c-0.3,0-0.6,0.1-0.8,0.2c-0.2,0.1-0.4,0.3-0.6,0.6c-0.1,0.3-0.2,0.5-0.2,0.9
					c0,0.3,0.1,0.6,0.2,0.9c0.1,0.3,0.3,0.5,0.6,0.6c0.2,0.1,0.5,0.2,0.8,0.2c0.3,0,0.5-0.1,0.7-0.2c0.2-0.1,0.4-0.3,0.6-0.5
					l0.7,0.4c-0.2,0.3-0.4,0.6-0.8,0.8c-0.3,0.2-0.7,0.3-1.2,0.3C142.1,73.7,141.7,73.6,141.3,73.4z"/>
				<path fill="#A7A9AC" d="M149.6,69.3c0.4,0.4,0.5,0.9,0.5,1.5v2.7h-0.9V71c0-0.5-0.1-0.8-0.3-1s-0.5-0.4-1-0.4
					c-0.5,0-0.8,0.1-1.1,0.4s-0.4,0.7-0.4,1.2v2.5h-0.9v-6.7h0.9v2.6c0.2-0.2,0.4-0.4,0.7-0.5s0.6-0.2,1-0.2
					C148.7,68.8,149.2,69,149.6,69.3z"/>
				<path fill="#A7A9AC" d="M151.7,67.8c-0.1-0.1-0.2-0.2-0.2-0.4c0-0.2,0.1-0.3,0.2-0.4c0.1-0.1,0.3-0.2,0.4-0.2s0.3,0.1,0.4,0.2
					s0.2,0.2,0.2,0.4c0,0.2-0.1,0.3-0.2,0.4c-0.1,0.1-0.3,0.2-0.4,0.2S151.8,67.9,151.7,67.8z M151.7,68.8h0.9v4.8h-0.9V68.8z"/>
				<path fill="#A7A9AC" d="M158.2,69.3c0.4,0.4,0.5,0.9,0.5,1.5v2.7h-0.9V71c0-0.5-0.1-0.8-0.3-1s-0.5-0.4-1-0.4
					c-0.5,0-0.8,0.1-1.1,0.4s-0.4,0.7-0.4,1.2v2.5h-0.9v-4.8h0.8v0.7c0.2-0.2,0.4-0.4,0.7-0.6c0.3-0.1,0.6-0.2,1-0.2
					C157.4,68.8,157.8,69,158.2,69.3z"/>
				<path fill="#A7A9AC" d="M164.9,68.8V73c0,0.8-0.2,1.5-0.6,1.8c-0.4,0.4-1,0.6-1.9,0.6c-0.5,0-0.9-0.1-1.3-0.2
					c-0.4-0.1-0.7-0.3-1-0.5l0.4-0.7c0.2,0.2,0.5,0.3,0.8,0.5c0.3,0.1,0.7,0.2,1,0.2c0.6,0,1-0.1,1.2-0.4c0.3-0.3,0.4-0.7,0.4-1.2
					v-0.4c-0.2,0.2-0.5,0.4-0.8,0.6s-0.6,0.2-1,0.2c-0.5,0-0.9-0.1-1.2-0.3c-0.4-0.2-0.7-0.5-0.9-0.8s-0.3-0.8-0.3-1.2
					c0-0.4,0.1-0.9,0.3-1.2s0.5-0.6,0.9-0.8s0.8-0.3,1.2-0.3c0.4,0,0.7,0.1,1,0.2c0.3,0.1,0.6,0.3,0.8,0.6v-0.7H164.9z M163.3,72.5
					c0.2-0.1,0.4-0.3,0.6-0.6c0.1-0.2,0.2-0.5,0.2-0.8c0-0.5-0.2-0.8-0.5-1.1c-0.3-0.3-0.7-0.4-1.2-0.4c-0.5,0-0.9,0.1-1.2,0.4
					c-0.3,0.3-0.5,0.7-0.5,1.1c0,0.3,0.1,0.6,0.2,0.8c0.1,0.2,0.3,0.4,0.6,0.6s0.5,0.2,0.9,0.2C162.8,72.7,163,72.6,163.3,72.5z"/>
			</g>
		</g>
		<g>
			<g>
				<path fill="#A7A9AC" d="M248.7,37.8h2.7c0.7,0,1.3,0.1,1.8,0.4c0.5,0.3,0.9,0.6,1.2,1.1s0.4,1,0.4,1.6s-0.1,1.2-0.4,1.6
					s-0.7,0.8-1.2,1.1c-0.5,0.3-1.1,0.4-1.8,0.4h-2.7V37.8z M251.3,43.3c0.5,0,1-0.1,1.3-0.3c0.4-0.2,0.7-0.5,0.9-0.8
					c0.2-0.4,0.3-0.8,0.3-1.2c0-0.5-0.1-0.9-0.3-1.2c-0.2-0.4-0.5-0.6-0.9-0.8c-0.4-0.2-0.8-0.3-1.3-0.3h-1.7v4.7H251.3z"/>
				<path fill="#A7A9AC" d="M260.3,42h-3.9c0.1,0.4,0.2,0.8,0.6,1c0.3,0.3,0.7,0.4,1.2,0.4c0.6,0,1-0.2,1.4-0.6l0.5,0.6
					c-0.2,0.3-0.5,0.4-0.8,0.6c-0.3,0.1-0.7,0.2-1.1,0.2c-0.5,0-1-0.1-1.3-0.3c-0.4-0.2-0.7-0.5-0.9-0.9s-0.3-0.8-0.3-1.3
					c0-0.5,0.1-0.9,0.3-1.3c0.2-0.4,0.5-0.7,0.9-0.9s0.8-0.3,1.2-0.3c0.5,0,0.9,0.1,1.2,0.3c0.4,0.2,0.6,0.5,0.8,0.9
					c0.2,0.4,0.3,0.8,0.3,1.3C260.3,41.8,260.3,41.9,260.3,42z M256.9,40.4c-0.3,0.3-0.4,0.6-0.5,1h3.1c0-0.4-0.2-0.7-0.5-1
					c-0.3-0.3-0.6-0.4-1-0.4S257.2,40.1,256.9,40.4z"/>
				<path fill="#A7A9AC" d="M261.7,44c-0.4-0.1-0.6-0.2-0.8-0.4l0.4-0.7c0.2,0.1,0.5,0.3,0.8,0.4c0.3,0.1,0.6,0.1,0.9,0.1
					c0.8,0,1.1-0.2,1.1-0.6c0-0.1-0.1-0.3-0.2-0.3c-0.1-0.1-0.2-0.1-0.4-0.2c-0.2,0-0.4-0.1-0.7-0.1c-0.4-0.1-0.7-0.1-0.9-0.2
					c-0.2-0.1-0.5-0.2-0.6-0.4s-0.3-0.4-0.3-0.8c0-0.4,0.2-0.8,0.5-1c0.4-0.3,0.8-0.4,1.4-0.4c0.3,0,0.6,0,1,0.1
					c0.3,0.1,0.6,0.2,0.8,0.3l-0.4,0.7c-0.4-0.3-0.8-0.4-1.4-0.4c-0.4,0-0.6,0.1-0.8,0.2c-0.2,0.1-0.3,0.3-0.3,0.5
					c0,0.2,0.1,0.3,0.2,0.4c0.1,0.1,0.2,0.2,0.4,0.2c0.2,0,0.4,0.1,0.7,0.1c0.4,0.1,0.7,0.1,0.9,0.2c0.2,0.1,0.4,0.2,0.6,0.4
					c0.2,0.2,0.3,0.4,0.3,0.8c0,0.4-0.2,0.8-0.6,1c-0.4,0.3-0.9,0.4-1.5,0.4C262.5,44.1,262.1,44.1,261.7,44z"/>
				<path fill="#A7A9AC" d="M266,38.2c-0.1-0.1-0.2-0.2-0.2-0.4c0-0.2,0.1-0.3,0.2-0.4c0.1-0.1,0.2-0.2,0.4-0.2s0.3,0.1,0.4,0.2
					c0.1,0.1,0.2,0.2,0.2,0.4c0,0.2-0.1,0.3-0.2,0.4c-0.1,0.1-0.2,0.2-0.4,0.2S266.1,38.3,266,38.2z M266,39.3h0.9v4.8H266V39.3z"/>
				<path fill="#A7A9AC" d="M273.1,39.3v4.1c0,0.8-0.2,1.5-0.6,1.8c-0.4,0.4-1,0.6-1.9,0.6c-0.5,0-0.9-0.1-1.3-0.2
					c-0.4-0.1-0.7-0.3-1-0.5l0.4-0.7c0.2,0.2,0.5,0.3,0.8,0.5s0.7,0.2,1,0.2c0.6,0,1-0.1,1.2-0.4s0.4-0.7,0.4-1.2v-0.4
					c-0.2,0.2-0.5,0.4-0.8,0.6s-0.6,0.2-1,0.2c-0.5,0-0.9-0.1-1.2-0.3c-0.4-0.2-0.7-0.5-0.9-0.8s-0.3-0.8-0.3-1.2
					c0-0.4,0.1-0.9,0.3-1.2s0.5-0.6,0.9-0.8s0.8-0.3,1.2-0.3c0.4,0,0.7,0.1,1,0.2c0.3,0.1,0.6,0.3,0.8,0.6v-0.7H273.1z M271.4,42.9
					c0.2-0.1,0.4-0.3,0.6-0.6c0.1-0.2,0.2-0.5,0.2-0.8c0-0.5-0.2-0.8-0.5-1.1c-0.3-0.3-0.7-0.4-1.2-0.4c-0.5,0-0.9,0.1-1.2,0.4
					c-0.3,0.3-0.5,0.7-0.5,1.1c0,0.3,0.1,0.6,0.2,0.8c0.1,0.2,0.3,0.4,0.6,0.6s0.5,0.2,0.9,0.2C270.9,43.1,271.2,43.1,271.4,42.9z"
					/>
				<path fill="#A7A9AC" d="M278.7,39.8c0.4,0.4,0.5,0.9,0.5,1.5v2.7h-0.9v-2.6c0-0.5-0.1-0.8-0.3-1s-0.5-0.4-1-0.4
					c-0.5,0-0.8,0.1-1.1,0.4c-0.3,0.3-0.4,0.7-0.4,1.2v2.5h-0.9v-4.8h0.8V40c0.2-0.2,0.4-0.4,0.7-0.6c0.3-0.1,0.6-0.2,1-0.2
					C277.9,39.3,278.4,39.4,278.7,39.8z"/>
				<path fill="#A7A9AC" d="M285.2,42h-3.9c0.1,0.4,0.2,0.8,0.6,1c0.3,0.3,0.7,0.4,1.2,0.4c0.6,0,1-0.2,1.4-0.6l0.5,0.6
					c-0.2,0.3-0.5,0.4-0.8,0.6c-0.3,0.1-0.7,0.2-1.1,0.2c-0.5,0-1-0.1-1.3-0.3c-0.4-0.2-0.7-0.5-0.9-0.9c-0.2-0.4-0.3-0.8-0.3-1.3
					c0-0.5,0.1-0.9,0.3-1.3c0.2-0.4,0.5-0.7,0.9-0.9c0.4-0.2,0.8-0.3,1.2-0.3c0.5,0,0.9,0.1,1.2,0.3s0.6,0.5,0.8,0.9
					c0.2,0.4,0.3,0.8,0.3,1.3C285.2,41.8,285.2,41.9,285.2,42z M281.8,40.4c-0.3,0.3-0.4,0.6-0.5,1h3.1c0-0.4-0.2-0.7-0.5-1
					c-0.3-0.3-0.6-0.4-1-0.4S282.1,40.1,281.8,40.4z"/>
				<path fill="#A7A9AC" d="M287.9,39.5c0.3-0.1,0.7-0.2,1.1-0.2v0.8c0,0-0.1,0-0.2,0c-0.5,0-0.8,0.1-1.1,0.4
					c-0.3,0.3-0.4,0.7-0.4,1.2v2.4h-0.9v-4.8h0.8v0.8C287.4,39.8,287.6,39.6,287.9,39.5z"/>
				<path fill="#A7A9AC" d="M247.5,48.2h0.9v6.7h-0.9V48.2z"/>
				<path fill="#A7A9AC" d="M250.8,54.6c-0.4-0.2-0.7-0.5-0.9-0.9c-0.2-0.4-0.3-0.8-0.3-1.3c0-0.5,0.1-0.9,0.3-1.3
					c0.2-0.4,0.5-0.7,0.9-0.9s0.8-0.3,1.3-0.3c0.5,0,0.9,0.1,1.3,0.3c0.4,0.2,0.7,0.5,0.9,0.9c0.2,0.4,0.3,0.8,0.3,1.3
					c0,0.5-0.1,0.9-0.3,1.3c-0.2,0.4-0.5,0.7-0.9,0.9c-0.4,0.2-0.8,0.3-1.3,0.3C251.6,54.9,251.2,54.8,250.8,54.6z M252.9,54
					c0.2-0.1,0.4-0.3,0.6-0.6c0.1-0.3,0.2-0.5,0.2-0.9c0-0.3-0.1-0.6-0.2-0.9c-0.1-0.3-0.3-0.5-0.6-0.6c-0.2-0.1-0.5-0.2-0.8-0.2
					c-0.3,0-0.6,0.1-0.8,0.2c-0.2,0.1-0.4,0.3-0.6,0.6c-0.1,0.3-0.2,0.5-0.2,0.9c0,0.3,0.1,0.6,0.2,0.9c0.1,0.3,0.3,0.5,0.6,0.6
					c0.2,0.1,0.5,0.2,0.8,0.2C252.4,54.2,252.6,54.1,252.9,54z"/>
				<path fill="#A7A9AC" d="M256,54.8c-0.4-0.1-0.6-0.2-0.8-0.4l0.4-0.7c0.2,0.1,0.5,0.3,0.8,0.4c0.3,0.1,0.6,0.1,0.9,0.1
					c0.8,0,1.1-0.2,1.1-0.6c0-0.1-0.1-0.3-0.2-0.3s-0.2-0.1-0.4-0.2c-0.2,0-0.4-0.1-0.7-0.1c-0.4-0.1-0.7-0.1-0.9-0.2
					c-0.2-0.1-0.5-0.2-0.6-0.4s-0.3-0.4-0.3-0.8c0-0.4,0.2-0.8,0.5-1c0.4-0.3,0.8-0.4,1.4-0.4c0.3,0,0.6,0,1,0.1
					c0.3,0.1,0.6,0.2,0.8,0.3l-0.4,0.7c-0.4-0.3-0.8-0.4-1.4-0.4c-0.4,0-0.6,0.1-0.8,0.2s-0.3,0.3-0.3,0.5c0,0.2,0.1,0.3,0.2,0.4
					c0.1,0.1,0.2,0.2,0.4,0.2c0.2,0,0.4,0.1,0.7,0.1c0.4,0.1,0.7,0.1,0.9,0.2c0.2,0.1,0.4,0.2,0.6,0.4c0.2,0.2,0.3,0.4,0.3,0.8
					c0,0.4-0.2,0.8-0.6,1c-0.4,0.3-0.9,0.4-1.5,0.4C256.7,54.9,256.3,54.9,256,54.8z"/>
				<path fill="#A7A9AC" d="M262.9,54.6c-0.1,0.1-0.3,0.2-0.5,0.2c-0.2,0.1-0.4,0.1-0.6,0.1c-0.5,0-0.9-0.1-1.1-0.4
					c-0.3-0.3-0.4-0.6-0.4-1.1v-2.6h-0.8v-0.7h0.8v-1h0.9v1h1.4v0.7h-1.4v2.6c0,0.3,0.1,0.5,0.2,0.6c0.1,0.1,0.3,0.2,0.6,0.2
					c0.3,0,0.5-0.1,0.7-0.2L262.9,54.6z"/>
				<path fill="#A7A9AC" d="M273.6,50.1l-1.8,4.8H271l-1.4-3.6l-1.4,3.6h-0.8l-1.8-4.8h0.8l1.4,3.8l1.4-3.8h0.7l1.4,3.8l1.4-3.8
					H273.6z"/>
				<path fill="#A7A9AC" d="M278.5,50.6c0.4,0.4,0.5,0.9,0.5,1.5v2.7h-0.9v-2.6c0-0.5-0.1-0.8-0.3-1c-0.2-0.2-0.5-0.4-1-0.4
					c-0.5,0-0.8,0.1-1.1,0.4s-0.4,0.7-0.4,1.2v2.5h-0.9v-6.7h0.9v2.6c0.2-0.2,0.4-0.4,0.7-0.5s0.6-0.2,1-0.2
					C277.6,50,278.1,50.2,278.5,50.6z"/>
				<path fill="#A7A9AC" d="M280.6,49c-0.1-0.1-0.2-0.2-0.2-0.4c0-0.2,0.1-0.3,0.2-0.4c0.1-0.1,0.2-0.2,0.4-0.2s0.3,0.1,0.4,0.2
					c0.1,0.1,0.2,0.2,0.2,0.4c0,0.2-0.1,0.3-0.2,0.4c-0.1,0.1-0.2,0.2-0.4,0.2S280.7,49.1,280.6,49z M280.6,50.1h0.9v4.8h-0.9V50.1z
					"/>
				<path fill="#A7A9AC" d="M283.1,48.2h0.9v6.7h-0.9V48.2z"/>
				<path fill="#A7A9AC" d="M289.9,52.8h-3.9c0.1,0.4,0.2,0.8,0.6,1s0.7,0.4,1.2,0.4c0.6,0,1-0.2,1.4-0.6l0.5,0.6
					c-0.2,0.3-0.5,0.4-0.8,0.6c-0.3,0.1-0.7,0.2-1.1,0.2c-0.5,0-1-0.1-1.3-0.3s-0.7-0.5-0.9-0.9s-0.3-0.8-0.3-1.3
					c0-0.5,0.1-0.9,0.3-1.3c0.2-0.4,0.5-0.7,0.9-0.9s0.8-0.3,1.2-0.3s0.9,0.1,1.2,0.3c0.4,0.2,0.6,0.5,0.8,0.9
					c0.2,0.4,0.3,0.8,0.3,1.3C289.9,52.6,289.9,52.7,289.9,52.8z M286.5,51.2c-0.3,0.3-0.4,0.6-0.5,1h3.1c0-0.4-0.2-0.7-0.5-1
					c-0.3-0.3-0.6-0.4-1-0.4S286.8,50.9,286.5,51.2z"/>
				<path fill="#A7A9AC" d="M254.7,65.5c-0.4-0.1-0.6-0.2-0.8-0.4l0.4-0.7c0.2,0.1,0.5,0.3,0.8,0.4c0.3,0.1,0.6,0.1,0.9,0.1
					c0.8,0,1.1-0.2,1.1-0.6c0-0.1-0.1-0.3-0.2-0.3s-0.2-0.1-0.4-0.2c-0.2,0-0.4-0.1-0.7-0.1c-0.4-0.1-0.7-0.1-0.9-0.2
					c-0.2-0.1-0.5-0.2-0.6-0.4s-0.3-0.4-0.3-0.8c0-0.4,0.2-0.8,0.5-1c0.4-0.3,0.8-0.4,1.4-0.4c0.3,0,0.6,0,1,0.1
					c0.3,0.1,0.6,0.2,0.8,0.3l-0.4,0.7c-0.4-0.3-0.8-0.4-1.4-0.4c-0.4,0-0.6,0.1-0.8,0.2s-0.3,0.3-0.3,0.5c0,0.2,0.1,0.3,0.2,0.4
					c0.1,0.1,0.2,0.2,0.4,0.2c0.2,0,0.4,0.1,0.7,0.1c0.4,0.1,0.7,0.1,0.9,0.2c0.2,0.1,0.4,0.2,0.6,0.4c0.2,0.2,0.3,0.4,0.3,0.8
					c0,0.4-0.2,0.8-0.6,1c-0.4,0.3-0.9,0.4-1.5,0.4C255.4,65.7,255,65.7,254.7,65.5z"/>
				<path fill="#A7A9AC" d="M262.2,61.3c0.4,0.3,0.5,0.8,0.5,1.4v2.9h-0.8V65c-0.1,0.2-0.3,0.4-0.6,0.5c-0.3,0.1-0.6,0.2-1,0.2
					c-0.5,0-1-0.1-1.3-0.4c-0.3-0.3-0.5-0.6-0.5-1s0.2-0.8,0.5-1c0.3-0.3,0.8-0.4,1.5-0.4h1.4v-0.2c0-0.4-0.1-0.7-0.3-0.9
					c-0.2-0.2-0.5-0.3-1-0.3c-0.3,0-0.6,0-0.8,0.1c-0.3,0.1-0.5,0.2-0.7,0.4l-0.4-0.6c0.2-0.2,0.5-0.3,0.9-0.5
					c0.3-0.1,0.7-0.2,1.1-0.2C261.3,60.8,261.8,61,262.2,61.3z M261.3,64.8c0.2-0.1,0.4-0.4,0.5-0.6v-0.7h-1.3
					c-0.7,0-1.1,0.2-1.1,0.7c0,0.2,0.1,0.4,0.3,0.6c0.2,0.1,0.4,0.2,0.8,0.2S261.1,65,261.3,64.8z"/>
				<path fill="#A7A9AC" d="M264.3,59.8c-0.1-0.1-0.2-0.2-0.2-0.4c0-0.2,0.1-0.3,0.2-0.4c0.1-0.1,0.3-0.2,0.4-0.2s0.3,0.1,0.4,0.2
					s0.2,0.2,0.2,0.4c0,0.2-0.1,0.3-0.2,0.4c-0.1,0.1-0.2,0.2-0.4,0.2S264.4,59.9,264.3,59.8z M264.3,60.9h0.9v4.8h-0.9V60.9z"/>
				<path fill="#A7A9AC" d="M266.8,59h0.9v6.7h-0.9V59z"/>
				<path fill="#A7A9AC" d="M269.4,59.8c-0.1-0.1-0.2-0.2-0.2-0.4c0-0.2,0.1-0.3,0.2-0.4c0.1-0.1,0.2-0.2,0.4-0.2s0.3,0.1,0.4,0.2
					c0.1,0.1,0.2,0.2,0.2,0.4c0,0.2-0.1,0.3-0.2,0.4c-0.1,0.1-0.2,0.2-0.4,0.2S269.5,59.9,269.4,59.8z M269.3,60.9h0.9v4.8h-0.9
					V60.9z"/>
				<path fill="#A7A9AC" d="M275.8,61.4c0.4,0.4,0.5,0.9,0.5,1.5v2.7h-0.9V63c0-0.5-0.1-0.8-0.3-1s-0.5-0.4-1-0.4
					c-0.5,0-0.8,0.1-1.1,0.4c-0.3,0.3-0.4,0.7-0.4,1.2v2.5h-0.9v-4.8h0.8v0.7c0.2-0.2,0.4-0.4,0.7-0.6c0.3-0.1,0.6-0.2,1-0.2
					C275,60.8,275.5,61,275.8,61.4z"/>
				<path fill="#A7A9AC" d="M282.6,60.9V65c0,0.8-0.2,1.5-0.6,1.8c-0.4,0.4-1,0.6-1.9,0.6c-0.5,0-0.9-0.1-1.3-0.2
					c-0.4-0.1-0.7-0.3-1-0.5l0.4-0.7c0.2,0.2,0.5,0.3,0.8,0.5c0.3,0.1,0.7,0.2,1,0.2c0.6,0,1-0.1,1.2-0.4c0.3-0.3,0.4-0.7,0.4-1.2
					v-0.4c-0.2,0.2-0.5,0.4-0.8,0.6s-0.6,0.2-1,0.2c-0.5,0-0.9-0.1-1.2-0.3c-0.4-0.2-0.7-0.5-0.9-0.8c-0.2-0.4-0.3-0.8-0.3-1.2
					c0-0.4,0.1-0.9,0.3-1.2c0.2-0.4,0.5-0.6,0.9-0.8s0.8-0.3,1.2-0.3c0.4,0,0.7,0.1,1,0.2c0.3,0.1,0.6,0.3,0.8,0.6v-0.7H282.6z
					 M280.9,64.5c0.2-0.1,0.4-0.3,0.6-0.6c0.1-0.2,0.2-0.5,0.2-0.8c0-0.5-0.2-0.8-0.5-1.1c-0.3-0.3-0.7-0.4-1.2-0.4
					c-0.5,0-0.9,0.1-1.2,0.4c-0.3,0.3-0.5,0.7-0.5,1.1c0,0.3,0.1,0.6,0.2,0.8c0.1,0.2,0.3,0.4,0.6,0.6c0.2,0.1,0.5,0.2,0.9,0.2
					C280.4,64.7,280.7,64.6,280.9,64.5z"/>
			</g>
		</g>
		<g>
			<g>
				<path fill="#A7A9AC" d="M40.6,120.3h2.7c0.7,0,1.3,0.1,1.8,0.4c0.5,0.3,0.9,0.6,1.2,1.1c0.3,0.5,0.4,1,0.4,1.6s-0.1,1.2-0.4,1.6
					c-0.3,0.5-0.7,0.8-1.2,1.1s-1.1,0.4-1.8,0.4h-2.7V120.3z M43.2,125.8c0.5,0,1-0.1,1.3-0.3c0.4-0.2,0.7-0.5,0.9-0.8
					s0.3-0.8,0.3-1.2c0-0.5-0.1-0.9-0.3-1.2c-0.2-0.4-0.5-0.6-0.9-0.8c-0.4-0.2-0.8-0.3-1.3-0.3h-1.7v4.7H43.2z"/>
				<path fill="#A7A9AC" d="M52.2,124.5h-3.9c0.1,0.4,0.2,0.8,0.6,1s0.7,0.4,1.2,0.4c0.6,0,1-0.2,1.4-0.6l0.5,0.6
					c-0.2,0.3-0.5,0.4-0.8,0.6c-0.3,0.1-0.7,0.2-1.1,0.2c-0.5,0-1-0.1-1.3-0.3s-0.7-0.5-0.9-0.9c-0.2-0.4-0.3-0.8-0.3-1.3
					c0-0.5,0.1-0.9,0.3-1.3c0.2-0.4,0.5-0.7,0.9-0.9c0.4-0.2,0.8-0.3,1.2-0.3s0.9,0.1,1.2,0.3c0.4,0.2,0.6,0.5,0.8,0.9
					c0.2,0.4,0.3,0.8,0.3,1.3C52.2,124.3,52.2,124.4,52.2,124.5z M48.8,122.9c-0.3,0.3-0.4,0.6-0.5,1h3.1c0-0.4-0.2-0.7-0.5-1
					c-0.3-0.3-0.6-0.4-1-0.4S49.1,122.7,48.8,122.9z"/>
				<path fill="#A7A9AC" d="M53.7,126.5c-0.4-0.1-0.6-0.2-0.8-0.4l0.4-0.7c0.2,0.1,0.5,0.3,0.8,0.4c0.3,0.1,0.6,0.1,0.9,0.1
					c0.8,0,1.1-0.2,1.1-0.6c0-0.1-0.1-0.3-0.2-0.3s-0.2-0.1-0.4-0.2c-0.2,0-0.4-0.1-0.7-0.1c-0.4-0.1-0.7-0.1-0.9-0.2
					c-0.2-0.1-0.5-0.2-0.6-0.4s-0.3-0.4-0.3-0.8c0-0.4,0.2-0.8,0.5-1c0.4-0.3,0.8-0.4,1.4-0.4c0.3,0,0.6,0,1,0.1
					c0.3,0.1,0.6,0.2,0.8,0.3l-0.4,0.7c-0.4-0.3-0.8-0.4-1.4-0.4c-0.4,0-0.6,0.1-0.8,0.2c-0.2,0.1-0.3,0.3-0.3,0.5
					c0,0.2,0.1,0.3,0.2,0.4c0.1,0.1,0.2,0.2,0.4,0.2c0.2,0,0.4,0.1,0.7,0.1c0.4,0.1,0.7,0.1,0.9,0.2c0.2,0.1,0.4,0.2,0.6,0.4
					c0.2,0.2,0.3,0.4,0.3,0.8c0,0.4-0.2,0.8-0.6,1c-0.4,0.3-0.9,0.4-1.5,0.4C54.4,126.7,54,126.6,53.7,126.5z"/>
				<path fill="#A7A9AC" d="M58,120.8c-0.1-0.1-0.2-0.2-0.2-0.4c0-0.2,0.1-0.3,0.2-0.4c0.1-0.1,0.3-0.2,0.4-0.2s0.3,0.1,0.4,0.2
					s0.2,0.2,0.2,0.4c0,0.2-0.1,0.3-0.2,0.4c-0.1,0.1-0.3,0.2-0.4,0.2S58.1,120.9,58,120.8z M58,121.9h0.9v4.8H58V121.9z"/>
				<path fill="#A7A9AC" d="M65,121.9v4.1c0,0.8-0.2,1.5-0.6,1.8c-0.4,0.4-1,0.6-1.9,0.6c-0.5,0-0.9-0.1-1.3-0.2
					c-0.4-0.1-0.7-0.3-1-0.5l0.4-0.7c0.2,0.2,0.5,0.3,0.8,0.5c0.3,0.1,0.7,0.2,1,0.2c0.6,0,1-0.1,1.2-0.4c0.3-0.3,0.4-0.7,0.4-1.2
					v-0.4c-0.2,0.2-0.5,0.4-0.8,0.6s-0.6,0.2-1,0.2c-0.5,0-0.9-0.1-1.2-0.3c-0.4-0.2-0.7-0.5-0.9-0.8s-0.3-0.8-0.3-1.2
					c0-0.4,0.1-0.9,0.3-1.2s0.5-0.6,0.9-0.8s0.8-0.3,1.2-0.3c0.4,0,0.7,0.1,1,0.2c0.3,0.1,0.6,0.3,0.8,0.6v-0.7H65z M63.4,125.5
					c0.2-0.1,0.4-0.3,0.6-0.6c0.1-0.2,0.2-0.5,0.2-0.8c0-0.5-0.2-0.8-0.5-1.1c-0.3-0.3-0.7-0.4-1.2-0.4c-0.5,0-0.9,0.1-1.2,0.4
					c-0.3,0.3-0.5,0.7-0.5,1.1c0,0.3,0.1,0.6,0.2,0.8c0.1,0.2,0.3,0.4,0.6,0.6s0.5,0.2,0.9,0.2C62.9,125.7,63.1,125.6,63.4,125.5z"
					/>
				<path fill="#A7A9AC" d="M70.7,122.3c0.4,0.4,0.5,0.9,0.5,1.5v2.7h-0.9V124c0-0.5-0.1-0.8-0.3-1s-0.5-0.4-1-0.4
					c-0.5,0-0.8,0.1-1.1,0.4s-0.4,0.7-0.4,1.2v2.5h-0.9v-4.8h0.8v0.7c0.2-0.2,0.4-0.4,0.7-0.6c0.3-0.1,0.6-0.2,1-0.2
					C69.8,121.8,70.3,122,70.7,122.3z"/>
				<path fill="#A7A9AC" d="M77.1,124.5h-3.9c0.1,0.4,0.2,0.8,0.6,1s0.7,0.4,1.2,0.4c0.6,0,1-0.2,1.4-0.6l0.5,0.6
					c-0.2,0.3-0.5,0.4-0.8,0.6c-0.3,0.1-0.7,0.2-1.1,0.2c-0.5,0-1-0.1-1.3-0.3s-0.7-0.5-0.9-0.9c-0.2-0.4-0.3-0.8-0.3-1.3
					c0-0.5,0.1-0.9,0.3-1.3c0.2-0.4,0.5-0.7,0.9-0.9c0.4-0.2,0.8-0.3,1.2-0.3s0.9,0.1,1.2,0.3c0.4,0.2,0.6,0.5,0.8,0.9
					c0.2,0.4,0.3,0.8,0.3,1.3C77.1,124.3,77.1,124.4,77.1,124.5z M73.7,122.9c-0.3,0.3-0.4,0.6-0.5,1h3.1c0-0.4-0.2-0.7-0.5-1
					c-0.3-0.3-0.6-0.4-1-0.4S74,122.7,73.7,122.9z"/>
				<path fill="#A7A9AC" d="M79.8,122c0.3-0.1,0.7-0.2,1.1-0.2v0.8c0,0-0.1,0-0.2,0c-0.5,0-0.8,0.1-1.1,0.4
					c-0.3,0.3-0.4,0.7-0.4,1.2v2.4h-0.9v-4.8h0.8v0.8C79.3,122.4,79.5,122.2,79.8,122z"/>
				<path fill="#A7A9AC" d="M45.7,133.1c0.4,0.4,0.5,0.9,0.5,1.5v2.7h-0.9v-2.6c0-0.5-0.1-0.8-0.3-1s-0.5-0.4-1-0.4
					c-0.5,0-0.8,0.1-1.1,0.4s-0.4,0.7-0.4,1.2v2.5h-0.9v-6.7h0.9v2.6c0.2-0.2,0.4-0.4,0.7-0.5s0.6-0.2,1-0.2
					C44.9,132.6,45.3,132.8,45.7,133.1z"/>
				<path fill="#A7A9AC" d="M51.1,133.1c0.4,0.3,0.5,0.8,0.5,1.4v2.9h-0.8v-0.6c-0.1,0.2-0.3,0.4-0.6,0.5c-0.3,0.1-0.6,0.2-0.9,0.2
					c-0.5,0-1-0.1-1.3-0.4c-0.3-0.3-0.5-0.6-0.5-1s0.2-0.8,0.5-1c0.3-0.3,0.8-0.4,1.5-0.4h1.4v-0.2c0-0.4-0.1-0.7-0.3-0.9
					c-0.2-0.2-0.5-0.3-1-0.3c-0.3,0-0.6,0-0.8,0.1c-0.3,0.1-0.5,0.2-0.7,0.4l-0.4-0.6c0.2-0.2,0.5-0.3,0.9-0.5
					c0.3-0.1,0.7-0.2,1.1-0.2C50.2,132.6,50.7,132.8,51.1,133.1z M50.2,136.6c0.2-0.1,0.4-0.4,0.5-0.6v-0.7h-1.3
					c-0.7,0-1.1,0.2-1.1,0.7c0,0.2,0.1,0.4,0.3,0.6s0.4,0.2,0.8,0.2S50,136.7,50.2,136.6z"/>
				<path fill="#A7A9AC" d="M57.3,132.6l-2.1,4.8h-0.9l-2.1-4.8h0.9l1.6,3.8l1.7-3.8H57.3z"/>
				<path fill="#A7A9AC" d="M58.2,131.6c-0.1-0.1-0.2-0.2-0.2-0.4c0-0.2,0.1-0.3,0.2-0.4c0.1-0.1,0.3-0.2,0.4-0.2s0.3,0.1,0.4,0.2
					s0.2,0.2,0.2,0.4c0,0.2-0.1,0.3-0.2,0.4c-0.1,0.1-0.3,0.2-0.4,0.2S58.3,131.7,58.2,131.6z M58.1,132.6H59v4.8h-0.9V132.6z"/>
				<path fill="#A7A9AC" d="M64.7,133.1c0.4,0.4,0.5,0.9,0.5,1.5v2.7h-0.9v-2.6c0-0.5-0.1-0.8-0.3-1s-0.5-0.4-1-0.4
					c-0.5,0-0.8,0.1-1.1,0.4s-0.4,0.7-0.4,1.2v2.5h-0.9v-4.8h0.8v0.7c0.2-0.2,0.4-0.4,0.7-0.6c0.3-0.1,0.6-0.2,1-0.2
					C63.8,132.6,64.3,132.8,64.7,133.1z"/>
				<path fill="#A7A9AC" d="M71.4,132.6v4.1c0,0.8-0.2,1.5-0.6,1.8c-0.4,0.4-1,0.6-1.9,0.6c-0.5,0-0.9-0.1-1.3-0.2
					c-0.4-0.1-0.7-0.3-1-0.5l0.4-0.7c0.2,0.2,0.5,0.3,0.8,0.5c0.3,0.1,0.7,0.2,1,0.2c0.6,0,1-0.1,1.2-0.4c0.3-0.3,0.4-0.7,0.4-1.2
					v-0.4c-0.2,0.2-0.5,0.4-0.8,0.6s-0.6,0.2-1,0.2c-0.5,0-0.9-0.1-1.2-0.3c-0.4-0.2-0.7-0.5-0.9-0.8c-0.2-0.4-0.3-0.8-0.3-1.2
					c0-0.4,0.1-0.9,0.3-1.2c0.2-0.4,0.5-0.6,0.9-0.8s0.8-0.3,1.2-0.3c0.4,0,0.7,0.1,1,0.2c0.3,0.1,0.6,0.3,0.8,0.6v-0.7H71.4z
					 M69.7,136.3c0.2-0.1,0.4-0.3,0.6-0.6c0.1-0.2,0.2-0.5,0.2-0.8c0-0.5-0.2-0.8-0.5-1.1c-0.3-0.3-0.7-0.4-1.2-0.4
					c-0.5,0-0.9,0.1-1.2,0.4c-0.3,0.3-0.5,0.7-0.5,1.1c0,0.3,0.1,0.6,0.2,0.8c0.1,0.2,0.3,0.4,0.6,0.6s0.5,0.2,0.9,0.2
					C69.2,136.5,69.5,136.4,69.7,136.3z"/>
				<path fill="#A7A9AC" d="M78.7,133.1c0.4,0.3,0.5,0.8,0.5,1.4v2.9h-0.8v-0.6c-0.1,0.2-0.3,0.4-0.6,0.5c-0.3,0.1-0.6,0.2-0.9,0.2
					c-0.5,0-1-0.1-1.3-0.4c-0.3-0.3-0.5-0.6-0.5-1s0.2-0.8,0.5-1c0.3-0.3,0.8-0.4,1.5-0.4h1.4v-0.2c0-0.4-0.1-0.7-0.3-0.9
					c-0.2-0.2-0.5-0.3-1-0.3c-0.3,0-0.6,0-0.8,0.1c-0.3,0.1-0.5,0.2-0.7,0.4l-0.4-0.6c0.2-0.2,0.5-0.3,0.9-0.5
					c0.3-0.1,0.7-0.2,1.1-0.2C77.8,132.6,78.3,132.8,78.7,133.1z M77.8,136.6c0.2-0.1,0.4-0.4,0.5-0.6v-0.7H77
					c-0.7,0-1.1,0.2-1.1,0.7c0,0.2,0.1,0.4,0.3,0.6s0.4,0.2,0.8,0.2S77.6,136.7,77.8,136.6z"/>
				<path fill="#A7A9AC" d="M41.8,143.7c0.4,0.2,0.7,0.5,0.9,0.9c0.2,0.4,0.3,0.8,0.3,1.3s-0.1,0.9-0.3,1.3
					c-0.2,0.4-0.5,0.7-0.9,0.9c-0.4,0.2-0.8,0.3-1.2,0.3c-0.3,0-0.7-0.1-0.9-0.2c-0.3-0.1-0.5-0.3-0.7-0.6v2.5H38v-6.5h0.8v0.8
					c0.2-0.3,0.4-0.5,0.7-0.6c0.3-0.1,0.6-0.2,1-0.2C41,143.4,41.4,143.5,41.8,143.7z M41.3,147.3c0.2-0.1,0.4-0.3,0.6-0.6
					c0.1-0.3,0.2-0.5,0.2-0.9c0-0.3-0.1-0.6-0.2-0.9c-0.1-0.3-0.3-0.5-0.6-0.6c-0.2-0.1-0.5-0.2-0.8-0.2c-0.3,0-0.6,0.1-0.8,0.2
					c-0.2,0.1-0.4,0.3-0.6,0.6c-0.1,0.3-0.2,0.5-0.2,0.9c0,0.3,0.1,0.6,0.2,0.9c0.1,0.3,0.3,0.5,0.6,0.6c0.2,0.1,0.5,0.2,0.8,0.2
					C40.8,147.5,41.1,147.4,41.3,147.3z"/>
				<path fill="#A7A9AC" d="M44.9,147.9c-0.4-0.2-0.7-0.5-0.9-0.9c-0.2-0.4-0.3-0.8-0.3-1.3c0-0.5,0.1-0.9,0.3-1.3
					c0.2-0.4,0.5-0.7,0.9-0.9s0.8-0.3,1.3-0.3c0.5,0,0.9,0.1,1.3,0.3c0.4,0.2,0.7,0.5,0.9,0.9c0.2,0.4,0.3,0.8,0.3,1.3
					c0,0.5-0.1,0.9-0.3,1.3c-0.2,0.4-0.5,0.7-0.9,0.9c-0.4,0.2-0.8,0.3-1.3,0.3C45.7,148.3,45.3,148.2,44.9,147.9z M47,147.3
					c0.2-0.1,0.4-0.3,0.6-0.6c0.1-0.3,0.2-0.5,0.2-0.9c0-0.3-0.1-0.6-0.2-0.9c-0.1-0.3-0.3-0.5-0.6-0.6c-0.2-0.1-0.5-0.2-0.8-0.2
					c-0.3,0-0.6,0.1-0.8,0.2c-0.2,0.1-0.4,0.3-0.6,0.6c-0.1,0.3-0.2,0.5-0.2,0.9c0,0.3,0.1,0.6,0.2,0.9c0.1,0.3,0.3,0.5,0.6,0.6
					c0.2,0.1,0.5,0.2,0.8,0.2C46.5,147.5,46.8,147.4,47,147.3z"/>
				<path fill="#A7A9AC" d="M57,143.4l-1.8,4.8h-0.8l-1.4-3.6l-1.4,3.6h-0.8l-1.8-4.8h0.8l1.4,3.8l1.4-3.8h0.7l1.4,3.8l1.4-3.8H57z"
					/>
				<path fill="#A7A9AC" d="M62,146.1h-3.9c0.1,0.4,0.2,0.8,0.6,1s0.7,0.4,1.2,0.4c0.6,0,1-0.2,1.4-0.6l0.5,0.6
					c-0.2,0.3-0.5,0.4-0.8,0.6c-0.3,0.1-0.7,0.2-1.1,0.2c-0.5,0-1-0.1-1.3-0.3s-0.7-0.5-0.9-0.9c-0.2-0.4-0.3-0.8-0.3-1.3
					c0-0.5,0.1-0.9,0.3-1.3c0.2-0.4,0.5-0.7,0.9-0.9c0.4-0.2,0.8-0.3,1.2-0.3s0.9,0.1,1.2,0.3c0.4,0.2,0.6,0.5,0.8,0.9
					c0.2,0.4,0.3,0.8,0.3,1.3C62,145.9,62,146,62,146.1z M58.6,144.5c-0.3,0.3-0.4,0.6-0.5,1h3.1c0-0.4-0.2-0.7-0.5-1
					c-0.3-0.3-0.6-0.4-1-0.4S58.9,144.2,58.6,144.5z"/>
				<path fill="#A7A9AC" d="M64.7,143.6c0.3-0.1,0.7-0.2,1.1-0.2v0.8c0,0-0.1,0-0.2,0c-0.5,0-0.8,0.1-1.1,0.4
					c-0.3,0.3-0.4,0.7-0.4,1.2v2.4h-0.9v-4.8H64v0.8C64.2,144,64.4,143.8,64.7,143.6z"/>
				<path fill="#A7A9AC" d="M70.8,143.9c0.4,0.4,0.5,0.9,0.5,1.5v2.7h-0.9v-2.6c0-0.5-0.1-0.8-0.3-1s-0.5-0.4-1-0.4
					c-0.5,0-0.8,0.1-1.1,0.4s-0.4,0.7-0.4,1.2v2.5h-0.9v-4.8h0.8v0.7c0.2-0.2,0.4-0.4,0.7-0.6c0.3-0.1,0.6-0.2,1-0.2
					C70,143.4,70.5,143.6,70.8,143.9z"/>
				<path fill="#A7A9AC" d="M76.2,143.9c0.4,0.3,0.5,0.8,0.5,1.4v2.9h-0.8v-0.6c-0.1,0.2-0.3,0.4-0.6,0.5c-0.3,0.1-0.6,0.2-0.9,0.2
					c-0.5,0-1-0.1-1.3-0.4c-0.3-0.3-0.5-0.6-0.5-1s0.2-0.8,0.5-1c0.3-0.3,0.8-0.4,1.5-0.4h1.4v-0.2c0-0.4-0.1-0.7-0.3-0.9
					c-0.2-0.2-0.5-0.3-1-0.3c-0.3,0-0.6,0-0.8,0.1c-0.3,0.1-0.5,0.2-0.7,0.4l-0.4-0.6c0.2-0.2,0.5-0.3,0.9-0.5
					c0.3-0.1,0.7-0.2,1.1-0.2C75.4,143.4,75.9,143.6,76.2,143.9z M75.4,147.4c0.2-0.1,0.4-0.4,0.5-0.6v-0.7h-1.3
					c-0.7,0-1.1,0.2-1.1,0.7c0,0.2,0.1,0.4,0.3,0.6s0.4,0.2,0.8,0.2S75.1,147.5,75.4,147.4z"/>
				<path fill="#A7A9AC" d="M82.1,143.7c0.4,0.2,0.7,0.5,0.9,0.9c0.2,0.4,0.3,0.8,0.3,1.3s-0.1,0.9-0.3,1.3
					c-0.2,0.4-0.5,0.7-0.9,0.9c-0.4,0.2-0.8,0.3-1.2,0.3c-0.3,0-0.7-0.1-0.9-0.2c-0.3-0.1-0.5-0.3-0.7-0.6v2.5h-0.9v-6.5h0.8v0.8
					c0.2-0.3,0.4-0.5,0.7-0.6c0.3-0.1,0.6-0.2,1-0.2C81.3,143.4,81.8,143.5,82.1,143.7z M81.6,147.3c0.2-0.1,0.4-0.3,0.6-0.6
					c0.1-0.3,0.2-0.5,0.2-0.9c0-0.3-0.1-0.6-0.2-0.9c-0.1-0.3-0.3-0.5-0.6-0.6c-0.2-0.1-0.5-0.2-0.8-0.2c-0.3,0-0.6,0.1-0.8,0.2
					c-0.2,0.1-0.4,0.3-0.6,0.6c-0.1,0.3-0.2,0.5-0.2,0.9c0,0.3,0.1,0.6,0.2,0.9c0.1,0.3,0.3,0.5,0.6,0.6c0.2,0.1,0.5,0.2,0.8,0.2
					C81.1,147.5,81.4,147.4,81.6,147.3z"/>
			</g>
		</g>
		<g>
			<g>
				<path fill="#A7A9AC" d="M23.4,214.2H26c0.7,0,1.3,0.1,1.8,0.4c0.5,0.3,0.9,0.6,1.2,1.1c0.3,0.5,0.4,1,0.4,1.6s-0.1,1.2-0.4,1.6
					c-0.3,0.5-0.7,0.8-1.2,1.1s-1.1,0.4-1.8,0.4h-2.7V214.2z M26,219.7c0.5,0,1-0.1,1.3-0.3c0.4-0.2,0.7-0.5,0.9-0.8
					s0.3-0.8,0.3-1.2c0-0.5-0.1-0.9-0.3-1.2c-0.2-0.4-0.5-0.6-0.9-0.8c-0.4-0.2-0.8-0.3-1.3-0.3h-1.7v4.7H26z"/>
				<path fill="#A7A9AC" d="M35,218.4h-3.9c0.1,0.4,0.2,0.8,0.6,1s0.7,0.4,1.2,0.4c0.6,0,1-0.2,1.4-0.6l0.5,0.6
					c-0.2,0.3-0.5,0.4-0.8,0.6c-0.3,0.1-0.7,0.2-1.1,0.2c-0.5,0-1-0.1-1.3-0.3s-0.7-0.5-0.9-0.9c-0.2-0.4-0.3-0.8-0.3-1.3
					c0-0.5,0.1-0.9,0.3-1.3c0.2-0.4,0.5-0.7,0.9-0.9c0.4-0.2,0.8-0.3,1.2-0.3s0.9,0.1,1.2,0.3c0.4,0.2,0.6,0.5,0.8,0.9
					c0.2,0.4,0.3,0.8,0.3,1.3C35,218.2,35,218.3,35,218.4z M31.6,216.8c-0.3,0.3-0.4,0.6-0.5,1h3.1c0-0.4-0.2-0.7-0.5-1
					c-0.3-0.3-0.6-0.4-1-0.4S31.9,216.5,31.6,216.8z"/>
				<path fill="#A7A9AC" d="M36.4,220.4c-0.4-0.1-0.6-0.2-0.8-0.4l0.4-0.7c0.2,0.1,0.5,0.3,0.8,0.4c0.3,0.1,0.6,0.1,0.9,0.1
					c0.8,0,1.1-0.2,1.1-0.6c0-0.1-0.1-0.3-0.2-0.3s-0.2-0.1-0.4-0.2c-0.2,0-0.4-0.1-0.7-0.1c-0.4-0.1-0.7-0.1-0.9-0.2
					c-0.2-0.1-0.5-0.2-0.6-0.4s-0.3-0.4-0.3-0.8c0-0.4,0.2-0.8,0.5-1c0.4-0.3,0.8-0.4,1.4-0.4c0.3,0,0.6,0,1,0.1
					c0.3,0.1,0.6,0.2,0.8,0.3l-0.4,0.7c-0.4-0.3-0.8-0.4-1.4-0.4c-0.4,0-0.6,0.1-0.8,0.2c-0.2,0.1-0.3,0.3-0.3,0.5
					c0,0.2,0.1,0.3,0.2,0.4c0.1,0.1,0.2,0.2,0.4,0.2c0.2,0,0.4,0.1,0.7,0.1c0.4,0.1,0.7,0.1,0.9,0.2c0.2,0.1,0.4,0.2,0.6,0.4
					c0.2,0.2,0.3,0.4,0.3,0.8c0,0.4-0.2,0.8-0.6,1c-0.4,0.3-0.9,0.4-1.5,0.4C37.2,220.5,36.8,220.5,36.4,220.4z"/>
				<path fill="#A7A9AC" d="M40.7,214.6c-0.1-0.1-0.2-0.2-0.2-0.4c0-0.2,0.1-0.3,0.2-0.4c0.1-0.1,0.3-0.2,0.4-0.2s0.3,0.1,0.4,0.2
					s0.2,0.2,0.2,0.4c0,0.2-0.1,0.3-0.2,0.4c-0.1,0.1-0.3,0.2-0.4,0.2S40.8,214.7,40.7,214.6z M40.7,215.7h0.9v4.8h-0.9V215.7z"/>
				<path fill="#A7A9AC" d="M47.8,215.7v4.1c0,0.8-0.2,1.5-0.6,1.8c-0.4,0.4-1,0.6-1.9,0.6c-0.5,0-0.9-0.1-1.3-0.2
					c-0.4-0.1-0.7-0.3-1-0.5l0.4-0.7c0.2,0.2,0.5,0.3,0.8,0.5c0.3,0.1,0.7,0.2,1,0.2c0.6,0,1-0.1,1.2-0.4c0.3-0.3,0.4-0.7,0.4-1.2
					v-0.4c-0.2,0.2-0.5,0.4-0.8,0.6s-0.6,0.2-1,0.2c-0.5,0-0.9-0.1-1.2-0.3c-0.4-0.2-0.7-0.5-0.9-0.8s-0.3-0.8-0.3-1.2
					c0-0.4,0.1-0.9,0.3-1.2s0.5-0.6,0.9-0.8s0.8-0.3,1.2-0.3c0.4,0,0.7,0.1,1,0.2c0.3,0.1,0.6,0.3,0.8,0.6v-0.7H47.8z M46.1,219.3
					c0.2-0.1,0.4-0.3,0.6-0.6c0.1-0.2,0.2-0.5,0.2-0.8c0-0.5-0.2-0.8-0.5-1.1c-0.3-0.3-0.7-0.4-1.2-0.4c-0.5,0-0.9,0.1-1.2,0.4
					c-0.3,0.3-0.5,0.7-0.5,1.1c0,0.3,0.1,0.6,0.2,0.8c0.1,0.2,0.3,0.4,0.6,0.6s0.5,0.2,0.9,0.2C45.6,219.5,45.9,219.5,46.1,219.3z"
					/>
				<path fill="#A7A9AC" d="M53.4,216.2c0.4,0.4,0.5,0.9,0.5,1.5v2.7h-0.9v-2.6c0-0.5-0.1-0.8-0.3-1s-0.5-0.4-1-0.4
					c-0.5,0-0.8,0.1-1.1,0.4s-0.4,0.7-0.4,1.2v2.5h-0.9v-4.8h0.8v0.7c0.2-0.2,0.4-0.4,0.7-0.6c0.3-0.1,0.6-0.2,1-0.2
					C52.6,215.7,53.1,215.9,53.4,216.2z"/>
				<path fill="#A7A9AC" d="M59.9,218.4H56c0.1,0.4,0.2,0.8,0.6,1s0.7,0.4,1.2,0.4c0.6,0,1-0.2,1.4-0.6l0.5,0.6
					c-0.2,0.3-0.5,0.4-0.8,0.6c-0.3,0.1-0.7,0.2-1.1,0.2c-0.5,0-1-0.1-1.3-0.3s-0.7-0.5-0.9-0.9c-0.2-0.4-0.3-0.8-0.3-1.3
					c0-0.5,0.1-0.9,0.3-1.3c0.2-0.4,0.5-0.7,0.9-0.9c0.4-0.2,0.8-0.3,1.2-0.3s0.9,0.1,1.2,0.3c0.4,0.2,0.6,0.5,0.8,0.9
					c0.2,0.4,0.3,0.8,0.3,1.3C59.9,218.2,59.9,218.3,59.9,218.4z M56.5,216.8c-0.3,0.3-0.4,0.6-0.5,1h3.1c0-0.4-0.2-0.7-0.5-1
					c-0.3-0.3-0.6-0.4-1-0.4S56.8,216.5,56.5,216.8z"/>
				<path fill="#A7A9AC" d="M62.6,215.9c0.3-0.1,0.7-0.2,1.1-0.2v0.8c0,0-0.1,0-0.2,0c-0.5,0-0.8,0.1-1.1,0.4
					c-0.3,0.3-0.4,0.7-0.4,1.2v2.4h-0.9v-4.8h0.8v0.8C62.1,216.2,62.3,216,62.6,215.9z"/>
				<path fill="#A7A9AC" d="M15,226.8c0.4,0.2,0.7,0.5,0.9,0.9c0.2,0.4,0.3,0.8,0.3,1.3s-0.1,0.9-0.3,1.3c-0.2,0.4-0.5,0.7-0.9,0.9
					c-0.4,0.2-0.8,0.3-1.2,0.3c-0.4,0-0.7-0.1-1-0.2c-0.3-0.1-0.5-0.3-0.7-0.6v0.8h-0.8v-6.7h0.9v2.6c0.2-0.3,0.4-0.4,0.7-0.6
					c0.3-0.1,0.6-0.2,0.9-0.2C14.2,226.5,14.6,226.6,15,226.8z M14.5,230.4c0.2-0.1,0.4-0.3,0.6-0.6c0.1-0.3,0.2-0.5,0.2-0.9
					c0-0.3-0.1-0.6-0.2-0.9c-0.1-0.3-0.3-0.5-0.6-0.6c-0.2-0.1-0.5-0.2-0.8-0.2c-0.3,0-0.6,0.1-0.8,0.2c-0.2,0.1-0.4,0.3-0.6,0.6
					c-0.1,0.3-0.2,0.5-0.2,0.9c0,0.3,0.1,0.6,0.2,0.9c0.1,0.3,0.3,0.5,0.6,0.6c0.2,0.1,0.5,0.2,0.8,0.2
					C14,230.6,14.3,230.5,14.5,230.4z"/>
				<path fill="#A7A9AC" d="M18.9,226.7c0.3-0.1,0.7-0.2,1.1-0.2v0.8c0,0-0.1,0-0.2,0c-0.5,0-0.8,0.1-1.1,0.4
					c-0.3,0.3-0.4,0.7-0.4,1.2v2.4h-0.9v-4.8h0.8v0.8C18.3,227,18.6,226.8,18.9,226.7z"/>
				<path fill="#A7A9AC" d="M24.2,226.9c0.4,0.3,0.5,0.8,0.5,1.4v2.9h-0.8v-0.6c-0.1,0.2-0.3,0.4-0.6,0.5c-0.3,0.1-0.6,0.2-0.9,0.2
					c-0.5,0-1-0.1-1.3-0.4c-0.3-0.3-0.5-0.6-0.5-1s0.2-0.8,0.5-1c0.3-0.3,0.8-0.4,1.5-0.4h1.4v-0.2c0-0.4-0.1-0.7-0.3-0.9
					c-0.2-0.2-0.5-0.3-1-0.3c-0.3,0-0.6,0-0.8,0.1c-0.3,0.1-0.5,0.2-0.7,0.4l-0.4-0.6c0.2-0.2,0.5-0.3,0.9-0.5
					c0.3-0.1,0.7-0.2,1.1-0.2C23.4,226.5,23.9,226.6,24.2,226.9z M23.4,230.4c0.2-0.1,0.4-0.4,0.5-0.6v-0.7h-1.3
					c-0.7,0-1.1,0.2-1.1,0.7c0,0.2,0.1,0.4,0.3,0.6s0.4,0.2,0.8,0.2S23.1,230.6,23.4,230.4z"/>
				<path fill="#A7A9AC" d="M26.4,225.4c-0.1-0.1-0.2-0.2-0.2-0.4c0-0.2,0.1-0.3,0.2-0.4c0.1-0.1,0.3-0.2,0.4-0.2s0.3,0.1,0.4,0.2
					s0.2,0.2,0.2,0.4c0,0.2-0.1,0.3-0.2,0.4c-0.1,0.1-0.3,0.2-0.4,0.2S26.5,225.5,26.4,225.4z M26.4,226.5h0.9v4.8h-0.9V226.5z"/>
				<path fill="#A7A9AC" d="M32.9,227c0.4,0.4,0.5,0.9,0.5,1.5v2.7h-0.9v-2.6c0-0.5-0.1-0.8-0.3-1s-0.5-0.4-1-0.4
					c-0.5,0-0.8,0.1-1.1,0.4s-0.4,0.7-0.4,1.2v2.5h-0.9v-4.8h0.8v0.7c0.2-0.2,0.4-0.4,0.7-0.6c0.3-0.1,0.6-0.2,1-0.2
					C32,226.5,32.5,226.6,32.9,227z"/>
				<path fill="#A7A9AC" d="M35.2,231.2c-0.4-0.1-0.6-0.2-0.8-0.4l0.4-0.7c0.2,0.1,0.5,0.3,0.8,0.4c0.3,0.1,0.6,0.1,0.9,0.1
					c0.8,0,1.1-0.2,1.1-0.6c0-0.1-0.1-0.3-0.2-0.3s-0.2-0.1-0.4-0.2c-0.2,0-0.4-0.1-0.7-0.1c-0.4-0.1-0.7-0.1-0.9-0.2
					c-0.2-0.1-0.5-0.2-0.6-0.4s-0.3-0.4-0.3-0.8c0-0.4,0.2-0.8,0.5-1c0.4-0.3,0.8-0.4,1.4-0.4c0.3,0,0.6,0,1,0.1
					c0.3,0.1,0.6,0.2,0.8,0.3l-0.4,0.7c-0.4-0.3-0.8-0.4-1.4-0.4c-0.4,0-0.6,0.1-0.8,0.2c-0.2,0.1-0.3,0.3-0.3,0.5
					c0,0.2,0.1,0.3,0.2,0.4c0.1,0.1,0.2,0.2,0.4,0.2c0.2,0,0.4,0.1,0.7,0.1c0.4,0.1,0.7,0.1,0.9,0.2c0.2,0.1,0.4,0.2,0.6,0.4
					c0.2,0.2,0.3,0.4,0.3,0.8c0,0.4-0.2,0.8-0.6,1c-0.4,0.3-0.9,0.4-1.5,0.4C36,231.3,35.6,231.3,35.2,231.2z"/>
				<path fill="#A7A9AC" d="M42.2,231c-0.1,0.1-0.3,0.2-0.5,0.2c-0.2,0.1-0.4,0.1-0.6,0.1c-0.5,0-0.9-0.1-1.1-0.4
					c-0.3-0.3-0.4-0.6-0.4-1.1v-2.6h-0.8v-0.7h0.8v-1h0.9v1h1.4v0.7h-1.4v2.6c0,0.3,0.1,0.5,0.2,0.6c0.1,0.1,0.3,0.2,0.6,0.2
					c0.3,0,0.5-0.1,0.7-0.2L42.2,231z"/>
				<path fill="#A7A9AC" d="M43.8,231c-0.4-0.2-0.7-0.5-0.9-0.9c-0.2-0.4-0.3-0.8-0.3-1.3c0-0.5,0.1-0.9,0.3-1.3
					c0.2-0.4,0.5-0.7,0.9-0.9s0.8-0.3,1.3-0.3c0.5,0,0.9,0.1,1.3,0.3c0.4,0.2,0.7,0.5,0.9,0.9c0.2,0.4,0.3,0.8,0.3,1.3
					c0,0.5-0.1,0.9-0.3,1.3c-0.2,0.4-0.5,0.7-0.9,0.9c-0.4,0.2-0.8,0.3-1.3,0.3C44.6,231.3,44.2,231.2,43.8,231z M45.9,230.4
					c0.2-0.1,0.4-0.3,0.6-0.6c0.1-0.3,0.2-0.5,0.2-0.9c0-0.3-0.1-0.6-0.2-0.9c-0.1-0.3-0.3-0.5-0.6-0.6c-0.2-0.1-0.5-0.2-0.8-0.2
					c-0.3,0-0.6,0.1-0.8,0.2c-0.2,0.1-0.4,0.3-0.6,0.6c-0.1,0.3-0.2,0.5-0.2,0.9c0,0.3,0.1,0.6,0.2,0.9c0.1,0.3,0.3,0.5,0.6,0.6
					c0.2,0.1,0.5,0.2,0.8,0.2C45.4,230.6,45.7,230.5,45.9,230.4z"/>
				<path fill="#A7A9AC" d="M50.3,226.7c0.3-0.1,0.7-0.2,1.1-0.2v0.8c0,0-0.1,0-0.2,0c-0.5,0-0.8,0.1-1.1,0.4
					c-0.3,0.3-0.4,0.7-0.4,1.2v2.4h-0.9v-4.8h0.8v0.8C49.8,227,50,226.8,50.3,226.7z"/>
				<path fill="#A7A9AC" d="M59.8,227c0.4,0.3,0.5,0.9,0.5,1.5v2.7h-0.9v-2.6c0-0.5-0.1-0.8-0.3-1c-0.2-0.2-0.5-0.4-0.9-0.4
					c-0.4,0-0.8,0.1-1,0.4c-0.3,0.3-0.4,0.7-0.4,1.2v2.5h-0.9v-2.6c0-0.5-0.1-0.8-0.3-1s-0.5-0.4-0.9-0.4c-0.4,0-0.8,0.1-1,0.4
					c-0.3,0.3-0.4,0.7-0.4,1.2v2.5h-0.9v-4.8h0.8v0.7c0.2-0.2,0.4-0.4,0.7-0.6c0.3-0.1,0.6-0.2,1-0.2c0.4,0,0.7,0.1,1,0.2
					c0.3,0.1,0.5,0.4,0.7,0.7c0.2-0.3,0.4-0.5,0.8-0.6c0.3-0.2,0.7-0.2,1.1-0.2C59,226.5,59.5,226.6,59.8,227z"/>
				<path fill="#A7A9AC" d="M61.9,225.4c-0.1-0.1-0.2-0.2-0.2-0.4c0-0.2,0.1-0.3,0.2-0.4c0.1-0.1,0.3-0.2,0.4-0.2s0.3,0.1,0.4,0.2
					s0.2,0.2,0.2,0.4c0,0.2-0.1,0.3-0.2,0.4c-0.1,0.1-0.3,0.2-0.4,0.2S62.1,225.5,61.9,225.4z M61.9,226.5h0.9v4.8h-0.9V226.5z"/>
				<path fill="#A7A9AC" d="M68.4,227c0.4,0.4,0.5,0.9,0.5,1.5v2.7h-0.9v-2.6c0-0.5-0.1-0.8-0.3-1s-0.5-0.4-1-0.4
					c-0.5,0-0.8,0.1-1.1,0.4s-0.4,0.7-0.4,1.2v2.5h-0.9v-4.8h0.8v0.7c0.2-0.2,0.4-0.4,0.7-0.6c0.3-0.1,0.6-0.2,1-0.2
					C67.6,226.5,68.1,226.6,68.4,227z"/>
				<path fill="#A7A9AC" d="M75.2,226.5v4.1c0,0.8-0.2,1.5-0.6,1.8c-0.4,0.4-1,0.6-1.9,0.6c-0.5,0-0.9-0.1-1.3-0.2
					c-0.4-0.1-0.7-0.3-1-0.5l0.4-0.7c0.2,0.2,0.5,0.3,0.8,0.5c0.3,0.1,0.7,0.2,1,0.2c0.6,0,1-0.1,1.2-0.4c0.3-0.3,0.4-0.7,0.4-1.2
					v-0.4c-0.2,0.2-0.5,0.4-0.8,0.6s-0.6,0.2-1,0.2c-0.5,0-0.9-0.1-1.2-0.3c-0.4-0.2-0.7-0.5-0.9-0.8s-0.3-0.8-0.3-1.2
					c0-0.4,0.1-0.9,0.3-1.2s0.5-0.6,0.9-0.8s0.8-0.3,1.2-0.3c0.4,0,0.7,0.1,1,0.2c0.3,0.1,0.6,0.3,0.8,0.6v-0.7H75.2z M73.5,230.1
					c0.2-0.1,0.4-0.3,0.6-0.6c0.1-0.2,0.2-0.5,0.2-0.8c0-0.5-0.2-0.8-0.5-1.1c-0.3-0.3-0.7-0.4-1.2-0.4c-0.5,0-0.9,0.1-1.2,0.4
					c-0.3,0.3-0.5,0.7-0.5,1.1c0,0.3,0.1,0.6,0.2,0.8c0.1,0.2,0.3,0.4,0.6,0.6s0.5,0.2,0.9,0.2C73,230.3,73.3,230.3,73.5,230.1z"/>
			</g>
		</g>
		<g>
			<path fill="#A7A9AC" d="M416.3,187.9h2.7c0.7,0,1.3,0.1,1.8,0.4c0.5,0.3,0.9,0.6,1.2,1.1s0.4,1,0.4,1.6s-0.1,1.2-0.4,1.6
				s-0.7,0.8-1.2,1.1s-1.1,0.4-1.8,0.4h-2.7V187.9z M418.9,193.4c0.5,0,1-0.1,1.3-0.3c0.4-0.2,0.7-0.5,0.9-0.8s0.3-0.8,0.3-1.2
				c0-0.5-0.1-0.9-0.3-1.2c-0.2-0.4-0.5-0.6-0.9-0.8c-0.4-0.2-0.8-0.3-1.3-0.3h-1.7v4.7H418.9z"/>
			<path fill="#A7A9AC" d="M427.9,192.1h-3.9c0.1,0.4,0.2,0.8,0.6,1s0.7,0.4,1.2,0.4c0.6,0,1-0.2,1.4-0.6l0.5,0.6
				c-0.2,0.3-0.5,0.4-0.8,0.6c-0.3,0.1-0.7,0.2-1.1,0.2c-0.5,0-1-0.1-1.3-0.3s-0.7-0.5-0.9-0.9c-0.2-0.4-0.3-0.8-0.3-1.3
				c0-0.5,0.1-0.9,0.3-1.3c0.2-0.4,0.5-0.7,0.9-0.9c0.4-0.2,0.8-0.3,1.2-0.3s0.9,0.1,1.2,0.3s0.6,0.5,0.8,0.9
				c0.2,0.4,0.3,0.8,0.3,1.3C427.9,191.9,427.9,192,427.9,192.1z M424.5,190.5c-0.3,0.3-0.4,0.6-0.5,1h3.1c0-0.4-0.2-0.7-0.5-1
				c-0.3-0.3-0.6-0.4-1-0.4S424.8,190.2,424.5,190.5z"/>
			<path fill="#A7A9AC" d="M429.4,194.1c-0.4-0.1-0.6-0.2-0.8-0.4l0.4-0.7c0.2,0.1,0.5,0.3,0.8,0.4c0.3,0.1,0.6,0.1,0.9,0.1
				c0.8,0,1.1-0.2,1.1-0.6c0-0.1-0.1-0.3-0.2-0.3s-0.2-0.1-0.4-0.2c-0.2,0-0.4-0.1-0.7-0.1c-0.4-0.1-0.7-0.1-0.9-0.2
				c-0.2-0.1-0.5-0.2-0.6-0.4s-0.3-0.4-0.3-0.8c0-0.4,0.2-0.8,0.5-1c0.4-0.3,0.8-0.4,1.4-0.4c0.3,0,0.6,0,1,0.1
				c0.3,0.1,0.6,0.2,0.8,0.3l-0.4,0.7c-0.4-0.3-0.8-0.4-1.4-0.4c-0.4,0-0.6,0.1-0.8,0.2s-0.3,0.3-0.3,0.5c0,0.2,0.1,0.3,0.2,0.4
				c0.1,0.1,0.2,0.2,0.4,0.2c0.2,0,0.4,0.1,0.7,0.1c0.4,0.1,0.7,0.1,0.9,0.2c0.2,0.1,0.4,0.2,0.6,0.4c0.2,0.2,0.3,0.4,0.3,0.8
				c0,0.4-0.2,0.8-0.6,1c-0.4,0.3-0.9,0.4-1.5,0.4C430.1,194.3,429.7,194.2,429.4,194.1z"/>
			<path fill="#A7A9AC" d="M433.7,188.4c-0.1-0.1-0.2-0.2-0.2-0.4c0-0.2,0.1-0.3,0.2-0.4s0.2-0.2,0.4-0.2s0.3,0.1,0.4,0.2
				s0.2,0.2,0.2,0.4c0,0.2-0.1,0.3-0.2,0.4c-0.1,0.1-0.3,0.2-0.4,0.2S433.8,188.5,433.7,188.4z M433.6,189.4h0.9v4.8h-0.9V189.4z"/>
			<path fill="#A7A9AC" d="M440.7,189.4v4.1c0,0.8-0.2,1.5-0.6,1.8c-0.4,0.4-1,0.6-1.9,0.6c-0.5,0-0.9-0.1-1.3-0.2
				c-0.4-0.1-0.7-0.3-1-0.5l0.4-0.7c0.2,0.2,0.5,0.3,0.8,0.5c0.3,0.1,0.7,0.2,1,0.2c0.6,0,1-0.1,1.2-0.4c0.3-0.3,0.4-0.7,0.4-1.2
				v-0.4c-0.2,0.2-0.5,0.4-0.8,0.6s-0.6,0.2-1,0.2c-0.5,0-0.9-0.1-1.2-0.3c-0.4-0.2-0.7-0.5-0.9-0.8c-0.2-0.4-0.3-0.8-0.3-1.2
				c0-0.4,0.1-0.9,0.3-1.2c0.2-0.4,0.5-0.6,0.9-0.8s0.8-0.3,1.2-0.3c0.4,0,0.7,0.1,1,0.2c0.3,0.1,0.6,0.3,0.8,0.6v-0.7H440.7z
				 M439.1,193.1c0.2-0.1,0.4-0.3,0.6-0.6c0.1-0.2,0.2-0.5,0.2-0.8c0-0.5-0.2-0.8-0.5-1.1c-0.3-0.3-0.7-0.4-1.2-0.4
				c-0.5,0-0.9,0.1-1.2,0.4c-0.3,0.3-0.5,0.7-0.5,1.1c0,0.3,0.1,0.6,0.2,0.8c0.1,0.2,0.3,0.4,0.6,0.6c0.2,0.1,0.5,0.2,0.8,0.2
				C438.6,193.2,438.8,193.2,439.1,193.1z"/>
			<path fill="#A7A9AC" d="M446.4,189.9c0.4,0.4,0.5,0.9,0.5,1.5v2.7H446v-2.6c0-0.5-0.1-0.8-0.3-1s-0.5-0.4-1-0.4
				c-0.5,0-0.8,0.1-1.1,0.4c-0.3,0.3-0.4,0.7-0.4,1.2v2.5h-0.9v-4.8h0.8v0.7c0.2-0.2,0.4-0.4,0.7-0.6c0.3-0.1,0.6-0.2,1-0.2
				C445.5,189.4,446,189.6,446.4,189.9z"/>
			<path fill="#A7A9AC" d="M452.8,192.1H449c0.1,0.4,0.2,0.8,0.6,1s0.7,0.4,1.2,0.4c0.6,0,1-0.2,1.4-0.6l0.5,0.6
				c-0.2,0.3-0.5,0.4-0.8,0.6c-0.3,0.1-0.7,0.2-1.1,0.2c-0.5,0-1-0.1-1.3-0.3s-0.7-0.5-0.9-0.9s-0.3-0.8-0.3-1.3
				c0-0.5,0.1-0.9,0.3-1.3c0.2-0.4,0.5-0.7,0.9-0.9s0.8-0.3,1.2-0.3s0.9,0.1,1.2,0.3c0.4,0.2,0.6,0.5,0.8,0.9
				c0.2,0.4,0.3,0.8,0.3,1.3C452.8,191.9,452.8,192,452.8,192.1z M449.4,190.5c-0.3,0.3-0.4,0.6-0.5,1h3.1c0-0.4-0.2-0.7-0.5-1
				c-0.3-0.3-0.6-0.4-1-0.4S449.7,190.2,449.4,190.5z"/>
			<path fill="#A7A9AC" d="M455.5,189.6c0.3-0.1,0.7-0.2,1.1-0.2v0.8c0,0-0.1,0-0.2,0c-0.5,0-0.8,0.1-1.1,0.4
				c-0.3,0.3-0.4,0.7-0.4,1.2v2.4H454v-4.8h0.8v0.8C455,190,455.2,189.7,455.5,189.6z"/>
			<path fill="#A7A9AC" d="M407.3,198.3v6.7h-0.8v-0.8c-0.2,0.3-0.4,0.5-0.7,0.6c-0.3,0.1-0.6,0.2-1,0.2c-0.5,0-0.9-0.1-1.2-0.3
				s-0.7-0.5-0.9-0.9c-0.2-0.4-0.3-0.8-0.3-1.3s0.1-0.9,0.3-1.3c0.2-0.4,0.5-0.7,0.9-0.9c0.4-0.2,0.8-0.3,1.2-0.3
				c0.3,0,0.7,0.1,0.9,0.2c0.3,0.1,0.5,0.3,0.7,0.6v-2.6H407.3z M405.7,204.1c0.2-0.1,0.4-0.3,0.6-0.6c0.1-0.3,0.2-0.5,0.2-0.9
				c0-0.3-0.1-0.6-0.2-0.9c-0.1-0.3-0.3-0.5-0.6-0.6c-0.2-0.1-0.5-0.2-0.8-0.2c-0.3,0-0.6,0.1-0.8,0.2c-0.2,0.1-0.4,0.3-0.6,0.6
				c-0.1,0.3-0.2,0.5-0.2,0.9c0,0.3,0.1,0.6,0.2,0.9c0.1,0.3,0.3,0.5,0.6,0.6c0.2,0.1,0.5,0.2,0.8,0.2
				C405.2,204.3,405.4,204.2,405.7,204.1z"/>
			<path fill="#A7A9AC" d="M409.7,204.7c-0.4-0.2-0.7-0.5-0.9-0.9c-0.2-0.4-0.3-0.8-0.3-1.3c0-0.5,0.1-0.9,0.3-1.3
				c0.2-0.4,0.5-0.7,0.9-0.9s0.8-0.3,1.3-0.3c0.5,0,0.9,0.1,1.3,0.3s0.7,0.5,0.9,0.9c0.2,0.4,0.3,0.8,0.3,1.3c0,0.5-0.1,0.9-0.3,1.3
				c-0.2,0.4-0.5,0.7-0.9,0.9c-0.4,0.2-0.8,0.3-1.3,0.3C410.5,205,410.1,204.9,409.7,204.7z M411.8,204.1c0.2-0.1,0.4-0.3,0.6-0.6
				c0.1-0.3,0.2-0.5,0.2-0.9c0-0.3-0.1-0.6-0.2-0.9c-0.1-0.3-0.3-0.5-0.6-0.6c-0.2-0.1-0.5-0.2-0.8-0.2c-0.3,0-0.6,0.1-0.8,0.2
				c-0.2,0.1-0.4,0.3-0.6,0.6c-0.1,0.3-0.2,0.5-0.2,0.9c0,0.3,0.1,0.6,0.2,0.9c0.1,0.3,0.3,0.5,0.6,0.6c0.2,0.1,0.5,0.2,0.8,0.2
				C411.3,204.3,411.6,204.2,411.8,204.1z"/>
			<path fill="#A7A9AC" d="M414.7,199.1c-0.1-0.1-0.2-0.2-0.2-0.4c0-0.2,0.1-0.3,0.2-0.4s0.2-0.2,0.4-0.2s0.3,0.1,0.4,0.2
				s0.2,0.2,0.2,0.4c0,0.2-0.1,0.3-0.2,0.4c-0.1,0.1-0.3,0.2-0.4,0.2S414.8,199.2,414.7,199.1z M414.7,200.2h0.9v4.8h-0.9V200.2z"/>
			<path fill="#A7A9AC" d="M421.2,200.7c0.4,0.4,0.5,0.9,0.5,1.5v2.7h-0.9v-2.6c0-0.5-0.1-0.8-0.3-1s-0.5-0.4-1-0.4
				c-0.5,0-0.8,0.1-1.1,0.4c-0.3,0.3-0.4,0.7-0.4,1.2v2.5h-0.9v-4.8h0.8v0.7c0.2-0.2,0.4-0.4,0.7-0.6c0.3-0.1,0.6-0.2,1-0.2
				C420.3,200.2,420.8,200.4,421.2,200.7z"/>
			<path fill="#A7A9AC" d="M427.9,200.2v4.1c0,0.8-0.2,1.5-0.6,1.8c-0.4,0.4-1,0.6-1.9,0.6c-0.5,0-0.9-0.1-1.3-0.2
				c-0.4-0.1-0.7-0.3-1-0.5l0.4-0.7c0.2,0.2,0.5,0.3,0.8,0.5c0.3,0.1,0.7,0.2,1,0.2c0.6,0,1-0.1,1.2-0.4c0.3-0.3,0.4-0.7,0.4-1.2
				v-0.4c-0.2,0.2-0.5,0.4-0.8,0.6s-0.6,0.2-1,0.2c-0.5,0-0.9-0.1-1.2-0.3c-0.4-0.2-0.7-0.5-0.9-0.8c-0.2-0.4-0.3-0.8-0.3-1.2
				c0-0.4,0.1-0.9,0.3-1.2c0.2-0.4,0.5-0.6,0.9-0.8s0.8-0.3,1.2-0.3c0.4,0,0.7,0.1,1,0.2c0.3,0.1,0.6,0.3,0.8,0.6v-0.7H427.9z
				 M426.3,203.8c0.2-0.1,0.4-0.3,0.6-0.6c0.1-0.2,0.2-0.5,0.2-0.8c0-0.5-0.2-0.8-0.5-1.1c-0.3-0.3-0.7-0.4-1.2-0.4
				c-0.5,0-0.9,0.1-1.2,0.4c-0.3,0.3-0.5,0.7-0.5,1.1c0,0.3,0.1,0.6,0.2,0.8c0.1,0.2,0.3,0.4,0.6,0.6c0.2,0.1,0.5,0.2,0.9,0.2
				C425.7,204,426,204,426.3,203.8z"/>
			<path fill="#A7A9AC" d="M433.5,200.4c0.3-0.1,0.7-0.2,1.1-0.2v0.8c0,0-0.1,0-0.2,0c-0.5,0-0.8,0.1-1.1,0.4
				c-0.3,0.3-0.4,0.7-0.4,1.2v2.4H432v-4.8h0.8v0.8C432.9,200.7,433.2,200.5,433.5,200.4z"/>
			<path fill="#A7A9AC" d="M439.8,202.9H436c0.1,0.4,0.2,0.8,0.6,1c0.3,0.3,0.7,0.4,1.2,0.4c0.6,0,1-0.2,1.4-0.6l0.5,0.6
				c-0.2,0.3-0.5,0.4-0.8,0.6c-0.3,0.1-0.7,0.2-1.1,0.2c-0.5,0-1-0.1-1.3-0.3c-0.4-0.2-0.7-0.5-0.9-0.9s-0.3-0.8-0.3-1.3
				c0-0.5,0.1-0.9,0.3-1.3c0.2-0.4,0.5-0.7,0.9-0.9s0.8-0.3,1.2-0.3c0.5,0,0.9,0.1,1.2,0.3c0.4,0.2,0.6,0.5,0.8,0.9
				c0.2,0.4,0.3,0.8,0.3,1.3C439.9,202.7,439.9,202.8,439.8,202.9z M436.5,201.3c-0.3,0.3-0.4,0.6-0.5,1h3.1c0-0.4-0.2-0.7-0.5-1
				c-0.3-0.3-0.6-0.4-1-0.4S436.7,201,436.5,201.3z"/>
			<path fill="#A7A9AC" d="M441.3,204.9c-0.4-0.1-0.6-0.2-0.8-0.4l0.4-0.7c0.2,0.1,0.5,0.3,0.8,0.4c0.3,0.1,0.6,0.1,0.9,0.1
				c0.8,0,1.1-0.2,1.1-0.6c0-0.1-0.1-0.3-0.2-0.3s-0.2-0.1-0.4-0.2c-0.2,0-0.4-0.1-0.7-0.1c-0.4-0.1-0.7-0.1-0.9-0.2
				c-0.2-0.1-0.5-0.2-0.6-0.4s-0.3-0.4-0.3-0.8c0-0.4,0.2-0.8,0.5-1c0.4-0.3,0.8-0.4,1.4-0.4c0.3,0,0.6,0,1,0.1
				c0.3,0.1,0.6,0.2,0.8,0.3l-0.4,0.7c-0.4-0.3-0.8-0.4-1.4-0.4c-0.4,0-0.6,0.1-0.8,0.2s-0.3,0.3-0.3,0.5c0,0.2,0.1,0.3,0.2,0.4
				c0.1,0.1,0.2,0.2,0.4,0.2c0.2,0,0.4,0.1,0.7,0.1c0.4,0.1,0.7,0.1,0.9,0.2c0.2,0.1,0.4,0.2,0.6,0.4c0.2,0.2,0.3,0.4,0.3,0.8
				c0,0.4-0.2,0.8-0.6,1c-0.4,0.3-0.9,0.4-1.5,0.4C442,205,441.7,205,441.3,204.9z"/>
			<path fill="#A7A9AC" d="M449.9,202.9H446c0.1,0.4,0.2,0.8,0.6,1s0.7,0.4,1.2,0.4c0.6,0,1-0.2,1.4-0.6l0.5,0.6
				c-0.2,0.3-0.5,0.4-0.8,0.6c-0.3,0.1-0.7,0.2-1.1,0.2c-0.5,0-1-0.1-1.3-0.3s-0.7-0.5-0.9-0.9s-0.3-0.8-0.3-1.3
				c0-0.5,0.1-0.9,0.3-1.3c0.2-0.4,0.5-0.7,0.9-0.9s0.8-0.3,1.2-0.3s0.9,0.1,1.2,0.3c0.4,0.2,0.6,0.5,0.8,0.9
				c0.2,0.4,0.3,0.8,0.3,1.3C449.9,202.7,449.9,202.8,449.9,202.9z M446.5,201.3c-0.3,0.3-0.4,0.6-0.5,1h3.1c0-0.4-0.2-0.7-0.5-1
				c-0.3-0.3-0.6-0.4-1-0.4S446.8,201,446.5,201.3z"/>
			<path fill="#A7A9AC" d="M454.2,200.7c0.4,0.3,0.5,0.8,0.5,1.4v2.9h-0.8v-0.6c-0.1,0.2-0.3,0.4-0.6,0.5c-0.3,0.1-0.6,0.2-1,0.2
				c-0.5,0-1-0.1-1.3-0.4c-0.3-0.3-0.5-0.6-0.5-1s0.2-0.8,0.5-1c0.3-0.3,0.8-0.4,1.5-0.4h1.4v-0.2c0-0.4-0.1-0.7-0.3-0.9
				c-0.2-0.2-0.5-0.3-1-0.3c-0.3,0-0.6,0-0.8,0.1c-0.3,0.1-0.5,0.2-0.7,0.4l-0.4-0.6c0.2-0.2,0.5-0.3,0.9-0.5
				c0.3-0.1,0.7-0.2,1.1-0.2C453.3,200.2,453.8,200.3,454.2,200.7z M453.3,204.2c0.2-0.1,0.4-0.4,0.5-0.6v-0.7h-1.3
				c-0.7,0-1.1,0.2-1.1,0.7c0,0.2,0.1,0.4,0.3,0.6c0.2,0.1,0.4,0.2,0.8,0.2S453.1,204.3,453.3,204.2z"/>
			<path fill="#A7A9AC" d="M457.8,200.4c0.3-0.1,0.7-0.2,1.1-0.2v0.8c0,0-0.1,0-0.2,0c-0.5,0-0.8,0.1-1.1,0.4
				c-0.3,0.3-0.4,0.7-0.4,1.2v2.4h-0.9v-4.8h0.8v0.8C457.3,200.7,457.5,200.5,457.8,200.4z"/>
			<path fill="#A7A9AC" d="M460.7,204.7c-0.4-0.2-0.7-0.5-0.9-0.9c-0.2-0.4-0.3-0.8-0.3-1.3c0-0.5,0.1-0.9,0.3-1.3
				c0.2-0.4,0.5-0.7,0.9-0.9s0.8-0.3,1.3-0.3c0.4,0,0.8,0.1,1.2,0.3c0.3,0.2,0.6,0.4,0.8,0.8l-0.7,0.4c-0.2-0.2-0.3-0.4-0.6-0.5
				c-0.2-0.1-0.5-0.2-0.7-0.2c-0.3,0-0.6,0.1-0.8,0.2c-0.2,0.1-0.4,0.3-0.6,0.6c-0.1,0.3-0.2,0.5-0.2,0.9c0,0.3,0.1,0.6,0.2,0.9
				c0.1,0.3,0.3,0.5,0.6,0.6c0.2,0.1,0.5,0.2,0.8,0.2c0.3,0,0.5-0.1,0.7-0.2c0.2-0.1,0.4-0.3,0.6-0.5l0.7,0.4
				c-0.2,0.3-0.4,0.6-0.8,0.8c-0.3,0.2-0.7,0.3-1.2,0.3C461.5,205,461.1,204.9,460.7,204.7z"/>
			<path fill="#A7A9AC" d="M469,200.7c0.4,0.4,0.5,0.9,0.5,1.5v2.7h-0.9v-2.6c0-0.5-0.1-0.8-0.3-1s-0.5-0.4-1-0.4
				c-0.5,0-0.8,0.1-1.1,0.4c-0.3,0.3-0.4,0.7-0.4,1.2v2.5H465v-6.7h0.9v2.6c0.2-0.2,0.4-0.4,0.7-0.5s0.6-0.2,1-0.2
				C468.1,200.2,468.6,200.4,469,200.7z"/>
		</g>
		<g>
			<g>
				<path fill="#A7A9AC" d="M400.6,329.5h2.7c0.7,0,1.3,0.1,1.8,0.4s0.9,0.6,1.2,1.1c0.3,0.5,0.4,1,0.4,1.6s-0.1,1.2-0.4,1.6
					c-0.3,0.5-0.7,0.8-1.2,1.1c-0.5,0.3-1.1,0.4-1.8,0.4h-2.7V329.5z M403.2,335c0.5,0,1-0.1,1.3-0.3s0.7-0.5,0.9-0.8
					c0.2-0.4,0.3-0.8,0.3-1.2s-0.1-0.9-0.3-1.2s-0.5-0.6-0.9-0.8c-0.4-0.2-0.8-0.3-1.3-0.3h-1.7v4.7H403.2z"/>
				<path fill="#A7A9AC" d="M412.2,333.7h-3.9c0.1,0.4,0.2,0.8,0.6,1s0.7,0.4,1.2,0.4c0.6,0,1-0.2,1.4-0.6l0.5,0.6
					c-0.2,0.3-0.5,0.4-0.8,0.6c-0.3,0.1-0.7,0.2-1.1,0.2c-0.5,0-1-0.1-1.3-0.3s-0.7-0.5-0.9-0.9s-0.3-0.8-0.3-1.3
					c0-0.5,0.1-0.9,0.3-1.3c0.2-0.4,0.5-0.7,0.9-0.9s0.8-0.3,1.2-0.3s0.9,0.1,1.2,0.3c0.4,0.2,0.6,0.5,0.8,0.9
					c0.2,0.4,0.3,0.8,0.3,1.3C412.3,333.5,412.3,333.6,412.2,333.7z M408.9,332.1c-0.3,0.3-0.4,0.6-0.5,1h3.1c0-0.4-0.2-0.7-0.5-1
					c-0.3-0.3-0.6-0.4-1-0.4S409.1,331.8,408.9,332.1z"/>
				<path fill="#A7A9AC" d="M413.7,335.7c-0.4-0.1-0.6-0.2-0.8-0.4l0.4-0.7c0.2,0.2,0.5,0.3,0.8,0.4c0.3,0.1,0.6,0.1,0.9,0.1
					c0.8,0,1.1-0.2,1.1-0.6c0-0.1-0.1-0.3-0.2-0.3s-0.2-0.1-0.4-0.2c-0.2,0-0.4-0.1-0.7-0.1c-0.4-0.1-0.7-0.1-0.9-0.2
					s-0.5-0.2-0.6-0.4c-0.2-0.2-0.3-0.4-0.3-0.8c0-0.4,0.2-0.8,0.5-1c0.4-0.3,0.8-0.4,1.4-0.4c0.3,0,0.6,0,1,0.1s0.6,0.2,0.8,0.3
					l-0.4,0.7c-0.4-0.3-0.8-0.4-1.4-0.4c-0.4,0-0.6,0.1-0.8,0.2c-0.2,0.1-0.3,0.3-0.3,0.5c0,0.2,0.1,0.3,0.2,0.4
					c0.1,0.1,0.2,0.2,0.4,0.2s0.4,0.1,0.7,0.1c0.4,0.1,0.7,0.1,0.9,0.2c0.2,0.1,0.4,0.2,0.6,0.4s0.3,0.4,0.3,0.8
					c0,0.4-0.2,0.8-0.6,1c-0.4,0.3-0.9,0.4-1.5,0.4C414.4,335.8,414.1,335.8,413.7,335.7z"/>
				<path fill="#A7A9AC" d="M418,329.9c-0.1-0.1-0.2-0.2-0.2-0.4s0.1-0.3,0.2-0.4c0.1-0.1,0.3-0.2,0.4-0.2s0.3,0.1,0.4,0.2
					c0.1,0.1,0.2,0.2,0.2,0.4c0,0.2-0.1,0.3-0.2,0.4s-0.2,0.2-0.4,0.2S418.1,330,418,329.9z M418,331h0.9v4.8H418V331z"/>
				<path fill="#A7A9AC" d="M425,331v4.1c0,0.8-0.2,1.5-0.6,1.8c-0.4,0.4-1,0.6-1.9,0.6c-0.5,0-0.9-0.1-1.3-0.2
					c-0.4-0.1-0.7-0.3-1-0.5l0.4-0.7c0.2,0.2,0.5,0.3,0.8,0.5c0.3,0.1,0.7,0.2,1,0.2c0.6,0,1-0.1,1.2-0.4c0.3-0.3,0.4-0.7,0.4-1.2
					v-0.4c-0.2,0.2-0.5,0.4-0.8,0.6s-0.6,0.2-1,0.2c-0.5,0-0.9-0.1-1.2-0.3c-0.4-0.2-0.7-0.5-0.9-0.8c-0.2-0.4-0.3-0.8-0.3-1.2
					c0-0.4,0.1-0.8,0.3-1.2c0.2-0.4,0.5-0.6,0.9-0.8c0.4-0.2,0.8-0.3,1.2-0.3c0.4,0,0.7,0.1,1,0.2c0.3,0.1,0.6,0.3,0.8,0.6V331H425z
					 M423.4,334.6c0.2-0.1,0.4-0.3,0.6-0.6c0.1-0.2,0.2-0.5,0.2-0.8c0-0.5-0.2-0.8-0.5-1.1s-0.7-0.4-1.2-0.4c-0.5,0-0.9,0.1-1.2,0.4
					s-0.5,0.7-0.5,1.1c0,0.3,0.1,0.6,0.2,0.8c0.1,0.2,0.3,0.4,0.6,0.6c0.2,0.1,0.5,0.2,0.9,0.2C422.9,334.8,423.1,334.7,423.4,334.6
					z"/>
				<path fill="#A7A9AC" d="M430.7,331.5c0.4,0.4,0.5,0.9,0.5,1.5v2.7h-0.9v-2.6c0-0.5-0.1-0.8-0.3-1c-0.2-0.2-0.5-0.4-1-0.4
					c-0.5,0-0.8,0.1-1.1,0.4c-0.3,0.3-0.4,0.7-0.4,1.2v2.5h-0.9V331h0.8v0.7c0.2-0.2,0.4-0.4,0.7-0.6s0.6-0.2,1-0.2
					C429.8,330.9,430.3,331.1,430.7,331.5z"/>
				<path fill="#A7A9AC" d="M437.1,333.7h-3.9c0.1,0.4,0.2,0.8,0.6,1s0.7,0.4,1.2,0.4c0.6,0,1-0.2,1.4-0.6l0.5,0.6
					c-0.2,0.3-0.5,0.4-0.8,0.6c-0.3,0.1-0.7,0.2-1.1,0.2c-0.5,0-1-0.1-1.3-0.3s-0.7-0.5-0.9-0.9c-0.2-0.4-0.3-0.8-0.3-1.3
					c0-0.5,0.1-0.9,0.3-1.3c0.2-0.4,0.5-0.7,0.9-0.9c0.4-0.2,0.8-0.3,1.2-0.3s0.9,0.1,1.2,0.3s0.6,0.5,0.8,0.9
					c0.2,0.4,0.3,0.8,0.3,1.3C437.2,333.5,437.1,333.6,437.1,333.7z M433.8,332.1c-0.3,0.3-0.4,0.6-0.5,1h3.1c0-0.4-0.2-0.7-0.5-1
					c-0.3-0.3-0.6-0.4-1-0.4S434,331.8,433.8,332.1z"/>
				<path fill="#A7A9AC" d="M439.8,331.2c0.3-0.1,0.7-0.2,1.1-0.2v0.8c0,0-0.1,0-0.2,0c-0.5,0-0.8,0.1-1.1,0.4
					c-0.3,0.3-0.4,0.7-0.4,1.2v2.4h-0.9V331h0.8v0.8C439.3,331.5,439.5,331.3,439.8,331.2z"/>
				<path fill="#A7A9AC" d="M396.2,342c0.3-0.1,0.7-0.2,1.1-0.2v0.8c0,0-0.1,0-0.2,0c-0.5,0-0.8,0.1-1.1,0.4
					c-0.3,0.3-0.4,0.7-0.4,1.2v2.4h-0.9v-4.8h0.8v0.8C395.7,342.3,395.9,342.1,396.2,342z"/>
				<path fill="#A7A9AC" d="M402.6,344.5h-3.9c0.1,0.4,0.2,0.8,0.6,1c0.3,0.3,0.7,0.4,1.2,0.4c0.6,0,1-0.2,1.4-0.6l0.5,0.6
					c-0.2,0.3-0.5,0.4-0.8,0.6c-0.3,0.1-0.7,0.2-1.1,0.2c-0.5,0-1-0.1-1.3-0.3c-0.4-0.2-0.7-0.5-0.9-0.9c-0.2-0.4-0.3-0.8-0.3-1.3
					c0-0.5,0.1-0.9,0.3-1.3s0.5-0.7,0.9-0.9c0.4-0.2,0.8-0.3,1.2-0.3c0.5,0,0.9,0.1,1.2,0.3s0.6,0.5,0.8,0.9
					c0.2,0.4,0.3,0.8,0.3,1.3C402.6,344.3,402.6,344.3,402.6,344.5z M399.2,342.8c-0.3,0.3-0.4,0.6-0.5,1h3.1c0-0.4-0.2-0.7-0.5-1
					s-0.6-0.4-1-0.4S399.5,342.6,399.2,342.8z"/>
				<path fill="#A7A9AC" d="M406.9,342.2c0.4,0.3,0.5,0.8,0.5,1.4v2.9h-0.8v-0.6c-0.1,0.2-0.3,0.4-0.6,0.5c-0.3,0.1-0.6,0.2-0.9,0.2
					c-0.5,0-1-0.1-1.3-0.4s-0.5-0.6-0.5-1s0.2-0.8,0.5-1c0.3-0.3,0.8-0.4,1.5-0.4h1.4v-0.2c0-0.4-0.1-0.7-0.3-0.9
					c-0.2-0.2-0.5-0.3-1-0.3c-0.3,0-0.6,0-0.8,0.1c-0.3,0.1-0.5,0.2-0.7,0.4l-0.4-0.6c0.2-0.2,0.5-0.3,0.9-0.5
					c0.3-0.1,0.7-0.2,1.1-0.2C406,341.7,406.5,341.9,406.9,342.2z M406,345.7c0.2-0.1,0.4-0.4,0.5-0.6v-0.7h-1.3
					c-0.7,0-1.1,0.2-1.1,0.7c0,0.2,0.1,0.4,0.3,0.6c0.2,0.1,0.4,0.2,0.8,0.2S405.8,345.9,406,345.7z"/>
				<path fill="#A7A9AC" d="M413.5,339.9v6.7h-0.8v-0.8c-0.2,0.3-0.4,0.5-0.7,0.6c-0.3,0.1-0.6,0.2-1,0.2c-0.5,0-0.9-0.1-1.2-0.3
					c-0.4-0.2-0.7-0.5-0.9-0.9s-0.3-0.8-0.3-1.3c0-0.5,0.1-0.9,0.3-1.3c0.2-0.4,0.5-0.7,0.9-0.9c0.4-0.2,0.8-0.3,1.2-0.3
					c0.3,0,0.7,0.1,0.9,0.2s0.5,0.3,0.7,0.6v-2.6H413.5z M411.9,345.6c0.2-0.1,0.4-0.3,0.6-0.6c0.1-0.3,0.2-0.5,0.2-0.9
					s-0.1-0.6-0.2-0.9c-0.1-0.3-0.3-0.5-0.6-0.6c-0.2-0.1-0.5-0.2-0.8-0.2c-0.3,0-0.6,0.1-0.8,0.2s-0.4,0.3-0.6,0.6
					c-0.1,0.3-0.2,0.5-0.2,0.9s0.1,0.6,0.2,0.9c0.1,0.3,0.3,0.5,0.6,0.6s0.5,0.2,0.8,0.2C411.4,345.8,411.7,345.8,411.9,345.6z"/>
				<path fill="#A7A9AC" d="M415.2,340.7c-0.1-0.1-0.2-0.2-0.2-0.4c0-0.2,0.1-0.3,0.2-0.4c0.1-0.1,0.2-0.2,0.4-0.2s0.3,0.1,0.4,0.2
					c0.1,0.1,0.2,0.2,0.2,0.4c0,0.2-0.1,0.3-0.2,0.4c-0.1,0.1-0.2,0.2-0.4,0.2S415.3,340.8,415.2,340.7z M415.2,341.8h0.9v4.8h-0.9
					V341.8z"/>
				<path fill="#A7A9AC" d="M421.7,342.3c0.4,0.4,0.5,0.9,0.5,1.5v2.7h-0.9v-2.6c0-0.5-0.1-0.8-0.3-1c-0.2-0.2-0.5-0.4-1-0.4
					c-0.5,0-0.8,0.1-1.1,0.4c-0.3,0.3-0.4,0.7-0.4,1.2v2.5h-0.9v-4.8h0.8v0.7c0.2-0.2,0.4-0.4,0.7-0.6c0.3-0.1,0.6-0.2,1-0.2
					C420.8,341.7,421.3,341.9,421.7,342.3z"/>
				<path fill="#A7A9AC" d="M428.4,341.8v4.1c0,0.8-0.2,1.5-0.6,1.8c-0.4,0.4-1,0.6-1.9,0.6c-0.4,0-0.9-0.1-1.3-0.2
					c-0.4-0.1-0.7-0.3-1-0.5l0.4-0.7c0.2,0.2,0.5,0.3,0.8,0.5c0.3,0.1,0.7,0.2,1,0.2c0.6,0,1-0.1,1.2-0.4c0.3-0.3,0.4-0.7,0.4-1.2
					v-0.4c-0.2,0.2-0.5,0.4-0.8,0.6s-0.6,0.2-1,0.2c-0.5,0-0.9-0.1-1.2-0.3s-0.7-0.5-0.9-0.8c-0.2-0.4-0.3-0.8-0.3-1.2
					s0.1-0.9,0.3-1.2c0.2-0.4,0.5-0.6,0.9-0.8c0.4-0.2,0.8-0.3,1.2-0.3c0.4,0,0.7,0.1,1,0.2c0.3,0.1,0.6,0.3,0.8,0.6v-0.7H428.4z
					 M426.8,345.4c0.2-0.1,0.4-0.3,0.6-0.6s0.2-0.5,0.2-0.8c0-0.5-0.2-0.8-0.5-1.1c-0.3-0.3-0.7-0.4-1.2-0.4c-0.5,0-0.9,0.1-1.2,0.4
					c-0.3,0.3-0.5,0.7-0.5,1.1c0,0.3,0.1,0.6,0.2,0.8s0.3,0.4,0.6,0.6s0.5,0.2,0.9,0.2C426.2,345.6,426.5,345.5,426.8,345.4z"/>
				<path fill="#A7A9AC" d="M435.2,346.3c-0.1,0.1-0.3,0.2-0.5,0.2c-0.2,0.1-0.4,0.1-0.6,0.1c-0.5,0-0.9-0.1-1.1-0.4
					c-0.3-0.3-0.4-0.6-0.4-1.1v-2.6h-0.8v-0.7h0.8v-1h0.9v1h1.4v0.7h-1.4v2.6c0,0.3,0.1,0.5,0.2,0.6s0.3,0.2,0.6,0.2
					c0.3,0,0.5-0.1,0.7-0.2L435.2,346.3z"/>
				<path fill="#A7A9AC" d="M440.2,342.3c0.4,0.4,0.5,0.9,0.5,1.5v2.7h-0.9v-2.6c0-0.5-0.1-0.8-0.3-1c-0.2-0.2-0.5-0.4-1-0.4
					c-0.5,0-0.8,0.1-1.1,0.4c-0.3,0.3-0.4,0.7-0.4,1.2v2.5h-0.9v-6.7h0.9v2.6c0.2-0.2,0.4-0.4,0.7-0.5s0.6-0.2,1-0.2
					C439.4,341.7,439.8,341.9,440.2,342.3z"/>
				<path fill="#A7A9AC" d="M446.7,344.5h-3.9c0.1,0.4,0.2,0.8,0.6,1s0.7,0.4,1.2,0.4c0.6,0,1-0.2,1.4-0.6l0.5,0.6
					c-0.2,0.3-0.5,0.4-0.8,0.6c-0.3,0.1-0.7,0.2-1.1,0.2c-0.5,0-1-0.1-1.3-0.3s-0.7-0.5-0.9-0.9c-0.2-0.4-0.3-0.8-0.3-1.3
					c0-0.5,0.1-0.9,0.3-1.3s0.5-0.7,0.9-0.9c0.4-0.2,0.8-0.3,1.2-0.3s0.9,0.1,1.2,0.3s0.6,0.5,0.8,0.9c0.2,0.4,0.3,0.8,0.3,1.3
					C446.7,344.3,446.7,344.3,446.7,344.5z M443.3,342.8c-0.3,0.3-0.4,0.6-0.5,1h3.1c0-0.4-0.2-0.7-0.5-1c-0.3-0.3-0.6-0.4-1-0.4
					S443.6,342.6,443.3,342.8z"/>
				<path fill="#A7A9AC" d="M406.8,352.8c0.4,0.2,0.7,0.5,0.9,0.9c0.2,0.4,0.3,0.8,0.3,1.3c0,0.5-0.1,0.9-0.3,1.3s-0.5,0.7-0.9,0.9
					c-0.4,0.2-0.8,0.3-1.2,0.3c-0.4,0-0.7-0.1-1-0.2c-0.3-0.1-0.5-0.3-0.7-0.6v0.8H403v-6.7h0.9v2.6c0.2-0.3,0.4-0.4,0.7-0.6
					s0.6-0.2,0.9-0.2C406,352.5,406.4,352.6,406.8,352.8z M406.3,356.4c0.2-0.1,0.4-0.3,0.6-0.6c0.1-0.3,0.2-0.5,0.2-0.9
					s-0.1-0.6-0.2-0.9c-0.1-0.3-0.3-0.5-0.6-0.6c-0.2-0.1-0.5-0.2-0.8-0.2c-0.3,0-0.6,0.1-0.8,0.2s-0.4,0.3-0.6,0.6
					c-0.1,0.3-0.2,0.5-0.2,0.9s0.1,0.6,0.2,0.9c0.1,0.3,0.3,0.5,0.6,0.6s0.5,0.2,0.8,0.2C405.8,356.6,406,356.6,406.3,356.4z"/>
				<path fill="#A7A9AC" d="M410.6,352.7c0.3-0.1,0.7-0.2,1.1-0.2v0.8c0,0-0.1,0-0.2,0c-0.5,0-0.8,0.1-1.1,0.4s-0.4,0.7-0.4,1.2v2.4
					h-0.9v-4.8h0.8v0.8C410.1,353.1,410.3,352.9,410.6,352.7z"/>
				<path fill="#A7A9AC" d="M412.8,351.5c-0.1-0.1-0.2-0.2-0.2-0.4c0-0.2,0.1-0.3,0.2-0.4c0.1-0.1,0.3-0.2,0.4-0.2s0.3,0.1,0.4,0.2
					c0.1,0.1,0.2,0.2,0.2,0.4c0,0.2-0.1,0.3-0.2,0.4c-0.1,0.1-0.3,0.2-0.4,0.2S412.9,351.6,412.8,351.5z M412.8,352.6h0.9v4.8h-0.9
					V352.6z"/>
				<path fill="#A7A9AC" d="M419.6,355.2h-3.9c0.1,0.4,0.2,0.8,0.6,1c0.3,0.3,0.7,0.4,1.2,0.4c0.6,0,1-0.2,1.4-0.6l0.5,0.6
					c-0.2,0.3-0.5,0.4-0.8,0.6c-0.3,0.1-0.7,0.2-1.1,0.2c-0.5,0-1-0.1-1.3-0.3c-0.4-0.2-0.7-0.5-0.9-0.9c-0.2-0.4-0.3-0.8-0.3-1.3
					c0-0.5,0.1-0.9,0.3-1.3s0.5-0.7,0.9-0.9c0.4-0.2,0.8-0.3,1.2-0.3c0.5,0,0.9,0.1,1.2,0.3s0.6,0.5,0.8,0.9
					c0.2,0.4,0.3,0.8,0.3,1.3C419.6,355,419.6,355.1,419.6,355.2z M416.2,353.6c-0.3,0.3-0.4,0.6-0.5,1h3.1c0-0.4-0.2-0.7-0.5-1
					s-0.6-0.4-1-0.4S416.5,353.4,416.2,353.6z"/>
				<path fill="#A7A9AC" d="M421.8,352.2v0.4h1.4v0.7h-1.4v4.1h-0.9v-4.1h-0.8v-0.7h0.8v-0.4c0-0.5,0.1-0.8,0.4-1.1
					c0.3-0.3,0.7-0.4,1.2-0.4c0.2,0,0.4,0,0.5,0.1c0.2,0,0.3,0.1,0.4,0.2l-0.3,0.7c-0.2-0.1-0.4-0.2-0.7-0.2
					C422,351.3,421.8,351.6,421.8,352.2z M424.7,351.5c-0.1-0.1-0.2-0.2-0.2-0.4c0-0.2,0.1-0.3,0.2-0.4c0.1-0.1,0.2-0.2,0.4-0.2
					s0.3,0.1,0.4,0.2c0.1,0.1,0.2,0.2,0.2,0.4c0,0.2-0.1,0.3-0.2,0.4c-0.1,0.1-0.3,0.2-0.4,0.2S424.8,351.6,424.7,351.5z
					 M424.7,352.6h0.9v4.8h-0.9V352.6z"/>
				<path fill="#A7A9AC" d="M431.2,353c0.4,0.4,0.5,0.9,0.5,1.5v2.7h-0.9v-2.6c0-0.5-0.1-0.8-0.3-1c-0.2-0.2-0.5-0.4-1-0.4
					c-0.5,0-0.8,0.1-1.1,0.4c-0.3,0.3-0.4,0.7-0.4,1.2v2.5h-0.9v-4.8h0.8v0.7c0.2-0.2,0.4-0.4,0.7-0.6c0.3-0.1,0.6-0.2,1-0.2
					C430.3,352.5,430.8,352.7,431.2,353z"/>
				<path fill="#A7A9AC" d="M437.9,352.6v4.1c0,0.8-0.2,1.5-0.6,1.8c-0.4,0.4-1,0.6-1.9,0.6c-0.5,0-0.9-0.1-1.3-0.2
					c-0.4-0.1-0.7-0.3-1-0.5l0.4-0.7c0.2,0.2,0.5,0.3,0.8,0.5c0.3,0.1,0.7,0.2,1,0.2c0.6,0,1-0.1,1.2-0.4c0.3-0.3,0.4-0.7,0.4-1.2
					v-0.4c-0.2,0.2-0.5,0.4-0.8,0.6s-0.6,0.2-1,0.2c-0.5,0-0.9-0.1-1.2-0.3s-0.7-0.5-0.9-0.8c-0.2-0.4-0.3-0.8-0.3-1.2
					s0.1-0.9,0.3-1.2c0.2-0.4,0.5-0.6,0.9-0.8c0.4-0.2,0.8-0.3,1.2-0.3c0.4,0,0.7,0.1,1,0.2c0.3,0.1,0.6,0.3,0.8,0.6v-0.7H437.9z
					 M436.3,356.2c0.2-0.1,0.4-0.3,0.6-0.6c0.1-0.2,0.2-0.5,0.2-0.8c0-0.5-0.2-0.8-0.5-1.1c-0.3-0.3-0.7-0.4-1.2-0.4
					c-0.5,0-0.9,0.1-1.2,0.4c-0.3,0.3-0.5,0.7-0.5,1.1c0,0.3,0.1,0.6,0.2,0.8s0.3,0.4,0.6,0.6s0.5,0.2,0.9,0.2
					C435.7,356.4,436,356.3,436.3,356.2z"/>
			</g>
		</g>
		<g>
			<g>
				<path fill="#A7A9AC" d="M291.1,416.5h2.7c0.7,0,1.3,0.1,1.8,0.4c0.5,0.3,0.9,0.6,1.2,1.1c0.3,0.5,0.4,1,0.4,1.6
					s-0.1,1.2-0.4,1.6c-0.3,0.5-0.7,0.8-1.2,1.1c-0.5,0.3-1.1,0.4-1.8,0.4h-2.7V416.5z M293.7,422.1c0.5,0,1-0.1,1.3-0.3
					s0.7-0.5,0.9-0.8c0.2-0.4,0.3-0.8,0.3-1.2s-0.1-0.9-0.3-1.2c-0.2-0.4-0.5-0.6-0.9-0.8c-0.4-0.2-0.8-0.3-1.3-0.3H292v4.7H293.7z"
					/>
				<path fill="#A7A9AC" d="M302.7,420.7h-3.9c0.1,0.4,0.2,0.8,0.6,1c0.3,0.3,0.7,0.4,1.2,0.4c0.6,0,1-0.2,1.4-0.6l0.5,0.6
					c-0.2,0.3-0.5,0.4-0.8,0.6c-0.3,0.1-0.7,0.2-1.1,0.2c-0.5,0-1-0.1-1.3-0.3c-0.4-0.2-0.7-0.5-0.9-0.9s-0.3-0.8-0.3-1.3
					c0-0.5,0.1-0.9,0.3-1.3c0.2-0.4,0.5-0.7,0.9-0.9s0.8-0.3,1.2-0.3c0.5,0,0.9,0.1,1.2,0.3c0.4,0.2,0.6,0.5,0.8,0.9
					c0.2,0.4,0.3,0.8,0.3,1.3C302.7,420.5,302.7,420.6,302.7,420.7z M299.3,419.1c-0.3,0.3-0.4,0.6-0.5,1h3.1c0-0.4-0.2-0.7-0.5-1
					c-0.3-0.3-0.6-0.4-1-0.4S299.6,418.9,299.3,419.1z"/>
				<path fill="#A7A9AC" d="M304.1,422.7c-0.4-0.1-0.6-0.2-0.8-0.4l0.4-0.7c0.2,0.2,0.5,0.3,0.8,0.4s0.6,0.1,0.9,0.1
					c0.8,0,1.1-0.2,1.1-0.6c0-0.1-0.1-0.3-0.2-0.3c-0.1-0.1-0.2-0.1-0.4-0.2c-0.2,0-0.4-0.1-0.7-0.1c-0.4-0.1-0.7-0.1-0.9-0.2
					c-0.2-0.1-0.5-0.2-0.6-0.4c-0.2-0.2-0.3-0.4-0.3-0.8c0-0.4,0.2-0.8,0.5-1s0.8-0.4,1.4-0.4c0.3,0,0.6,0,1,0.1
					c0.3,0.1,0.6,0.2,0.8,0.3l-0.4,0.7c-0.4-0.3-0.8-0.4-1.4-0.4c-0.4,0-0.6,0.1-0.8,0.2c-0.2,0.1-0.3,0.3-0.3,0.5
					c0,0.2,0.1,0.3,0.2,0.4c0.1,0.1,0.2,0.2,0.4,0.2c0.2,0,0.4,0.1,0.7,0.1c0.4,0.1,0.7,0.1,0.9,0.2c0.2,0.1,0.4,0.2,0.6,0.4
					s0.3,0.4,0.3,0.8c0,0.4-0.2,0.8-0.6,1c-0.4,0.3-0.9,0.4-1.5,0.4C304.9,422.9,304.5,422.8,304.1,422.7z"/>
				<path fill="#A7A9AC" d="M308.4,417c-0.1-0.1-0.2-0.2-0.2-0.4s0.1-0.3,0.2-0.4c0.1-0.1,0.2-0.2,0.4-0.2s0.3,0.1,0.4,0.2
					c0.1,0.1,0.2,0.2,0.2,0.4c0,0.2-0.1,0.3-0.2,0.4c-0.1,0.1-0.2,0.2-0.4,0.2S308.5,417.1,308.4,417z M308.4,418.1h0.9v4.8h-0.9
					V418.1z"/>
				<path fill="#A7A9AC" d="M315.5,418.1v4.1c0,0.8-0.2,1.5-0.6,1.8s-1,0.6-1.9,0.6c-0.5,0-0.9-0.1-1.3-0.2c-0.4-0.1-0.7-0.3-1-0.5
					l0.4-0.7c0.2,0.2,0.5,0.3,0.8,0.5c0.3,0.1,0.7,0.2,1,0.2c0.6,0,1-0.1,1.2-0.4c0.3-0.3,0.4-0.7,0.4-1.2v-0.4
					c-0.2,0.2-0.5,0.4-0.8,0.6s-0.6,0.2-1,0.2c-0.5,0-0.9-0.1-1.2-0.3c-0.4-0.2-0.7-0.5-0.9-0.8c-0.2-0.4-0.3-0.8-0.3-1.2
					c0-0.4,0.1-0.8,0.3-1.2c0.2-0.4,0.5-0.6,0.9-0.8c0.4-0.2,0.8-0.3,1.2-0.3c0.4,0,0.7,0.1,1,0.2s0.6,0.3,0.8,0.6v-0.7H315.5z
					 M313.8,421.7c0.2-0.1,0.4-0.3,0.6-0.6c0.1-0.2,0.2-0.5,0.2-0.8c0-0.5-0.2-0.8-0.5-1.1c-0.3-0.3-0.7-0.4-1.2-0.4
					c-0.5,0-0.9,0.1-1.2,0.4c-0.3,0.3-0.5,0.7-0.5,1.1c0,0.3,0.1,0.6,0.2,0.8c0.1,0.2,0.3,0.4,0.6,0.6s0.5,0.2,0.9,0.2
					C313.3,421.9,313.6,421.8,313.8,421.7z"/>
				<path fill="#A7A9AC" d="M321.1,418.5c0.4,0.4,0.5,0.9,0.5,1.5v2.7h-0.9v-2.6c0-0.5-0.1-0.8-0.3-1c-0.2-0.2-0.5-0.4-1-0.4
					c-0.5,0-0.8,0.1-1.1,0.4c-0.3,0.3-0.4,0.7-0.4,1.2v2.5h-0.9v-4.8h0.8v0.7c0.2-0.2,0.4-0.4,0.7-0.6s0.6-0.2,1-0.2
					C320.3,418,320.8,418.2,321.1,418.5z"/>
				<path fill="#A7A9AC" d="M327.6,420.7h-3.9c0.1,0.4,0.2,0.8,0.6,1c0.3,0.3,0.7,0.4,1.2,0.4c0.6,0,1-0.2,1.4-0.6l0.5,0.6
					c-0.2,0.3-0.5,0.4-0.8,0.6c-0.3,0.1-0.7,0.2-1.1,0.2c-0.5,0-1-0.1-1.3-0.3c-0.4-0.2-0.7-0.5-0.9-0.9c-0.2-0.4-0.3-0.8-0.3-1.3
					c0-0.5,0.1-0.9,0.3-1.3c0.2-0.4,0.5-0.7,0.9-0.9c0.4-0.2,0.8-0.3,1.2-0.3c0.5,0,0.9,0.1,1.2,0.3s0.6,0.5,0.8,0.9
					c0.2,0.4,0.3,0.8,0.3,1.3C327.6,420.5,327.6,420.6,327.6,420.7z M324.2,419.1c-0.3,0.3-0.4,0.6-0.5,1h3.1c0-0.4-0.2-0.7-0.5-1
					c-0.3-0.3-0.6-0.4-1-0.4S324.5,418.9,324.2,419.1z"/>
				<path fill="#A7A9AC" d="M330.3,418.2c0.3-0.1,0.7-0.2,1.1-0.2v0.8c0,0-0.1,0-0.2,0c-0.5,0-0.8,0.1-1.1,0.4
					c-0.3,0.3-0.4,0.7-0.4,1.2v2.4h-0.9v-4.8h0.8v0.8C329.8,418.6,330,418.4,330.3,418.2z"/>
				<path fill="#A7A9AC" d="M281,429.3c0.4,0.4,0.5,0.9,0.5,1.5v2.7h-0.9V431c0-0.5-0.1-0.8-0.3-1c-0.2-0.2-0.5-0.4-1-0.4
					c-0.5,0-0.8,0.1-1.1,0.4c-0.3,0.3-0.4,0.7-0.4,1.2v2.5h-0.9v-6.7h0.9v2.6c0.2-0.2,0.4-0.4,0.7-0.5s0.6-0.2,1-0.2
					C280.2,428.8,280.7,429,281,429.3z"/>
				<path fill="#A7A9AC" d="M286.4,429.3c0.4,0.3,0.5,0.8,0.5,1.4v2.9h-0.8V433c-0.1,0.2-0.3,0.4-0.6,0.5c-0.3,0.1-0.6,0.2-0.9,0.2
					c-0.5,0-1-0.1-1.3-0.4s-0.5-0.6-0.5-1s0.2-0.8,0.5-1c0.3-0.3,0.8-0.4,1.5-0.4h1.4v-0.2c0-0.4-0.1-0.7-0.3-0.9
					c-0.2-0.2-0.5-0.3-1-0.3c-0.3,0-0.6,0-0.8,0.1c-0.3,0.1-0.5,0.2-0.7,0.4l-0.4-0.6c0.2-0.2,0.5-0.3,0.9-0.5
					c0.3-0.1,0.7-0.2,1.1-0.2C285.6,428.8,286.1,429,286.4,429.3z M285.6,432.8c0.2-0.1,0.4-0.4,0.5-0.6v-0.7h-1.3
					c-0.7,0-1.1,0.2-1.1,0.7c0,0.2,0.1,0.4,0.3,0.6c0.2,0.1,0.4,0.2,0.8,0.2S285.3,432.9,285.6,432.8z"/>
				<path fill="#A7A9AC" d="M292.7,428.9l-2.1,4.8h-0.9l-2.1-4.8h0.9l1.6,3.8l1.7-3.8H292.7z"/>
				<path fill="#A7A9AC" d="M293.5,427.8c-0.1-0.1-0.2-0.2-0.2-0.4c0-0.2,0.1-0.3,0.2-0.4c0.1-0.1,0.2-0.2,0.4-0.2s0.3,0.1,0.4,0.2
					c0.1,0.1,0.2,0.2,0.2,0.4c0,0.2-0.1,0.3-0.2,0.4c-0.1,0.1-0.3,0.2-0.4,0.2S293.6,427.9,293.5,427.8z M293.5,428.9h0.9v4.8h-0.9
					V428.9z"/>
				<path fill="#A7A9AC" d="M300,429.3c0.4,0.4,0.5,0.9,0.5,1.5v2.7h-0.9V431c0-0.5-0.1-0.8-0.3-1c-0.2-0.2-0.5-0.4-1-0.4
					c-0.5,0-0.8,0.1-1.1,0.4c-0.3,0.3-0.4,0.7-0.4,1.2v2.5H296v-4.8h0.8v0.7c0.2-0.2,0.4-0.4,0.7-0.6c0.3-0.1,0.6-0.2,1-0.2
					C299.2,428.8,299.6,429,300,429.3z"/>
				<path fill="#A7A9AC" d="M306.7,428.9v4.1c0,0.8-0.2,1.5-0.6,1.8c-0.4,0.4-1,0.6-1.9,0.6c-0.5,0-0.9-0.1-1.3-0.2
					c-0.4-0.1-0.7-0.3-1-0.5l0.4-0.7c0.2,0.2,0.5,0.3,0.8,0.5c0.3,0.1,0.7,0.2,1,0.2c0.6,0,1-0.1,1.2-0.4c0.3-0.3,0.4-0.7,0.4-1.2
					v-0.4c-0.2,0.2-0.5,0.4-0.8,0.6s-0.6,0.2-1,0.2c-0.5,0-0.9-0.1-1.2-0.3s-0.7-0.5-0.9-0.8c-0.2-0.4-0.3-0.8-0.3-1.2
					s0.1-0.9,0.3-1.2c0.2-0.4,0.5-0.6,0.9-0.8c0.4-0.2,0.8-0.3,1.2-0.3c0.4,0,0.7,0.1,1,0.2c0.3,0.1,0.6,0.3,0.8,0.6v-0.7H306.7z
					 M305.1,432.5c0.2-0.1,0.4-0.3,0.6-0.6c0.1-0.2,0.2-0.5,0.2-0.8c0-0.5-0.2-0.8-0.5-1.1c-0.3-0.3-0.7-0.4-1.2-0.4
					c-0.5,0-0.9,0.1-1.2,0.4c-0.3,0.3-0.5,0.7-0.5,1.1c0,0.3,0.1,0.6,0.2,0.8s0.3,0.4,0.6,0.6s0.5,0.2,0.9,0.2
					C304.6,432.7,304.8,432.6,305.1,432.5z"/>
				<path fill="#A7A9AC" d="M314.1,429.3c0.4,0.3,0.5,0.8,0.5,1.4v2.9h-0.8V433c-0.1,0.2-0.3,0.4-0.6,0.5c-0.3,0.1-0.6,0.2-0.9,0.2
					c-0.5,0-1-0.1-1.3-0.4c-0.3-0.3-0.5-0.6-0.5-1s0.2-0.8,0.5-1c0.3-0.3,0.8-0.4,1.5-0.4h1.4v-0.2c0-0.4-0.1-0.7-0.3-0.9
					c-0.2-0.2-0.5-0.3-1-0.3c-0.3,0-0.6,0-0.8,0.1c-0.3,0.1-0.5,0.2-0.7,0.4l-0.4-0.6c0.2-0.2,0.5-0.3,0.9-0.5
					c0.3-0.1,0.7-0.2,1.1-0.2C313.2,428.8,313.7,429,314.1,429.3z M313.2,432.8c0.2-0.1,0.4-0.4,0.5-0.6v-0.7h-1.3
					c-0.7,0-1.1,0.2-1.1,0.7c0,0.2,0.1,0.4,0.3,0.6c0.2,0.1,0.4,0.2,0.8,0.2S313,432.9,313.2,432.8z"/>
				<path fill="#A7A9AC" d="M322,430.3c0.4,0.3,0.6,0.8,0.6,1.4c0,0.4-0.1,0.7-0.3,1c-0.2,0.3-0.4,0.5-0.8,0.7s-0.8,0.3-1.3,0.3
					c-0.4,0-0.9-0.1-1.3-0.2c-0.4-0.1-0.8-0.3-1-0.6l0.4-0.7c0.2,0.2,0.5,0.4,0.8,0.5s0.7,0.2,1.1,0.2c0.5,0,0.8-0.1,1.1-0.3
					c0.3-0.2,0.4-0.5,0.4-0.8c0-0.4-0.1-0.7-0.4-0.9c-0.3-0.2-0.8-0.3-1.5-0.3h-1.4l0.3-3.3h3.6v0.8h-2.8l-0.2,1.7h0.7
					C320.9,429.8,321.6,430,322,430.3z"/>
				<path fill="#A7A9AC" d="M333.6,429.3c0.4,0.3,0.5,0.9,0.5,1.5v2.7h-0.9V431c0-0.5-0.1-0.8-0.3-1c-0.2-0.2-0.5-0.4-0.9-0.4
					c-0.4,0-0.8,0.1-1,0.4c-0.3,0.3-0.4,0.7-0.4,1.2v2.5h-0.9V431c0-0.5-0.1-0.8-0.3-1c-0.2-0.2-0.5-0.4-0.9-0.4
					c-0.4,0-0.8,0.1-1,0.4c-0.3,0.3-0.4,0.7-0.4,1.2v2.5h-0.9v-4.8h0.8v0.7c0.2-0.2,0.4-0.4,0.7-0.6c0.3-0.1,0.6-0.2,1-0.2
					c0.4,0,0.7,0.1,1,0.2c0.3,0.2,0.5,0.4,0.7,0.7c0.2-0.3,0.4-0.5,0.8-0.6c0.3-0.2,0.7-0.2,1.1-0.2
					C332.8,428.8,333.2,429,333.6,429.3z"/>
				<path fill="#A7A9AC" d="M335.7,427.8c-0.1-0.1-0.2-0.2-0.2-0.4c0-0.2,0.1-0.3,0.2-0.4c0.1-0.1,0.2-0.2,0.4-0.2s0.3,0.1,0.4,0.2
					c0.1,0.1,0.2,0.2,0.2,0.4c0,0.2-0.1,0.3-0.2,0.4c-0.1,0.1-0.2,0.2-0.4,0.2S335.8,427.9,335.7,427.8z M335.7,428.9h0.9v4.8h-0.9
					V428.9z"/>
				<path fill="#A7A9AC" d="M342.2,429.3c0.4,0.4,0.5,0.9,0.5,1.5v2.7h-0.9V431c0-0.5-0.1-0.8-0.3-1c-0.2-0.2-0.5-0.4-1-0.4
					c-0.5,0-0.8,0.1-1.1,0.4c-0.3,0.3-0.4,0.7-0.4,1.2v2.5h-0.9v-4.8h0.8v0.7c0.2-0.2,0.4-0.4,0.7-0.6c0.3-0.1,0.6-0.2,1-0.2
					C341.4,428.8,341.8,429,342.2,429.3z"/>
				<path fill="#A7A9AC" d="M344.1,433.5c-0.1-0.1-0.2-0.3-0.2-0.4c0-0.2,0.1-0.3,0.2-0.4c0.1-0.1,0.3-0.2,0.4-0.2s0.3,0.1,0.4,0.2
					c0.1,0.1,0.2,0.3,0.2,0.4c0,0.2-0.1,0.3-0.2,0.4c-0.1,0.1-0.3,0.2-0.4,0.2C344.4,433.7,344.2,433.6,344.1,433.5z"/>
				<path fill="#A7A9AC" d="M284.2,444.2c-0.4-0.2-0.7-0.5-0.9-0.9c-0.2-0.4-0.3-0.8-0.3-1.3s0.1-0.9,0.3-1.3
					c0.2-0.4,0.5-0.7,0.9-0.9s0.8-0.3,1.3-0.3c0.4,0,0.8,0.1,1.2,0.3c0.3,0.2,0.6,0.4,0.8,0.8l-0.7,0.4c-0.2-0.2-0.3-0.4-0.6-0.5
					c-0.2-0.1-0.5-0.2-0.7-0.2c-0.3,0-0.6,0.1-0.8,0.2s-0.4,0.3-0.6,0.6c-0.1,0.3-0.2,0.5-0.2,0.9c0,0.3,0.1,0.6,0.2,0.9
					s0.3,0.5,0.6,0.6c0.2,0.1,0.5,0.2,0.8,0.2c0.3,0,0.5-0.1,0.7-0.2c0.2-0.1,0.4-0.3,0.6-0.5l0.7,0.4c-0.2,0.3-0.4,0.6-0.8,0.8
					c-0.3,0.2-0.7,0.3-1.2,0.3C285.1,444.5,284.6,444.4,284.2,444.2z"/>
				<path fill="#A7A9AC" d="M289.3,444.2c-0.4-0.2-0.7-0.5-0.9-0.9c-0.2-0.4-0.3-0.8-0.3-1.3s0.1-0.9,0.3-1.3
					c0.2-0.4,0.5-0.7,0.9-0.9s0.8-0.3,1.3-0.3c0.5,0,0.9,0.1,1.3,0.3s0.7,0.5,0.9,0.9c0.2,0.4,0.3,0.8,0.3,1.3s-0.1,0.9-0.3,1.3
					c-0.2,0.4-0.5,0.7-0.9,0.9s-0.8,0.3-1.3,0.3C290.1,444.5,289.7,444.4,289.3,444.2z M291.4,443.5c0.2-0.1,0.4-0.3,0.6-0.6
					c0.1-0.3,0.2-0.5,0.2-0.9s-0.1-0.6-0.2-0.9c-0.1-0.3-0.3-0.5-0.6-0.6s-0.5-0.2-0.8-0.2c-0.3,0-0.6,0.1-0.8,0.2
					c-0.2,0.1-0.4,0.3-0.6,0.6c-0.1,0.3-0.2,0.5-0.2,0.9s0.1,0.6,0.2,0.9c0.1,0.3,0.3,0.5,0.6,0.6c0.2,0.1,0.5,0.2,0.8,0.2
					C290.9,443.7,291.1,443.6,291.4,443.5z"/>
				<path fill="#A7A9AC" d="M295.2,439.2v0.4h1.4v0.7h-1.4v4.1h-0.9v-4.1h-0.8v-0.7h0.8v-0.4c0-0.5,0.1-0.8,0.4-1.1
					c0.3-0.3,0.7-0.4,1.2-0.4c0.2,0,0.4,0,0.5,0.1c0.2,0,0.3,0.1,0.4,0.2l-0.3,0.7c-0.2-0.1-0.4-0.2-0.7-0.2
					C295.5,438.4,295.2,438.7,295.2,439.2z"/>
				<path fill="#A7A9AC" d="M298.4,439.2v0.4h1.4v0.7h-1.4v4.1h-0.9v-4.1h-0.8v-0.7h0.8v-0.4c0-0.5,0.1-0.8,0.4-1.1
					c0.3-0.3,0.7-0.4,1.2-0.4c0.2,0,0.4,0,0.5,0.1c0.2,0,0.3,0.1,0.4,0.2l-0.3,0.7c-0.2-0.1-0.4-0.2-0.7-0.2
					C298.6,438.4,298.4,438.7,298.4,439.2z"/>
				<path fill="#A7A9AC" d="M304.8,442.3h-3.9c0.1,0.4,0.2,0.8,0.6,1c0.3,0.3,0.7,0.4,1.2,0.4c0.6,0,1-0.2,1.4-0.6l0.5,0.6
					c-0.2,0.3-0.5,0.4-0.8,0.6s-0.7,0.2-1.1,0.2c-0.5,0-1-0.1-1.3-0.3c-0.4-0.2-0.7-0.5-0.9-0.9s-0.3-0.8-0.3-1.3
					c0-0.5,0.1-0.9,0.3-1.3s0.5-0.7,0.9-0.9s0.8-0.3,1.2-0.3c0.5,0,0.9,0.1,1.2,0.3c0.4,0.2,0.6,0.5,0.8,0.9s0.3,0.8,0.3,1.3
					C304.8,442.1,304.8,442.2,304.8,442.3z M301.4,440.7c-0.3,0.3-0.4,0.6-0.5,1h3.1c0-0.4-0.2-0.7-0.5-1s-0.6-0.4-1-0.4
					S301.7,440.5,301.4,440.7z"/>
				<path fill="#A7A9AC" d="M310.3,442.3h-3.9c0.1,0.4,0.2,0.8,0.6,1c0.3,0.3,0.7,0.4,1.2,0.4c0.6,0,1-0.2,1.4-0.6l0.5,0.6
					c-0.2,0.3-0.5,0.4-0.8,0.6s-0.7,0.2-1.1,0.2c-0.5,0-1-0.1-1.3-0.3c-0.4-0.2-0.7-0.5-0.9-0.9s-0.3-0.8-0.3-1.3
					c0-0.5,0.1-0.9,0.3-1.3s0.5-0.7,0.9-0.9s0.8-0.3,1.2-0.3c0.5,0,0.9,0.1,1.2,0.3c0.4,0.2,0.6,0.5,0.8,0.9s0.3,0.8,0.3,1.3
					C310.3,442.1,310.3,442.2,310.3,442.3z M306.9,440.7c-0.3,0.3-0.4,0.6-0.5,1h3.1c0-0.4-0.2-0.7-0.5-1s-0.6-0.4-1-0.4
					S307.2,440.5,306.9,440.7z"/>
				<path fill="#A7A9AC" d="M317.7,439.9c0.4,0.2,0.7,0.5,0.9,0.9c0.2,0.4,0.3,0.8,0.3,1.3c0,0.5-0.1,0.9-0.3,1.3s-0.5,0.7-0.9,0.9
					c-0.4,0.2-0.8,0.3-1.2,0.3c-0.4,0-0.7-0.1-1-0.2c-0.3-0.1-0.5-0.3-0.7-0.6v0.8H314v-6.7h0.9v2.6c0.2-0.3,0.4-0.4,0.7-0.6
					c0.3-0.1,0.6-0.2,0.9-0.2C317,439.6,317.4,439.7,317.7,439.9z M317.2,443.5c0.2-0.1,0.4-0.3,0.6-0.6c0.1-0.3,0.2-0.5,0.2-0.9
					s-0.1-0.6-0.2-0.9c-0.1-0.3-0.3-0.5-0.6-0.6c-0.2-0.1-0.5-0.2-0.8-0.2c-0.3,0-0.6,0.1-0.8,0.2s-0.4,0.3-0.6,0.6
					c-0.1,0.3-0.2,0.5-0.2,0.9s0.1,0.6,0.2,0.9c0.1,0.3,0.3,0.5,0.6,0.6s0.5,0.2,0.8,0.2C316.7,443.7,317,443.6,317.2,443.5z"/>
				<path fill="#A7A9AC" d="M321.6,439.8c0.3-0.1,0.7-0.2,1.1-0.2v0.8c0,0-0.1,0-0.2,0c-0.5,0-0.8,0.1-1.1,0.4s-0.4,0.7-0.4,1.2v2.4
					h-0.9v-4.8h0.8v0.8C321.1,440.2,321.3,440,321.6,439.8z"/>
				<path fill="#A7A9AC" d="M328,442.3h-3.9c0.1,0.4,0.2,0.8,0.6,1s0.7,0.4,1.2,0.4c0.6,0,1-0.2,1.4-0.6l0.5,0.6
					c-0.2,0.3-0.5,0.4-0.8,0.6c-0.3,0.1-0.7,0.2-1.1,0.2c-0.5,0-1-0.1-1.3-0.3s-0.7-0.5-0.9-0.9c-0.2-0.4-0.3-0.8-0.3-1.3
					c0-0.5,0.1-0.9,0.3-1.3s0.5-0.7,0.9-0.9c0.4-0.2,0.8-0.3,1.2-0.3s0.9,0.1,1.2,0.3s0.6,0.5,0.8,0.9c0.2,0.4,0.3,0.8,0.3,1.3
					C328,442.1,328,442.2,328,442.3z M324.6,440.7c-0.3,0.3-0.4,0.6-0.5,1h3.1c0-0.4-0.2-0.7-0.5-1c-0.3-0.3-0.6-0.4-1-0.4
					S324.9,440.5,324.6,440.7z"/>
				<path fill="#A7A9AC" d="M332.3,440.1c0.4,0.3,0.5,0.8,0.5,1.4v2.9H332v-0.6c-0.1,0.2-0.3,0.4-0.6,0.5c-0.3,0.1-0.6,0.2-0.9,0.2
					c-0.5,0-1-0.1-1.3-0.4c-0.3-0.3-0.5-0.6-0.5-1s0.2-0.8,0.5-1c0.3-0.3,0.8-0.4,1.5-0.4h1.4v-0.2c0-0.4-0.1-0.7-0.3-0.9
					c-0.2-0.2-0.5-0.3-1-0.3c-0.3,0-0.6,0-0.8,0.1c-0.3,0.1-0.5,0.2-0.7,0.4l-0.4-0.6c0.2-0.2,0.5-0.3,0.9-0.5
					c0.3-0.1,0.7-0.2,1.1-0.2C331.5,439.6,332,439.8,332.3,440.1z M331.4,443.6c0.2-0.1,0.4-0.4,0.5-0.6v-0.7h-1.3
					c-0.7,0-1.1,0.2-1.1,0.7c0,0.2,0.1,0.4,0.3,0.6c0.2,0.1,0.4,0.2,0.8,0.2S331.2,443.7,331.4,443.6z"/>
				<path fill="#A7A9AC" d="M336.3,442.2l-1,0.9v1.3h-0.9v-6.7h0.9v4.3l2.6-2.4h1l-2,2l2.2,2.8h-1.1L336.3,442.2z"/>
			</g>
		</g>
	</g>
</g>
<g>
	<path fill="#A7A9AC" d="M141.4,120.2c-0.8-0.6-1.8-1.1-2.9-1.5l-1.6-0.6l0.6-1.5l1.5,0.6c1.2,0.5,2.3,1,3.2,1.7L141.4,120.2z"/>
	<path fill="#A7A9AC" d="M133.1,116.5c-1.8-0.8-3.3-1.5-4.7-2.3l0.8-1.4c1.3,0.8,2.8,1.5,4.5,2.2L133.1,116.5z"/>
	<path fill="#A7A9AC" d="M124.9,111.9c-1.6-1.2-2.9-2.5-3.8-3.7l1.3-1c0.8,1.2,2,2.3,3.5,3.4L124.9,111.9z"/>
	<path fill="#A7A9AC" d="M119.3,104.1c-0.1-0.5-0.1-1.1-0.1-1.6c0-1.3,0.3-2.6,0.8-3.9l1.5,0.6c-0.5,1.1-0.7,2.2-0.7,3.2
		c0,0.4,0,0.9,0.1,1.3L119.3,104.1z"/>
	<path fill="#A7A9AC" d="M123.4,96l-1.3-1c1-1.2,2.2-2.5,3.6-3.8l1.1,1.2C125.5,93.6,124.4,94.8,123.4,96z"/>
	<path fill="#A7A9AC" d="M130,89.8l-1-1.3c1.3-1,2.7-2,4.3-2.9l0.9,1.4C132.7,87.9,131.3,88.9,130,89.8z"/>
	<path fill="#A7A9AC" d="M137.7,84.9l-0.9-1.4c1-0.7,2.5-1.7,3.7-3.2l1.2,1C140.7,82.7,139.3,83.8,137.7,84.9z"/>
	<path fill="#A7A9AC" d="M270.8,406.1c-1.4,0-2.6-0.2-3.7-0.7l0.6-1.5c1.3,0.6,3,0.7,4.9,0.4l0.2,1.6
		C272.2,406.1,271.5,406.1,270.8,406.1z"/>
	<path fill="#A7A9AC" d="M277.2,404.8l-0.6-1.5c1.4-0.5,3-1.2,4.8-2.1l0.7,1.4C280.3,403.6,278.7,404.3,277.2,404.8z"/>
	<path fill="#A7A9AC" d="M263.5,402.4c-0.4-0.6-0.8-1.3-1.1-2.1c-0.5-1-0.8-2.1-1.1-3.1l1.6-0.4c0.3,1,0.6,1.9,1,2.9
		c0.3,0.7,0.6,1.3,1,1.8L263.5,402.4z"/>
	<path fill="#A7A9AC" d="M286,400.6l-0.8-1.4l1.4-0.8c1.2-0.7,2.3-1.3,3.3-1.8l0.8,1.4c-1,0.5-2.1,1.2-3.3,1.8L286,400.6z"/>
	<path fill="#A7A9AC" d="M306.9,400.2c-0.8-1.5-1.9-2.6-3.4-3.4l0.7-1.4c1.8,0.9,3.2,2.3,4.1,4.1L306.9,400.2z"/>
	<path fill="#A7A9AC" d="M307.8,408.6c0.5-1.6,0.5-3.2,0-4.8l1.5-0.5c0.6,1.9,0.6,3.9,0,5.8L307.8,408.6z"/>
	<path fill="#A7A9AC" d="M294.6,396.3l-0.5-1.6c1.9-0.6,3.8-0.8,5.6-0.6l-0.1,1.6C298,395.6,296.3,395.8,294.6,396.3z"/>
	<path fill="#A7A9AC" d="M75.5,170.7c-1.1,0-2.2-0.1-3.2-0.4l0.4-1.6c1.1,0.3,2.2,0.4,3.4,0.3c0.6,0,1.1-0.1,1.6-0.2l0.3,1.6
		c-0.6,0.1-1.2,0.2-1.9,0.2C75.8,170.7,75.6,170.7,75.5,170.7z"/>
	<path fill="#A7A9AC" d="M82.1,168.5l-1-1.3c1.2-0.9,2.2-2,3.5-3.8l1.3,0.9C84.6,166.3,83.4,167.5,82.1,168.5z"/>
	<path fill="#A7A9AC" d="M68.1,168.5c-1.5-1-2.9-2.3-4-3.9l1.3-1c1.1,1.5,2.3,2.7,3.6,3.6L68.1,168.5z"/>
	<path fill="#A7A9AC" d="M88.4,160.8l-1.3-0.9c1-1.5,2.1-3.1,3.4-4.4l1.2,1.1C90.5,157.8,89.5,159.1,88.4,160.8z"/>
	<path fill="#A7A9AC" d="M61.8,160.6c-0.7-1.7-1.3-3.5-1.7-5.3l1.6-0.3c0.3,1.7,0.9,3.4,1.5,5L61.8,160.6z"/>
	<path fill="#A7A9AC" d="M107.7,156.2c-1.1-1.2-2.5-2.1-4.2-2.6l0.5-1.5c1.9,0.6,3.5,1.6,4.9,3.1L107.7,156.2z"/>
	<path fill="#A7A9AC" d="M94.8,154.1l-0.7-1.4c1.7-0.9,3.5-1.3,5.5-1.3l0,1.6C97.8,153,96.2,153.4,94.8,154.1z"/>
	<path fill="#A7A9AC" d="M64.8,258.5c-0.8,0-1.5,0-2.3-0.1l0.1-1.6c0.7,0,1.4,0.1,2.2,0.1c1,0,2,0,3.1-0.1l0.1,1.6
		C66.9,258.4,65.8,258.4,64.8,258.5z"/>
	<path fill="#A7A9AC" d="M72.3,257.8l-0.3-1.6c1.7-0.3,3.4-0.7,5.2-1.2l0.4,1.6C75.9,257.1,74.1,257.5,72.3,257.8z"/>
	<path fill="#A7A9AC" d="M58.1,257.7c-1.9-0.4-3.7-1.1-5.2-2l0.8-1.4c1.4,0.8,3.1,1.4,4.8,1.8L58.1,257.7z"/>
	<path fill="#A7A9AC" d="M81.8,255.3l-0.5-1.5c1.6-0.6,3.3-1.2,5-1.9l0.6,1.5C85.2,254.1,83.5,254.7,81.8,255.3z"/>
	<path fill="#A7A9AC" d="M49.2,253.1c-1.3-1.3-2.4-2.8-3.3-4.6l1.5-0.7c0.8,1.6,1.8,3,3,4.1L49.2,253.1z"/>
	<path fill="#A7A9AC" d="M90.9,251.5l-0.7-1.5c1.6-0.8,3.2-1.6,4.7-2.5l0.8,1.4C94.1,249.9,92.5,250.7,90.9,251.5z"/>
	<path fill="#A7A9AC" d="M44.4,244.3c-0.4-1.7-0.6-3.5-0.7-5.5l1.6-0.1c0.1,1.9,0.3,3.6,0.7,5.2L44.4,244.3z"/>
	<path fill="#A7A9AC" d="M259.6,86.4c-0.7-1.8-1.1-3.4-1.1-4.9c0-0.2,0-0.5,0-0.7l1.6,0.1c0,0.2,0,0.4,0,0.6c0,1.3,0.3,2.7,1,4.3
		L259.6,86.4z"/>
	<path fill="#A7A9AC" d="M261.5,77.3l-1.4-0.9c0.9-1.4,2.3-2.8,4-4l0.9,1.3C263.5,74.9,262.3,76.1,261.5,77.3z"/>
</g>
<g>
	<circle fill="#769E78" cx="146.5" cy="138.3" r="3.4"/>
	<circle fill="#769E78" cx="151.3" cy="239.2" r="3.4"/>
	<circle fill="#769E78" cx="112" cy="176.3" r="3.4"/>
	<path fill="#769E78" d="M146.6,139.7l-1.5-0.6c0,0,0.4-1,0.8-2.5l1.6,0.4C147,138.7,146.6,139.7,146.6,139.7z"/>
	<path fill="#769E78" d="M147.6,136.4l-1.6-0.2c0.2-1.5,0.4-3,0.4-4.4c0-0.2,0-0.4,0-0.6l1.6,0c0,0.2,0,0.4,0,0.6
		C148,133.2,147.9,134.8,147.6,136.4z M145.9,127.3c-0.4-1.7-1-3.2-1.9-4.4l1.3-0.9c1,1.4,1.7,3.1,2.1,5L145.9,127.3z"/>
	<path fill="#769E78" d="M112.8,174.3l-1.6-0.3c0,0,0.4-2.1,0.4-5l0-0.2l1.6,0l0,0.3C113.2,172,112.8,174.2,112.8,174.3z
		 M111.3,164.6c-0.3-1.9-0.7-3.5-1.4-5l1.5-0.6c0.7,1.6,1.2,3.4,1.5,5.4L111.3,164.6z"/>
	<path fill="#769E78" d="M146,257c-1.5,0-3.1-0.4-4.7-1.1l0.6-1.5c1.7,0.7,3.3,1.1,4.8,0.9l0.2,1.6C146.7,257,146.3,257,146,257z
		 M151.5,255.1l-0.6-0.6l-0.5-0.7c1.3-1,2.1-2.3,2.4-4l1.6,0.3C154,252.2,153,253.9,151.5,255.1z M137.5,253.6
		c-0.2-0.1-0.3-0.3-0.4-0.3l-0.1,0l-0.1-0.2c-0.1-0.2-1.2-1.6-3.1-3.5l1.1-1.2c1.8,1.8,2.9,3.2,3.2,3.7c0.1,0.1,0.2,0.2,0.3,0.3
		L137.5,253.6z M130.6,246.7c-1.4-1.1-2.9-2-4.4-2.8l0.7-1.4c1.6,0.8,3.2,1.8,4.7,2.9L130.6,246.7z M152.8,245.9c-0.3-2-1-3.8-1.6-5
		l1.5-0.7c0.6,1.3,1.3,3.2,1.7,5.3L152.8,245.9z"/>
	<g>
		<circle fill="#537A93" cx="239.5" cy="125.5" r="3.4"/>
		<path fill="#537A93" d="M99.4,246.7l-0.9-1.4l0.2-0.1c1.5-1,3.1-1.9,4.6-2.6l0.7,1.5c-1.5,0.7-2.9,1.5-4.4,2.5L99.4,246.7z"/>
		<path fill="#537A93" d="M107.9,242.5l-0.5-1.5c1.8-0.6,3.6-1,5.4-1.1l0.2,1.6C111.4,241.6,109.6,242,107.9,242.5z"/>
		<path fill="#537A93" d="M122.3,242.4c-1.7-0.5-3.4-0.9-5.1-1l0.1-1.6c1.8,0.1,3.7,0.5,5.5,1.1L122.3,242.4z"/>
		<path fill="#537A93" d="M242.4,126.1l-0.2-1.6c0,0,2.1-0.2,5.2-1l0.4,1.6C244.7,125.9,242.5,126.1,242.4,126.1z"/>
		<path fill="#537A93" d="M252.1,123.8l-0.5-1.5c1.7-0.6,3.3-1.3,4.9-2.1l0.7,1.4C255.5,122.4,253.8,123.1,252.1,123.8z"/>
		<path fill="#537A93" d="M260.9,119.4L260,118c1.5-1,2.9-2.1,4.1-3.3l1.1,1.1C264,117.1,262.5,118.3,260.9,119.4z"/>
		<path fill="#537A93" d="M268.1,112.5l-1.3-0.9c0.9-1.3,1.7-2.7,2.3-4.2c0-0.1,0.1-0.2,0.1-0.3l1.5,0.5c0,0.1-0.1,0.3-0.2,0.4
			C269.9,109.5,269.1,111,268.1,112.5z"/>
		<path fill="#537A93" d="M269.2,103.2c-0.4-1.3-1-2.8-2.2-4.7l1.4-0.8c1.2,2,1.9,3.6,2.3,5.1L269.2,103.2z"/>
	</g>
</g>
<g>
	<path fill="#A7A9AC" d="M391.9,267.2c-1,0-1.7,0-2.7-0.1l0.2-1.6c1.9,0.1,3.2,0.1,4.9,0l0.1,1.6
		C393.5,267.2,392.7,267.2,391.9,267.2z"/>
	<path fill="#A7A9AC" d="M398.7,266.6l-0.3-1.6c1.9-0.4,3.5-1,4.8-1.7l0.8,1.4C402.6,265.5,400.8,266.1,398.7,266.6z"/>
	<path fill="#A7A9AC" d="M407.3,261.2l-1.4-0.7c0.5-1,0.8-2.1,0.8-3.4c0-0.4,0-0.9-0.1-1.4l1.6-0.2c0.1,0.5,0.1,1.1,0.1,1.6
		C408.2,258.6,407.9,260,407.3,261.2z"/>
	<path fill="#A7A9AC" d="M405.5,251.7c-0.1-0.2-0.2-0.4-0.3-0.7c-0.6-1.5-1.2-3-1.6-4.4l1.5-0.5c0.5,1.4,1,2.8,1.6,4.3
		c0.1,0.2,0.2,0.5,0.3,0.7L405.5,251.7z"/>
	<path fill="#A7A9AC" d="M402.4,242.5c-0.5-1.9-0.8-3.8-0.9-5.4l1.6-0.1c0.1,1.6,0.4,3.3,0.9,5.2L402.4,242.5z"/>
	<path fill="#A7A9AC" d="M403.1,232.7l-1.6-0.2c0.3-2.1,0.9-3.9,1.9-5.4l1.3,0.9C403.9,229.3,403.3,230.9,403.1,232.7z"/>
	<path fill="#A7A9AC" d="M407.6,225.5l-0.8-1.4c1.5-0.8,3.3-1.4,5.4-1.8l0.2,1.6C410.6,224.2,409,224.7,407.6,225.5z"/>
	<path fill="#A7A9AC" d="M422,224c-1.6,0-2.6-0.2-2.6-0.2c-0.9-0.1-1.9-0.1-2.8-0.1l0-1.6c0.9,0,1.9,0.1,2.9,0.1
		c0.1,0,1,0.2,2.4,0.2L422,224z"/>
	<path fill="#A7A9AC" d="M426.5,223.5l-0.3-1.6c1.8-0.4,3.4-1,4.7-1.9l0.9,1.3C430.3,222.4,428.5,223.1,426.5,223.5z"/>
	<path fill="#A7A9AC" d="M435,218.1l-1.4-0.9c0.9-1.3,1.5-2.9,1.8-4.7l1.6,0.3C436.6,214.8,436,216.6,435,218.1z"/>
	<path fill="#A7A9AC" d="M421,322.5l-1.6-0.1c0-0.5,0-1,0-1.5c0-0.8,0-1.7-0.1-2.4l1.6-0.2c0.1,0.8,0.1,1.7,0.1,2.6
		C421.1,321.5,421,322,421,322.5z"/>
	<path fill="#A7A9AC" d="M418.5,314.5c-0.6-1.7-1.4-3.2-2.4-4.4l1.2-1.1c1.2,1.4,2.1,3,2.7,5L418.5,314.5z"/>
	<path fill="#A7A9AC" d="M385,311c-1.9-0.1-3.7-0.5-5.5-1.1l0.5-1.5c1.6,0.6,3.3,0.9,5.1,1L385,311z"/>
	<path fill="#A7A9AC" d="M389.5,310.9l-0.2-1.6c1.7-0.2,3.4-0.6,5.1-1.2l0.5,1.5C393.1,310.2,391.2,310.6,389.5,310.9z"/>
	<path fill="#A7A9AC" d="M398.9,308l-0.6-1.5c1.8-0.7,3.6-1.2,5.3-1.5l0.3,1.6C402.4,306.8,400.7,307.3,398.9,308z"/>
	<path fill="#A7A9AC" d="M412.9,307.6c-1.4-0.7-3.1-1.2-4.8-1.3l0.1-1.6c2,0.1,3.9,0.6,5.5,1.4L412.9,307.6z"/>
</g>
<g>
	<circle fill="#448477" cx="377.8" cy="264.4" r="3.4"/>
	<circle fill="#448477" cx="364.7" cy="294.1" r="3.4"/>
	<circle fill="#448477" cx="266.7" cy="376.5" r="3.4"/>
	<path fill="#448477" d="M384.5,266.7c-3.2-0.4-5.3-0.9-5.4-0.9l0.3-1.6c0,0,2.2,0.5,5.3,0.8L384.5,266.7z"/>
	<path fill="#448477" d="M263.7,383.6l-1.5-0.6c1.3-3,2.8-4.8,2.8-4.9l1.2,1C266.2,379.1,264.8,380.8,263.7,383.6z"/>
	<path fill="#448477" d="M375.5,308.1c-1.6-0.9-3.1-2-4.5-3.3l1.1-1.2c1.3,1.2,2.7,2.3,4.2,3.1L375.5,308.1z M368,301.5
		c-2-2.5-3-4.6-3.1-4.7l1.5-0.7c0,0,1,2,2.9,4.4L368,301.5z"/>
</g>
<g>
	<path fill="#448477" d="M262.2,389.1c0.1-0.5,0.1-1,0.2-1.5l-1.6-0.3c-0.1,0.6-0.2,1.2-0.3,1.9
		C261.1,389.1,261.7,389.1,262.2,389.1z"/>
	<path fill="#A7A9AC" d="M262.2,389.1c-0.6,0-1.1,0-1.6,0c-0.1,0.8-0.1,1.5-0.1,2.3c0,0.5,0,0.9,0,1.4l1.6-0.1c0-0.4,0-0.9,0-1.3
		C262.1,390.6,262.1,389.9,262.2,389.1z"/>
</g>
<g>
	<path fill="#A7A9AC" d="M263.1,89.5l-1.4,0.8c0.1,0.2,0.2,0.4,0.4,0.6l2.2,0.4C263.8,90.8,263.4,90.2,263.1,89.5z"/>
	<path fill="#537A93" d="M265.7,93.6c-0.5-0.7-1-1.4-1.5-2.2L262,91c0.7,1.2,1.5,2.4,2.3,3.5l0.3,0.5L266,94L265.7,93.6z"/>
</g>
</svg>
