<?xml version="1.0" encoding="utf-8"?>
<!-- Generator: Adobe Illustrator 24.1.0, SVG Export Plug-In . SVG Version: 6.00 Build 0)  -->
<svg version="1.1" id="Layer_1" xmlns="http://www.w3.org/2000/svg" xmlns:xlink="http://www.w3.org/1999/xlink" x="0px" y="0px"
	 viewBox="0 0 174.4 110.7" style="enable-background:new 0 0 174.4 110.7;" xml:space="preserve">
<style type="text/css">
	.st0{fill:#E0DFDF;}
	.st1{fill:#CACAC9;}
</style>
<g>
	<path class="st0" d="M113.1,53.9c0,0.4,0,0.7-0.1,1l10.1,1c0.1-0.7,0.2-1.3,0.2-2c0-0.9-0.1-1.8-0.3-2.7l-9.7,1.8l-0.9-2.3l7.2-6.8
		c-2.8-3.2-6.8-5.3-11.3-5.3v10.2C111,48.9,113.1,51.2,113.1,53.9z"/>
	<path class="st0" d="M112.8,55.8c-0.7,1.8-2.5,3.1-4.5,3.2v10.2c6.1-0.1,11.4-3.8,13.7-9.1L112.8,55.8z"/>
</g>
<path class="st1" d="M107.8,89.8H39.5c-0.8,0-1.5-0.7-1.5-1.5V20c0-0.8,0.7-1.5,1.5-1.5h68.3c0.8,0,1.5,0.7,1.5,1.5v68.3
	C109.3,89.1,108.6,89.8,107.8,89.8z M41,86.8h65.3V21.5H41V86.8z"/>
<g>
	<path class="st1" d="M66.5,69.1c-0.3,0-0.6-0.1-0.8-0.3c-0.4-0.3-0.6-0.9-0.6-1.4l1.2-7.3L61,55c-0.4-0.4-0.5-0.9-0.4-1.4
		c0.2-0.5,0.6-0.9,1.1-1l7.3-1.1l3.3-6.6c0.2-0.5,0.7-0.7,1.3-0.7s1,0.3,1.3,0.7l3.3,6.6l7.3,1.1c0.5,0.1,1,0.4,1.1,1
		c0.2,0.5,0,1.1-0.4,1.4l-5.3,5.1l1.2,7.3c0.1,0.5-0.1,1.1-0.6,1.4c-0.2,0.2-0.5,0.3-0.8,0.3c-0.2,0-0.5-0.1-0.7-0.2l-6.5-3.4
		L67,68.9C67,69.1,66.8,69.1,66.5,69.1z M73.7,62.4c0.2,0,0.5,0.1,0.7,0.2l4.5,2.4L78,60c-0.1-0.5,0.1-0.9,0.4-1.2l3.6-3.6l-5-0.7
		c-0.5-0.1-0.9-0.4-1.1-0.8l-2.3-4.6l-2.1,4.5c-0.2,0.4-0.6,0.7-1.1,0.8l-5,0.7l3.6,3.6c0.3,0.3,0.5,0.8,0.4,1.2l-0.9,5l4.5-2.4
		C73.2,62.5,73.5,62.4,73.7,62.4z"/>
	<path class="st1" d="M58,32.2c-0.6,0-1.1-0.4-1.1-0.9v-1.6c0-0.5,0.5-0.9,1.1-0.9h31.4c0.6,0,1.1,0.4,1.1,0.9v1.6
		c0,0.5-0.5,0.9-1.1,0.9H58z"/>
	<path class="st1" d="M61.7,39c-0.6,0-1.1-0.4-1.1-0.9v-1.6c0-0.5,0.5-0.9,1.1-0.9h24.1c0.6,0,1.1,0.4,1.1,0.9v1.6
		c0,0.5-0.5,0.9-1.1,0.9H61.7z"/>
	<path class="st1" d="M65.7,79.4c-0.5,0-0.9-0.4-0.9-0.9v-1.4c0-0.5,0.4-0.9,0.9-0.9h16c0.5,0,0.9,0.4,0.9,0.9v1.4
		c0,0.5-0.4,0.9-0.9,0.9H65.7z"/>
</g>
<path class="st1" d="M108,23.1C108,23.1,107.9,23.1,108,23.1l-0.1,3c0,0,0.1,0,0.1,0c15.3,0,27.8,12.5,27.8,27.8
	c0,15.3-12.5,27.8-27.8,27.8c0,0-0.1,0-0.1,0v3c0,0,0.1,0,0.1,0c17,0,30.8-13.8,30.8-30.8C138.8,36.9,125,23.1,108,23.1z"/>
<path class="st1" d="M108,47.3C108,47.3,107.9,47.3,108,47.3l-0.1,3c0,0,0.1,0,0.1,0c2,0,3.6,1.6,3.6,3.6c0,2-1.6,3.6-3.6,3.6
	c0,0-0.1,0-0.1,0v3c0,0,0.1,0,0.1,0c3.6,0,6.6-3,6.6-6.6S111.7,47.3,108,47.3z"/>
</svg>
