<?xml version="1.0" encoding="utf-8"?>
<!-- Generator: Adobe Illustrator 24.1.0, SVG Export Plug-In . SVG Version: 6.00 Build 0)  -->
<svg version="1.1" id="Layer_1" xmlns="http://www.w3.org/2000/svg" xmlns:xlink="http://www.w3.org/1999/xlink" x="0px" y="0px"
	 viewBox="0 0 174.4 110.7" style="enable-background:new 0 0 174.4 110.7;" xml:space="preserve">
<style type="text/css">
	.st0{fill:#BBD9F2;}
	.st1{fill:none;stroke:#7EC58E;stroke-width:3;stroke-linejoin:round;stroke-miterlimit:10;}
	.st2{fill:#5EA2D7;}
	.st3{fill:#FFFFFF;}
</style>
<path class="st0" d="M69.1,16.7v2.8c0,1,0.8,1.8,1.8,1.8h5.9c1,0,1.8-0.8,1.8-1.8v-2.8H69.1z"/>
<path class="st0" d="M41.9,16.7v2.8c0,1,0.8,1.8,1.8,1.8h5.9c1,0,1.8-0.8,1.8-1.8v-2.8H41.9z"/>
<path class="st0" d="M96.4,16.7v2.8c0,1,0.8,1.8,1.8,1.8h5.9c1,0,1.8-0.8,1.8-1.8v-2.8H96.4z"/>
<path class="st0" d="M123.5,16.7v2.8c0,1,0.8,1.8,1.8,1.8h5.9c1,0,1.8-0.8,1.8-1.8v-2.8H123.5z"/>
<g>
	<path class="st2" d="M143,76.2c1,0,1.8-0.8,1.8-1.8V11.8c0-1-0.8-1.8-1.8-1.8h-9.9V8.1c0-1-0.8-1.8-1.8-1.8h-5.9
		c-1,0-1.8,0.8-1.8,1.8V10h-17.7V8.1c0-1-0.8-1.8-1.8-1.8h-5.9c-1,0-1.8,0.8-1.8,1.8V10H78.6V8.1c0-1-0.8-1.8-1.8-1.8h-5.9
		c-1,0-1.8,0.8-1.8,1.8V10H51.4V8.1c0-1-0.8-1.8-1.8-1.8h-5.9c-1,0-1.8,0.8-1.8,1.8V10H32c-1,0-1.8,0.8-1.8,1.8v62.6
		c0,1,0.8,1.8,1.8,1.8h49v3.6H30.8c-0.2,0-0.4,0.2-0.4,0.4v0.6v1.1c0,0.2,0.2,0.4,0.4,0.4H81v18.3H50.5c-0.4,0-0.7,0.3-0.7,0.7v2.2
		c0,0.4,0.3,0.7,0.7,0.7h32.2c0,0,0,0,0,0h9.4c0,0,0,0,0,0h32.2c0.4,0,0.7-0.3,0.7-0.7v-2.2c0-0.4-0.3-0.7-0.7-0.7H94V82.4h50.2
		c0.2,0,0.4-0.2,0.4-0.4v-1.1v-0.6c0-0.2-0.2-0.4-0.4-0.4H94v-3.6H143z M33.8,13.6h8.1v2.8c0,1,0.8,1.8,1.8,1.8h5.9
		c1,0,1.8-0.8,1.8-1.8v-2.8h17.7v2.8c0,1,0.8,1.8,1.8,1.8h5.9c1,0,1.8-0.8,1.8-1.8v-2.8h17.7v2.8c0,1,0.8,1.8,1.8,1.8h5.9
		c1,0,1.8-0.8,1.8-1.8v-2.8h17.7v2.8c0,1,0.8,1.8,1.8,1.8h5.9c1,0,1.8-0.8,1.8-1.8v-2.8h8.1v59H94h-3.6h-5.8H81H33.8V13.6z M45.5,10
		L45.5,10l2.3-0.1V10v1.8v1.8v1h-2.3v-1v-1.8V10z M72.7,10L72.7,10L75,9.9V10v1.8v1.8v1h-2.3v-1v-1.8V10z M100,10L100,10l2.3-0.1V10
		v1.8v1.8v1H100v-1v-1.8V10z M127.2,10L127.2,10l2.3-0.1V10v1.8v1.8v1h-2.3v-1v-1.8V10z M90.4,100.6h-5.8V82.4h5.8V100.6z
		 M90.4,79.8h-5.8v-3.6h5.8V79.8z"/>
	<path class="st2" d="M97.1,60.5c0.2,0.1,0.5,0.2,0.7,0.2c0.3,0,0.7-0.1,0.9-0.3c0.5-0.4,0.7-1,0.6-1.6l-1.8-10.7l7.8-7.6
		c0.4-0.4,0.6-1.1,0.4-1.7c-0.2-0.6-0.7-1-1.3-1.1l-10.8-1.6l-4.8-9.8c-0.5-1.1-2.3-1.1-2.9,0l-4.8,9.8l-10.8,1.6
		c-0.6,0.1-1.1,0.5-1.3,1.1c-0.2,0.6,0,1.2,0.4,1.7l7.8,7.6l-1.8,10.7c-0.1,0.6,0.1,1.2,0.6,1.6c0.5,0.4,1.2,0.4,1.7,0.1l9.6-5.1
		L97.1,60.5z M83.8,38.4l3.7-7.6l3.7,7.6c0.2,0.5,0.7,0.8,1.2,0.9l8.4,1.2l-6.1,5.9c-0.4,0.4-0.6,0.9-0.5,1.4l1.4,8.3l-7.5-3.9
		C88,52.1,87.8,52,87.5,52s-0.5,0.1-0.7,0.2l-7.5,3.9l1.4-8.3c0.1-0.5-0.1-1.1-0.5-1.4l-6.1-5.9l8.4-1.2
		C83.1,39.2,83.5,38.9,83.8,38.4z"/>
</g>
<path class="st3" d="M83.8,38.4l3.7-7.6l3.7,7.6c0.2,0.5,0.7,0.8,1.2,0.9l8.4,1.2l-6.1,5.9c-0.4,0.4-0.6,0.9-0.5,1.4l1.4,8.3
	l-7.5-3.9C88,52.1,87.8,52,87.5,52s-0.5,0.1-0.7,0.2l-7.5,3.9l1.4-8.3c0.1-0.5-0.1-1.1-0.5-1.4l-6.1-5.9l8.4-1.2
	C83.1,39.2,83.5,38.9,83.8,38.4z"/>
</svg>
