<?xml version="1.0" encoding="utf-8"?>
<!-- Generator: Adobe Illustrator 24.1.0, SVG Export Plug-In . SVG Version: 6.00 Build 0)  -->
<svg version="1.1" id="Layer_1" xmlns="http://www.w3.org/2000/svg" xmlns:xlink="http://www.w3.org/1999/xlink" x="0px" y="0px"
	 viewBox="0 0 174.4 110.7" style="enable-background:new 0 0 174.4 110.7;" xml:space="preserve">
<style type="text/css">
	.st0{fill:#E0DFDF;}
	.st1{fill:#CACAC9;}
</style>
<path class="st0" d="M116.7,24.4h-3.8v63c0,0.8-0.6,1.4-1.4,1.4H61.2v3.8c0,0.8,0.6,1.4,1.4,1.4h54.1c0.8,0,1.4-0.6,1.4-1.4V25.8
	C118.2,25,117.5,24.4,116.7,24.4z"/>
<g>
	<path class="st1" d="M58,89.6c-0.8,0-1.4-0.6-1.4-1.4V20.4c0-0.8,0.6-1.4,1.4-1.4h55.1c0.8,0,1.4,0.6,1.4,1.4v67.8
		c0,0.8-0.6,1.4-1.4,1.4H58z M111.7,86.7V21.8H63v64.9H111.7z M61.3,86.7V21.8h-1.9v64.9H61.3z"/>
	<path class="st1" d="M79,70.3c-0.3,0-0.6-0.1-0.8-0.3c-0.4-0.3-0.6-0.9-0.6-1.4l1.2-7.3l-5.3-5.1c-0.4-0.4-0.5-0.9-0.4-1.4
		c0.2-0.5,0.6-0.9,1.1-1l7.3-1.1l3.3-6.6c0.2-0.5,0.7-0.7,1.3-0.7s1,0.3,1.3,0.7l3.3,6.6l7.3,1.1c0.5,0.1,1,0.4,1.1,1
		c0.2,0.5,0,1.1-0.4,1.4l-5.3,5.1l1.2,7.3c0.1,0.5-0.1,1.1-0.6,1.4c-0.2,0.2-0.5,0.3-0.8,0.3c-0.2,0-0.5-0.1-0.7-0.2l-6.5-3.4
		l-6.5,3.4C79.5,70.3,79.3,70.3,79,70.3z M86.2,63.6c0.2,0,0.5,0.1,0.7,0.2l4.5,2.4l-0.9-5c-0.1-0.5,0.1-0.9,0.4-1.2l3.6-3.6l-5-0.7
		c-0.5-0.1-0.9-0.4-1.1-0.8l-2.3-4.6L84,54.8c-0.2,0.4-0.6,0.7-1.1,0.8l-5,0.7l3.6,3.6c0.3,0.3,0.5,0.8,0.4,1.2l-0.9,5l4.5-2.4
		C85.7,63.7,86,63.6,86.2,63.6z"/>
	<path class="st1" d="M70.5,33.4c-0.6,0-1.1-0.4-1.1-0.9v-1.6c0-0.5,0.5-0.9,1.1-0.9h31.4c0.6,0,1.1,0.4,1.1,0.9v1.6
		c0,0.5-0.5,0.9-1.1,0.9H70.5z"/>
	<path class="st1" d="M74.2,40.2c-0.6,0-1.1-0.4-1.1-0.9v-1.6c0-0.5,0.5-0.9,1.1-0.9h24.1c0.6,0,1.1,0.4,1.1,0.9v1.6
		c0,0.5-0.5,0.9-1.1,0.9H74.2z"/>
	<path class="st1" d="M78.2,80.6c-0.5,0-0.9-0.4-0.9-0.9v-1.4c0-0.5,0.4-0.9,0.9-0.9h16c0.5,0,0.9,0.4,0.9,0.9v1.4
		c0,0.5-0.4,0.9-0.9,0.9H78.2z"/>
</g>
</svg>
