<?xml version="1.0" encoding="utf-8"?>
<!-- Generator: Adobe Illustrator 23.0.1, SVG Export Plug-In . SVG Version: 6.00 Build 0)  -->
<svg version="1.1" id="Layer_1" xmlns="http://www.w3.org/2000/svg" xmlns:xlink="http://www.w3.org/1999/xlink" x="0px" y="0px"
	 viewBox="0 0 183.2 130.8" style="enable-background:new 0 0 183.2 130.8;" xml:space="preserve">
<style type="text/css">
	.st0{fill:none;stroke:#7FC690;stroke-width:3;stroke-miterlimit:10;}
	.st1{fill:#E0DFDF;}
	.st2{fill:#CBCBCB;}
</style>
<g>
	<g>
		<path class="st0" d="M32.9,42.1"/>
	</g>
	<g>
		<path class="st1" d="M85.1,20.3h-2.5V112H16.6v2.5c0,1.4,1.1,2.5,2.5,2.5h66c1.4,0,2.5-1.1,2.5-2.5V22.8
			C87.5,21.4,86.4,20.3,85.1,20.3z"/>
		<g>
			<path class="st2" d="M82.5,113.5H11.6c-0.8,0-1.5-0.7-1.5-1.5V15.3c0-0.8,0.7-1.5,1.5-1.5h70.9c0.8,0,1.5,0.7,1.5,1.5V112
				C84,112.8,83.3,113.5,82.5,113.5z M13.1,110.5H81V16.8H13.1V110.5z"/>
		</g>
	</g>
	<g>
		<path class="st1" d="M172.3,35.5h-2.2V57h-37.6v2.2c0,1.5,1.2,2.8,2.8,2.8h37c1.5,0,2.8-1.2,2.8-2.8v-21
			C175.1,36.7,173.8,35.5,172.3,35.5z"/>
		<path class="st2" d="M127.5,40.5h-25.7V16.9h39.6v13.6h3V15.4c0-0.8-0.7-1.5-1.5-1.5h-42.6c-0.8,0-1.5,0.7-1.5,1.5V42
			c0,0.8,0.7,1.5,1.5,1.5h27.2V40.5z"/>
		<g>
			<path class="st2" d="M170.1,58.5h-42.6c-0.8,0-1.5-0.7-1.5-1.5V30.5c0-0.8,0.7-1.5,1.5-1.5h42.6c0.8,0,1.5,0.7,1.5,1.5V57
				C171.6,57.9,170.9,58.5,170.1,58.5z M129,55.5h39.6V32H129V55.5z"/>
		</g>
	</g>
	<g>
		<path class="st2" d="M170.2,113.3h-67.3c-0.8,0-1.5-0.7-1.5-1.5V70.7c0-0.8,0.7-1.5,1.5-1.5h67.3c0.8,0,1.5,0.7,1.5,1.5v41.1
			C171.7,112.6,171,113.3,170.2,113.3z M104.3,110.3h64.3V72.2h-64.3V110.3z"/>
	</g>
	<g>
		
			<rect x="97.8" y="98.4" transform="matrix(0.6999 -0.7142 0.7142 0.6999 -37.0845 111.5612)" class="st2" width="32.8" height="3"/>
	</g>
	<g>
		<path class="st1" d="M152.8,89.2l15.8-11.5l0-5.9l-32.2,23.5L107.2,74v1.5l30,21.8c1.3,1,3.1,1,4.4,0l9.7-7l17.3,17.7l-0.1-2.8
			L152.8,89.2z"/>
		<path class="st2" d="M136.4,96.8c-0.3,0-0.6-0.1-0.9-0.3l-33.7-24.6c-0.5-0.4-0.7-1.1-0.5-1.7s0.8-1,1.4-1h67.3
			c0.6,0,1.2,0.4,1.4,1s0,1.3-0.5,1.7l-33.7,24.6C137,96.7,136.7,96.8,136.4,96.8z M107.4,72.2l29.1,21.2l29.1-21.2H107.4z"/>
	</g>
	<g>
		<path class="st2" d="M73.1,28.8h-9.4c-0.5,0-0.8-0.4-0.8-0.8v-2c0-0.5,0.4-0.8,0.8-0.8h9.4c0.5,0,0.8,0.4,0.8,0.8v2
			C73.9,28.4,73.5,28.8,73.1,28.8z"/>
	</g>
	<g>
		<path class="st2" d="M73.1,36.4h-9.4c-0.5,0-0.8-0.4-0.8-0.8v-2c0-0.5,0.4-0.8,0.8-0.8h9.4c0.5,0,0.8,0.4,0.8,0.8v2
			C73.9,36,73.5,36.4,73.1,36.4z"/>
	</g>
	<g>
		<g>
			<path class="st2" d="M59.6,59.1H27c-0.5,0-0.8-0.4-0.8-0.8v-2c0-0.5,0.4-0.8,0.8-0.8h32.6c0.5,0,0.8,0.4,0.8,0.8v2
				C60.5,58.7,60.1,59.1,59.6,59.1z"/>
		</g>
		<g>
			<path class="st2" d="M59.6,68.8H27c-0.5,0-0.8-0.4-0.8-0.8v-2c0-0.5,0.4-0.8,0.8-0.8h32.6c0.5,0,0.8,0.4,0.8,0.8v2
				C60.5,68.4,60.1,68.8,59.6,68.8z"/>
		</g>
		<g>
			<path class="st2" d="M49.9,78.5H27c-0.5,0-0.8-0.4-0.8-0.8v-2c0-0.5,0.4-0.8,0.8-0.8h22.9c0.5,0,0.8,0.4,0.8,0.8v2
				C50.7,78.1,50.4,78.5,49.9,78.5z"/>
		</g>
	</g>
	<g>
		<g>
			<path class="st2" d="M152.3,41.8h-16.4c-0.5,0-0.8-0.4-0.8-0.8v-2c0-0.5,0.4-0.8,0.8-0.8h16.4c0.5,0,0.8,0.4,0.8,0.8v2
				C153.2,41.4,152.8,41.8,152.3,41.8z"/>
		</g>
		<g>
			<path class="st2" d="M145.4,49.4h-9.4c-0.5,0-0.8-0.4-0.8-0.8v-2c0-0.5,0.4-0.8,0.8-0.8h9.4c0.5,0,0.8,0.4,0.8,0.8v2
				C146.2,49,145.8,49.4,145.4,49.4z"/>
		</g>
	</g>
	<g>
		
			<rect x="156.9" y="82.9" transform="matrix(0.7143 -0.6999 0.6999 0.7143 -24.4873 139.3101)" class="st2" width="3" height="33.5"/>
	</g>
</g>
</svg>
