<?xml version="1.0" encoding="utf-8"?>
<!-- Generator: Adobe Illustrator 24.1.0, SVG Export Plug-In . SVG Version: 6.00 Build 0)  -->
<svg version="1.1" id="Layer_1" xmlns="http://www.w3.org/2000/svg" xmlns:xlink="http://www.w3.org/1999/xlink" x="0px" y="0px"
	 viewBox="0 0 174.4 110.7" style="enable-background:new 0 0 174.4 110.7;" xml:space="preserve">
<style type="text/css">
	.st0{fill:none;stroke:#7EC58E;stroke-width:3;stroke-linejoin:round;stroke-miterlimit:10;}
	.st1{fill:#BBD9F2;}
	.st2{fill:#5EA2D7;}
</style>
<g>
	<g>
		<path class="st1" d="M129.6,48.5h-3.1V77c0,1-0.8,1.8-1.8,1.8H78.3c-0.6,0-1.2-0.3-1.5-0.8v4.1c0,1,0.8,1.8,1.8,1.8h51
			c1,0,1.8-0.8,1.8-1.8V50.3C131.4,49.3,130.6,48.5,129.6,48.5z"/>
		<path class="st1" d="M93.9,46.5h4.9V32.2c0-1-0.8-1.8-1.8-1.8h-3.1V46.5z"/>
		<path class="st1" d="M76.5,60.7H45.7c-0.6,0-1.2-0.3-1.5-0.8V64c0,1,0.8,1.8,1.8,1.8h30.5V60.7z"/>
	</g>
	<path class="st2" d="M76.3,80.8c-0.8,0-1.5-0.7-1.5-1.5V63.1c0-0.2-0.1-0.3-0.3-0.3H43.7c-0.8,0-1.5-0.7-1.5-1.5V29.5
		c0-0.8,0.7-1.5,1.5-1.5h51c0.8,0,1.5,0.7,1.5,1.5v16.3c0,0.2,0.1,0.3,0.3,0.3h30.8c0.8,0,1.5,0.7,1.5,1.5v31.8
		c0,0.8-0.7,1.5-1.5,1.5H76.3z M78.1,49c-0.2,0-0.3,0.1-0.3,0.3v28.2c0,0.2,0.1,0.3,0.3,0.3h47.4c0.2,0,0.3-0.1,0.3-0.3V49.3
		c0-0.2-0.1-0.3-0.3-0.3H78.1z M45.5,31c-0.2,0-0.3,0.1-0.3,0.3v28.2c0,0.2,0.1,0.3,0.3,0.3h29c0.2,0,0.3-0.1,0.3-0.3v-12
		c0-0.8,0.7-1.5,1.5-1.5h16.6c0.2,0,0.3-0.1,0.3-0.3V31.3c0-0.2-0.1-0.3-0.3-0.3H45.5z"/>
	<path class="st2" d="M86.4,60.8c-0.4,0-0.7-0.3-0.7-0.7v-2.4c0-0.4,0.3-0.7,0.7-0.7H106c0.4,0,0.7,0.3,0.7,0.7v2.4
		c0,0.4-0.3,0.7-0.7,0.7H86.4z"/>
	<path class="st2" d="M86.4,69.9c-0.4,0-0.7-0.3-0.7-0.7v-2.4c0-0.4,0.3-0.7,0.7-0.7h11.3c0.4,0,0.7,0.3,0.7,0.7v2.4
		c0,0.4-0.3,0.7-0.7,0.7H86.4z"/>
</g>
</svg>
