<?xml version="1.0" encoding="utf-8"?>
<!-- Generator: Adobe Illustrator 23.1.1, SVG Export Plug-In . SVG Version: 6.00 Build 0)  -->
<svg version="1.1" id="Layer_1" xmlns="http://www.w3.org/2000/svg" xmlns:xlink="http://www.w3.org/1999/xlink" x="0px" y="0px"
	 viewBox="0 0 174.4 110.7" style="enable-background:new 0 0 174.4 110.7;" xml:space="preserve">
<style type="text/css">
	.st0{fill:#E0DFDF;}
	.st1{fill:#CACAC9;}
</style>
<g>
	<path class="st0" d="M86,85.3c0,0.5,0,1,0,1.5H65.6c-2,0-3.9-0.6-5.5-1.6c1.8,2.9,5,4.9,8.7,4.9H87c0.5,0,1-0.4,1-1v-3.8H86z"/>
	<path class="st0" d="M116.9,28.3c1,1.6,1.6,3.5,1.6,5.5v42.8c0,5.6-4.5,10.1-10.1,10.1H97.7c0-0.5,0.1-1,0.1-1.5h-2.3V89
		c0,0.6,0.5,1.1,1.1,1.1h14.2c6.2,0,11.1-5,11.1-11.1V37C121.8,33.3,119.8,30.1,116.9,28.3z"/>
</g>
<path class="st1" d="M108.9,87.6H97c-0.8,0-1.5-0.7-1.5-1.5V64.3c0-0.8,0.7-1.5,1.5-1.5h7.9v-6.5H97c-0.8,0-1.5-0.7-1.5-1.5v-4.4
	c0-2.1,0.7-3.8,2-5c2.4-2.3,6-2.1,6.1-2.1h1.4v-6.8c-7.8,0-9.7,0.5-13.2,3.7C87.2,44.3,88,54.4,88,54.5v0.1v0.2
	c0,0.8-0.7,1.5-1.5,1.5h-4.9v6.5h4.9c0.8,0,1.5,0.7,1.5,1.5V86c0,0.8-0.7,1.5-1.5,1.5H65c-5.7,0-10.4-4.7-10.4-10.4V33.2
	c0-5.7,4.7-10.4,10.4-10.4h43.9c5.7,0,10.4,4.7,10.4,10.4v43.9C119.3,82.9,114.7,87.6,108.9,87.6z M98.5,84.6H109
	c4.1,0,7.4-3.3,7.4-7.4v-44c0-4.1-3.3-7.4-7.4-7.4H65c-4.1,0-7.4,3.3-7.4,7.4v43.9c0,4.1,3.3,7.4,7.4,7.4h20V65.8h-4.9
	c-0.8,0-1.5-0.7-1.5-1.5v-9.5c0-0.8,0.7-1.5,1.5-1.5H85C84.9,50,85.2,42.1,89.7,38c4.7-4.2,7.7-4.4,16.7-4.4l0,0
	c0.4,0,0.8,0.2,1.1,0.4s0.4,0.7,0.4,1.1v9.8c0,0.8-0.7,1.5-1.5,1.5h-3c-0.1,0-2.6-0.1-4,1.3c-0.7,0.7-1,1.6-1,2.8v2.9h7.9
	c0.8,0,1.5,0.7,1.5,1.5v9.5c0,0.8-0.7,1.5-1.5,1.5h-7.9v18.7H98.5z"/>
</svg>
