<?xml version="1.0" encoding="utf-8"?>
<!-- Generator: Adobe Illustrator 23.1.1, SVG Export Plug-In . SVG Version: 6.00 Build 0)  -->
<svg version="1.1" id="Layer_1" xmlns="http://www.w3.org/2000/svg" xmlns:xlink="http://www.w3.org/1999/xlink" x="0px" y="0px"
	 viewBox="0 0 174.4 110.7" style="enable-background:new 0 0 174.4 110.7;" xml:space="preserve">
<style type="text/css">
	.st0{fill:none;stroke:#7EC58E;stroke-width:3;stroke-linejoin:round;stroke-miterlimit:10;}
	.st1{fill:#CFE3F5;}
	.st2{fill:#5EA1D6;}
</style>
<g>
	<path class="st1" d="M83.8,22.2h-2.2v67.6H32.8v2.1c0,0.7,0.6,1.2,1.2,1.2h49.7c0.7,0,1.2-0.6,1.2-1.2V23.4
		C85,22.7,84.5,22.2,83.8,22.2z"/>
	<path class="st1" d="M144,22.2h-2.2v67.6H93.1v2.1c0,0.7,0.6,1.2,1.2,1.2H144c0.7,0,1.2-0.6,1.2-1.2V23.4
		C145.3,22.7,144.7,22.2,144,22.2z"/>
	<g>
		<g>
			<path class="st2" d="M81.4,90.9H31.7c-0.7,0-1.2-0.6-1.2-1.2V21.1c0-0.7,0.6-1.2,1.2-1.2h49.7c0.7,0,1.2,0.6,1.2,1.2v68.5
				C82.7,90.3,82.1,90.9,81.4,90.9z M32.9,88.4h47.3V22.3H32.9V88.4z"/>
		</g>
		<g>
			<path class="st2" d="M141.7,90.9H92c-0.7,0-1.2-0.6-1.2-1.2V21.1c0-0.7,0.6-1.2,1.2-1.2h49.7c0.7,0,1.2,0.6,1.2,1.2v68.5
				C142.9,90.3,142.4,90.9,141.7,90.9z M93.2,88.4h47.3V22.3H93.2V88.4z"/>
		</g>
		<path class="st2" d="M64.4,66c-0.2,0-0.4,0-0.6-0.1L56.6,62l-7.3,3.8c-0.4,0.2-0.9,0.2-1.3-0.1c-0.4-0.3-0.6-0.7-0.5-1.2l1.4-8.1
			L43,50.7c-0.3-0.3-0.5-0.8-0.3-1.3c0.1-0.4,0.5-0.8,1-0.8l8.1-1.2l3.6-7.4c0.4-0.8,1.8-0.8,2.2,0l3.6,7.4l8.1,1.2
			c0.5,0.1,0.9,0.4,1,0.8c0.1,0.4,0,0.9-0.3,1.3l-5.9,5.7l1.4,8.1c0.1,0.5-0.1,0.9-0.5,1.2C64.9,65.9,64.7,66,64.4,66z M56.6,59.4
			c0.2,0,0.4,0,0.6,0.1l5.6,3l-1.1-6.3c-0.1-0.4,0.1-0.8,0.4-1.1l4.6-4.4l-6.3-0.9c-0.4-0.1-0.8-0.3-0.9-0.7l-2.8-5.7l-2.8,5.7
			c-0.2,0.4-0.5,0.6-0.9,0.7l-6.3,0.9l4.6,4.4c0.3,0.3,0.4,0.7,0.4,1.1l-1.1,6.3l5.6-3C56.2,59.4,56.4,59.4,56.6,59.4z"/>
		<path class="st2" d="M71.5,37.7c-9-6.1-20.8-6.1-29.8,0c-0.2,0.2-0.5,0.1-0.7-0.1l-1-1.4c-0.2-0.2-0.1-0.6,0.1-0.7
			c9.9-6.7,23-6.7,33,0c0.2,0.2,0.3,0.5,0.1,0.7l-1,1.4C72,37.9,71.7,37.9,71.5,37.7z"/>
		<path class="st2" d="M68.1,75.8H45c-0.3,0-0.6-0.3-0.6-0.6v-1.4c0-0.3,0.3-0.6,0.6-0.6h23.1c0.3,0,0.6,0.3,0.6,0.6v1.4
			C68.7,75.5,68.5,75.8,68.1,75.8z"/>
		<path class="st2" d="M64.7,82H48.5c-0.3,0-0.6-0.3-0.6-0.6v-1.4c0-0.3,0.3-0.6,0.6-0.6h16.2c0.3,0,0.6,0.3,0.6,0.6v1.4
			C65.3,81.7,65,82,64.7,82z"/>
		<path class="st2" d="M115.4,42.6H99.1c-0.6,0-1-0.5-1-1V29.1c0-0.6,0.5-1,1-1h16.2c0.6,0,1,0.5,1,1v12.4
			C116.4,42.1,115.9,42.6,115.4,42.6z M100.2,40.5h14.1V30.1h-14.1V40.5z"/>
		<path class="st2" d="M134.7,30.7h-14.2c-0.4,0-0.7-0.3-0.7-0.7v-1.4c0-0.4,0.3-0.7,0.7-0.7h14.2c0.4,0,0.7,0.3,0.7,0.7V30
			C135.3,30.4,135.1,30.7,134.7,30.7z"/>
		<path class="st2" d="M134.6,36.6h-14.1c-0.4,0-0.7-0.3-0.7-0.7v-1.4c0-0.4,0.3-0.7,0.7-0.7h14.1c0.4,0,0.7,0.3,0.7,0.7v1.4
			C135.2,36.3,134.9,36.6,134.6,36.6z"/>
		<path class="st2" d="M132.8,42.5h-12.2c-0.4,0-0.7-0.3-0.7-0.7v-1.4c0-0.4,0.3-0.7,0.7-0.7h12.2c0.4,0,0.7,0.3,0.7,0.7v1.4
			C133.4,42.2,133.1,42.5,132.8,42.5z"/>
		<path class="st2" d="M117,81V68.6c0-0.6,0.5-1,1-1h16.2c0.6,0,1,0.5,1,1V81c0,0.6-0.5,1-1,1h-16.2C117.5,82.1,117,81.6,117,81z
			 M133.3,69.7h-14.1V80h14.1V69.7z"/>
		<path class="st2" d="M98.7,70.2h14.2c0.4,0,0.7-0.3,0.7-0.7v-1.4c0-0.4-0.3-0.7-0.7-0.7H98.7c-0.4,0-0.7,0.3-0.7,0.7v1.4
			C98.1,69.9,98.4,70.2,98.7,70.2z"/>
		<path class="st2" d="M98.9,76.1h14.1c0.4,0,0.7-0.3,0.7-0.7v-1.4c0-0.4-0.3-0.7-0.7-0.7H98.9c-0.4,0-0.7,0.3-0.7,0.7v1.4
			C98.2,75.8,98.5,76.1,98.9,76.1z"/>
		<path class="st2" d="M98.9,82h12.2c0.4,0,0.7-0.3,0.7-0.7V80c0-0.4-0.3-0.7-0.7-0.7H98.9c-0.4,0-0.7,0.3-0.7,0.7v1.4
			C98.2,81.7,98.5,82,98.9,82z"/>
		<g>
			<g>
				<path class="st2" d="M134.4,53.6H99.1c-0.3,0-0.6-0.3-0.6-0.6v-1.4c0-0.3,0.3-0.6,0.6-0.6h35.4c0.3,0,0.6,0.3,0.6,0.6V53
					C135,53.4,134.8,53.6,134.4,53.6z"/>
			</g>
			<g>
				<path class="st2" d="M128.1,60H99.1c-0.3,0-0.6-0.3-0.6-0.6v-1.4c0-0.3,0.3-0.6,0.6-0.6h29.1c0.3,0,0.6,0.3,0.6,0.6v1.4
					C128.7,59.7,128.5,60,128.1,60z"/>
			</g>
		</g>
	</g>
</g>
</svg>
