<?xml version="1.0" encoding="utf-8"?>
<!-- Generator: Adobe Illustrator 23.1.1, SVG Export Plug-In . SVG Version: 6.00 Build 0)  -->
<svg version="1.1" id="Layer_1" xmlns="http://www.w3.org/2000/svg" xmlns:xlink="http://www.w3.org/1999/xlink" x="0px" y="0px"
	 viewBox="0 0 174.4 110.7" style="enable-background:new 0 0 174.4 110.7;" xml:space="preserve">
<style type="text/css">
	.st0{fill:#CFE3F5;}
	.st1{fill:#5EA1D6;}
</style>
<path class="st0" d="M116.9,28.3c1,1.6,1.6,3.5,1.6,5.5v42.8c0,5.6-4.5,10.1-10.1,10.1H65.6c-2,0-3.9-0.6-5.5-1.6
	c1.8,2.9,5,4.9,8.7,4.9h41.9c6.2,0,11.1-5,11.1-11.1V37C121.8,33.3,119.8,30.1,116.9,28.3z"/>
<g>
	<path class="st1" d="M95.5,43.8L95.5,43.8c0-1.6,1.3-2.9,2.9-2.9h0c1.6,0,2.9,1.3,2.9,2.9v0c0,1.6-1.3,2.9-2.9,2.9h0
		C96.8,46.7,95.5,45.4,95.5,43.8z"/>
	<path class="st1" d="M108.9,87.6H65c-5.7,0-10.4-4.7-10.4-10.4V33.2c0-5.7,4.7-10.4,10.4-10.4h43.9c5.7,0,10.4,4.7,10.4,10.4v43.9
		C119.3,82.9,114.7,87.6,108.9,87.6z M65,25.8c-4.1,0-7.4,3.3-7.4,7.4v43.9c0,4.1,3.3,7.4,7.4,7.4h43.9c4.1,0,7.4-3.3,7.4-7.4V33.2
		c0-4.1-3.3-7.4-7.4-7.4H65z"/>
	<path class="st1" d="M97.2,76.5H76.7c-6.1,0-11-4.9-11-11V44.9c0-6.1,4.9-11,11-11h20.5c6.1,0,11,4.9,11,11v20.5
		C108.2,71.5,103.3,76.5,97.2,76.5z M76.7,36.9c-4.4,0-8,3.6-8,8v20.5c0,4.4,3.6,8,8,8h20.5c4.4,0,8-3.6,8-8V44.9c0-4.4-3.6-8-8-8
		H76.7z"/>
	<path class="st1" d="M87,65.2c-5.5,0-10-4.5-10-10s4.5-10,10-10s10,4.5,10,10S92.5,65.2,87,65.2z M87,48.2c-3.9,0-7,3.2-7,7
		s3.2,7,7,7s7-3.2,7-7S90.8,48.2,87,48.2z"/>
</g>
</svg>
