<?xml version="1.0" encoding="utf-8"?>
<!-- Generator: Adobe Illustrator 23.1.1, SVG Export Plug-In . SVG Version: 6.00 Build 0)  -->
<svg version="1.1" id="Layer_1" xmlns="http://www.w3.org/2000/svg" xmlns:xlink="http://www.w3.org/1999/xlink" x="0px" y="0px"
	 viewBox="0 0 174.4 110.7" style="enable-background:new 0 0 174.4 110.7;" xml:space="preserve">
<style type="text/css">
	.st0{fill:#CFE3F5;}
	.st1{fill:#5EA1D6;}
</style>
<path class="st0" d="M116.9,28.3c1,1.6,1.6,3.5,1.6,5.5v42.8c0,5.6-4.5,10.1-10.1,10.1H65.6c-2,0-3.9-0.6-5.5-1.6
	c1.8,2.9,5,4.9,8.7,4.9h41.9c6.2,0,11.1-5,11.1-11.1V37C121.8,33.3,119.8,30.1,116.9,28.3z"/>
<g>
	<g>
		<path class="st1" d="M108.9,87.8H65c-5.7,0-10.4-4.7-10.4-10.4V33.4C54.6,27.7,59.2,23,65,23h43.9c5.7,0,10.4,4.7,10.4,10.4v43.9
			C119.3,83.1,114.7,87.8,108.9,87.8z M65,26c-4.1,0-7.4,3.3-7.4,7.4v43.9c0,4.1,3.3,7.4,7.4,7.4h43.9c4.1,0,7.4-3.3,7.4-7.4V33.4
			c0-4.1-3.3-7.4-7.4-7.4H65z"/>
	</g>
	<g>
		<path class="st1" d="M74.4,78.1h-9c-0.7,0-1.2-0.6-1.2-1.2V48.2c0-0.7,0.6-1.2,1.2-1.2h9c0.7,0,1.2,0.6,1.2,1.2v28.7
			C75.7,77.6,75.1,78.1,74.4,78.1z M66.7,75.6h6.5V49.4h-6.5V75.6z"/>
		<path class="st1" d="M109.1,78.1h-9c-0.7,0-1.2-0.6-1.2-1.2V62.1c0,0-0.1-4.4-2.9-4.6c-1.3-0.1-2.2,0.1-2.9,0.8
			c-1.1,1-1.7,3.1-1.7,6.3v12.4c0,0.7-0.6,1.2-1.2,1.2h-9c-0.7,0-1.2-0.6-1.2-1.2V48.2c0-0.7,0.6-1.2,1.2-1.2h9
			c0.7,0,1.2,0.6,1.2,1.2v0.7c1.8-1.4,4.4-2.8,7.8-2.8c7.7,0,11.2,4.7,11.2,15.3v15.5C110.3,77.6,109.8,78.1,109.1,78.1z
			 M101.4,75.6h6.5V61.4c0-11.2-4.2-12.8-8.7-12.8c-4.2,0-6.9,2.5-8.1,4c-0.3,0.4-0.9,0.6-1.4,0.4c-0.5-0.2-0.8-0.6-0.8-1.2v-2.4
			h-6.5v26.2h6.5V64.5c0-3.9,0.8-6.6,2.5-8.1c1.2-1.1,2.8-1.6,4.8-1.4c4.1,0.3,5.2,4.8,5.2,7.1V75.6z"/>
		<path class="st1" d="M69.9,44.1c-3.3,0-6-2.7-6-6s2.7-6,6-6s6,2.7,6,6S73.2,44.1,69.9,44.1z M69.9,34.7c-1.9,0-3.5,1.6-3.5,3.5
			s1.6,3.5,3.5,3.5s3.5-1.6,3.5-3.5S71.9,34.7,69.9,34.7z"/>
	</g>
</g>
</svg>
