<?xml version="1.0" encoding="utf-8"?>
<!-- Generator: Adobe Illustrator 23.0.1, SVG Export Plug-In . SVG Version: 6.00 Build 0)  -->
<svg version="1.1" id="Layer_1" xmlns="http://www.w3.org/2000/svg" xmlns:xlink="http://www.w3.org/1999/xlink" x="0px" y="0px"
	 viewBox="0 0 183.2 130.8" style="enable-background:new 0 0 183.2 130.8;" xml:space="preserve">
<style type="text/css">
	.st0{fill:#CBCBCB;}
</style>
<g>
	<path class="st0" d="M51.1,65.2l40.6,40.6l40.6-40.6L91.7,24.6L51.1,65.2z M91.7,101.4l-7.3-7.3l7.2-7.2l0.1,0.1l0.1-0.1l7.2,7.2
		L91.7,101.4z M74.2,65.2l17.5-17.5l17.5,17.5L91.7,82.7L74.2,65.2z M91.7,43.3l-0.2,0.2l-7.2-7.2l7.4-7.4l7.4,7.4l-7.2,7.2
		L91.7,43.3z M82.8,37.8L90,45L69.8,65.2l20.3,20.3l-7.2,7.2L55.4,65.2L82.8,37.8z M100.4,92.7l-7.2-7.2l20.3-20.3L93.3,45l7.2-7.2
		l27.4,27.4L100.4,92.7z"/>
	
		<rect x="72.7" y="118.4" transform="matrix(0.7071 -0.7071 0.7071 0.7071 -62.2792 88.5833)" class="st0" width="6.2" height="2.1"/>
	
		<rect x="81.5" y="109.7" transform="matrix(0.7071 -0.7071 0.7071 0.7071 -53.5109 92.2152)" class="st0" width="6.2" height="2.1"/>
	
		<rect x="134.1" y="57.1" transform="matrix(0.7071 -0.7071 0.7071 0.7071 -0.901 114.0066)" class="st0" width="6.2" height="2.1"/>
	
		<rect x="142.8" y="48.3" transform="matrix(0.7071 -0.7071 0.7071 0.7071 7.8658 117.6357)" class="st0" width="6.2" height="2.1"/>
	<rect x="72" y="100.7" transform="matrix(0.7071 -0.7071 0.7071 0.7071 -49.9692 82.8726)" class="st0" width="6.2" height="2.1"/>
	
		<rect x="133.3" y="39.3" transform="matrix(0.7071 -0.7071 0.7071 0.7071 11.4091 108.2964)" class="st0" width="6.2" height="2.1"/>
	
		<rect x="124.6" y="48.1" transform="matrix(0.7071 -0.7071 0.7071 0.7071 2.6409 104.6644)" class="st0" width="6.2" height="2.1"/>
	
		<rect x="63.2" y="109.5" transform="matrix(0.7071 -0.7071 0.7071 0.7071 -58.7374 79.2407)" class="st0" width="6.2" height="2.1"/>
	<rect x="105" y="28" transform="matrix(0.7071 -0.7071 0.7071 0.7071 11.1345 84.9497)" class="st0" width="6.2" height="2.1"/>
	
		<rect x="52.4" y="80.6" transform="matrix(0.7071 -0.7071 0.7071 0.7071 -41.4756 63.1579)" class="st0" width="6.2" height="2.1"/>
	
		<rect x="43.6" y="89.4" transform="matrix(0.7071 -0.7071 0.7071 0.7071 -50.2438 59.5259)" class="st0" width="6.2" height="2.1"/>
	
		<rect x="113.8" y="19.2" transform="matrix(0.7071 -0.7071 0.7071 0.7071 19.9027 88.5816)" class="st0" width="6.2" height="2.1"/>
	
		<rect x="34.1" y="80.4" transform="matrix(0.7071 -0.7071 0.7071 0.7071 -46.7013 50.1843)" class="st0" width="6.2" height="2.1"/>
	<rect x="42.9" y="71.7" transform="matrix(0.7071 -0.7071 0.7071 0.7071 -37.9334 53.818)" class="st0" width="6.2" height="2.1"/>
	<rect x="95.5" y="19.1" transform="matrix(0.7071 -0.7071 0.7071 0.7071 14.678 75.6095)" class="st0" width="6.2" height="2.1"/>
	
		<rect x="104.3" y="10.3" transform="matrix(0.7071 -0.7071 0.7071 0.7071 23.4451 79.2396)" class="st0" width="6.2" height="2.1"/>
	
		<rect x="106.6" y="116.6" transform="matrix(0.7071 -0.7071 0.7071 0.7071 -53.1446 111.1955)" class="st0" width="2.1" height="6.2"/>
	
		<rect x="97.9" y="107.9" transform="matrix(0.7071 -0.7071 0.7071 0.7071 -49.5127 102.4272)" class="st0" width="2.1" height="6.2"/>
	
		<rect x="45.2" y="55.3" transform="matrix(0.7071 -0.7071 0.7071 0.7071 -27.7208 49.8175)" class="st0" width="2.1" height="6.2"/>
	
		<rect x="36.5" y="46.5" transform="matrix(0.7071 -0.7071 0.7071 0.7071 -24.0888 41.0493)" class="st0" width="2.1" height="6.2"/>
	
		<rect x="54.2" y="45.8" transform="matrix(0.7071 -0.7071 0.7071 0.7071 -18.3786 53.3594)" class="st0" width="2.1" height="6.2"/>
	<rect x="45.4" y="37" transform="matrix(0.7071 -0.7071 0.7071 0.7071 -14.7467 44.5908)" class="st0" width="2.1" height="6.2"/>
	
		<rect x="106.8" y="98.4" transform="matrix(0.7071 -0.7071 0.7071 0.7071 -40.1704 105.9695)" class="st0" width="2.1" height="6.2"/>
	
		<rect x="115.6" y="107.1" transform="matrix(0.7071 -0.7071 0.7071 0.7071 -43.8023 114.7389)" class="st0" width="2.1" height="6.2"/>
	
		<rect x="135.7" y="87.6" transform="matrix(0.7071 -0.7071 0.7071 0.7071 -24.0875 123.2313)" class="st0" width="2.1" height="6.2"/>
	<rect x="74.3" y="26.2" transform="matrix(0.7071 -0.7071 0.7071 0.7071 1.336 61.8525)" class="st0" width="2.1" height="6.2"/>
	<rect x="65.5" y="17.4" transform="matrix(0.7071 -0.7071 0.7071 0.7071 4.9679 53.0843)" class="st0" width="2.1" height="6.2"/>
	
		<rect x="126.9" y="78.8" transform="matrix(0.7071 -0.7071 0.7071 0.7071 -20.4556 114.4631)" class="st0" width="2.1" height="6.2"/>
	
		<rect x="144.6" y="78.1" transform="matrix(0.7071 -0.7071 0.7071 0.7071 -14.7455 126.7725)" class="st0" width="2.1" height="6.2"/>
	
		<rect x="135.9" y="69.3" transform="matrix(0.7071 -0.7071 0.7071 0.7071 -11.1133 118.0053)" class="st0" width="2.1" height="6.2"/>
	<rect x="83.2" y="16.7" transform="matrix(0.7071 -0.7071 0.7071 0.7071 10.6782 65.3954)" class="st0" width="2.1" height="6.2"/>
	<rect x="74.5" y="7.9" transform="matrix(0.7071 -0.7071 0.7071 0.7071 14.3101 56.6272)" class="st0" width="2.1" height="6.2"/>
</g>
</svg>
