<?xml version="1.0" encoding="utf-8"?>
<!-- Generator: Adobe Illustrator 24.1.0, SVG Export Plug-In . SVG Version: 6.00 Build 0)  -->
<svg version="1.1" id="Layer_1" xmlns="http://www.w3.org/2000/svg" xmlns:xlink="http://www.w3.org/1999/xlink" x="0px" y="0px"
	 viewBox="0 0 174.4 110.7" style="enable-background:new 0 0 174.4 110.7;" xml:space="preserve">
<style type="text/css">
	.st0{fill:#E0DFDF;}
	.st1{fill:#CACAC9;}
</style>
<path class="st0" d="M115.7,22.4h-2.8v65c0,0.8-0.6,1.4-1.4,1.4H59.2v2.8c0,0.8,0.6,1.4,1.4,1.4h55.1c0.8,0,1.4-0.6,1.4-1.4V23.8
	C117.2,23,116.5,22.4,115.7,22.4z"/>
<g>
	<path class="st1" d="M58,89.6c-0.8,0-1.4-0.6-1.4-1.4V20.4c0-0.8,0.6-1.4,1.4-1.4h55.1c0.8,0,1.4,0.6,1.4,1.4v67.8
		c0,0.8-0.6,1.4-1.4,1.4C113.1,89.6,58,89.6,58,89.6z M111.7,86.7V21.8H59v64.9H111.7z"/>
	<path class="st1" d="M67,31.2c-0.8,0-0.9-0.4-0.9-1v-1.7c0-0.5,0.1-1,0.9-1h37.5c0.8,0,0.8,0.4,0.8,1v1.7c0,0.5-0.1,1-0.8,1H67z"/>
	<path class="st1" d="M67.2,73.9c-0.5,0-0.9-0.4-0.9-0.9v-1.4c0-0.5,0.4-0.9,0.9-0.9h23c0.5,0,0.9,0.4,0.9,0.9V73
		c0,0.5-0.4,0.9-0.9,0.9H67.2z"/>
	<path class="st1" d="M67.2,80c-0.5,0-0.9-0.4-0.9-0.9v-1.4c0-0.5,0.4-0.9,0.9-0.9h13c0.5,0,0.9,0.4,0.9,0.9v1.4
		c0,0.5-0.4,0.9-0.9,0.9H67.2z"/>
	<path class="st1" d="M98.9,80c-0.5,0-0.9-0.4-0.9-0.9v-1.4c0-0.5,0.4-0.9,0.9-0.9h5.5c0.5,0,0.9,0.4,0.9,0.9v1.4
		c0,0.5-0.4,0.9-0.9,0.9H98.9z"/>
	<path class="st1" d="M67.2,38.3c-0.5,0-0.9-0.4-0.9-0.9V36c0-0.5,0.4-0.9,0.9-0.9h13c0.5,0,0.9,0.4,0.9,0.9v1.4
		c0,0.5-0.4,0.9-0.9,0.9H67.2z"/>
	<path class="st1" d="M67.2,55.8c-0.5,0-0.9-0.4-0.9-0.9v-1.4c0-0.5,0.4-0.9,0.9-0.9h8c0.5,0,0.9,0.4,0.9,0.9v1.4
		c0,0.5-0.4,0.9-0.9,0.9H67.2z"/>
	<path class="st1" d="M67.2,62c-0.5,0-0.9-0.4-0.9-0.9v-1.4c0-0.5,0.4-0.9,0.9-0.9h6c0.5,0,0.9,0.4,0.9,0.9v1.4
		c0,0.5-0.4,0.9-0.9,0.9H67.2z"/>
	<path class="st1" d="M82.9,64.7c-0.3,0-0.7-0.1-0.9-0.3c-0.5-0.3-0.7-1-0.7-1.6l1.4-8.4l-6.1-5.9c-0.5-0.5-0.6-1-0.5-1.6
		c0.2-0.6,0.7-1,1.3-1.2l8.4-1.3l3.8-7.6c0.2-0.6,0.8-0.8,1.5-0.8c0.7,0,1.2,0.3,1.5,0.8l3.8,7.6l8.4,1.3c0.6,0.1,1.2,0.5,1.3,1.2
		c0.2,0.6,0,1.3-0.5,1.6l-6.1,5.9l1.4,8.4c0.1,0.6-0.1,1.3-0.7,1.6c-0.2,0.2-0.6,0.3-0.9,0.3c-0.2,0-0.6-0.1-0.8-0.2L91,60.5
		l-7.5,3.9C83.5,64.7,83.3,64.7,82.9,64.7z M91.2,57.1c0.3,0,0.6,0.1,0.9,0.3l5.7,3l-1.1-6.3c-0.1-0.6,0.1-1.1,0.5-1.5l4.6-4.6
		l-6.3-0.9c-0.6-0.1-1.1-0.5-1.4-1L91,40.3L88.4,46c-0.3,0.5-0.8,0.9-1.4,1l-6.3,0.9l4.6,4.6c0.4,0.4,0.6,1,0.5,1.5l-1.1,6.3l5.7-3
		C90.5,57.2,90.9,57.1,91.2,57.1z"/>
</g>
<rect x="60.2" y="20.7" class="st1" width="1" height="66.4"/>
</svg>
