<?xml version="1.0" encoding="utf-8"?>
<!-- Generator: Adobe Illustrator 24.1.0, SVG Export Plug-In . SVG Version: 6.00 Build 0)  -->
<svg version="1.1" id="Layer_1" xmlns="http://www.w3.org/2000/svg" xmlns:xlink="http://www.w3.org/1999/xlink" x="0px" y="0px"
	 viewBox="0 0 174.4 110.7" style="enable-background:new 0 0 174.4 110.7;" xml:space="preserve">
<style type="text/css">
	.st0{fill:#5EA2D7;}
</style>
<g>
	<rect x="77.2" y="88.8" class="st0" width="4" height="1.7"/>
	<rect x="85.2" y="88.8" class="st0" width="4" height="1.7"/>
	<rect x="61.2" y="88.8" class="st0" width="4" height="1.7"/>
	<rect x="69.2" y="88.8" class="st0" width="4" height="1.7"/>
	<rect x="93.2" y="88.8" class="st0" width="4" height="1.7"/>
	<rect x="101.2" y="88.8" class="st0" width="4" height="1.7"/>
	<rect x="109.2" y="88.8" class="st0" width="4" height="1.7"/>
	<rect x="85.2" y="19.7" class="st0" width="4" height="1.7"/>
	<rect x="93.2" y="19.7" class="st0" width="4" height="1.7"/>
	<rect x="77.2" y="19.7" class="st0" width="4" height="1.7"/>
	<rect x="101.2" y="19.7" class="st0" width="4" height="1.7"/>
	<rect x="61.2" y="19.7" class="st0" width="4" height="1.7"/>
	<rect x="69.2" y="19.7" class="st0" width="4" height="1.7"/>
	<rect x="109.2" y="19.7" class="st0" width="4" height="1.7"/>
	<path class="st0" d="M131.2,19.1h-8.9l-3.7-10.6c-0.2-0.6-0.8-1-1.4-1H56.8c-0.6,0-1.2,0.4-1.4,1l-3.7,10.6h-8.9
		c-0.8,0-1.5,0.7-1.5,1.5v69.1c0,0.8,0.7,1.5,1.5,1.5h8.9l3.7,10.6c0.2,0.6,0.8,1,1.4,1h60.4c0.6,0,1.2-0.4,1.4-1l3.7-10.6h8.9
		c0.8,0,1.5-0.7,1.5-1.5V20.6C132.7,19.7,132,19.1,131.2,19.1z M44.3,22.1h7.4v66.1h-7.4V22.1z M116.1,99.7H57.8l-3.2-9.3h2.6v-1.7
		h-3.5V21.4h3.5v-1.7h-2.6l3.2-9.3h58.3l3.2,9.3h-2.1v1.7h3v67.4h-3v1.7h2.1L116.1,99.7z M129.7,88.1h-7.4V22.1h7.4V88.1z"/>
	<path class="st0" d="M103.7,47.8l-10.8-1.5l-4.8-10c-0.4-1.1-2.4-1.1-2.8,0l-4.8,10l-10.8,1.5c-0.6,0-1.1,0.4-1.3,1.1
		c-0.2,0.6,0,1.3,0.4,1.7l7.8,7.6l-1.7,10.8c0,0.6,0,1.3,0.6,1.5c0.4,0.4,1.3,0.4,1.7,0l9.7-5.2l10,5.2c0.2,0,0.4,0.2,0.6,0.2
		s0.6,0,0.9-0.2c0.4-0.4,0.6-1.1,0.6-1.5l-1.7-10.8l7.8-7.6c0.4-0.4,0.6-1.1,0.4-1.7C105.2,48.1,104.4,48,103.7,47.8z M94,56.5
		c-0.5,0.5-0.5,0.8-0.5,1.3l1.3,8.1L87.7,62c0,0-0.3-0.3-0.5-0.3s-0.5,0-0.8,0.3l-7.3,3.8l1.3-8.1c0-0.5,0-1-0.5-1.3l-5.8-5.8
		l8.1-1.3c0.5,0,1-0.5,1.3-0.8l3.5-7.3l3.5,7.3c0.3,0.5,0.8,0.8,1.3,0.8l8.1,1.3L94,56.5z"/>
</g>
</svg>
