<?xml version="1.0" encoding="utf-8"?>
<!-- Generator: Adobe Illustrator 24.1.0, SVG Export Plug-In . SVG Version: 6.00 Build 0)  -->
<svg version="1.1" id="Layer_1" xmlns="http://www.w3.org/2000/svg" xmlns:xlink="http://www.w3.org/1999/xlink" x="0px" y="0px"
	 viewBox="0 0 174.4 110.7" style="enable-background:new 0 0 174.4 110.7;" xml:space="preserve">
<style type="text/css">
	.st0{fill:#CACACA;}
	.st1{fill:#CACAC9;}
	.st2{fill:#E2E2E2;}
</style>
<g>
	<g>
		<path class="st0" d="M112.8,24.3H79.2c-0.5,0-0.8-0.4-0.8-0.8v-2c0-0.5,0.4-0.8,0.8-0.8h33.6c0.5,0,0.8,0.4,0.8,0.8v2
			C113.6,23.9,113.3,24.3,112.8,24.3z"/>
	</g>
	<g>
		<path class="st0" d="M89.6,43.4H60c-0.5,0-0.8-0.4-0.8-0.8v-2c0-0.5,0.4-0.8,0.8-0.8h29.6c0.5,0,0.8,0.4,0.8,0.8v2
			C90.5,43,90.1,43.4,89.6,43.4z"/>
		<path class="st0" d="M86.6,63H60c-0.5,0-0.8-0.4-0.8-0.8v-2c0-0.5,0.4-0.8,0.8-0.8h26.6c0.5,0,0.8,0.4,0.8,0.8v2
			C87.5,62.6,87.1,63,86.6,63z"/>
		<path class="st0" d="M93.6,72.7H60c-0.5,0-0.8-0.4-0.8-0.8v-2c0-0.5,0.4-0.8,0.8-0.8h33.6c0.5,0,0.8,0.4,0.8,0.8v2
			C94.5,72.4,94.1,72.7,93.6,72.7z"/>
		<path class="st0" d="M79.9,53.2H60c-0.5,0-0.8-0.4-0.8-0.8v-2c0-0.5,0.4-0.8,0.8-0.8h19.9c0.5,0,0.8,0.4,0.8,0.8v2
			C80.7,52.8,80.4,53.2,79.9,53.2z"/>
		<path class="st0" d="M80.9,82.5H60c-0.5,0-0.8-0.4-0.8-0.8v-2c0-0.5,0.4-0.8,0.8-0.8h20.9c0.5,0,0.8,0.4,0.8,0.8v2
			C81.7,82.2,81.4,82.5,80.9,82.5z"/>
		<path class="st0" d="M90.9,92.3H60c-0.5,0-0.8-0.4-0.8-0.8v-2c0-0.5,0.4-0.8,0.8-0.8h30.9c0.5,0,0.8,0.4,0.8,0.8v2
			C91.8,91.9,91.4,92.3,90.9,92.3z"/>
	</g>
</g>
<path class="st1" d="M74.6,18.4l-5-0.7l-2.2-4.6c-0.2-0.5-1.1-0.5-1.3,0l-2.2,4.6l-5,0.7c-0.3,0-0.5,0.2-0.6,0.5
	c-0.1,0.3,0,0.6,0.2,0.8l3.6,3.5l-0.8,5c0,0.3,0,0.6,0.3,0.7c0.2,0.2,0.6,0.2,0.8,0l4.5-2.4l4.6,2.4c0.1,0,0.2,0.1,0.3,0.1
	c0.1,0,0.3,0,0.4-0.1c0.2-0.2,0.3-0.5,0.3-0.7l-0.8-5l3.6-3.5c0.2-0.2,0.3-0.5,0.2-0.8C75.1,18.7,74.9,18.5,74.6,18.4z M69.5,22.1
	c-0.2,0.2-0.2,0.3-0.2,0.5l0.5,3.2L67,24.3c0,0-0.1-0.1-0.2-0.1c-0.1,0-0.2,0-0.3,0.1l-2.9,1.5l0.5-3.2c0-0.2,0-0.4-0.2-0.5
	l-2.3-2.3l3.2-0.5c0.2,0,0.4-0.2,0.5-0.3l1.4-2.9l1.4,2.9c0.1,0.2,0.3,0.3,0.5,0.3l3.2,0.5L69.5,22.1z"/>
<g>
	<path class="st0" d="M112.8,82.5h-7.8c-0.5,0-0.8-0.4-0.8-0.8v-2c0-0.5,0.4-0.8,0.8-0.8h7.8c0.5,0,0.8,0.4,0.8,0.8v2
		C113.7,82.2,113.3,82.5,112.8,82.5z"/>
	<path class="st0" d="M112.8,72.8h-7.8c-0.5,0-0.8-0.4-0.8-0.8v-2c0-0.5,0.4-0.8,0.8-0.8h7.8c0.5,0,0.8,0.4,0.8,0.8v2
		C113.7,72.5,113.3,72.8,112.8,72.8z"/>
	<path class="st0" d="M112.8,63.2h-7.8c-0.5,0-0.8-0.4-0.8-0.8v-2c0-0.5,0.4-0.8,0.8-0.8h7.8c0.5,0,0.8,0.4,0.8,0.8v2
		C113.7,62.8,113.3,63.2,112.8,63.2z"/>
	<path class="st0" d="M112.8,53.5h-7.8c-0.5,0-0.8-0.4-0.8-0.8v-2c0-0.5,0.4-0.8,0.8-0.8h7.8c0.5,0,0.8,0.4,0.8,0.8v2
		C113.7,53.1,113.3,53.5,112.8,53.5z"/>
	<path class="st0" d="M112.8,43.4h-7.8c-0.5,0-0.8-0.4-0.8-0.8v-2c0-0.5,0.4-0.8,0.8-0.8h7.8c0.5,0,0.8,0.4,0.8,0.8v2
		C113.7,43,113.3,43.4,112.8,43.4z"/>
	<path class="st0" d="M112.8,92.3h-7.8c-0.5,0-0.8-0.4-0.8-0.8v-2c0-0.5,0.4-0.8,0.8-0.8h7.8c0.5,0,0.8,0.4,0.8,0.8v2
		C113.7,91.9,113.3,92.3,112.8,92.3z"/>
</g>
<g>
	<path class="st2" d="M124.6,10.9H122v91.7H56.1v2.6c0,1.4,1.1,2.4,2.5,2.4h66c1.4,0,2.4-1.1,2.4-2.4V13.3
		C127,12,125.9,10.9,124.6,10.9z"/>
	<g>
		<path class="st0" d="M122,104H51.1c-0.8,0-1.5-0.7-1.5-1.5V5.9c0-0.8,0.7-1.5,1.5-1.5H122c0.8,0,1.5,0.7,1.5,1.5v96.7
			C123.5,103.4,122.8,104,122,104z M52.6,101h67.9V7.4H52.6V101z"/>
	</g>
</g>
</svg>
