<?xml version="1.0" encoding="utf-8"?>
<!-- Generator: Adobe Illustrator 23.0.1, SVG Export Plug-In . SVG Version: 6.00 Build 0)  -->
<svg version="1.1" id="Layer_1" xmlns="http://www.w3.org/2000/svg" xmlns:xlink="http://www.w3.org/1999/xlink" x="0px" y="0px"
	 viewBox="0 0 183.2 130.8" style="enable-background:new 0 0 183.2 130.8;" xml:space="preserve">
<style type="text/css">
	.st0{fill:#E0DFDF;}
	.st1{fill:#CBCBCB;}
	.st2{fill:none;stroke:#7FC690;stroke-width:3;stroke-linejoin:round;stroke-miterlimit:10;}
</style>
<g>
	<rect x="159.9" y="27.3" class="st0" width="2.6" height="86.3"/>
	<path class="st0" d="M46.4,92.2c0,0,0,20-6.2,20l7.1,1.4c0,0,0.8-18.9,0.6-18.7C47.6,95.1,46.4,92.2,46.4,92.2z"/>
	<g>
		<path class="st0" d="M49,49l-3.5-5.8c-1.5-2.5-2.3-5.6-2.3-8.8V17.2c0-0.8-0.7-1.5-1.7-1.5h-4.8l0.3,2v16.7
			c0,4.1,1.1,8.1,3.1,11.4l3.5,5.8c0.9,1.4,1.4,3.3,1.4,5.2v56.2c0,0.1-1.5-0.1-3.6-0.4v2.5h4.1c3.1,0,5.5-2.8,5.5-6.5V56.8
			C51.1,54,50.4,51.2,49,49z"/>
		<path class="st1" d="M49,49l-3.5-5.8c-1.5-2.5-2.3-5.6-2.3-8.8V17.2c0-0.8-0.7-1.5-1.7-1.5H30.1c-0.9,0-1.6,0.6-1.7,1.5l-0.3,17.1
			c0,3.3-0.9,6.5-2.5,9l-3.7,5.7c-1.5,2.3-2.3,5.1-2.3,8v51.6c0,3.6,2.4,6.5,5.5,6.5h20.3c3.1,0,5.5-2.8,5.5-6.5V56.8
			C51.1,54,50.4,51.2,49,49z M47.8,108.6c0,2-1.2,3.5-2.2,3.5H25.2c-1.1,0-2.2-1.5-2.2-3.5V56.9c0-2.4,0.7-4.7,1.8-6.6l3.7-5.7
			c1.9-2.9,2.9-6.6,3-10.4l0.2-15.6h8.2v15.8c0,3.7,1,7.3,2.7,10.2l3.5,5.8c1.1,1.8,1.7,4,1.7,6.3V108.6z"/>
	</g>
	<path class="st1" d="M49.5,82.1H21.4c-0.9,0-1.7-0.7-1.7-1.6V59c0-0.9,0.7-1.6,1.7-1.6h28.1c0.9,0,1.7,0.7,1.7,1.6v21.5
		C51.1,81.4,50.4,82.1,49.5,82.1z M23,78.9h24.8V60.6H23V78.9z"/>
	<g>
		<path class="st1" d="M42,71.1H28.9c-0.5,0-0.9-0.4-0.9-0.8v-1.2c0-0.5,0.4-0.8,0.9-0.8H42c0.5,0,0.9,0.4,0.9,0.8v1.2
			C42.9,70.8,42.5,71.1,42,71.1z"/>
	</g>
	<g>
		<path class="st1" d="M41.5,27.3H30.1c-0.9,0-1.7-0.7-1.7-1.5v-8.6c0-0.8,0.7-1.5,1.7-1.5h11.5c0.9,0,1.7,0.7,1.7,1.5v8.6
			C43.2,26.6,42.4,27.3,41.5,27.3z M31.7,24.3h8.1v-5.7h-8.1V24.3z"/>
	</g>
	<path class="st0" d="M39.3,16"/>
	<rect x="21.2" y="98.1" class="st1" width="29.4" height="3"/>
	<path class="st0" d="M101.1,105.2c0,0-3.9,6.9-7.5,6.9c-2.5,0,5.6,1.4,5.6,1.4s5.5-7.3,5.2-7.3
		C104.2,106.2,101.1,105.2,101.1,105.2z"/>
	<path class="st0" d="M105.3,52.2l-4-5.9c-0.3-0.4-0.7-0.6-1.2-0.6h-6.2v1.9l1.5-0.3l3.9,5.7l1.7,2.4c0.1,0.1,0.2,0.2,0.2,0.3
		c0.1,0.1-0.8-0.3-0.8-0.2l0,0.7v48.9l-1,2.8l-3.5,5.1l4.5,2c0.5,0,0.9-0.2,1.2-0.6l4.8-6.8c0.3-0.4,0.5-1,0.5-1.5V56.2
		C106.8,54.8,106.3,53.3,105.3,52.2z"/>
	<path class="st1" d="M105.3,52.2l-4-5.9c-0.3-0.4-0.7-0.6-1.2-0.6H74.3c-0.5,0-1,0.2-1.2,0.6l-4,5.9c-0.9,1.1-1.5,2.6-1.5,4v49.8
		c0,0.6,0.2,1.1,0.5,1.5l4.7,6.8c0.3,0.4,0.7,0.6,1.2,0.6h26.2c0.5,0,0.9-0.2,1.2-0.6l4.8-6.8c0.3-0.4,0.5-1,0.5-1.5V56.2
		C106.8,54.8,106.3,53.3,105.3,52.2z M99.5,112H74.9l-2.9-4.1l-1.4-2V56.2c0-0.1,0-0.2,0-0.3c0.1-0.7,0.3-1.4,0.8-1.9
		c0,0,0.1-0.1,0.1-0.1l0.7-1l2.9-4.3h24.2l2.9,4.3l0.7,1c0,0,0.1,0.1,0.1,0.1c0.4,0.5,0.7,1.2,0.8,1.9c0,0.1,0,0.2,0,0.3v49.7
		l-1.4,2L99.5,112z"/>
	<rect x="69.1" y="104.9" class="st1" width="36.2" height="3"/>
	<rect x="69.1" y="53" class="st1" width="36.2" height="3"/>
	<path class="st1" d="M96,79H78.4c-0.3,0-0.6-0.4-0.6-0.8V77c0-0.5,0.3-0.8,0.6-0.8H96c0.3,0,0.6,0.4,0.6,0.8v1.2
		C96.6,78.7,96.4,79,96,79z"/>
	<path class="st1" d="M105.3,89.1H69.1c-0.8,0-1.5-0.7-1.5-1.5V67.1c0-0.8,0.7-1.5,1.5-1.5h36.2c0.8,0,1.5,0.7,1.5,1.5v20.5
		C106.8,88.4,106.1,89.1,105.3,89.1z M70.6,86.1h33.2V68.6H70.6V86.1z"/>
	<path class="st1" d="M164,115.1h-39.1c-0.8,0-1.5-0.7-1.5-1.5V25.9c0-0.8,0.7-1.5,1.5-1.5H164c0.8,0,1.5,0.7,1.5,1.5v87.7
		C165.5,114.4,164.8,115.1,164,115.1z M126.3,112.1h36.1V27.4h-36.1V112.1z"/>
	<path class="st2" d="M164,82.4"/>
	<path class="st2" d="M124.8,82.4"/>
	
		<rect x="121.6" y="77.9" transform="matrix(0.8576 -0.5143 0.5143 0.8576 -20.2939 85.5723)" class="st1" width="45.7" height="3"/>
	<rect x="133.1" y="62.2" transform="matrix(0.5143 -0.8576 0.8576 0.5143 2.2922 151.1763)" class="st1" width="3" height="22.8"/>
	<path class="st1" d="M153.8,48.7h-18.8c-0.4,0-0.6-0.4-0.6-0.8v-1.2c0-0.5,0.3-0.8,0.6-0.8h18.8c0.4,0,0.6,0.4,0.6,0.8v1.2
		C154.4,48.4,154.1,48.7,153.8,48.7z"/>
	<path class="st1" d="M164,58h-39.1c-0.8,0-1.5-0.7-1.5-1.5V38.2c0-0.8,0.7-1.5,1.5-1.5H164c0.8,0,1.5,0.7,1.5,1.5v18.3
		C165.5,57.3,164.8,58,164,58z M126.3,55h36.1V39.7h-36.1V55z"/>
</g>
</svg>
