<?xml version="1.0" encoding="utf-8"?>
<!-- Generator: Adobe Illustrator 23.1.1, SVG Export Plug-In . SVG Version: 6.00 Build 0)  -->
<svg version="1.1" id="Layer_1" xmlns="http://www.w3.org/2000/svg" xmlns:xlink="http://www.w3.org/1999/xlink" x="0px" y="0px"
	 viewBox="0 0 174.4 110.7" style="enable-background:new 0 0 174.4 110.7;" xml:space="preserve">
<style type="text/css">
	.st0{fill:#CFE3F5;}
	.st1{fill:#5EA1D6;}
</style>
<g>
	<rect x="103.5" y="16.8" class="st0" width="2.4" height="7.5"/>
	<rect x="71.4" y="16.8" class="st0" width="2.4" height="7.5"/>
	<path class="st0" d="M117.6,22h-1.9v78.2H59.1v2.2c0,0.7,0.6,1.2,1.2,1.2h57.2c0.7,0,1.2-0.6,1.2-1.2V23.2
		C118.8,22.5,118.3,22,117.6,22z"/>
	<path class="st0" d="M106.4,20.4v5h-6.8v1.1c0,0.6,0.4,1,1,1h7c0.6,0,1-0.4,1-1v-6H106.4z"/>
	<path class="st0" d="M74,20.5v4.8h-6.6v1.1c0,0.6,0.4,1,1,1h7c0.6,0,1-0.4,1-1v-5.9H74z"/>
	<g>
		<path class="st1" d="M104.5,83.4h-36c-0.3,0-0.6,0.3-0.6,0.6v1.3c0,0.3,0.3,0.6,0.6,0.6h36c0.3,0,0.6-0.3,0.6-0.6V84
			C105.1,83.7,104.8,83.4,104.5,83.4z"/>
		<path class="st1" d="M95.4,88.8H77.5c-0.3,0-0.6,0.3-0.6,0.6v1.3c0,0.3,0.3,0.6,0.6,0.6h17.9c0.3,0,0.6-0.3,0.6-0.6v-1.3
			C96,89,95.8,88.8,95.4,88.8z"/>
		<path class="st1" d="M68.1,70c0.2,0.4,0.6,0.7,1.1,0.7h34.4c0.5,0,0.9-0.3,1.1-0.7s0.1-1-0.2-1.3L91.8,54.1
			c-0.2-0.3-0.6-0.4-0.9-0.4s-0.7,0.2-0.9,0.4l-5.7,6.5l-3.4-3.9c-0.5-0.5-1.4-0.5-1.9,0l-10.5,12C68,69,67.9,69.6,68.1,70z
			 M82.5,62.5l-5.1,5.8H72l7.8-8.8L82.5,62.5z M80.8,68.2l10.1-11.5l10.1,11.5H80.8z"/>
		<path class="st1" d="M78.2,50.9c0-2.6-2.1-4.6-4.6-4.6c-2.6,0-4.6,2.1-4.6,4.6s2.1,4.6,4.6,4.6C76.1,55.5,78.2,53.4,78.2,50.9z
			 M73.5,48.8c1.2,0,2.1,1,2.1,2.1s-1,2.1-2.1,2.1c-1.2,0-2.1-1-2.1-2.1S72.3,48.8,73.5,48.8z"/>
		<path class="st1" d="M67.3,38.4L67.3,38.4l0.2,0.4c0.2,0.4,0.7,0.5,1,0.3c0.5-0.2,1-0.5,1.5-0.7c4.4-1.9,10.4-2.9,16.7-2.9
			c6.3,0,12.3,1.1,16.7,2.9c0.5,0.2,1.1,0.5,1.5,0.7c0.4,0.2,0.8,0.1,1-0.3l0.4-0.8c0.2-0.4,0.1-0.9-0.3-1.1c-4.8-2.5-11.8-4-19.4-4
			c-7.6,0-14.6,1.4-19.4,4c-0.4,0.2-0.5,0.7-0.3,1.1L67.3,38.4z"/>
		<path class="st1" d="M115.1,19.5h-8v-2.9c0-0.6-0.4-1-1-1H104V6.3c0-0.3-0.3-0.6-0.7-0.6h-1.5c-0.4,0-0.7,0.3-0.7,0.6v9.2H99
			c-0.6,0-1,0.4-1,1v2.9H74.9v-2.9c0-0.6-0.4-1-1-1h-2.1V6.3c0-0.3-0.3-0.6-0.7-0.6h-1.5c-0.4,0-0.7,0.3-0.7,0.6v9.2h-2.1
			c-0.6,0-1,0.4-1,1v2.9h-8c-0.7,0-1.2,0.6-1.2,1.2v79.2c0,0.7,0.6,1.2,1.2,1.2h57.2c0.7,0,1.2-0.6,1.2-1.2V20.7
			C116.3,20,115.8,19.5,115.1,19.5z M67.8,19.5v-1.9h5v1.9v0V22v0v1.9h-5V22v0V19.5L67.8,19.5z M100,19.5v-1.9h5v1.9v0V22v0v1.9h-5
			V22v0V19.5L100,19.5z M66.8,25.9h7c0.6,0,1-0.4,1-1V22H98v2.9c0,0.6,0.4,1,1,1h7c0.6,0,1-0.4,1-1V22h6.7v76.7H59.1V22h6.7v2.9
			C65.8,25.5,66.3,25.9,66.8,25.9z"/>
	</g>
</g>
</svg>
