<?xml version="1.0" encoding="utf-8"?>
<!-- Generator: Adobe Illustrator 24.1.0, SVG Export Plug-In . SVG Version: 6.00 Build 0)  -->
<svg version="1.1" id="Layer_1" xmlns="http://www.w3.org/2000/svg" xmlns:xlink="http://www.w3.org/1999/xlink" x="0px" y="0px"
	 viewBox="0 0 174.4 110.7" style="enable-background:new 0 0 174.4 110.7;" xml:space="preserve">
<style type="text/css">
	.st0{fill:#CACAC9;}
</style>
<g>
	<path class="st0" d="M80.6,52.7l-1.3,7.7c-0.1,0.5,0.1,1,0.5,1.3c0.4,0.3,0.9,0.3,1.4,0.1l6.9-3.6l6.9,3.6c0.2,0.1,0.4,0.2,0.6,0.2
		c0.3,0,0.5-0.1,0.8-0.3c0.4-0.3,0.6-0.8,0.5-1.3l-1.3-7.7l5.6-5.4c0.4-0.4,0.5-0.9,0.3-1.4c-0.2-0.5-0.6-0.8-1.1-0.9l-7.7-1.1
		l-3.4-7c-0.4-0.9-1.9-0.9-2.4,0l-3.4,7L75.7,45c-0.5,0.1-0.9,0.4-1.1,0.9c-0.2,0.5,0,1,0.3,1.4L80.6,52.7z M84.3,46.2
		c0.5-0.1,0.9-0.4,1.1-0.8l2.7-5.5l2.7,5.5c0.2,0.4,0.6,0.7,1.1,0.8l6.1,0.9l-4.4,4.3c-0.3,0.3-0.5,0.8-0.4,1.2l1,6.1l-5.5-2.9
		c-0.2-0.1-0.4-0.2-0.7-0.2c-0.2,0-0.5,0.1-0.7,0.2l-5.5,2.9l1-6.1c0.1-0.5-0.1-0.9-0.4-1.2l-4.4-4.3L84.3,46.2z"/>
	<path class="st0" d="M113.6,50.3c0.4,0.5,1,0.8,1.6,0.7c0.4-0.1,8.9-1.4,16.1-6.7c0.6-0.4,0.8-1.2,0.6-1.9
		c-0.2-0.5-4.7-13.5-12.3-21.6c-0.2-0.2-0.4-0.4-0.7-0.5c-0.1,0-13.9-4.7-18.1-8c-0.3-0.3-0.7-0.4-1.1-0.4l0-0.1l-0.5,0.2
		c-13.8,5.1-23,0.2-23.1,0.1L75.9,12c0,0,0,0,0,0l-0.2-0.1l0,0c-0.5-0.1-1,0-1.4,0.3c-4.3,3.4-18,8-18.1,8c-0.3,0.1-0.5,0.2-0.7,0.4
		c-7.6,8.1-12.1,21-12.3,21.6c-0.2,0.7,0,1.5,0.6,1.9c7.2,5.3,15.7,6.7,16.1,6.7c0.6,0.1,1.3-0.2,1.6-0.7l0.6-0.9
		c0.6,32.9-2.5,45.4-2.5,45.5c-0.1,0.4,0,0.9,0.2,1.3c0.2,0.4,0.6,0.7,1.1,0.8c11.3,2.8,25.2,3.1,26.8,3.2c1.5,0,15.4-0.4,26.7-3.2
		c0.4-0.1,0.8-0.4,1.1-0.8c0.2-0.4,0.3-0.9,0.2-1.3c0-0.1-3.1-12.7-2.5-45.5L113.6,50.3z M47.8,38.4c1.9-4.2,5-10.3,9-14.9
		c5.1,5.9,6,15.8,6.2,19.4l-0.8,1.3C59.6,43.6,53.5,42,47.8,38.4z M61.1,45.7l-1.6,2.2c-2-0.4-8-1.9-13.3-5.5c0.2-0.6,0.5-1.4,1-2.4
		C52.4,43.3,57.9,44.9,61.1,45.7z M87.5,24.8c8.7,0,11.9-6.1,13-9.2c0.7,0.4,1.5,0.9,2.3,1.3c-1.7,4.3-5.7,10.7-15.3,10.7
		c-9.6,0-13.7-6.4-15.3-10.7c0.8-0.4,1.6-0.9,2.3-1.3C75.6,18.6,78.8,24.8,87.5,24.8z M77.1,15.7c2.1,0.7,5.4,1.5,9.7,1.5
		c3.2,0,7-0.5,11.2-1.8c-1,2.7-3.7,6.9-10.5,6.9C81,22.3,78.2,18.3,77.1,15.7z M87.5,29.1c10.5,0,14.9-6.8,16.8-11.6
		c4.5,2.1,9.9,4.1,12.4,5c-6.6,7.6-6.3,20.2-6.5,21.6l0,0.2c-0.7,24.3,0.5,38.6,1.5,45.6c-11.2,2.4-24.1,2.6-24.2,2.6
		c-0.1,0-13-0.2-24.2-2.6c1-7.1,2.2-21.3,1.5-45.7c0,0,0-0.1,0-0.1c0,0,0,0,0,0c0-2.7-0.7-14.7-6.6-21.6c2.4-0.8,8-2.9,12.5-5.1
		C72.5,22.3,77,29.1,87.5,29.1z M112.8,44.2l-1-1.4c0.2-3.7,1.1-13.6,6.3-19.4c4.1,4.6,7.2,10.7,9.1,14.9
		C121.6,41.9,115.5,43.6,112.8,44.2z M127.9,39.9c0.4,1,0.8,1.9,1,2.5c-5.3,3.7-11.3,5.1-13.3,5.5l-1.6-2.3
		C117.1,44.9,122.6,43.2,127.9,39.9z M111.8,43c0,0.1,0.1,0.2,0,0.2C111.8,43.1,111.8,43,111.8,43z M63,43.3c0,0,0,0,0-0.1
		C63,43.2,63,43.2,63,43.3z M63.1,91.6c11.3,2.4,24.3,2.6,24.4,2.7c0.1,0,13.1-0.2,24.4-2.7c0.2,1.3,0.4,2.2,0.5,2.9
		c-11.1,2.5-24.3,2.8-24.9,2.8c-0.6,0-13.8-0.3-24.9-2.8C62.7,93.8,62.9,92.8,63.1,91.6z"/>
</g>
</svg>
