<?xml version="1.0" encoding="utf-8"?>
<!-- Generator: Adobe Illustrator 23.0.4, SVG Export Plug-In . SVG Version: 6.00 Build 0)  -->
<svg version="1.1" id="Layer_1" xmlns="http://www.w3.org/2000/svg" xmlns:xlink="http://www.w3.org/1999/xlink" x="0px" y="0px"
	 viewBox="0 0 174.4 110.7" style="enable-background:new 0 0 174.4 110.7;" xml:space="preserve">
<style type="text/css">
	.st0{fill:#CFE3F5;}
	.st1{fill:#5EA1D6;}
</style>
<g>
	<path class="st0" d="M77,86.1v3.9c0,3.8-3,6.9-6.7,6.9h33.3c-3.7,0-6.7-3.1-6.7-6.9v-3.9"/>
</g>
<g>
	<g>
		<path class="st0" d="M151.2,85.1c1-1.2,1.2-2.9,1.2-4.5c0,0,0-0.1,0-0.1v-5.1h-126V82c0,2.6,2.1,4.7,4.7,4.7h117.5
			C149.6,86.3,150.5,85.9,151.2,85.1z"/>
	</g>
</g>
<path class="st1" d="M118.5,104.4H55.4c-0.8,0-1.5-0.7-1.5-1.5v-2.5c0-2.7,2.2-4.9,4.9-4.9h56.3c2.7,0,4.9,2.2,4.9,4.9v2.5
	C120,103.8,119.4,104.4,118.5,104.4z M56.9,101.4H117v-1c0-1.1-0.9-1.9-1.9-1.9H58.8c-1.1,0-1.9,0.9-1.9,1.9V101.4z"/>
<g>
	<path class="st1" d="M103.6,98.5H70.3v-3c2.9,0,5.2-2.4,5.2-5.4v-3.9h3v3.9c0,2.1-0.7,4-1.9,5.4h20.8c-1.2-1.5-1.9-3.4-1.9-5.4
		v-3.9h3v3.9c0,3,2.3,5.4,5.2,5.4V98.5z"/>
</g>
<rect x="21.4" y="69.3" class="st1" width="130" height="3"/>
<g>
	<g>
		<path class="st1" d="M147.5,87.7h-121c-3.4,0-6.2-2.8-6.2-6.2V12.5c0-3.4,2.8-6.2,6.2-6.2h121c3.4,0,6.2,2.8,6.2,6.2v69.1
			C153.6,85,150.9,87.7,147.5,87.7z M26.5,9.3c-1.8,0-3.2,1.4-3.2,3.2v69.1c0,1.8,1.4,3.2,3.2,3.2h121c1.8,0,3.2-1.4,3.2-3.2V12.5
			c0-1.8-1.4-3.2-3.2-3.2H26.5z"/>
	</g>
</g>
<g>
	<path class="st1" d="M101.9,53.3c-1.9,2-4.1,3.7-6.7,4.8c3.2-4.2,5.2-10.9,5.2-18.5c0-1.9-0.1-3.7-0.4-5.4h6.5
		c0.5,1.7,0.8,3.5,0.8,5.4c0,1.2-0.1,2.3-0.3,3.5l2.8,1.1c0.3-1.5,0.5-3,0.5-4.6c0-2.9-0.6-5.8-1.6-8.4v0h0
		c-3.4-8.7-11.8-14.9-21.7-14.9s-18.4,6.2-21.7,14.9h0v0c-1,2.6-1.6,5.4-1.6,8.4s0.6,5.8,1.6,8.4V48h0.1
		c3.4,8.7,11.8,14.8,21.7,14.8c6.3,0,11.9-2.5,16.1-6.5L101.9,53.3z M78.7,21c-1.9,2.6-3.5,6.1-4.3,10.1h-5.9
		C70.6,26.6,74.2,23,78.7,21z M66.7,39.5c0-1.9,0.3-3.7,0.8-5.4h6.5c-0.2,1.7-0.4,3.5-0.4,5.4c0,1.9,0.1,3.7,0.4,5.5h-6.4
		C66.9,43.3,66.7,41.4,66.7,39.5z M68.6,48h5.9c0.9,4,2.4,7.5,4.3,10C74.2,56.1,70.6,52.5,68.6,48z M85.5,59.6
		c-3.5-1-6.5-5.5-7.9-11.6h7.9V59.6z M85.5,45h-8.5c-0.3-1.8-0.4-3.6-0.4-5.5c0-1.9,0.1-3.7,0.4-5.4h8.5V45z M85.5,31.1h-8
		c1.5-6.1,4.5-10.6,8-11.7V31.1z M105.4,31.1h-5.9c-0.9-4.1-2.4-7.6-4.3-10.1C99.7,23,103.4,26.6,105.4,31.1z M88.5,19.5
		c3.5,1,6.5,5.6,8,11.7h-8V19.5z M88.5,34.1H97c0.3,1.7,0.4,3.5,0.4,5.4c0,1.9-0.2,3.7-0.4,5.5h-8.5V34.1z M88.5,59.6V48h7.9
		C94.9,54.1,91.9,58.6,88.5,59.6z"/>
	<path class="st1" d="M116.7,51.3l-12.9-5.2c-0.4-0.2-0.9,0.3-0.7,0.7l5.2,12.9c0.2,0.5,0.9,0.4,1-0.1l0.7-3.8l3.2,3.2
		c0.3,0.3,0.9,0.3,1.2,0l1.5-1.5c0.3-0.3,0.3-0.9,0-1.2l-3.2-3.2l3.8-0.7C117.1,52.2,117.2,51.5,116.7,51.3z"/>
</g>
</svg>
