<?xml version="1.0" encoding="utf-8"?>
<!-- Generator: Adobe Illustrator 23.0.6, SVG Export Plug-In . SVG Version: 6.00 Build 0)  -->
<svg version="1.1" id="Layer_1" xmlns="http://www.w3.org/2000/svg" xmlns:xlink="http://www.w3.org/1999/xlink" x="0px" y="0px"
	 viewBox="0 0 174.4 110.7" style="enable-background:new 0 0 174.4 110.7;" xml:space="preserve">
<style type="text/css">
	.st0{fill:#CFE3F5;}
	.st1{fill:#5EA1D6;}
</style>
<path class="st0" d="M101.1,14.2h-2.2v30.4H26.9v2.2c0,0.7,0.6,1.3,1.3,1.3h72.8c0.7,0,1.3-0.6,1.3-1.3V15.6
	C102.4,14.8,101.8,14.2,101.1,14.2z"/>
<path class="st0" d="M101.1,56.4h-2.2V97H26.9v2.9c0,0.7,0.6,1.3,1.3,1.3h72.8c0.7,0,1.3-0.6,1.3-1.3V57.7
	C102.4,57,101.8,56.4,101.1,56.4z"/>
<path class="st0" d="M151.4,14.2h-2.1v83.4h-38.6v2.2c0,0.7,0.6,1.3,1.3,1.3h39.5c0.7,0,1.3-0.6,1.3-1.3V15.6
	C152.7,14.8,152.1,14.2,151.4,14.2z"/>
<g>
	<path class="st1" d="M98.8,45.9H25.9c-0.7,0-1.3-0.6-1.3-1.3V13.3c0-0.7,0.6-1.3,1.3-1.3h72.8c0.7,0,1.3,0.6,1.3,1.3v31.3
		C100.1,45.3,99.5,45.9,98.8,45.9z M27.3,43.3h70.2V14.6H27.3V43.3z"/>
	<path class="st1" d="M98.8,98.9H25.9c-0.7,0-1.3-0.6-1.3-1.3V55.4c0-0.7,0.6-1.3,1.3-1.3h72.8c0.7,0,1.3,0.6,1.3,1.3v42.1
		C100.1,98.3,99.5,98.9,98.8,98.9z M27.3,96.2h70.2V56.7H27.3V96.2z"/>
	<path class="st1" d="M149.1,98.9h-39.5c-0.7,0-1.3-0.6-1.3-1.3V13.3c0-0.7,0.6-1.3,1.3-1.3h39.5c0.7,0,1.3,0.6,1.3,1.3v84.3
		C150.4,98.3,149.8,98.9,149.1,98.9z M110.9,96.2h36.8V14.6h-36.8V96.2z"/>
	<path class="st1" d="M55.1,38H34.8c-0.7,0-1.3-0.6-1.3-1.3V21.1c0-0.7,0.6-1.3,1.3-1.3h20.3c0.7,0,1.3,0.6,1.3,1.3v15.6
		C56.4,37.4,55.9,38,55.1,38z M36.1,35.4h17.7V22.4H36.1V35.4z"/>
	<path class="st1" d="M140.9,40.2h-23.2c-0.7,0-1.3-0.6-1.3-1.3V21.1c0-0.7,0.6-1.3,1.3-1.3h23.2c0.7,0,1.3,0.6,1.3,1.3v17.8
		C142.3,39.6,141.7,40.2,140.9,40.2z M119,37.6h20.6V22.4H119V37.6z"/>
	<path class="st1" d="M61.7,87.9H34.8c-0.7,0-1.3-0.6-1.3-1.3V66c0-0.7,0.6-1.3,1.3-1.3h26.9c0.7,0,1.3,0.6,1.3,1.3v20.6
		C63,87.3,62.4,87.9,61.7,87.9z M36.1,85.3h24.3v-18H36.1V85.3z"/>
	<g>
		<path class="st1" d="M89.9,27H62.5c-0.5,0-0.8-0.4-0.8-0.8v-1.7c0-0.5,0.4-0.8,0.8-0.8h27.4c0.5,0,0.8,0.4,0.8,0.8v1.7
			C90.7,26.6,90.4,27,89.9,27z"/>
	</g>
	<g>
		<path class="st1" d="M77.8,34.2H62.5c-0.5,0-0.8-0.4-0.8-0.8v-1.7c0-0.5,0.4-0.8,0.8-0.8h15.3c0.5,0,0.8,0.4,0.8,0.8v1.7
			C78.7,33.9,78.3,34.2,77.8,34.2z"/>
	</g>
	<g>
		<path class="st1" d="M136.1,89.2h-12.4c-0.5,0-0.8-0.4-0.8-0.8v-1.7c0-0.5,0.4-0.8,0.8-0.8h12.4c0.5,0,0.8,0.4,0.8,0.8v1.7
			C136.9,88.8,136.5,89.2,136.1,89.2z"/>
	</g>
	<g>
		<g>
			<path class="st1" d="M91.2,70.7H69.8c-0.5,0-0.8-0.4-0.8-0.8v-1.7c0-0.5,0.4-0.8,0.8-0.8h21.4c0.5,0,0.8,0.4,0.8,0.8v1.7
				C92,70.3,91.6,70.7,91.2,70.7z"/>
		</g>
		<g>
			<path class="st1" d="M82.9,85.2H69.8c-0.5,0-0.8-0.4-0.8-0.8v-1.7c0-0.5,0.4-0.8,0.8-0.8h13.1c0.5,0,0.8,0.4,0.8,0.8v1.7
				C83.8,84.9,83.4,85.2,82.9,85.2z"/>
		</g>
		<g>
			<path class="st1" d="M91.2,77.9H69.8c-0.5,0-0.8-0.4-0.8-0.8v-1.7c0-0.5,0.4-0.8,0.8-0.8h21.4c0.5,0,0.8,0.4,0.8,0.8v1.7
				C92,77.6,91.6,77.9,91.2,77.9z"/>
		</g>
	</g>
	<g>
		<g>
			<path class="st1" d="M141.7,51.5h-24.7c-0.5,0-0.8-0.4-0.8-0.8V49c0-0.5,0.4-0.8,0.8-0.8h24.7c0.5,0,0.8,0.4,0.8,0.8v1.7
				C142.5,51.1,142.1,51.5,141.7,51.5z"/>
		</g>
		<g>
			<path class="st1" d="M133.4,66h-16.5c-0.5,0-0.8-0.4-0.8-0.8v-1.7c0-0.5,0.4-0.8,0.8-0.8h16.5c0.5,0,0.8,0.4,0.8,0.8v1.7
				C134.2,65.7,133.9,66,133.4,66z"/>
		</g>
		<g>
			<path class="st1" d="M141.7,58.8h-24.7c-0.5,0-0.8-0.4-0.8-0.8v-1.7c0-0.5,0.4-0.8,0.8-0.8h24.7c0.5,0,0.8,0.4,0.8,0.8v1.7
				C142.5,58.4,142.1,58.8,141.7,58.8z"/>
		</g>
	</g>
</g>
</svg>
