<?xml version="1.0" encoding="utf-8"?>
<!-- Generator: Adobe Illustrator 23.1.1, SVG Export Plug-In . SVG Version: 6.00 Build 0)  -->
<svg version="1.1" id="Layer_1" xmlns="http://www.w3.org/2000/svg" xmlns:xlink="http://www.w3.org/1999/xlink" x="0px" y="0px"
	 viewBox="0 0 174.4 110.7" style="enable-background:new 0 0 174.4 110.7;" xml:space="preserve">
<style type="text/css">
	.st0{fill:#CFE3F5;}
	.st1{fill:#5EA1D6;}
</style>
<path class="st0" d="M116.9,28.3c1,1.6,1.6,3.5,1.6,5.5v42.8c0,5.6-4.5,10.1-10.1,10.1H65.6c-2,0-3.9-0.6-5.5-1.6
	c1.8,2.9,5,4.9,8.7,4.9h41.9c6.2,0,11.1-5,11.1-11.1V37C121.8,33.3,119.8,30.1,116.9,28.3z"/>
<g>
	<g>
		<path class="st1" d="M108.9,87.6H65c-5.7,0-10.4-4.7-10.4-10.4V33.2c0-5.7,4.7-10.4,10.4-10.4h43.9c5.7,0,10.4,4.7,10.4,10.4v43.9
			C119.3,82.9,114.7,87.6,108.9,87.6z M65,25.8c-4.1,0-7.4,3.3-7.4,7.4v43.9c0,4.1,3.3,7.4,7.4,7.4h43.9c4.1,0,7.4-3.3,7.4-7.4V33.2
			c0-4.1-3.3-7.4-7.4-7.4H65z"/>
	</g>
	<g>
		<path class="st1" d="M82.1,62.3c-0.3,0-0.5-0.1-0.8-0.2c-0.4-0.3-0.7-0.8-0.7-1.3V49.4c0-0.5,0.3-1,0.7-1.3c0.4-0.3,1-0.3,1.5-0.1
			l11.4,5.7c0.5,0.3,0.8,0.8,0.8,1.3s-0.3,1.1-0.8,1.3l-11.4,5.7C82.5,62.2,82.3,62.3,82.1,62.3z M83.6,51.9v6.5l6.5-3.3L83.6,51.9z
			"/>
		<path class="st1" d="M87,71.1c-5.5,0-11.1-0.1-16.6-0.3c-2.9-0.1-5.3-2.5-5.4-5.4c-0.2-6.6-0.2-13.3,0-20c0.1-2.9,2.5-5.3,5.4-5.4
			c11-0.4,22.2-0.4,33.2,0c2.9,0.1,5.3,2.5,5.4,5.4c0.2,6.6,0.2,13.3,0,20c-0.1,2.9-2.5,5.3-5.4,5.4l0,0C98,71,92.5,71.1,87,71.1z
			 M87,42.7c-5.5,0-11,0.1-16.5,0.3c-1.3,0.1-2.4,1.1-2.5,2.5c-0.2,6.6-0.2,13.2,0,19.8c0,1.3,1.1,2.4,2.5,2.5c10.9,0.4,22,0.4,33,0
			l0,0c1.3-0.1,2.4-1.1,2.5-2.5c0.2-6.6,0.2-13.2,0-19.8c0-1.3-1.1-2.4-2.5-2.5C98,42.8,92.5,42.7,87,42.7z"/>
	</g>
</g>
</svg>
