<?xml version="1.0" encoding="utf-8"?>
<!-- Generator: Adobe Illustrator 24.1.2, SVG Export Plug-In . SVG Version: 6.00 Build 0)  -->
<svg version="1.1" id="Layer_1" xmlns="http://www.w3.org/2000/svg" xmlns:xlink="http://www.w3.org/1999/xlink" x="0px" y="0px"
	 viewBox="0 0 174.4 110.7" style="enable-background:new 0 0 174.4 110.7;" xml:space="preserve">
<style type="text/css">
	.st0{fill:#E0DFDF;}
	.st1{fill:#CACAC9;}
</style>
<g>
	<path class="st0" d="M144.4,15.2h-2.6v81H35.1v3.1c0,1,0.8,1.7,1.7,1.7h107.4c1,0,1.7-0.8,1.7-1.7V16.9
		C146.1,15.9,145.4,15.2,144.4,15.2z"/>
	<path class="st1" d="M50.9,78.9c-0.7,0-1.3-0.4-1.7-1.1c-0.3-0.5-0.1-1.4,0.6-1.8l0.1-0.1l22.9-26.2c0.3-0.3,0.9-0.5,1.5-0.5
		s1.1,0.2,1.5,0.6l7.9,9.1l13-14.8c0.3-0.3,1-0.6,1.4-0.6c0.5,0,1.1,0.2,1.3,0.5L127,75.8c0.5,0.5,0.6,1.4,0.3,2
		c-0.3,0.7-1,1.1-1.7,1.1H50.9z M55.3,75.2h13.8l11.8-13.4L74,54.1L55.3,75.2z M74.4,75h47.4L98.1,48L74.4,75z"/>
	<path class="st1" d="M60.5,45.8c-5,0-9.2-4.2-9.2-9.2c0-5.1,4.1-9.2,9.2-9.2s9.2,4.1,9.2,9.2C69.7,41.6,65.5,45.8,60.5,45.8z
		 M60.3,31.3c-3,0-5.4,2.4-5.4,5.4c0,3,2.4,5.4,5.4,5.4c2.9,0,5.4-2.5,5.4-5.4C65.6,33.7,63.2,31.3,60.3,31.3z"/>
	<g>
		<path class="st1" d="M140.8,12.5H46.1v3.2H139v78.5H35.1V26.6h-3.5v69c0,1,0.8,1.7,1.7,1.7h107.4c1,0,1.7-0.8,1.7-1.7V14.2
			C142.4,13.3,141.7,12.5,140.8,12.5z"/>
		<polygon class="st1" points="42.1,12.1 35.2,12.1 35.2,5.2 31.5,5.2 31.5,12.1 24.6,12.1 24.6,15.8 31.5,15.8 31.5,22.7 
			35.2,22.7 35.2,15.8 42.1,15.8 		"/>
	</g>
</g>
</svg>
