<?xml version="1.0" encoding="utf-8"?>
<!-- Generator: Adobe Illustrator 24.3.0, SVG Export Plug-In . SVG Version: 6.00 Build 0)  -->
<svg version="1.1" id="Layer_1" xmlns="http://www.w3.org/2000/svg" xmlns:xlink="http://www.w3.org/1999/xlink" x="0px" y="0px"
	 viewBox="0 0 40 40" style="enable-background:new 0 0 40 40;" xml:space="preserve">
<style type="text/css">
	.st0{fill:#A4AFB8;}
</style>
<path class="st0" d="M20,9.6C14.2,9.6,9.6,14.2,9.6,20S14.2,30.4,20,30.4S30.4,25.8,30.4,20S25.8,9.6,20,9.6z M20,28.7
	c-2.7,0-5.1-1.3-6.7-3.2c0.2-0.5,0.7-0.9,1.6-1.1c2-0.5,3.9-0.9,3-2.6c-2.7-5.1-0.8-7.9,2.2-7.9c2.9,0,4.9,2.8,2.2,7.9
	c-0.9,1.7,1,2.1,3,2.6c0.9,0.2,1.4,0.6,1.6,1.1C25.1,27.4,22.7,28.7,20,28.7z"/>
</svg>
