<?xml version="1.0" encoding="utf-8"?>
<!-- Generator: Adobe Illustrator 24.3.0, SVG Export Plug-In . SVG Version: 6.00 Build 0)  -->
<svg version="1.1" id="Layer_1" xmlns="http://www.w3.org/2000/svg" xmlns:xlink="http://www.w3.org/1999/xlink" x="0px" y="0px"
	 viewBox="0 0 100 100" style="enable-background:new 0 0 100 100;" xml:space="preserve">
<style type="text/css">
	.st0{fill:#a4afb8;}
	.st1{fill:#FFFFFF;}
</style>
<g>
	<g>
		<circle class="st0" cx="50" cy="50" r="41.6"/>
	</g>
	<g>
		<path class="st1" d="M70,31.5c0.9-1,1.4-2.2,1.4-3.5c0-2.9-2.4-5.2-5.3-5.2c-1.4,0-2.9,0.6-3.9,1.7l-6.1,6.7
			c-1.3,1.4-3.5,1.6-4.9,0.3l-2.3,2.6l2.8,2.5L38.5,51.2c-2.2,2.5-0.3,3.9-2,7.1c-0.2,0.4-0.3,0.8-0.3,1.2c0,1.2,0.9,2,2,2
			c0.4,0,0.9-0.1,1.3-0.4c3-2.3,4.6-0.3,6.9-2.9l13.1-14.6l2.4,2.2l2.3-2.6c-1.4-1.3-1.6-3.5-0.3-4.9L70,31.5z M51.4,47.2h-4.7
			l7.5-8.4l2.6,2.3L51.4,47.2z"/>
		<path class="st1" d="M31.4,72.4c0,2,1.6,3.6,3.6,3.6s3.6-1.6,3.6-3.6S35,64.9,35,64.9S31.4,70.4,31.4,72.4z"/>
	</g>
</g>
</svg>
