<?xml version="1.0" encoding="utf-8"?>
<!-- Generator: Adobe Illustrator 24.3.0, SVG Export Plug-In . SVG Version: 6.00 Build 0)  -->
<svg version="1.1" id="Layer_1" xmlns="http://www.w3.org/2000/svg" xmlns:xlink="http://www.w3.org/1999/xlink" x="0px" y="0px"
	 viewBox="0 0 139 37" style="enable-background:new 0 0 139 37;" xml:space="preserve">
<style type="text/css">
	.st0{fill:#A4AFB8;}
</style>
<g>
	<g>
		<g>
			<g>
				<path class="st0" d="M47.9,15.3l0-6.6l-3.2,5.4h-1.1l-3.2-5.3v6.4H38V4.4h2.1l4.1,6.8l4-6.8h2.1l0,10.9H47.9z"/>
				<path class="st0" d="M54.3,14.9c-0.7-0.4-1.3-0.9-1.6-1.5c-0.4-0.7-0.6-1.4-0.6-2.2s0.2-1.6,0.6-2.2c0.4-0.7,0.9-1.2,1.6-1.5
					C55,7,55.8,6.8,56.7,6.8c0.9,0,1.7,0.2,2.4,0.6c0.7,0.4,1.2,0.9,1.6,1.5c0.4,0.7,0.6,1.4,0.6,2.2s-0.2,1.6-0.6,2.2
					c-0.4,0.7-0.9,1.2-1.6,1.5c-0.7,0.4-1.5,0.6-2.4,0.6C55.8,15.4,55,15.3,54.3,14.9z M58.3,12.8c0.4-0.4,0.6-1,0.6-1.7
					s-0.2-1.3-0.6-1.7s-0.9-0.6-1.5-0.6c-0.6,0-1.1,0.2-1.5,0.6s-0.6,1-0.6,1.7s0.2,1.3,0.6,1.7s0.9,0.6,1.5,0.6
					C57.3,13.4,57.8,13.2,58.3,12.8z"/>
				<path class="st0" d="M70.6,7.7c0.6,0.6,1,1.6,1,2.8v4.8h-2.4v-4.4c0-0.7-0.1-1.2-0.4-1.5c-0.3-0.3-0.7-0.5-1.3-0.5
					c-0.6,0-1.1,0.2-1.5,0.6c-0.4,0.4-0.5,0.9-0.5,1.7v4.2h-2.4V6.9h2.3v1c0.3-0.4,0.7-0.6,1.2-0.8c0.5-0.2,1-0.3,1.6-0.3
					C69.1,6.8,69.9,7.1,70.6,7.7z"/>
				<path class="st0" d="M82,11.8h-6.4c0.1,0.5,0.4,0.9,0.8,1.2c0.4,0.3,1,0.5,1.6,0.5c0.4,0,0.8-0.1,1.2-0.2
					c0.3-0.1,0.7-0.3,0.9-0.6l1.3,1.4c-0.8,0.9-1.9,1.4-3.5,1.4c-0.9,0-1.8-0.2-2.5-0.6c-0.7-0.4-1.3-0.9-1.7-1.5
					c-0.4-0.7-0.6-1.4-0.6-2.2c0-0.8,0.2-1.6,0.6-2.2c0.4-0.7,0.9-1.2,1.6-1.5c0.7-0.4,1.4-0.6,2.3-0.6c0.8,0,1.6,0.2,2.2,0.5
					c0.7,0.4,1.2,0.9,1.6,1.5c0.4,0.7,0.6,1.4,0.6,2.3C82,11.2,82,11.4,82,11.8z M76.3,9.1c-0.4,0.3-0.6,0.7-0.7,1.3h4.1
					c-0.1-0.5-0.3-1-0.7-1.3s-0.8-0.5-1.4-0.5C77.1,8.6,76.7,8.8,76.3,9.1z"/>
				<path class="st0" d="M91.8,6.9l-3.8,8.9c-0.4,1-0.9,1.6-1.4,2c-0.6,0.4-1.3,0.6-2.1,0.6c-0.4,0-0.9-0.1-1.3-0.2s-0.8-0.3-1-0.6
					l0.9-1.7c0.2,0.2,0.4,0.3,0.6,0.4c0.2,0.1,0.5,0.1,0.7,0.1c0.3,0,0.6-0.1,0.8-0.2c0.2-0.2,0.4-0.4,0.6-0.8l0-0.1l-3.6-8.5h2.5
					l2.4,5.7l2.4-5.7H91.8z"/>
				<path class="st0" d="M104.4,7.3c0.6,0.4,1.1,0.9,1.5,1.5c0.4,0.7,0.5,1.4,0.5,2.3s-0.2,1.6-0.5,2.3s-0.9,1.2-1.5,1.5
					c-0.6,0.4-1.4,0.5-2.1,0.5c-1.2,0-2-0.4-2.6-1.1v1h-2.3V3.7h2.4v4.1c0.6-0.7,1.5-1,2.5-1C103,6.8,103.7,7,104.4,7.3z
					 M103.3,12.8c0.4-0.4,0.6-1,0.6-1.7s-0.2-1.3-0.6-1.7c-0.4-0.4-0.9-0.6-1.5-0.6c-0.6,0-1.1,0.2-1.5,0.6s-0.6,1-0.6,1.7
					s0.2,1.3,0.6,1.7s0.9,0.6,1.5,0.6C102.4,13.4,102.9,13.2,103.3,12.8z"/>
				<path class="st0" d="M114.3,7.7c0.7,0.6,1,1.6,1,2.8v4.8H113v-1c-0.5,0.8-1.3,1.2-2.6,1.2c-0.6,0-1.2-0.1-1.7-0.3
					c-0.5-0.2-0.8-0.5-1.1-0.9c-0.2-0.4-0.4-0.8-0.4-1.3c0-0.8,0.3-1.4,0.9-1.8c0.6-0.4,1.5-0.7,2.7-0.7h1.9c0-0.5-0.2-0.9-0.5-1.2
					s-0.8-0.4-1.5-0.4c-0.4,0-0.9,0.1-1.3,0.2c-0.4,0.1-0.8,0.3-1.1,0.6l-0.9-1.7c0.5-0.3,1-0.6,1.6-0.7c0.6-0.2,1.3-0.3,2-0.3
					C112.6,6.8,113.6,7.1,114.3,7.7z M112.2,13.5c0.3-0.2,0.6-0.5,0.7-0.9v-0.9h-1.7c-1,0-1.5,0.3-1.5,1c0,0.3,0.1,0.6,0.4,0.7
					c0.2,0.2,0.6,0.3,1,0.3C111.5,13.8,111.9,13.7,112.2,13.5z"/>
				<path class="st0" d="M119.3,14.9c-0.7-0.4-1.3-0.9-1.7-1.5c-0.4-0.7-0.6-1.4-0.6-2.2s0.2-1.6,0.6-2.2c0.4-0.7,1-1.2,1.7-1.5
					c0.7-0.4,1.5-0.6,2.4-0.6c0.9,0,1.7,0.2,2.3,0.6s1.1,0.9,1.4,1.6l-1.9,1c-0.4-0.8-1.1-1.2-1.9-1.2c-0.6,0-1.2,0.2-1.6,0.6
					c-0.4,0.4-0.6,1-0.6,1.7s0.2,1.3,0.6,1.7c0.4,0.4,0.9,0.6,1.6,0.6c0.8,0,1.5-0.4,1.9-1.2l1.9,1c-0.3,0.7-0.8,1.2-1.4,1.6
					s-1.4,0.6-2.3,0.6C120.8,15.4,120,15.3,119.3,14.9z"/>
				<path class="st0" d="M130.4,12l-1.2,1.2v2.1h-2.4V3.7h2.4v6.6l3.6-3.4h2.9l-3.5,3.6l3.8,4.8H133L130.4,12z"/>
				<path class="st0" d="M46.5,22.2v7c0,1.5-0.4,2.7-1.2,3.4s-2,1.1-3.5,1.1c-0.8,0-1.6-0.1-2.3-0.3c-0.7-0.2-1.3-0.5-1.8-0.9l1-1.7
					c0.4,0.3,0.8,0.5,1.3,0.7c0.5,0.2,1.1,0.3,1.6,0.3c0.8,0,1.5-0.2,1.9-0.6c0.4-0.4,0.6-1,0.6-1.7v-0.4c-0.6,0.7-1.5,1-2.7,1
					c-0.8,0-1.5-0.2-2.1-0.5c-0.6-0.3-1.1-0.8-1.5-1.4c-0.4-0.6-0.6-1.3-0.6-2.1c0-0.8,0.2-1.5,0.6-2.1c0.4-0.6,0.9-1.1,1.5-1.4
					c0.6-0.3,1.3-0.5,2.1-0.5c1.2,0,2.1,0.4,2.8,1.2v-1.1H46.5z M43.5,27.6c0.4-0.4,0.6-0.9,0.6-1.5c0-0.6-0.2-1.1-0.6-1.5
					c-0.4-0.4-0.9-0.6-1.6-0.6s-1.2,0.2-1.6,0.6c-0.4,0.4-0.6,0.9-0.6,1.5c0,0.6,0.2,1.1,0.6,1.5c0.4,0.4,0.9,0.6,1.6,0.6
					S43,28,43.5,27.6z"/>
				<path class="st0" d="M57.2,22.2v8.4h-2.3v-1c-0.3,0.4-0.7,0.6-1.2,0.8c-0.4,0.2-0.9,0.3-1.5,0.3c-1.1,0-2-0.3-2.6-1
					c-0.6-0.6-1-1.6-1-2.8v-4.7h2.4v4.4c0,1.4,0.6,2,1.7,2c0.6,0,1.1-0.2,1.4-0.6c0.4-0.4,0.5-0.9,0.5-1.7v-4.2H57.2z"/>
				<path class="st0" d="M65.8,23c0.7,0.6,1,1.6,1,2.8v4.8h-2.3v-1c-0.5,0.8-1.3,1.2-2.6,1.2c-0.6,0-1.2-0.1-1.7-0.3
					c-0.5-0.2-0.8-0.5-1.1-0.9c-0.2-0.4-0.4-0.8-0.4-1.3c0-0.8,0.3-1.4,0.9-1.8s1.5-0.7,2.7-0.7h1.9c0-0.5-0.2-0.9-0.5-1.2
					c-0.3-0.3-0.8-0.4-1.5-0.4c-0.4,0-0.9,0.1-1.3,0.2s-0.8,0.3-1.1,0.6l-0.9-1.7c0.5-0.3,1-0.6,1.6-0.7c0.6-0.2,1.3-0.3,2-0.3
					C64.1,22.1,65.1,22.4,65.8,23z M63.8,28.8c0.3-0.2,0.6-0.5,0.7-0.9v-0.9h-1.7c-1,0-1.5,0.3-1.5,1c0,0.3,0.1,0.6,0.4,0.7
					c0.2,0.2,0.6,0.3,1,0.3C63.1,29.1,63.4,29,63.8,28.8z"/>
				<path class="st0" d="M72.6,22.4c0.5-0.2,1.1-0.3,1.7-0.3v2.2c-0.3,0-0.5,0-0.5,0c-0.7,0-1.2,0.2-1.6,0.6c-0.4,0.4-0.6,1-0.6,1.8
					v4h-2.4v-8.4h2.3v1.1C71.7,22.9,72.1,22.6,72.6,22.4z"/>
				<path class="st0" d="M82.1,23c0.7,0.6,1,1.6,1,2.8v4.8h-2.3v-1c-0.5,0.8-1.3,1.2-2.6,1.2c-0.6,0-1.2-0.1-1.7-0.3
					c-0.5-0.2-0.8-0.5-1.1-0.9c-0.2-0.4-0.4-0.8-0.4-1.3c0-0.8,0.3-1.4,0.9-1.8s1.5-0.7,2.7-0.7h1.9c0-0.5-0.2-0.9-0.5-1.2
					c-0.3-0.3-0.8-0.4-1.5-0.4c-0.4,0-0.9,0.1-1.3,0.2s-0.8,0.3-1.1,0.6l-0.9-1.7c0.5-0.3,1-0.6,1.6-0.7c0.6-0.2,1.3-0.3,2-0.3
					C80.4,22.1,81.4,22.4,82.1,23z M80,28.8c0.3-0.2,0.6-0.5,0.7-0.9v-0.9H79c-1,0-1.5,0.3-1.5,1c0,0.3,0.1,0.6,0.4,0.7
					s0.6,0.3,1,0.3C79.3,29.1,79.7,29,80,28.8z"/>
				<path class="st0" d="M93,23c0.6,0.6,1,1.6,1,2.8v4.8h-2.4v-4.4c0-0.7-0.1-1.2-0.4-1.5c-0.3-0.3-0.7-0.5-1.3-0.5
					c-0.6,0-1.1,0.2-1.5,0.6s-0.5,0.9-0.5,1.7v4.2h-2.4v-8.4h2.3v1c0.3-0.4,0.7-0.6,1.2-0.8c0.5-0.2,1-0.3,1.6-0.3
					C91.5,22.1,92.3,22.4,93,23z"/>
				<path class="st0" d="M101.5,30.2c-0.2,0.2-0.5,0.3-0.9,0.4c-0.3,0.1-0.7,0.1-1.1,0.1c-1,0-1.8-0.3-2.3-0.8s-0.8-1.3-0.8-2.2
					v-3.4h-1.3v-1.9h1.3v-2h2.4v2h2.1v1.9h-2.1v3.4c0,0.4,0.1,0.6,0.3,0.8c0.2,0.2,0.4,0.3,0.8,0.3c0.4,0,0.7-0.1,1-0.3L101.5,30.2z
					"/>
				<path class="st0" d="M110.8,27.1h-6.4c0.1,0.5,0.4,0.9,0.8,1.2c0.4,0.3,1,0.5,1.6,0.5c0.4,0,0.8-0.1,1.2-0.2
					c0.3-0.1,0.7-0.3,0.9-0.6l1.3,1.4c-0.8,0.9-1.9,1.4-3.5,1.4c-0.9,0-1.8-0.2-2.5-0.6s-1.3-0.9-1.7-1.5c-0.4-0.7-0.6-1.4-0.6-2.2
					c0-0.8,0.2-1.6,0.6-2.2c0.4-0.7,0.9-1.2,1.6-1.5s1.4-0.6,2.3-0.6c0.8,0,1.6,0.2,2.2,0.5c0.7,0.4,1.2,0.9,1.6,1.5
					c0.4,0.7,0.6,1.4,0.6,2.3C110.9,26.5,110.9,26.7,110.8,27.1z M105.1,24.4c-0.4,0.3-0.6,0.7-0.7,1.3h4.1c-0.1-0.5-0.3-1-0.7-1.3
					c-0.4-0.3-0.8-0.5-1.4-0.5C106,23.9,105.5,24.1,105.1,24.4z"/>
				<path class="st0" d="M120.7,27.1h-6.4c0.1,0.5,0.4,0.9,0.8,1.2s1,0.5,1.6,0.5c0.4,0,0.8-0.1,1.2-0.2c0.3-0.1,0.7-0.3,0.9-0.6
					l1.3,1.4c-0.8,0.9-1.9,1.4-3.5,1.4c-0.9,0-1.8-0.2-2.5-0.6c-0.7-0.4-1.3-0.9-1.7-1.5c-0.4-0.7-0.6-1.4-0.6-2.2
					c0-0.8,0.2-1.6,0.6-2.2c0.4-0.7,0.9-1.2,1.6-1.5c0.7-0.4,1.4-0.6,2.3-0.6c0.8,0,1.6,0.2,2.2,0.5s1.2,0.9,1.6,1.5
					c0.4,0.7,0.6,1.4,0.6,2.3C120.7,26.5,120.7,26.7,120.7,27.1z M115,24.4c-0.4,0.3-0.6,0.7-0.7,1.3h4.1c-0.1-0.5-0.3-1-0.7-1.3
					s-0.8-0.5-1.4-0.5C115.8,23.9,115.3,24.1,115,24.4z"/>
				<path class="st0" d="M124.5,23l1.7,1l-0.3,0.6l-1.7-1v1.9h-0.6l0-1.9l-1.7,1l-0.3-0.6l1.7-1l-1.7-1l0.3-0.6l1.7,1l0-1.9h0.6v1.9
					l1.7-1l0.3,0.6L124.5,23z"/>
			</g>
		</g>
		<g>
			<path class="st0" d="M16,25.4l-6.9-6.9l2.9-2.9l4,4L27.7,7.9l-0.1-3.2H3.9l0.3,15.8c0,6.3,4.3,8.6,11.9,12.7
				c7.6-4.1,11.9-6.4,11.9-12.7l-0.1-6.9L16,25.4z"/>
		</g>
	</g>
</g>
</svg>
