<?xml version="1.0" encoding="utf-8"?>
<!-- Generator: Adobe Illustrator 24.3.0, SVG Export Plug-In . SVG Version: 6.00 Build 0)  -->
<svg version="1.1" id="Layer_1" xmlns="http://www.w3.org/2000/svg" xmlns:xlink="http://www.w3.org/1999/xlink" x="0px" y="0px"
	 viewBox="0 0 620 500" style="enable-background:new 0 0 620 500;" xml:space="preserve">
<style type="text/css">
	.st0{fill:#60F5B5;}
	.st1{fill:#E9FDF5;}
	.st2{opacity:0.84;fill:url(#SVGID_1_);}
	.st3{opacity:0.84;fill:url(#SVGID_2_);}
	.st4{fill:#195287;}
	.st5{fill:url(#SVGID_3_);}
	.st6{fill:#0C293F;}
	.st7{fill:#FFFFFF;}
	.st8{fill:#7AFFCC;}
	.st9{opacity:0.2;}
	.st10{fill:#18DA8E;}
	.st11{fill:#18AA77;}
	.st12{fill:#373737;}
	.st13{fill:#F7C777;}
	.st14{fill:#1D1D1B;}
	.st15{fill:#B8EFD6;}
	.st16{opacity:0.5;fill:url(#SVGID_4_);}
	.st17{opacity:0.5;fill:url(#SVGID_5_);}
	.st18{opacity:0.5;fill:url(#SVGID_6_);}
	.st19{fill:url(#SVGID_7_);}
	.st20{opacity:0.67;fill:url(#SVGID_8_);}
	.st21{fill:#F7B5A2;}
	.st22{fill:#F7CFC0;}
	.st23{fill:url(#SVGID_9_);}
	.st24{fill:url(#SVGID_10_);}
	.st25{opacity:0.84;fill:url(#SVGID_11_);}
	.st26{opacity:0.84;fill:url(#SVGID_12_);}
	.st27{opacity:0.84;fill:url(#SVGID_13_);}
	.st28{fill:url(#SVGID_14_);}
	.st29{fill:url(#SVGID_15_);}
	.st30{fill:url(#SVGID_16_);}
	.st31{fill:url(#SVGID_17_);}
	.st32{fill:#B8FADE;}
	.st33{fill:#BD8772;}
	.st34{fill:url(#SVGID_18_);}
	.st35{fill:url(#SVGID_19_);}
	.st36{fill:url(#SVGID_20_);}
	.st37{fill:url(#SVGID_21_);}
	.st38{fill:url(#SVGID_22_);}
	.st39{fill:url(#SVGID_23_);}
	.st40{fill:url(#SVGID_24_);}
	.st41{fill:url(#SVGID_25_);}
	.st42{fill:url(#SVGID_26_);}
	.st43{fill:url(#SVGID_27_);}
	.st44{fill:url(#SVGID_28_);}
	.st45{fill:url(#SVGID_29_);}
	.st46{fill:url(#SVGID_30_);}
	.st47{fill:url(#SVGID_31_);}
	.st48{fill:url(#SVGID_32_);}
	.st49{fill:url(#SVGID_33_);}
	.st50{fill:url(#SVGID_34_);}
	.st51{fill:url(#SVGID_35_);}
	.st52{fill:url(#SVGID_36_);}
	.st53{fill:url(#SVGID_37_);}
	.st54{fill:url(#SVGID_38_);}
	.st55{fill:url(#SVGID_39_);}
	.st56{fill:url(#SVGID_40_);}
	.st57{fill:url(#SVGID_41_);}
	.st58{fill:url(#SVGID_42_);}
	.st59{fill:url(#SVGID_43_);}
	.st60{fill:url(#SVGID_44_);}
	.st61{fill:url(#SVGID_45_);}
	.st62{fill:url(#SVGID_46_);}
	.st63{fill:url(#SVGID_47_);}
	.st64{fill:url(#SVGID_48_);}
	.st65{fill:url(#SVGID_49_);}
	.st66{fill:url(#SVGID_50_);}
	.st67{fill:url(#SVGID_51_);}
	.st68{fill:url(#SVGID_52_);}
	.st69{fill:url(#SVGID_53_);}
	.st70{fill:url(#SVGID_54_);}
	.st71{fill:url(#SVGID_55_);}
	.st72{fill:url(#SVGID_56_);}
	.st73{fill:url(#SVGID_57_);}
	.st74{fill:url(#SVGID_58_);}
	.st75{fill:url(#SVGID_59_);}
	.st76{fill:url(#SVGID_60_);}
	.st77{fill:url(#SVGID_61_);}
	.st78{fill:url(#SVGID_62_);}
	.st79{fill:url(#SVGID_63_);}
	.st80{fill:url(#SVGID_64_);}
	.st81{fill:url(#SVGID_65_);}
	.st82{fill:url(#SVGID_66_);}
	.st83{fill:url(#SVGID_67_);}
	.st84{fill:url(#SVGID_68_);}
	.st85{fill:url(#SVGID_69_);}
	.st86{fill:url(#SVGID_70_);}
	.st87{opacity:0.84;fill:url(#SVGID_71_);}
</style>
<g>
	<ellipse transform="matrix(0.9692 -0.2463 0.2463 0.9692 -52.026 84.0567)" class="st0" cx="310" cy="250" rx="296.7" ry="227"/>
	<polygon class="st1" points="300.6,410.8 272.6,420.6 254.7,411 283.3,401.6 	"/>
	<polygon class="st1" points="293.5,426.3 277,432.6 267.7,428.2 285.4,422.1 	"/>
	<g>
		<g>
			<g>
				
					<linearGradient id="SVGID_1_" gradientUnits="userSpaceOnUse" x1="511.7628" y1="362.5468" x2="637.3756" y2="295.2249" gradientTransform="matrix(1 0 0.1867 1 -320.4203 -4.691568e-04)">
					<stop  offset="0" style="stop-color:#00BB82"/>
					<stop  offset="0.4685" style="stop-color:#13D390;stop-opacity:0.5313"/>
					<stop  offset="0.9997" style="stop-color:#25EA9D;stop-opacity:0"/>
				</linearGradient>
				<path class="st2" d="M387.5,309l-8.4,3.1l-22.4-4.4l27.5-9.3l-4.9-1.4l-69.8,23.6l-0.4-0.1l-0.6,0.4L249,341.3l-0.6,3l0.6,0.3
					l37.5-13.1l25.6,5L277.7,349l1.8,2.6l1-0.4l111.8-40.8L387.5,309z M375.7,313.3l-16.2,5.9l-23.3-4.6l16.9-5.7L375.7,313.3z
					 M332.5,315.9l23.5,4.6l-16.6,6l-24.3-4.8L332.5,315.9z M290.3,330.2l21.1-7.1l24.5,4.8l-20.1,7.3L290.3,330.2z"/>
				
					<linearGradient id="SVGID_2_" gradientUnits="userSpaceOnUse" x1="798.7073" y1="314.9259" x2="921.9606" y2="281.3756" gradientTransform="matrix(1 0 0.3843 1 -632.6818 -2.558529e-04)">
					<stop  offset="0" style="stop-color:#00BB82"/>
					<stop  offset="0.4685" style="stop-color:#13D390;stop-opacity:0.5313"/>
					<stop  offset="0.9997" style="stop-color:#25EA9D;stop-opacity:0"/>
				</linearGradient>
				<polygon class="st3" points="340.5,308 431.4,271.8 411.9,267.7 326.7,299.6 				"/>
				<polygon class="st4" points="344.6,302.7 328,304.4 328.6,197.4 345.3,197.4 				"/>
				<linearGradient id="SVGID_3_" gradientUnits="userSpaceOnUse" x1="336.7528" y1="213.0651" x2="336.7528" y2="256.2691">
					<stop  offset="3.250122e-03" style="stop-color:#195287"/>
					<stop  offset="1" style="stop-color:#195287;stop-opacity:0"/>
				</linearGradient>
				<polygon class="st5" points="344.9,266.3 345.3,205.5 328.6,205.5 328.3,266.3 				"/>
				<path class="st6" d="M286,93.7l-6.5-11.1c-2.2-3.7-6.8-5.1-10.6-3.2l-3,1.5l-0.8-1.6l3-1.5c4.7-2.4,10.3-0.7,13,3.9l6.5,11.1
					L286,93.7z"/>
				<path class="st6" d="M337.1,97.3l-6.5-11.1c-2.2-3.7-6.8-5.1-10.6-3.2l-3,1.5l-0.8-1.6l3-1.5c4.7-2.4,10.3-0.7,13,3.9l6.5,11.1
					L337.1,97.3z"/>
				<path class="st6" d="M397.5,102.4l-6.5-11.1c-2.2-3.7-6.8-5.1-10.6-3.2l-3,1.5l-0.8-1.6l3-1.5c4.7-2.4,10.3-0.7,13,3.9l6.5,11.1
					L397.5,102.4z"/>
				<polygon class="st7" points="427.8,231.6 252.1,202.5 251.2,86.2 429.3,102.2 				"/>
				<path class="st8" d="M379.7,158.8c5.4-2.3,10-6.6,10-15.2l0-0.2c0-12-9.6-20.8-24.9-22.4l-33.8-3.6l0,37.1l0,0
					c0,13-8.6,20.7-21.2,18.9l-8.3-1.2c-1.1-0.2-3.1-1.1-3.4-4.1l0-39.9l11.7,1.4c6.4,0.7,9.5,3,13.2,7.5l-0.4-17.9
					c-4.6-2.4-7.2-3.5-12.8-4.1l-26.6-2.8l0,59.4c0.4,9.4,6.1,13,10.5,13.7l16.1,2.5c20.9,3.2,36.3-9.5,36.7-28.3c0,0,0-26.2,0-26.2
					l15.9,1.8c6.9,0.8,10.8,4.1,10.8,9l0,0.2c0,5.6-4.6,7.4-11.8,6.5l-6.8-0.9l0,13.7l10.7,1.4c5.8,0.8,10.3,4.5,10.3,9.6l0,0.2
					c0,5.6-4.4,7.6-11.6,6.5l-14.1-2c-3.6,5.8-7.2,9.6-13.1,12.4l27.2,4.1c16.9,2.6,28.3-2.7,28.3-16.7l0-0.2
					C392.1,168.9,388.5,163.3,379.7,158.8z"/>
				<path class="st7" d="M298,128.2c0,0,4.1,1.5,6.1-1s3.7-6.7,5.8-4.1c2.1,2.6,5.2,2.1,7.3-0.6c2.1-2.8,4.7-1.3,3.9,1.3
					c-0.8,2.4,5.6,3.7,5.6,3.7l-2.4,17L298,128.2z"/>
				<g class="st9">
					<polygon class="st10" points="315.1,190.5 288.6,187.1 289,184.3 315.4,187.7 					"/>
					<path class="st10" d="M316.1,213.1l0.2-47.7c0-0.8-0.7-1.6-1.6-1.7c-0.7-0.1-1.3,0.4-1.3,1.1l-0.6,47.7L316.1,213.1z"/>
				</g>
				<polygon class="st6" points="302.1,226.6 275.6,224 275.9,221.1 302.4,223.7 				"/>
				<polygon class="st6" points="311.6,186 285.2,182.6 285.5,179.8 312,183.2 				"/>
				<polygon class="st6" points="306,207.3 279.6,203.3 280.1,200.5 306.5,204.4 				"/>
				<path class="st6" d="M267.5,256.2L247,343.5c-0.2,0.9,0.5,1.8,1.5,1.7l0.4,0c0.6,0,1.2-0.5,1.3-1.1l20.3-87.1
					c0.2-0.8-0.3-1.5-1.1-1.7c-0.1,0-0.1,0-0.2,0C268.5,255,267.7,255.5,267.5,256.2z"/>
				<path class="st11" d="M272.4,169.6c0,0,0.3-5.7,4.2-8.3c3.9-2.7,15.2-3.4,24.8-14.6c5.3-6.2,5.7-10,5.7-10s3.4-0.1,5,2.2
					c0,0-3,21.1-24.3,27.5C270.9,171.3,272.4,169.6,272.4,169.6z"/>
				<path class="st12" d="M264,193.7c0,0,1.1,8.9,4.6,10.3c3.6,1.4,8.7-0.7,8.7-0.7S272.7,184.8,264,193.7z"/>
				<path class="st13" d="M294.5,150.2c-0.7,5.4-3.2,9.9-9.9,9c-6.1-0.8-5.9-4.5-7.4-11.3c-1.1-5.3,5.2-9.2,9.9-8.5
					S295.2,144.8,294.5,150.2z"/>
				<path class="st14" d="M266.4,201.6c0,0-3.1-4.2-2.2-9.7l5.9-3l4.6,8.7l1.2,8.2L266.4,201.6z"/>
				<path class="st6" d="M279.6,202.8l-13.2-1.2c0,0,13.3,17.5-0.2,39.7c0,0-0.5,0.4-1.1,1.1c2.2,2.1,4.4,4.3,6.9,6.2
					c-0.9-1.3-1.5-2.1-0.2-3.2c6.7-5.9,11.7-19.3,12.2-25.6S282.9,207.2,279.6,202.8z"/>
				<path class="st11" d="M285.7,194.9c0,0-4.5-3.6-15.1-4.1c0,0-4.5-0.4-6.6,2.9c0,0-0.5-5.9,5.7-21c0,0,2.9-12.1,12.5-13.7
					c0,0,10.3-1.6,10.7,4.5c0.3,5.7-3.6,14.6-4.6,19.8C287.1,188.3,285.7,194.9,285.7,194.9z"/>
				<polygon class="st6" points="314.9,129.9 319,127.9 319.7,129.5 315.6,131.3 				"/>
				<path class="st13" d="M312,138.8c0,0,3.2-1.1,4.1-3.7c1-2.6,0.3-4.5-0.7-4.5c-1.7,0-0.9,1.3-1.4,3.1c-0.5,1.8-3,1-3.8-0.8
					s2.2-2.6,3.4-2.1s3.2,2.8,2.1-0.2c-1.2-3.4-5.9-3.3-6.8-2.5c-1,0.8-2.7,1-2.9,2.1c-0.2,1.1-0.8,4.5,1.6,6.7L312,138.8z"/>
				<path class="st6" d="M313.6,130.8l-14.9,7.4l0.5,1.1l14.8-6.8C314,132.6,314.7,130.9,313.6,130.8z"/>
				<path class="st6" d="M319.7,129.5c0,0,2.3-0.3,2.9-1.4c0.7-1.6,0.2-3,0.2-6.2s-0.4-2.7-0.4-2.7s-0.7,3.9-1.2,4.6
					c-0.5,0.7-3,1.8-2.1,4.1C319.9,130.2,319.7,129.5,319.7,129.5z"/>
				<path class="st4" d="M282.2,232.2c0,0,10.1-16.8,5.5-21.7c-5.6-6-23.8-4.1-23.9-17c0,0,2.7-3.6,10.6-2.7c8.2,0.9,21.2,4.1,25,16
					c4.1,12.8-11.9,28.9-11.9,28.9L282.2,232.2z"/>
				<path class="st7" d="M279.5,238c0,0-0.3-3.2,2.6-6.3c0,0,4.6-1.7,7.2,2.2c0,0,2.6,3.9,4.8,5.3s5.6,0.9,5.6,3.8s-1.5,2.9-4.9,2.9
					c-3.4,0-8.5,0.2-10.4-3.4C282.4,238.8,279.5,238,279.5,238z"/>
				<path class="st15" d="M283.2,244.4c0,0-3.6-3.6-3.8-5.3c-0.2-1.7,0.5-3.1,2.2-2.7c1.7,0.3,4.6,5.4,5.6,6.5
					c1.4,1.4,4.1,2.7,5.6,2.9C293,245.8,284.9,245.5,283.2,244.4z"/>
				<path class="st4" d="M311.8,235.5c-0.2,0-0.5-0.1-0.6-0.4c0-0.1-3.3-6.9-7.3-10.4c-0.3-0.2-0.3-0.6-0.1-0.9
					c0.2-0.3,0.6-0.3,0.9-0.1c4.2,3.7,7.5,10.5,7.6,10.8c0.1,0.3,0,0.7-0.3,0.8C311.9,235.5,311.9,235.5,311.8,235.5z"/>
				<path class="st6" d="M277.6,349.9l35.6-185.2c0.1-0.7,0.8-1.2,1.5-1.1h0c0.8,0.1,1.4,0.9,1.3,1.7l-35.3,185.2
					c-0.1,0.6-0.7,1.1-1.3,1.1l-0.4,0C278.2,351.7,277.5,350.9,277.6,349.9z"/>
				<polygon class="st6" points="283.3,327.5 253.7,321.4 254.2,318.6 283.8,324.7 				"/>
				<polygon class="st6" points="297.7,249.2 271.3,245.5 271.7,242.7 298.1,246.4 				"/>
				<polygon class="st6" points="294.8,266.9 268.3,263.7 268.7,260.9 295.1,264.1 				"/>
				<polygon class="st6" points="291.4,286.4 263.9,282.2 264.4,279.4 291.9,283.6 				"/>
				<polygon class="st6" points="286.9,306.3 258.7,301.5 259.1,298.7 287.4,303.5 				"/>
				<path class="st7" d="M262.6,244.3c0,0,1.4-2.3,3-4.1c0,0,1.4-2.3,4.1-1.2c2.7,1.1,3.2,3.2,3.2,3.2s1.2,10.2,1.2,10.9
					s0.7,8.4-4.4,9L262.6,244.3z"/>
				<path class="st15" d="M262.2,249c0,0-0.7-5.3,1.9-5.9c2.6-0.6,4.3,1,4.7,3.5s3.9,14.5,1,15.5S264,260.8,262.2,249z"/>
				<path class="st6" d="M278.8,156.5c0,0-2.7-4.7-2.7-7c0,0-2.4-6.2,3.5-10.1l1.3,0.9c0,0,2.2-3.9,7.4-4.7c0,0,0,1.8-0.2,2.5
					c0,0,2.9-1.6,6-1.6c0,0,0.8,3.3-0.5,5.3c0,0,1.3,1.2,1.5,2.3c0,0-1,2.1-3.5,3.4c0,0-0.3,1.9-0.5,2.7c0,0-2.7,4.6-4.4,5.7
					C286.8,156,283.1,157.5,278.8,156.5z"/>
				<path class="st13" d="M305.3,192.2c0,0,0.4-2.8,3-3s4.9-0.6,4.9,1.7c0,2.3,0.9,2.4,0.8,3.7s-0.8,3.2-2.3,3.7
					c-1.5,0.5-6.1,1.5-7.2-2.1C303.5,192.5,305.3,192.2,305.3,192.2z"/>
				<path class="st10" d="M282,170.7c0,0,2.3-10.4,7.7-11c4.6-0.5,5.7,4.4,4.5,7.8c-1,2.9-5.6,11.7-2.2,16.4c4,5.4,9.4,7.8,13.7,7.5
					c0,0,1.4,3.7-0.2,6.2c0,0-15.3,1.1-22.7-11.5C282.7,186,279,180.5,282,170.7z"/>
				<polygon class="st10" points="431,230 427.7,231.6 429.2,102.2 432.6,100.6 				"/>
				<polygon class="st7" points="432.6,100.6 255.7,84.6 251.2,86.2 429.3,102.2 				"/>
				<path class="st8" d="M360.1,194.8c0,0-0.2,7.9,0.2,8.6s1.3,1.7,1.5-2.1s-0.4-9.5-0.4-9.5L360.1,194.8z"/>
				<path class="st8" d="M350.5,132.4c0,0-0.2,6.1,0.2,6.6c0.4,0.5,1.2,1.3,1.5-1.7c0.2-3-0.4-7.3-0.4-7.3L350.5,132.4z"/>
				<path class="st8" d="M363.6,193.4c0,0-0.2,6,0.2,6.5s1.3,1.3,1.5-1.6c0.2-2.9-0.4-7.1-0.4-7.1L363.6,193.4z"/>
				<linearGradient id="SVGID_4_" gradientUnits="userSpaceOnUse" x1="388.9376" y1="97.4035" x2="388.9376" y2="160.1601">
					<stop  offset="3.623962e-07" style="stop-color:#60F5B5"/>
					<stop  offset="0.9997" style="stop-color:#FFFFFF;stop-opacity:0"/>
				</linearGradient>
				<polygon class="st16" points="385.5,96.4 426.7,183.8 351.1,170 375.4,95.8 				"/>
				<linearGradient id="SVGID_5_" gradientUnits="userSpaceOnUse" x1="328.5543" y1="91.9141" x2="328.5543" y2="154.6707">
					<stop  offset="3.623962e-07" style="stop-color:#60F5B5"/>
					<stop  offset="0.9997" style="stop-color:#FFFFFF;stop-opacity:0"/>
				</linearGradient>
				<polygon class="st17" points="325.1,90.9 366.4,178.3 290.8,164.5 315,90.3 				"/>
				<linearGradient id="SVGID_6_" gradientUnits="userSpaceOnUse" x1="277.1134" y1="89.0808" x2="277.1134" y2="151.8375">
					<stop  offset="3.623962e-07" style="stop-color:#60F5B5"/>
					<stop  offset="0.9997" style="stop-color:#FFFFFF;stop-opacity:0"/>
				</linearGradient>
				<polygon class="st18" points="273.9,88.1 315.2,175.5 239,164.7 263.8,87.4 				"/>
				<path class="st6" d="M376.6,87.8c0,0-4.4,3.2-1.9,9.8c0,0,0.8,2.5,3.9,2.6c3.1,0.2,6.9-2.2,7-4c0,0,0-7.9-6.2-8.8L376.6,87.8z"
					/>
				<path class="st6" d="M316.2,82.8c0,0-4.4,3.2-1.9,9.8c0,0,0.8,2.5,3.9,2.6c3.1,0.2,6.9-2.2,7-4c0,0,0-7.9-6.2-8.8L316.2,82.8z"
					/>
				<path class="st6" d="M265.2,79.2c0,0-4.4,3.2-1.9,9.8c0,0,0.8,2.5,3.9,2.6c3.1,0.2,6.9-2.2,7-4c0,0,0-7.9-6.2-8.8L265.2,79.2z"
					/>
				<path class="st4" d="M328,303.4c0,0-0.6,3.2,2.6,4.6c5.5,2.5,14.2,0.4,14.2-2.8c0-0.4-0.2-5.3-0.2-12.6L328,303.4z"/>
			</g>
			<g>
				<path class="st7" d="M236.1,136.3c-0.4-11-8-20.3-16.7-21.8c-8.4-1.5-16.3,4.4-18.2,14.3c-2.1,11.3,4.3,24.1,15,26.9
					C227.6,158.6,236.6,149.1,236.1,136.3z"/>
				<polygon class="st7" points="234.6,143 244.2,139.2 234.3,131.4 225.1,134.9 				"/>
				<g>
					<path class="st0" d="M209.7,131.5c-0.5-0.8-0.5-1.7-0.1-2.5c0.4-0.8,1-1.2,1.8-1.1c1.4,0.2,2.7,0.6,4.1,0.8
						c0.6,0.1,1.1,0.2,1.7,0.3c0.4,0.1,0.5-0.2,0.5-0.6c0-0.1,0-0.2,0-0.3c-0.2-0.7-0.3-1.4-0.5-2.1c-0.2-0.6-0.4-1.3-0.4-1.9
						c-0.1-1-0.1-1.9,0.1-2.8c0-0.4,0.1-0.7,0.3-1.2c0.1-0.2,0.4-0.7,0.5-0.7c0.4-0.2,0.9-0.2,1.4,0c0.5,0.3,1,0.7,1,1.4
						c0.1,0.6,0.2,1.3,0.3,2c0.2,1.3,0.6,2.5,1.2,3.7c0.9,1.8,1.8,3.6,2.9,5.4c0.3,0.5,0.5,1.1,0.5,1.8c-0.1,2.7-0.1,5.5-0.2,8.4
						c-0.4,0.3-0.7,0.7-1.1,1c-0.5,0.5-0.9,0.9-1.4,1.4c-0.5,0.5-1,0.9-1.4,1.3c-0.2,0.2-0.5,0.4-0.7,0.7c-0.2,0.2-0.3,0.3-0.5,0.5
						c-2.2-0.6-4.4-1.1-6.6-1.7c-0.2,0-0.4-0.1-0.6-0.2c-1.1-0.6-1.7-2.2-1.3-3.5c0.1-0.3,0.1-0.4-0.2-0.6c-1.2-1-1.3-3-0.3-4.1
						c0,0,0.1-0.1,0.1-0.2c-0.7-0.5-1.1-1.1-1.2-2c-0.1-0.9,0.2-1.7,0.8-2.2c-0.1-0.1-0.1-0.1-0.2-0.2
						C210,131.9,209.8,131.7,209.7,131.5z"/>
					<path class="st0" d="M218.5,146.5c0,0,6,2.3,7.7-2.5c1.6-4.6,0.4-8.4-1.8-12.1L218.5,146.5z"/>
				</g>
			</g>
			<g>
				<path class="st7" d="M301.5,233.5v15.4c0,0,1.9,3.1,8.9,2.9c7.3-0.2,9.1-2.9,9.1-2.9v-15.8L301.5,233.5z"/>
				
					<ellipse transform="matrix(0.9997 -2.245587e-02 2.245587e-02 0.9997 -5.1592 7.0317)" class="st7" cx="310.5" cy="233.2" rx="9" ry="2.4"/>
				
					<ellipse transform="matrix(0.9997 -2.245587e-02 2.245587e-02 0.9997 -5.1692 7.0321)" class="st8" cx="310.5" cy="233.7" rx="7.7" ry="1.9"/>
				<path class="st4" d="M308.2,238.1c-7.6-9.9-7.3-13-6.9-13.9c0.2-0.3,0.4-0.5,0.7-0.6c0.1-0.4,0.1-0.9,0.2-1.4
					c-0.6,0.1-1.5,0.4-2,1.3c-1.3,2.5,1,7.6,7,15.3c0.1,0.2,0.3,0.2,0.5,0.2c0.1,0,0.3,0,0.4-0.1
					C308.4,238.8,308.4,238.4,308.2,238.1z"/>
			</g>
			<path class="st8" d="M313.1,234.1c0,0-0.2,6.1,0.2,6.6c0.3,0.5,1,1.3,1.2-1.7c0.2-3-0.3-7.3-0.3-7.3L313.1,234.1z"/>
			<path class="st8" d="M316,234.6c0,0-0.1,3.3,0.1,3.5c0.3,0.3,0.9,0.7,1-0.9c0.1-1.6-0.3-3.9-0.3-3.9L316,234.6z"/>
			<g>
				<g>
					<g>
						<g>
							
								<linearGradient id="SVGID_7_" gradientUnits="userSpaceOnUse" x1="324.6997" y1="404.7236" x2="360.3929" y2="382.2969" gradientTransform="matrix(0.9983 5.829970e-02 -5.829970e-02 0.9983 100.4717 -55.7606)">
								<stop  offset="0" style="stop-color:#00BB82"/>
								<stop  offset="0.272" style="stop-color:#05C186;stop-opacity:0.7279"/>
								<stop  offset="0.6415" style="stop-color:#13D390;stop-opacity:0.3583"/>
								<stop  offset="0.9997" style="stop-color:#25EA9D;stop-opacity:0"/>
							</linearGradient>
							<polygon class="st19" points="413.1,370.6 453,343.1 447.6,334.2 403.9,355.6 							"/>
							<g>
								
									<linearGradient id="SVGID_8_" gradientUnits="userSpaceOnUse" x1="286.1883" y1="422.3507" x2="362.761" y2="411.9763" gradientTransform="matrix(0.9983 5.829970e-02 -5.829970e-02 0.9983 100.4717 -55.7606)">
									<stop  offset="0" style="stop-color:#00BB82"/>
									<stop  offset="0.4685" style="stop-color:#13D390;stop-opacity:0.5313"/>
									<stop  offset="0.9997" style="stop-color:#25EA9D;stop-opacity:0"/>
								</linearGradient>
								<path class="st20" d="M359.6,406.8c0,0,13.7,3.9,17.2-3.1c2.7-5.2-1.3-8.8,0.3-10.3c1.6-1.4,5.8-3.5,8.7-6.1
									s4.6-4.4,11.8-6.3c7.2-1.9,17.5-9.5,18.1-14.5c0.4-2.9,3-14.1,3-14.1l-41.1,16.3c0,0-61.8,9.2-62.9,10.4
									c-1.1,1.2-1.7,11.3-1.7,11.3L359.6,406.8z"/>
								<g>
									<polygon class="st6" points="366.1,403.6 326.8,426.3 267.7,397.8 301.9,379.4 323.5,392.8 									"/>
									<path class="st11" d="M318.5,357.8c0,0-17,12.1-18.5,18.4c-1.3,5.7-0.5,12.7,20.3,8.7c18.1-3.5,23.4-0.1,43.4,6l-11.4-28.1
										l-9.4-1.7L318.5,357.8z"/>
									<path class="st7" d="M384,332.9l7.6,3.5c0,0,4.7,1.8,7.6-0.3c2.9-2.1-1.5-6.5-1.5-6.5s6.8-17.8-2-21.8
										C395.7,307.8,384.4,321.2,384,332.9z"/>
									<path class="st15" d="M383.7,332.9c0,0-2.5-1.3-0.8-6.1c1.8-5.2,3.1-13.1,8.4-17.4c5.2-4.3,6.9-0.9,3.8,6.6
										C391.8,324.2,387.4,334.8,383.7,332.9z"/>
									<path class="st6" d="M398.1,348c0,0,4.5-6.1,22.1-7.6c0,0,4.5-0.4,8-2.9c0,0,5-0.1,5,5.8c0,0-18.2,12.1-26.9,16.3
										L398.1,348z"/>
									<path class="st6" d="M364.9,363.8c0,0,6.6-17.3,22.6-11.1c0,0,9.1-5.3,14-7.1l8.5,4.6l-2,12.3c0,0-16.4,4.5-17.3,4.4
										s-16.7,1.2-16.7,1.2L364.9,363.8z"/>
									<path class="st4" d="M387,379.9c0,0,11.1,2.1,27-9.7c13.8-10.4,3.2-30.1-16.4-40.8c0,0,0.3,2.8-1.7,4.9
										c-2.4,2.5-4.2,2.1-4.2,2.1s9.6,8.8,10.9,12.1c1.7,4.4-0.6,7.7-6.9,8.7c0,0-15.6-7.8-22.5,10.1L387,379.9z"/>
									<path class="st6" d="M322.4,346.2c0,0-6.5,1.6-6,13.7c0.3,7.1-0.5,12.8-1.3,13.7c0,0,8.2,2.4,15.9-4.3L322.4,346.2z"/>
									<path class="st11" d="M314.7,374.8l10.5-11l-4.6-6.8c0,0-8.1,3.7-13.3,13.5L314.7,374.8z"/>
									<path class="st21" d="M321.6,354.8c0,0-3.1-1.8-4.2,3.3s5.2,10.6,8.8,9.7c3.2-0.8-1.4-2.8-2.6-8.5
										C322.4,353.7,321.6,354.8,321.6,354.8z"/>
									<path class="st11" d="M352.7,359.8c0,0,7.1,5.2,14.1,1.1c0,0,11.8-0.9,19,10.5c0,0,3.5,4.9,1.9,9.3l-5.4,4.1
										c0,0-0.6,7.4-9.6,7.3l-18.5-22.9L352.7,359.8z"/>
									<path class="st22" d="M322.8,360c1.7,7.1,7.4,12.3,16.3,10.1c7.3-1.8,8.4-8.3,6.6-18.3c-1.3-7.2-11.7-10.3-17.7-7.8
										C321.9,346.4,320.8,352,322.8,360z"/>
									<path class="st6" d="M319.4,348.5c0,0,5.1,8.9,23.7,9.5c0,0,3.8,9.2-0.7,17.8c0,0,12.1-1.5,15.7-13.5c0,0-4-4.4-5.9-12.8
										S342,331.6,329,336.4C319.2,339.9,319.4,348.5,319.4,348.5z"/>
									<g>
										<path class="st4" d="M297.7,408.7c0,0,18.2-3.9,29.1,14.2L357,405c0,0-11.8-19.8-31.7-13.7L297.7,408.7z"/>
										<path class="st7" d="M297.9,408.6c0,0,18.6-7.4,29.6,10.8l29-16.5c0,0-11.3-17.3-31.3-11.6L297.9,408.6z"/>
										
											<linearGradient id="SVGID_9_" gradientUnits="userSpaceOnUse" x1="226.5348" y1="439.1428" x2="294.1777" y2="442.0837" gradientTransform="matrix(0.9983 5.829970e-02 -5.829970e-02 0.9983 100.4717 -55.7606)">
											<stop  offset="0" style="stop-color:#00BB82"/>
											<stop  offset="0.4685" style="stop-color:#13D390;stop-opacity:0.5313"/>
											<stop  offset="0.9997" style="stop-color:#25EA9D;stop-opacity:0"/>
										</linearGradient>
										<path class="st23" d="M333.9,400.5c0,0,7.7-2.8,18.7,4.6l4.7-2.5C357.3,402.6,339.4,389.4,333.9,400.5z"/>
										<path class="st4" d="M297.9,408.6c0,0-6.3-12.2-22.1-10.5c0,0,15.7-10.3,15.4-10.2C290.8,388.2,301.3,397.4,297.9,408.6z"
											/>
										<path class="st1" d="M325.3,391.2c0,0-4.8-10.9-22.7-9.8l-28.1,15.4c0,0,16.7-5.5,23.5,11.8L325.3,391.2z"/>
									</g>
									<path class="st6" d="M329.6,387.8l6.2-11.3c0,0,0.6-0.8,1.5-0.3c0.9,0.6,0.5,1.3,0.5,1.3l-6.5,11.9L329.6,387.8z"/>
									<g>
										<path class="st10" d="M316.4,391c-0.9,0-1.9,0-2.9,0.1c-0.1-0.1-0.3-0.1-0.4-0.2c-2.1-1.2-4.3-2-6.3-2.8c0,0,0,0,0,0h0
											c-2.2-0.8-3.9-1.4-6.3-2c-0.1,0-0.2,0-0.2,0.1c-0.4,0.6-1.4,2-2.3,3.4c-1.1,1.5-2.1,3-2.4,3.5c-0.1,0.1,0,0.2,0.1,0.3
											c0.1,0.1,0.2,0,0.3-0.1c0.3-0.6,1.4-2.1,2.4-3.5c0.9-1.3,1.8-2.7,2.3-3.3c2.3,0.6,4,1.1,6.1,1.9c2,0.8,4.1,1.7,6.1,2.7
											c0,0,0,0,0,0c-0.6,0-1.2,0.1-1.8,0.1c-1.8,0.1-3.6,0.3-5.3,0.6c-0.5,0.1-1,0.2-1.4,0.2c-3.1,0.6-6.3,1.5-9.5,2.6
											c-0.1,0-0.2,0.1-0.1,0.2c0,0.1,0.1,0.1,0.2,0.1c0,0,0,0,0.1,0c3.1-1.1,6.3-2,9.5-2.6c0.5-0.1,1-0.2,1.4-0.2
											c1.6-0.2,3.6-0.5,5.6-0.6c0.7,0,1.4-0.1,2.1-0.1c0.6,0.3,1.2,0.7,1.7,1.1c0,0,0.1,0,0.1,0c0.1,0,0.1,0,0.2-0.1
											c0.1-0.1,0-0.2,0-0.3c-0.4-0.3-0.9-0.6-1.3-0.9c0.8,0,1.6-0.1,2.3-0.1c0.1,0,0.2-0.1,0.2-0.2
											C316.6,391.1,316.6,391,316.4,391z"/>
										<path class="st10" d="M340.2,404.6c-0.1-0.1-0.2,0-0.3,0c-0.9,1.2-2.3,2.1-4.1,2.8c-5,1.9-11.5,1.1-14.5-1.8
											c-0.1-0.1-0.2-0.1-0.3,0c-0.1,0.1-0.1,0.2,0,0.3c2,1.9,5.4,3,9,3c2,0,4.1-0.3,5.9-1.1c1.9-0.7,3.3-1.7,4.3-3
											C340.3,404.8,340.3,404.7,340.2,404.6z"/>
									</g>
									<polyline class="st6" points="323.2,399.6 321.7,402.3 321,405.8 323.8,403.5 325.3,400.9 323.5,399.7 									"/>
									<path class="st22" d="M342,390.1c0,0-4.8-0.3-8.1-2c-1.8-1-2.8-1.4-5.7,0.1s-5.2,2.9-5.2,2.9s-1.4,0.9-1.4,2.8
										c0.1,1.9-0.3,5.9,1.2,6.9c3.8,2.6,9,3.4,10.7,1.3c2.5-3,4.8-2.3,4.8-2.3L342,390.1z"/>
									<path class="st10" d="M367.2,371.6c0,0-6.5-10.2-13.7-5.1c-5.6,3.9,1.9,11.2,6.8,18.6c3.6,5.3,5.2,8.9-2.3,6.4
										s-15.6-2.6-19.3-2c0,0-2.2,4.7-1.1,10.1c0,0,9.8,0,17.6,3s18.4,6.6,22-0.1C380.8,395.7,373.9,380,367.2,371.6z"/>
								</g>
							</g>
						</g>
					</g>
					<g>
						<path class="st7" d="M324.1,313.2c-4.1-1.2-7.5-5.8-7.5-10.3c0-4.4,3.2-7,7.2-6c-1.4-2.5-2.2-5.3-2.2-8.1
							c0-7.3,5.5-11.5,12.1-9.4c2.5,0.8,4.8,2.3,6.7,4.3c2-5.4,7.2-7.9,13.2-6c7.6,2.5,13.7,11.3,13.7,19.7c0,1.1-0.1,2.1-0.3,3.1
							c0.6,0.1,1.2,0.2,1.8,0.4c6.1,1.9,11,8.9,11,15.7c0,6.8-4.9,11-11,9.2L324.1,313.2z"/>
						<g>
							<path class="st7" d="M352.8,340.1c-0.5-1.5,0-2.9,1.2-3.2c1.2-0.3,2.6,0.7,3.1,2.2c0.5,1.5,0,2.9-1.2,3.2
								C354.7,342.5,353.3,341.6,352.8,340.1z"/>
							<path class="st7" d="M355.7,332.2c-0.8-2.3,0-4.5,1.9-5c1.9-0.4,4,1.1,4.8,3.4c0.8,2.3,0,4.5-1.9,5
								C358.6,336,356.5,334.5,355.7,332.2z"/>
						</g>
						<g>
							<polygon class="st0" points="338.5,306.9 329.6,304.4 329.6,294.5 338.5,297 							"/>
							<polygon class="st0" points="341.3,307.5 347.1,299.2 352.9,310.6 							"/>
							<path class="st0" d="M355.4,306.6c0-3,2.1-4.8,4.7-4.1c2.6,0.7,4.7,3.7,4.7,6.7s-2.1,4.8-4.7,4.1
								C357.5,312.6,355.4,309.6,355.4,306.6z"/>
						</g>
					</g>
				</g>
				<path class="st7" d="M333,367c0,0,5-1.8,7.4-5c0,0,2.1,3-0.9,5C335.7,369.6,333,367,333,367z"/>
			</g>
			<g>
				<g>
					<path class="st11" d="M373.9,257.9l-6.5-3.6l4.3-6.9C371.6,247.5,374.2,251.8,373.9,257.9z"/>
					<polygon class="st10" points="375.1,248.8 373.9,257.9 372.6,251.3 335.4,231.6 					"/>
					<polygon class="st7" points="383,242.1 335.6,231.7 375.1,248.8 					"/>
					<polygon class="st7" points="335.4,231.6 361.2,260.7 372.6,251.3 					"/>
				</g>
			</g>
			<g>
				<linearGradient id="SVGID_10_" gradientUnits="userSpaceOnUse" x1="513.3647" y1="306.2048" x2="532.1457" y2="265.5126">
					<stop  offset="0" style="stop-color:#00BB82"/>
					<stop  offset="0.3017" style="stop-color:#08C587;stop-opacity:0.6982"/>
					<stop  offset="0.8046" style="stop-color:#1CDE96;stop-opacity:0.1951"/>
					<stop  offset="0.9997" style="stop-color:#25EA9D;stop-opacity:0"/>
				</linearGradient>
				<polygon class="st24" points="526.9,290.2 559.9,272 503.3,261.4 				"/>
				<polygon class="st7" points="494.8,280.8 462.8,288 478.1,299.3 509.8,291.4 				"/>
				<polygon class="st7" points="503,297.3 492.8,299.8 502.4,307.1 512.7,304.2 				"/>
				<g>
					<g>
						<path class="st6" d="M526.9,290.2l7.5-40.4c0.1-0.6-0.4-1.1-1-1.2l-48.4-8.3c-0.7-0.1-1.4,0.4-1.4,1.1l-3.8,36.8L526.9,290.2z
							"/>
						<polygon class="st7" points="526.6,289.7 530.9,251.1 479.4,242 479.1,248.2 						"/>
						<polygon class="st0" points="478.7,244.7 527.4,253.7 526.2,287.2 494.8,274.4 						"/>
						<path class="st4" d="M479.8,279.1l47.1,11.1l-2.7-31.3c-0.2-1-1-1.7-2-1.9l-47.6-9.6L479.8,279.1z"/>
						<path class="st4" d="M474.6,247.3l0.5-3.4c0.1-0.6,0.7-0.9,1.3-0.8l13.6,2.4c1.1,0.2,2,0.8,2.7,1.7l3.9,5.3L474.6,247.3z"/>
					</g>
					<g>
						
							<ellipse transform="matrix(0.8118 -0.5839 0.5839 0.8118 -43.2467 359.6305)" class="st7" cx="536.3" cy="246.9" rx="8.5" ry="9.9"/>
						<polygon class="st0" points="532.5,245.4 531.1,246.8 535.1,251.6 541.7,245 540.1,243.2 535,248.4 						"/>
					</g>
				</g>
				<g>
					<polygon class="st7" points="488.2,303.8 474,306.7 489.2,319.5 503.4,316 					"/>
					<polygon class="st0" points="503.7,316.1 486.4,311.1 488.1,303.4 489,303.5 487.4,310.7 504,315.4 					"/>
					<polygon class="st0" points="489,320.6 488.2,320.4 492.1,312.6 492.9,312.9 					"/>
					<polygon class="st0" points="487.2,308.4 473.2,307.3 473.3,306.6 487.3,307.7 					"/>
				</g>
			</g>
			<g>
				<linearGradient id="SVGID_11_" gradientUnits="userSpaceOnUse" x1="121.3132" y1="404.0849" x2="163.2823" y2="404.0849">
					<stop  offset="0" style="stop-color:#00BB82"/>
					<stop  offset="0.4685" style="stop-color:#13D390;stop-opacity:0.5313"/>
					<stop  offset="0.9997" style="stop-color:#25EA9D;stop-opacity:0"/>
				</linearGradient>
				<polygon class="st25" points="125.8,412.3 163.3,398.9 156.4,395.9 121.3,408.4 				"/>
				<linearGradient id="SVGID_12_" gradientUnits="userSpaceOnUse" x1="232.6355" y1="362.0597" x2="272.7625" y2="362.0597">
					<stop  offset="0" style="stop-color:#00BB82"/>
					<stop  offset="0.4685" style="stop-color:#13D390;stop-opacity:0.5313"/>
					<stop  offset="0.9997" style="stop-color:#25EA9D;stop-opacity:0"/>
				</linearGradient>
				<polygon class="st26" points="235.9,370.6 272.8,355.9 267.1,353.5 232.6,367.3 				"/>
				<linearGradient id="SVGID_13_" gradientUnits="userSpaceOnUse" x1="70.7121" y1="378.0403" x2="112.0859" y2="378.0403">
					<stop  offset="0" style="stop-color:#00BB82"/>
					<stop  offset="0.4685" style="stop-color:#13D390;stop-opacity:0.5313"/>
					<stop  offset="0.9997" style="stop-color:#25EA9D;stop-opacity:0"/>
				</linearGradient>
				<polygon class="st27" points="73.4,386.1 112.1,373.3 107.6,370 70.7,382.5 				"/>
				<linearGradient id="SVGID_14_" gradientUnits="userSpaceOnUse" x1="171.9144" y1="390.8177" x2="216.7856" y2="372.7352">
					<stop  offset="0" style="stop-color:#00BB82"/>
					<stop  offset="0.4685" style="stop-color:#13D390;stop-opacity:0.5313"/>
					<stop  offset="0.9997" style="stop-color:#25EA9D;stop-opacity:0"/>
				</linearGradient>
				<polygon class="st28" points="183.4,402.2 237.7,383 202.2,363.4 156.4,378.3 171.2,389 179.9,385.7 				"/>
				<g>
					<g>
						<g>
							<path class="st7" d="M127.1,348.8l0.2,62.1c0,0,0,1.6-3,2.1c-3,0.5-3.7-1.9-3.7-1.9l-0.2-63.1L127.1,348.8z"/>
							<linearGradient id="SVGID_15_" gradientUnits="userSpaceOnUse" x1="123.8413" y1="329.7007" x2="123.8413" y2="366.3229">
								<stop  offset="0" style="stop-color:#00BB82"/>
								<stop  offset="0.4685" style="stop-color:#13D390;stop-opacity:0.5313"/>
								<stop  offset="0.9997" style="stop-color:#25EA9D;stop-opacity:0"/>
							</linearGradient>
							<polygon class="st29" points="127.3,379.2 127.1,348.8 120.4,348 120.5,379.2 							"/>
							<path class="st7" d="M75.1,322.9l0.7,61.1c0,0,0,1.6-2.5,2.2s-3.2-1.8-3.2-1.8l-0.7-62.1L75.1,322.9z"/>
							<linearGradient id="SVGID_16_" gradientUnits="userSpaceOnUse" x1="72.3615" y1="305.2966" x2="72.3615" y2="343.4009">
								<stop  offset="0" style="stop-color:#00BB82"/>
								<stop  offset="0.4685" style="stop-color:#13D390;stop-opacity:0.5313"/>
								<stop  offset="0.9997" style="stop-color:#25EA9D;stop-opacity:0"/>
							</linearGradient>
							<polygon class="st30" points="75.4,345 75.1,322.9 69.4,322.3 69.6,345 							"/>
							<path class="st7" d="M238.5,314l-0.1,54.6c0,0,0,1.6-2.5,2.1c-2.5,0.5-3-1.9-3-1.9l0.1-55.6L238.5,314z"/>
							<linearGradient id="SVGID_17_" gradientUnits="userSpaceOnUse" x1="235.6891" y1="292.9859" x2="235.6891" y2="335.5763">
								<stop  offset="0" style="stop-color:#00BB82"/>
								<stop  offset="0.4685" style="stop-color:#13D390;stop-opacity:0.5313"/>
								<stop  offset="0.9997" style="stop-color:#25EA9D;stop-opacity:0"/>
							</linearGradient>
							<polygon class="st31" points="238.4,337.6 238.5,314 233,313.3 232.9,337.6 							"/>
							<path class="st7" d="M202.9,362.9l0.6,8.5c0,0-0.2,2.8-2.1,3.7c-1.8,0.9-6.6,1.9-13.6-1.8c-7-3.7-8.9-5.1-8.9-5.1
								s-2.4-1.3-1.9-4.6c0.5-3.3,4.2-4.9,7.3-4.8c3.1,0.2,8.9,1.6,8.9,1.6L202.9,362.9z"/>
							<path class="st6" d="M193.1,368.3c0,0-18-4.1-23,3.6l1,1.9c0,0,8.1-2.7,16.5,1.5L193.1,368.3z"/>
							<path class="st6" d="M189.6,353.7c0.2,3.2,0.5,6.4,0.8,9.5c0,0,2.5,3.2,5.9,3.3c4.6,0.1,6.8-2.3,6.8-2.3l-0.3-9.7
								L189.6,353.7z"/>
							<path class="st7" d="M172.8,375.9l0.7,9.1c0,0-0.2,3-2.2,4c-1.9,1-7,2.1-14.5-1.9c-7.5-4-9.5-5.4-9.5-5.4s-2.5-1.4-2.1-4.9
								c0.5-3.5,4.5-5.2,7.8-5.1c3.3,0.2,9.5,1.8,9.5,1.8L172.8,375.9z"/>
							<path class="st4" d="M155.9,340.9c0,1.4,1,19.8,3.7,35.7c0,0,2.9,3.2,6.5,3.1c4.9-0.2,6.8-2.6,6.8-2.6l-1.3-18.8l-6-5.6
								l0.7-9.9l-4.8-4.6C161.5,338.2,155.6,330,155.9,340.9z"/>
							<path class="st6" d="M212.1,348.3l-42.5-6c0.1-1,0.3-1.5,0.3-1.5s-7,1.3-6.3,9.5c0.7,8.2,11,11.3,11,11.3
								c21.2,6.8,31.4-0.5,31.4-0.5l1.3-2.1l3-0.4L212.1,348.3z"/>
							<path class="st4" d="M204.5,348.8c0,0-2.9,3.7-11.4,4.9c-8.5,1.2-33.6-12-33.6-12s-3.1-5.8,1.5-7.3
								c4.6-1.5,14.9-7.7,28.8-1.2l10.2,8.6L204.5,348.8z"/>
							<polygon class="st10" points="243,310 242.9,314.4 123.9,351.5 124.2,341.8 							"/>
							<path class="st32" d="M123.9,351.5L63.8,321l0.1-4.8l60.3,23.2C124.2,339.4,123.9,351.7,123.9,351.5z"/>
							<polygon class="st7" points="124.1,346.7 63.9,316.2 179.4,285.8 243,310 							"/>
							<g>
								<polygon class="st32" points="124.8,318 113.8,312.1 100.1,316.8 117.8,327.4 131.4,321.5 								"/>
								<polygon class="st10" points="109.6,320.9 97.6,325.9 114.1,334.1 126.4,328.5 								"/>
								<path class="st4" d="M119.6,321.2l14.4,7.2c0.9,0.5,2,0.6,3,0.3l42-13.9c0.4-0.1,0.1-2.1-0.2-2.3l-14.8-5.8
									c-0.1-0.1-0.2-0.1-0.3,0l-44.3,12.3C119,319.1,119.3,321,119.6,321.2z"/>
								<path class="st6" d="M119.6,319.4l14.4,7.3c0.9,0.5,2,0.6,3,0.3l41.9-13.9c0.4-0.1,0.4-0.6,0.1-0.8l-14.9-6.7
									c-0.1-0.1-0.2-0.1-0.3,0l-44,13C119.3,318.8,119.3,319.3,119.6,319.4z"/>
								<path class="st4" d="M150.6,317.8l-11.3,3.5c-0.1,0-0.1,0.2,0,0.3l2.3,1.2c0,0,0.1,0,0.1,0l10.5-3.3c0.1,0,0.1-0.2,0.1-0.3
									l-1.5-1.3C150.7,317.8,150.6,317.8,150.6,317.8z"/>
								<path class="st4" d="M126,318.8l1.7,0.9c0,0,0.1,0,0.1,0l2.2-0.7c0.1,0,0.2-0.2,0-0.3l-1.7-0.9c0,0-0.1,0-0.1,0l-2.2,0.7
									C125.9,318.6,125.9,318.7,126,318.8z"/>
								<path class="st4" d="M133.6,318l1.7,0.9c0,0,0.1,0,0.1,0l2.3-0.6c0.1,0,0.2-0.2,0-0.3l-1.7-0.9c0,0-0.1,0-0.1,0l-2.3,0.6
									C133.5,317.7,133.5,317.9,133.6,318z"/>
								<path class="st4" d="M137.4,316.9l1.7,0.9c0,0,0.1,0,0.1,0l2.2-0.7c0.1,0,0.2-0.2,0-0.3l-1.7-0.9c0,0-0.1,0-0.1,0l-2.2,0.7
									C137.3,316.7,137.3,316.9,137.4,316.9z"/>
								<path class="st4" d="M143.7,313.5l1.7,1c0,0,0.1,0,0.1,0l2.3-0.6c0.1,0,0.2-0.2,0-0.3l-1.7-1c0,0-0.1,0-0.1,0l-2.3,0.6
									C143.6,313.2,143.6,313.4,143.7,313.5z"/>
								<path class="st4" d="M132.4,322.2l1.7,0.8c0,0,0.1,0,0.1,0l2.2-0.8c0.1,0,0.1-0.2,0-0.3l-1.7-0.8c0,0-0.1,0-0.1,0l-2.2,0.8
									C132.3,321.9,132.3,322.1,132.4,322.2z"/>
							</g>
							<path class="st6" d="M187.4,298.6c0,0-5.3-1.7-7.9,0.6s1.9,4.5,6.4,6C185.9,305.2,190.2,304.4,187.4,298.6z"/>
							<path class="st33" d="M185.9,305.2c0,0-3.8-0.3-4.5-1.2c-0.7-0.8-0.3-1.8,2.3-2c2.6-0.2,3.8-1.6,1-6.1
								c-2.8-4.5-0.7-5,2.1-1.6c2.3,2.7,4.6,3,4.6,3L185.9,305.2z"/>
							<g>
								<path class="st4" d="M98.7,252.7l1.1,49.3c0,0.7,0.2,1.9,0.6,2.2c4,3.1,2.2,0.6,3.2,0.3l67.4-18.8c1.2-0.3,2.1-1.4,2.1-2.7
									l0.2-46.9c0-1.8-1.1-2.1-2.8-1.7L100.8,250C99.6,250.3,98.7,251.4,98.7,252.7z"/>
								<polygon class="st4" points="172.6,234.4 174.5,235.4 172.4,237.8 170.9,234.8 								"/>
								<path class="st6" d="M100.5,254l0.6,48.5c0,1.8,1.7,3.1,3.4,2.6L173,287c1.2-0.3,2.1-1.4,2.1-2.7l0.2-47
									c0-1.8-1.1-2.6-2.8-2.2l-69.9,16.1C101.4,251.6,100.5,252.7,100.5,254z"/>
								<path class="st4" d="M147.8,300.3c-0.9-0.3-3.7-0.7-3.5-2.3l0.7-7.8l-13.8,3.9l-0.9,8.5c-0.1,1.5,0.2,2.2,1.3,2.8l5,2.8
									c1.2,0.6,1.8,0.7,3.2,0.3l14.7-3.8c0.4-0.1,0.7-0.5,0.6-0.9l0-1.2L147.8,300.3z"/>
								<path class="st6" d="M132.1,293.3l-0.9,9c-0.1,1.3-0.3,1.6,0.8,2.1l4.6,2.5c1.2,0.6,1.8,0.7,3.2,0.3l14.7-3.8
									c0.8-0.2,0.9-1.3,0.1-1.6l-6.7-2.6c-0.9-0.3-2.5-0.6-2.3-2.3l0.4-8L132.1,293.3z"/>
								<g>
									<path class="st4" d="M100.8,294.1l0.2,9c0,1.8,1.7,3.1,3.4,2.6l68.7-18.2c1.2-0.3,2.1-1.4,2.1-2.7l0.1-9.5L100.8,294.1z"/>
								</g>
								<path class="st4" d="M137.9,247c0.1-0.4,0.4-0.7,0.8-0.7c0.4,0,0.6,0.3,0.5,0.7c-0.1,0.4-0.4,0.7-0.8,0.7
									C138,247.7,137.8,247.4,137.9,247z"/>
								<path class="st4" d="M135.6,247.5c0.1-0.4,0.4-0.7,0.8-0.7c0.4,0,0.6,0.3,0.5,0.7c-0.1,0.4-0.4,0.7-0.8,0.7
									C135.8,248.2,135.5,247.9,135.6,247.5z"/>
								<g>
									<path class="st0" d="M125.7,280.9l0.4-24.7l25-5.5l-0.2,24.1L125.7,280.9z M127.2,257.1l-0.5,22.4l23-5.6l0.2-21.8
										L127.2,257.1z"/>
									<g>
										<path class="st0" d="M131,272.6l4.4-11.9l1.3-0.3l4.7,9.9l-2,0.4l-1-2.1l-4.5,1l-0.9,2.6L131,272.6z M134.7,267.5l3-0.7
											l-1.5-3.3L134.7,267.5z"/>
										<path class="st0" d="M142.6,260c0-0.7,0.3-1.1,0.9-1.3c0.3-0.1,0.5,0,0.7,0.1c0.2,0.1,0.3,0.4,0.2,0.7
											c0,0.7-0.3,1.1-0.9,1.3c-0.3,0.1-0.5,0-0.7-0.1C142.6,260.5,142.6,260.3,142.6,260z M142.8,270l-0.1-7.4l1.8-0.4l0.1,7.4
											L142.8,270z"/>
									</g>
								</g>
							</g>
							<path class="st33" d="M194.1,267.8c-0.1,2.9,0,6.2,0.5,9.2c1.4,7.9,7.7,10.5,11.5,10.6c3.8,0,8.6-2.1,11.1-9.2
								c0.7-2,0.3-5.5-0.8-9.2C208.9,269.3,201.5,268.5,194.1,267.8z"/>
							<path class="st6" d="M201.3,279.2l-2.4-6.8c0.1-1,2.2,1.7,1.8,1.2c6-2.6,12.1-5.2,18.2-7.6c0.4-0.2,0.8-0.3,1.1-0.5
								c0.3,1.2-0.1,2.5-0.1,4c-0.1,11-4.2,12.4-4.2,12.4s-4.7,1.6-9.5,0.5C206.2,282.5,203.2,282.1,201.3,279.2z"/>
							<path class="st11" d="M192.1,293.2c0,0,1.9-5.1,9.1-6.5c7.2-1.4,12.3-1.5,17.2,0.9c3.9,2,8.9,5.3,8.7,15.5l-24.8,44.4
								c0,0-7.6,1.1-13.8-2.9c-4.5-2.9-5.5-6.9-5.5-6.9l8.7-36.4L192.1,293.2z"/>
							<path class="st4" d="M229.8,302c0,0-2-8.2-15.1-7.7c-12.8,0.5-19.7,11.4-21.3,33.8c-1.5,21.1,10.3,21,17.9,21.7L229.8,302z"
								/>
							<path class="st6" d="M189,363.2l0,10.4c0,0,1,2.8,3.8,2.6c2.8-0.2,3.8-1.9,3.8-1.9l0-11.2L189,363.2z"/>
							<path class="st6" d="M208,349.5c0,0-0.2,10.6-5.3,13c0,0,4.2,1.2,9.6-1.5c5.5-2.7,4.8-12.7,4.8-12.7L208,349.5z"/>
							<path class="st4" d="M202.8,362.6c0,0,4-0.9,4.4-13.2l3.1,0.1c0,0-0.1,8.7-2.8,11.1C205.2,362.5,202.8,362.6,202.8,362.6z"/>
							<path class="st33" d="M179.4,327.8c4.2,1.5,10.5,3.6,15.4-12.9l4.7-14c0,0,4.4-9.6-2.2-11.1c0,0-4.2-1.6-9,9.1
								c-5.4,12.3-4.2,19.9-9.4,18.3l-12.6-2.9c0,0-2.1-1.1-0.7-4.4c1.4-3.3-2.6-2.1-3.7,0.9c0,0-2.4-2.2-5.6-1.6
								c-2.8,0.5-2.5,1.9-2.5,1.9s-2.1,0.4-2.1,1.8c0,0-1.8-0.4-1.9,2.5c-0.1,1.6,0.3,4,1.6,4.4s1.9-0.5,1.8-1.4
								c0,0-0.2-2.7,1.5-0.2c0.9,1.2,2.9,2.5,7,1.1L179.4,327.8z"/>
							<path class="st10" d="M185.5,306.5c0,0,0.3,2.4,3.9,3.4c3.6,1,4.9,2.1,6.8,1.4c0,0,9.9-18.8,1.8-21.4
								C197.9,289.9,190.3,285.8,185.5,306.5z"/>
							<path class="st6" d="M182.6,395c0,0-1.6-6.1,4.4-12.1c6.4-6.4,8.1-8.3,18.3-6.3c10,1.9,16.2,3.4,16.2,9.4l1.7,0.8
								c0,0,1.5-6.6-2.9-10.5c-6.4-5.7-14.3-6.9-24.4-8.3l-5.1,2.5c0,0-13.9,6.4-13,23.9l2.8,1.1"/>
							<path class="st6" d="M211.9,349.7c0,0,12.1,0,16.8-10.5c5.4-11.9,8.3-42.9-8.2-43.5c-15.4-0.5-21.4,16.7-22.1,31.7
								C197.6,342.5,199.8,351.4,211.9,349.7z"/>
						</g>
						<g>
							<g>
								<path class="st4" d="M94.2,306.6l-10.3,0.3l0.9,10.9c0,0,3.3,3.1,8,0.5L94.2,306.6z"/>
								
									<ellipse transform="matrix(0.9999 -1.468925e-02 1.468925e-02 0.9999 -4.4979 1.3404)" class="st6" cx="89" cy="306.9" rx="5.2" ry="1.3"/>
							</g>
							<polygon class="st4" points="88.1,309.5 84.9,297.4 82.8,295.3 82.4,298.3 85.9,310.1 							"/>
							<path class="st7" d="M88.4,293.8l-1.6,2.5l-0.3,10.6l0,1.1c0.7,0.1,1.4,0.1,2.2,0.1l0.1-1.3l0.7-10.2L88.4,293.8z"/>
							<path class="st6" d="M93.6,296.2l-1.9,1.9l-2.2,8.4l-0.3,1.3c0.1,0,0.2,0,0.3,0c0.7-0.1,1.4-0.2,2-0.3l0.4-1.2L94,299
								L93.6,296.2z"/>
						</g>
					</g>
					<g>
						<path class="st6" d="M181.8,392.1c0,0,3.7,0.6,4.2,5.5c0.3,3.7-2.7,6.4-7,6.1c-2.5-0.2-0.4-2.9-0.6-6.5
							C178.1,393.7,179.6,391.1,181.8,392.1z"/>
						<path class="st4" d="M179,392.4c0,0,3.8,0.5,3.9,5.6c0.1,5.1-2.3,5.6-4.8,5.7c-2.6,0-4.4-2.2-4.4-5.9
							C173.8,394.1,176.7,391.8,179,392.4z"/>
					</g>
					<path class="st6" d="M199.1,273.2c0,0-9.3-4.1-11.1-6.3c-1.8-2.2,0.7-5.4,10.1-5.2C198.2,261.7,203.8,265.7,199.1,273.2z"/>
					<g>
						<path class="st6" d="M224.4,380.6c0,0,3.5,0.6,4,5.2c0.3,3.5-2.5,6-6.6,5.7c-2.4-0.2-0.4-2.8-0.6-6.1S222.4,379.6,224.4,380.6
							z"/>
						<path class="st4" d="M221.8,380.8c0,0,3.6,0.5,3.7,5.3c0.1,4.8-2.1,5.3-4.5,5.3c-2.5,0-4.2-2.1-4.2-5.6
							C216.8,382.4,219.6,380.2,221.8,380.8z"/>
					</g>
					<path class="st7" d="M219.4,275.6c0,0-3,0.8-8.2,1.1c-5.3,0.3-12.7-2.3-16.6-5.3c0,0-0.6-8,1.4-10.3c2-2.3,7.4-4.9,12.6-4.5
						s12.3,6.2,12,11.7C220.4,273.6,219.4,275.6,219.4,275.6z"/>
					<path class="st6" d="M218.3,272.8c0,0-4.2,0.7-8.6,0.6c0,0,0.4-3.9,4.2-4.1S218,271,218.3,272.8z"/>
					<path class="st6" d="M206.6,256.3c0,0,0.2-1.2,1.6-1.2c1.4,0,2.9,1.1,2.9,2.2S207.1,257.2,206.6,256.3z"/>
					<path class="st6" d="M165.9,316.5c0,0-1.9,1.4-1.1,4.5l-3.1-1.8c0,0-0.5-2.6,2-4L165.9,316.5z"/>
					<ellipse class="st7" cx="165.9" cy="314.9" rx="3.2" ry="2.3"/>
				</g>
				<g>
					<g>
						
							<ellipse transform="matrix(0.4728 -0.8811 0.8811 0.4728 -89.5342 286.4752)" class="st11" cx="194.7" cy="218.1" rx="15" ry="12.4"/>
						<path class="st11" d="M191.6,225c0,0,2.7,6.6-1.5,12.8c0,0,7.5,0.8,9-9.6L191.6,225z"/>
					</g>
					<g>
						
							<ellipse transform="matrix(0.4728 -0.8811 0.8811 0.4728 -114.8793 276.9784)" class="st7" cx="174" cy="234.5" rx="15" ry="12.4"/>
						<path class="st7" d="M182.5,235.1c0,0-0.1,7.7,5.7,9.9c0,0-6.2,6.1-11.1-1.8L182.5,235.1z"/>
					</g>
					<g>
						
							<ellipse transform="matrix(0.4728 -0.8811 0.8811 0.4728 -93.7612 282.1235)" class="st0" cx="188.9" cy="219.4" rx="2.4" ry="2"/>
						
							<ellipse transform="matrix(0.4728 -0.8811 0.8811 0.4728 -89.4313 286.9294)" class="st0" cx="195.1" cy="218.2" rx="2.4" ry="2"/>
						
							<ellipse transform="matrix(0.4728 -0.8811 0.8811 0.4728 -85.1014 291.7354)" class="st0" cx="201.3" cy="217" rx="2.4" ry="2"/>
					</g>
					<polygon class="st0" points="168.6,234.3 166.6,237.1 172.5,242.3 181.7,228.7 179.2,226.8 172.2,237.4 					"/>
				</g>
				<g>
					<polygon class="st11" points="113.6,249 118,268 113.5,266.6 110.1,249.3 					"/>
					<polygon class="st10" points="109.6,247.4 106.3,270.8 110.6,267.3 113.5,247.5 					"/>
					<g>
						
							<ellipse transform="matrix(0.4728 -0.8811 0.8811 0.4728 -160.4245 229.2224)" class="st7" cx="111.4" cy="248.7" rx="9" ry="7.5"/>
						<g>
							<path class="st10" d="M106.4,251.3l0.1-1.1l1.1-0.2l0.2-1.2l-1.1,0.2l0.1-1.1l1.1-0.2l0.2-1.7l1.1-0.2l-0.2,1.7l1.1-0.2
								l0.2-1.7l1.1-0.2l-0.2,1.7l1.2-0.2l-0.2,1.2l-1.2,0.2l-0.2,1.3l1.2-0.2l-0.2,1.2l-1.2,0.2l-0.2,1.7l-1.1,0.2l0.2-1.7
								l-1.1,0.2l-0.2,1.7l-1,0.2l0.2-1.6L106.4,251.3z M108.7,249.8l1.1-0.2l0.2-1.2l-1.1,0.2L108.7,249.8z"/>
							<path class="st10" d="M114.3,251.6l0.1-5.4l-0.9,0.8l0-1.3l1.3-1.3l1-0.2l-0.2,7.1L114.3,251.6z"/>
						</g>
					</g>
				</g>
			</g>
		</g>
		<g>
			<g>
				<g>
					<polygon class="st7" points="170.3,196 131.2,203.8 130.6,150 170.3,143.4 					"/>
					<polygon class="st4" points="133.6,165.9 167.5,160.3 167.5,193 133.9,199.7 					"/>
					<polygon class="st6" points="165.2,148.6 162.5,149 162.5,142.8 165.1,142.3 					"/>
					<polygon class="st6" points="139.4,151.9 136.8,152.4 136.7,146.2 139.4,145.7 					"/>
					<g>
						<linearGradient id="SVGID_18_" gradientUnits="userSpaceOnUse" x1="163.6782" y1="142.792" x2="163.6782" y2="96.738">
							<stop  offset="0" style="stop-color:#0C293F"/>
							<stop  offset="1" style="stop-color:#0C293F;stop-opacity:0"/>
						</linearGradient>
						<polygon class="st34" points="164.3,144.5 163.2,144.5 163.1,93.9 164.2,93.9 						"/>
						<linearGradient id="SVGID_19_" gradientUnits="userSpaceOnUse" x1="137.6589" y1="145.202" x2="137.6589" y2="99.2123">
							<stop  offset="0" style="stop-color:#0C293F"/>
							<stop  offset="1" style="stop-color:#0C293F;stop-opacity:0"/>
						</linearGradient>
						<polygon class="st35" points="138.4,146.9 137.4,146.9 136.9,96.4 138,96.4 						"/>
					</g>
				</g>
				<polygon class="st0" points="153.3,186.1 159.2,176.6 167.6,185.7 167.6,193.6 150.7,196.5 				"/>
				<polygon class="st7" points="133.3,200.4 147.3,178.3 160.7,194.9 				"/>
				<path class="st0" d="M150.5,163.9c-0.3-3.3,2.1-6.4,5.3-7.1c3.2-0.6,6.1,1.5,6.4,4.8c0.3,3.3-2.1,6.4-5.3,7.1
					C153.6,169.3,150.8,167.2,150.5,163.9z"/>
			</g>
			<g>
				<polygon class="st7" points="137.5,205.8 138.3,208.1 140.7,207.6 138.7,209.5 139.5,211.8 137.6,210.7 135.7,212.5 136.4,210 
					134.4,208.9 136.8,208.4 				"/>
				<polygon class="st7" points="144.5,204.4 145.2,206.7 147.6,206.2 145.7,208.1 146.5,210.4 144.5,209.3 142.6,211.2 
					143.3,208.6 141.4,207.5 143.8,207 				"/>
				<polygon class="st7" points="151.4,203 152.2,205.3 154.6,204.8 152.7,206.7 153.4,209 151.5,207.9 149.6,209.8 150.3,207.2 
					148.3,206.1 150.7,205.6 				"/>
				<polygon class="st7" points="158.4,201.6 159.2,203.9 161.6,203.4 159.6,205.3 160.4,207.6 158.4,206.5 156.5,208.4 
					157.2,205.8 155.3,204.7 157.7,204.2 				"/>
				<polygon class="st7" points="165.4,200.2 166.1,202.5 168.5,202 166.6,203.9 167.3,206.2 165.4,205.1 163.5,207 164.2,204.4 
					162.3,203.3 164.7,202.8 				"/>
			</g>
		</g>
		<g>
			
				<linearGradient id="SVGID_20_" gradientUnits="userSpaceOnUse" x1="447.797" y1="79.346" x2="447.797" y2="213.7006" gradientTransform="matrix(1 -7.034663e-03 7.812600e-03 1 -3.3156 23.6219)">
				<stop  offset="0" style="stop-color:#FFFFFF"/>
				<stop  offset="0.9997" style="stop-color:#FFFFFF;stop-opacity:0"/>
			</linearGradient>
			<path class="st36" d="M444.8,110.9l3.5,0.3l0,2.1l-6.1-0.5l0.2-11.2l2.6,0.2L444.8,110.9z"/>
			
				<linearGradient id="SVGID_21_" gradientUnits="userSpaceOnUse" x1="456.1754" y1="78.9927" x2="456.1754" y2="215.3241" gradientTransform="matrix(1 -7.034663e-03 7.812600e-03 1 -3.3156 23.6219)">
				<stop  offset="0" style="stop-color:#FFFFFF"/>
				<stop  offset="0.9997" style="stop-color:#FFFFFF;stop-opacity:0"/>
			</linearGradient>
			<path class="st37" d="M455.9,105.4c0.7,0.4,1.2,1,1.6,1.7c0.4,0.7,0.6,1.6,0.5,2.5c0,0.9-0.2,1.7-0.6,2.4
				c-0.4,0.7-0.9,1.2-1.6,1.5c-0.7,0.3-1.5,0.4-2.3,0.4c-0.9-0.1-1.6-0.3-2.3-0.8c-0.7-0.4-1.2-1-1.6-1.7c-0.4-0.7-0.5-1.6-0.5-2.5
				c0-0.9,0.2-1.7,0.6-2.4c0.4-0.7,0.9-1.1,1.6-1.5c0.7-0.3,1.5-0.4,2.3-0.4C454.5,104.7,455.2,105,455.9,105.4z M452.3,107.5
				c-0.4,0.3-0.5,0.9-0.5,1.6c0,0.7,0.1,1.3,0.5,1.7c0.3,0.4,0.8,0.6,1.3,0.7c0.5,0,0.9-0.1,1.3-0.5c0.3-0.3,0.5-0.9,0.5-1.6
				c0-0.7-0.1-1.3-0.5-1.7c-0.3-0.4-0.8-0.6-1.3-0.7C453.1,107,452.6,107.1,452.3,107.5z"/>
			
				<linearGradient id="SVGID_22_" gradientUnits="userSpaceOnUse" x1="466.2289" y1="78.6984" x2="466.2289" y2="215.4751" gradientTransform="matrix(1 -7.034663e-03 7.812600e-03 1 -3.3156 23.6219)">
				<stop  offset="0" style="stop-color:#FFFFFF"/>
				<stop  offset="0.9997" style="stop-color:#FFFFFF;stop-opacity:0"/>
			</linearGradient>
			<path class="st38" d="M464.5,106c0.5,0.4,0.8,0.8,1,1.4l0-1.6l2.7,0.2l-0.1,9c0,0.8-0.2,1.6-0.5,2.2c-0.3,0.6-0.8,1.1-1.5,1.5
				c-0.7,0.3-1.5,0.5-2.4,0.4c-1.3-0.1-2.4-0.5-3.1-1.2c-0.8-0.7-1.2-1.6-1.4-2.7l2.6,0.2c0.1,0.4,0.3,0.7,0.6,0.9
				c0.3,0.2,0.7,0.4,1.2,0.4c0.6,0,1-0.1,1.3-0.4c0.3-0.3,0.5-0.8,0.5-1.5l0-1.6c-0.2,0.5-0.6,0.9-1.1,1.2c-0.5,0.3-1.1,0.4-1.7,0.3
				c-0.7-0.1-1.4-0.3-1.9-0.7c-0.6-0.4-1-1-1.3-1.7c-0.3-0.7-0.5-1.6-0.4-2.5c0-0.9,0.2-1.7,0.5-2.4c0.3-0.7,0.8-1.2,1.4-1.5
				c0.6-0.3,1.2-0.5,1.9-0.4C463.4,105.5,464,105.7,464.5,106z M462.2,108.4c-0.4,0.4-0.5,0.9-0.5,1.6c0,0.7,0.2,1.2,0.5,1.7
				c0.3,0.4,0.8,0.7,1.4,0.7c0.6,0,1-0.1,1.4-0.5c0.4-0.4,0.6-0.9,0.6-1.6c0-0.7-0.2-1.2-0.5-1.7c-0.4-0.4-0.8-0.7-1.4-0.7
				C463,107.8,462.6,108,462.2,108.4z"/>
			
				<linearGradient id="SVGID_23_" gradientUnits="userSpaceOnUse" x1="476.7722" y1="78.3431" x2="476.7722" y2="215.6505" gradientTransform="matrix(1 -7.034663e-03 7.812600e-03 1 -3.3156 23.6219)">
				<stop  offset="0" style="stop-color:#FFFFFF"/>
				<stop  offset="0.9997" style="stop-color:#FFFFFF;stop-opacity:0"/>
			</linearGradient>
			<path class="st39" d="M476.6,107.1c0.7,0.4,1.2,1,1.6,1.8c0.4,0.7,0.6,1.6,0.6,2.5c0,0.9-0.2,1.8-0.6,2.4c-0.4,0.7-1,1.2-1.7,1.5
				c-0.7,0.3-1.5,0.4-2.4,0.4c-0.9-0.1-1.7-0.3-2.4-0.8c-0.7-0.4-1.2-1-1.6-1.8c-0.4-0.7-0.6-1.6-0.6-2.5c0-0.9,0.2-1.7,0.6-2.4
				c0.4-0.7,1-1.2,1.7-1.5c0.7-0.3,1.5-0.4,2.4-0.4C475.1,106.4,475.9,106.6,476.6,107.1z M472.9,109.2c-0.4,0.4-0.5,0.9-0.6,1.6
				c0,0.7,0.2,1.3,0.5,1.7c0.3,0.4,0.8,0.6,1.3,0.7c0.5,0,1-0.1,1.3-0.5c0.4-0.4,0.5-0.9,0.5-1.6c0-0.7-0.2-1.3-0.5-1.7
				c-0.3-0.4-0.8-0.6-1.3-0.7C473.7,108.7,473.2,108.8,472.9,109.2z"/>
			
				<linearGradient id="SVGID_24_" gradientUnits="userSpaceOnUse" x1="448.5687" y1="79.4339" x2="448.5687" y2="215.0047" gradientTransform="matrix(1 -7.034663e-03 7.812600e-03 1 -3.3156 23.6219)">
				<stop  offset="0" style="stop-color:#FFFFFF"/>
				<stop  offset="0.9997" style="stop-color:#FFFFFF;stop-opacity:0"/>
			</linearGradient>
			<path class="st40" d="M449.9,126.3c0.4,0.5,0.6,1.1,0.5,1.8c0,1-0.3,1.7-1,2.2c-0.6,0.5-1.5,0.7-2.7,0.6l-5-0.5l0.2-11.3l4.9,0.4
				c1.1,0.1,2,0.4,2.6,1c0.6,0.6,0.9,1.3,0.9,2.2c0,0.7-0.2,1.2-0.6,1.7c-0.4,0.4-0.8,0.7-1.4,0.8
				C449,125.4,449.5,125.8,449.9,126.3z M444.5,124l1.7,0.2c0.9,0.1,1.4-0.3,1.4-1.1c0-0.8-0.4-1.3-1.4-1.4l-1.7-0.2L444.5,124z
				 M447.8,127.5c0-0.4-0.1-0.7-0.4-1c-0.3-0.3-0.6-0.4-1.1-0.5l-1.9-0.2l-0.1,2.6l1.9,0.2C447.2,128.7,447.7,128.3,447.8,127.5z"/>
			
				<linearGradient id="SVGID_25_" gradientUnits="userSpaceOnUse" x1="457.1811" y1="79.0349" x2="457.1811" y2="215.7236" gradientTransform="matrix(1 -7.034663e-03 7.812600e-03 1 -3.3156 23.6219)">
				<stop  offset="0" style="stop-color:#FFFFFF"/>
				<stop  offset="0.9997" style="stop-color:#FFFFFF;stop-opacity:0"/>
			</linearGradient>
			<path class="st41" d="M455.9,123.1c0.5-0.3,1.1-0.4,1.7-0.3l-0.1,3l-0.8-0.1c-0.7-0.1-1.3,0-1.7,0.3c-0.4,0.3-0.6,0.8-0.6,1.5
				l-0.1,4.1l-2.7-0.3l0.2-9l2.6,0.2l0,1.7C454.9,123.8,455.4,123.4,455.9,123.1z"/>
			
				<linearGradient id="SVGID_26_" gradientUnits="userSpaceOnUse" x1="465.3432" y1="78.8818" x2="465.3432" y2="215.1549" gradientTransform="matrix(1 -7.034663e-03 7.812600e-03 1 -3.3156 23.6219)">
				<stop  offset="0" style="stop-color:#FFFFFF"/>
				<stop  offset="0.9997" style="stop-color:#FFFFFF;stop-opacity:0"/>
			</linearGradient>
			<path class="st42" d="M463.8,123.8c0.5,0.4,0.8,0.8,1,1.4l0-1.6l2.7,0.2l-0.1,9.1l-2.7-0.3l0-1.6c-0.2,0.5-0.6,0.9-1.1,1.2
				c-0.5,0.3-1.1,0.4-1.7,0.3c-0.7-0.1-1.4-0.3-1.9-0.8c-0.6-0.4-1-1-1.3-1.8c-0.3-0.7-0.5-1.6-0.4-2.5c0-1,0.2-1.8,0.5-2.4
				c0.3-0.7,0.8-1.2,1.4-1.5c0.6-0.3,1.2-0.4,1.9-0.4C462.7,123.3,463.3,123.5,463.8,123.8z M461.5,126.2c-0.4,0.4-0.5,0.9-0.6,1.6
				c0,0.7,0.2,1.3,0.5,1.7c0.3,0.4,0.8,0.7,1.4,0.7c0.6,0.1,1-0.1,1.4-0.5c0.4-0.4,0.6-0.9,0.6-1.6c0-0.7-0.2-1.2-0.5-1.7
				c-0.4-0.4-0.8-0.7-1.4-0.7C462.3,125.7,461.8,125.8,461.5,126.2z"/>
			
				<linearGradient id="SVGID_27_" gradientUnits="userSpaceOnUse" x1="476.2126" y1="78.7778" x2="476.2126" y2="214.6781" gradientTransform="matrix(1 -7.034663e-03 7.812600e-03 1 -3.3156 23.6219)">
				<stop  offset="0" style="stop-color:#FFFFFF"/>
				<stop  offset="0.9997" style="stop-color:#FFFFFF;stop-opacity:0"/>
			</linearGradient>
			<path class="st43" d="M477.4,125.7c0.6,0.8,0.9,1.7,0.9,3l-0.1,5.3l-2.7-0.3l0.1-5c0-0.6-0.1-1.1-0.5-1.5
				c-0.3-0.4-0.7-0.6-1.2-0.6c-0.6-0.1-1,0.1-1.3,0.4c-0.3,0.3-0.5,0.8-0.5,1.5l-0.1,4.9l-2.7-0.3l0.1-9.1l2.7,0.3l0,1.7
				c0.3-0.5,0.6-0.9,1.2-1.2c0.5-0.3,1.1-0.4,1.8-0.3C476,124.5,476.8,124.9,477.4,125.7z"/>
			
				<linearGradient id="SVGID_28_" gradientUnits="userSpaceOnUse" x1="486.897" y1="77.8951" x2="486.897" y2="216.3975" gradientTransform="matrix(1 -7.034663e-03 7.812600e-03 1 -3.3156 23.6219)">
				<stop  offset="0" style="stop-color:#FFFFFF"/>
				<stop  offset="0.9997" style="stop-color:#FFFFFF;stop-opacity:0"/>
			</linearGradient>
			<path class="st44" d="M485.3,125.8c0.5,0.4,0.8,0.8,1.1,1.4l0-4.7l2.8,0.3l-0.1,12.2l-2.8-0.3l0-1.7c-0.2,0.5-0.6,0.9-1.1,1.2
				c-0.5,0.3-1.1,0.4-1.8,0.3c-0.7-0.1-1.4-0.3-2-0.8c-0.6-0.4-1-1-1.4-1.8c-0.3-0.7-0.5-1.6-0.5-2.6c0-1,0.2-1.8,0.5-2.5
				c0.3-0.7,0.8-1.2,1.4-1.5c0.6-0.3,1.3-0.5,2-0.4C484.2,125.3,484.8,125.5,485.3,125.8z M483,128.2c-0.4,0.4-0.6,0.9-0.6,1.6
				c0,0.7,0.2,1.3,0.5,1.7c0.4,0.4,0.8,0.7,1.4,0.7c0.6,0.1,1.1-0.1,1.4-0.5c0.4-0.4,0.6-0.9,0.6-1.6c0-0.7-0.2-1.3-0.5-1.7
				c-0.4-0.4-0.8-0.7-1.4-0.7C483.8,127.7,483.3,127.9,483,128.2z"/>
			
				<linearGradient id="SVGID_29_" gradientUnits="userSpaceOnUse" x1="498.1741" y1="77.6429" x2="498.1741" y2="216.5171" gradientTransform="matrix(1 -7.034663e-03 7.812600e-03 1 -3.3156 23.6219)">
				<stop  offset="0" style="stop-color:#FFFFFF"/>
				<stop  offset="0.9997" style="stop-color:#FFFFFF;stop-opacity:0"/>
			</linearGradient>
			<path class="st45" d="M497.2,124.1l-0.1,11.8l-2.8-0.3l0.1-11.7L497.2,124.1z"/>
			
				<linearGradient id="SVGID_30_" gradientUnits="userSpaceOnUse" x1="505.9297" y1="77.2782" x2="505.9297" y2="216.712" gradientTransform="matrix(1 -7.034663e-03 7.812600e-03 1 -3.3156 23.6219)">
				<stop  offset="0" style="stop-color:#FFFFFF"/>
				<stop  offset="0.9997" style="stop-color:#FFFFFF;stop-opacity:0"/>
			</linearGradient>
			<path class="st46" d="M504.4,127.6c0.5,0.4,0.9,0.8,1.1,1.4l0-4.7l2.8,0.3l-0.1,12.4l-2.8-0.3l0-1.7c-0.2,0.5-0.6,0.9-1.1,1.2
				c-0.5,0.3-1.1,0.4-1.8,0.3c-0.8-0.1-1.4-0.3-2-0.8c-0.6-0.4-1.1-1-1.4-1.8c-0.3-0.8-0.5-1.6-0.5-2.6c0-1,0.2-1.8,0.5-2.5
				c0.4-0.7,0.8-1.2,1.4-1.5c0.6-0.3,1.3-0.5,2-0.4C503.3,127,503.9,127.2,504.4,127.6z M502,130c-0.4,0.4-0.6,0.9-0.6,1.6
				c0,0.7,0.2,1.3,0.5,1.7c0.4,0.4,0.9,0.7,1.5,0.7c0.6,0.1,1.1-0.1,1.5-0.5c0.4-0.4,0.6-0.9,0.6-1.6c0-0.7-0.2-1.3-0.6-1.7
				c-0.4-0.4-0.9-0.7-1.5-0.7C502.8,129.5,502.4,129.6,502,130z"/>
			
				<linearGradient id="SVGID_31_" gradientUnits="userSpaceOnUse" x1="516.9109" y1="76.9495" x2="516.9109" y2="217.0898" gradientTransform="matrix(1 -7.034663e-03 7.812600e-03 1 -3.3156 23.6219)">
				<stop  offset="0" style="stop-color:#FFFFFF"/>
				<stop  offset="0.9997" style="stop-color:#FFFFFF;stop-opacity:0"/>
			</linearGradient>
			<path class="st47" d="M519.1,133.8l-6.5-0.6c0,0.7,0.2,1.2,0.5,1.6c0.3,0.3,0.7,0.5,1.2,0.6c0.4,0,0.8,0,1.1-0.2
				c0.3-0.2,0.5-0.4,0.6-0.8l3,0.3c-0.1,0.7-0.4,1.2-0.8,1.7c-0.4,0.5-0.9,0.8-1.6,1.1c-0.6,0.2-1.4,0.3-2.1,0.2
				c-0.9-0.1-1.7-0.4-2.4-0.8c-0.7-0.5-1.3-1.1-1.7-1.8c-0.4-0.8-0.6-1.6-0.6-2.6c0-1,0.2-1.8,0.6-2.5c0.4-0.7,1-1.2,1.7-1.5
				c0.7-0.3,1.5-0.4,2.4-0.4c0.9,0.1,1.7,0.4,2.4,0.8c0.7,0.4,1.3,1,1.6,1.8c0.4,0.7,0.6,1.5,0.6,2.4
				C519.2,133.3,519.1,133.6,519.1,133.8z M515.8,130.9c-0.3-0.3-0.8-0.5-1.3-0.6c-0.5,0-1,0.1-1.3,0.3c-0.3,0.3-0.5,0.7-0.6,1.3
				l3.7,0.3C516.3,131.7,516.1,131.3,515.8,130.9z"/>
			
				<linearGradient id="SVGID_32_" gradientUnits="userSpaceOnUse" x1="527.852" y1="77.1739" x2="527.852" y2="215.688" gradientTransform="matrix(1 -7.034663e-03 7.812600e-03 1 -3.3156 23.6219)">
				<stop  offset="0" style="stop-color:#FFFFFF"/>
				<stop  offset="0.9997" style="stop-color:#FFFFFF;stop-opacity:0"/>
			</linearGradient>
			<path class="st48" d="M529.3,130.5c0.6,0.8,1,1.8,1,3.1l0,5.5l-2.9-0.3l0-5.2c0-0.6-0.2-1.1-0.5-1.5c-0.3-0.4-0.8-0.6-1.3-0.7
				c-0.6-0.1-1.1,0.1-1.4,0.4c-0.3,0.3-0.5,0.9-0.5,1.5l0,5l-2.9-0.3l0-9.4l2.9,0.3l0,1.7c0.3-0.5,0.7-0.9,1.2-1.2
				c0.5-0.3,1.2-0.4,1.9-0.3C527.7,129.3,528.6,129.8,529.3,130.5z"/>
			
				<linearGradient id="SVGID_33_" gradientUnits="userSpaceOnUse" x1="536.9462" y1="76.486" x2="536.9462" y2="216.8485" gradientTransform="matrix(1 -7.034663e-03 7.812600e-03 1 -3.3156 23.6219)">
				<stop  offset="0" style="stop-color:#FFFFFF"/>
				<stop  offset="0.9997" style="stop-color:#FFFFFF;stop-opacity:0"/>
			</linearGradient>
			<path class="st49" d="M537.6,137.3l0,2.5l-1.3-0.1c-1.1-0.1-2-0.5-2.6-1.1c-0.6-0.6-0.9-1.6-0.9-2.8l0-3.5l-1.3-0.1l0-2.4
				l1.3,0.1l0-2.3l2.9,0.3l0,2.3l1.9,0.2l0,2.5l-1.9-0.2l0,3.6c0,0.4,0.1,0.6,0.2,0.8c0.2,0.2,0.4,0.3,0.8,0.3L537.6,137.3z"/>
			
				<linearGradient id="SVGID_34_" gradientUnits="userSpaceOnUse" x1="543.1981" y1="76.0914" x2="543.1981" y2="217.4644" gradientTransform="matrix(1 -7.034663e-03 7.812600e-03 1 -3.3156 23.6219)">
				<stop  offset="0" style="stop-color:#FFFFFF"/>
				<stop  offset="0.9997" style="stop-color:#FFFFFF;stop-opacity:0"/>
			</linearGradient>
			<path class="st50" d="M539.4,126.7c0.3-0.3,0.7-0.4,1.3-0.3c0.5,0,1,0.2,1.3,0.6c0.3,0.3,0.5,0.7,0.5,1.1c0,0.4-0.2,0.8-0.5,1
				c-0.3,0.3-0.8,0.4-1.3,0.3c-0.5,0-1-0.2-1.3-0.6c-0.3-0.3-0.5-0.7-0.5-1.1C539,127.3,539.1,127,539.4,126.7z M542.2,130.7l0,9.6
				l-3-0.3l0-9.5L542.2,130.7z"/>
			
				<linearGradient id="SVGID_35_" gradientUnits="userSpaceOnUse" x1="549.0645" y1="76.0946" x2="549.0645" y2="217.0558" gradientTransform="matrix(1 -7.034663e-03 7.812600e-03 1 -3.3156 23.6219)">
				<stop  offset="0" style="stop-color:#FFFFFF"/>
				<stop  offset="0.9997" style="stop-color:#FFFFFF;stop-opacity:0"/>
			</linearGradient>
			<path class="st51" d="M549.8,138.5l0,2.5l-1.3-0.1c-1.1-0.1-2-0.5-2.7-1.1c-0.6-0.6-1-1.6-1-2.9l0-3.5l-1.3-0.1l0-2.5l1.3,0.1
				l0-2.3l3,0.3l0,2.4l2,0.2l0,2.5l-2-0.2l0,3.6c0,0.4,0.1,0.7,0.2,0.8c0.2,0.2,0.4,0.3,0.8,0.3L549.8,138.5z"/>
			
				<linearGradient id="SVGID_36_" gradientUnits="userSpaceOnUse" x1="558.4245" y1="75.8373" x2="558.4245" y2="217.4277" gradientTransform="matrix(1 -7.034663e-03 7.812600e-03 1 -3.3156 23.6219)">
				<stop  offset="0" style="stop-color:#FFFFFF"/>
				<stop  offset="0.9997" style="stop-color:#FFFFFF;stop-opacity:0"/>
			</linearGradient>
			<path class="st52" d="M553.7,131.8l2.4,6.1l2.2-5.7l3.3,0.3l-6.1,13.7l-3.3-0.3l2.3-4.7l-4.2-9.7L553.7,131.8z"/>
			
				<linearGradient id="SVGID_37_" gradientUnits="userSpaceOnUse" x1="451.222" y1="79.6186" x2="451.222" y2="215.2766" gradientTransform="matrix(1 -7.034663e-03 7.812600e-03 1 -3.3156 23.6219)">
				<stop  offset="0" style="stop-color:#FFFFFF"/>
				<stop  offset="0.9997" style="stop-color:#FFFFFF;stop-opacity:0"/>
			</linearGradient>
			<path class="st53" d="M456.5,138.3l-2.8,11.3l-3.3-0.4l-1.6-7.9l-1.9,7.5l-3.3-0.4l-2.3-11.7l2.9,0.3l1.2,8.4l2.1-8.1l2.9,0.3
				l1.8,8.5l1.6-8.2L456.5,138.3z"/>
			
				<linearGradient id="SVGID_38_" gradientUnits="userSpaceOnUse" x1="464.0376" y1="78.4612" x2="464.0376" y2="216.9252" gradientTransform="matrix(1 -7.034663e-03 7.812600e-03 1 -3.3156 23.6219)">
				<stop  offset="0" style="stop-color:#FFFFFF"/>
				<stop  offset="0.9997" style="stop-color:#FFFFFF;stop-opacity:0"/>
			</linearGradient>
			<path class="st54" d="M466,146.9l-6.1-0.7c0,0.7,0.2,1.2,0.5,1.5c0.3,0.3,0.7,0.5,1.2,0.6c0.4,0,0.7,0,1-0.2
				c0.3-0.2,0.4-0.4,0.5-0.7l2.9,0.3c-0.1,0.6-0.4,1.2-0.8,1.7c-0.4,0.5-0.9,0.8-1.5,1c-0.6,0.2-1.3,0.3-2,0.2
				c-0.9-0.1-1.6-0.4-2.3-0.8c-0.7-0.5-1.2-1.1-1.5-1.8c-0.4-0.8-0.5-1.6-0.5-2.5c0-1,0.2-1.8,0.6-2.4c0.4-0.7,0.9-1.1,1.6-1.5
				c0.7-0.3,1.4-0.4,2.3-0.3c0.9,0.1,1.6,0.4,2.3,0.8c0.7,0.4,1.2,1,1.5,1.7c0.4,0.7,0.5,1.5,0.5,2.4
				C466.1,146.4,466.1,146.6,466,146.9z M462.9,144c-0.3-0.3-0.7-0.5-1.2-0.6c-0.5-0.1-0.9,0.1-1.2,0.3c-0.3,0.3-0.5,0.7-0.6,1.3
				l3.4,0.4C463.4,144.8,463.2,144.3,462.9,144z"/>
			
				<linearGradient id="SVGID_39_" gradientUnits="userSpaceOnUse" x1="474.4886" y1="78.455" x2="474.4886" y2="216.5175" gradientTransform="matrix(1 -7.034663e-03 7.812600e-03 1 -3.3156 23.6219)">
				<stop  offset="0" style="stop-color:#FFFFFF"/>
				<stop  offset="0.9997" style="stop-color:#FFFFFF;stop-opacity:0"/>
			</linearGradient>
			<path class="st55" d="M475.1,143.2c0.6,0.4,1,1,1.4,1.8c0.3,0.7,0.5,1.6,0.5,2.6c0,1-0.2,1.8-0.5,2.5c-0.3,0.7-0.8,1.2-1.4,1.5
				c-0.6,0.3-1.2,0.4-2,0.4c-0.7-0.1-1.3-0.3-1.8-0.7c-0.5-0.4-0.8-0.8-1.1-1.4l0,1.7l-2.7-0.3l0.2-12.2l2.7,0.3l-0.1,4.7
				c0.2-0.5,0.6-0.9,1.1-1.2c0.5-0.3,1.1-0.4,1.8-0.3C473.8,142.5,474.5,142.7,475.1,143.2z M470.8,145.2c-0.4,0.4-0.6,0.9-0.6,1.6
				c0,0.7,0.2,1.2,0.5,1.7c0.4,0.4,0.8,0.7,1.4,0.8c0.6,0.1,1.1-0.1,1.4-0.4c0.4-0.4,0.5-0.9,0.6-1.6c0-0.7-0.2-1.3-0.5-1.7
				c-0.4-0.4-0.8-0.7-1.4-0.7C471.6,144.7,471.2,144.9,470.8,145.2z"/>
			
				<linearGradient id="SVGID_40_" gradientUnits="userSpaceOnUse" x1="484.1797" y1="77.8506" x2="484.1797" y2="217.1337" gradientTransform="matrix(1 -7.034663e-03 7.812600e-03 1 -3.3156 23.6219)">
				<stop  offset="0" style="stop-color:#FFFFFF"/>
				<stop  offset="0.9997" style="stop-color:#FFFFFF;stop-opacity:0"/>
			</linearGradient>
			<path class="st56" d="M484.4,144.5c0.7,0.7,1.1,1.5,1.3,2.5l-2.6-0.3c-0.1-0.4-0.2-0.7-0.5-0.9c-0.3-0.2-0.6-0.4-1-0.4
				c-0.3,0-0.5,0-0.7,0.1c-0.2,0.1-0.2,0.3-0.2,0.6c0,0.3,0.1,0.5,0.4,0.7c0.3,0.2,0.8,0.4,1.4,0.6c0.7,0.2,1.3,0.5,1.7,0.7
				c0.4,0.2,0.8,0.5,1.1,1c0.3,0.4,0.5,1,0.5,1.6c0,0.5-0.2,1-0.4,1.4c-0.3,0.4-0.7,0.7-1.2,0.8c-0.5,0.2-1.2,0.2-1.9,0.1
				c-1.2-0.1-2.2-0.5-2.9-1.2c-0.7-0.6-1.2-1.5-1.3-2.5l2.7,0.3c0,0.4,0.2,0.7,0.5,1c0.3,0.2,0.7,0.4,1.1,0.4c0.3,0,0.6,0,0.7-0.1
				c0.2-0.1,0.2-0.3,0.3-0.6c0-0.3-0.1-0.6-0.4-0.7c-0.3-0.2-0.8-0.4-1.4-0.6c-0.7-0.2-1.2-0.4-1.6-0.6c-0.4-0.2-0.8-0.5-1.1-0.9
				c-0.3-0.4-0.5-0.9-0.4-1.6c0-0.8,0.3-1.5,0.9-1.9c0.6-0.4,1.5-0.6,2.6-0.5C482.8,143.4,483.7,143.8,484.4,144.5z"/>
			
				<linearGradient id="SVGID_41_" gradientUnits="userSpaceOnUse" x1="491.173" y1="77.563" x2="491.173" y2="217.3228" gradientTransform="matrix(1 -7.034663e-03 7.812600e-03 1 -3.3156 23.6219)">
				<stop  offset="0" style="stop-color:#FFFFFF"/>
				<stop  offset="0.9997" style="stop-color:#FFFFFF;stop-opacity:0"/>
			</linearGradient>
			<path class="st57" d="M487.6,140.3c0.3-0.3,0.7-0.4,1.2-0.3c0.5,0.1,0.9,0.2,1.2,0.5c0.3,0.3,0.4,0.7,0.4,1.1
				c0,0.4-0.2,0.8-0.5,1c-0.3,0.3-0.7,0.4-1.2,0.3c-0.5-0.1-0.9-0.2-1.2-0.5c-0.3-0.3-0.4-0.7-0.4-1.1
				C487.1,140.9,487.3,140.6,487.6,140.3z M490.2,144.3l-0.1,9.3l-2.8-0.3l0.1-9.3L490.2,144.3z"/>
			
				<linearGradient id="SVGID_42_" gradientUnits="userSpaceOnUse" x1="496.6461" y1="77.5706" x2="496.6461" y2="217.0777" gradientTransform="matrix(1 -7.034663e-03 7.812600e-03 1 -3.3156 23.6219)">
				<stop  offset="0" style="stop-color:#FFFFFF"/>
				<stop  offset="0.9997" style="stop-color:#FFFFFF;stop-opacity:0"/>
			</linearGradient>
			<path class="st58" d="M497.2,151.9l0,2.5l-1.3-0.1c-1.1-0.1-1.9-0.5-2.5-1.1c-0.6-0.6-0.9-1.5-0.9-2.8l0-3.4l-1.2-0.1l0-2.4
				l1.2,0.1l0-2.3l2.8,0.3l0,2.3l1.8,0.2l0,2.4l-1.8-0.2l0,3.5c0,0.4,0.1,0.6,0.2,0.8c0.1,0.2,0.4,0.3,0.7,0.3L497.2,151.9z"/>
			
				<linearGradient id="SVGID_43_" gradientUnits="userSpaceOnUse" x1="505.2848" y1="77.082" x2="505.2848" y2="217.5779" gradientTransform="matrix(1 -7.034663e-03 7.812600e-03 1 -3.3156 23.6219)">
				<stop  offset="0" style="stop-color:#FFFFFF"/>
				<stop  offset="0.9997" style="stop-color:#FFFFFF;stop-opacity:0"/>
			</linearGradient>
			<path class="st59" d="M507.5,151.3l-6.4-0.7c0,0.7,0.2,1.2,0.5,1.6c0.3,0.3,0.7,0.5,1.2,0.6c0.4,0,0.8,0,1-0.2
				c0.3-0.2,0.5-0.4,0.6-0.8l3,0.3c-0.1,0.7-0.4,1.2-0.8,1.7c-0.4,0.5-0.9,0.8-1.6,1.1c-0.6,0.2-1.3,0.3-2.1,0.2
				c-0.9-0.1-1.7-0.4-2.4-0.8c-0.7-0.5-1.2-1.1-1.6-1.9c-0.4-0.8-0.6-1.6-0.6-2.6c0-1,0.2-1.8,0.6-2.5c0.4-0.7,0.9-1.2,1.7-1.5
				c0.7-0.3,1.5-0.4,2.4-0.3c0.9,0.1,1.7,0.4,2.4,0.8c0.7,0.5,1.2,1,1.6,1.8c0.4,0.7,0.6,1.6,0.6,2.5
				C507.6,150.8,507.6,151.1,507.5,151.3z M504.3,148.4c-0.3-0.3-0.8-0.5-1.3-0.6c-0.5-0.1-1,0.1-1.3,0.3c-0.3,0.3-0.5,0.7-0.6,1.3
				l3.6,0.4C504.8,149.2,504.6,148.7,504.3,148.4z"/>
			
				<linearGradient id="SVGID_44_" gradientUnits="userSpaceOnUse" x1="447.3969" y1="78.8822" x2="447.3969" y2="217.0804" gradientTransform="matrix(1 -7.034663e-03 7.812600e-03 1 -3.3156 23.6219)">
				<stop  offset="0" style="stop-color:#FFFFFF"/>
				<stop  offset="0.9997" style="stop-color:#FFFFFF;stop-opacity:0"/>
			</linearGradient>
			<path class="st60" d="M443.7,162.5l-0.1,4.1l-2.6-0.3l0.2-11.5l4.3,0.5c1.3,0.1,2.3,0.6,3,1.4c0.7,0.8,1,1.7,1,2.9
				c0,0.7-0.2,1.3-0.5,1.9c-0.3,0.5-0.8,0.9-1.4,1.2c-0.6,0.3-1.3,0.3-2.2,0.2L443.7,162.5z M446.7,159.1c0-1-0.5-1.6-1.6-1.7
				l-1.3-0.2l-0.1,3l1.3,0.2C446.1,160.6,446.7,160.1,446.7,159.1z"/>
			
				<linearGradient id="SVGID_45_" gradientUnits="userSpaceOnUse" x1="457.0845" y1="78.6433" x2="457.0845" y2="217.0338" gradientTransform="matrix(1 -7.034663e-03 7.812600e-03 1 -3.3156 23.6219)">
				<stop  offset="0" style="stop-color:#FFFFFF"/>
				<stop  offset="0.9997" style="stop-color:#FFFFFF;stop-opacity:0"/>
			</linearGradient>
			<path class="st61" d="M455.8,159.2c0.5,0.4,0.8,0.8,1,1.4l0-1.7l2.7,0.3l-0.2,9.2l-2.7-0.3l0-1.7c-0.2,0.5-0.6,0.9-1.1,1.2
				c-0.5,0.3-1.1,0.4-1.7,0.3c-0.7-0.1-1.4-0.4-1.9-0.8c-0.6-0.4-1-1-1.3-1.8c-0.3-0.8-0.5-1.6-0.4-2.6c0-1,0.2-1.8,0.5-2.4
				c0.3-0.7,0.8-1.2,1.4-1.5c0.6-0.3,1.2-0.4,1.9-0.3C454.7,158.6,455.3,158.8,455.8,159.2z M453.5,161.5c-0.4,0.4-0.5,0.9-0.6,1.6
				c0,0.7,0.2,1.3,0.5,1.7c0.3,0.4,0.8,0.7,1.4,0.8c0.6,0.1,1-0.1,1.4-0.4c0.4-0.4,0.6-0.9,0.6-1.6c0-0.7-0.2-1.3-0.5-1.7
				c-0.4-0.4-0.8-0.7-1.4-0.8C454.3,161,453.8,161.2,453.5,161.5z"/>
			
				<linearGradient id="SVGID_46_" gradientUnits="userSpaceOnUse" x1="467.4571" y1="78.0058" x2="467.4571" y2="217.5441" gradientTransform="matrix(1 -7.034663e-03 7.812600e-03 1 -3.3156 23.6219)">
				<stop  offset="0" style="stop-color:#FFFFFF"/>
				<stop  offset="0.9997" style="stop-color:#FFFFFF;stop-opacity:0"/>
			</linearGradient>
			<path class="st62" d="M468.2,161.2c0.8,0.7,1.2,1.7,1.4,2.9l-2.9-0.3c-0.1-0.4-0.2-0.7-0.5-1c-0.3-0.3-0.6-0.4-1-0.4
				c-0.5-0.1-0.9,0.1-1.2,0.5c-0.3,0.4-0.5,0.9-0.5,1.7c0,0.8,0.1,1.3,0.4,1.8c0.3,0.4,0.7,0.7,1.2,0.7c0.4,0,0.7,0,1-0.2
				c0.3-0.2,0.4-0.5,0.5-0.9l2.9,0.3c-0.2,1.1-0.7,2-1.5,2.5c-0.8,0.6-1.8,0.8-2.9,0.6c-0.9-0.1-1.6-0.4-2.3-0.9
				c-0.7-0.5-1.2-1.1-1.5-1.8c-0.4-0.8-0.5-1.6-0.5-2.6c0-1,0.2-1.8,0.6-2.5c0.4-0.7,0.9-1.2,1.6-1.5c0.7-0.3,1.5-0.4,2.3-0.3
				C466.5,160,467.5,160.4,468.2,161.2z"/>
			
				<linearGradient id="SVGID_47_" gradientUnits="userSpaceOnUse" x1="477.6003" y1="78.0638" x2="477.6003" y2="217.2685" gradientTransform="matrix(1 -7.034663e-03 7.812600e-03 1 -3.3156 23.6219)">
				<stop  offset="0" style="stop-color:#FFFFFF"/>
				<stop  offset="0.9997" style="stop-color:#FFFFFF;stop-opacity:0"/>
			</linearGradient>
			<path class="st63" d="M476.4,170.6l-2.6-4.3l-0.1,4l-2.7-0.3l0.2-12.3l2.7,0.3l-0.1,6.8l2.7-3.4l3.2,0.4l-3.7,4.2l3.7,5.1
				L476.4,170.6z"/>
			
				<linearGradient id="SVGID_48_" gradientUnits="userSpaceOnUse" x1="487.395" y1="77.5802" x2="487.395" y2="217.5609" gradientTransform="matrix(1 -7.034663e-03 7.812600e-03 1 -3.3156 23.6219)">
				<stop  offset="0" style="stop-color:#FFFFFF"/>
				<stop  offset="0.9997" style="stop-color:#FFFFFF;stop-opacity:0"/>
			</linearGradient>
			<path class="st64" d="M486.1,162.7c0.5,0.4,0.9,0.9,1.1,1.5l0-1.7l2.8,0.3l-0.1,9.4l-2.8-0.3l0-1.7c-0.2,0.5-0.6,0.9-1.1,1.2
				c-0.5,0.3-1.1,0.4-1.8,0.3c-0.8-0.1-1.4-0.4-2-0.8c-0.6-0.5-1-1.1-1.4-1.8c-0.3-0.8-0.5-1.6-0.5-2.6c0-1,0.2-1.8,0.5-2.5
				c0.3-0.7,0.8-1.2,1.4-1.5c0.6-0.3,1.3-0.4,2-0.3C485,162.1,485.6,162.4,486.1,162.7z M483.8,165.1c-0.4,0.4-0.6,0.9-0.6,1.6
				c0,0.7,0.2,1.3,0.5,1.7c0.4,0.4,0.8,0.7,1.4,0.8c0.6,0.1,1.1-0.1,1.5-0.4c0.4-0.4,0.6-0.9,0.6-1.6c0-0.7-0.2-1.3-0.5-1.7
				c-0.4-0.5-0.9-0.7-1.4-0.8C484.6,164.6,484.1,164.7,483.8,165.1z"/>
			
				<linearGradient id="SVGID_49_" gradientUnits="userSpaceOnUse" x1="498.513" y1="76.9036" x2="498.513" y2="218.0726" gradientTransform="matrix(1 -7.034663e-03 7.812600e-03 1 -3.3156 23.6219)">
				<stop  offset="0" style="stop-color:#FFFFFF"/>
				<stop  offset="0.9997" style="stop-color:#FFFFFF;stop-opacity:0"/>
			</linearGradient>
			<path class="st65" d="M497.3,164c0.5,0.4,0.9,0.9,1.1,1.5l0-1.7l2.8,0.3l-0.1,9.4c0,0.9-0.2,1.7-0.5,2.3
				c-0.3,0.7-0.9,1.2-1.5,1.5c-0.7,0.3-1.5,0.4-2.6,0.3c-1.4-0.2-2.5-0.7-3.3-1.4c-0.8-0.8-1.3-1.8-1.5-2.9l2.8,0.3
				c0.1,0.4,0.3,0.7,0.6,1c0.3,0.3,0.7,0.4,1.2,0.5c0.6,0.1,1.1,0,1.4-0.3c0.4-0.3,0.5-0.8,0.6-1.6l0-1.7c-0.2,0.5-0.6,0.9-1.1,1.2
				c-0.5,0.3-1.1,0.4-1.8,0.3c-0.8-0.1-1.4-0.4-2-0.8c-0.6-0.5-1.1-1.1-1.4-1.9c-0.3-0.8-0.5-1.7-0.5-2.6c0-1,0.2-1.8,0.5-2.5
				c0.4-0.7,0.8-1.2,1.4-1.5c0.6-0.3,1.3-0.4,2-0.3C496.2,163.4,496.8,163.6,497.3,164z M494.9,166.4c-0.4,0.4-0.6,0.9-0.6,1.6
				c0,0.7,0.2,1.3,0.5,1.8c0.4,0.5,0.9,0.7,1.5,0.8c0.6,0.1,1.1-0.1,1.5-0.5c0.4-0.4,0.6-0.9,0.6-1.6c0-0.7-0.2-1.3-0.6-1.8
				c-0.4-0.5-0.9-0.7-1.5-0.8C495.7,165.9,495.2,166,494.9,166.4z"/>
			
				<linearGradient id="SVGID_50_" gradientUnits="userSpaceOnUse" x1="506.8482" y1="76.6582" x2="506.8482" y2="218.1309" gradientTransform="matrix(1 -7.034663e-03 7.812600e-03 1 -3.3156 23.6219)">
				<stop  offset="0" style="stop-color:#FFFFFF"/>
				<stop  offset="0.9997" style="stop-color:#FFFFFF;stop-opacity:0"/>
			</linearGradient>
			<path class="st66" d="M503.4,160.6c0.3-0.3,0.7-0.4,1.2-0.3c0.5,0.1,0.9,0.2,1.2,0.6c0.3,0.3,0.5,0.7,0.5,1.1
				c0,0.4-0.2,0.8-0.5,1c-0.3,0.3-0.7,0.4-1.2,0.3c-0.5-0.1-0.9-0.3-1.2-0.6c-0.3-0.3-0.5-0.7-0.5-1.1
				C502.9,161.2,503.1,160.9,503.4,160.6z M506,164.7l-0.1,9.5l-2.9-0.3l0.1-9.5L506,164.7z"/>
			
				<linearGradient id="SVGID_51_" gradientUnits="userSpaceOnUse" x1="514.8618" y1="76.8431" x2="514.8618" y2="217.8465" gradientTransform="matrix(1 -7.034663e-03 7.812600e-03 1 -3.3156 23.6219)">
				<stop  offset="0" style="stop-color:#FFFFFF"/>
				<stop  offset="0.9997" style="stop-color:#FFFFFF;stop-opacity:0"/>
			</linearGradient>
			<path class="st67" d="M516.5,166.9c0.6,0.8,1,1.9,0.9,3.1l0,5.6l-2.9-0.4l0-5.2c0-0.6-0.2-1.2-0.5-1.6c-0.3-0.4-0.8-0.6-1.3-0.7
				c-0.6-0.1-1,0.1-1.4,0.4c-0.3,0.3-0.5,0.9-0.5,1.5l0,5.1l-2.9-0.4l0.1-9.5l2.9,0.3l0,1.7c0.3-0.5,0.7-0.9,1.2-1.2
				c0.5-0.3,1.2-0.4,1.9-0.3C515,165.6,515.9,166.1,516.5,166.9z"/>
			
				<linearGradient id="SVGID_52_" gradientUnits="userSpaceOnUse" x1="526.1198" y1="75.9318" x2="526.1198" y2="218.4997" gradientTransform="matrix(1 -7.034663e-03 7.812600e-03 1 -3.3156 23.6219)">
				<stop  offset="0" style="stop-color:#FFFFFF"/>
				<stop  offset="0.9997" style="stop-color:#FFFFFF;stop-opacity:0"/>
			</linearGradient>
			<path class="st68" d="M524.9,167.2c0.5,0.4,0.9,0.9,1.2,1.5l0-1.7l2.9,0.3l0,9.6c0,0.9-0.2,1.7-0.5,2.4c-0.3,0.7-0.9,1.2-1.6,1.5
				c-0.7,0.3-1.6,0.4-2.6,0.3c-1.4-0.2-2.6-0.7-3.4-1.5c-0.9-0.8-1.4-1.8-1.5-3l2.9,0.4c0.1,0.4,0.3,0.7,0.6,1
				c0.3,0.3,0.8,0.4,1.3,0.5c0.6,0.1,1.1,0,1.5-0.3c0.4-0.3,0.6-0.8,0.6-1.6l0-1.7c-0.3,0.5-0.6,1-1.2,1.2c-0.5,0.3-1.2,0.4-1.9,0.3
				c-0.8-0.1-1.5-0.4-2.1-0.9c-0.6-0.5-1.1-1.1-1.5-1.9c-0.4-0.8-0.5-1.7-0.5-2.7c0-1,0.2-1.9,0.5-2.6c0.4-0.7,0.8-1.2,1.5-1.5
				c0.6-0.3,1.3-0.4,2.1-0.3C523.8,166.6,524.4,166.8,524.9,167.2z M522.5,169.7c-0.4,0.4-0.6,0.9-0.6,1.7c0,0.7,0.2,1.3,0.6,1.8
				c0.4,0.5,0.9,0.7,1.5,0.8c0.6,0.1,1.1-0.1,1.5-0.5c0.4-0.4,0.6-0.9,0.6-1.6c0-0.7-0.2-1.3-0.6-1.8c-0.4-0.5-0.9-0.7-1.5-0.8
				C523.3,169.1,522.8,169.3,522.5,169.7z"/>
			
				<linearGradient id="SVGID_53_" gradientUnits="userSpaceOnUse" x1="446.8812" y1="78.4347" x2="446.8812" y2="217.5874" gradientTransform="matrix(1 -7.034663e-03 7.812600e-03 1 -3.3156 23.6219)">
				<stop  offset="0" style="stop-color:#FFFFFF"/>
				<stop  offset="0.9997" style="stop-color:#FFFFFF;stop-opacity:0"/>
			</linearGradient>
			<path class="st69" d="M443.3,180.7l-0.1,4.1l-2.7-0.4l0.3-11.6l4.3,0.5c1.3,0.2,2.3,0.6,3,1.4c0.7,0.8,1,1.7,1,2.9
				c0,0.7-0.2,1.4-0.5,1.9c-0.3,0.5-0.8,0.9-1.4,1.2c-0.6,0.2-1.3,0.3-2.2,0.2L443.3,180.7z M446.3,177.3c0-1-0.5-1.6-1.6-1.7
				l-1.4-0.2l-0.1,3l1.4,0.2C445.8,178.7,446.3,178.3,446.3,177.3z"/>
			
				<linearGradient id="SVGID_54_" gradientUnits="userSpaceOnUse" x1="456.4734" y1="77.918" x2="456.4734" y2="217.8246" gradientTransform="matrix(1 -7.034663e-03 7.812600e-03 1 -3.3156 23.6219)">
				<stop  offset="0" style="stop-color:#FFFFFF"/>
				<stop  offset="0.9997" style="stop-color:#FFFFFF;stop-opacity:0"/>
			</linearGradient>
			<path class="st70" d="M456.8,177.7c0.7,0.5,1.2,1.1,1.6,1.9c0.4,0.8,0.6,1.6,0.5,2.6c0,1-0.2,1.8-0.6,2.5c-0.4,0.7-1,1.2-1.7,1.4
				c-0.7,0.3-1.5,0.4-2.4,0.3c-0.9-0.1-1.6-0.4-2.3-0.9c-0.7-0.5-1.2-1.1-1.6-1.9c-0.4-0.8-0.6-1.6-0.5-2.6c0-1,0.2-1.8,0.6-2.4
				c0.4-0.7,1-1.1,1.7-1.4c0.7-0.3,1.5-0.4,2.4-0.3C455.4,177,456.1,177.3,456.8,177.7z M453.1,179.7c-0.4,0.3-0.5,0.9-0.6,1.6
				c0,0.7,0.2,1.3,0.5,1.8c0.3,0.4,0.8,0.7,1.3,0.8c0.5,0.1,0.9-0.1,1.3-0.4c0.4-0.3,0.5-0.9,0.6-1.6c0-0.7-0.1-1.3-0.5-1.8
				c-0.3-0.4-0.8-0.7-1.3-0.8C453.9,179.3,453.5,179.4,453.1,179.7z"/>
			
				<linearGradient id="SVGID_55_" gradientUnits="userSpaceOnUse" x1="465.8934" y1="77.6073" x2="465.8934" y2="217.9489" gradientTransform="matrix(1 -7.034663e-03 7.812600e-03 1 -3.3156 23.6219)">
				<stop  offset="0" style="stop-color:#FFFFFF"/>
				<stop  offset="0.9997" style="stop-color:#FFFFFF;stop-opacity:0"/>
			</linearGradient>
			<path class="st71" d="M466.4,179.3c0.7,0.7,1.1,1.5,1.2,2.5l-2.6-0.3c-0.1-0.4-0.2-0.7-0.5-1c-0.3-0.3-0.6-0.4-1-0.5
				c-0.3,0-0.5,0-0.7,0.1c-0.2,0.1-0.2,0.3-0.2,0.6c0,0.3,0.1,0.5,0.4,0.7c0.3,0.2,0.7,0.4,1.4,0.6c0.7,0.3,1.2,0.5,1.7,0.7
				c0.4,0.2,0.8,0.6,1.1,1c0.3,0.4,0.5,1,0.5,1.6c0,0.5-0.2,1-0.4,1.4c-0.3,0.4-0.7,0.6-1.2,0.8c-0.5,0.2-1.1,0.2-1.9,0.1
				c-1.2-0.2-2.2-0.6-2.9-1.2c-0.7-0.7-1.1-1.5-1.3-2.6l2.6,0.3c0,0.4,0.2,0.7,0.5,1c0.3,0.2,0.6,0.4,1.1,0.5c0.3,0,0.5,0,0.7-0.1
				c0.2-0.1,0.2-0.3,0.2-0.6c0-0.3-0.1-0.6-0.4-0.8c-0.3-0.2-0.8-0.4-1.4-0.6c-0.7-0.2-1.2-0.5-1.6-0.7c-0.4-0.2-0.8-0.5-1.1-1
				c-0.3-0.4-0.4-0.9-0.4-1.6c0-0.8,0.3-1.5,0.9-1.9c0.6-0.4,1.5-0.6,2.6-0.4C464.8,178.2,465.7,178.6,466.4,179.3z"/>
			
				<linearGradient id="SVGID_56_" gradientUnits="userSpaceOnUse" x1="473.553" y1="77.4162" x2="473.553" y2="218.0116" gradientTransform="matrix(1 -7.034663e-03 7.812600e-03 1 -3.3156 23.6219)">
				<stop  offset="0" style="stop-color:#FFFFFF"/>
				<stop  offset="0.9997" style="stop-color:#FFFFFF;stop-opacity:0"/>
			</linearGradient>
			<path class="st72" d="M474.3,186.4l0,2.5l-1.2-0.2c-1.1-0.1-1.9-0.5-2.4-1.1c-0.6-0.6-0.9-1.6-0.8-2.8l0-3.4l-1.2-0.2l0-2.4
				l1.2,0.2l0-2.3l2.7,0.3l0,2.3l1.8,0.2l0,2.4l-1.8-0.2l0,3.5c0,0.4,0.1,0.6,0.2,0.8c0.1,0.2,0.4,0.3,0.7,0.3L474.3,186.4z"/>
			
				<linearGradient id="SVGID_57_" gradientUnits="userSpaceOnUse" x1="482.0008" y1="76.9933" x2="482.0008" y2="218.2115" gradientTransform="matrix(1 -7.034663e-03 7.812600e-03 1 -3.3156 23.6219)">
				<stop  offset="0" style="stop-color:#FFFFFF"/>
				<stop  offset="0.9997" style="stop-color:#FFFFFF;stop-opacity:0"/>
			</linearGradient>
			<path class="st73" d="M484.4,186.1l-6.3-0.8c0,0.7,0.2,1.2,0.5,1.6c0.3,0.4,0.7,0.6,1.2,0.6c0.4,0.1,0.8,0,1-0.2
				c0.3-0.2,0.5-0.4,0.5-0.8l3,0.4c-0.1,0.7-0.4,1.2-0.8,1.7c-0.4,0.5-0.9,0.8-1.6,1c-0.6,0.2-1.3,0.3-2.1,0.2
				c-0.9-0.1-1.7-0.4-2.4-0.9c-0.7-0.5-1.2-1.1-1.6-1.9c-0.4-0.8-0.6-1.7-0.5-2.6c0-1,0.2-1.8,0.6-2.5c0.4-0.7,0.9-1.2,1.6-1.5
				c0.7-0.3,1.5-0.4,2.4-0.3c0.9,0.1,1.7,0.4,2.4,0.9c0.7,0.5,1.2,1.1,1.6,1.8c0.4,0.7,0.5,1.6,0.5,2.5
				C484.5,185.5,484.5,185.8,484.4,186.1z M481.2,183c-0.3-0.4-0.7-0.6-1.2-0.6c-0.5-0.1-0.9,0-1.3,0.3c-0.3,0.3-0.5,0.7-0.6,1.3
				l3.5,0.5C481.7,183.9,481.6,183.4,481.2,183z"/>
			
				<linearGradient id="SVGID_58_" gradientUnits="userSpaceOnUse" x1="490.9808" y1="76.7738" x2="490.9808" y2="218.295" gradientTransform="matrix(1 -7.034663e-03 7.812600e-03 1 -3.3156 23.6219)">
				<stop  offset="0" style="stop-color:#FFFFFF"/>
				<stop  offset="0.9997" style="stop-color:#FFFFFF;stop-opacity:0"/>
			</linearGradient>
			<path class="st74" d="M490.2,181.9c0.6-0.3,1.2-0.4,1.8-0.3l0,3.1l-0.8-0.1c-0.7-0.1-1.3,0-1.7,0.3c-0.4,0.3-0.6,0.8-0.6,1.6
				l0,4.3l-2.8-0.4l0.1-9.5l2.8,0.4l0,1.8C489.2,182.6,489.6,182.2,490.2,181.9z"/>
			
				<linearGradient id="SVGID_59_" gradientUnits="userSpaceOnUse" x1="445.8338" y1="77.8326" x2="445.8338" y2="217.9506" gradientTransform="matrix(1 -7.034663e-03 7.812600e-03 1 -3.3156 23.6219)">
				<stop  offset="0" style="stop-color:#FFFFFF"/>
				<stop  offset="0.9997" style="stop-color:#FFFFFF;stop-opacity:0"/>
			</linearGradient>
			<path class="st75" d="M447.6,192l0,2.3l-4.5-0.6l-0.1,2.6l3.5,0.5l0,2.2l-3.5-0.5l-0.1,4.8l-2.7-0.4l0.3-11.7L447.6,192z"/>
			
				<linearGradient id="SVGID_60_" gradientUnits="userSpaceOnUse" x1="452.159" y1="77.5194" x2="452.159" y2="218.073" gradientTransform="matrix(1 -7.034663e-03 7.812600e-03 1 -3.3156 23.6219)">
				<stop  offset="0" style="stop-color:#FFFFFF"/>
				<stop  offset="0.9997" style="stop-color:#FFFFFF;stop-opacity:0"/>
			</linearGradient>
			<path class="st76" d="M451.7,192l-0.2,12.4l-2.7-0.4l0.2-12.4L451.7,192z"/>
			
				<linearGradient id="SVGID_61_" gradientUnits="userSpaceOnUse" x1="459.5345" y1="77.1973" x2="459.5345" y2="218.2004" gradientTransform="matrix(1 -7.034663e-03 7.812600e-03 1 -3.3156 23.6219)">
				<stop  offset="0" style="stop-color:#FFFFFF"/>
				<stop  offset="0.9997" style="stop-color:#FFFFFF;stop-opacity:0"/>
			</linearGradient>
			<path class="st77" d="M455.5,195.6l2,6l2.1-5.5l3,0.4l-5.8,13.1l-3-0.4l2.2-4.5l-3.5-9.5L455.5,195.6z"/>
			
				<linearGradient id="SVGID_62_" gradientUnits="userSpaceOnUse" x1="469.4291" y1="76.8045" x2="469.4291" y2="218.3402" gradientTransform="matrix(1 -7.034663e-03 7.812600e-03 1 -3.3156 23.6219)">
				<stop  offset="0" style="stop-color:#FFFFFF"/>
				<stop  offset="0.9997" style="stop-color:#FFFFFF;stop-opacity:0"/>
			</linearGradient>
			<path class="st78" d="M471.9,203.1l-6.2-0.9c0,0.7,0.2,1.3,0.5,1.6c0.3,0.4,0.7,0.6,1.2,0.6c0.4,0.1,0.7,0,1-0.2
				c0.3-0.2,0.5-0.4,0.5-0.8l2.9,0.4c-0.1,0.7-0.4,1.2-0.8,1.7c-0.4,0.5-0.9,0.8-1.5,1c-0.6,0.2-1.3,0.3-2.1,0.2
				c-0.9-0.1-1.7-0.4-2.3-0.9c-0.7-0.5-1.2-1.1-1.6-1.9c-0.4-0.8-0.6-1.7-0.5-2.7c0-1,0.2-1.8,0.6-2.5c0.4-0.7,0.9-1.2,1.6-1.4
				c0.7-0.3,1.5-0.4,2.4-0.3c0.9,0.1,1.7,0.4,2.3,0.9c0.7,0.5,1.2,1.1,1.6,1.8c0.4,0.7,0.5,1.6,0.5,2.5
				C472,202.6,472,202.9,471.9,203.1z M468.8,200.1c-0.3-0.4-0.7-0.6-1.2-0.6c-0.5-0.1-0.9,0-1.3,0.3c-0.3,0.3-0.5,0.7-0.6,1.3
				l3.5,0.5C469.3,200.9,469.1,200.4,468.8,200.1z"/>
			
				<linearGradient id="SVGID_63_" gradientUnits="userSpaceOnUse" x1="478.3074" y1="76.5135" x2="478.3074" y2="218.4505" gradientTransform="matrix(1 -7.034663e-03 7.812600e-03 1 -3.3156 23.6219)">
				<stop  offset="0" style="stop-color:#FFFFFF"/>
				<stop  offset="0.9997" style="stop-color:#FFFFFF;stop-opacity:0"/>
			</linearGradient>
			<path class="st79" d="M477.6,199.1c0.6-0.3,1.1-0.4,1.8-0.3l0,3.1l-0.8-0.1c-0.7-0.1-1.3,0-1.7,0.3c-0.4,0.3-0.6,0.8-0.6,1.6
				l-0.1,4.3l-2.8-0.4l0.1-9.5l2.8,0.4l0,1.8C476.6,199.7,477.1,199.3,477.6,199.1z"/>
			
				<linearGradient id="SVGID_64_" gradientUnits="userSpaceOnUse" x1="445.9912" y1="76.8521" x2="445.9912" y2="218.2242" gradientTransform="matrix(1 -7.034663e-03 7.812600e-03 1 -3.3156 23.6219)">
				<stop  offset="0" style="stop-color:#FFFFFF"/>
				<stop  offset="0.9997" style="stop-color:#FFFFFF;stop-opacity:0"/>
			</linearGradient>
			<path class="st80" d="M448.1,217.4c0.4,0.6,0.6,1.2,0.6,1.9c0,1-0.4,1.8-1,2.2c-0.6,0.5-1.6,0.6-2.8,0.4l-5.2-0.8l0.3-11.8l5,0.8
				c1.1,0.2,2,0.6,2.6,1.2c0.6,0.6,0.9,1.4,0.9,2.4c0,0.7-0.2,1.3-0.6,1.7c-0.4,0.4-0.8,0.7-1.4,0.7
				C447.2,216.4,447.7,216.8,448.1,217.4z M442.6,214.6l1.8,0.3c0.9,0.1,1.4-0.2,1.4-1.1c0-0.9-0.4-1.3-1.4-1.5l-1.7-0.3
				L442.6,214.6z M445.9,218.5c0-0.4-0.1-0.8-0.4-1.1c-0.3-0.3-0.6-0.5-1.1-0.5l-1.9-0.3l-0.1,2.7l1.9,0.3
				C445.4,219.8,445.9,219.4,445.9,218.5z"/>
			
				<linearGradient id="SVGID_65_" gradientUnits="userSpaceOnUse" x1="456.1844" y1="76.1543" x2="456.1844" y2="218.4191" gradientTransform="matrix(1 -7.034663e-03 7.812600e-03 1 -3.3156 23.6219)">
				<stop  offset="0" style="stop-color:#FFFFFF"/>
				<stop  offset="0.9997" style="stop-color:#FFFFFF;stop-opacity:0"/>
			</linearGradient>
			<path class="st81" d="M455.3,214.6c0.5,0.4,0.8,0.9,1.1,1.5l0-1.7l2.7,0.4l-0.2,9.5l-2.7-0.4l0-1.7c-0.2,0.5-0.6,0.9-1.1,1.2
				c-0.5,0.3-1.1,0.3-1.8,0.2c-0.7-0.1-1.4-0.4-2-0.9c-0.6-0.5-1-1.1-1.3-1.9c-0.3-0.8-0.5-1.7-0.4-2.6c0-1,0.2-1.8,0.5-2.5
				c0.3-0.7,0.8-1.2,1.4-1.5c0.6-0.3,1.2-0.4,2-0.3C454.3,213.9,454.8,214.2,455.3,214.6z M453,216.9c-0.4,0.4-0.5,0.9-0.6,1.6
				c0,0.7,0.2,1.3,0.5,1.8c0.3,0.5,0.8,0.7,1.4,0.8c0.6,0.1,1,0,1.4-0.4c0.4-0.4,0.6-0.9,0.6-1.6c0-0.7-0.2-1.3-0.5-1.8
				c-0.4-0.5-0.8-0.7-1.4-0.8C453.8,216.4,453.3,216.5,453,216.9z"/>
			
				<linearGradient id="SVGID_66_" gradientUnits="userSpaceOnUse" x1="467.1769" y1="75.5476" x2="467.1769" y2="218.5786" gradientTransform="matrix(1 -7.034663e-03 7.812600e-03 1 -3.3156 23.6219)">
				<stop  offset="0" style="stop-color:#FFFFFF"/>
				<stop  offset="0.9997" style="stop-color:#FFFFFF;stop-opacity:0"/>
			</linearGradient>
			<path class="st82" d="M469.1,217.3c0.6,0.8,0.9,1.9,0.9,3.1l-0.1,5.6l-2.8-0.4l0.1-5.2c0-0.6-0.1-1.2-0.5-1.6
				c-0.3-0.4-0.7-0.7-1.3-0.7c-0.6-0.1-1,0-1.3,0.4c-0.3,0.3-0.5,0.8-0.5,1.5l-0.1,5.1l-2.7-0.4l0.2-9.5l2.7,0.4l0,1.7
				c0.3-0.5,0.7-0.9,1.2-1.2c0.5-0.3,1.1-0.3,1.8-0.2C467.7,216,468.5,216.5,469.1,217.3z"/>
			
				<linearGradient id="SVGID_67_" gradientUnits="userSpaceOnUse" x1="478.1464" y1="75.052" x2="478.1464" y2="218.7231" gradientTransform="matrix(1 -7.034663e-03 7.812600e-03 1 -3.3156 23.6219)">
				<stop  offset="0" style="stop-color:#FFFFFF"/>
				<stop  offset="0.9997" style="stop-color:#FFFFFF;stop-opacity:0"/>
			</linearGradient>
			<path class="st83" d="M480.2,219c0.6,0.8,0.9,1.9,0.9,3.2l-0.1,5.6l-2.8-0.4l0.1-5.2c0-0.6-0.1-1.2-0.5-1.6
				c-0.3-0.4-0.7-0.7-1.3-0.7c-0.6-0.1-1,0-1.4,0.4c-0.3,0.3-0.5,0.8-0.5,1.5l-0.1,5.1l-2.8-0.4l0.1-9.6l2.8,0.4l0,1.7
				c0.3-0.5,0.7-0.9,1.2-1.2c0.5-0.3,1.1-0.3,1.8-0.2C478.7,217.6,479.6,218.1,480.2,219z"/>
			
				<linearGradient id="SVGID_68_" gradientUnits="userSpaceOnUse" x1="488.7982" y1="75.2213" x2="488.7982" y2="218.7754" gradientTransform="matrix(1 -7.034663e-03 7.812600e-03 1 -3.3156 23.6219)">
				<stop  offset="0" style="stop-color:#FFFFFF"/>
				<stop  offset="0.9997" style="stop-color:#FFFFFF;stop-opacity:0"/>
			</linearGradient>
			<path class="st84" d="M491.6,225.1l-6.4-1c0,0.7,0.2,1.3,0.5,1.6c0.3,0.4,0.7,0.6,1.2,0.7c0.4,0.1,0.8,0,1-0.2
				c0.3-0.2,0.5-0.4,0.6-0.8l3,0.5c-0.1,0.7-0.4,1.2-0.8,1.7c-0.4,0.5-0.9,0.8-1.6,1c-0.6,0.2-1.3,0.3-2.1,0.1
				c-0.9-0.1-1.7-0.5-2.4-1c-0.7-0.5-1.2-1.2-1.6-2c-0.4-0.8-0.6-1.7-0.6-2.7c0-1,0.2-1.9,0.6-2.5c0.4-0.7,1-1.2,1.7-1.5
				c0.7-0.3,1.5-0.4,2.4-0.2c0.9,0.1,1.7,0.5,2.4,1c0.7,0.5,1.2,1.1,1.6,1.9c0.4,0.8,0.6,1.6,0.6,2.5
				C491.7,224.5,491.7,224.8,491.6,225.1z M488.3,221.9c-0.3-0.4-0.7-0.6-1.2-0.7c-0.5-0.1-1,0-1.3,0.3c-0.3,0.3-0.5,0.7-0.6,1.3
				l3.6,0.6C488.8,222.8,488.7,222.3,488.3,221.9z"/>
			
				<linearGradient id="SVGID_69_" gradientUnits="userSpaceOnUse" x1="497.9453" y1="74.8031" x2="497.9453" y2="218.8872" gradientTransform="matrix(1 -7.034663e-03 7.812600e-03 1 -3.3156 23.6219)">
				<stop  offset="0" style="stop-color:#FFFFFF"/>
				<stop  offset="0.9997" style="stop-color:#FFFFFF;stop-opacity:0"/>
			</linearGradient>
			<path class="st85" d="M497.5,221c0.6-0.3,1.2-0.3,1.8-0.2l0,3.2l-0.8-0.1c-0.8-0.1-1.4,0-1.8,0.2c-0.4,0.3-0.6,0.8-0.6,1.6l0,4.4
				l-2.9-0.5l0.1-9.7l2.9,0.4l0,1.8C496.4,221.7,496.9,221.3,497.5,221z"/>
		</g>
	</g>
	<g>
		<linearGradient id="SVGID_70_" gradientUnits="userSpaceOnUse" x1="430.2029" y1="446.1605" x2="477.077" y2="377.1514">
			<stop  offset="0" style="stop-color:#00BB82"/>
			<stop  offset="0.2598" style="stop-color:#04C085;stop-opacity:0.7256"/>
			<stop  offset="0.5711" style="stop-color:#0FCF8D;stop-opacity:0.3967"/>
			<stop  offset="0.9077" style="stop-color:#22E79B;stop-opacity:4.118830e-02"/>
			<stop  offset="0.9467" style="stop-color:#25EA9D;stop-opacity:0"/>
		</linearGradient>
		<path class="st86" d="M487.3,367.4l-72.3,26.3l27.6,13.7l87.4-33C515.7,371.8,501.7,368.5,487.3,367.4z"/>
		<g>
			<g>
				<g>
					<g>
						<g>
							<path class="st7" d="M426.6,363.2c-0.9,0-9.7-1.1-14-8.6c-4-7,0-10.3,3-9.6c1.4,0.3,2.6,1.8,2.6,1.8s1.2,0.4,1-2.3
								c-0.1-2.1-4-5.1-8.5-3.3c-5.8,2.4-6.6,16.4,9.6,23.1c3,1.2,6.8,1.7,9.8,2C429.8,365.6,426.9,363.9,426.6,363.2z"/>
							<polygon class="st7" points="406.5,396.1 406.5,403.1 442.7,407.9 442.6,400.3 							"/>
							<polygon class="st6" points="413.4,392.7 406.5,396.1 442.6,400.3 458.5,389.4 451.2,388.7 							"/>
							<polygon class="st10" points="440.9,397.9 452.5,390 452.4,378.8 435.9,384.9 							"/>
							<polygon class="st10" points="442.7,407.9 458.7,396.1 458.5,389.4 442.6,400.3 							"/>
							<polygon class="st6" points="412,382.9 440.5,385.6 452.4,378.8 426.7,376.6 							"/>
							<polygon class="st7" points="412,382.9 412.3,394.5 440.9,397.9 440.5,385.6 							"/>
							<path class="st7" d="M428.3,373.8c1.1-2.7,0.4-6.6-4.7-11.1c-5.1-4.5-9.3-14-8-26.1l17,0v0l0,0l0,0v0l17.6,0.4
								c-0.2,11.2-3.5,19.8-8.6,24.8c-5.1,5-5.7,8.9-4.7,11.5c1.1,2.7,7,4.2,7.2,5.7c0.2,1.7-2.8,3.6-10.7,3.6l-0.8,0
								c0,0-0.1,0-0.1,0c-8.2-0.5-10.9-1.6-10.8-3C421.9,377.7,427.2,376.6,428.3,373.8z"/>
							<ellipse class="st6" cx="432.9" cy="336.8" rx="17.3" ry="2"/>
							<path class="st7" d="M437.7,363.6c1,0,11.1-0.5,16.8-7.9c5.2-7.6,0-11.1-3.7-10.2c-1.8,0.4-2.7,1.5-2.7,1.5s-1.4,0.5-1.3-2.4
								c0.1-2.2,4.2-6,9.8-4c6.7,2.4,9.5,18-11,24.7c-3.5,1.1-7.8,1.4-11.1,1.5C434.7,366.2,437.4,364.3,437.7,363.6z"/>
						</g>
					</g>
					
						<linearGradient id="SVGID_71_" gradientUnits="userSpaceOnUse" x1="4055.9724" y1="315.1704" x2="4072.9331" y2="359.7469" gradientTransform="matrix(-1 0 0 1 4515.2573 0)">
						<stop  offset="0" style="stop-color:#00BB82"/>
						<stop  offset="0.2731" style="stop-color:#04C085;stop-opacity:0.7269"/>
						<stop  offset="0.6093" style="stop-color:#10CF8E;stop-opacity:0.3907"/>
						<stop  offset="0.9772" style="stop-color:#24E89C;stop-opacity:2.279472e-02"/>
						<stop  offset="1" style="stop-color:#25EA9D;stop-opacity:0"/>
					</linearGradient>
					<path class="st87" d="M449.5,346.1c0,0-1.9,1.5-2.9-0.9c0,0-0.2,8.5-7.6,16.7l0.9,1.3C439.8,363.3,446,361.1,449.5,346.1z"/>
				</g>
				<path class="st10" d="M424.6,348.5l1.7-2.8l3.9,0.2c0,0-0.2,9.9,0.2,14.2l-3.2-0.2l-0.3-11.4H424.6z"/>
			</g>
			<g>
				<polygon class="st4" points="435.7,321.5 432.5,317.3 431.1,322.5 433.1,336.8 437.4,336.8 				"/>
				<path class="st4" d="M433.1,336.8l0.3,2c1.4,0,2.8,0,4.2-0.1l-0.2-1.9H433.1z"/>
			</g>
			<path class="st7" d="M443.9,317.6l-3.8,3.6l-5,18.3l-0.5,1.9c1.1,0.4,2.4,0.8,3.9,1.2l0.7-2.2l5.4-17.4L443.9,317.6z"/>
			<path class="st6" d="M447.5,324.4l-5.3,12.7c1.5,0,2.9-0.1,4.4-0.1l4.8-10.4l0.1-5L447.5,324.4z"/>
		</g>
	</g>
	<path class="st10" d="M380.8,255.5c5.6,2.2,11.5,3.6,17.5,3.9c5.4,0.3,11.3,0,16.4-1.7c3.8-1.3,8.1-3.8,8.9-8
		c0.8-4.2-2.2-7.8-6.1-9.1c-4.2-1.4-8.5,0.8-10.7,4.5c-2.3,4-2.1,8.9,0.1,12.8c2.5,4.3,6.7,6.9,11.2,8.7c5.1,2.1,10.4,3.2,15.9,3
		c5.4-0.2,10.9-0.9,16.2-2c5.3-1.1,10.7-2.6,15.5-5c1.1-0.6,0.1-2.3-1-1.7c-7.8,3.8-16.8,5.5-25.4,6.4c-4.4,0.4-8.8,0.7-13.1-0.2
		c-4.6-0.9-9.5-2.6-13.3-5.4c-3.4-2.5-6.1-6.4-5.9-10.8c0.1-3.8,2.5-7.9,6.4-8.7c3.4-0.7,7.7,1.7,8.2,5.3c0.6,4-3.4,6.8-6.7,8
		c-5.1,1.9-11,2.2-16.4,2c-6-0.3-11.8-1.6-17.4-3.8C380.2,253.2,379.7,255.1,380.8,255.5L380.8,255.5z"/>
</g>
</svg>
